solid OpenSCAD_Model
  facet normal 0.972368 0.233453 0
    outer loop
      vertex 84.9261 50.9386 30
      vertex 84.7063 51.8541 0
      vertex 84.7063 51.8541 30
    endloop
  endfacet
  facet normal 0.972368 0.233453 0
    outer loop
      vertex 84.7063 51.8541 0
      vertex 84.9261 50.9386 30
      vertex 84.9261 50.9386 0
    endloop
  endfacet
  facet normal 0.923873 0.382699 0
    outer loop
      vertex 84.7063 51.8541 30
      vertex 84.346 52.7239 0
      vertex 84.346 52.7239 30
    endloop
  endfacet
  facet normal 0.923873 0.382699 0
    outer loop
      vertex 84.346 52.7239 0
      vertex 84.7063 51.8541 30
      vertex 84.7063 51.8541 0
    endloop
  endfacet
  facet normal 0.852667 0.522455 0
    outer loop
      vertex 84.346 52.7239 30
      vertex 83.8541 53.5267 0
      vertex 83.8541 53.5267 30
    endloop
  endfacet
  facet normal 0.852667 0.522455 0
    outer loop
      vertex 83.8541 53.5267 0
      vertex 84.346 52.7239 30
      vertex 84.346 52.7239 0
    endloop
  endfacet
  facet normal 0 0 -1
    outer loop
      vertex 56.9747 1.0253 0
      vertex 1.0253 1.0253 0
      vertex 56.9747 47.9747 0
    endloop
  endfacet
  facet normal 0 0 -1
    outer loop
      vertex 56.9747 47.9747 0
      vertex 1.33962 48.4451 0
      vertex 1.45 49 0
    endloop
  endfacet
  facet normal 0 0 -1
    outer loop
      vertex 1.0253 47.9747 0
      vertex 56.9747 47.9747 0
      vertex 1.0253 1.0253 0
    endloop
  endfacet
  facet normal 0 0 -1
    outer loop
      vertex 56.9747 47.9747 0
      vertex 1.0253 47.9747 0
      vertex 1.33962 48.4451 0
    endloop
  endfacet
  facet normal 0 0 -1
    outer loop
      vertex 0.554891 1.33962 0
      vertex 1.0253 47.9747 0
      vertex 1.0253 1.0253 0
    endloop
  endfacet
  facet normal 0 0 -1
    outer loop
      vertex 0.554891 1.33962 0
      vertex 0.554891 47.6604 0
      vertex 1.0253 47.9747 0
    endloop
  endfacet
  facet normal 0 0 -1
    outer loop
      vertex 0 1.45 0
      vertex 0.554891 47.6604 0
      vertex 0.554891 1.33962 0
    endloop
  endfacet
  facet normal 0 0 -1
    outer loop
      vertex 0 1.45 0
      vertex 0 47.55 0
      vertex 0.554891 47.6604 0
    endloop
  endfacet
  facet normal 0 0 -1
    outer loop
      vertex -0.554891 1.33962 0
      vertex 0 47.55 0
      vertex 0 1.45 0
    endloop
  endfacet
  facet normal 0 0 -1
    outer loop
      vertex -0.554891 1.33962 0
      vertex -0.554891 47.6604 0
      vertex 0 47.55 0
    endloop
  endfacet
  facet normal 0 0 -1
    outer loop
      vertex -6 0 0
      vertex -0.554891 1.33962 0
      vertex -1.0253 1.0253 0
    endloop
  endfacet
  facet normal -0 0 -1
    outer loop
      vertex -0.554891 1.33962 0
      vertex -6 0 0
      vertex -0.554891 47.6604 0
    endloop
  endfacet
  facet normal 0 0 -1
    outer loop
      vertex -6 0 0
      vertex -1.0253 1.0253 0
      vertex -1.33962 0.554891 0
    endloop
  endfacet
  facet normal 0 0 -1
    outer loop
      vertex -6 50 0
      vertex -0.554891 47.6604 0
      vertex -6 0 0
    endloop
  endfacet
  facet normal 0 0 -1
    outer loop
      vertex -6 0 0
      vertex -1.33962 0.554891 0
      vertex -1.45 0 0
    endloop
  endfacet
  facet normal 0 0 -1
    outer loop
      vertex -0.554891 47.6604 0
      vertex -6 50 0
      vertex -1.0253 47.9747 0
    endloop
  endfacet
  facet normal 0 0 -1
    outer loop
      vertex 59.0253 1.0253 0
      vertex 85 0 0
      vertex 59.3396 0.554891 0
    endloop
  endfacet
  facet normal 0 0 -1
    outer loop
      vertex 85 0 0
      vertex 59.3396 48.4451 0
      vertex 59.45 49 0
    endloop
  endfacet
  facet normal 0 0 -1
    outer loop
      vertex 58.5549 1.33962 0
      vertex 85 0 0
      vertex 59.0253 1.0253 0
    endloop
  endfacet
  facet normal 0 0 -1
    outer loop
      vertex 85 0 0
      vertex 59.0253 47.9747 0
      vertex 59.3396 48.4451 0
    endloop
  endfacet
  facet normal 0 0 -1
    outer loop
      vertex 58.5549 47.6604 0
      vertex 85 0 0
      vertex 58.5549 1.33962 0
    endloop
  endfacet
  facet normal 0 0 -1
    outer loop
      vertex 85 0 0
      vertex 58.5549 47.6604 0
      vertex 59.0253 47.9747 0
    endloop
  endfacet
  facet normal 0 0 -1
    outer loop
      vertex 58 1.45 0
      vertex 58.5549 47.6604 0
      vertex 58.5549 1.33962 0
    endloop
  endfacet
  facet normal 0 0 -1
    outer loop
      vertex 58 1.45 0
      vertex 58 47.55 0
      vertex 58.5549 47.6604 0
    endloop
  endfacet
  facet normal 0 0 -1
    outer loop
      vertex 57.4451 1.33962 0
      vertex 58 47.55 0
      vertex 58 1.45 0
    endloop
  endfacet
  facet normal 0 0 -1
    outer loop
      vertex 57.4451 1.33962 0
      vertex 57.4451 47.6604 0
      vertex 58 47.55 0
    endloop
  endfacet
  facet normal 0 0 -1
    outer loop
      vertex 56.9747 1.0253 0
      vertex 57.4451 47.6604 0
      vertex 57.4451 1.33962 0
    endloop
  endfacet
  facet normal 0 0 -1
    outer loop
      vertex 56.9747 1.0253 0
      vertex 56.9747 47.9747 0
      vertex 57.4451 47.6604 0
    endloop
  endfacet
  facet normal 0 0 -1
    outer loop
      vertex 1.33962 0.554891 0
      vertex 56.6604 0.554891 0
      vertex 1.45 0 0
    endloop
  endfacet
  facet normal 0 0 -1
    outer loop
      vertex 56.6604 0.554891 0
      vertex 1.33962 0.554891 0
      vertex 56.9747 1.0253 0
    endloop
  endfacet
  facet normal 0 0 -1
    outer loop
      vertex 1.45 0 0
      vertex 56.6604 0.554891 0
      vertex 56.55 0 0
    endloop
  endfacet
  facet normal 0 0 -1
    outer loop
      vertex 1.0253 1.0253 0
      vertex 56.9747 1.0253 0
      vertex 1.33962 0.554891 0
    endloop
  endfacet
  facet normal 0 0 -1
    outer loop
      vertex 79 -6 0
      vertex 85 0 0
      vertex 84.9261 -0.938599 0
    endloop
  endfacet
  facet normal 0 0 -1
    outer loop
      vertex 85 0 0
      vertex 59.45 49 0
      vertex 85 50 0
    endloop
  endfacet
  facet normal 0 0 -1
    outer loop
      vertex 79 -6 0
      vertex 84.9261 -0.938599 0
      vertex 84.7063 -1.8541 0
    endloop
  endfacet
  facet normal 0 -0 -1
    outer loop
      vertex 79 56 0
      vertex 85 50 0
      vertex 59.45 49 0
    endloop
  endfacet
  facet normal 0 0 -1
    outer loop
      vertex 79 -6 0
      vertex 84.7063 -1.8541 0
      vertex 84.346 -2.72394 0
    endloop
  endfacet
  facet normal 0 0 -1
    outer loop
      vertex 85 50 0
      vertex 79 56 0
      vertex 84.9261 50.9386 0
    endloop
  endfacet
  facet normal 0 0 -1
    outer loop
      vertex 79 -6 0
      vertex 84.346 -2.72394 0
      vertex 83.8541 -3.5267 0
    endloop
  endfacet
  facet normal 0 0 -1
    outer loop
      vertex 84.9261 50.9386 0
      vertex 79 56 0
      vertex 84.7063 51.8541 0
    endloop
  endfacet
  facet normal 0 0 -1
    outer loop
      vertex 79 -6 0
      vertex 83.8541 -3.5267 0
      vertex 83.2426 -4.24263 0
    endloop
  endfacet
  facet normal 0 0 -1
    outer loop
      vertex 84.7063 51.8541 0
      vertex 79 56 0
      vertex 84.346 52.7239 0
    endloop
  endfacet
  facet normal 0 0 -1
    outer loop
      vertex 79 -6 0
      vertex 83.2426 -4.24263 0
      vertex 82.5267 -4.8541 0
    endloop
  endfacet
  facet normal 0 0 -1
    outer loop
      vertex 84.346 52.7239 0
      vertex 79 56 0
      vertex 83.8541 53.5267 0
    endloop
  endfacet
  facet normal 0 0 -1
    outer loop
      vertex 79 -6 0
      vertex 82.5267 -4.8541 0
      vertex 81.7239 -5.34604 0
    endloop
  endfacet
  facet normal 0 0 -1
    outer loop
      vertex 83.8541 53.5267 0
      vertex 79 56 0
      vertex 83.2426 54.2426 0
    endloop
  endfacet
  facet normal 0 0 -1
    outer loop
      vertex 79 -6 0
      vertex 81.7239 -5.34604 0
      vertex 80.8541 -5.70633 0
    endloop
  endfacet
  facet normal 0 0 -1
    outer loop
      vertex 83.2426 54.2426 0
      vertex 79 56 0
      vertex 82.5267 54.8541 0
    endloop
  endfacet
  facet normal 0 0 -1
    outer loop
      vertex 79 -6 0
      vertex 80.8541 -5.70633 0
      vertex 79.9386 -5.92612 0
    endloop
  endfacet
  facet normal 0 0 -1
    outer loop
      vertex 82.5267 54.8541 0
      vertex 79 56 0
      vertex 81.7239 55.346 0
    endloop
  endfacet
  facet normal 0 0 -1
    outer loop
      vertex 59.3396 0.554891 0
      vertex 79 -6 0
      vertex 59.45 0 0
    endloop
  endfacet
  facet normal 0 0 -1
    outer loop
      vertex 81.7239 55.346 0
      vertex 79 56 0
      vertex 80.8541 55.7063 0
    endloop
  endfacet
  facet normal 0 0 -1
    outer loop
      vertex 79 -6 0
      vertex 59.3396 0.554891 0
      vertex 85 0 0
    endloop
  endfacet
  facet normal 0 0 -1
    outer loop
      vertex 79 -6 0
      vertex 59.3396 -0.554891 0
      vertex 59.45 0 0
    endloop
  endfacet
  facet normal 0 0 -1
    outer loop
      vertex 79 -6 0
      vertex 59.0253 -1.0253 0
      vertex 59.3396 -0.554891 0
    endloop
  endfacet
  facet normal 0 0 -1
    outer loop
      vertex 79 -6 0
      vertex 58.5549 -1.33962 0
      vertex 59.0253 -1.0253 0
    endloop
  endfacet
  facet normal 0 0 -1
    outer loop
      vertex 79 -6 0
      vertex 58 -1.45 0
      vertex 58.5549 -1.33962 0
    endloop
  endfacet
  facet normal 0 0 -1
    outer loop
      vertex 0 -6 0
      vertex 58 -1.45 0
      vertex 79 -6 0
    endloop
  endfacet
  facet normal 0 0 -1
    outer loop
      vertex 56.9747 47.9747 0
      vertex 1.45 49 0
      vertex 56.6604 48.4451 0
    endloop
  endfacet
  facet normal 0 0 -1
    outer loop
      vertex 56.6604 -0.554891 0
      vertex 1.45 0 0
      vertex 56.55 0 0
    endloop
  endfacet
  facet normal 0 0 -1
    outer loop
      vertex 0 -6 0
      vertex 56.6604 -0.554891 0
      vertex 56.9747 -1.0253 0
    endloop
  endfacet
  facet normal 0 0 -1
    outer loop
      vertex 0 -6 0
      vertex 56.9747 -1.0253 0
      vertex 57.4451 -1.33962 0
    endloop
  endfacet
  facet normal -0 0 -1
    outer loop
      vertex 58 -1.45 0
      vertex 0 -6 0
      vertex 57.4451 -1.33962 0
    endloop
  endfacet
  facet normal 0 0 -1
    outer loop
      vertex 56.6604 -0.554891 0
      vertex 1.33962 -0.554891 0
      vertex 1.45 0 0
    endloop
  endfacet
  facet normal -0 0 -1
    outer loop
      vertex 56.6604 -0.554891 0
      vertex 0 -6 0
      vertex 1.33962 -0.554891 0
    endloop
  endfacet
  facet normal 0 0 -1
    outer loop
      vertex 1.33962 -0.554891 0
      vertex 0 -6 0
      vertex 1.0253 -1.0253 0
    endloop
  endfacet
  facet normal 0 0 -1
    outer loop
      vertex 1.0253 -1.0253 0
      vertex 0 -6 0
      vertex 0.554891 -1.33962 0
    endloop
  endfacet
  facet normal 0 0 -1
    outer loop
      vertex 0 -6 0
      vertex 0 -1.45 0
      vertex 0.554891 -1.33962 0
    endloop
  endfacet
  facet normal 0 0 -1
    outer loop
      vertex -0.938599 -5.92612 0
      vertex 0 -1.45 0
      vertex 0 -6 0
    endloop
  endfacet
  facet normal -0 0 -1
    outer loop
      vertex 0 -1.45 0
      vertex -0.938599 -5.92612 0
      vertex -0.554891 -1.33962 0
    endloop
  endfacet
  facet normal 0 0 -1
    outer loop
      vertex -1.8541 -5.70633 0
      vertex -0.554891 -1.33962 0
      vertex -0.938599 -5.92612 0
    endloop
  endfacet
  facet normal 0 0 -1
    outer loop
      vertex -2.72394 -5.34604 0
      vertex -0.554891 -1.33962 0
      vertex -1.8541 -5.70633 0
    endloop
  endfacet
  facet normal 0 0 -1
    outer loop
      vertex -3.5267 -4.8541 0
      vertex -0.554891 -1.33962 0
      vertex -2.72394 -5.34604 0
    endloop
  endfacet
  facet normal 0 0 -1
    outer loop
      vertex -4.24263 -4.24263 0
      vertex -1.0253 -1.0253 0
      vertex -3.5267 -4.8541 0
    endloop
  endfacet
  facet normal -0 0 -1
    outer loop
      vertex -0.554891 -1.33962 0
      vertex -3.5267 -4.8541 0
      vertex -1.0253 -1.0253 0
    endloop
  endfacet
  facet normal 0 0 -1
    outer loop
      vertex 80.8541 55.7063 0
      vertex 79 56 0
      vertex 79.9386 55.9261 0
    endloop
  endfacet
  facet normal 0 0 -1
    outer loop
      vertex 59.3396 49.5549 0
      vertex 79 56 0
      vertex 59.45 49 0
    endloop
  endfacet
  facet normal 0 0 -1
    outer loop
      vertex 59.0253 50.0253 0
      vertex 79 56 0
      vertex 59.3396 49.5549 0
    endloop
  endfacet
  facet normal 0 0 -1
    outer loop
      vertex 58.5549 50.3396 0
      vertex 79 56 0
      vertex 59.0253 50.0253 0
    endloop
  endfacet
  facet normal 0 0 -1
    outer loop
      vertex 58 50.45 0
      vertex 79 56 0
      vertex 58.5549 50.3396 0
    endloop
  endfacet
  facet normal 0 0 -1
    outer loop
      vertex 0 56 0
      vertex 58 50.45 0
      vertex 57.4451 50.3396 0
    endloop
  endfacet
  facet normal 0 0 -1
    outer loop
      vertex 56.6604 48.4451 0
      vertex 1.45 49 0
      vertex 56.55 49 0
    endloop
  endfacet
  facet normal 0 0 -1
    outer loop
      vertex 56.55 49 0
      vertex 1.45 49 0
      vertex 56.6604 49.5549 0
    endloop
  endfacet
  facet normal 0 0 -1
    outer loop
      vertex 1.33962 49.5549 0
      vertex 56.6604 49.5549 0
      vertex 1.45 49 0
    endloop
  endfacet
  facet normal 0 0 -1
    outer loop
      vertex 0 56 0
      vertex 56.6604 49.5549 0
      vertex 1.33962 49.5549 0
    endloop
  endfacet
  facet normal 0 0 -1
    outer loop
      vertex 56.6604 49.5549 0
      vertex 0 56 0
      vertex 56.9747 50.0253 0
    endloop
  endfacet
  facet normal 0 0 -1
    outer loop
      vertex 56.9747 50.0253 0
      vertex 0 56 0
      vertex 57.4451 50.3396 0
    endloop
  endfacet
  facet normal 0 0 -1
    outer loop
      vertex 0 56 0
      vertex 1.33962 49.5549 0
      vertex 1.0253 50.0253 0
    endloop
  endfacet
  facet normal 0 0 -1
    outer loop
      vertex 0 56 0
      vertex 1.0253 50.0253 0
      vertex 0.554891 50.3396 0
    endloop
  endfacet
  facet normal 0 0 -1
    outer loop
      vertex 0 56 0
      vertex 0.554891 50.3396 0
      vertex 0 50.45 0
    endloop
  endfacet
  facet normal 0 0 -1
    outer loop
      vertex 58 50.45 0
      vertex 0 56 0
      vertex 79 56 0
    endloop
  endfacet
  facet normal 0 0 -1
    outer loop
      vertex -1.8541 55.7063 0
      vertex 0 50.45 0
      vertex -0.554891 50.3396 0
    endloop
  endfacet
  facet normal 0 0 -1
    outer loop
      vertex 0 50.45 0
      vertex -0.938599 55.9261 0
      vertex 0 56 0
    endloop
  endfacet
  facet normal 0 0 -1
    outer loop
      vertex -4.24263 54.2426 0
      vertex -0.554891 50.3396 0
      vertex -1.0253 50.0253 0
    endloop
  endfacet
  facet normal 0 0 -1
    outer loop
      vertex -5.70633 51.8541 0
      vertex -1.0253 50.0253 0
      vertex -1.33962 49.5549 0
    endloop
  endfacet
  facet normal 0 0 -1
    outer loop
      vertex -6 50 0
      vertex -1.33962 49.5549 0
      vertex -1.45 49 0
    endloop
  endfacet
  facet normal 0 0 -1
    outer loop
      vertex 0 50.45 0
      vertex -1.8541 55.7063 0
      vertex -0.938599 55.9261 0
    endloop
  endfacet
  facet normal 0 0 -1
    outer loop
      vertex -1.0253 47.9747 0
      vertex -6 50 0
      vertex -1.33962 48.4451 0
    endloop
  endfacet
  facet normal 0 0 -1
    outer loop
      vertex -4.8541 -3.5267 0
      vertex -1.0253 -1.0253 0
      vertex -4.24263 -4.24263 0
    endloop
  endfacet
  facet normal 0 0 -1
    outer loop
      vertex -1.33962 48.4451 0
      vertex -6 50 0
      vertex -1.45 49 0
    endloop
  endfacet
  facet normal -0 0 -1
    outer loop
      vertex -1.0253 -1.0253 0
      vertex -4.8541 -3.5267 0
      vertex -1.33962 -0.554891 0
    endloop
  endfacet
  facet normal 0 0 -1
    outer loop
      vertex -1.33962 49.5549 0
      vertex -6 50 0
      vertex -5.92612 50.9386 0
    endloop
  endfacet
  facet normal 0 0 -1
    outer loop
      vertex -5.34604 -2.72394 0
      vertex -1.33962 -0.554891 0
      vertex -4.8541 -3.5267 0
    endloop
  endfacet
  facet normal 0 0 -1
    outer loop
      vertex -0.554891 50.3396 0
      vertex -2.72394 55.346 0
      vertex -1.8541 55.7063 0
    endloop
  endfacet
  facet normal 0 0 -1
    outer loop
      vertex -5.70633 -1.8541 0
      vertex -1.33962 -0.554891 0
      vertex -5.34604 -2.72394 0
    endloop
  endfacet
  facet normal 0 0 -1
    outer loop
      vertex -0.554891 50.3396 0
      vertex -3.5267 54.8541 0
      vertex -2.72394 55.346 0
    endloop
  endfacet
  facet normal 0 0 -1
    outer loop
      vertex -5.92612 -0.938599 0
      vertex -1.33962 -0.554891 0
      vertex -5.70633 -1.8541 0
    endloop
  endfacet
  facet normal 0 0 -1
    outer loop
      vertex -0.554891 50.3396 0
      vertex -4.24263 54.2426 0
      vertex -3.5267 54.8541 0
    endloop
  endfacet
  facet normal -0 0 -1
    outer loop
      vertex -1.33962 -0.554891 0
      vertex -5.92612 -0.938599 0
      vertex -1.45 0 0
    endloop
  endfacet
  facet normal 0 0 -1
    outer loop
      vertex -1.0253 50.0253 0
      vertex -4.8541 53.5267 0
      vertex -4.24263 54.2426 0
    endloop
  endfacet
  facet normal -0 0 -1
    outer loop
      vertex -1.45 0 0
      vertex -5.92612 -0.938599 0
      vertex -6 0 0
    endloop
  endfacet
  facet normal 0 0 -1
    outer loop
      vertex -1.0253 50.0253 0
      vertex -5.34604 52.7239 0
      vertex -4.8541 53.5267 0
    endloop
  endfacet
  facet normal 0 0 -1
    outer loop
      vertex -1.0253 50.0253 0
      vertex -5.70633 51.8541 0
      vertex -5.34604 52.7239 0
    endloop
  endfacet
  facet normal 0 0 -1
    outer loop
      vertex -1.33962 49.5549 0
      vertex -5.92612 50.9386 0
      vertex -5.70633 51.8541 0
    endloop
  endfacet
  facet normal -0.649453 -0.760402 0
    outer loop
      vertex -4.24263 -4.24263 0
      vertex -3.5267 -4.8541 30
      vertex -4.24263 -4.24263 30
    endloop
  endfacet
  facet normal -0.649453 -0.760402 -0
    outer loop
      vertex -3.5267 -4.8541 30
      vertex -4.24263 -4.24263 0
      vertex -3.5267 -4.8541 0
    endloop
  endfacet
  facet normal 1 -0 0
    outer loop
      vertex 85 0 30
      vertex 85 50 0
      vertex 85 50 30
    endloop
  endfacet
  facet normal 1 0 0
    outer loop
      vertex 85 50 0
      vertex 85 0 30
      vertex 85 0 0
    endloop
  endfacet
  facet normal 0.996915 0.0784914 0
    outer loop
      vertex 85 50 30
      vertex 84.9261 50.9386 0
      vertex 84.9261 50.9386 30
    endloop
  endfacet
  facet normal 0.996915 0.0784914 0
    outer loop
      vertex 84.9261 50.9386 0
      vertex 85 50 30
      vertex 85 50 0
    endloop
  endfacet
  facet normal 0 -1 0
    outer loop
      vertex 0 -6 0
      vertex 79 -6 30
      vertex 0 -6 30
    endloop
  endfacet
  facet normal 0 -1 -0
    outer loop
      vertex 79 -6 30
      vertex 0 -6 0
      vertex 79 -6 0
    endloop
  endfacet
  facet normal 0.0784703 -0.996916 0
    outer loop
      vertex 79 -6 0
      vertex 79.9386 -5.92612 30
      vertex 79 -6 30
    endloop
  endfacet
  facet normal 0.0784703 -0.996916 0
    outer loop
      vertex 79.9386 -5.92612 30
      vertex 79 -6 0
      vertex 79.9386 -5.92612 0
    endloop
  endfacet
  facet normal 0.923879 -0.382684 0
    outer loop
      vertex 84.346 -2.72394 30
      vertex 84.7063 -1.8541 0
      vertex 84.7063 -1.8541 30
    endloop
  endfacet
  facet normal 0.923879 -0.382684 0
    outer loop
      vertex 84.7063 -1.8541 0
      vertex 84.346 -2.72394 30
      vertex 84.346 -2.72394 0
    endloop
  endfacet
  facet normal 0.522486 -0.852648 0
    outer loop
      vertex 81.7239 -5.34604 0
      vertex 82.5267 -4.8541 30
      vertex 81.7239 -5.34604 30
    endloop
  endfacet
  facet normal 0.522486 -0.852648 0
    outer loop
      vertex 82.5267 -4.8541 30
      vertex 81.7239 -5.34604 0
      vertex 82.5267 -4.8541 0
    endloop
  endfacet
  facet normal -0.923883 -0.382675 0
    outer loop
      vertex -5.34604 -2.72394 0
      vertex -5.70633 -1.8541 30
      vertex -5.70633 -1.8541 0
    endloop
  endfacet
  facet normal -0.923883 -0.382675 0
    outer loop
      vertex -5.70633 -1.8541 30
      vertex -5.34604 -2.72394 0
      vertex -5.34604 -2.72394 30
    endloop
  endfacet
  facet normal -1 0 0
    outer loop
      vertex -6 0 0
      vertex -6 50 30
      vertex -6 50 0
    endloop
  endfacet
  facet normal -1 -0 0
    outer loop
      vertex -6 50 30
      vertex -6 0 0
      vertex -6 0 30
    endloop
  endfacet
  facet normal 0 1 -0
    outer loop
      vertex 79 56 0
      vertex 0 56 30
      vertex 79 56 30
    endloop
  endfacet
  facet normal 0 1 0
    outer loop
      vertex 0 56 30
      vertex 79 56 0
      vertex 0 56 0
    endloop
  endfacet
  facet normal -0.649471 0.760386 0
    outer loop
      vertex -3.5267 54.8541 0
      vertex -4.24263 54.2426 30
      vertex -3.5267 54.8541 30
    endloop
  endfacet
  facet normal -0.649471 0.760386 0
    outer loop
      vertex -4.24263 54.2426 30
      vertex -3.5267 54.8541 0
      vertex -4.24263 54.2426 0
    endloop
  endfacet
  facet normal -0.923877 0.38269 0
    outer loop
      vertex -5.70633 51.8541 0
      vertex -5.34604 52.7239 30
      vertex -5.34604 52.7239 0
    endloop
  endfacet
  facet normal -0.923877 0.38269 0
    outer loop
      vertex -5.34604 52.7239 30
      vertex -5.70633 51.8541 0
      vertex -5.70633 51.8541 30
    endloop
  endfacet
  facet normal -0.852636 -0.522505 0
    outer loop
      vertex -4.8541 -3.5267 0
      vertex -5.34604 -2.72394 30
      vertex -5.34604 -2.72394 0
    endloop
  endfacet
  facet normal -0.852636 -0.522505 0
    outer loop
      vertex -5.34604 -2.72394 30
      vertex -4.8541 -3.5267 0
      vertex -4.8541 -3.5267 30
    endloop
  endfacet
  facet normal 0.972368 -0.233453 0
    outer loop
      vertex 84.7063 -1.8541 30
      vertex 84.9261 -0.938599 0
      vertex 84.9261 -0.938599 30
    endloop
  endfacet
  facet normal 0.972368 -0.233453 0
    outer loop
      vertex 84.9261 -0.938599 0
      vertex 84.7063 -1.8541 30
      vertex 84.7063 -1.8541 0
    endloop
  endfacet
  facet normal 0.760386 -0.649471 0
    outer loop
      vertex 83.2426 -4.24263 30
      vertex 83.8541 -3.5267 0
      vertex 83.8541 -3.5267 30
    endloop
  endfacet
  facet normal 0.760386 -0.649471 0
    outer loop
      vertex 83.8541 -3.5267 0
      vertex 83.2426 -4.24263 30
      vertex 83.2426 -4.24263 0
    endloop
  endfacet
  facet normal 0.852655 -0.522474 0
    outer loop
      vertex 83.8541 -3.5267 30
      vertex 84.346 -2.72394 0
      vertex 84.346 -2.72394 30
    endloop
  endfacet
  facet normal 0.852655 -0.522474 0
    outer loop
      vertex 84.346 -2.72394 0
      vertex 83.8541 -3.5267 30
      vertex 83.8541 -3.5267 0
    endloop
  endfacet
  facet normal -0.996916 -0.0784703 0
    outer loop
      vertex -5.92612 -0.938599 0
      vertex -6 0 30
      vertex -6 0 0
    endloop
  endfacet
  facet normal -0.996916 -0.0784703 0
    outer loop
      vertex -6 0 30
      vertex -5.92612 -0.938599 0
      vertex -5.92612 -0.938599 30
    endloop
  endfacet
  facet normal 0.0784914 0.996915 -0
    outer loop
      vertex 79.9386 55.9261 0
      vertex 79 56 30
      vertex 79.9386 55.9261 30
    endloop
  endfacet
  facet normal 0.0784914 0.996915 0
    outer loop
      vertex 79 56 30
      vertex 79.9386 55.9261 0
      vertex 79 56 0
    endloop
  endfacet
  facet normal -0.382684 0.923879 0
    outer loop
      vertex -1.8541 55.7063 0
      vertex -2.72394 55.346 30
      vertex -1.8541 55.7063 30
    endloop
  endfacet
  facet normal -0.382684 0.923879 0
    outer loop
      vertex -2.72394 55.346 30
      vertex -1.8541 55.7063 0
      vertex -2.72394 55.346 0
    endloop
  endfacet
  facet normal -0.852648 0.522486 0
    outer loop
      vertex -5.34604 52.7239 0
      vertex -4.8541 53.5267 30
      vertex -4.8541 53.5267 0
    endloop
  endfacet
  facet normal -0.852648 0.522486 0
    outer loop
      vertex -4.8541 53.5267 30
      vertex -5.34604 52.7239 0
      vertex -5.34604 52.7239 30
    endloop
  endfacet
  facet normal -0.97237 0.233443 0
    outer loop
      vertex -5.92612 50.9386 0
      vertex -5.70633 51.8541 30
      vertex -5.70633 51.8541 0
    endloop
  endfacet
  facet normal -0.97237 0.233443 0
    outer loop
      vertex -5.70633 51.8541 30
      vertex -5.92612 50.9386 0
      vertex -5.92612 50.9386 30
    endloop
  endfacet
  facet normal -0.233443 -0.97237 0
    outer loop
      vertex -1.8541 -5.70633 0
      vertex -0.938599 -5.92612 30
      vertex -1.8541 -5.70633 30
    endloop
  endfacet
  facet normal -0.233443 -0.97237 -0
    outer loop
      vertex -0.938599 -5.92612 30
      vertex -1.8541 -5.70633 0
      vertex -0.938599 -5.92612 0
    endloop
  endfacet
  facet normal 0.38269 -0.923877 0
    outer loop
      vertex 80.8541 -5.70633 0
      vertex 81.7239 -5.34604 30
      vertex 80.8541 -5.70633 30
    endloop
  endfacet
  facet normal 0.38269 -0.923877 0
    outer loop
      vertex 81.7239 -5.34604 30
      vertex 80.8541 -5.70633 0
      vertex 81.7239 -5.34604 0
    endloop
  endfacet
  facet normal 0.996915 -0.0784915 0
    outer loop
      vertex 84.9261 -0.938599 30
      vertex 85 0 0
      vertex 85 0 30
    endloop
  endfacet
  facet normal 0.996915 -0.0784915 0
    outer loop
      vertex 85 0 0
      vertex 84.9261 -0.938599 30
      vertex 84.9261 -0.938599 0
    endloop
  endfacet
  facet normal 0.649469 -0.760388 0
    outer loop
      vertex 82.5267 -4.8541 0
      vertex 83.2426 -4.24263 30
      vertex 82.5267 -4.8541 30
    endloop
  endfacet
  facet normal 0.649469 -0.760388 0
    outer loop
      vertex 83.2426 -4.24263 30
      vertex 82.5267 -4.8541 0
      vertex 83.2426 -4.24263 0
    endloop
  endfacet
  facet normal -0.97237 -0.233443 0
    outer loop
      vertex -5.70633 -1.8541 0
      vertex -5.92612 -0.938599 30
      vertex -5.92612 -0.938599 0
    endloop
  endfacet
  facet normal -0.97237 -0.233443 0
    outer loop
      vertex -5.92612 -0.938599 30
      vertex -5.70633 -1.8541 0
      vertex -5.70633 -1.8541 30
    endloop
  endfacet
  facet normal 0 0 1
    outer loop
      vertex 83 50 30
      vertex 85 50 30
      vertex 84.9261 50.9386 30
    endloop
  endfacet
  facet normal 0 0 1
    outer loop
      vertex 85 50 30
      vertex 83 50 30
      vertex 85 0 30
    endloop
  endfacet
  facet normal -0 0 1
    outer loop
      vertex 82.8637 51.0353 30
      vertex 84.9261 50.9386 30
      vertex 84.7063 51.8541 30
    endloop
  endfacet
  facet normal 0 0 1
    outer loop
      vertex 83 0 30
      vertex 85 0 30
      vertex 83 50 30
    endloop
  endfacet
  facet normal 0 0 1
    outer loop
      vertex 82.8637 51.0353 30
      vertex 84.7063 51.8541 30
      vertex 84.346 52.7239 30
    endloop
  endfacet
  facet normal 0 0 1
    outer loop
      vertex 85 0 30
      vertex 83 0 30
      vertex 84.9261 -0.938599 30
    endloop
  endfacet
  facet normal 0 0 1
    outer loop
      vertex 82.4641 52 30
      vertex 84.346 52.7239 30
      vertex 83.8541 53.5267 30
    endloop
  endfacet
  facet normal 0 0 1
    outer loop
      vertex 82.8637 -1.03526 30
      vertex 84.9261 -0.938599 30
      vertex 83 0 30
    endloop
  endfacet
  facet normal 0 0 1
    outer loop
      vertex 81.8284 52.8284 30
      vertex 83.8541 53.5267 30
      vertex 83.2426 54.2426 30
    endloop
  endfacet
  facet normal 0 0 1
    outer loop
      vertex 84.9261 -0.938599 30
      vertex 82.8637 -1.03526 30
      vertex 84.7063 -1.8541 30
    endloop
  endfacet
  facet normal 0 0 1
    outer loop
      vertex 84.7063 -1.8541 30
      vertex 82.8637 -1.03526 30
      vertex 84.346 -2.72394 30
    endloop
  endfacet
  facet normal 0 0 1
    outer loop
      vertex 84.9261 50.9386 30
      vertex 82.8637 51.0353 30
      vertex 83 50 30
    endloop
  endfacet
  facet normal 0 0 1
    outer loop
      vertex 81.8284 52.8284 30
      vertex 83.2426 54.2426 30
      vertex 82.5267 54.8541 30
    endloop
  endfacet
  facet normal 0 0 1
    outer loop
      vertex 84.346 52.7239 30
      vertex 82.4641 52 30
      vertex 82.8637 51.0353 30
    endloop
  endfacet
  facet normal 0 0 1
    outer loop
      vertex 83.8541 53.5267 30
      vertex 81.8284 52.8284 30
      vertex 82.4641 52 30
    endloop
  endfacet
  facet normal 0 0 1
    outer loop
      vertex 81 53.4641 30
      vertex 82.5267 54.8541 30
      vertex 81.7239 55.346 30
    endloop
  endfacet
  facet normal 0 0 1
    outer loop
      vertex 82.5267 54.8541 30
      vertex 81 53.4641 30
      vertex 81.8284 52.8284 30
    endloop
  endfacet
  facet normal 0 0 1
    outer loop
      vertex 80.8541 55.7063 30
      vertex 81 53.4641 30
      vertex 81.7239 55.346 30
    endloop
  endfacet
  facet normal 0 0 1
    outer loop
      vertex 80.8541 55.7063 30
      vertex 80.0353 53.8637 30
      vertex 81 53.4641 30
    endloop
  endfacet
  facet normal 0 0 1
    outer loop
      vertex 79.9386 55.9261 30
      vertex 80.0353 53.8637 30
      vertex 80.8541 55.7063 30
    endloop
  endfacet
  facet normal 0 0 1
    outer loop
      vertex 79 54 30
      vertex 79.9386 55.9261 30
      vertex 79 56 30
    endloop
  endfacet
  facet normal 0 0 1
    outer loop
      vertex 79.9386 55.9261 30
      vertex 79 54 30
      vertex 80.0353 53.8637 30
    endloop
  endfacet
  facet normal -0 0 1
    outer loop
      vertex 0 56 30
      vertex 79 54 30
      vertex 79 56 30
    endloop
  endfacet
  facet normal 0 0 1
    outer loop
      vertex 0 56 30
      vertex 0 54 30
      vertex 79 54 30
    endloop
  endfacet
  facet normal -0 0 1
    outer loop
      vertex -0.938599 55.9261 30
      vertex 0 54 30
      vertex 0 56 30
    endloop
  endfacet
  facet normal 0 0 1
    outer loop
      vertex -0.938599 55.9261 30
      vertex -1.03526 53.8637 30
      vertex 0 54 30
    endloop
  endfacet
  facet normal -0 0 1
    outer loop
      vertex -1.8541 55.7063 30
      vertex -1.03526 53.8637 30
      vertex -0.938599 55.9261 30
    endloop
  endfacet
  facet normal 0 0 1
    outer loop
      vertex -1.8541 55.7063 30
      vertex -2 53.4641 30
      vertex -1.03526 53.8637 30
    endloop
  endfacet
  facet normal -0 0 1
    outer loop
      vertex -2.72394 55.346 30
      vertex -2 53.4641 30
      vertex -1.8541 55.7063 30
    endloop
  endfacet
  facet normal -0 0 1
    outer loop
      vertex -3.5267 54.8541 30
      vertex -2 53.4641 30
      vertex -2.72394 55.346 30
    endloop
  endfacet
  facet normal 0 0 1
    outer loop
      vertex -2 53.4641 30
      vertex -3.5267 54.8541 30
      vertex -2.82841 52.8284 30
    endloop
  endfacet
  facet normal -0 0 1
    outer loop
      vertex -4.24263 54.2426 30
      vertex -2.82841 52.8284 30
      vertex -3.5267 54.8541 30
    endloop
  endfacet
  facet normal -0 0 1
    outer loop
      vertex -4.8541 53.5267 30
      vertex -2.82841 52.8284 30
      vertex -4.24263 54.2426 30
    endloop
  endfacet
  facet normal 0 0 1
    outer loop
      vertex -2.82841 52.8284 30
      vertex -4.8541 53.5267 30
      vertex -3.4641 52 30
    endloop
  endfacet
  facet normal 0 0 1
    outer loop
      vertex -3.4641 52 30
      vertex -5.34604 52.7239 30
      vertex -3.86369 51.0353 30
    endloop
  endfacet
  facet normal -0 0 1
    outer loop
      vertex -5.34604 52.7239 30
      vertex -3.4641 52 30
      vertex -4.8541 53.5267 30
    endloop
  endfacet
  facet normal -0 0 1
    outer loop
      vertex 82.4641 -2 30
      vertex 84.346 -2.72394 30
      vertex 82.8637 -1.03526 30
    endloop
  endfacet
  facet normal 0 0 1
    outer loop
      vertex 84.346 -2.72394 30
      vertex 82.4641 -2 30
      vertex 83.8541 -3.5267 30
    endloop
  endfacet
  facet normal -0 0 1
    outer loop
      vertex 81.8284 -2.82841 30
      vertex 83.8541 -3.5267 30
      vertex 82.4641 -2 30
    endloop
  endfacet
  facet normal 0 0 1
    outer loop
      vertex 83.8541 -3.5267 30
      vertex 81.8284 -2.82841 30
      vertex 83.2426 -4.24263 30
    endloop
  endfacet
  facet normal 0 0 1
    outer loop
      vertex 83.2426 -4.24263 30
      vertex 81.8284 -2.82841 30
      vertex 82.5267 -4.8541 30
    endloop
  endfacet
  facet normal -0 0 1
    outer loop
      vertex 81 -3.4641 30
      vertex 82.5267 -4.8541 30
      vertex 81.8284 -2.82841 30
    endloop
  endfacet
  facet normal 0 0 1
    outer loop
      vertex 82.5267 -4.8541 30
      vertex 81 -3.4641 30
      vertex 81.7239 -5.34604 30
    endloop
  endfacet
  facet normal 0 0 1
    outer loop
      vertex 81 -3.4641 30
      vertex 80.8541 -5.70633 30
      vertex 81.7239 -5.34604 30
    endloop
  endfacet
  facet normal -0 0 1
    outer loop
      vertex 80.0353 -3.86369 30
      vertex 80.8541 -5.70633 30
      vertex 81 -3.4641 30
    endloop
  endfacet
  facet normal 0 0 1
    outer loop
      vertex 80.0353 -3.86369 30
      vertex 79.9386 -5.92612 30
      vertex 80.8541 -5.70633 30
    endloop
  endfacet
  facet normal -0 0 1
    outer loop
      vertex 79 -4 30
      vertex 79.9386 -5.92612 30
      vertex 80.0353 -3.86369 30
    endloop
  endfacet
  facet normal 0 0 1
    outer loop
      vertex 79 -4 30
      vertex 79 -6 30
      vertex 79.9386 -5.92612 30
    endloop
  endfacet
  facet normal -0 0 1
    outer loop
      vertex 0 -4 30
      vertex 79 -6 30
      vertex 79 -4 30
    endloop
  endfacet
  facet normal 0 0 1
    outer loop
      vertex 0 -4 30
      vertex 0 -6 30
      vertex 79 -6 30
    endloop
  endfacet
  facet normal 0 0 1
    outer loop
      vertex 0 -4 30
      vertex -0.938599 -5.92612 30
      vertex 0 -6 30
    endloop
  endfacet
  facet normal 0 0 1
    outer loop
      vertex -1.03526 -3.86369 30
      vertex -0.938599 -5.92612 30
      vertex 0 -4 30
    endloop
  endfacet
  facet normal 0 0 1
    outer loop
      vertex -1.03526 -3.86369 30
      vertex -1.8541 -5.70633 30
      vertex -0.938599 -5.92612 30
    endloop
  endfacet
  facet normal 0 0 1
    outer loop
      vertex -2 -3.4641 30
      vertex -1.8541 -5.70633 30
      vertex -1.03526 -3.86369 30
    endloop
  endfacet
  facet normal 0 0 1
    outer loop
      vertex -2 -3.4641 30
      vertex -2.72394 -5.34604 30
      vertex -1.8541 -5.70633 30
    endloop
  endfacet
  facet normal 0 0 1
    outer loop
      vertex -3.5267 -4.8541 30
      vertex -2 -3.4641 30
      vertex -2.82841 -2.82841 30
    endloop
  endfacet
  facet normal 0 0 1
    outer loop
      vertex -4.8541 -3.5267 30
      vertex -2.82841 -2.82841 30
      vertex -3.4641 -2 30
    endloop
  endfacet
  facet normal 0 0 1
    outer loop
      vertex -2 -3.4641 30
      vertex -3.5267 -4.8541 30
      vertex -2.72394 -5.34604 30
    endloop
  endfacet
  facet normal 0 0 1
    outer loop
      vertex -5.34604 -2.72394 30
      vertex -3.4641 -2 30
      vertex -3.86369 -1.03526 30
    endloop
  endfacet
  facet normal -0 0 1
    outer loop
      vertex -5.92612 -0.938599 30
      vertex -3.86369 -1.03526 30
      vertex -4 0 30
    endloop
  endfacet
  facet normal 0 0 1
    outer loop
      vertex -2.82841 -2.82841 30
      vertex -4.24263 -4.24263 30
      vertex -3.5267 -4.8541 30
    endloop
  endfacet
  facet normal 0 0 1
    outer loop
      vertex -4 50 30
      vertex -6 50 30
      vertex -4 0 30
    endloop
  endfacet
  facet normal -0 0 1
    outer loop
      vertex -5.70633 51.8541 30
      vertex -3.86369 51.0353 30
      vertex -5.34604 52.7239 30
    endloop
  endfacet
  facet normal 0 0 1
    outer loop
      vertex -6 0 30
      vertex -4 0 30
      vertex -6 50 30
    endloop
  endfacet
  facet normal 0 0 1
    outer loop
      vertex -5.92612 50.9386 30
      vertex -3.86369 51.0353 30
      vertex -5.70633 51.8541 30
    endloop
  endfacet
  facet normal 0 -0 1
    outer loop
      vertex -5.92612 -0.938599 30
      vertex -4 0 30
      vertex -6 0 30
    endloop
  endfacet
  facet normal 0 0 1
    outer loop
      vertex -3.86369 51.0353 30
      vertex -5.92612 50.9386 30
      vertex -4 50 30
    endloop
  endfacet
  facet normal 0 0 1
    outer loop
      vertex -2.82841 -2.82841 30
      vertex -4.8541 -3.5267 30
      vertex -4.24263 -4.24263 30
    endloop
  endfacet
  facet normal 0 0 1
    outer loop
      vertex -4 50 30
      vertex -5.92612 50.9386 30
      vertex -6 50 30
    endloop
  endfacet
  facet normal 0 0 1
    outer loop
      vertex -3.4641 -2 30
      vertex -5.34604 -2.72394 30
      vertex -4.8541 -3.5267 30
    endloop
  endfacet
  facet normal 0 0 1
    outer loop
      vertex -3.86369 -1.03526 30
      vertex -5.70633 -1.8541 30
      vertex -5.34604 -2.72394 30
    endloop
  endfacet
  facet normal 0 0 1
    outer loop
      vertex -3.86369 -1.03526 30
      vertex -5.92612 -0.938599 30
      vertex -5.70633 -1.8541 30
    endloop
  endfacet
  facet normal 0.760373 0.649487 0
    outer loop
      vertex 83.8541 53.5267 30
      vertex 83.2426 54.2426 0
      vertex 83.2426 54.2426 30
    endloop
  endfacet
  facet normal 0.760373 0.649487 0
    outer loop
      vertex 83.2426 54.2426 0
      vertex 83.8541 53.5267 30
      vertex 83.8541 53.5267 0
    endloop
  endfacet
  facet normal -0.233453 0.972368 0
    outer loop
      vertex -0.938599 55.9261 0
      vertex -1.8541 55.7063 30
      vertex -0.938599 55.9261 30
    endloop
  endfacet
  facet normal -0.233453 0.972368 0
    outer loop
      vertex -1.8541 55.7063 30
      vertex -0.938599 55.9261 0
      vertex -1.8541 55.7063 0
    endloop
  endfacet
  facet normal -0.0784915 0.996915 0
    outer loop
      vertex 0 56 0
      vertex -0.938599 55.9261 30
      vertex 0 56 30
    endloop
  endfacet
  facet normal -0.0784915 0.996915 0
    outer loop
      vertex -0.938599 55.9261 30
      vertex 0 56 0
      vertex -0.938599 55.9261 0
    endloop
  endfacet
  facet normal -0.522474 0.852655 0
    outer loop
      vertex -2.72394 55.346 0
      vertex -3.5267 54.8541 30
      vertex -2.72394 55.346 30
    endloop
  endfacet
  facet normal -0.522474 0.852655 0
    outer loop
      vertex -3.5267 54.8541 30
      vertex -2.72394 55.346 0
      vertex -3.5267 54.8541 0
    endloop
  endfacet
  facet normal -0.760388 0.649469 0
    outer loop
      vertex -4.8541 53.5267 0
      vertex -4.24263 54.2426 30
      vertex -4.24263 54.2426 0
    endloop
  endfacet
  facet normal -0.760388 0.649469 0
    outer loop
      vertex -4.24263 54.2426 30
      vertex -4.8541 53.5267 0
      vertex -4.8541 53.5267 30
    endloop
  endfacet
  facet normal -0.996916 0.0784703 0
    outer loop
      vertex -6 50 0
      vertex -5.92612 50.9386 30
      vertex -5.92612 50.9386 0
    endloop
  endfacet
  facet normal -0.996916 0.0784703 0
    outer loop
      vertex -5.92612 50.9386 30
      vertex -6 50 0
      vertex -6 50 30
    endloop
  endfacet
  facet normal -0.760402 -0.649453 0
    outer loop
      vertex -4.24263 -4.24263 0
      vertex -4.8541 -3.5267 30
      vertex -4.8541 -3.5267 0
    endloop
  endfacet
  facet normal -0.760402 -0.649453 0
    outer loop
      vertex -4.8541 -3.5267 30
      vertex -4.24263 -4.24263 0
      vertex -4.24263 -4.24263 30
    endloop
  endfacet
  facet normal -0.522505 -0.852636 0
    outer loop
      vertex -3.5267 -4.8541 0
      vertex -2.72394 -5.34604 30
      vertex -3.5267 -4.8541 30
    endloop
  endfacet
  facet normal -0.522505 -0.852636 -0
    outer loop
      vertex -2.72394 -5.34604 30
      vertex -3.5267 -4.8541 0
      vertex -2.72394 -5.34604 0
    endloop
  endfacet
  facet normal -0.382675 -0.923883 0
    outer loop
      vertex -2.72394 -5.34604 0
      vertex -1.8541 -5.70633 30
      vertex -2.72394 -5.34604 30
    endloop
  endfacet
  facet normal -0.382675 -0.923883 -0
    outer loop
      vertex -1.8541 -5.70633 30
      vertex -2.72394 -5.34604 0
      vertex -1.8541 -5.70633 0
    endloop
  endfacet
  facet normal -0.0784703 -0.996916 0
    outer loop
      vertex -0.938599 -5.92612 0
      vertex 0 -6 30
      vertex -0.938599 -5.92612 30
    endloop
  endfacet
  facet normal -0.0784703 -0.996916 -0
    outer loop
      vertex 0 -6 30
      vertex -0.938599 -5.92612 0
      vertex 0 -6 0
    endloop
  endfacet
  facet normal 0.233443 -0.97237 0
    outer loop
      vertex 79.9386 -5.92612 0
      vertex 80.8541 -5.70633 30
      vertex 79.9386 -5.92612 30
    endloop
  endfacet
  facet normal 0.233443 -0.97237 0
    outer loop
      vertex 80.8541 -5.70633 30
      vertex 79.9386 -5.92612 0
      vertex 80.8541 -5.70633 0
    endloop
  endfacet
  facet normal 0.382699 0.923873 -0
    outer loop
      vertex 81.7239 55.346 0
      vertex 80.8541 55.7063 30
      vertex 81.7239 55.346 30
    endloop
  endfacet
  facet normal 0.382699 0.923873 0
    outer loop
      vertex 80.8541 55.7063 30
      vertex 81.7239 55.346 0
      vertex 80.8541 55.7063 0
    endloop
  endfacet
  facet normal 0.522455 0.852667 -0
    outer loop
      vertex 82.5267 54.8541 0
      vertex 81.7239 55.346 30
      vertex 82.5267 54.8541 30
    endloop
  endfacet
  facet normal 0.522455 0.852667 0
    outer loop
      vertex 81.7239 55.346 30
      vertex 82.5267 54.8541 0
      vertex 81.7239 55.346 0
    endloop
  endfacet
  facet normal 0.233453 0.972368 -0
    outer loop
      vertex 80.8541 55.7063 0
      vertex 79.9386 55.9261 30
      vertex 80.8541 55.7063 30
    endloop
  endfacet
  facet normal 0.233453 0.972368 0
    outer loop
      vertex 79.9386 55.9261 30
      vertex 80.8541 55.7063 0
      vertex 79.9386 55.9261 0
    endloop
  endfacet
  facet normal 0.649487 0.760373 -0
    outer loop
      vertex 83.2426 54.2426 0
      vertex 82.5267 54.8541 30
      vertex 83.2426 54.2426 30
    endloop
  endfacet
  facet normal 0.649487 0.760373 0
    outer loop
      vertex 82.5267 54.8541 30
      vertex 83.2426 54.2426 0
      vertex 82.5267 54.8541 0
    endloop
  endfacet
  facet normal -0.793332 -0.608789 0
    outer loop
      vertex 82.4641 52 4
      vertex 81.8284 52.8284 30
      vertex 81.8284 52.8284 4
    endloop
  endfacet
  facet normal -0.793332 -0.608789 0
    outer loop
      vertex 81.8284 52.8284 30
      vertex 82.4641 52 4
      vertex 82.4641 52 30
    endloop
  endfacet
  facet normal -0.38269 -0.923877 0
    outer loop
      vertex 80.0353 53.8637 4
      vertex 81 53.4641 30
      vertex 80.0353 53.8637 30
    endloop
  endfacet
  facet normal -0.38269 -0.923877 -0
    outer loop
      vertex 81 53.4641 30
      vertex 80.0353 53.8637 4
      vertex 81 53.4641 4
    endloop
  endfacet
  facet normal -0.608789 -0.793332 0
    outer loop
      vertex 81 53.4641 4
      vertex 81.8284 52.8284 30
      vertex 81 53.4641 30
    endloop
  endfacet
  facet normal -0.608789 -0.793332 -0
    outer loop
      vertex 81.8284 52.8284 30
      vertex 81 53.4641 4
      vertex 81.8284 52.8284 4
    endloop
  endfacet
  facet normal 0.382677 -0.923882 0
    outer loop
      vertex -2 53.4641 4
      vertex -1.03526 53.8637 30
      vertex -2 53.4641 30
    endloop
  endfacet
  facet normal 0.382677 -0.923882 0
    outer loop
      vertex -1.03526 53.8637 30
      vertex -2 53.4641 4
      vertex -1.03526 53.8637 4
    endloop
  endfacet
  facet normal 0 -1 0
    outer loop
      vertex 0 54 4
      vertex 79 54 30
      vertex 0 54 30
    endloop
  endfacet
  facet normal 0 -1 -0
    outer loop
      vertex 79 54 30
      vertex 0 54 4
      vertex 79 54 4
    endloop
  endfacet
  facet normal -0.991444 0.130531 0
    outer loop
      vertex 82.8637 -1.03526 4
      vertex 83 0 30
      vertex 83 0 4
    endloop
  endfacet
  facet normal -0.991444 0.130531 0
    outer loop
      vertex 83 0 30
      vertex 82.8637 -1.03526 4
      vertex 82.8637 -1.03526 30
    endloop
  endfacet
  facet normal 0.382668 0.923886 -0
    outer loop
      vertex -1.03526 -3.86369 4
      vertex -2 -3.4641 30
      vertex -1.03526 -3.86369 30
    endloop
  endfacet
  facet normal 0.382668 0.923886 0
    outer loop
      vertex -2 -3.4641 30
      vertex -1.03526 -3.86369 4
      vertex -2 -3.4641 4
    endloop
  endfacet
  facet normal 0 1 -0
    outer loop
      vertex 79 -4 4
      vertex 0 -4 30
      vertex 79 -4 30
    endloop
  endfacet
  facet normal 0 1 0
    outer loop
      vertex 0 -4 30
      vertex 79 -4 4
      vertex 0 -4 4
    endloop
  endfacet
  facet normal -1 0 0
    outer loop
      vertex 83 0 4
      vertex 83 50 30
      vertex 83 50 4
    endloop
  endfacet
  facet normal -1 -0 0
    outer loop
      vertex 83 50 30
      vertex 83 0 4
      vertex 83 0 30
    endloop
  endfacet
  facet normal 0.991444 -0.130536 0
    outer loop
      vertex -4 50 30
      vertex -3.86369 51.0353 4
      vertex -3.86369 51.0353 30
    endloop
  endfacet
  facet normal 0.991444 -0.130536 0
    outer loop
      vertex -3.86369 51.0353 4
      vertex -4 50 30
      vertex -4 50 4
    endloop
  endfacet
  facet normal 1 -0 0
    outer loop
      vertex -4 0 30
      vertex -4 50 4
      vertex -4 50 30
    endloop
  endfacet
  facet normal 1 0 0
    outer loop
      vertex -4 50 4
      vertex -4 0 30
      vertex -4 0 4
    endloop
  endfacet
  facet normal 0.130531 -0.991444 0
    outer loop
      vertex -1.03526 53.8637 4
      vertex 0 54 30
      vertex -1.03526 53.8637 30
    endloop
  endfacet
  facet normal 0.130531 -0.991444 0
    outer loop
      vertex 0 54 30
      vertex -1.03526 53.8637 4
      vertex 0 54 4
    endloop
  endfacet
  facet normal -0.130526 -0.991445 0
    outer loop
      vertex 79 54 4
      vertex 80.0353 53.8637 30
      vertex 79 54 30
    endloop
  endfacet
  facet normal -0.130526 -0.991445 -0
    outer loop
      vertex 80.0353 53.8637 30
      vertex 79 54 4
      vertex 80.0353 53.8637 4
    endloop
  endfacet
  facet normal 0.130541 0.991443 -0
    outer loop
      vertex 0 -4 4
      vertex -1.03526 -3.86369 30
      vertex 0 -4 30
    endloop
  endfacet
  facet normal 0.130541 0.991443 0
    outer loop
      vertex -1.03526 -3.86369 30
      vertex 0 -4 4
      vertex -1.03526 -3.86369 4
    endloop
  endfacet
  facet normal -0.130536 0.991444 0
    outer loop
      vertex 80.0353 -3.86369 4
      vertex 79 -4 30
      vertex 80.0353 -3.86369 30
    endloop
  endfacet
  facet normal -0.130536 0.991444 0
    outer loop
      vertex 79 -4 30
      vertex 80.0353 -3.86369 4
      vertex 79 -4 4
    endloop
  endfacet
  facet normal -0.608783 0.793337 0
    outer loop
      vertex 81.8284 -2.82841 4
      vertex 81 -3.4641 30
      vertex 81.8284 -2.82841 30
    endloop
  endfacet
  facet normal -0.608783 0.793337 0
    outer loop
      vertex 81 -3.4641 30
      vertex 81.8284 -2.82841 4
      vertex 81 -3.4641 4
    endloop
  endfacet
  facet normal -0.923882 0.382677 0
    outer loop
      vertex 82.4641 -2 4
      vertex 82.8637 -1.03526 30
      vertex 82.8637 -1.03526 4
    endloop
  endfacet
  facet normal -0.923882 0.382677 0
    outer loop
      vertex 82.8637 -1.03526 30
      vertex 82.4641 -2 4
      vertex 82.4641 -2 30
    endloop
  endfacet
  facet normal -0.923877 -0.38269 0
    outer loop
      vertex 82.8637 51.0353 4
      vertex 82.4641 52 30
      vertex 82.4641 52 4
    endloop
  endfacet
  facet normal -0.923877 -0.38269 0
    outer loop
      vertex 82.4641 52 30
      vertex 82.8637 51.0353 4
      vertex 82.8637 51.0353 30
    endloop
  endfacet
  facet normal 0.793337 -0.608783 0
    outer loop
      vertex -3.4641 52 30
      vertex -2.82841 52.8284 4
      vertex -2.82841 52.8284 30
    endloop
  endfacet
  facet normal 0.793337 -0.608783 0
    outer loop
      vertex -2.82841 52.8284 4
      vertex -3.4641 52 30
      vertex -3.4641 52 4
    endloop
  endfacet
  facet normal 0.608785 -0.793335 0
    outer loop
      vertex -2.82841 52.8284 4
      vertex -2 53.4641 30
      vertex -2.82841 52.8284 30
    endloop
  endfacet
  facet normal 0.608785 -0.793335 0
    outer loop
      vertex -2 53.4641 30
      vertex -2.82841 52.8284 4
      vertex -2 53.4641 4
    endloop
  endfacet
  facet normal 0.92388 -0.382682 0
    outer loop
      vertex -3.86369 51.0353 30
      vertex -3.4641 52 4
      vertex -3.4641 52 30
    endloop
  endfacet
  facet normal 0.92388 -0.382682 0
    outer loop
      vertex -3.4641 52 4
      vertex -3.86369 51.0353 30
      vertex -3.86369 51.0353 4
    endloop
  endfacet
  facet normal 0 0 1
    outer loop
      vertex 56.9747 47.9747 4
      vertex 1.0253 47.9747 4
      vertex 56.9747 1.0253 4
    endloop
  endfacet
  facet normal 0 0 1
    outer loop
      vertex 56.9747 1.0253 4
      vertex 1.33962 0.554891 4
      vertex 1.45 0 4
    endloop
  endfacet
  facet normal 0 0 1
    outer loop
      vertex 1.0253 1.0253 4
      vertex 56.9747 1.0253 4
      vertex 1.0253 47.9747 4
    endloop
  endfacet
  facet normal 0 0 1
    outer loop
      vertex 56.9747 1.0253 4
      vertex 1.0253 1.0253 4
      vertex 1.33962 0.554891 4
    endloop
  endfacet
  facet normal -0 0 1
    outer loop
      vertex 0.554891 47.6604 4
      vertex 1.0253 1.0253 4
      vertex 1.0253 47.9747 4
    endloop
  endfacet
  facet normal 0 0 1
    outer loop
      vertex 0.554891 47.6604 4
      vertex 0.554891 1.33962 4
      vertex 1.0253 1.0253 4
    endloop
  endfacet
  facet normal -0 0 1
    outer loop
      vertex 0 47.55 4
      vertex 0.554891 1.33962 4
      vertex 0.554891 47.6604 4
    endloop
  endfacet
  facet normal 0 0 1
    outer loop
      vertex 0 47.55 4
      vertex 0 1.45 4
      vertex 0.554891 1.33962 4
    endloop
  endfacet
  facet normal 0 0 1
    outer loop
      vertex -0.554891 47.6604 4
      vertex 0 1.45 4
      vertex 0 47.55 4
    endloop
  endfacet
  facet normal 0 0 1
    outer loop
      vertex -0.554891 47.6604 4
      vertex -0.554891 1.33962 4
      vertex 0 1.45 4
    endloop
  endfacet
  facet normal 0 0 1
    outer loop
      vertex -4 0 4
      vertex -0.554891 47.6604 4
      vertex -1.0253 47.9747 4
    endloop
  endfacet
  facet normal 0 0 1
    outer loop
      vertex -0.554891 47.6604 4
      vertex -4 0 4
      vertex -0.554891 1.33962 4
    endloop
  endfacet
  facet normal 0 0 1
    outer loop
      vertex -4 50 4
      vertex -1.0253 47.9747 4
      vertex -1.33962 48.4451 4
    endloop
  endfacet
  facet normal 0 0 1
    outer loop
      vertex -0.554891 1.33962 4
      vertex -4 0 4
      vertex -1.0253 1.0253 4
    endloop
  endfacet
  facet normal 0 0 1
    outer loop
      vertex -4 50 4
      vertex -1.33962 48.4451 4
      vertex -1.45 49 4
    endloop
  endfacet
  facet normal 0 0 1
    outer loop
      vertex -1.0253 1.0253 4
      vertex -4 0 4
      vertex -1.33962 0.554891 4
    endloop
  endfacet
  facet normal 0 0 1
    outer loop
      vertex 58.5549 47.6604 4
      vertex 83 50 4
      vertex 59.0253 47.9747 4
    endloop
  endfacet
  facet normal 0 0 1
    outer loop
      vertex 83 0 4
      vertex 59.3396 0.554891 4
      vertex 59.45 0 4
    endloop
  endfacet
  facet normal 0 0 1
    outer loop
      vertex 83 50 4
      vertex 58.5549 47.6604 4
      vertex 83 0 4
    endloop
  endfacet
  facet normal 0 0 1
    outer loop
      vertex 83 0 4
      vertex 59.0253 1.0253 4
      vertex 59.3396 0.554891 4
    endloop
  endfacet
  facet normal -0 0 1
    outer loop
      vertex 58.5549 1.33962 4
      vertex 83 0 4
      vertex 58.5549 47.6604 4
    endloop
  endfacet
  facet normal 0 0 1
    outer loop
      vertex 83 0 4
      vertex 58.5549 1.33962 4
      vertex 59.0253 1.0253 4
    endloop
  endfacet
  facet normal -0 0 1
    outer loop
      vertex 58 47.55 4
      vertex 58.5549 1.33962 4
      vertex 58.5549 47.6604 4
    endloop
  endfacet
  facet normal 0 0 1
    outer loop
      vertex 58 47.55 4
      vertex 58 1.45 4
      vertex 58.5549 1.33962 4
    endloop
  endfacet
  facet normal 0 0 1
    outer loop
      vertex 57.4451 47.6604 4
      vertex 58 1.45 4
      vertex 58 47.55 4
    endloop
  endfacet
  facet normal 0 0 1
    outer loop
      vertex 57.4451 47.6604 4
      vertex 57.4451 1.33962 4
      vertex 58 1.45 4
    endloop
  endfacet
  facet normal 0 0 1
    outer loop
      vertex 56.9747 47.9747 4
      vertex 57.4451 1.33962 4
      vertex 57.4451 47.6604 4
    endloop
  endfacet
  facet normal 0 0 1
    outer loop
      vertex 56.9747 47.9747 4
      vertex 56.9747 1.0253 4
      vertex 57.4451 1.33962 4
    endloop
  endfacet
  facet normal 0 0 1
    outer loop
      vertex 1.33962 48.4451 4
      vertex 56.6604 48.4451 4
      vertex 1.45 49 4
    endloop
  endfacet
  facet normal 0 0 1
    outer loop
      vertex 56.6604 48.4451 4
      vertex 1.33962 48.4451 4
      vertex 56.9747 47.9747 4
    endloop
  endfacet
  facet normal -0 0 1
    outer loop
      vertex 1.45 49 4
      vertex 56.6604 48.4451 4
      vertex 56.55 49 4
    endloop
  endfacet
  facet normal 0 0 1
    outer loop
      vertex 1.0253 47.9747 4
      vertex 56.9747 47.9747 4
      vertex 1.33962 48.4451 4
    endloop
  endfacet
  facet normal 0 0 1
    outer loop
      vertex 79 54 4
      vertex 83 50 4
      vertex 82.8637 51.0353 4
    endloop
  endfacet
  facet normal 0 0 1
    outer loop
      vertex 79 54 4
      vertex 59.3396 48.4451 4
      vertex 83 50 4
    endloop
  endfacet
  facet normal 0 0 1
    outer loop
      vertex 79 54 4
      vertex 82.8637 51.0353 4
      vertex 82.4641 52 4
    endloop
  endfacet
  facet normal 0 0 1
    outer loop
      vertex 59.0253 47.9747 4
      vertex 83 50 4
      vertex 59.3396 48.4451 4
    endloop
  endfacet
  facet normal 0 0 1
    outer loop
      vertex 79 54 4
      vertex 82.4641 52 4
      vertex 81.8284 52.8284 4
    endloop
  endfacet
  facet normal 0 -0 1
    outer loop
      vertex 79 -4 4
      vertex 83 0 4
      vertex 59.45 0 4
    endloop
  endfacet
  facet normal 0 0 1
    outer loop
      vertex 79 54 4
      vertex 81.8284 52.8284 4
      vertex 81 53.4641 4
    endloop
  endfacet
  facet normal 0 0 1
    outer loop
      vertex 83 0 4
      vertex 79 -4 4
      vertex 82.8637 -1.03526 4
    endloop
  endfacet
  facet normal 0 0 1
    outer loop
      vertex 79 54 4
      vertex 81 53.4641 4
      vertex 80.0353 53.8637 4
    endloop
  endfacet
  facet normal 0 0 1
    outer loop
      vertex 59.3396 48.4451 4
      vertex 79 54 4
      vertex 59.45 49 4
    endloop
  endfacet
  facet normal 0 0 1
    outer loop
      vertex 82.8637 -1.03526 4
      vertex 79 -4 4
      vertex 82.4641 -2 4
    endloop
  endfacet
  facet normal 0 0 1
    outer loop
      vertex 82.4641 -2 4
      vertex 79 -4 4
      vertex 81.8284 -2.82841 4
    endloop
  endfacet
  facet normal 0 0 1
    outer loop
      vertex 81 -3.4641 4
      vertex 79 -4 4
      vertex 80.0353 -3.86369 4
    endloop
  endfacet
  facet normal 0 0 1
    outer loop
      vertex 79 54 4
      vertex 59.3396 49.5549 4
      vertex 59.45 49 4
    endloop
  endfacet
  facet normal 0 0 1
    outer loop
      vertex 79 54 4
      vertex 59.0253 50.0253 4
      vertex 59.3396 49.5549 4
    endloop
  endfacet
  facet normal 0 0 1
    outer loop
      vertex 79 54 4
      vertex 58.5549 50.3396 4
      vertex 59.0253 50.0253 4
    endloop
  endfacet
  facet normal 0 0 1
    outer loop
      vertex 79 54 4
      vertex 58 50.45 4
      vertex 58.5549 50.3396 4
    endloop
  endfacet
  facet normal 0 0 1
    outer loop
      vertex 56.9747 1.0253 4
      vertex 1.45 0 4
      vertex 56.6604 0.554891 4
    endloop
  endfacet
  facet normal 0 0 1
    outer loop
      vertex 56.6604 49.5549 4
      vertex 1.45 49 4
      vertex 56.55 49 4
    endloop
  endfacet
  facet normal 0 0 1
    outer loop
      vertex 0 54 4
      vertex 56.6604 49.5549 4
      vertex 56.9747 50.0253 4
    endloop
  endfacet
  facet normal 0 0 1
    outer loop
      vertex 0 54 4
      vertex 56.9747 50.0253 4
      vertex 57.4451 50.3396 4
    endloop
  endfacet
  facet normal 0 0 1
    outer loop
      vertex 0 54 4
      vertex 57.4451 50.3396 4
      vertex 58 50.45 4
    endloop
  endfacet
  facet normal -0 0 1
    outer loop
      vertex 0 54 4
      vertex 58 50.45 4
      vertex 79 54 4
    endloop
  endfacet
  facet normal 0 0 1
    outer loop
      vertex 56.6604 49.5549 4
      vertex 1.33962 49.5549 4
      vertex 1.45 49 4
    endloop
  endfacet
  facet normal 0 0 1
    outer loop
      vertex 56.6604 49.5549 4
      vertex 0 54 4
      vertex 1.33962 49.5549 4
    endloop
  endfacet
  facet normal 0 0 1
    outer loop
      vertex 1.33962 49.5549 4
      vertex 0 54 4
      vertex 1.0253 50.0253 4
    endloop
  endfacet
  facet normal 0 0 1
    outer loop
      vertex 1.0253 50.0253 4
      vertex 0 54 4
      vertex 0.554891 50.3396 4
    endloop
  endfacet
  facet normal 0 0 1
    outer loop
      vertex 0 54 4
      vertex 0 50.45 4
      vertex 0.554891 50.3396 4
    endloop
  endfacet
  facet normal -0 0 1
    outer loop
      vertex -1.03526 53.8637 4
      vertex 0 50.45 4
      vertex 0 54 4
    endloop
  endfacet
  facet normal 0 0 1
    outer loop
      vertex 0 50.45 4
      vertex -1.03526 53.8637 4
      vertex -0.554891 50.3396 4
    endloop
  endfacet
  facet normal -0 0 1
    outer loop
      vertex -2 53.4641 4
      vertex -0.554891 50.3396 4
      vertex -1.03526 53.8637 4
    endloop
  endfacet
  facet normal -0 0 1
    outer loop
      vertex -2.82841 52.8284 4
      vertex -0.554891 50.3396 4
      vertex -2 53.4641 4
    endloop
  endfacet
  facet normal 0 0 1
    outer loop
      vertex -0.554891 50.3396 4
      vertex -2.82841 52.8284 4
      vertex -1.0253 50.0253 4
    endloop
  endfacet
  facet normal -0 0 1
    outer loop
      vertex -3.86369 51.0353 4
      vertex -1.0253 50.0253 4
      vertex -3.4641 52 4
    endloop
  endfacet
  facet normal -0 0 1
    outer loop
      vertex -3.4641 52 4
      vertex -1.0253 50.0253 4
      vertex -2.82841 52.8284 4
    endloop
  endfacet
  facet normal 0 0 1
    outer loop
      vertex 81.8284 -2.82841 4
      vertex 79 -4 4
      vertex 81 -3.4641 4
    endloop
  endfacet
  facet normal -0 0 1
    outer loop
      vertex 59.3396 -0.554891 4
      vertex 79 -4 4
      vertex 59.45 0 4
    endloop
  endfacet
  facet normal -0 0 1
    outer loop
      vertex 59.0253 -1.0253 4
      vertex 79 -4 4
      vertex 59.3396 -0.554891 4
    endloop
  endfacet
  facet normal -0 0 1
    outer loop
      vertex 58.5549 -1.33962 4
      vertex 79 -4 4
      vertex 59.0253 -1.0253 4
    endloop
  endfacet
  facet normal -0 0 1
    outer loop
      vertex 58 -1.45 4
      vertex 79 -4 4
      vertex 58.5549 -1.33962 4
    endloop
  endfacet
  facet normal 0 0 1
    outer loop
      vertex 56.6604 0.554891 4
      vertex 1.45 0 4
      vertex 56.55 0 4
    endloop
  endfacet
  facet normal 0 0 1
    outer loop
      vertex 56.55 0 4
      vertex 1.45 0 4
      vertex 56.6604 -0.554891 4
    endloop
  endfacet
  facet normal 0 0 1
    outer loop
      vertex 1.33962 -0.554891 4
      vertex 56.6604 -0.554891 4
      vertex 1.45 0 4
    endloop
  endfacet
  facet normal 0 0 1
    outer loop
      vertex 0 -4 4
      vertex 56.6604 -0.554891 4
      vertex 1.33962 -0.554891 4
    endloop
  endfacet
  facet normal 0 0 1
    outer loop
      vertex 56.6604 -0.554891 4
      vertex 0 -4 4
      vertex 56.9747 -1.0253 4
    endloop
  endfacet
  facet normal 0 0 1
    outer loop
      vertex 56.9747 -1.0253 4
      vertex 0 -4 4
      vertex 57.4451 -1.33962 4
    endloop
  endfacet
  facet normal 0 0 1
    outer loop
      vertex 57.4451 -1.33962 4
      vertex 0 -4 4
      vertex 58 -1.45 4
    endloop
  endfacet
  facet normal 0 0 1
    outer loop
      vertex 0 -4 4
      vertex 1.33962 -0.554891 4
      vertex 1.0253 -1.0253 4
    endloop
  endfacet
  facet normal 0 0 1
    outer loop
      vertex 0 -4 4
      vertex 1.0253 -1.0253 4
      vertex 0.554891 -1.33962 4
    endloop
  endfacet
  facet normal 0 0 1
    outer loop
      vertex 0 -4 4
      vertex 0.554891 -1.33962 4
      vertex 0 -1.45 4
    endloop
  endfacet
  facet normal 0 0 1
    outer loop
      vertex 58 -1.45 4
      vertex 0 -4 4
      vertex 79 -4 4
    endloop
  endfacet
  facet normal 0 0 1
    outer loop
      vertex -1.03526 -3.86369 4
      vertex 0 -1.45 4
      vertex -0.554891 -1.33962 4
    endloop
  endfacet
  facet normal 0 0 1
    outer loop
      vertex -2 -3.4641 4
      vertex -0.554891 -1.33962 4
      vertex -1.0253 -1.0253 4
    endloop
  endfacet
  facet normal 0 0 1
    outer loop
      vertex 0 -1.45 4
      vertex -1.03526 -3.86369 4
      vertex 0 -4 4
    endloop
  endfacet
  facet normal 0 0 1
    outer loop
      vertex -3.4641 -2 4
      vertex -1.0253 -1.0253 4
      vertex -1.33962 -0.554891 4
    endloop
  endfacet
  facet normal 0 0 1
    outer loop
      vertex -3.86369 -1.03526 4
      vertex -1.33962 -0.554891 4
      vertex -1.45 0 4
    endloop
  endfacet
  facet normal 0 0 1
    outer loop
      vertex -0.554891 -1.33962 4
      vertex -2 -3.4641 4
      vertex -1.03526 -3.86369 4
    endloop
  endfacet
  facet normal 0 0 1
    outer loop
      vertex -1.0253 47.9747 4
      vertex -4 50 4
      vertex -4 0 4
    endloop
  endfacet
  facet normal 0 0 1
    outer loop
      vertex -1.0253 50.0253 4
      vertex -3.86369 51.0353 4
      vertex -1.33962 49.5549 4
    endloop
  endfacet
  facet normal 0 0 1
    outer loop
      vertex -1.33962 0.554891 4
      vertex -4 0 4
      vertex -1.45 0 4
    endloop
  endfacet
  facet normal -0 0 1
    outer loop
      vertex -4 50 4
      vertex -1.33962 49.5549 4
      vertex -3.86369 51.0353 4
    endloop
  endfacet
  facet normal 0 -0 1
    outer loop
      vertex -3.86369 -1.03526 4
      vertex -1.45 0 4
      vertex -4 0 4
    endloop
  endfacet
  facet normal 0 0 1
    outer loop
      vertex -1.33962 49.5549 4
      vertex -4 50 4
      vertex -1.45 49 4
    endloop
  endfacet
  facet normal 0 0 1
    outer loop
      vertex -1.0253 -1.0253 4
      vertex -2.82841 -2.82841 4
      vertex -2 -3.4641 4
    endloop
  endfacet
  facet normal 0 0 1
    outer loop
      vertex -1.0253 -1.0253 4
      vertex -3.4641 -2 4
      vertex -2.82841 -2.82841 4
    endloop
  endfacet
  facet normal 0 0 1
    outer loop
      vertex -1.33962 -0.554891 4
      vertex -3.86369 -1.03526 4
      vertex -3.4641 -2 4
    endloop
  endfacet
  facet normal 0.608779 0.79334 -0
    outer loop
      vertex -2 -3.4641 4
      vertex -2.82841 -2.82841 30
      vertex -2 -3.4641 30
    endloop
  endfacet
  facet normal 0.608779 0.79334 0
    outer loop
      vertex -2.82841 -2.82841 30
      vertex -2 -3.4641 4
      vertex -2.82841 -2.82841 4
    endloop
  endfacet
  facet normal -0.382682 0.92388 0
    outer loop
      vertex 81 -3.4641 4
      vertex 80.0353 -3.86369 30
      vertex 81 -3.4641 30
    endloop
  endfacet
  facet normal -0.382682 0.92388 0
    outer loop
      vertex 80.0353 -3.86369 30
      vertex 81 -3.4641 4
      vertex 80.0353 -3.86369 4
    endloop
  endfacet
  facet normal -0.793335 0.608785 0
    outer loop
      vertex 81.8284 -2.82841 4
      vertex 82.4641 -2 30
      vertex 82.4641 -2 4
    endloop
  endfacet
  facet normal -0.793335 0.608785 0
    outer loop
      vertex 82.4641 -2 30
      vertex 81.8284 -2.82841 4
      vertex 81.8284 -2.82841 30
    endloop
  endfacet
  facet normal -0.991445 -0.130526 0
    outer loop
      vertex 83 50 4
      vertex 82.8637 51.0353 30
      vertex 82.8637 51.0353 4
    endloop
  endfacet
  facet normal -0.991445 -0.130526 0
    outer loop
      vertex 82.8637 51.0353 30
      vertex 83 50 4
      vertex 83 50 30
    endloop
  endfacet
  facet normal 0.923886 0.382668 0
    outer loop
      vertex -3.4641 -2 30
      vertex -3.86369 -1.03526 4
      vertex -3.86369 -1.03526 30
    endloop
  endfacet
  facet normal 0.923886 0.382668 0
    outer loop
      vertex -3.86369 -1.03526 4
      vertex -3.4641 -2 30
      vertex -3.4641 -2 4
    endloop
  endfacet
  facet normal 0.991443 0.130541 0
    outer loop
      vertex -3.86369 -1.03526 30
      vertex -4 0 4
      vertex -4 0 30
    endloop
  endfacet
  facet normal 0.991443 0.130541 0
    outer loop
      vertex -4 0 4
      vertex -3.86369 -1.03526 30
      vertex -3.86369 -1.03526 4
    endloop
  endfacet
  facet normal 0.79334 0.608779 0
    outer loop
      vertex -2.82841 -2.82841 30
      vertex -3.4641 -2 4
      vertex -3.4641 -2 30
    endloop
  endfacet
  facet normal 0.79334 0.608779 0
    outer loop
      vertex -3.4641 -2 4
      vertex -2.82841 -2.82841 30
      vertex -2.82841 -2.82841 4
    endloop
  endfacet
  facet normal -0.980783 -0.195099 0
    outer loop
      vertex 1.45 0 0
      vertex 1.33962 0.554891 4
      vertex 1.33962 0.554891 0
    endloop
  endfacet
  facet normal -0.980783 -0.195099 0
    outer loop
      vertex 1.33962 0.554891 4
      vertex 1.45 0 0
      vertex 1.45 0 4
    endloop
  endfacet
  facet normal 0.980783 -0.195099 0
    outer loop
      vertex -1.45 0 4
      vertex -1.33962 0.554891 0
      vertex -1.33962 0.554891 4
    endloop
  endfacet
  facet normal 0.980783 -0.195099 0
    outer loop
      vertex -1.33962 0.554891 0
      vertex -1.45 0 4
      vertex -1.45 0 0
    endloop
  endfacet
  facet normal -0.195099 -0.980783 0
    outer loop
      vertex 0 1.45 0
      vertex 0.554891 1.33962 4
      vertex 0 1.45 4
    endloop
  endfacet
  facet normal -0.195099 -0.980783 -0
    outer loop
      vertex 0.554891 1.33962 4
      vertex 0 1.45 0
      vertex 0.554891 1.33962 0
    endloop
  endfacet
  facet normal -0.831467 -0.555574 0
    outer loop
      vertex 1.33962 0.554891 0
      vertex 1.0253 1.0253 4
      vertex 1.0253 1.0253 0
    endloop
  endfacet
  facet normal -0.831467 -0.555574 0
    outer loop
      vertex 1.0253 1.0253 4
      vertex 1.33962 0.554891 0
      vertex 1.33962 0.554891 4
    endloop
  endfacet
  facet normal -0.195099 0.980783 0
    outer loop
      vertex 0.554891 -1.33962 0
      vertex 0 -1.45 4
      vertex 0.554891 -1.33962 4
    endloop
  endfacet
  facet normal -0.195099 0.980783 0
    outer loop
      vertex 0 -1.45 4
      vertex 0.554891 -1.33962 0
      vertex 0 -1.45 0
    endloop
  endfacet
  facet normal -0.555574 -0.831467 0
    outer loop
      vertex 0.554891 1.33962 0
      vertex 1.0253 1.0253 4
      vertex 0.554891 1.33962 4
    endloop
  endfacet
  facet normal -0.555574 -0.831467 -0
    outer loop
      vertex 1.0253 1.0253 4
      vertex 0.554891 1.33962 0
      vertex 1.0253 1.0253 0
    endloop
  endfacet
  facet normal 0.555574 -0.831467 0
    outer loop
      vertex -1.0253 1.0253 0
      vertex -0.554891 1.33962 4
      vertex -1.0253 1.0253 4
    endloop
  endfacet
  facet normal 0.555574 -0.831467 0
    outer loop
      vertex -0.554891 1.33962 4
      vertex -1.0253 1.0253 0
      vertex -0.554891 1.33962 0
    endloop
  endfacet
  facet normal 0.831467 -0.555574 0
    outer loop
      vertex -1.33962 0.554891 4
      vertex -1.0253 1.0253 0
      vertex -1.0253 1.0253 4
    endloop
  endfacet
  facet normal 0.831467 -0.555574 0
    outer loop
      vertex -1.0253 1.0253 0
      vertex -1.33962 0.554891 4
      vertex -1.33962 0.554891 0
    endloop
  endfacet
  facet normal 0.195099 -0.980783 0
    outer loop
      vertex -0.554891 1.33962 0
      vertex 0 1.45 4
      vertex -0.554891 1.33962 4
    endloop
  endfacet
  facet normal 0.195099 -0.980783 0
    outer loop
      vertex 0 1.45 4
      vertex -0.554891 1.33962 0
      vertex 0 1.45 0
    endloop
  endfacet
  facet normal 0.555574 0.831467 -0
    outer loop
      vertex -0.554891 -1.33962 0
      vertex -1.0253 -1.0253 4
      vertex -0.554891 -1.33962 4
    endloop
  endfacet
  facet normal 0.555574 0.831467 0
    outer loop
      vertex -1.0253 -1.0253 4
      vertex -0.554891 -1.33962 0
      vertex -1.0253 -1.0253 0
    endloop
  endfacet
  facet normal 0.980783 0.195099 0
    outer loop
      vertex -1.33962 -0.554891 4
      vertex -1.45 0 0
      vertex -1.45 0 4
    endloop
  endfacet
  facet normal 0.980783 0.195099 0
    outer loop
      vertex -1.45 0 0
      vertex -1.33962 -0.554891 4
      vertex -1.33962 -0.554891 0
    endloop
  endfacet
  facet normal -0.555574 0.831467 0
    outer loop
      vertex 1.0253 -1.0253 0
      vertex 0.554891 -1.33962 4
      vertex 1.0253 -1.0253 4
    endloop
  endfacet
  facet normal -0.555574 0.831467 0
    outer loop
      vertex 0.554891 -1.33962 4
      vertex 1.0253 -1.0253 0
      vertex 0.554891 -1.33962 0
    endloop
  endfacet
  facet normal -0.831467 0.555574 0
    outer loop
      vertex 1.0253 -1.0253 0
      vertex 1.33962 -0.554891 4
      vertex 1.33962 -0.554891 0
    endloop
  endfacet
  facet normal -0.831467 0.555574 0
    outer loop
      vertex 1.33962 -0.554891 4
      vertex 1.0253 -1.0253 0
      vertex 1.0253 -1.0253 4
    endloop
  endfacet
  facet normal 0.195099 0.980783 -0
    outer loop
      vertex 0 -1.45 0
      vertex -0.554891 -1.33962 4
      vertex 0 -1.45 4
    endloop
  endfacet
  facet normal 0.195099 0.980783 0
    outer loop
      vertex -0.554891 -1.33962 4
      vertex 0 -1.45 0
      vertex -0.554891 -1.33962 0
    endloop
  endfacet
  facet normal 0.831467 0.555574 0
    outer loop
      vertex -1.0253 -1.0253 4
      vertex -1.33962 -0.554891 0
      vertex -1.33962 -0.554891 4
    endloop
  endfacet
  facet normal 0.831467 0.555574 0
    outer loop
      vertex -1.33962 -0.554891 0
      vertex -1.0253 -1.0253 4
      vertex -1.0253 -1.0253 0
    endloop
  endfacet
  facet normal -0.980783 0.195099 0
    outer loop
      vertex 1.33962 -0.554891 0
      vertex 1.45 0 4
      vertex 1.45 0 0
    endloop
  endfacet
  facet normal -0.980783 0.195099 0
    outer loop
      vertex 1.45 0 4
      vertex 1.33962 -0.554891 0
      vertex 1.33962 -0.554891 4
    endloop
  endfacet
  facet normal -0.980784 -0.195096 0
    outer loop
      vertex 1.45 49 0
      vertex 1.33962 49.5549 4
      vertex 1.33962 49.5549 0
    endloop
  endfacet
  facet normal -0.980784 -0.195096 0
    outer loop
      vertex 1.33962 49.5549 4
      vertex 1.45 49 0
      vertex 1.45 49 4
    endloop
  endfacet
  facet normal 0.195133 -0.980777 0
    outer loop
      vertex -0.554891 50.3396 0
      vertex 0 50.45 4
      vertex -0.554891 50.3396 4
    endloop
  endfacet
  facet normal 0.195133 -0.980777 0
    outer loop
      vertex 0 50.45 4
      vertex -0.554891 50.3396 0
      vertex 0 50.45 0
    endloop
  endfacet
  facet normal -0.195133 0.980777 0
    outer loop
      vertex 0.554891 47.6604 0
      vertex 0 47.55 4
      vertex 0.554891 47.6604 4
    endloop
  endfacet
  facet normal -0.195133 0.980777 0
    outer loop
      vertex 0 47.55 4
      vertex 0.554891 47.6604 0
      vertex 0 47.55 0
    endloop
  endfacet
  facet normal -0.555549 0.831484 0
    outer loop
      vertex 1.0253 47.9747 0
      vertex 0.554891 47.6604 4
      vertex 1.0253 47.9747 4
    endloop
  endfacet
  facet normal -0.555549 0.831484 0
    outer loop
      vertex 0.554891 47.6604 4
      vertex 1.0253 47.9747 0
      vertex 0.554891 47.6604 0
    endloop
  endfacet
  facet normal -0.555549 -0.831484 0
    outer loop
      vertex 0.554891 50.3396 0
      vertex 1.0253 50.0253 4
      vertex 0.554891 50.3396 4
    endloop
  endfacet
  facet normal -0.555549 -0.831484 -0
    outer loop
      vertex 1.0253 50.0253 4
      vertex 0.554891 50.3396 0
      vertex 1.0253 50.0253 0
    endloop
  endfacet
  facet normal -0.831462 -0.555581 0
    outer loop
      vertex 1.33962 49.5549 0
      vertex 1.0253 50.0253 4
      vertex 1.0253 50.0253 0
    endloop
  endfacet
  facet normal -0.831462 -0.555581 0
    outer loop
      vertex 1.0253 50.0253 4
      vertex 1.33962 49.5549 0
      vertex 1.33962 49.5549 4
    endloop
  endfacet
  facet normal -0.195133 -0.980777 0
    outer loop
      vertex 0 50.45 0
      vertex 0.554891 50.3396 4
      vertex 0 50.45 4
    endloop
  endfacet
  facet normal -0.195133 -0.980777 -0
    outer loop
      vertex 0.554891 50.3396 4
      vertex 0 50.45 0
      vertex 0.554891 50.3396 0
    endloop
  endfacet
  facet normal 0.831462 -0.555581 0
    outer loop
      vertex -1.33962 49.5549 4
      vertex -1.0253 50.0253 0
      vertex -1.0253 50.0253 4
    endloop
  endfacet
  facet normal 0.831462 -0.555581 0
    outer loop
      vertex -1.0253 50.0253 0
      vertex -1.33962 49.5549 4
      vertex -1.33962 49.5549 0
    endloop
  endfacet
  facet normal 0.980784 -0.195096 0
    outer loop
      vertex -1.45 49 4
      vertex -1.33962 49.5549 0
      vertex -1.33962 49.5549 4
    endloop
  endfacet
  facet normal 0.980784 -0.195096 0
    outer loop
      vertex -1.33962 49.5549 0
      vertex -1.45 49 4
      vertex -1.45 49 0
    endloop
  endfacet
  facet normal 0.555549 -0.831484 0
    outer loop
      vertex -1.0253 50.0253 0
      vertex -0.554891 50.3396 4
      vertex -1.0253 50.0253 4
    endloop
  endfacet
  facet normal 0.555549 -0.831484 0
    outer loop
      vertex -0.554891 50.3396 4
      vertex -1.0253 50.0253 0
      vertex -0.554891 50.3396 0
    endloop
  endfacet
  facet normal 0.831462 0.555581 0
    outer loop
      vertex -1.0253 47.9747 4
      vertex -1.33962 48.4451 0
      vertex -1.33962 48.4451 4
    endloop
  endfacet
  facet normal 0.831462 0.555581 0
    outer loop
      vertex -1.33962 48.4451 0
      vertex -1.0253 47.9747 4
      vertex -1.0253 47.9747 0
    endloop
  endfacet
  facet normal 0.980784 0.195096 0
    outer loop
      vertex -1.33962 48.4451 4
      vertex -1.45 49 0
      vertex -1.45 49 4
    endloop
  endfacet
  facet normal 0.980784 0.195096 0
    outer loop
      vertex -1.45 49 0
      vertex -1.33962 48.4451 4
      vertex -1.33962 48.4451 0
    endloop
  endfacet
  facet normal -0.831462 0.555581 0
    outer loop
      vertex 1.0253 47.9747 0
      vertex 1.33962 48.4451 4
      vertex 1.33962 48.4451 0
    endloop
  endfacet
  facet normal -0.831462 0.555581 0
    outer loop
      vertex 1.33962 48.4451 4
      vertex 1.0253 47.9747 0
      vertex 1.0253 47.9747 4
    endloop
  endfacet
  facet normal -0.980784 0.195096 0
    outer loop
      vertex 1.33962 48.4451 0
      vertex 1.45 49 4
      vertex 1.45 49 0
    endloop
  endfacet
  facet normal -0.980784 0.195096 0
    outer loop
      vertex 1.45 49 4
      vertex 1.33962 48.4451 0
      vertex 1.33962 48.4451 4
    endloop
  endfacet
  facet normal 0.195133 0.980777 -0
    outer loop
      vertex 0 47.55 0
      vertex -0.554891 47.6604 4
      vertex 0 47.55 4
    endloop
  endfacet
  facet normal 0.195133 0.980777 0
    outer loop
      vertex -0.554891 47.6604 4
      vertex 0 47.55 0
      vertex -0.554891 47.6604 0
    endloop
  endfacet
  facet normal 0.555549 0.831484 -0
    outer loop
      vertex -0.554891 47.6604 0
      vertex -1.0253 47.9747 4
      vertex -0.554891 47.6604 4
    endloop
  endfacet
  facet normal 0.555549 0.831484 0
    outer loop
      vertex -1.0253 47.9747 4
      vertex -0.554891 47.6604 0
      vertex -1.0253 47.9747 0
    endloop
  endfacet
  facet normal -0.980777 -0.195133 0
    outer loop
      vertex 59.45 0 0
      vertex 59.3396 0.554891 4
      vertex 59.3396 0.554891 0
    endloop
  endfacet
  facet normal -0.980777 -0.195133 0
    outer loop
      vertex 59.3396 0.554891 4
      vertex 59.45 0 0
      vertex 59.45 0 4
    endloop
  endfacet
  facet normal 0.980777 -0.195133 0
    outer loop
      vertex 56.55 0 4
      vertex 56.6604 0.554891 0
      vertex 56.6604 0.554891 4
    endloop
  endfacet
  facet normal 0.980777 -0.195133 0
    outer loop
      vertex 56.6604 0.554891 0
      vertex 56.55 0 4
      vertex 56.55 0 0
    endloop
  endfacet
  facet normal -0.195096 -0.980784 0
    outer loop
      vertex 58 1.45 0
      vertex 58.5549 1.33962 4
      vertex 58 1.45 4
    endloop
  endfacet
  facet normal -0.195096 -0.980784 -0
    outer loop
      vertex 58.5549 1.33962 4
      vertex 58 1.45 0
      vertex 58.5549 1.33962 0
    endloop
  endfacet
  facet normal -0.831484 -0.555549 0
    outer loop
      vertex 59.3396 0.554891 0
      vertex 59.0253 1.0253 4
      vertex 59.0253 1.0253 0
    endloop
  endfacet
  facet normal -0.831484 -0.555549 0
    outer loop
      vertex 59.0253 1.0253 4
      vertex 59.3396 0.554891 0
      vertex 59.3396 0.554891 4
    endloop
  endfacet
  facet normal -0.195096 0.980784 0
    outer loop
      vertex 58.5549 -1.33962 0
      vertex 58 -1.45 4
      vertex 58.5549 -1.33962 4
    endloop
  endfacet
  facet normal -0.195096 0.980784 0
    outer loop
      vertex 58 -1.45 4
      vertex 58.5549 -1.33962 0
      vertex 58 -1.45 0
    endloop
  endfacet
  facet normal -0.555581 -0.831462 0
    outer loop
      vertex 58.5549 1.33962 0
      vertex 59.0253 1.0253 4
      vertex 58.5549 1.33962 4
    endloop
  endfacet
  facet normal -0.555581 -0.831462 -0
    outer loop
      vertex 59.0253 1.0253 4
      vertex 58.5549 1.33962 0
      vertex 59.0253 1.0253 0
    endloop
  endfacet
  facet normal 0.555581 -0.831462 0
    outer loop
      vertex 56.9747 1.0253 0
      vertex 57.4451 1.33962 4
      vertex 56.9747 1.0253 4
    endloop
  endfacet
  facet normal 0.555581 -0.831462 0
    outer loop
      vertex 57.4451 1.33962 4
      vertex 56.9747 1.0253 0
      vertex 57.4451 1.33962 0
    endloop
  endfacet
  facet normal 0.831484 -0.555549 0
    outer loop
      vertex 56.6604 0.554891 4
      vertex 56.9747 1.0253 0
      vertex 56.9747 1.0253 4
    endloop
  endfacet
  facet normal 0.831484 -0.555549 0
    outer loop
      vertex 56.9747 1.0253 0
      vertex 56.6604 0.554891 4
      vertex 56.6604 0.554891 0
    endloop
  endfacet
  facet normal 0.195096 -0.980784 0
    outer loop
      vertex 57.4451 1.33962 0
      vertex 58 1.45 4
      vertex 57.4451 1.33962 4
    endloop
  endfacet
  facet normal 0.195096 -0.980784 0
    outer loop
      vertex 58 1.45 4
      vertex 57.4451 1.33962 0
      vertex 58 1.45 0
    endloop
  endfacet
  facet normal 0.555581 0.831462 -0
    outer loop
      vertex 57.4451 -1.33962 0
      vertex 56.9747 -1.0253 4
      vertex 57.4451 -1.33962 4
    endloop
  endfacet
  facet normal 0.555581 0.831462 0
    outer loop
      vertex 56.9747 -1.0253 4
      vertex 57.4451 -1.33962 0
      vertex 56.9747 -1.0253 0
    endloop
  endfacet
  facet normal 0.980777 0.195133 0
    outer loop
      vertex 56.6604 -0.554891 4
      vertex 56.55 0 0
      vertex 56.55 0 4
    endloop
  endfacet
  facet normal 0.980777 0.195133 0
    outer loop
      vertex 56.55 0 0
      vertex 56.6604 -0.554891 4
      vertex 56.6604 -0.554891 0
    endloop
  endfacet
  facet normal -0.980777 0.195133 0
    outer loop
      vertex 59.3396 -0.554891 0
      vertex 59.45 0 4
      vertex 59.45 0 0
    endloop
  endfacet
  facet normal -0.980777 0.195133 0
    outer loop
      vertex 59.45 0 4
      vertex 59.3396 -0.554891 0
      vertex 59.3396 -0.554891 4
    endloop
  endfacet
  facet normal -0.555581 0.831462 0
    outer loop
      vertex 59.0253 -1.0253 0
      vertex 58.5549 -1.33962 4
      vertex 59.0253 -1.0253 4
    endloop
  endfacet
  facet normal -0.555581 0.831462 0
    outer loop
      vertex 58.5549 -1.33962 4
      vertex 59.0253 -1.0253 0
      vertex 58.5549 -1.33962 0
    endloop
  endfacet
  facet normal -0.831484 0.555549 0
    outer loop
      vertex 59.0253 -1.0253 0
      vertex 59.3396 -0.554891 4
      vertex 59.3396 -0.554891 0
    endloop
  endfacet
  facet normal -0.831484 0.555549 0
    outer loop
      vertex 59.3396 -0.554891 4
      vertex 59.0253 -1.0253 0
      vertex 59.0253 -1.0253 4
    endloop
  endfacet
  facet normal 0.195096 0.980784 -0
    outer loop
      vertex 58 -1.45 0
      vertex 57.4451 -1.33962 4
      vertex 58 -1.45 4
    endloop
  endfacet
  facet normal 0.195096 0.980784 0
    outer loop
      vertex 57.4451 -1.33962 4
      vertex 58 -1.45 0
      vertex 57.4451 -1.33962 0
    endloop
  endfacet
  facet normal 0.831484 0.555549 0
    outer loop
      vertex 56.9747 -1.0253 4
      vertex 56.6604 -0.554891 0
      vertex 56.6604 -0.554891 4
    endloop
  endfacet
  facet normal 0.831484 0.555549 0
    outer loop
      vertex 56.6604 -0.554891 0
      vertex 56.9747 -1.0253 4
      vertex 56.9747 -1.0253 0
    endloop
  endfacet
  facet normal -0.980777 -0.19513 0
    outer loop
      vertex 59.45 49 0
      vertex 59.3396 49.5549 4
      vertex 59.3396 49.5549 0
    endloop
  endfacet
  facet normal -0.980777 -0.19513 0
    outer loop
      vertex 59.3396 49.5549 4
      vertex 59.45 49 0
      vertex 59.45 49 4
    endloop
  endfacet
  facet normal 0.19513 -0.980777 0
    outer loop
      vertex 57.4451 50.3396 0
      vertex 58 50.45 4
      vertex 57.4451 50.3396 4
    endloop
  endfacet
  facet normal 0.19513 -0.980777 0
    outer loop
      vertex 58 50.45 4
      vertex 57.4451 50.3396 0
      vertex 58 50.45 0
    endloop
  endfacet
  facet normal -0.19513 0.980777 0
    outer loop
      vertex 58.5549 47.6604 0
      vertex 58 47.55 4
      vertex 58.5549 47.6604 4
    endloop
  endfacet
  facet normal -0.19513 0.980777 0
    outer loop
      vertex 58 47.55 4
      vertex 58.5549 47.6604 0
      vertex 58 47.55 0
    endloop
  endfacet
  facet normal -0.555557 0.831479 0
    outer loop
      vertex 59.0253 47.9747 0
      vertex 58.5549 47.6604 4
      vertex 59.0253 47.9747 4
    endloop
  endfacet
  facet normal -0.555557 0.831479 0
    outer loop
      vertex 58.5549 47.6604 4
      vertex 59.0253 47.9747 0
      vertex 58.5549 47.6604 0
    endloop
  endfacet
  facet normal -0.555557 -0.831479 0
    outer loop
      vertex 58.5549 50.3396 0
      vertex 59.0253 50.0253 4
      vertex 58.5549 50.3396 4
    endloop
  endfacet
  facet normal -0.555557 -0.831479 -0
    outer loop
      vertex 59.0253 50.0253 4
      vertex 58.5549 50.3396 0
      vertex 59.0253 50.0253 0
    endloop
  endfacet
  facet normal -0.831479 -0.555557 0
    outer loop
      vertex 59.3396 49.5549 0
      vertex 59.0253 50.0253 4
      vertex 59.0253 50.0253 0
    endloop
  endfacet
  facet normal -0.831479 -0.555557 0
    outer loop
      vertex 59.0253 50.0253 4
      vertex 59.3396 49.5549 0
      vertex 59.3396 49.5549 4
    endloop
  endfacet
  facet normal -0.19513 -0.980777 0
    outer loop
      vertex 58 50.45 0
      vertex 58.5549 50.3396 4
      vertex 58 50.45 4
    endloop
  endfacet
  facet normal -0.19513 -0.980777 -0
    outer loop
      vertex 58.5549 50.3396 4
      vertex 58 50.45 0
      vertex 58.5549 50.3396 0
    endloop
  endfacet
  facet normal 0.831479 -0.555557 0
    outer loop
      vertex 56.6604 49.5549 4
      vertex 56.9747 50.0253 0
      vertex 56.9747 50.0253 4
    endloop
  endfacet
  facet normal 0.831479 -0.555557 0
    outer loop
      vertex 56.9747 50.0253 0
      vertex 56.6604 49.5549 4
      vertex 56.6604 49.5549 0
    endloop
  endfacet
  facet normal 0.980777 -0.19513 0
    outer loop
      vertex 56.55 49 4
      vertex 56.6604 49.5549 0
      vertex 56.6604 49.5549 4
    endloop
  endfacet
  facet normal 0.980777 -0.19513 0
    outer loop
      vertex 56.6604 49.5549 0
      vertex 56.55 49 4
      vertex 56.55 49 0
    endloop
  endfacet
  facet normal 0.555557 -0.831479 0
    outer loop
      vertex 56.9747 50.0253 0
      vertex 57.4451 50.3396 4
      vertex 56.9747 50.0253 4
    endloop
  endfacet
  facet normal 0.555557 -0.831479 0
    outer loop
      vertex 57.4451 50.3396 4
      vertex 56.9747 50.0253 0
      vertex 57.4451 50.3396 0
    endloop
  endfacet
  facet normal -0.980777 0.19513 0
    outer loop
      vertex 59.3396 48.4451 0
      vertex 59.45 49 4
      vertex 59.45 49 0
    endloop
  endfacet
  facet normal -0.980777 0.19513 0
    outer loop
      vertex 59.45 49 4
      vertex 59.3396 48.4451 0
      vertex 59.3396 48.4451 4
    endloop
  endfacet
  facet normal 0.980777 0.19513 0
    outer loop
      vertex 56.6604 48.4451 4
      vertex 56.55 49 0
      vertex 56.55 49 4
    endloop
  endfacet
  facet normal 0.980777 0.19513 0
    outer loop
      vertex 56.55 49 0
      vertex 56.6604 48.4451 4
      vertex 56.6604 48.4451 0
    endloop
  endfacet
  facet normal -0.831479 0.555557 0
    outer loop
      vertex 59.0253 47.9747 0
      vertex 59.3396 48.4451 4
      vertex 59.3396 48.4451 0
    endloop
  endfacet
  facet normal -0.831479 0.555557 0
    outer loop
      vertex 59.3396 48.4451 4
      vertex 59.0253 47.9747 0
      vertex 59.0253 47.9747 4
    endloop
  endfacet
  facet normal 0.19513 0.980777 -0
    outer loop
      vertex 58 47.55 0
      vertex 57.4451 47.6604 4
      vertex 58 47.55 4
    endloop
  endfacet
  facet normal 0.19513 0.980777 0
    outer loop
      vertex 57.4451 47.6604 4
      vertex 58 47.55 0
      vertex 57.4451 47.6604 0
    endloop
  endfacet
  facet normal 0.555557 0.831479 -0
    outer loop
      vertex 57.4451 47.6604 0
      vertex 56.9747 47.9747 4
      vertex 57.4451 47.6604 4
    endloop
  endfacet
  facet normal 0.555557 0.831479 0
    outer loop
      vertex 56.9747 47.9747 4
      vertex 57.4451 47.6604 0
      vertex 56.9747 47.9747 0
    endloop
  endfacet
  facet normal 0.831479 0.555557 0
    outer loop
      vertex 56.9747 47.9747 4
      vertex 56.6604 48.4451 0
      vertex 56.6604 48.4451 4
    endloop
  endfacet
  facet normal 0.831479 0.555557 0
    outer loop
      vertex 56.6604 48.4451 0
      vertex 56.9747 47.9747 4
      vertex 56.9747 47.9747 0
    endloop
  endfacet
endsolid OpenSCAD_Model
