solid OpenSCAD_Model
  facet normal 0 0 1
    outer loop
      vertex 23.5742 16.2861 0.699999
      vertex 24.7773 18.2145 0.699999
      vertex 24.4271 18.3532 0.699999
    endloop
  endfacet
  facet normal 0 0 1
    outer loop
      vertex 24.7773 18.2145 0.699999
      vertex 24.3857 15.4736 0.699999
      vertex 24.5 14.9004 0.699999
    endloop
  endfacet
  facet normal 0 0 1
    outer loop
      vertex 23.5742 16.2861 0.699999
      vertex 24.4271 18.3532 0.699999
      vertex 24.0621 18.4469 0.699999
    endloop
  endfacet
  facet normal 0 0 1
    outer loop
      vertex 24.7773 18.2145 0.699999
      vertex 24.0605 15.9609 0.699999
      vertex 24.3857 15.4736 0.699999
    endloop
  endfacet
  facet normal 0 0 1
    outer loop
      vertex 23.5742 16.2861 0.699999
      vertex 24.0621 18.4469 0.699999
      vertex 23.6884 18.4941 0.699999
    endloop
  endfacet
  facet normal 0 0 1
    outer loop
      vertex 24.7773 18.2145 0.699999
      vertex 23.5742 16.2861 0.699999
      vertex 24.0605 15.9609 0.699999
    endloop
  endfacet
  facet normal 0 0 1
    outer loop
      vertex 23.6884 18.4941 0.699999
      vertex 23 16.4004 0.699999
      vertex 23.5742 16.2861 0.699999
    endloop
  endfacet
  facet normal 0 0 1
    outer loop
      vertex 23.6884 18.4941 0.699999
      vertex 22.4258 16.2861 0.699999
      vertex 23 16.4004 0.699999
    endloop
  endfacet
  facet normal 0 0 1
    outer loop
      vertex 23.6884 18.4941 0.699999
      vertex 21.9395 15.9609 0.699999
      vertex 22.4258 16.2861 0.699999
    endloop
  endfacet
  facet normal 0 0 1
    outer loop
      vertex 21.6143 15.4736 0.699999
      vertex 3.5 14.9004 0.699999
      vertex 21.5 14.9004 0.699999
    endloop
  endfacet
  facet normal 0 0 1
    outer loop
      vertex 3.38574 15.4736 0.699999
      vertex 21.6143 15.4736 0.699999
      vertex 21.9395 15.9609 0.699999
    endloop
  endfacet
  facet normal 0 0 1
    outer loop
      vertex 3.06055 15.9609 0.699999
      vertex 21.9395 15.9609 0.699999
      vertex 23.6884 18.4941 0.699999
    endloop
  endfacet
  facet normal 0 0 1
    outer loop
      vertex 21.6143 15.4736 0.699999
      vertex 3.38574 15.4736 0.699999
      vertex 3.5 14.9004 0.699999
    endloop
  endfacet
  facet normal 0 0 1
    outer loop
      vertex 21.9395 15.9609 0.699999
      vertex 3.06055 15.9609 0.699999
      vertex 3.38574 15.4736 0.699999
    endloop
  endfacet
  facet normal -0 0 1
    outer loop
      vertex 1.31163 18.4941 0.699999
      vertex 3.06055 15.9609 0.699999
      vertex 23.6884 18.4941 0.699999
    endloop
  endfacet
  facet normal 0 0 1
    outer loop
      vertex 3.06055 15.9609 0.699999
      vertex 1.31163 18.4941 0.699999
      vertex 2.57422 16.2861 0.699999
    endloop
  endfacet
  facet normal 0 0 1
    outer loop
      vertex 2.57422 16.2861 0.699999
      vertex 1.31163 18.4941 0.699999
      vertex 2 16.4004 0.699999
    endloop
  endfacet
  facet normal 0 0 1
    outer loop
      vertex 1.31163 18.4941 0.699999
      vertex 1.42578 16.2861 0.699999
      vertex 2 16.4004 0.699999
    endloop
  endfacet
  facet normal -0 0 1
    outer loop
      vertex 0.937857 18.4469 0.699999
      vertex 1.42578 16.2861 0.699999
      vertex 1.31163 18.4941 0.699999
    endloop
  endfacet
  facet normal -0 0 1
    outer loop
      vertex 0.572949 18.3532 0.699999
      vertex 1.42578 16.2861 0.699999
      vertex 0.937857 18.4469 0.699999
    endloop
  endfacet
  facet normal -0 0 1
    outer loop
      vertex 0.222663 18.2145 0.699999
      vertex 1.42578 16.2861 0.699999
      vertex 0.572949 18.3532 0.699999
    endloop
  endfacet
  facet normal -0 0 1
    outer loop
      vertex -0.10748 18.033 0.699999
      vertex 1.42578 16.2861 0.699999
      vertex 0.222663 18.2145 0.699999
    endloop
  endfacet
  facet normal 0 0 1
    outer loop
      vertex 1.42578 16.2861 0.699999
      vertex -0.10748 18.033 0.699999
      vertex 0.939453 15.9609 0.699999
    endloop
  endfacet
  facet normal -0 0 1
    outer loop
      vertex -0.412271 17.8115 0.699999
      vertex 0.939453 15.9609 0.699999
      vertex -0.10748 18.033 0.699999
    endloop
  endfacet
  facet normal 0 0 1
    outer loop
      vertex 24.5 14.9004 0.699999
      vertex 26.5 15.5 0.699999
      vertex 26.4763 15.876 0.699999
    endloop
  endfacet
  facet normal 0 0 1
    outer loop
      vertex 26.5 15.5 0.699999
      vertex 25 12 0.699999
      vertex 26.5 1.5 0.699999
    endloop
  endfacet
  facet normal 0 0 1
    outer loop
      vertex 24.5 14.9004 0.699999
      vertex 26.4763 15.876 0.699999
      vertex 26.4058 16.2461 0.699999
    endloop
  endfacet
  facet normal -0 0 1
    outer loop
      vertex 25 5 0.699999
      vertex 26.5 1.5 0.699999
      vertex 25 12 0.699999
    endloop
  endfacet
  facet normal 0 0 1
    outer loop
      vertex 24.5 14.9004 0.699999
      vertex 26.4058 16.2461 0.699999
      vertex 26.2893 16.6044 0.699999
    endloop
  endfacet
  facet normal -0 0 1
    outer loop
      vertex 24.3857 2.57422 0.699999
      vertex 26.5 1.5 0.699999
      vertex 25 5 0.699999
    endloop
  endfacet
  facet normal 0 0 1
    outer loop
      vertex 24.5 14.9004 0.699999
      vertex 26.2893 16.6044 0.699999
      vertex 26.1289 16.9453 0.699999
    endloop
  endfacet
  facet normal -0 -0 1
    outer loop
      vertex 24.5 2 0.699999
      vertex 26.5 1.5 0.699999
      vertex 24.3857 2.57422 0.699999
    endloop
  endfacet
  facet normal 0 0 1
    outer loop
      vertex 24.5 14.9004 0.699999
      vertex 26.1289 16.9453 0.699999
      vertex 25.9271 17.2634 0.699999
    endloop
  endfacet
  facet normal 0 0 1
    outer loop
      vertex 24.3857 1.42578 0.699999
      vertex 26.5 1.5 0.699999
      vertex 24.5 2 0.699999
    endloop
  endfacet
  facet normal 0 0 1
    outer loop
      vertex 24.5 14.9004 0.699999
      vertex 25.9271 17.2634 0.699999
      vertex 25.6869 17.5536 0.699999
    endloop
  endfacet
  facet normal 0 0 1
    outer loop
      vertex 26.5 1.5 0.699999
      vertex 24.3857 1.42578 0.699999
      vertex 26.4763 1.124 0.699999
    endloop
  endfacet
  facet normal 0 0 1
    outer loop
      vertex 24.5 14.9004 0.699999
      vertex 25.6869 17.5536 0.699999
      vertex 25.4123 17.8115 0.699999
    endloop
  endfacet
  facet normal 0 0 1
    outer loop
      vertex 26.4763 1.124 0.699999
      vertex 24.3857 1.42578 0.699999
      vertex 26.4058 0.753931 0.699999
    endloop
  endfacet
  facet normal 0 0 1
    outer loop
      vertex 24.5 14.9004 0.699999
      vertex 25.4123 17.8115 0.699999
      vertex 25.1075 18.033 0.699999
    endloop
  endfacet
  facet normal 0 0 1
    outer loop
      vertex 26.2893 0.395627 0.699999
      vertex 24.3857 1.42578 0.699999
      vertex 26.1289 0.054739 0.699999
    endloop
  endfacet
  facet normal -0 0 1
    outer loop
      vertex 24.0605 0.939453 0.699999
      vertex 26.1289 0.054739 0.699999
      vertex 24.3857 1.42578 0.699999
    endloop
  endfacet
  facet normal 0 0 1
    outer loop
      vertex 24.5 14.9004 0.699999
      vertex 25.1075 18.033 0.699999
      vertex 24.7773 18.2145 0.699999
    endloop
  endfacet
  facet normal 0 0 1
    outer loop
      vertex 26.5 15.5 0.699999
      vertex 24.5 14.9004 0.699999
      vertex 24.3857 14.3262 0.699999
    endloop
  endfacet
  facet normal 0 0 1
    outer loop
      vertex 26.5 15.5 0.699999
      vertex 24.3857 14.3262 0.699999
      vertex 25 12 0.699999
    endloop
  endfacet
  facet normal -0 0 1
    outer loop
      vertex 24.0605 13.8389 0.699999
      vertex 25 12 0.699999
      vertex 24.3857 14.3262 0.699999
    endloop
  endfacet
  facet normal -0 0 1
    outer loop
      vertex 23.5742 13.5146 0.699999
      vertex 25 12 0.699999
      vertex 24.0605 13.8389 0.699999
    endloop
  endfacet
  facet normal -0 0 1
    outer loop
      vertex 23 13.4004 0.699999
      vertex 25 12 0.699999
      vertex 23.5742 13.5146 0.699999
    endloop
  endfacet
  facet normal 0 0 1
    outer loop
      vertex 22.4258 13.5146 0.699999
      vertex 25 12 0.699999
      vertex 23 13.4004 0.699999
    endloop
  endfacet
  facet normal -0 0 1
    outer loop
      vertex 3.5 14.9004 0.699999
      vertex 21.6143 14.3262 0.699999
      vertex 21.5 14.9004 0.699999
    endloop
  endfacet
  facet normal 0 0 1
    outer loop
      vertex 3.38574 14.3262 0.699999
      vertex 21.6143 14.3262 0.699999
      vertex 3.5 14.9004 0.699999
    endloop
  endfacet
  facet normal 0 0 1
    outer loop
      vertex 21.6143 14.3262 0.699999
      vertex 3.38574 14.3262 0.699999
      vertex 21.9395 13.8389 0.699999
    endloop
  endfacet
  facet normal 0 0 1
    outer loop
      vertex 3.06055 13.8389 0.699999
      vertex 21.9395 13.8389 0.699999
      vertex 3.38574 14.3262 0.699999
    endloop
  endfacet
  facet normal 0 0 1
    outer loop
      vertex 21.9395 13.8389 0.699999
      vertex 3.06055 13.8389 0.699999
      vertex 22.4258 13.5146 0.699999
    endloop
  endfacet
  facet normal 0 0 1
    outer loop
      vertex 2.57422 13.5146 0.699999
      vertex 22.4258 13.5146 0.699999
      vertex 3.06055 13.8389 0.699999
    endloop
  endfacet
  facet normal 0 0 1
    outer loop
      vertex 22.4258 13.5146 0.699999
      vertex 2.57422 13.5146 0.699999
      vertex 25 12 0.699999
    endloop
  endfacet
  facet normal 0 0 1
    outer loop
      vertex 0 12 0.699999
      vertex 2.57422 13.5146 0.699999
      vertex 2 13.4004 0.699999
    endloop
  endfacet
  facet normal 0 0 1
    outer loop
      vertex 2.57422 13.5146 0.699999
      vertex 0 12 0.699999
      vertex 25 12 0.699999
    endloop
  endfacet
  facet normal 0 0 1
    outer loop
      vertex 1.42578 13.5146 0.699999
      vertex 0 12 0.699999
      vertex 2 13.4004 0.699999
    endloop
  endfacet
  facet normal 0 0 1
    outer loop
      vertex 0.939453 13.8389 0.699999
      vertex 0 12 0.699999
      vertex 1.42578 13.5146 0.699999
    endloop
  endfacet
  facet normal 0 0 1
    outer loop
      vertex 0.614258 14.3262 0.699999
      vertex 0 12 0.699999
      vertex 0.939453 13.8389 0.699999
    endloop
  endfacet
  facet normal 0 0 1
    outer loop
      vertex -1.5 15.5 0.699999
      vertex 0.614258 14.3262 0.699999
      vertex 0.5 14.9004 0.699999
    endloop
  endfacet
  facet normal -0 0 1
    outer loop
      vertex -0.686906 17.5536 0.699999
      vertex 0.939453 15.9609 0.699999
      vertex -0.412271 17.8115 0.699999
    endloop
  endfacet
  facet normal 0 0 1
    outer loop
      vertex 0.614258 14.3262 0.699999
      vertex -1.5 15.5 0.699999
      vertex 0 12 0.699999
    endloop
  endfacet
  facet normal -0 0 1
    outer loop
      vertex -0.927051 17.2634 0.699999
      vertex 0.939453 15.9609 0.699999
      vertex -0.686906 17.5536 0.699999
    endloop
  endfacet
  facet normal 0 0 1
    outer loop
      vertex 26.1289 0.054739 0.699999
      vertex 24.0605 0.939453 0.699999
      vertex 25.9271 -0.263355 0.699999
    endloop
  endfacet
  facet normal 0 0 1
    outer loop
      vertex 25.9271 -0.263355 0.699999
      vertex 24.0605 0.939453 0.699999
      vertex 25.6869 -0.55364 0.699999
    endloop
  endfacet
  facet normal 0 0 1
    outer loop
      vertex 25.6869 -0.55364 0.699999
      vertex 24.0605 0.939453 0.699999
      vertex 25.4123 -0.81154 0.699999
    endloop
  endfacet
  facet normal 0 0 1
    outer loop
      vertex 26.4058 0.753931 0.699999
      vertex 24.3857 1.42578 0.699999
      vertex 26.2893 0.395627 0.699999
    endloop
  endfacet
  facet normal 0 0 1
    outer loop
      vertex 25 5 0.699999
      vertex 24.0605 3.06055 0.699999
      vertex 24.3857 2.57422 0.699999
    endloop
  endfacet
  facet normal 0 0 1
    outer loop
      vertex 25 5 0.699999
      vertex 23.5742 3.38574 0.699999
      vertex 24.0605 3.06055 0.699999
    endloop
  endfacet
  facet normal 0 0 1
    outer loop
      vertex 25 5 0.699999
      vertex 23 3.5 0.699999
      vertex 23.5742 3.38574 0.699999
    endloop
  endfacet
  facet normal 0 0 1
    outer loop
      vertex 25 5 0.699999
      vertex 22.4258 3.38574 0.699999
      vertex 23 3.5 0.699999
    endloop
  endfacet
  facet normal 0 0 1
    outer loop
      vertex 21.6143 2.57422 0.699999
      vertex 3.5 2 0.699999
      vertex 21.5 2 0.699999
    endloop
  endfacet
  facet normal 0 0 1
    outer loop
      vertex 3.38574 2.57422 0.699999
      vertex 21.6143 2.57422 0.699999
      vertex 21.9395 3.06055 0.699999
    endloop
  endfacet
  facet normal 0 0 1
    outer loop
      vertex 3.06055 3.06055 0.699999
      vertex 21.9395 3.06055 0.699999
      vertex 22.4258 3.38574 0.699999
    endloop
  endfacet
  facet normal 0 0 1
    outer loop
      vertex 2.57422 3.38574 0.699999
      vertex 22.4258 3.38574 0.699999
      vertex 25 5 0.699999
    endloop
  endfacet
  facet normal 0 0 1
    outer loop
      vertex 21.6143 2.57422 0.699999
      vertex 3.38574 2.57422 0.699999
      vertex 3.5 2 0.699999
    endloop
  endfacet
  facet normal 0 0 1
    outer loop
      vertex 21.9395 3.06055 0.699999
      vertex 3.06055 3.06055 0.699999
      vertex 3.38574 2.57422 0.699999
    endloop
  endfacet
  facet normal 0 0 1
    outer loop
      vertex 22.4258 3.38574 0.699999
      vertex 2.57422 3.38574 0.699999
      vertex 3.06055 3.06055 0.699999
    endloop
  endfacet
  facet normal -0 0 1
    outer loop
      vertex 0 5 0.699999
      vertex 2.57422 3.38574 0.699999
      vertex 25 5 0.699999
    endloop
  endfacet
  facet normal 0 0 1
    outer loop
      vertex 2.57422 3.38574 0.699999
      vertex 0 5 0.699999
      vertex 2 3.5 0.699999
    endloop
  endfacet
  facet normal 0 0 1
    outer loop
      vertex 0 5 0.699999
      vertex 1.42578 3.38574 0.699999
      vertex 2 3.5 0.699999
    endloop
  endfacet
  facet normal 0 0 1
    outer loop
      vertex 0 5 0.699999
      vertex 0.939453 3.06055 0.699999
      vertex 1.42578 3.38574 0.699999
    endloop
  endfacet
  facet normal 0 0 1
    outer loop
      vertex 0 5 0.699999
      vertex 0.614258 2.57422 0.699999
      vertex 0.939453 3.06055 0.699999
    endloop
  endfacet
  facet normal 0 0 1
    outer loop
      vertex -1.5 1.5 0.699999
      vertex 0.614258 2.57422 0.699999
      vertex 0 5 0.699999
    endloop
  endfacet
  facet normal 0 0 1
    outer loop
      vertex 0.614258 2.57422 0.699999
      vertex -1.5 1.5 0.699999
      vertex 0.5 2 0.699999
    endloop
  endfacet
  facet normal 0 -0 1
    outer loop
      vertex -1.47634 1.124 0.699999
      vertex 0.5 2 0.699999
      vertex -1.5 1.5 0.699999
    endloop
  endfacet
  facet normal 0 0 1
    outer loop
      vertex 0 12 0.699999
      vertex -1.5 15.5 0.699999
      vertex 0 5 0.699999
    endloop
  endfacet
  facet normal -0 0 1
    outer loop
      vertex -1.12892 16.9453 0.699999
      vertex 0.939453 15.9609 0.699999
      vertex -0.927051 17.2634 0.699999
    endloop
  endfacet
  facet normal 0 0 1
    outer loop
      vertex -1.5 1.5 0.699999
      vertex 0 5 0.699999
      vertex -1.5 15.5 0.699999
    endloop
  endfacet
  facet normal 0 0 1
    outer loop
      vertex 0.939453 15.9609 0.699999
      vertex -1.12892 16.9453 0.699999
      vertex 0.614258 15.4736 0.699999
    endloop
  endfacet
  facet normal 0 0 1
    outer loop
      vertex 0.5 2 0.699999
      vertex -0.10748 -1.03298 0.699999
      vertex 0.222663 -1.21448 0.699999
    endloop
  endfacet
  facet normal -0 0 1
    outer loop
      vertex -1.28933 16.6044 0.699999
      vertex 0.614258 15.4736 0.699999
      vertex -1.12892 16.9453 0.699999
    endloop
  endfacet
  facet normal 0 0 1
    outer loop
      vertex 0.5 2 0.699999
      vertex -0.412271 -0.81154 0.699999
      vertex -0.10748 -1.03298 0.699999
    endloop
  endfacet
  facet normal -0 0 1
    outer loop
      vertex -1.40575 16.2461 0.699999
      vertex 0.614258 15.4736 0.699999
      vertex -1.28933 16.6044 0.699999
    endloop
  endfacet
  facet normal 0 0 1
    outer loop
      vertex 0.5 2 0.699999
      vertex -0.686906 -0.55364 0.699999
      vertex -0.412271 -0.81154 0.699999
    endloop
  endfacet
  facet normal -0 0 1
    outer loop
      vertex -1.47634 15.876 0.699999
      vertex 0.614258 15.4736 0.699999
      vertex -1.40575 16.2461 0.699999
    endloop
  endfacet
  facet normal 0 0 1
    outer loop
      vertex 0.5 2 0.699999
      vertex -0.927051 -0.263355 0.699999
      vertex -0.686906 -0.55364 0.699999
    endloop
  endfacet
  facet normal -0 0 1
    outer loop
      vertex -1.5 15.5 0.699999
      vertex 0.614258 15.4736 0.699999
      vertex -1.47634 15.876 0.699999
    endloop
  endfacet
  facet normal 0 0 1
    outer loop
      vertex 0.5 2 0.699999
      vertex -1.12892 0.054739 0.699999
      vertex -0.927051 -0.263355 0.699999
    endloop
  endfacet
  facet normal 0 0 1
    outer loop
      vertex 0.614258 15.4736 0.699999
      vertex -1.5 15.5 0.699999
      vertex 0.5 14.9004 0.699999
    endloop
  endfacet
  facet normal 0 0 1
    outer loop
      vertex 0.5 2 0.699999
      vertex -1.28933 0.395627 0.699999
      vertex -1.12892 0.054739 0.699999
    endloop
  endfacet
  facet normal 0 0 1
    outer loop
      vertex 0.5 2 0.699999
      vertex -1.40575 0.753931 0.699999
      vertex -1.28933 0.395627 0.699999
    endloop
  endfacet
  facet normal 0 0 1
    outer loop
      vertex 0.5 2 0.699999
      vertex -1.47634 1.124 0.699999
      vertex -1.40575 0.753931 0.699999
    endloop
  endfacet
  facet normal 0 0 1
    outer loop
      vertex 25.4123 -0.81154 0.699999
      vertex 24.0605 0.939453 0.699999
      vertex 25.1075 -1.03298 0.699999
    endloop
  endfacet
  facet normal -0 0 1
    outer loop
      vertex 23.5742 0.614258 0.699999
      vertex 25.1075 -1.03298 0.699999
      vertex 24.0605 0.939453 0.699999
    endloop
  endfacet
  facet normal 0 0 1
    outer loop
      vertex 25.1075 -1.03298 0.699999
      vertex 23.5742 0.614258 0.699999
      vertex 24.7773 -1.21448 0.699999
    endloop
  endfacet
  facet normal 0 0 1
    outer loop
      vertex 24.7773 -1.21448 0.699999
      vertex 23.5742 0.614258 0.699999
      vertex 24.4271 -1.35317 0.699999
    endloop
  endfacet
  facet normal 0 0 1
    outer loop
      vertex 24.4271 -1.35317 0.699999
      vertex 23.5742 0.614258 0.699999
      vertex 24.0621 -1.44686 0.699999
    endloop
  endfacet
  facet normal 0 0 1
    outer loop
      vertex 24.0621 -1.44686 0.699999
      vertex 23.5742 0.614258 0.699999
      vertex 23.6884 -1.49408 0.699999
    endloop
  endfacet
  facet normal -0 0 1
    outer loop
      vertex 23 0.5 0.699999
      vertex 23.6884 -1.49408 0.699999
      vertex 23.5742 0.614258 0.699999
    endloop
  endfacet
  facet normal 0 0 1
    outer loop
      vertex 22.4258 0.614258 0.699999
      vertex 23.6884 -1.49408 0.699999
      vertex 23 0.5 0.699999
    endloop
  endfacet
  facet normal 0 0 1
    outer loop
      vertex 21.9395 0.939453 0.699999
      vertex 23.6884 -1.49408 0.699999
      vertex 22.4258 0.614258 0.699999
    endloop
  endfacet
  facet normal -0 0 1
    outer loop
      vertex 3.5 2 0.699999
      vertex 21.6143 1.42578 0.699999
      vertex 21.5 2 0.699999
    endloop
  endfacet
  facet normal 0 0 1
    outer loop
      vertex 3.38574 1.42578 0.699999
      vertex 21.6143 1.42578 0.699999
      vertex 3.5 2 0.699999
    endloop
  endfacet
  facet normal 0 0 1
    outer loop
      vertex 21.6143 1.42578 0.699999
      vertex 3.38574 1.42578 0.699999
      vertex 21.9395 0.939453 0.699999
    endloop
  endfacet
  facet normal 0 0 1
    outer loop
      vertex 3.06055 0.939453 0.699999
      vertex 21.9395 0.939453 0.699999
      vertex 3.38574 1.42578 0.699999
    endloop
  endfacet
  facet normal 0 0 1
    outer loop
      vertex 21.9395 0.939453 0.699999
      vertex 3.06055 0.939453 0.699999
      vertex 23.6884 -1.49408 0.699999
    endloop
  endfacet
  facet normal 0 0 1
    outer loop
      vertex 1.31163 -1.49408 0.699999
      vertex 3.06055 0.939453 0.699999
      vertex 2.57422 0.614258 0.699999
    endloop
  endfacet
  facet normal 0 0 1
    outer loop
      vertex 1.31163 -1.49408 0.699999
      vertex 2.57422 0.614258 0.699999
      vertex 2 0.5 0.699999
    endloop
  endfacet
  facet normal 0 0 1
    outer loop
      vertex 3.06055 0.939453 0.699999
      vertex 1.31163 -1.49408 0.699999
      vertex 23.6884 -1.49408 0.699999
    endloop
  endfacet
  facet normal 0 0 1
    outer loop
      vertex 1.42578 0.614258 0.699999
      vertex 1.31163 -1.49408 0.699999
      vertex 2 0.5 0.699999
    endloop
  endfacet
  facet normal 0 0 1
    outer loop
      vertex 0.222663 -1.21448 0.699999
      vertex 1.42578 0.614258 0.699999
      vertex 0.939453 0.939453 0.699999
    endloop
  endfacet
  facet normal 0 0 1
    outer loop
      vertex 1.42578 0.614258 0.699999
      vertex 0.937857 -1.44686 0.699999
      vertex 1.31163 -1.49408 0.699999
    endloop
  endfacet
  facet normal 0 0 1
    outer loop
      vertex 0.222663 -1.21448 0.699999
      vertex 0.939453 0.939453 0.699999
      vertex 0.614258 1.42578 0.699999
    endloop
  endfacet
  facet normal 0 0 1
    outer loop
      vertex 1.42578 0.614258 0.699999
      vertex 0.572949 -1.35317 0.699999
      vertex 0.937857 -1.44686 0.699999
    endloop
  endfacet
  facet normal 0 0 1
    outer loop
      vertex 0.222663 -1.21448 0.699999
      vertex 0.614258 1.42578 0.699999
      vertex 0.5 2 0.699999
    endloop
  endfacet
  facet normal 0 0 1
    outer loop
      vertex 1.42578 0.614258 0.699999
      vertex 0.222663 -1.21448 0.699999
      vertex 0.572949 -1.35317 0.699999
    endloop
  endfacet
  facet normal 0 1 -0
    outer loop
      vertex 23.6884 18.4941 0
      vertex 1.31163 18.4941 0.699999
      vertex 23.6884 18.4941 0.699999
    endloop
  endfacet
  facet normal 0 1 0
    outer loop
      vertex 1.31163 18.4941 0.699999
      vertex 23.6884 18.4941 0
      vertex 1.31163 18.4941 0
    endloop
  endfacet
  facet normal -0.982289 -0.18737 0
    outer loop
      vertex -1.40575 0.753931 0
      vertex -1.47634 1.124 0.699999
      vertex -1.47634 1.124 0
    endloop
  endfacet
  facet normal -0.982289 -0.18737 0
    outer loop
      vertex -1.47634 1.124 0.699999
      vertex -1.40575 0.753931 0
      vertex -1.40575 0.753931 0.699999
    endloop
  endfacet
  facet normal 0.684594 0.728924 -0
    outer loop
      vertex 25.6869 17.5536 0
      vertex 25.4123 17.8115 0.699999
      vertex 25.6869 17.5536 0.699999
    endloop
  endfacet
  facet normal 0.684594 0.728924 0
    outer loop
      vertex 25.4123 17.8115 0.699999
      vertex 25.6869 17.5536 0
      vertex 25.4123 17.8115 0
    endloop
  endfacet
  facet normal 0.998019 0.0629071 0
    outer loop
      vertex 26.5 15.5 0.699999
      vertex 26.4763 15.876 0
      vertex 26.4763 15.876 0.699999
    endloop
  endfacet
  facet normal 0.998019 0.0629071 0
    outer loop
      vertex 26.4763 15.876 0
      vertex 26.5 15.5 0.699999
      vertex 26.5 15.5 0
    endloop
  endfacet
  facet normal 0.481695 -0.876339 0
    outer loop
      vertex 24.7773 -1.21448 0
      vertex 25.1075 -1.03298 0.699999
      vertex 24.7773 -1.21448 0.699999
    endloop
  endfacet
  facet normal 0.481695 -0.876339 0
    outer loop
      vertex 25.1075 -1.03298 0.699999
      vertex 24.7773 -1.21448 0
      vertex 25.1075 -1.03298 0
    endloop
  endfacet
  facet normal 1 -0 0
    outer loop
      vertex 26.5 1.5 0.699999
      vertex 26.5 15.5 0
      vertex 26.5 15.5 0.699999
    endloop
  endfacet
  facet normal 1 0 0
    outer loop
      vertex 26.5 15.5 0
      vertex 26.5 1.5 0.699999
      vertex 26.5 1.5 0
    endloop
  endfacet
  facet normal -0.248684 -0.968585 0
    outer loop
      vertex 0.572949 -1.35317 0
      vertex 0.937857 -1.44686 0.699999
      vertex 0.572949 -1.35317 0.699999
    endloop
  endfacet
  facet normal -0.248684 -0.968585 -0
    outer loop
      vertex 0.937857 -1.44686 0.699999
      vertex 0.572949 -1.35317 0
      vertex 0.937857 -1.44686 0
    endloop
  endfacet
  facet normal 0 -1 0
    outer loop
      vertex 1.31163 -1.49408 0
      vertex 23.6884 -1.49408 0.699999
      vertex 1.31163 -1.49408 0.699999
    endloop
  endfacet
  facet normal 0 -1 -0
    outer loop
      vertex 23.6884 -1.49408 0.699999
      vertex 1.31163 -1.49408 0
      vertex 23.6884 -1.49408 0
    endloop
  endfacet
  facet normal -0.998026 -0.0628013 0
    outer loop
      vertex -1.47634 1.124 0
      vertex -1.5 1.5 0.699999
      vertex -1.5 1.5 0
    endloop
  endfacet
  facet normal -0.998026 -0.0628013 0
    outer loop
      vertex -1.5 1.5 0.699999
      vertex -1.47634 1.124 0
      vertex -1.47634 1.124 0.699999
    endloop
  endfacet
  facet normal -0.587883 0.808946 0
    outer loop
      vertex -0.10748 18.033 0
      vertex -0.412271 17.8115 0.699999
      vertex -0.10748 18.033 0.699999
    endloop
  endfacet
  facet normal -0.587883 0.808946 0
    outer loop
      vertex -0.412271 17.8115 0.699999
      vertex -0.10748 18.033 0
      vertex -0.412271 17.8115 0
    endloop
  endfacet
  facet normal 0.24865 0.968593 -0
    outer loop
      vertex 24.4271 18.3532 0
      vertex 24.0621 18.4469 0.699999
      vertex 24.4271 18.3532 0.699999
    endloop
  endfacet
  facet normal 0.24865 0.968593 0
    outer loop
      vertex 24.0621 18.4469 0.699999
      vertex 24.4271 18.3532 0
      vertex 24.0621 18.4469 0
    endloop
  endfacet
  facet normal 0.982336 0.187124 0
    outer loop
      vertex 26.4763 15.876 0.699999
      vertex 26.4058 16.2461 0
      vertex 26.4058 16.2461 0.699999
    endloop
  endfacet
  facet normal 0.982336 0.187124 0
    outer loop
      vertex 26.4058 16.2461 0
      vertex 26.4763 15.876 0.699999
      vertex 26.4763 15.876 0
    endloop
  endfacet
  facet normal 0.125361 -0.992111 0
    outer loop
      vertex 23.6884 -1.49408 0
      vertex 24.0621 -1.44686 0.699999
      vertex 23.6884 -1.49408 0.699999
    endloop
  endfacet
  facet normal 0.125361 -0.992111 0
    outer loop
      vertex 24.0621 -1.44686 0.699999
      vertex 23.6884 -1.49408 0
      vertex 24.0621 -1.44686 0
    endloop
  endfacet
  facet normal -0.481758 -0.876304 0
    outer loop
      vertex -0.10748 -1.03298 0
      vertex 0.222663 -1.21448 0.699999
      vertex -0.10748 -1.03298 0.699999
    endloop
  endfacet
  facet normal -0.481758 -0.876304 -0
    outer loop
      vertex 0.222663 -1.21448 0.699999
      vertex -0.10748 -1.03298 0
      vertex 0.222663 -1.21448 0
    endloop
  endfacet
  facet normal -0.368129 -0.929775 0
    outer loop
      vertex 0.222663 -1.21448 0
      vertex 0.572949 -1.35317 0.699999
      vertex 0.222663 -1.21448 0.699999
    endloop
  endfacet
  facet normal -0.368129 -0.929775 -0
    outer loop
      vertex 0.572949 -1.35317 0.699999
      vertex 0.222663 -1.21448 0
      vertex 0.572949 -1.35317 0
    endloop
  endfacet
  facet normal -0.684548 -0.728968 0
    outer loop
      vertex -0.686906 -0.55364 0
      vertex -0.412271 -0.81154 0.699999
      vertex -0.686906 -0.55364 0.699999
    endloop
  endfacet
  facet normal -0.684548 -0.728968 -0
    outer loop
      vertex -0.412271 -0.81154 0.699999
      vertex -0.686906 -0.55364 0
      vertex -0.412271 -0.81154 0
    endloop
  endfacet
  facet normal -0.951057 -0.309017 0
    outer loop
      vertex -1.28933 0.395627 0
      vertex -1.40575 0.753931 0.699999
      vertex -1.40575 0.753931 0
    endloop
  endfacet
  facet normal -0.951057 -0.309017 0
    outer loop
      vertex -1.40575 0.753931 0.699999
      vertex -1.28933 0.395627 0
      vertex -1.28933 0.395627 0.699999
    endloop
  endfacet
  facet normal -1 0 0
    outer loop
      vertex -1.5 1.5 0
      vertex -1.5 15.5 0.699999
      vertex -1.5 15.5 0
    endloop
  endfacet
  facet normal -1 -0 0
    outer loop
      vertex -1.5 15.5 0.699999
      vertex -1.5 1.5 0
      vertex -1.5 1.5 0.699999
    endloop
  endfacet
  facet normal 0 0 -1
    outer loop
      vertex 23.5742 0.614258 0
      vertex 24.7773 -1.21448 0
      vertex 24.4271 -1.35317 0
    endloop
  endfacet
  facet normal 0 0 -1
    outer loop
      vertex 24.7773 -1.21448 0
      vertex 24.3857 1.42578 0
      vertex 24.5 2 0
    endloop
  endfacet
  facet normal 0 0 -1
    outer loop
      vertex 23.5742 0.614258 0
      vertex 24.4271 -1.35317 0
      vertex 24.0621 -1.44686 0
    endloop
  endfacet
  facet normal 0 0 -1
    outer loop
      vertex 24.7773 -1.21448 0
      vertex 24.0605 0.939453 0
      vertex 24.3857 1.42578 0
    endloop
  endfacet
  facet normal 0 0 -1
    outer loop
      vertex 23.5742 0.614258 0
      vertex 24.0621 -1.44686 0
      vertex 23.6884 -1.49408 0
    endloop
  endfacet
  facet normal 0 0 -1
    outer loop
      vertex 24.7773 -1.21448 0
      vertex 23.5742 0.614258 0
      vertex 24.0605 0.939453 0
    endloop
  endfacet
  facet normal 0 0 -1
    outer loop
      vertex 23.6884 -1.49408 0
      vertex 23 0.5 0
      vertex 23.5742 0.614258 0
    endloop
  endfacet
  facet normal 0 0 -1
    outer loop
      vertex 23.6884 -1.49408 0
      vertex 22.4258 0.614258 0
      vertex 23 0.5 0
    endloop
  endfacet
  facet normal 0 0 -1
    outer loop
      vertex 23.6884 -1.49408 0
      vertex 21.9395 0.939453 0
      vertex 22.4258 0.614258 0
    endloop
  endfacet
  facet normal 0 0 -1
    outer loop
      vertex 21.6143 1.42578 0
      vertex 3.5 2 0
      vertex 21.5 2 0
    endloop
  endfacet
  facet normal 0 0 -1
    outer loop
      vertex 3.38574 1.42578 0
      vertex 21.6143 1.42578 0
      vertex 21.9395 0.939453 0
    endloop
  endfacet
  facet normal 0 0 -1
    outer loop
      vertex 3.06055 0.939453 0
      vertex 21.9395 0.939453 0
      vertex 23.6884 -1.49408 0
    endloop
  endfacet
  facet normal 0 0 -1
    outer loop
      vertex 21.6143 1.42578 0
      vertex 3.38574 1.42578 0
      vertex 3.5 2 0
    endloop
  endfacet
  facet normal 0 0 -1
    outer loop
      vertex 21.9395 0.939453 0
      vertex 3.06055 0.939453 0
      vertex 3.38574 1.42578 0
    endloop
  endfacet
  facet normal 0 0 -1
    outer loop
      vertex 1.31163 -1.49408 0
      vertex 3.06055 0.939453 0
      vertex 23.6884 -1.49408 0
    endloop
  endfacet
  facet normal 0 0 -1
    outer loop
      vertex 3.06055 0.939453 0
      vertex 1.31163 -1.49408 0
      vertex 2.57422 0.614258 0
    endloop
  endfacet
  facet normal 0 0 -1
    outer loop
      vertex 2.57422 0.614258 0
      vertex 1.31163 -1.49408 0
      vertex 2 0.5 0
    endloop
  endfacet
  facet normal 0 0 -1
    outer loop
      vertex 1.31163 -1.49408 0
      vertex 1.42578 0.614258 0
      vertex 2 0.5 0
    endloop
  endfacet
  facet normal 0 0 -1
    outer loop
      vertex 0.937857 -1.44686 0
      vertex 1.42578 0.614258 0
      vertex 1.31163 -1.49408 0
    endloop
  endfacet
  facet normal 0 0 -1
    outer loop
      vertex 0.572949 -1.35317 0
      vertex 1.42578 0.614258 0
      vertex 0.937857 -1.44686 0
    endloop
  endfacet
  facet normal 0 0 -1
    outer loop
      vertex 0.222663 -1.21448 0
      vertex 1.42578 0.614258 0
      vertex 0.572949 -1.35317 0
    endloop
  endfacet
  facet normal 0 0 -1
    outer loop
      vertex -0.10748 -1.03298 0
      vertex 1.42578 0.614258 0
      vertex 0.222663 -1.21448 0
    endloop
  endfacet
  facet normal -0 0 -1
    outer loop
      vertex 1.42578 0.614258 0
      vertex -0.10748 -1.03298 0
      vertex 0.939453 0.939453 0
    endloop
  endfacet
  facet normal 0 0 -1
    outer loop
      vertex -0.412271 -0.81154 0
      vertex 0.939453 0.939453 0
      vertex -0.10748 -1.03298 0
    endloop
  endfacet
  facet normal 0 0 -1
    outer loop
      vertex 24.5 2 0
      vertex 26.5 1.5 0
      vertex 26.4763 1.124 0
    endloop
  endfacet
  facet normal 0 0 -1
    outer loop
      vertex 26.5 1.5 0
      vertex 25 5 0
      vertex 26.5 15.5 0
    endloop
  endfacet
  facet normal 0 0 -1
    outer loop
      vertex 24.5 2 0
      vertex 26.4763 1.124 0
      vertex 26.4058 0.753931 0
    endloop
  endfacet
  facet normal 0 0 -1
    outer loop
      vertex 25 12 0
      vertex 26.5 15.5 0
      vertex 25 5 0
    endloop
  endfacet
  facet normal 0 0 -1
    outer loop
      vertex 24.5 2 0
      vertex 26.4058 0.753931 0
      vertex 26.2893 0.395627 0
    endloop
  endfacet
  facet normal 0 0 -1
    outer loop
      vertex 24.3857 14.3262 0
      vertex 26.5 15.5 0
      vertex 25 12 0
    endloop
  endfacet
  facet normal 0 0 -1
    outer loop
      vertex 24.5 2 0
      vertex 26.2893 0.395627 0
      vertex 26.1289 0.054739 0
    endloop
  endfacet
  facet normal 0 -0 -1
    outer loop
      vertex 24.5 14.9004 0
      vertex 26.5 15.5 0
      vertex 24.3857 14.3262 0
    endloop
  endfacet
  facet normal 0 0 -1
    outer loop
      vertex 24.5 2 0
      vertex 26.1289 0.054739 0
      vertex 25.9271 -0.263355 0
    endloop
  endfacet
  facet normal 0 0 -1
    outer loop
      vertex 24.3857 15.4736 0
      vertex 26.5 15.5 0
      vertex 24.5 14.9004 0
    endloop
  endfacet
  facet normal 0 0 -1
    outer loop
      vertex 24.5 2 0
      vertex 25.9271 -0.263355 0
      vertex 25.6869 -0.55364 0
    endloop
  endfacet
  facet normal -0 0 -1
    outer loop
      vertex 26.5 15.5 0
      vertex 24.3857 15.4736 0
      vertex 26.4763 15.876 0
    endloop
  endfacet
  facet normal 0 0 -1
    outer loop
      vertex 24.5 2 0
      vertex 25.6869 -0.55364 0
      vertex 25.4123 -0.81154 0
    endloop
  endfacet
  facet normal -0 0 -1
    outer loop
      vertex 26.4058 16.2461 0
      vertex 24.3857 15.4736 0
      vertex 26.2893 16.6044 0
    endloop
  endfacet
  facet normal 0 0 -1
    outer loop
      vertex 24.5 2 0
      vertex 25.4123 -0.81154 0
      vertex 25.1075 -1.03298 0
    endloop
  endfacet
  facet normal -0 0 -1
    outer loop
      vertex 26.2893 16.6044 0
      vertex 24.3857 15.4736 0
      vertex 26.1289 16.9453 0
    endloop
  endfacet
  facet normal 0 0 -1
    outer loop
      vertex 24.0605 15.9609 0
      vertex 26.1289 16.9453 0
      vertex 24.3857 15.4736 0
    endloop
  endfacet
  facet normal 0 0 -1
    outer loop
      vertex 24.5 2 0
      vertex 25.1075 -1.03298 0
      vertex 24.7773 -1.21448 0
    endloop
  endfacet
  facet normal 0 0 -1
    outer loop
      vertex 26.5 1.5 0
      vertex 24.5 2 0
      vertex 24.3857 2.57422 0
    endloop
  endfacet
  facet normal 0 0 -1
    outer loop
      vertex 26.5 1.5 0
      vertex 24.3857 2.57422 0
      vertex 25 5 0
    endloop
  endfacet
  facet normal 0 0 -1
    outer loop
      vertex 24.0605 3.06055 0
      vertex 25 5 0
      vertex 24.3857 2.57422 0
    endloop
  endfacet
  facet normal 0 0 -1
    outer loop
      vertex 23.5742 3.38574 0
      vertex 25 5 0
      vertex 24.0605 3.06055 0
    endloop
  endfacet
  facet normal 0 0 -1
    outer loop
      vertex 23 3.5 0
      vertex 25 5 0
      vertex 23.5742 3.38574 0
    endloop
  endfacet
  facet normal 0 0 -1
    outer loop
      vertex 22.4258 3.38574 0
      vertex 25 5 0
      vertex 23 3.5 0
    endloop
  endfacet
  facet normal 0 0 -1
    outer loop
      vertex 3.5 2 0
      vertex 21.6143 2.57422 0
      vertex 21.5 2 0
    endloop
  endfacet
  facet normal 0 0 -1
    outer loop
      vertex 3.38574 2.57422 0
      vertex 21.6143 2.57422 0
      vertex 3.5 2 0
    endloop
  endfacet
  facet normal 0 0 -1
    outer loop
      vertex 21.6143 2.57422 0
      vertex 3.38574 2.57422 0
      vertex 21.9395 3.06055 0
    endloop
  endfacet
  facet normal 0 0 -1
    outer loop
      vertex 3.06055 3.06055 0
      vertex 21.9395 3.06055 0
      vertex 3.38574 2.57422 0
    endloop
  endfacet
  facet normal 0 0 -1
    outer loop
      vertex 21.9395 3.06055 0
      vertex 3.06055 3.06055 0
      vertex 22.4258 3.38574 0
    endloop
  endfacet
  facet normal 0 0 -1
    outer loop
      vertex 2.57422 3.38574 0
      vertex 22.4258 3.38574 0
      vertex 3.06055 3.06055 0
    endloop
  endfacet
  facet normal 0 0 -1
    outer loop
      vertex 22.4258 3.38574 0
      vertex 2.57422 3.38574 0
      vertex 25 5 0
    endloop
  endfacet
  facet normal 0 0 -1
    outer loop
      vertex 0 5 0
      vertex 2.57422 3.38574 0
      vertex 2 3.5 0
    endloop
  endfacet
  facet normal 0 0 -1
    outer loop
      vertex 2.57422 3.38574 0
      vertex 0 5 0
      vertex 25 5 0
    endloop
  endfacet
  facet normal 0 0 -1
    outer loop
      vertex 1.42578 3.38574 0
      vertex 0 5 0
      vertex 2 3.5 0
    endloop
  endfacet
  facet normal 0 0 -1
    outer loop
      vertex 0.939453 3.06055 0
      vertex 0 5 0
      vertex 1.42578 3.38574 0
    endloop
  endfacet
  facet normal 0 0 -1
    outer loop
      vertex 0.614258 2.57422 0
      vertex 0 5 0
      vertex 0.939453 3.06055 0
    endloop
  endfacet
  facet normal 0 0 -1
    outer loop
      vertex -1.5 1.5 0
      vertex 0.614258 2.57422 0
      vertex 0.5 2 0
    endloop
  endfacet
  facet normal 0 0 -1
    outer loop
      vertex -0.686906 -0.55364 0
      vertex 0.939453 0.939453 0
      vertex -0.412271 -0.81154 0
    endloop
  endfacet
  facet normal -0 0 -1
    outer loop
      vertex 0.614258 2.57422 0
      vertex -1.5 1.5 0
      vertex 0 5 0
    endloop
  endfacet
  facet normal 0 0 -1
    outer loop
      vertex -0.927051 -0.263355 0
      vertex 0.939453 0.939453 0
      vertex -0.686906 -0.55364 0
    endloop
  endfacet
  facet normal -0 0 -1
    outer loop
      vertex 26.1289 16.9453 0
      vertex 24.0605 15.9609 0
      vertex 25.9271 17.2634 0
    endloop
  endfacet
  facet normal -0 0 -1
    outer loop
      vertex 25.9271 17.2634 0
      vertex 24.0605 15.9609 0
      vertex 25.6869 17.5536 0
    endloop
  endfacet
  facet normal -0 0 -1
    outer loop
      vertex 25.6869 17.5536 0
      vertex 24.0605 15.9609 0
      vertex 25.4123 17.8115 0
    endloop
  endfacet
  facet normal -0 0 -1
    outer loop
      vertex 26.4763 15.876 0
      vertex 24.3857 15.4736 0
      vertex 26.4058 16.2461 0
    endloop
  endfacet
  facet normal 0 0 -1
    outer loop
      vertex 25 12 0
      vertex 24.0605 13.8389 0
      vertex 24.3857 14.3262 0
    endloop
  endfacet
  facet normal 0 0 -1
    outer loop
      vertex 25 12 0
      vertex 23.5742 13.5146 0
      vertex 24.0605 13.8389 0
    endloop
  endfacet
  facet normal 0 0 -1
    outer loop
      vertex 25 12 0
      vertex 23 13.4004 0
      vertex 23.5742 13.5146 0
    endloop
  endfacet
  facet normal 0 0 -1
    outer loop
      vertex 25 12 0
      vertex 22.4258 13.5146 0
      vertex 23 13.4004 0
    endloop
  endfacet
  facet normal 0 0 -1
    outer loop
      vertex 21.6143 14.3262 0
      vertex 3.5 14.9004 0
      vertex 21.5 14.9004 0
    endloop
  endfacet
  facet normal 0 0 -1
    outer loop
      vertex 3.38574 14.3262 0
      vertex 21.6143 14.3262 0
      vertex 21.9395 13.8389 0
    endloop
  endfacet
  facet normal 0 0 -1
    outer loop
      vertex 3.06055 13.8389 0
      vertex 21.9395 13.8389 0
      vertex 22.4258 13.5146 0
    endloop
  endfacet
  facet normal 0 0 -1
    outer loop
      vertex 2.57422 13.5146 0
      vertex 22.4258 13.5146 0
      vertex 25 12 0
    endloop
  endfacet
  facet normal 0 0 -1
    outer loop
      vertex 21.6143 14.3262 0
      vertex 3.38574 14.3262 0
      vertex 3.5 14.9004 0
    endloop
  endfacet
  facet normal 0 0 -1
    outer loop
      vertex 21.9395 13.8389 0
      vertex 3.06055 13.8389 0
      vertex 3.38574 14.3262 0
    endloop
  endfacet
  facet normal 0 0 -1
    outer loop
      vertex 22.4258 13.5146 0
      vertex 2.57422 13.5146 0
      vertex 3.06055 13.8389 0
    endloop
  endfacet
  facet normal 0 0 -1
    outer loop
      vertex 0 12 0
      vertex 2.57422 13.5146 0
      vertex 25 12 0
    endloop
  endfacet
  facet normal 0 0 -1
    outer loop
      vertex 2.57422 13.5146 0
      vertex 0 12 0
      vertex 2 13.4004 0
    endloop
  endfacet
  facet normal 0 0 -1
    outer loop
      vertex 0 12 0
      vertex 1.42578 13.5146 0
      vertex 2 13.4004 0
    endloop
  endfacet
  facet normal 0 0 -1
    outer loop
      vertex 0 12 0
      vertex 0.939453 13.8389 0
      vertex 1.42578 13.5146 0
    endloop
  endfacet
  facet normal 0 0 -1
    outer loop
      vertex 0 12 0
      vertex 0.614258 14.3262 0
      vertex 0.939453 13.8389 0
    endloop
  endfacet
  facet normal 0 0 -1
    outer loop
      vertex -1.5 15.5 0
      vertex 0.614258 14.3262 0
      vertex 0 12 0
    endloop
  endfacet
  facet normal 0 0 -1
    outer loop
      vertex 0.614258 14.3262 0
      vertex -1.5 15.5 0
      vertex 0.5 14.9004 0
    endloop
  endfacet
  facet normal 0 -0 -1
    outer loop
      vertex -1.47634 15.876 0
      vertex 0.5 14.9004 0
      vertex -1.5 15.5 0
    endloop
  endfacet
  facet normal -0 0 -1
    outer loop
      vertex 0 5 0
      vertex -1.5 1.5 0
      vertex 0 12 0
    endloop
  endfacet
  facet normal 0 0 -1
    outer loop
      vertex -1.12892 0.054739 0
      vertex 0.939453 0.939453 0
      vertex -0.927051 -0.263355 0
    endloop
  endfacet
  facet normal 0 0 -1
    outer loop
      vertex -1.5 15.5 0
      vertex 0 12 0
      vertex -1.5 1.5 0
    endloop
  endfacet
  facet normal -0 0 -1
    outer loop
      vertex 0.939453 0.939453 0
      vertex -1.12892 0.054739 0
      vertex 0.614258 1.42578 0
    endloop
  endfacet
  facet normal 0 0 -1
    outer loop
      vertex 0.5 14.9004 0
      vertex -0.10748 18.033 0
      vertex 0.222663 18.2145 0
    endloop
  endfacet
  facet normal 0 0 -1
    outer loop
      vertex -1.28933 0.395627 0
      vertex 0.614258 1.42578 0
      vertex -1.12892 0.054739 0
    endloop
  endfacet
  facet normal 0 0 -1
    outer loop
      vertex 0.5 14.9004 0
      vertex -0.412271 17.8115 0
      vertex -0.10748 18.033 0
    endloop
  endfacet
  facet normal 0 0 -1
    outer loop
      vertex -1.40575 0.753931 0
      vertex 0.614258 1.42578 0
      vertex -1.28933 0.395627 0
    endloop
  endfacet
  facet normal 0 0 -1
    outer loop
      vertex 0.5 14.9004 0
      vertex -0.686906 17.5536 0
      vertex -0.412271 17.8115 0
    endloop
  endfacet
  facet normal 0 0 -1
    outer loop
      vertex -1.47634 1.124 0
      vertex 0.614258 1.42578 0
      vertex -1.40575 0.753931 0
    endloop
  endfacet
  facet normal 0 0 -1
    outer loop
      vertex 0.5 14.9004 0
      vertex -0.927051 17.2634 0
      vertex -0.686906 17.5536 0
    endloop
  endfacet
  facet normal 0 0 -1
    outer loop
      vertex -1.5 1.5 0
      vertex 0.614258 1.42578 0
      vertex -1.47634 1.124 0
    endloop
  endfacet
  facet normal 0 0 -1
    outer loop
      vertex 0.5 14.9004 0
      vertex -1.12892 16.9453 0
      vertex -0.927051 17.2634 0
    endloop
  endfacet
  facet normal 0 0 -1
    outer loop
      vertex 0.614258 1.42578 0
      vertex -1.5 1.5 0
      vertex 0.5 2 0
    endloop
  endfacet
  facet normal 0 0 -1
    outer loop
      vertex 0.5 14.9004 0
      vertex -1.28933 16.6044 0
      vertex -1.12892 16.9453 0
    endloop
  endfacet
  facet normal 0 0 -1
    outer loop
      vertex 0.5 14.9004 0
      vertex -1.40575 16.2461 0
      vertex -1.28933 16.6044 0
    endloop
  endfacet
  facet normal 0 0 -1
    outer loop
      vertex 0.5 14.9004 0
      vertex -1.47634 15.876 0
      vertex -1.40575 16.2461 0
    endloop
  endfacet
  facet normal -0 0 -1
    outer loop
      vertex 25.4123 17.8115 0
      vertex 24.0605 15.9609 0
      vertex 25.1075 18.033 0
    endloop
  endfacet
  facet normal 0 0 -1
    outer loop
      vertex 23.5742 16.2861 0
      vertex 25.1075 18.033 0
      vertex 24.0605 15.9609 0
    endloop
  endfacet
  facet normal -0 0 -1
    outer loop
      vertex 25.1075 18.033 0
      vertex 23.5742 16.2861 0
      vertex 24.7773 18.2145 0
    endloop
  endfacet
  facet normal -0 0 -1
    outer loop
      vertex 24.7773 18.2145 0
      vertex 23.5742 16.2861 0
      vertex 24.4271 18.3532 0
    endloop
  endfacet
  facet normal -0 0 -1
    outer loop
      vertex 24.4271 18.3532 0
      vertex 23.5742 16.2861 0
      vertex 24.0621 18.4469 0
    endloop
  endfacet
  facet normal -0 0 -1
    outer loop
      vertex 24.0621 18.4469 0
      vertex 23.5742 16.2861 0
      vertex 23.6884 18.4941 0
    endloop
  endfacet
  facet normal 0 0 -1
    outer loop
      vertex 23 16.4004 0
      vertex 23.6884 18.4941 0
      vertex 23.5742 16.2861 0
    endloop
  endfacet
  facet normal 0 0 -1
    outer loop
      vertex 22.4258 16.2861 0
      vertex 23.6884 18.4941 0
      vertex 23 16.4004 0
    endloop
  endfacet
  facet normal 0 0 -1
    outer loop
      vertex 21.9395 15.9609 0
      vertex 23.6884 18.4941 0
      vertex 22.4258 16.2861 0
    endloop
  endfacet
  facet normal 0 0 -1
    outer loop
      vertex 3.5 14.9004 0
      vertex 21.6143 15.4736 0
      vertex 21.5 14.9004 0
    endloop
  endfacet
  facet normal 0 0 -1
    outer loop
      vertex 3.38574 15.4736 0
      vertex 21.6143 15.4736 0
      vertex 3.5 14.9004 0
    endloop
  endfacet
  facet normal 0 0 -1
    outer loop
      vertex 21.6143 15.4736 0
      vertex 3.38574 15.4736 0
      vertex 21.9395 15.9609 0
    endloop
  endfacet
  facet normal 0 0 -1
    outer loop
      vertex 3.06055 15.9609 0
      vertex 21.9395 15.9609 0
      vertex 3.38574 15.4736 0
    endloop
  endfacet
  facet normal 0 0 -1
    outer loop
      vertex 21.9395 15.9609 0
      vertex 3.06055 15.9609 0
      vertex 23.6884 18.4941 0
    endloop
  endfacet
  facet normal 0 0 -1
    outer loop
      vertex 1.31163 18.4941 0
      vertex 3.06055 15.9609 0
      vertex 2.57422 16.2861 0
    endloop
  endfacet
  facet normal 0 0 -1
    outer loop
      vertex 1.31163 18.4941 0
      vertex 2.57422 16.2861 0
      vertex 2 16.4004 0
    endloop
  endfacet
  facet normal 0 0 -1
    outer loop
      vertex 3.06055 15.9609 0
      vertex 1.31163 18.4941 0
      vertex 23.6884 18.4941 0
    endloop
  endfacet
  facet normal 0 0 -1
    outer loop
      vertex 1.42578 16.2861 0
      vertex 1.31163 18.4941 0
      vertex 2 16.4004 0
    endloop
  endfacet
  facet normal 0 0 -1
    outer loop
      vertex 0.222663 18.2145 0
      vertex 1.42578 16.2861 0
      vertex 0.939453 15.9609 0
    endloop
  endfacet
  facet normal 0 0 -1
    outer loop
      vertex 1.42578 16.2861 0
      vertex 0.937857 18.4469 0
      vertex 1.31163 18.4941 0
    endloop
  endfacet
  facet normal 0 0 -1
    outer loop
      vertex 0.222663 18.2145 0
      vertex 0.939453 15.9609 0
      vertex 0.614258 15.4736 0
    endloop
  endfacet
  facet normal 0 0 -1
    outer loop
      vertex 1.42578 16.2861 0
      vertex 0.572949 18.3532 0
      vertex 0.937857 18.4469 0
    endloop
  endfacet
  facet normal 0 0 -1
    outer loop
      vertex 0.222663 18.2145 0
      vertex 0.614258 15.4736 0
      vertex 0.5 14.9004 0
    endloop
  endfacet
  facet normal 0 0 -1
    outer loop
      vertex 1.42578 16.2861 0
      vertex 0.222663 18.2145 0
      vertex 0.572949 18.3532 0
    endloop
  endfacet
  facet normal -0.951056 0.30902 0
    outer loop
      vertex -1.40575 16.2461 0
      vertex -1.28933 16.6044 0.699999
      vertex -1.28933 16.6044 0
    endloop
  endfacet
  facet normal -0.951056 0.30902 0
    outer loop
      vertex -1.28933 16.6044 0.699999
      vertex -1.40575 16.2461 0
      vertex -1.40575 16.2461 0.699999
    endloop
  endfacet
  facet normal -0.248709 0.968578 0
    outer loop
      vertex 0.937857 18.4469 0
      vertex 0.572949 18.3532 0.699999
      vertex 0.937857 18.4469 0.699999
    endloop
  endfacet
  facet normal -0.248709 0.968578 0
    outer loop
      vertex 0.572949 18.3532 0.699999
      vertex 0.937857 18.4469 0
      vertex 0.572949 18.3532 0
    endloop
  endfacet
  facet normal 0.125309 0.992118 -0
    outer loop
      vertex 24.0621 18.4469 0
      vertex 23.6884 18.4941 0.699999
      vertex 24.0621 18.4469 0.699999
    endloop
  endfacet
  facet normal 0.125309 0.992118 0
    outer loop
      vertex 23.6884 18.4941 0.699999
      vertex 24.0621 18.4469 0
      vertex 23.6884 18.4941 0
    endloop
  endfacet
  facet normal 0.481695 0.876339 -0
    outer loop
      vertex 25.1075 18.033 0
      vertex 24.7773 18.2145 0.699999
      vertex 25.1075 18.033 0.699999
    endloop
  endfacet
  facet normal 0.481695 0.876339 0
    outer loop
      vertex 24.7773 18.2145 0.699999
      vertex 25.1075 18.033 0
      vertex 24.7773 18.2145 0
    endloop
  endfacet
  facet normal 0.770349 0.637622 0
    outer loop
      vertex 25.9271 17.2634 0.699999
      vertex 25.6869 17.5536 0
      vertex 25.6869 17.5536 0.699999
    endloop
  endfacet
  facet normal 0.770349 0.637622 0
    outer loop
      vertex 25.6869 17.5536 0
      vertex 25.9271 17.2634 0.699999
      vertex 25.9271 17.2634 0
    endloop
  endfacet
  facet normal 0.684594 -0.728924 0
    outer loop
      vertex 25.4123 -0.81154 0
      vertex 25.6869 -0.55364 0.699999
      vertex 25.4123 -0.81154 0.699999
    endloop
  endfacet
  facet normal 0.684594 -0.728924 0
    outer loop
      vertex 25.6869 -0.55364 0.699999
      vertex 25.4123 -0.81154 0
      vertex 25.6869 -0.55364 0
    endloop
  endfacet
  facet normal 0.587768 -0.80903 0
    outer loop
      vertex 25.1075 -1.03298 0
      vertex 25.4123 -0.81154 0.699999
      vertex 25.1075 -1.03298 0.699999
    endloop
  endfacet
  facet normal 0.587768 -0.80903 0
    outer loop
      vertex 25.4123 -0.81154 0.699999
      vertex 25.1075 -1.03298 0
      vertex 25.4123 -0.81154 0
    endloop
  endfacet
  facet normal 0.998019 -0.0629071 0
    outer loop
      vertex 26.4763 1.124 0.699999
      vertex 26.5 1.5 0
      vertex 26.5 1.5 0.699999
    endloop
  endfacet
  facet normal 0.998019 -0.0629071 0
    outer loop
      vertex 26.5 1.5 0
      vertex 26.4763 1.124 0.699999
      vertex 26.4763 1.124 0
    endloop
  endfacet
  facet normal 0.904837 -0.425758 0
    outer loop
      vertex 26.1289 0.054739 0.699999
      vertex 26.2893 0.395627 0
      vertex 26.2893 0.395627 0.699999
    endloop
  endfacet
  facet normal 0.904837 -0.425758 0
    outer loop
      vertex 26.2893 0.395627 0
      vertex 26.1289 0.054739 0.699999
      vertex 26.1289 0.054739 0
    endloop
  endfacet
  facet normal 0.950994 -0.309209 0
    outer loop
      vertex 26.2893 0.395627 0.699999
      vertex 26.4058 0.753931 0
      vertex 26.4058 0.753931 0.699999
    endloop
  endfacet
  facet normal 0.950994 -0.309209 0
    outer loop
      vertex 26.4058 0.753931 0
      vertex 26.2893 0.395627 0.699999
      vertex 26.2893 0.395627 0
    endloop
  endfacet
  facet normal 0.770441 -0.637511 0
    outer loop
      vertex 25.6869 -0.55364 0.699999
      vertex 25.9271 -0.263355 0
      vertex 25.9271 -0.263355 0.699999
    endloop
  endfacet
  facet normal 0.770441 -0.637511 0
    outer loop
      vertex 25.9271 -0.263355 0
      vertex 25.6869 -0.55364 0.699999
      vertex 25.6869 -0.55364 0
    endloop
  endfacet
  facet normal 0.84441 -0.535697 0
    outer loop
      vertex 25.9271 -0.263355 0.699999
      vertex 26.1289 0.054739 0
      vertex 26.1289 0.054739 0.699999
    endloop
  endfacet
  facet normal 0.84441 -0.535697 0
    outer loop
      vertex 26.1289 0.054739 0
      vertex 25.9271 -0.263355 0.699999
      vertex 25.9271 -0.263355 0
    endloop
  endfacet
  facet normal 0.368207 -0.929744 0
    outer loop
      vertex 24.4271 -1.35317 0
      vertex 24.7773 -1.21448 0.699999
      vertex 24.4271 -1.35317 0.699999
    endloop
  endfacet
  facet normal 0.368207 -0.929744 0
    outer loop
      vertex 24.7773 -1.21448 0.699999
      vertex 24.4271 -1.35317 0
      vertex 24.7773 -1.21448 0
    endloop
  endfacet
  facet normal -0.125337 -0.992114 0
    outer loop
      vertex 0.937857 -1.44686 0
      vertex 1.31163 -1.49408 0.699999
      vertex 0.937857 -1.44686 0.699999
    endloop
  endfacet
  facet normal -0.125337 -0.992114 -0
    outer loop
      vertex 1.31163 -1.49408 0.699999
      vertex 0.937857 -1.44686 0
      vertex 1.31163 -1.49408 0
    endloop
  endfacet
  facet normal -0.904827 -0.42578 0
    outer loop
      vertex -1.12892 0.054739 0
      vertex -1.28933 0.395627 0.699999
      vertex -1.28933 0.395627 0
    endloop
  endfacet
  facet normal -0.904827 -0.42578 0
    outer loop
      vertex -1.28933 0.395627 0.699999
      vertex -1.12892 0.054739 0
      vertex -1.12892 0.054739 0.699999
    endloop
  endfacet
  facet normal -0.125285 0.992121 0
    outer loop
      vertex 1.31163 18.4941 0
      vertex 0.937857 18.4469 0.699999
      vertex 1.31163 18.4941 0.699999
    endloop
  endfacet
  facet normal -0.125285 0.992121 0
    outer loop
      vertex 0.937857 18.4469 0.699999
      vertex 1.31163 18.4941 0
      vertex 0.937857 18.4469 0
    endloop
  endfacet
  facet normal -0.684548 0.728968 0
    outer loop
      vertex -0.412271 17.8115 0
      vertex -0.686906 17.5536 0.699999
      vertex -0.412271 17.8115 0.699999
    endloop
  endfacet
  facet normal -0.684548 0.728968 0
    outer loop
      vertex -0.686906 17.5536 0.699999
      vertex -0.412271 17.8115 0
      vertex -0.686906 17.5536 0
    endloop
  endfacet
  facet normal -0.998026 0.0628013 0
    outer loop
      vertex -1.5 15.5 0
      vertex -1.47634 15.876 0.699999
      vertex -1.47634 15.876 0
    endloop
  endfacet
  facet normal -0.998026 0.0628013 0
    outer loop
      vertex -1.47634 15.876 0.699999
      vertex -1.5 15.5 0
      vertex -1.5 15.5 0.699999
    endloop
  endfacet
  facet normal -0.982292 0.187355 0
    outer loop
      vertex -1.47634 15.876 0
      vertex -1.40575 16.2461 0.699999
      vertex -1.40575 16.2461 0
    endloop
  endfacet
  facet normal -0.982292 0.187355 0
    outer loop
      vertex -1.40575 16.2461 0.699999
      vertex -1.47634 15.876 0
      vertex -1.47634 15.876 0.699999
    endloop
  endfacet
  facet normal -0.904833 0.425768 0
    outer loop
      vertex -1.28933 16.6044 0
      vertex -1.12892 16.9453 0.699999
      vertex -1.12892 16.9453 0
    endloop
  endfacet
  facet normal -0.904833 0.425768 0
    outer loop
      vertex -1.12892 16.9453 0.699999
      vertex -1.28933 16.6044 0
      vertex -1.28933 16.6044 0.699999
    endloop
  endfacet
  facet normal 0.36823 0.929735 -0
    outer loop
      vertex 24.7773 18.2145 0
      vertex 24.4271 18.3532 0.699999
      vertex 24.7773 18.2145 0.699999
    endloop
  endfacet
  facet normal 0.36823 0.929735 0
    outer loop
      vertex 24.4271 18.3532 0.699999
      vertex 24.7773 18.2145 0
      vertex 24.4271 18.3532 0
    endloop
  endfacet
  facet normal 0.587872 0.808954 -0
    outer loop
      vertex 25.4123 17.8115 0
      vertex 25.1075 18.033 0.699999
      vertex 25.4123 17.8115 0.699999
    endloop
  endfacet
  facet normal 0.587872 0.808954 0
    outer loop
      vertex 25.1075 18.033 0.699999
      vertex 25.4123 17.8115 0
      vertex 25.1075 18.033 0
    endloop
  endfacet
  facet normal 0.844415 0.53569 0
    outer loop
      vertex 26.1289 16.9453 0.699999
      vertex 25.9271 17.2634 0
      vertex 25.9271 17.2634 0.699999
    endloop
  endfacet
  facet normal 0.844415 0.53569 0
    outer loop
      vertex 25.9271 17.2634 0
      vertex 26.1289 16.9453 0.699999
      vertex 26.1289 16.9453 0
    endloop
  endfacet
  facet normal 0.904843 0.425746 0
    outer loop
      vertex 26.2893 16.6044 0.699999
      vertex 26.1289 16.9453 0
      vertex 26.1289 16.9453 0.699999
    endloop
  endfacet
  facet normal 0.904843 0.425746 0
    outer loop
      vertex 26.1289 16.9453 0
      vertex 26.2893 16.6044 0.699999
      vertex 26.2893 16.6044 0
    endloop
  endfacet
  facet normal 0.950993 0.309212 0
    outer loop
      vertex 26.4058 16.2461 0.699999
      vertex 26.2893 16.6044 0
      vertex 26.2893 16.6044 0.699999
    endloop
  endfacet
  facet normal 0.950993 0.309212 0
    outer loop
      vertex 26.2893 16.6044 0
      vertex 26.4058 16.2461 0.699999
      vertex 26.4058 16.2461 0
    endloop
  endfacet
  facet normal 0.982333 -0.187139 0
    outer loop
      vertex 26.4058 0.753931 0.699999
      vertex 26.4763 1.124 0
      vertex 26.4763 1.124 0.699999
    endloop
  endfacet
  facet normal 0.982333 -0.187139 0
    outer loop
      vertex 26.4763 1.124 0
      vertex 26.4058 0.753931 0.699999
      vertex 26.4058 0.753931 0
    endloop
  endfacet
  facet normal 0.248625 -0.9686 0
    outer loop
      vertex 24.0621 -1.44686 0
      vertex 24.4271 -1.35317 0.699999
      vertex 24.0621 -1.44686 0.699999
    endloop
  endfacet
  facet normal 0.248625 -0.9686 0
    outer loop
      vertex 24.4271 -1.35317 0.699999
      vertex 24.0621 -1.44686 0
      vertex 24.4271 -1.35317 0
    endloop
  endfacet
  facet normal -0.587779 -0.809022 0
    outer loop
      vertex -0.412271 -0.81154 0
      vertex -0.10748 -1.03298 0.699999
      vertex -0.412271 -0.81154 0.699999
    endloop
  endfacet
  facet normal -0.587779 -0.809022 -0
    outer loop
      vertex -0.10748 -1.03298 0.699999
      vertex -0.412271 -0.81154 0
      vertex -0.10748 -1.03298 0
    endloop
  endfacet
  facet normal -0.770513 -0.637425 0
    outer loop
      vertex -0.686906 -0.55364 0
      vertex -0.927051 -0.263355 0.699999
      vertex -0.927051 -0.263355 0
    endloop
  endfacet
  facet normal -0.770513 -0.637425 0
    outer loop
      vertex -0.927051 -0.263355 0.699999
      vertex -0.686906 -0.55364 0
      vertex -0.686906 -0.55364 0.699999
    endloop
  endfacet
  facet normal -0.844327 -0.535828 0
    outer loop
      vertex -0.927051 -0.263355 0
      vertex -1.12892 0.054739 0.699999
      vertex -1.12892 0.054739 0
    endloop
  endfacet
  facet normal -0.844327 -0.535828 0
    outer loop
      vertex -1.12892 0.054739 0.699999
      vertex -0.927051 -0.263355 0
      vertex -0.927051 -0.263355 0.699999
    endloop
  endfacet
  facet normal -0.481758 0.876304 0
    outer loop
      vertex 0.222663 18.2145 0
      vertex -0.10748 18.033 0.699999
      vertex 0.222663 18.2145 0.699999
    endloop
  endfacet
  facet normal -0.481758 0.876304 0
    outer loop
      vertex -0.10748 18.033 0.699999
      vertex 0.222663 18.2145 0
      vertex -0.10748 18.033 0
    endloop
  endfacet
  facet normal -0.844332 0.53582 0
    outer loop
      vertex -1.12892 16.9453 0
      vertex -0.927051 17.2634 0.699999
      vertex -0.927051 17.2634 0
    endloop
  endfacet
  facet normal -0.844332 0.53582 0
    outer loop
      vertex -0.927051 17.2634 0.699999
      vertex -1.12892 16.9453 0
      vertex -1.12892 16.9453 0.699999
    endloop
  endfacet
  facet normal -0.770421 0.637535 0
    outer loop
      vertex -0.927051 17.2634 0
      vertex -0.686906 17.5536 0.699999
      vertex -0.686906 17.5536 0
    endloop
  endfacet
  facet normal -0.770421 0.637535 0
    outer loop
      vertex -0.686906 17.5536 0.699999
      vertex -0.927051 17.2634 0
      vertex -0.927051 17.2634 0.699999
    endloop
  endfacet
  facet normal -0.368152 0.929766 0
    outer loop
      vertex 0.572949 18.3532 0
      vertex 0.222663 18.2145 0.699999
      vertex 0.572949 18.3532 0.699999
    endloop
  endfacet
  facet normal -0.368152 0.929766 0
    outer loop
      vertex 0.222663 18.2145 0.699999
      vertex 0.572949 18.3532 0
      vertex 0.222663 18.2145 0
    endloop
  endfacet
  facet normal -0.554819 0.831971 0
    outer loop
      vertex 24.0605 13.8389 0
      vertex 23.5742 13.5146 0.699999
      vertex 24.0605 13.8389 0.699999
    endloop
  endfacet
  facet normal -0.554819 0.831971 0
    outer loop
      vertex 23.5742 13.5146 0.699999
      vertex 24.0605 13.8389 0
      vertex 23.5742 13.5146 0
    endloop
  endfacet
  facet normal -0.831788 0.555094 0
    outer loop
      vertex 24.0605 13.8389 0
      vertex 24.3857 14.3262 0.699999
      vertex 24.3857 14.3262 0
    endloop
  endfacet
  facet normal -0.831788 0.555094 0
    outer loop
      vertex 24.3857 14.3262 0.699999
      vertex 24.0605 13.8389 0
      vertex 24.0605 13.8389 0.699999
    endloop
  endfacet
  facet normal -0.980758 0.195229 0
    outer loop
      vertex 24.3857 14.3262 0
      vertex 24.5 14.9004 0.699999
      vertex 24.5 14.9004 0
    endloop
  endfacet
  facet normal -0.980758 0.195229 0
    outer loop
      vertex 24.5 14.9004 0.699999
      vertex 24.3857 14.3262 0
      vertex 24.3857 14.3262 0.699999
    endloop
  endfacet
  facet normal -0.980692 -0.195557 0
    outer loop
      vertex 24.5 14.9004 0
      vertex 24.3857 15.4736 0.699999
      vertex 24.3857 15.4736 0
    endloop
  endfacet
  facet normal -0.980692 -0.195557 0
    outer loop
      vertex 24.3857 15.4736 0.699999
      vertex 24.5 14.9004 0
      vertex 24.5 14.9004 0.699999
    endloop
  endfacet
  facet normal -0.831788 -0.555094 0
    outer loop
      vertex 24.3857 15.4736 0
      vertex 24.0605 15.9609 0.699999
      vertex 24.0605 15.9609 0
    endloop
  endfacet
  facet normal -0.831788 -0.555094 0
    outer loop
      vertex 24.0605 15.9609 0.699999
      vertex 24.3857 15.4736 0
      vertex 24.3857 15.4736 0.699999
    endloop
  endfacet
  facet normal -0.555883 -0.831261 0
    outer loop
      vertex 23.5742 16.2861 0
      vertex 24.0605 15.9609 0.699999
      vertex 23.5742 16.2861 0.699999
    endloop
  endfacet
  facet normal -0.555883 -0.831261 -0
    outer loop
      vertex 24.0605 15.9609 0.699999
      vertex 23.5742 16.2861 0
      vertex 24.0605 15.9609 0
    endloop
  endfacet
  facet normal -0.195229 -0.980758 0
    outer loop
      vertex 23 16.4004 0
      vertex 23.5742 16.2861 0.699999
      vertex 23 16.4004 0.699999
    endloop
  endfacet
  facet normal -0.195229 -0.980758 -0
    outer loop
      vertex 23.5742 16.2861 0.699999
      vertex 23 16.4004 0
      vertex 23.5742 16.2861 0
    endloop
  endfacet
  facet normal 0.195229 -0.980758 0
    outer loop
      vertex 22.4258 16.2861 0
      vertex 23 16.4004 0.699999
      vertex 22.4258 16.2861 0.699999
    endloop
  endfacet
  facet normal 0.195229 -0.980758 0
    outer loop
      vertex 23 16.4004 0.699999
      vertex 22.4258 16.2861 0
      vertex 23 16.4004 0
    endloop
  endfacet
  facet normal 0.555883 -0.831261 0
    outer loop
      vertex 21.9395 15.9609 0
      vertex 22.4258 16.2861 0.699999
      vertex 21.9395 15.9609 0.699999
    endloop
  endfacet
  facet normal 0.555883 -0.831261 0
    outer loop
      vertex 22.4258 16.2861 0.699999
      vertex 21.9395 15.9609 0
      vertex 22.4258 16.2861 0
    endloop
  endfacet
  facet normal 0.831788 -0.555094 0
    outer loop
      vertex 21.6143 15.4736 0.699999
      vertex 21.9395 15.9609 0
      vertex 21.9395 15.9609 0.699999
    endloop
  endfacet
  facet normal 0.831788 -0.555094 0
    outer loop
      vertex 21.9395 15.9609 0
      vertex 21.6143 15.4736 0.699999
      vertex 21.6143 15.4736 0
    endloop
  endfacet
  facet normal 0.980692 -0.195557 0
    outer loop
      vertex 21.5 14.9004 0.699999
      vertex 21.6143 15.4736 0
      vertex 21.6143 15.4736 0.699999
    endloop
  endfacet
  facet normal 0.980692 -0.195557 0
    outer loop
      vertex 21.6143 15.4736 0
      vertex 21.5 14.9004 0.699999
      vertex 21.5 14.9004 0
    endloop
  endfacet
  facet normal 0.980758 0.195229 0
    outer loop
      vertex 21.6143 14.3262 0.699999
      vertex 21.5 14.9004 0
      vertex 21.5 14.9004 0.699999
    endloop
  endfacet
  facet normal 0.980758 0.195229 0
    outer loop
      vertex 21.5 14.9004 0
      vertex 21.6143 14.3262 0.699999
      vertex 21.6143 14.3262 0
    endloop
  endfacet
  facet normal 0.831788 0.555094 0
    outer loop
      vertex 21.9395 13.8389 0.699999
      vertex 21.6143 14.3262 0
      vertex 21.6143 14.3262 0.699999
    endloop
  endfacet
  facet normal 0.831788 0.555094 0
    outer loop
      vertex 21.6143 14.3262 0
      vertex 21.9395 13.8389 0.699999
      vertex 21.9395 13.8389 0
    endloop
  endfacet
  facet normal 0.554819 0.831971 -0
    outer loop
      vertex 22.4258 13.5146 0
      vertex 21.9395 13.8389 0.699999
      vertex 22.4258 13.5146 0.699999
    endloop
  endfacet
  facet normal 0.554819 0.831971 0
    outer loop
      vertex 21.9395 13.8389 0.699999
      vertex 22.4258 13.5146 0
      vertex 21.9395 13.8389 0
    endloop
  endfacet
  facet normal 0.195065 0.98079 -0
    outer loop
      vertex 23 13.4004 0
      vertex 22.4258 13.5146 0.699999
      vertex 23 13.4004 0.699999
    endloop
  endfacet
  facet normal 0.195065 0.98079 0
    outer loop
      vertex 22.4258 13.5146 0.699999
      vertex 23 13.4004 0
      vertex 22.4258 13.5146 0
    endloop
  endfacet
  facet normal -0.195065 0.98079 0
    outer loop
      vertex 23.5742 13.5146 0
      vertex 23 13.4004 0.699999
      vertex 23.5742 13.5146 0.699999
    endloop
  endfacet
  facet normal -0.195065 0.98079 0
    outer loop
      vertex 23 13.4004 0.699999
      vertex 23.5742 13.5146 0
      vertex 23 13.4004 0
    endloop
  endfacet
  facet normal -0.554795 0.831987 0
    outer loop
      vertex 3.06055 13.8389 0
      vertex 2.57422 13.5146 0.699999
      vertex 3.06055 13.8389 0.699999
    endloop
  endfacet
  facet normal -0.554795 0.831987 0
    outer loop
      vertex 2.57422 13.5146 0.699999
      vertex 3.06055 13.8389 0
      vertex 2.57422 13.5146 0
    endloop
  endfacet
  facet normal -0.831795 0.555082 0
    outer loop
      vertex 3.06055 13.8389 0
      vertex 3.38574 14.3262 0.699999
      vertex 3.38574 14.3262 0
    endloop
  endfacet
  facet normal -0.831795 0.555082 0
    outer loop
      vertex 3.38574 14.3262 0.699999
      vertex 3.06055 13.8389 0
      vertex 3.06055 13.8389 0.699999
    endloop
  endfacet
  facet normal -0.980771 0.195163 0
    outer loop
      vertex 3.38574 14.3262 0
      vertex 3.5 14.9004 0.699999
      vertex 3.5 14.9004 0
    endloop
  endfacet
  facet normal -0.980771 0.195163 0
    outer loop
      vertex 3.5 14.9004 0.699999
      vertex 3.38574 14.3262 0
      vertex 3.38574 14.3262 0.699999
    endloop
  endfacet
  facet normal -0.980706 -0.195491 0
    outer loop
      vertex 3.5 14.9004 0
      vertex 3.38574 15.4736 0.699999
      vertex 3.38574 15.4736 0
    endloop
  endfacet
  facet normal -0.980706 -0.195491 0
    outer loop
      vertex 3.38574 15.4736 0.699999
      vertex 3.5 14.9004 0
      vertex 3.5 14.9004 0.699999
    endloop
  endfacet
  facet normal -0.831795 -0.555082 0
    outer loop
      vertex 3.38574 15.4736 0
      vertex 3.06055 15.9609 0.699999
      vertex 3.06055 15.9609 0
    endloop
  endfacet
  facet normal -0.831795 -0.555082 0
    outer loop
      vertex 3.06055 15.9609 0.699999
      vertex 3.38574 15.4736 0
      vertex 3.38574 15.4736 0.699999
    endloop
  endfacet
  facet normal -0.555859 -0.831276 0
    outer loop
      vertex 2.57422 16.2861 0
      vertex 3.06055 15.9609 0.699999
      vertex 2.57422 16.2861 0.699999
    endloop
  endfacet
  facet normal -0.555859 -0.831276 -0
    outer loop
      vertex 3.06055 15.9609 0.699999
      vertex 2.57422 16.2861 0
      vertex 3.06055 15.9609 0
    endloop
  endfacet
  facet normal -0.195223 -0.980759 0
    outer loop
      vertex 2 16.4004 0
      vertex 2.57422 16.2861 0.699999
      vertex 2 16.4004 0.699999
    endloop
  endfacet
  facet normal -0.195223 -0.980759 -0
    outer loop
      vertex 2.57422 16.2861 0.699999
      vertex 2 16.4004 0
      vertex 2.57422 16.2861 0
    endloop
  endfacet
  facet normal 0.195223 -0.980759 0
    outer loop
      vertex 1.42578 16.2861 0
      vertex 2 16.4004 0.699999
      vertex 1.42578 16.2861 0.699999
    endloop
  endfacet
  facet normal 0.195223 -0.980759 0
    outer loop
      vertex 2 16.4004 0.699999
      vertex 1.42578 16.2861 0
      vertex 2 16.4004 0
    endloop
  endfacet
  facet normal 0.555862 -0.831275 0
    outer loop
      vertex 0.939453 15.9609 0
      vertex 1.42578 16.2861 0.699999
      vertex 0.939453 15.9609 0.699999
    endloop
  endfacet
  facet normal 0.555862 -0.831275 0
    outer loop
      vertex 1.42578 16.2861 0.699999
      vertex 0.939453 15.9609 0
      vertex 1.42578 16.2861 0
    endloop
  endfacet
  facet normal 0.831792 -0.555088 0
    outer loop
      vertex 0.614258 15.4736 0.699999
      vertex 0.939453 15.9609 0
      vertex 0.939453 15.9609 0.699999
    endloop
  endfacet
  facet normal 0.831792 -0.555088 0
    outer loop
      vertex 0.939453 15.9609 0
      vertex 0.614258 15.4736 0.699999
      vertex 0.614258 15.4736 0
    endloop
  endfacet
  facet normal 0.980706 -0.195488 0
    outer loop
      vertex 0.5 14.9004 0.699999
      vertex 0.614258 15.4736 0
      vertex 0.614258 15.4736 0.699999
    endloop
  endfacet
  facet normal 0.980706 -0.195488 0
    outer loop
      vertex 0.614258 15.4736 0
      vertex 0.5 14.9004 0.699999
      vertex 0.5 14.9004 0
    endloop
  endfacet
  facet normal 0.980771 0.19516 0
    outer loop
      vertex 0.614258 14.3262 0.699999
      vertex 0.5 14.9004 0
      vertex 0.5 14.9004 0.699999
    endloop
  endfacet
  facet normal 0.980771 0.19516 0
    outer loop
      vertex 0.5 14.9004 0
      vertex 0.614258 14.3262 0.699999
      vertex 0.614258 14.3262 0
    endloop
  endfacet
  facet normal 0.831792 0.555088 0
    outer loop
      vertex 0.939453 13.8389 0.699999
      vertex 0.614258 14.3262 0
      vertex 0.614258 14.3262 0.699999
    endloop
  endfacet
  facet normal 0.831792 0.555088 0
    outer loop
      vertex 0.614258 14.3262 0
      vertex 0.939453 13.8389 0.699999
      vertex 0.939453 13.8389 0
    endloop
  endfacet
  facet normal 0.554797 0.831986 -0
    outer loop
      vertex 1.42578 13.5146 0
      vertex 0.939453 13.8389 0.699999
      vertex 1.42578 13.5146 0.699999
    endloop
  endfacet
  facet normal 0.554797 0.831986 0
    outer loop
      vertex 0.939453 13.8389 0.699999
      vertex 1.42578 13.5146 0
      vertex 0.939453 13.8389 0
    endloop
  endfacet
  facet normal 0.195058 0.980792 -0
    outer loop
      vertex 2 13.4004 0
      vertex 1.42578 13.5146 0.699999
      vertex 2 13.4004 0.699999
    endloop
  endfacet
  facet normal 0.195058 0.980792 0
    outer loop
      vertex 1.42578 13.5146 0.699999
      vertex 2 13.4004 0
      vertex 1.42578 13.5146 0
    endloop
  endfacet
  facet normal -0.195058 0.980792 0
    outer loop
      vertex 2.57422 13.5146 0
      vertex 2 13.4004 0.699999
      vertex 2.57422 13.5146 0.699999
    endloop
  endfacet
  facet normal -0.195058 0.980792 0
    outer loop
      vertex 2 13.4004 0.699999
      vertex 2.57422 13.5146 0
      vertex 2 13.4004 0
    endloop
  endfacet
  facet normal -0.555853 0.83128 0
    outer loop
      vertex 3.06055 0.939453 0
      vertex 2.57422 0.614258 0.699999
      vertex 3.06055 0.939453 0.699999
    endloop
  endfacet
  facet normal -0.555853 0.83128 0
    outer loop
      vertex 2.57422 0.614258 0.699999
      vertex 3.06055 0.939453 0
      vertex 2.57422 0.614258 0
    endloop
  endfacet
  facet normal -0.831283 0.55585 0
    outer loop
      vertex 3.06055 0.939453 0
      vertex 3.38574 1.42578 0.699999
      vertex 3.38574 1.42578 0
    endloop
  endfacet
  facet normal -0.831283 0.55585 0
    outer loop
      vertex 3.38574 1.42578 0.699999
      vertex 3.06055 0.939453 0
      vertex 3.06055 0.939453 0.699999
    endloop
  endfacet
  facet normal -0.980772 0.195157 0
    outer loop
      vertex 3.38574 1.42578 0
      vertex 3.5 2 0.699999
      vertex 3.5 2 0
    endloop
  endfacet
  facet normal -0.980772 0.195157 0
    outer loop
      vertex 3.5 2 0.699999
      vertex 3.38574 1.42578 0
      vertex 3.38574 1.42578 0.699999
    endloop
  endfacet
  facet normal -0.980772 -0.195157 0
    outer loop
      vertex 3.5 2 0
      vertex 3.38574 2.57422 0.699999
      vertex 3.38574 2.57422 0
    endloop
  endfacet
  facet normal -0.980772 -0.195157 0
    outer loop
      vertex 3.38574 2.57422 0.699999
      vertex 3.5 2 0
      vertex 3.5 2 0.699999
    endloop
  endfacet
  facet normal -0.831284 -0.555848 0
    outer loop
      vertex 3.38574 2.57422 0
      vertex 3.06055 3.06055 0.699999
      vertex 3.06055 3.06055 0
    endloop
  endfacet
  facet normal -0.831284 -0.555848 0
    outer loop
      vertex 3.06055 3.06055 0.699999
      vertex 3.38574 2.57422 0
      vertex 3.38574 2.57422 0.699999
    endloop
  endfacet
  facet normal -0.555848 -0.831284 0
    outer loop
      vertex 2.57422 3.38574 0
      vertex 3.06055 3.06055 0.699999
      vertex 2.57422 3.38574 0.699999
    endloop
  endfacet
  facet normal -0.555848 -0.831284 -0
    outer loop
      vertex 3.06055 3.06055 0.699999
      vertex 2.57422 3.38574 0
      vertex 3.06055 3.06055 0
    endloop
  endfacet
  facet normal -0.195157 -0.980772 0
    outer loop
      vertex 2 3.5 0
      vertex 2.57422 3.38574 0.699999
      vertex 2 3.5 0.699999
    endloop
  endfacet
  facet normal -0.195157 -0.980772 -0
    outer loop
      vertex 2.57422 3.38574 0.699999
      vertex 2 3.5 0
      vertex 2.57422 3.38574 0
    endloop
  endfacet
  facet normal 0.195157 -0.980772 0
    outer loop
      vertex 1.42578 3.38574 0
      vertex 2 3.5 0.699999
      vertex 1.42578 3.38574 0.699999
    endloop
  endfacet
  facet normal 0.195157 -0.980772 0
    outer loop
      vertex 2 3.5 0.699999
      vertex 1.42578 3.38574 0
      vertex 2 3.5 0
    endloop
  endfacet
  facet normal 0.55585 -0.831283 0
    outer loop
      vertex 0.939453 3.06055 0
      vertex 1.42578 3.38574 0.699999
      vertex 0.939453 3.06055 0.699999
    endloop
  endfacet
  facet normal 0.55585 -0.831283 0
    outer loop
      vertex 1.42578 3.38574 0.699999
      vertex 0.939453 3.06055 0
      vertex 1.42578 3.38574 0
    endloop
  endfacet
  facet normal 0.83128 -0.555853 0
    outer loop
      vertex 0.614258 2.57422 0.699999
      vertex 0.939453 3.06055 0
      vertex 0.939453 3.06055 0.699999
    endloop
  endfacet
  facet normal 0.83128 -0.555853 0
    outer loop
      vertex 0.939453 3.06055 0
      vertex 0.614258 2.57422 0.699999
      vertex 0.614258 2.57422 0
    endloop
  endfacet
  facet normal 0.980773 -0.195154 0
    outer loop
      vertex 0.5 2 0.699999
      vertex 0.614258 2.57422 0
      vertex 0.614258 2.57422 0.699999
    endloop
  endfacet
  facet normal 0.980773 -0.195154 0
    outer loop
      vertex 0.614258 2.57422 0
      vertex 0.5 2 0.699999
      vertex 0.5 2 0
    endloop
  endfacet
  facet normal 0.980773 0.195154 0
    outer loop
      vertex 0.614258 1.42578 0.699999
      vertex 0.5 2 0
      vertex 0.5 2 0.699999
    endloop
  endfacet
  facet normal 0.980773 0.195154 0
    outer loop
      vertex 0.5 2 0
      vertex 0.614258 1.42578 0.699999
      vertex 0.614258 1.42578 0
    endloop
  endfacet
  facet normal 0.831279 0.555856 0
    outer loop
      vertex 0.939453 0.939453 0.699999
      vertex 0.614258 1.42578 0
      vertex 0.614258 1.42578 0.699999
    endloop
  endfacet
  facet normal 0.831279 0.555856 0
    outer loop
      vertex 0.614258 1.42578 0
      vertex 0.939453 0.939453 0.699999
      vertex 0.939453 0.939453 0
    endloop
  endfacet
  facet normal 0.555856 0.831279 -0
    outer loop
      vertex 1.42578 0.614258 0
      vertex 0.939453 0.939453 0.699999
      vertex 1.42578 0.614258 0.699999
    endloop
  endfacet
  facet normal 0.555856 0.831279 0
    outer loop
      vertex 0.939453 0.939453 0.699999
      vertex 1.42578 0.614258 0
      vertex 0.939453 0.939453 0
    endloop
  endfacet
  facet normal 0.195154 0.980773 -0
    outer loop
      vertex 2 0.5 0
      vertex 1.42578 0.614258 0.699999
      vertex 2 0.5 0.699999
    endloop
  endfacet
  facet normal 0.195154 0.980773 0
    outer loop
      vertex 1.42578 0.614258 0.699999
      vertex 2 0.5 0
      vertex 1.42578 0.614258 0
    endloop
  endfacet
  facet normal -0.195154 0.980773 0
    outer loop
      vertex 2.57422 0.614258 0
      vertex 2 0.5 0.699999
      vertex 2.57422 0.614258 0.699999
    endloop
  endfacet
  facet normal -0.195154 0.980773 0
    outer loop
      vertex 2 0.5 0.699999
      vertex 2.57422 0.614258 0
      vertex 2 0.5 0
    endloop
  endfacet
  facet normal -0.555877 0.831264 0
    outer loop
      vertex 24.0605 0.939453 0
      vertex 23.5742 0.614258 0.699999
      vertex 24.0605 0.939453 0.699999
    endloop
  endfacet
  facet normal -0.555877 0.831264 0
    outer loop
      vertex 23.5742 0.614258 0.699999
      vertex 24.0605 0.939453 0
      vertex 23.5742 0.614258 0
    endloop
  endfacet
  facet normal -0.831275 0.555862 0
    outer loop
      vertex 24.0605 0.939453 0
      vertex 24.3857 1.42578 0.699999
      vertex 24.3857 1.42578 0
    endloop
  endfacet
  facet normal -0.831275 0.555862 0
    outer loop
      vertex 24.3857 1.42578 0.699999
      vertex 24.0605 0.939453 0
      vertex 24.0605 0.939453 0.699999
    endloop
  endfacet
  facet normal -0.980759 0.195223 0
    outer loop
      vertex 24.3857 1.42578 0
      vertex 24.5 2 0.699999
      vertex 24.5 2 0
    endloop
  endfacet
  facet normal -0.980759 0.195223 0
    outer loop
      vertex 24.5 2 0.699999
      vertex 24.3857 1.42578 0
      vertex 24.3857 1.42578 0.699999
    endloop
  endfacet
  facet normal -0.980759 -0.195223 0
    outer loop
      vertex 24.5 2 0
      vertex 24.3857 2.57422 0.699999
      vertex 24.3857 2.57422 0
    endloop
  endfacet
  facet normal -0.980759 -0.195223 0
    outer loop
      vertex 24.3857 2.57422 0.699999
      vertex 24.5 2 0
      vertex 24.5 2 0.699999
    endloop
  endfacet
  facet normal -0.831276 -0.555859 0
    outer loop
      vertex 24.3857 2.57422 0
      vertex 24.0605 3.06055 0.699999
      vertex 24.0605 3.06055 0
    endloop
  endfacet
  facet normal -0.831276 -0.555859 0
    outer loop
      vertex 24.0605 3.06055 0.699999
      vertex 24.3857 2.57422 0
      vertex 24.3857 2.57422 0.699999
    endloop
  endfacet
  facet normal -0.555871 -0.831268 0
    outer loop
      vertex 23.5742 3.38574 0
      vertex 24.0605 3.06055 0.699999
      vertex 23.5742 3.38574 0.699999
    endloop
  endfacet
  facet normal -0.555871 -0.831268 -0
    outer loop
      vertex 24.0605 3.06055 0.699999
      vertex 23.5742 3.38574 0
      vertex 24.0605 3.06055 0
    endloop
  endfacet
  facet normal -0.195163 -0.980771 0
    outer loop
      vertex 23 3.5 0
      vertex 23.5742 3.38574 0.699999
      vertex 23 3.5 0.699999
    endloop
  endfacet
  facet normal -0.195163 -0.980771 -0
    outer loop
      vertex 23.5742 3.38574 0.699999
      vertex 23 3.5 0
      vertex 23.5742 3.38574 0
    endloop
  endfacet
  facet normal 0.195163 -0.980771 0
    outer loop
      vertex 22.4258 3.38574 0
      vertex 23 3.5 0.699999
      vertex 22.4258 3.38574 0.699999
    endloop
  endfacet
  facet normal 0.195163 -0.980771 0
    outer loop
      vertex 23 3.5 0.699999
      vertex 22.4258 3.38574 0
      vertex 23 3.5 0
    endloop
  endfacet
  facet normal 0.555871 -0.831268 0
    outer loop
      vertex 21.9395 3.06055 0
      vertex 22.4258 3.38574 0.699999
      vertex 21.9395 3.06055 0.699999
    endloop
  endfacet
  facet normal 0.555871 -0.831268 0
    outer loop
      vertex 22.4258 3.38574 0.699999
      vertex 21.9395 3.06055 0
      vertex 22.4258 3.38574 0
    endloop
  endfacet
  facet normal 0.831276 -0.555859 0
    outer loop
      vertex 21.6143 2.57422 0.699999
      vertex 21.9395 3.06055 0
      vertex 21.9395 3.06055 0.699999
    endloop
  endfacet
  facet normal 0.831276 -0.555859 0
    outer loop
      vertex 21.9395 3.06055 0
      vertex 21.6143 2.57422 0.699999
      vertex 21.6143 2.57422 0
    endloop
  endfacet
  facet normal 0.980759 -0.195223 0
    outer loop
      vertex 21.5 2 0.699999
      vertex 21.6143 2.57422 0
      vertex 21.6143 2.57422 0.699999
    endloop
  endfacet
  facet normal 0.980759 -0.195223 0
    outer loop
      vertex 21.6143 2.57422 0
      vertex 21.5 2 0.699999
      vertex 21.5 2 0
    endloop
  endfacet
  facet normal 0.980759 0.195223 0
    outer loop
      vertex 21.6143 1.42578 0.699999
      vertex 21.5 2 0
      vertex 21.5 2 0.699999
    endloop
  endfacet
  facet normal 0.980759 0.195223 0
    outer loop
      vertex 21.5 2 0
      vertex 21.6143 1.42578 0.699999
      vertex 21.6143 1.42578 0
    endloop
  endfacet
  facet normal 0.831275 0.555862 0
    outer loop
      vertex 21.9395 0.939453 0.699999
      vertex 21.6143 1.42578 0
      vertex 21.6143 1.42578 0.699999
    endloop
  endfacet
  facet normal 0.831275 0.555862 0
    outer loop
      vertex 21.6143 1.42578 0
      vertex 21.9395 0.939453 0.699999
      vertex 21.9395 0.939453 0
    endloop
  endfacet
  facet normal 0.555877 0.831264 -0
    outer loop
      vertex 22.4258 0.614258 0
      vertex 21.9395 0.939453 0.699999
      vertex 22.4258 0.614258 0.699999
    endloop
  endfacet
  facet normal 0.555877 0.831264 0
    outer loop
      vertex 21.9395 0.939453 0.699999
      vertex 22.4258 0.614258 0
      vertex 21.9395 0.939453 0
    endloop
  endfacet
  facet normal 0.19516 0.980771 -0
    outer loop
      vertex 23 0.5 0
      vertex 22.4258 0.614258 0.699999
      vertex 23 0.5 0.699999
    endloop
  endfacet
  facet normal 0.19516 0.980771 0
    outer loop
      vertex 22.4258 0.614258 0.699999
      vertex 23 0.5 0
      vertex 22.4258 0.614258 0
    endloop
  endfacet
  facet normal -0.19516 0.980771 0
    outer loop
      vertex 23.5742 0.614258 0
      vertex 23 0.5 0.699999
      vertex 23.5742 0.614258 0.699999
    endloop
  endfacet
  facet normal -0.19516 0.980771 0
    outer loop
      vertex 23 0.5 0.699999
      vertex 23.5742 0.614258 0
      vertex 23 0.5 0
    endloop
  endfacet
  facet normal 1 -0 0
    outer loop
      vertex 0 5 0.699999
      vertex 0 12 0
      vertex 0 12 0.699999
    endloop
  endfacet
  facet normal 1 0 0
    outer loop
      vertex 0 12 0
      vertex 0 5 0.699999
      vertex 0 5 0
    endloop
  endfacet
  facet normal -1 0 0
    outer loop
      vertex 25 5 0
      vertex 25 12 0.699999
      vertex 25 12 0
    endloop
  endfacet
  facet normal -1 -0 0
    outer loop
      vertex 25 12 0.699999
      vertex 25 5 0
      vertex 25 5 0.699999
    endloop
  endfacet
  facet normal 0 1 -0
    outer loop
      vertex 25 5 0
      vertex 0 5 0.699999
      vertex 25 5 0.699999
    endloop
  endfacet
  facet normal 0 1 0
    outer loop
      vertex 0 5 0.699999
      vertex 25 5 0
      vertex 0 5 0
    endloop
  endfacet
  facet normal 0 -1 0
    outer loop
      vertex 0 12 0
      vertex 25 12 0.699999
      vertex 0 12 0.699999
    endloop
  endfacet
  facet normal 0 -1 -0
    outer loop
      vertex 25 12 0.699999
      vertex 0 12 0
      vertex 25 12 0
    endloop
  endfacet
endsolid OpenSCAD_Model
