solid OpenSCAD_Model
  facet normal 0.994522 -0 0.104526
    outer loop
      vertex 4.89074 -3 1.03956
      vertex 5 3 0
      vertex 4.89074 3 1.03956
    endloop
  endfacet
  facet normal 0.994522 0 0.104526
    outer loop
      vertex 5 3 0
      vertex 4.89074 -3 1.03956
      vertex 5 -3 0
    endloop
  endfacet
  facet normal -0.994522 0 0.104526
    outer loop
      vertex -5 -3 0
      vertex -4.89074 3 1.03956
      vertex -5 3 0
    endloop
  endfacet
  facet normal -0.994522 0 0.104526
    outer loop
      vertex -4.89074 3 1.03956
      vertex -5 -3 0
      vertex -4.89074 -3 1.03956
    endloop
  endfacet
  facet normal -0 0 1
    outer loop
      vertex -0.522642 3 4.97261
      vertex 0.522642 0 4.97261
      vertex 0.522642 3 4.97261
    endloop
  endfacet
  facet normal 0 0 1
    outer loop
      vertex 0.522642 0 4.97261
      vertex -0.522642 3 4.97261
      vertex -0.522642 0 4.97261
    endloop
  endfacet
  facet normal -0 0 1
    outer loop
      vertex -0.522642 -1 4.97261
      vertex 0.522642 -3 4.97261
      vertex 0.522642 -1 4.97261
    endloop
  endfacet
  facet normal 0 0 1
    outer loop
      vertex 0.522642 -3 4.97261
      vertex -0.522642 -1 4.97261
      vertex -0.522642 -3 4.97261
    endloop
  endfacet
  facet normal 0.587785 0 0.809017
    outer loop
      vertex 2.5 3 4.33013
      vertex 3.2 0 3.82155
      vertex 3.2 3 3.82155
    endloop
  endfacet
  facet normal 0.587785 0 0.809017
    outer loop
      vertex 3.2 0 3.82155
      vertex 2.5 3 4.33013
      vertex 2.5 0 4.33013
    endloop
  endfacet
  facet normal 0.587785 0 0.809017
    outer loop
      vertex 2.5 -1 4.33013
      vertex 3.2 -3 3.82155
      vertex 3.2 -1 3.82155
    endloop
  endfacet
  facet normal 0.587785 0 0.809017
    outer loop
      vertex 3.2 -3 3.82155
      vertex 2.5 -1 4.33013
      vertex 2.5 -3 4.33013
    endloop
  endfacet
  facet normal 0.40673 0 0.913548
    outer loop
      vertex 1.54508 3 4.75528
      vertex 2.5 0 4.33013
      vertex 2.5 3 4.33013
    endloop
  endfacet
  facet normal 0.40673 0 0.913548
    outer loop
      vertex 2.5 0 4.33013
      vertex 1.54508 3 4.75528
      vertex 1.54508 0 4.75528
    endloop
  endfacet
  facet normal 0.40673 0 0.913548
    outer loop
      vertex 1.54508 -1 4.75528
      vertex 2.5 -3 4.33013
      vertex 2.5 -1 4.33013
    endloop
  endfacet
  facet normal 0.40673 0 0.913548
    outer loop
      vertex 2.5 -3 4.33013
      vertex 1.54508 -1 4.75528
      vertex 1.54508 -3 4.75528
    endloop
  endfacet
  facet normal -0.587785 0 0.809017
    outer loop
      vertex -3.2 -1 3.82155
      vertex -2.5 -3 4.33013
      vertex -2.5 -1 4.33013
    endloop
  endfacet
  facet normal -0.587785 0 0.809017
    outer loop
      vertex -2.5 -3 4.33013
      vertex -3.2 -1 3.82155
      vertex -3.2 -3 3.82155
    endloop
  endfacet
  facet normal -0.587785 0 0.809017
    outer loop
      vertex -3.2 3 3.82155
      vertex -2.5 0 4.33013
      vertex -2.5 3 4.33013
    endloop
  endfacet
  facet normal -0.587785 0 0.809017
    outer loop
      vertex -2.5 0 4.33013
      vertex -3.2 3 3.82155
      vertex -3.2 0 3.82155
    endloop
  endfacet
  facet normal -0.207915 0 0.978147
    outer loop
      vertex -1.54508 3 4.75528
      vertex -0.522642 0 4.97261
      vertex -0.522642 3 4.97261
    endloop
  endfacet
  facet normal -0.207915 0 0.978147
    outer loop
      vertex -0.522642 0 4.97261
      vertex -1.54508 3 4.75528
      vertex -1.54508 0 4.75528
    endloop
  endfacet
  facet normal -0.207915 0 0.978147
    outer loop
      vertex -1.54508 -1 4.75528
      vertex -0.522642 -3 4.97261
      vertex -0.522642 -1 4.97261
    endloop
  endfacet
  facet normal -0.207915 0 0.978147
    outer loop
      vertex -0.522642 -3 4.97261
      vertex -1.54508 -1 4.75528
      vertex -1.54508 -3 4.75528
    endloop
  endfacet
  facet normal 0 1 0
    outer loop
      vertex 0.240415 3 2.2874
      vertex 0.522642 3 4.97261
      vertex 1.54508 3 4.75528
    endloop
  endfacet
  facet normal 0 1 0
    outer loop
      vertex 0.522642 3 4.97261
      vertex 0.240415 3 2.2874
      vertex -0.522642 3 4.97261
    endloop
  endfacet
  facet normal 0 1 0
    outer loop
      vertex 0.710738 3 2.18743
      vertex 1.54508 3 4.75528
      vertex 2.5 3 4.33013
    endloop
  endfacet
  facet normal 0 1 -0
    outer loop
      vertex -0.240415 3 2.2874
      vertex -0.522642 3 4.97261
      vertex 0.240415 3 2.2874
    endloop
  endfacet
  facet normal 0 1 0
    outer loop
      vertex 1.15 3 1.99186
      vertex 2.5 3 4.33013
      vertex 3.2 3 3.82155
    endloop
  endfacet
  facet normal 0 1 0
    outer loop
      vertex -0.522642 3 4.97261
      vertex -0.240415 3 2.2874
      vertex -1.54508 3 4.75528
    endloop
  endfacet
  facet normal 0 1 0
    outer loop
      vertex 1.54508 3 81.2447
      vertex 3.2 3 82.1785
      vertex 2.5 3 81.6699
    endloop
  endfacet
  facet normal 0 1 0
    outer loop
      vertex 3.2 3 82.1785
      vertex 1.54508 3 81.2447
      vertex -3.2 3 82.1785
    endloop
  endfacet
  facet normal 0 1 -0
    outer loop
      vertex -1.54508 3 81.2447
      vertex -3.2 3 82.1785
      vertex 1.54508 3 81.2447
    endloop
  endfacet
  facet normal 0 1 0
    outer loop
      vertex -3.2 3 82.1785
      vertex -1.54508 3 81.2447
      vertex -2.5 3 81.6699
    endloop
  endfacet
  facet normal 0 1 -0
    outer loop
      vertex 0.522642 3 81.0274
      vertex -1.54508 3 81.2447
      vertex 1.54508 3 81.2447
    endloop
  endfacet
  facet normal 0 1 0
    outer loop
      vertex -1.54508 3 81.2447
      vertex 0.522642 3 81.0274
      vertex -0.522642 3 81.0274
    endloop
  endfacet
  facet normal 0 1 0
    outer loop
      vertex 3.2 3 82.1785
      vertex 3.99009 3 83
      vertex 4 3 83
    endloop
  endfacet
  facet normal 0 1 0
    outer loop
      vertex 3.99009 3 83
      vertex 3.2 3 82.1785
      vertex -3.99009 3 83
    endloop
  endfacet
  facet normal 0 1 -0
    outer loop
      vertex -3.2 3 82.1785
      vertex -3.99009 3 83
      vertex 3.2 3 82.1785
    endloop
  endfacet
  facet normal 0 1 0
    outer loop
      vertex 4 3 83
      vertex 3.2 3 3.82155
      vertex 3.2 3 82.1785
    endloop
  endfacet
  facet normal 0 1 -0
    outer loop
      vertex 3.99009 3 3
      vertex 3.2 3 3.82155
      vertex 4 3 3
    endloop
  endfacet
  facet normal 0 1 -0
    outer loop
      vertex 4 3 3
      vertex 3.2 3 3.82155
      vertex 4 3 83
    endloop
  endfacet
  facet normal 0 1 0
    outer loop
      vertex -3.99009 3 83
      vertex -3.2 3 82.1785
      vertex -4 3 83
    endloop
  endfacet
  facet normal 0 1 -0
    outer loop
      vertex -3.2 3 3.82155
      vertex -4 3 83
      vertex -3.2 3 82.1785
    endloop
  endfacet
  facet normal 0 1 0
    outer loop
      vertex 1.539 3 1.70923
      vertex 3.2 3 3.82155
      vertex 3.99009 3 3
    endloop
  endfacet
  facet normal 0 1 -0
    outer loop
      vertex -0.710738 3 2.18743
      vertex -1.54508 3 4.75528
      vertex -0.240415 3 2.2874
    endloop
  endfacet
  facet normal 0 1 0
    outer loop
      vertex -4 3 3
      vertex -3.2 3 3.82155
      vertex -3.99009 3 3
    endloop
  endfacet
  facet normal 0 1 0
    outer loop
      vertex -3.2 3 3.82155
      vertex -4 3 3
      vertex -4 3 83
    endloop
  endfacet
  facet normal 0 1 0
    outer loop
      vertex 1.86074 3 1.35191
      vertex 3.99009 3 3
      vertex 4.04508 3 2.93893
    endloop
  endfacet
  facet normal 0 1 0
    outer loop
      vertex -1.54508 3 4.75528
      vertex -0.710738 3 2.18743
      vertex -2.5 3 4.33013
    endloop
  endfacet
  facet normal 0 1 -0
    outer loop
      vertex -1.15 3 1.99186
      vertex -2.5 3 4.33013
      vertex -0.710738 3 2.18743
    endloop
  endfacet
  facet normal 0 1 0
    outer loop
      vertex 1.54508 3 4.75528
      vertex 0.710738 3 2.18743
      vertex 0.240415 3 2.2874
    endloop
  endfacet
  facet normal 0 1 0
    outer loop
      vertex 1.86074 3 1.35191
      vertex 4.04508 3 2.93893
      vertex 4.56773 3 2.03368
    endloop
  endfacet
  facet normal 0 1 0
    outer loop
      vertex 2.5 3 4.33013
      vertex 1.15 3 1.99186
      vertex 0.710738 3 2.18743
    endloop
  endfacet
  facet normal 0 1 0
    outer loop
      vertex 3.2 3 3.82155
      vertex 1.539 3 1.70923
      vertex 1.15 3 1.99186
    endloop
  endfacet
  facet normal 0 1 0
    outer loop
      vertex 3.99009 3 3
      vertex 1.86074 3 1.35191
      vertex 1.539 3 1.70923
    endloop
  endfacet
  facet normal 0 1 0
    outer loop
      vertex 2.10115 3 0.935493
      vertex 4.56773 3 2.03368
      vertex 4.89074 3 1.03956
    endloop
  endfacet
  facet normal 0 1 0
    outer loop
      vertex 4.56773 3 2.03368
      vertex 2.10115 3 0.935493
      vertex 1.86074 3 1.35191
    endloop
  endfacet
  facet normal 0 1 0
    outer loop
      vertex 4.89074 3 1.03956
      vertex 2.24974 3 0.478196
      vertex 2.10115 3 0.935493
    endloop
  endfacet
  facet normal 0 1 0
    outer loop
      vertex 5 3 0
      vertex 2.24974 3 0.478196
      vertex 4.89074 3 1.03956
    endloop
  endfacet
  facet normal 0 1 0
    outer loop
      vertex 5 3 0
      vertex 2.3 3 0
      vertex 2.24974 3 0.478196
    endloop
  endfacet
  facet normal 0 1 0
    outer loop
      vertex 5 3 0
      vertex 2.24974 3 -0.478196
      vertex 2.3 3 0
    endloop
  endfacet
  facet normal 0 1 -0
    outer loop
      vertex 4.89074 3 -1.03956
      vertex 2.24974 3 -0.478196
      vertex 5 3 0
    endloop
  endfacet
  facet normal 0 1 0
    outer loop
      vertex 2.24974 3 -0.478196
      vertex 4.89074 3 -1.03956
      vertex 2.10115 3 -0.935493
    endloop
  endfacet
  facet normal 0 1 -0
    outer loop
      vertex 4.56773 3 -2.03368
      vertex 2.10115 3 -0.935493
      vertex 4.89074 3 -1.03956
    endloop
  endfacet
  facet normal 0 1 0
    outer loop
      vertex 2.10115 3 -0.935493
      vertex 4.56773 3 -2.03368
      vertex 1.86074 3 -1.35191
    endloop
  endfacet
  facet normal 0 1 -0
    outer loop
      vertex 4.04508 3 -2.93893
      vertex 1.86074 3 -1.35191
      vertex 4.56773 3 -2.03368
    endloop
  endfacet
  facet normal 0 1 0
    outer loop
      vertex 1.86074 3 -1.35191
      vertex 4.04508 3 -2.93893
      vertex 1.539 3 -1.70923
    endloop
  endfacet
  facet normal 0 1 -0
    outer loop
      vertex 3.34565 3 -3.71572
      vertex 1.539 3 -1.70923
      vertex 4.04508 3 -2.93893
    endloop
  endfacet
  facet normal 0 1 0
    outer loop
      vertex 1.539 3 -1.70923
      vertex 3.34565 3 -3.71572
      vertex 1.15 3 -1.99186
    endloop
  endfacet
  facet normal 0 1 0
    outer loop
      vertex 1.15 3 -1.99186
      vertex 2.5 3 -4.33013
      vertex 0.710738 3 -2.18743
    endloop
  endfacet
  facet normal 0 1 -0
    outer loop
      vertex 2.5 3 -4.33013
      vertex 1.15 3 -1.99186
      vertex 3.34565 3 -3.71572
    endloop
  endfacet
  facet normal 0 1 0
    outer loop
      vertex -2.5 3 4.33013
      vertex -1.15 3 1.99186
      vertex -3.2 3 3.82155
    endloop
  endfacet
  facet normal 0 1 -0
    outer loop
      vertex -1.539 3 1.70923
      vertex -3.2 3 3.82155
      vertex -1.15 3 1.99186
    endloop
  endfacet
  facet normal 0 1 0
    outer loop
      vertex -3.2 3 3.82155
      vertex -1.539 3 1.70923
      vertex -3.99009 3 3
    endloop
  endfacet
  facet normal 0 1 -0
    outer loop
      vertex -1.86074 3 1.35191
      vertex -3.99009 3 3
      vertex -1.539 3 1.70923
    endloop
  endfacet
  facet normal 0 1 0
    outer loop
      vertex -3.99009 3 3
      vertex -1.86074 3 1.35191
      vertex -4.04508 3 2.93893
    endloop
  endfacet
  facet normal 0 1 0
    outer loop
      vertex -4.04508 3 2.93893
      vertex -1.86074 3 1.35191
      vertex -4.56773 3 2.03368
    endloop
  endfacet
  facet normal 0 1 -0
    outer loop
      vertex -2.10115 3 0.935493
      vertex -4.56773 3 2.03368
      vertex -1.86074 3 1.35191
    endloop
  endfacet
  facet normal 0 1 0
    outer loop
      vertex -4.56773 3 2.03368
      vertex -2.10115 3 0.935493
      vertex -4.89074 3 1.03956
    endloop
  endfacet
  facet normal 0 1 -0
    outer loop
      vertex -2.24974 3 0.478196
      vertex -4.89074 3 1.03956
      vertex -2.10115 3 0.935493
    endloop
  endfacet
  facet normal 0 1 -0
    outer loop
      vertex -2.3 3 0
      vertex -4.89074 3 1.03956
      vertex -2.24974 3 0.478196
    endloop
  endfacet
  facet normal 0 1 0
    outer loop
      vertex -2.3 3 0
      vertex -5 3 0
      vertex -4.89074 3 1.03956
    endloop
  endfacet
  facet normal 0 1 0
    outer loop
      vertex -2.24974 3 -0.478196
      vertex -5 3 0
      vertex -2.3 3 0
    endloop
  endfacet
  facet normal 0 1 0
    outer loop
      vertex -4.89074 3 -1.03956
      vertex -2.24974 3 -0.478196
      vertex -2.10115 3 -0.935493
    endloop
  endfacet
  facet normal 0 1 0
    outer loop
      vertex -2.24974 3 -0.478196
      vertex -4.89074 3 -1.03956
      vertex -5 3 0
    endloop
  endfacet
  facet normal 0 1 0
    outer loop
      vertex -4.56773 3 -2.03368
      vertex -2.10115 3 -0.935493
      vertex -1.86074 3 -1.35191
    endloop
  endfacet
  facet normal 0 1 0
    outer loop
      vertex -4.04508 3 -2.93893
      vertex -1.86074 3 -1.35191
      vertex -1.539 3 -1.70923
    endloop
  endfacet
  facet normal 0 1 0
    outer loop
      vertex -3.34565 3 -3.71572
      vertex -1.539 3 -1.70923
      vertex -1.15 3 -1.99186
    endloop
  endfacet
  facet normal 0 1 0
    outer loop
      vertex -2.10115 3 -0.935493
      vertex -4.56773 3 -2.03368
      vertex -4.89074 3 -1.03956
    endloop
  endfacet
  facet normal 0 1 0
    outer loop
      vertex -2.5 3 -4.33013
      vertex -1.15 3 -1.99186
      vertex -0.710738 3 -2.18743
    endloop
  endfacet
  facet normal 0 1 0
    outer loop
      vertex -1.54508 3 -4.75528
      vertex -0.710738 3 -2.18743
      vertex -0.240415 3 -2.2874
    endloop
  endfacet
  facet normal 0 1 -0
    outer loop
      vertex 1.54508 3 -4.75528
      vertex 0.710738 3 -2.18743
      vertex 2.5 3 -4.33013
    endloop
  endfacet
  facet normal 0 1 0
    outer loop
      vertex -1.86074 3 -1.35191
      vertex -4.04508 3 -2.93893
      vertex -4.56773 3 -2.03368
    endloop
  endfacet
  facet normal 0 1 0
    outer loop
      vertex 0.710738 3 -2.18743
      vertex 1.54508 3 -4.75528
      vertex 0.240415 3 -2.2874
    endloop
  endfacet
  facet normal 0 1 0
    outer loop
      vertex -1.539 3 -1.70923
      vertex -3.34565 3 -3.71572
      vertex -4.04508 3 -2.93893
    endloop
  endfacet
  facet normal 0 1 -0
    outer loop
      vertex 0.522642 3 -4.97261
      vertex 0.240415 3 -2.2874
      vertex 1.54508 3 -4.75528
    endloop
  endfacet
  facet normal 0 1 0
    outer loop
      vertex -1.15 3 -1.99186
      vertex -2.5 3 -4.33013
      vertex -3.34565 3 -3.71572
    endloop
  endfacet
  facet normal 0 1 0
    outer loop
      vertex 0.240415 3 -2.2874
      vertex 0.522642 3 -4.97261
      vertex -0.240415 3 -2.2874
    endloop
  endfacet
  facet normal 0 1 0
    outer loop
      vertex -0.710738 3 -2.18743
      vertex -1.54508 3 -4.75528
      vertex -2.5 3 -4.33013
    endloop
  endfacet
  facet normal 0 1 0
    outer loop
      vertex -0.522642 3 -4.97261
      vertex -0.240415 3 -2.2874
      vertex 0.522642 3 -4.97261
    endloop
  endfacet
  facet normal 0 1 0
    outer loop
      vertex -0.240415 3 -2.2874
      vertex -0.522642 3 -4.97261
      vertex -1.54508 3 -4.75528
    endloop
  endfacet
  facet normal 0 1 0
    outer loop
      vertex 0.240415 3 88.2874
      vertex 0.522642 3 90.9726
      vertex 1.54508 3 90.7553
    endloop
  endfacet
  facet normal 0 1 0
    outer loop
      vertex 0.522642 3 90.9726
      vertex 0.240415 3 88.2874
      vertex -0.522642 3 90.9726
    endloop
  endfacet
  facet normal 0 1 0
    outer loop
      vertex 0.710738 3 88.1874
      vertex 1.54508 3 90.7553
      vertex 2.5 3 90.3301
    endloop
  endfacet
  facet normal 0 1 -0
    outer loop
      vertex -0.240415 3 88.2874
      vertex -0.522642 3 90.9726
      vertex 0.240415 3 88.2874
    endloop
  endfacet
  facet normal 0 1 0
    outer loop
      vertex 1.15 3 87.9919
      vertex 2.5 3 90.3301
      vertex 3.34565 3 89.7157
    endloop
  endfacet
  facet normal 0 1 0
    outer loop
      vertex -0.522642 3 90.9726
      vertex -0.240415 3 88.2874
      vertex -1.54508 3 90.7553
    endloop
  endfacet
  facet normal 0 1 0
    outer loop
      vertex 1.539 3 87.7092
      vertex 3.34565 3 89.7157
      vertex 4.04508 3 88.9389
    endloop
  endfacet
  facet normal 0 1 -0
    outer loop
      vertex -0.710738 3 88.1874
      vertex -1.54508 3 90.7553
      vertex -0.240415 3 88.2874
    endloop
  endfacet
  facet normal 0 1 0
    outer loop
      vertex -1.54508 3 90.7553
      vertex -0.710738 3 88.1874
      vertex -2.5 3 90.3301
    endloop
  endfacet
  facet normal 0 1 0
    outer loop
      vertex 1.54508 3 90.7553
      vertex 0.710738 3 88.1874
      vertex 0.240415 3 88.2874
    endloop
  endfacet
  facet normal 0 1 0
    outer loop
      vertex 1.86074 3 87.3519
      vertex 4.04508 3 88.9389
      vertex 4.56773 3 88.0337
    endloop
  endfacet
  facet normal 0 1 0
    outer loop
      vertex 2.5 3 90.3301
      vertex 1.15 3 87.9919
      vertex 0.710738 3 88.1874
    endloop
  endfacet
  facet normal 0 1 0
    outer loop
      vertex 3.34565 3 89.7157
      vertex 1.539 3 87.7092
      vertex 1.15 3 87.9919
    endloop
  endfacet
  facet normal 0 1 0
    outer loop
      vertex 4.04508 3 88.9389
      vertex 1.86074 3 87.3519
      vertex 1.539 3 87.7092
    endloop
  endfacet
  facet normal 0 1 0
    outer loop
      vertex 2.10115 3 86.9355
      vertex 4.56773 3 88.0337
      vertex 4.89074 3 87.0396
    endloop
  endfacet
  facet normal 0 1 0
    outer loop
      vertex 4.56773 3 88.0337
      vertex 2.10115 3 86.9355
      vertex 1.86074 3 87.3519
    endloop
  endfacet
  facet normal 0 1 0
    outer loop
      vertex 4.89074 3 87.0396
      vertex 2.24974 3 86.4782
      vertex 2.10115 3 86.9355
    endloop
  endfacet
  facet normal 0 1 0
    outer loop
      vertex 5 3 86
      vertex 2.24974 3 86.4782
      vertex 4.89074 3 87.0396
    endloop
  endfacet
  facet normal 0 1 0
    outer loop
      vertex 5 3 86
      vertex 2.3 3 86
      vertex 2.24974 3 86.4782
    endloop
  endfacet
  facet normal 0 1 0
    outer loop
      vertex 5 3 86
      vertex 2.24974 3 85.5218
      vertex 2.3 3 86
    endloop
  endfacet
  facet normal 0 1 -0
    outer loop
      vertex 4.89074 3 84.9604
      vertex 2.24974 3 85.5218
      vertex 5 3 86
    endloop
  endfacet
  facet normal 0 1 0
    outer loop
      vertex 2.24974 3 85.5218
      vertex 4.89074 3 84.9604
      vertex 2.10115 3 85.0645
    endloop
  endfacet
  facet normal 0 1 -0
    outer loop
      vertex 4.56773 3 83.9663
      vertex 2.10115 3 85.0645
      vertex 4.89074 3 84.9604
    endloop
  endfacet
  facet normal 0 1 0
    outer loop
      vertex 2.10115 3 85.0645
      vertex 4.56773 3 83.9663
      vertex 1.86074 3 84.6481
    endloop
  endfacet
  facet normal 0 1 -0
    outer loop
      vertex 4.04508 3 83.0611
      vertex 1.86074 3 84.6481
      vertex 4.56773 3 83.9663
    endloop
  endfacet
  facet normal 0 1 -0
    outer loop
      vertex 3.99009 3 83
      vertex 1.86074 3 84.6481
      vertex 4.04508 3 83.0611
    endloop
  endfacet
  facet normal 0 1 0
    outer loop
      vertex 1.86074 3 84.6481
      vertex 3.99009 3 83
      vertex 1.539 3 84.2908
    endloop
  endfacet
  facet normal 0 1 0
    outer loop
      vertex 1.539 3 84.2908
      vertex 3.99009 3 83
      vertex 1.15 3 84.0081
    endloop
  endfacet
  facet normal 0 1 0
    outer loop
      vertex 0.710738 3 83.8126
      vertex 3.99009 3 83
      vertex 0.240415 3 83.7126
    endloop
  endfacet
  facet normal 0 1 0
    outer loop
      vertex 1.15 3 84.0081
      vertex 3.99009 3 83
      vertex 0.710738 3 83.8126
    endloop
  endfacet
  facet normal 0 1 -0
    outer loop
      vertex -1.15 3 87.9919
      vertex -2.5 3 90.3301
      vertex -0.710738 3 88.1874
    endloop
  endfacet
  facet normal 0 1 0
    outer loop
      vertex -2.5 3 90.3301
      vertex -1.15 3 87.9919
      vertex -3.34565 3 89.7157
    endloop
  endfacet
  facet normal 0 1 -0
    outer loop
      vertex -1.539 3 87.7092
      vertex -3.34565 3 89.7157
      vertex -1.15 3 87.9919
    endloop
  endfacet
  facet normal 0 1 0
    outer loop
      vertex -3.34565 3 89.7157
      vertex -1.539 3 87.7092
      vertex -4.04508 3 88.9389
    endloop
  endfacet
  facet normal 0 1 -0
    outer loop
      vertex -1.86074 3 87.3519
      vertex -4.04508 3 88.9389
      vertex -1.539 3 87.7092
    endloop
  endfacet
  facet normal 0 1 0
    outer loop
      vertex -4.04508 3 88.9389
      vertex -1.86074 3 87.3519
      vertex -4.56773 3 88.0337
    endloop
  endfacet
  facet normal 0 1 -0
    outer loop
      vertex -2.10115 3 86.9355
      vertex -4.56773 3 88.0337
      vertex -1.86074 3 87.3519
    endloop
  endfacet
  facet normal 0 1 0
    outer loop
      vertex -4.56773 3 88.0337
      vertex -2.10115 3 86.9355
      vertex -4.89074 3 87.0396
    endloop
  endfacet
  facet normal 0 1 -0
    outer loop
      vertex -2.24974 3 86.4782
      vertex -4.89074 3 87.0396
      vertex -2.10115 3 86.9355
    endloop
  endfacet
  facet normal 0 1 -0
    outer loop
      vertex -2.3 3 86
      vertex -4.89074 3 87.0396
      vertex -2.24974 3 86.4782
    endloop
  endfacet
  facet normal 0 1 0
    outer loop
      vertex -2.3 3 86
      vertex -5 3 86
      vertex -4.89074 3 87.0396
    endloop
  endfacet
  facet normal 0 1 0
    outer loop
      vertex -2.24974 3 85.5218
      vertex -5 3 86
      vertex -2.3 3 86
    endloop
  endfacet
  facet normal 0 1 0
    outer loop
      vertex -4.89074 3 84.9604
      vertex -2.24974 3 85.5218
      vertex -2.10115 3 85.0645
    endloop
  endfacet
  facet normal 0 1 0
    outer loop
      vertex -2.24974 3 85.5218
      vertex -4.89074 3 84.9604
      vertex -5 3 86
    endloop
  endfacet
  facet normal 0 1 0
    outer loop
      vertex -4.56773 3 83.9663
      vertex -2.10115 3 85.0645
      vertex -1.86074 3 84.6481
    endloop
  endfacet
  facet normal 0 1 0
    outer loop
      vertex -3.99009 3 83
      vertex -1.86074 3 84.6481
      vertex -1.539 3 84.2908
    endloop
  endfacet
  facet normal 0 1 0
    outer loop
      vertex -3.99009 3 83
      vertex -1.539 3 84.2908
      vertex -1.15 3 84.0081
    endloop
  endfacet
  facet normal 0 1 0
    outer loop
      vertex -2.10115 3 85.0645
      vertex -4.56773 3 83.9663
      vertex -4.89074 3 84.9604
    endloop
  endfacet
  facet normal 0 1 0
    outer loop
      vertex -3.99009 3 83
      vertex -1.15 3 84.0081
      vertex -0.710738 3 83.8126
    endloop
  endfacet
  facet normal 0 1 0
    outer loop
      vertex -3.99009 3 83
      vertex -0.710738 3 83.8126
      vertex -0.240415 3 83.7126
    endloop
  endfacet
  facet normal 0 1 0
    outer loop
      vertex 0.240415 3 83.7126
      vertex 3.99009 3 83
      vertex -0.240415 3 83.7126
    endloop
  endfacet
  facet normal 0 1 0
    outer loop
      vertex -3.99009 3 83
      vertex -0.240415 3 83.7126
      vertex 3.99009 3 83
    endloop
  endfacet
  facet normal 0 1 0
    outer loop
      vertex -1.86074 3 84.6481
      vertex -3.99009 3 83
      vertex -4.04508 3 83.0611
    endloop
  endfacet
  facet normal 0 1 0
    outer loop
      vertex -1.86074 3 84.6481
      vertex -4.04508 3 83.0611
      vertex -4.56773 3 83.9663
    endloop
  endfacet
  facet normal 0.866024 -0 0.500003
    outer loop
      vertex 4.04508 -3 2.93893
      vertex 4.56773 3 2.03368
      vertex 4.04508 3 2.93893
    endloop
  endfacet
  facet normal 0.866024 0 0.500003
    outer loop
      vertex 4.56773 3 2.03368
      vertex 4.04508 -3 2.93893
      vertex 4.56773 -3 2.03368
    endloop
  endfacet
  facet normal 0.951056 -0 0.309018
    outer loop
      vertex 4.56773 -3 2.03368
      vertex 4.89074 3 1.03956
      vertex 4.56773 3 2.03368
    endloop
  endfacet
  facet normal 0.951056 0 0.309018
    outer loop
      vertex 4.89074 3 1.03956
      vertex 4.56773 -3 2.03368
      vertex 4.89074 -3 1.03956
    endloop
  endfacet
  facet normal 0.743131 -0 0.669146
    outer loop
      vertex 3.99009 -3 3
      vertex 4.04508 3 2.93893
      vertex 3.99009 3 3
    endloop
  endfacet
  facet normal 0.743131 0 0.669146
    outer loop
      vertex 4.04508 3 2.93893
      vertex 3.99009 -3 3
      vertex 4.04508 -3 2.93893
    endloop
  endfacet
  facet normal 0.207915 0 0.978147
    outer loop
      vertex 0.522642 3 4.97261
      vertex 1.54508 0 4.75528
      vertex 1.54508 3 4.75528
    endloop
  endfacet
  facet normal 0.207915 0 0.978147
    outer loop
      vertex 1.54508 0 4.75528
      vertex 0.522642 3 4.97261
      vertex 0.522642 0 4.97261
    endloop
  endfacet
  facet normal 0.207915 0 0.978147
    outer loop
      vertex 0.522642 -1 4.97261
      vertex 1.54508 -3 4.75528
      vertex 1.54508 -1 4.75528
    endloop
  endfacet
  facet normal 0.207915 0 0.978147
    outer loop
      vertex 1.54508 -3 4.75528
      vertex 0.522642 -1 4.97261
      vertex 0.522642 -3 4.97261
    endloop
  endfacet
  facet normal -0.866024 0 0.500003
    outer loop
      vertex -4.56773 -3 2.03368
      vertex -4.04508 3 2.93893
      vertex -4.56773 3 2.03368
    endloop
  endfacet
  facet normal -0.866024 0 0.500003
    outer loop
      vertex -4.04508 3 2.93893
      vertex -4.56773 -3 2.03368
      vertex -4.04508 -3 2.93893
    endloop
  endfacet
  facet normal -0.743131 0 0.669146
    outer loop
      vertex -4.04508 -3 2.93893
      vertex -3.99009 3 3
      vertex -4.04508 3 2.93893
    endloop
  endfacet
  facet normal -0.743131 0 0.669146
    outer loop
      vertex -3.99009 3 3
      vertex -4.04508 -3 2.93893
      vertex -3.99009 -3 3
    endloop
  endfacet
  facet normal -0.951056 0 0.309018
    outer loop
      vertex -4.89074 -3 1.03956
      vertex -4.56773 3 2.03368
      vertex -4.89074 3 1.03956
    endloop
  endfacet
  facet normal -0.951056 0 0.309018
    outer loop
      vertex -4.56773 3 2.03368
      vertex -4.89074 -3 1.03956
      vertex -4.56773 -3 2.03368
    endloop
  endfacet
  facet normal 0 -1 0
    outer loop
      vertex -1.54508 -3 81.2447
      vertex -3.2 -3 82.1785
      vertex -2.5 -3 81.6699
    endloop
  endfacet
  facet normal 0 -1 0
    outer loop
      vertex -3.2 -3 82.1785
      vertex -1.54508 -3 81.2447
      vertex 3.2 -3 82.1785
    endloop
  endfacet
  facet normal 0 -1 0
    outer loop
      vertex 1.54508 -3 81.2447
      vertex 3.2 -3 82.1785
      vertex -1.54508 -3 81.2447
    endloop
  endfacet
  facet normal 0 -1 0
    outer loop
      vertex 3.2 -3 82.1785
      vertex 1.54508 -3 81.2447
      vertex 2.5 -3 81.6699
    endloop
  endfacet
  facet normal 0 -1 0
    outer loop
      vertex -0.522642 -3 81.0274
      vertex 1.54508 -3 81.2447
      vertex -1.54508 -3 81.2447
    endloop
  endfacet
  facet normal 0 -1 0
    outer loop
      vertex 1.54508 -3 81.2447
      vertex -0.522642 -3 81.0274
      vertex 0.522642 -3 81.0274
    endloop
  endfacet
  facet normal 0 -1 0
    outer loop
      vertex -3.2 -3 82.1785
      vertex -3.99009 -3 83
      vertex -4 -3 83
    endloop
  endfacet
  facet normal 0 -1 0
    outer loop
      vertex -3.99009 -3 83
      vertex -3.2 -3 82.1785
      vertex 3.99009 -3 83
    endloop
  endfacet
  facet normal 0 -1 0
    outer loop
      vertex 3.2 -3 82.1785
      vertex 3.99009 -3 83
      vertex -3.2 -3 82.1785
    endloop
  endfacet
  facet normal 0 -1 0
    outer loop
      vertex -4 -3 83
      vertex -3.2 -3 3.82155
      vertex -3.2 -3 82.1785
    endloop
  endfacet
  facet normal 0 -1 0
    outer loop
      vertex -3.99009 -3 3
      vertex -3.2 -3 3.82155
      vertex -4 -3 3
    endloop
  endfacet
  facet normal 0 -1 0
    outer loop
      vertex -4 -3 3
      vertex -3.2 -3 3.82155
      vertex -4 -3 83
    endloop
  endfacet
  facet normal 0 -1 -0
    outer loop
      vertex 3.99009 -3 83
      vertex 3.2 -3 82.1785
      vertex 4 -3 83
    endloop
  endfacet
  facet normal 0 -1 0
    outer loop
      vertex 3.2 -3 3.82155
      vertex 4 -3 83
      vertex 3.2 -3 82.1785
    endloop
  endfacet
  facet normal 0 -1 0
    outer loop
      vertex -1.539 -3 1.70923
      vertex -3.2 -3 3.82155
      vertex -3.99009 -3 3
    endloop
  endfacet
  facet normal 0 -1 0
    outer loop
      vertex -3.2 -3 3.82155
      vertex -0.240415 -3 2.2874
      vertex 3.2 -3 3.82155
    endloop
  endfacet
  facet normal 0 -1 0
    outer loop
      vertex 4 -3 3
      vertex 3.2 -3 3.82155
      vertex 3.99009 -3 3
    endloop
  endfacet
  facet normal 0 -1 0
    outer loop
      vertex 3.2 -3 3.82155
      vertex 4 -3 3
      vertex 4 -3 83
    endloop
  endfacet
  facet normal 0 -1 0
    outer loop
      vertex -1.54508 -3 4.75528
      vertex 0.522642 -3 4.97261
      vertex -0.522642 -3 4.97261
    endloop
  endfacet
  facet normal 0 -1 0
    outer loop
      vertex -1.54508 -3 4.75528
      vertex 1.54508 -3 4.75528
      vertex 0.522642 -3 4.97261
    endloop
  endfacet
  facet normal 0 -1 0
    outer loop
      vertex -3.2 -3 3.82155
      vertex -1.54508 -3 4.75528
      vertex -2.5 -3 4.33013
    endloop
  endfacet
  facet normal 0 -1 -0
    outer loop
      vertex -1.54508 -3 4.75528
      vertex -3.2 -3 3.82155
      vertex 1.54508 -3 4.75528
    endloop
  endfacet
  facet normal 0 -1 0
    outer loop
      vertex 3.2 -3 3.82155
      vertex 1.54508 -3 4.75528
      vertex -3.2 -3 3.82155
    endloop
  endfacet
  facet normal 0 -1 0
    outer loop
      vertex 1.54508 -3 4.75528
      vertex 3.2 -3 3.82155
      vertex 2.5 -3 4.33013
    endloop
  endfacet
  facet normal 0 -1 0
    outer loop
      vertex -1.86074 -3 1.35191
      vertex -3.99009 -3 3
      vertex -4.04508 -3 2.93893
    endloop
  endfacet
  facet normal 0 -1 0
    outer loop
      vertex 0.240415 -3 2.2874
      vertex 3.2 -3 3.82155
      vertex -0.240415 -3 2.2874
    endloop
  endfacet
  facet normal 0 -1 0
    outer loop
      vertex 0.710738 -3 2.18743
      vertex 3.2 -3 3.82155
      vertex 0.240415 -3 2.2874
    endloop
  endfacet
  facet normal 0 -1 0
    outer loop
      vertex -3.2 -3 3.82155
      vertex -0.710738 -3 2.18743
      vertex -0.240415 -3 2.2874
    endloop
  endfacet
  facet normal 0 -1 0
    outer loop
      vertex -1.86074 -3 1.35191
      vertex -4.04508 -3 2.93893
      vertex -4.56773 -3 2.03368
    endloop
  endfacet
  facet normal 0 -1 0
    outer loop
      vertex -3.2 -3 3.82155
      vertex -1.15 -3 1.99186
      vertex -0.710738 -3 2.18743
    endloop
  endfacet
  facet normal 0 -1 0
    outer loop
      vertex -3.2 -3 3.82155
      vertex -1.539 -3 1.70923
      vertex -1.15 -3 1.99186
    endloop
  endfacet
  facet normal 0 -1 0
    outer loop
      vertex -3.99009 -3 3
      vertex -1.86074 -3 1.35191
      vertex -1.539 -3 1.70923
    endloop
  endfacet
  facet normal 0 -1 0
    outer loop
      vertex -2.10115 -3 0.935493
      vertex -4.56773 -3 2.03368
      vertex -4.89074 -3 1.03956
    endloop
  endfacet
  facet normal 0 -1 0
    outer loop
      vertex -4.56773 -3 2.03368
      vertex -2.10115 -3 0.935493
      vertex -1.86074 -3 1.35191
    endloop
  endfacet
  facet normal 0 -1 0
    outer loop
      vertex -4.89074 -3 1.03956
      vertex -2.24974 -3 0.478196
      vertex -2.10115 -3 0.935493
    endloop
  endfacet
  facet normal 0 -1 0
    outer loop
      vertex -5 -3 0
      vertex -2.24974 -3 0.478196
      vertex -4.89074 -3 1.03956
    endloop
  endfacet
  facet normal 0 -1 0
    outer loop
      vertex -5 -3 0
      vertex -2.3 -3 0
      vertex -2.24974 -3 0.478196
    endloop
  endfacet
  facet normal 0 -1 0
    outer loop
      vertex -5 -3 0
      vertex -2.24974 -3 -0.478196
      vertex -2.3 -3 0
    endloop
  endfacet
  facet normal 0 -1 0
    outer loop
      vertex -4.89074 -3 -1.03956
      vertex -2.24974 -3 -0.478196
      vertex -5 -3 0
    endloop
  endfacet
  facet normal 0 -1 -0
    outer loop
      vertex -2.24974 -3 -0.478196
      vertex -4.89074 -3 -1.03956
      vertex -2.10115 -3 -0.935493
    endloop
  endfacet
  facet normal 0 -1 0
    outer loop
      vertex -4.56773 -3 -2.03368
      vertex -2.10115 -3 -0.935493
      vertex -4.89074 -3 -1.03956
    endloop
  endfacet
  facet normal 0 -1 -0
    outer loop
      vertex -2.10115 -3 -0.935493
      vertex -4.56773 -3 -2.03368
      vertex -1.86074 -3 -1.35191
    endloop
  endfacet
  facet normal 0 -1 0
    outer loop
      vertex -4.04508 -3 -2.93893
      vertex -1.86074 -3 -1.35191
      vertex -4.56773 -3 -2.03368
    endloop
  endfacet
  facet normal 0 -1 -0
    outer loop
      vertex -1.86074 -3 -1.35191
      vertex -4.04508 -3 -2.93893
      vertex -1.539 -3 -1.70923
    endloop
  endfacet
  facet normal 0 -1 0
    outer loop
      vertex -3.34565 -3 -3.71572
      vertex -1.539 -3 -1.70923
      vertex -4.04508 -3 -2.93893
    endloop
  endfacet
  facet normal 0 -1 -0
    outer loop
      vertex -1.539 -3 -1.70923
      vertex -3.34565 -3 -3.71572
      vertex -1.15 -3 -1.99186
    endloop
  endfacet
  facet normal 0 -1 -0
    outer loop
      vertex -1.15 -3 -1.99186
      vertex -2.5 -3 -4.33013
      vertex -0.710738 -3 -2.18743
    endloop
  endfacet
  facet normal 0 -1 0
    outer loop
      vertex -2.5 -3 -4.33013
      vertex -1.15 -3 -1.99186
      vertex -3.34565 -3 -3.71572
    endloop
  endfacet
  facet normal 0 -1 0
    outer loop
      vertex 1.15 -3 1.99186
      vertex 3.2 -3 3.82155
      vertex 0.710738 -3 2.18743
    endloop
  endfacet
  facet normal 0 -1 0
    outer loop
      vertex 1.539 -3 1.70923
      vertex 3.2 -3 3.82155
      vertex 1.15 -3 1.99186
    endloop
  endfacet
  facet normal 0 -1 -0
    outer loop
      vertex 3.2 -3 3.82155
      vertex 1.539 -3 1.70923
      vertex 3.99009 -3 3
    endloop
  endfacet
  facet normal 0 -1 0
    outer loop
      vertex 1.86074 -3 1.35191
      vertex 3.99009 -3 3
      vertex 1.539 -3 1.70923
    endloop
  endfacet
  facet normal 0 -1 -0
    outer loop
      vertex 3.99009 -3 3
      vertex 1.86074 -3 1.35191
      vertex 4.04508 -3 2.93893
    endloop
  endfacet
  facet normal 0 -1 -0
    outer loop
      vertex 4.04508 -3 2.93893
      vertex 1.86074 -3 1.35191
      vertex 4.56773 -3 2.03368
    endloop
  endfacet
  facet normal 0 -1 0
    outer loop
      vertex 2.10115 -3 0.935493
      vertex 4.56773 -3 2.03368
      vertex 1.86074 -3 1.35191
    endloop
  endfacet
  facet normal 0 -1 -0
    outer loop
      vertex 4.56773 -3 2.03368
      vertex 2.10115 -3 0.935493
      vertex 4.89074 -3 1.03956
    endloop
  endfacet
  facet normal 0 -1 0
    outer loop
      vertex 2.24974 -3 0.478196
      vertex 4.89074 -3 1.03956
      vertex 2.10115 -3 0.935493
    endloop
  endfacet
  facet normal 0 -1 0
    outer loop
      vertex 2.3 -3 0
      vertex 4.89074 -3 1.03956
      vertex 2.24974 -3 0.478196
    endloop
  endfacet
  facet normal 0 -1 0
    outer loop
      vertex 2.3 -3 0
      vertex 5 -3 0
      vertex 4.89074 -3 1.03956
    endloop
  endfacet
  facet normal 0 -1 0
    outer loop
      vertex 2.24974 -3 -0.478196
      vertex 5 -3 0
      vertex 2.3 -3 0
    endloop
  endfacet
  facet normal 0 -1 0
    outer loop
      vertex 4.89074 -3 -1.03956
      vertex 2.24974 -3 -0.478196
      vertex 2.10115 -3 -0.935493
    endloop
  endfacet
  facet normal 0 -1 0
    outer loop
      vertex 2.24974 -3 -0.478196
      vertex 4.89074 -3 -1.03956
      vertex 5 -3 0
    endloop
  endfacet
  facet normal 0 -1 0
    outer loop
      vertex 4.56773 -3 -2.03368
      vertex 2.10115 -3 -0.935493
      vertex 1.86074 -3 -1.35191
    endloop
  endfacet
  facet normal 0 -1 0
    outer loop
      vertex 4.04508 -3 -2.93893
      vertex 1.86074 -3 -1.35191
      vertex 1.539 -3 -1.70923
    endloop
  endfacet
  facet normal 0 -1 0
    outer loop
      vertex 3.34565 -3 -3.71572
      vertex 1.539 -3 -1.70923
      vertex 1.15 -3 -1.99186
    endloop
  endfacet
  facet normal 0 -1 0
    outer loop
      vertex 2.10115 -3 -0.935493
      vertex 4.56773 -3 -2.03368
      vertex 4.89074 -3 -1.03956
    endloop
  endfacet
  facet normal 0 -1 0
    outer loop
      vertex 2.5 -3 -4.33013
      vertex 1.15 -3 -1.99186
      vertex 0.710738 -3 -2.18743
    endloop
  endfacet
  facet normal 0 -1 0
    outer loop
      vertex 1.54508 -3 -4.75528
      vertex 0.710738 -3 -2.18743
      vertex 0.240415 -3 -2.2874
    endloop
  endfacet
  facet normal 0 -1 0
    outer loop
      vertex -1.54508 -3 -4.75528
      vertex -0.710738 -3 -2.18743
      vertex -2.5 -3 -4.33013
    endloop
  endfacet
  facet normal 0 -1 0
    outer loop
      vertex 1.86074 -3 -1.35191
      vertex 4.04508 -3 -2.93893
      vertex 4.56773 -3 -2.03368
    endloop
  endfacet
  facet normal 0 -1 -0
    outer loop
      vertex -0.710738 -3 -2.18743
      vertex -1.54508 -3 -4.75528
      vertex -0.240415 -3 -2.2874
    endloop
  endfacet
  facet normal 0 -1 0
    outer loop
      vertex 1.539 -3 -1.70923
      vertex 3.34565 -3 -3.71572
      vertex 4.04508 -3 -2.93893
    endloop
  endfacet
  facet normal 0 -1 0
    outer loop
      vertex -0.522642 -3 -4.97261
      vertex -0.240415 -3 -2.2874
      vertex -1.54508 -3 -4.75528
    endloop
  endfacet
  facet normal 0 -1 0
    outer loop
      vertex 1.15 -3 -1.99186
      vertex 2.5 -3 -4.33013
      vertex 3.34565 -3 -3.71572
    endloop
  endfacet
  facet normal 0 -1 -0
    outer loop
      vertex -0.240415 -3 -2.2874
      vertex -0.522642 -3 -4.97261
      vertex 0.240415 -3 -2.2874
    endloop
  endfacet
  facet normal 0 -1 0
    outer loop
      vertex 0.710738 -3 -2.18743
      vertex 1.54508 -3 -4.75528
      vertex 2.5 -3 -4.33013
    endloop
  endfacet
  facet normal 0 -1 0
    outer loop
      vertex 0.522642 -3 -4.97261
      vertex 0.240415 -3 -2.2874
      vertex -0.522642 -3 -4.97261
    endloop
  endfacet
  facet normal 0 -1 0
    outer loop
      vertex 0.240415 -3 -2.2874
      vertex 0.522642 -3 -4.97261
      vertex 1.54508 -3 -4.75528
    endloop
  endfacet
  facet normal 0 -1 0
    outer loop
      vertex -0.240415 -3 88.2874
      vertex -0.522642 -3 90.9726
      vertex -1.54508 -3 90.7553
    endloop
  endfacet
  facet normal 0 -1 0
    outer loop
      vertex -0.522642 -3 90.9726
      vertex -0.240415 -3 88.2874
      vertex 0.522642 -3 90.9726
    endloop
  endfacet
  facet normal 0 -1 0
    outer loop
      vertex -0.710738 -3 88.1874
      vertex -1.54508 -3 90.7553
      vertex -2.5 -3 90.3301
    endloop
  endfacet
  facet normal 0 -1 0
    outer loop
      vertex 0.240415 -3 88.2874
      vertex 0.522642 -3 90.9726
      vertex -0.240415 -3 88.2874
    endloop
  endfacet
  facet normal 0 -1 0
    outer loop
      vertex -1.15 -3 87.9919
      vertex -2.5 -3 90.3301
      vertex -3.34565 -3 89.7157
    endloop
  endfacet
  facet normal 0 -1 -0
    outer loop
      vertex 0.522642 -3 90.9726
      vertex 0.240415 -3 88.2874
      vertex 1.54508 -3 90.7553
    endloop
  endfacet
  facet normal 0 -1 0
    outer loop
      vertex -1.539 -3 87.7092
      vertex -3.34565 -3 89.7157
      vertex -4.04508 -3 88.9389
    endloop
  endfacet
  facet normal 0 -1 0
    outer loop
      vertex 0.710738 -3 88.1874
      vertex 1.54508 -3 90.7553
      vertex 0.240415 -3 88.2874
    endloop
  endfacet
  facet normal 0 -1 -0
    outer loop
      vertex 1.54508 -3 90.7553
      vertex 0.710738 -3 88.1874
      vertex 2.5 -3 90.3301
    endloop
  endfacet
  facet normal 0 -1 0
    outer loop
      vertex -1.54508 -3 90.7553
      vertex -0.710738 -3 88.1874
      vertex -0.240415 -3 88.2874
    endloop
  endfacet
  facet normal 0 -1 0
    outer loop
      vertex -1.86074 -3 87.3519
      vertex -4.04508 -3 88.9389
      vertex -4.56773 -3 88.0337
    endloop
  endfacet
  facet normal 0 -1 0
    outer loop
      vertex -2.5 -3 90.3301
      vertex -1.15 -3 87.9919
      vertex -0.710738 -3 88.1874
    endloop
  endfacet
  facet normal 0 -1 0
    outer loop
      vertex -3.34565 -3 89.7157
      vertex -1.539 -3 87.7092
      vertex -1.15 -3 87.9919
    endloop
  endfacet
  facet normal 0 -1 0
    outer loop
      vertex -4.04508 -3 88.9389
      vertex -1.86074 -3 87.3519
      vertex -1.539 -3 87.7092
    endloop
  endfacet
  facet normal 0 -1 0
    outer loop
      vertex -2.10115 -3 86.9355
      vertex -4.56773 -3 88.0337
      vertex -4.89074 -3 87.0396
    endloop
  endfacet
  facet normal 0 -1 0
    outer loop
      vertex -4.56773 -3 88.0337
      vertex -2.10115 -3 86.9355
      vertex -1.86074 -3 87.3519
    endloop
  endfacet
  facet normal 0 -1 0
    outer loop
      vertex -4.89074 -3 87.0396
      vertex -2.24974 -3 86.4782
      vertex -2.10115 -3 86.9355
    endloop
  endfacet
  facet normal 0 -1 0
    outer loop
      vertex -5 -3 86
      vertex -2.24974 -3 86.4782
      vertex -4.89074 -3 87.0396
    endloop
  endfacet
  facet normal 0 -1 0
    outer loop
      vertex -5 -3 86
      vertex -2.3 -3 86
      vertex -2.24974 -3 86.4782
    endloop
  endfacet
  facet normal 0 -1 0
    outer loop
      vertex -5 -3 86
      vertex -2.24974 -3 85.5218
      vertex -2.3 -3 86
    endloop
  endfacet
  facet normal 0 -1 0
    outer loop
      vertex -4.89074 -3 84.9604
      vertex -2.24974 -3 85.5218
      vertex -5 -3 86
    endloop
  endfacet
  facet normal 0 -1 -0
    outer loop
      vertex -2.24974 -3 85.5218
      vertex -4.89074 -3 84.9604
      vertex -2.10115 -3 85.0645
    endloop
  endfacet
  facet normal 0 -1 0
    outer loop
      vertex -4.56773 -3 83.9663
      vertex -2.10115 -3 85.0645
      vertex -4.89074 -3 84.9604
    endloop
  endfacet
  facet normal 0 -1 -0
    outer loop
      vertex -2.10115 -3 85.0645
      vertex -4.56773 -3 83.9663
      vertex -1.86074 -3 84.6481
    endloop
  endfacet
  facet normal 0 -1 0
    outer loop
      vertex -4.04508 -3 83.0611
      vertex -1.86074 -3 84.6481
      vertex -4.56773 -3 83.9663
    endloop
  endfacet
  facet normal 0 -1 0
    outer loop
      vertex -3.99009 -3 83
      vertex -1.86074 -3 84.6481
      vertex -4.04508 -3 83.0611
    endloop
  endfacet
  facet normal 0 -1 -0
    outer loop
      vertex -1.86074 -3 84.6481
      vertex -3.99009 -3 83
      vertex -1.539 -3 84.2908
    endloop
  endfacet
  facet normal 0 -1 -0
    outer loop
      vertex -1.539 -3 84.2908
      vertex -3.99009 -3 83
      vertex -1.15 -3 84.0081
    endloop
  endfacet
  facet normal 0 -1 -0
    outer loop
      vertex -0.710738 -3 83.8126
      vertex -3.99009 -3 83
      vertex -0.240415 -3 83.7126
    endloop
  endfacet
  facet normal 0 -1 -0
    outer loop
      vertex -1.15 -3 84.0081
      vertex -3.99009 -3 83
      vertex -0.710738 -3 83.8126
    endloop
  endfacet
  facet normal 0 -1 0
    outer loop
      vertex 1.15 -3 87.9919
      vertex 2.5 -3 90.3301
      vertex 0.710738 -3 88.1874
    endloop
  endfacet
  facet normal 0 -1 -0
    outer loop
      vertex 2.5 -3 90.3301
      vertex 1.15 -3 87.9919
      vertex 3.34565 -3 89.7157
    endloop
  endfacet
  facet normal 0 -1 0
    outer loop
      vertex 1.539 -3 87.7092
      vertex 3.34565 -3 89.7157
      vertex 1.15 -3 87.9919
    endloop
  endfacet
  facet normal 0 -1 -0
    outer loop
      vertex 3.34565 -3 89.7157
      vertex 1.539 -3 87.7092
      vertex 4.04508 -3 88.9389
    endloop
  endfacet
  facet normal 0 -1 0
    outer loop
      vertex 1.86074 -3 87.3519
      vertex 4.04508 -3 88.9389
      vertex 1.539 -3 87.7092
    endloop
  endfacet
  facet normal 0 -1 -0
    outer loop
      vertex 4.04508 -3 88.9389
      vertex 1.86074 -3 87.3519
      vertex 4.56773 -3 88.0337
    endloop
  endfacet
  facet normal 0 -1 0
    outer loop
      vertex 2.10115 -3 86.9355
      vertex 4.56773 -3 88.0337
      vertex 1.86074 -3 87.3519
    endloop
  endfacet
  facet normal 0 -1 -0
    outer loop
      vertex 4.56773 -3 88.0337
      vertex 2.10115 -3 86.9355
      vertex 4.89074 -3 87.0396
    endloop
  endfacet
  facet normal 0 -1 0
    outer loop
      vertex 2.24974 -3 86.4782
      vertex 4.89074 -3 87.0396
      vertex 2.10115 -3 86.9355
    endloop
  endfacet
  facet normal 0 -1 0
    outer loop
      vertex 2.3 -3 86
      vertex 4.89074 -3 87.0396
      vertex 2.24974 -3 86.4782
    endloop
  endfacet
  facet normal 0 -1 0
    outer loop
      vertex 2.3 -3 86
      vertex 5 -3 86
      vertex 4.89074 -3 87.0396
    endloop
  endfacet
  facet normal 0 -1 0
    outer loop
      vertex 2.24974 -3 85.5218
      vertex 5 -3 86
      vertex 2.3 -3 86
    endloop
  endfacet
  facet normal 0 -1 0
    outer loop
      vertex 4.89074 -3 84.9604
      vertex 2.24974 -3 85.5218
      vertex 2.10115 -3 85.0645
    endloop
  endfacet
  facet normal 0 -1 0
    outer loop
      vertex 2.24974 -3 85.5218
      vertex 4.89074 -3 84.9604
      vertex 5 -3 86
    endloop
  endfacet
  facet normal 0 -1 0
    outer loop
      vertex 4.56773 -3 83.9663
      vertex 2.10115 -3 85.0645
      vertex 1.86074 -3 84.6481
    endloop
  endfacet
  facet normal 0 -1 0
    outer loop
      vertex 3.99009 -3 83
      vertex 1.86074 -3 84.6481
      vertex 1.539 -3 84.2908
    endloop
  endfacet
  facet normal 0 -1 0
    outer loop
      vertex 3.99009 -3 83
      vertex 1.539 -3 84.2908
      vertex 1.15 -3 84.0081
    endloop
  endfacet
  facet normal 0 -1 0
    outer loop
      vertex 2.10115 -3 85.0645
      vertex 4.56773 -3 83.9663
      vertex 4.89074 -3 84.9604
    endloop
  endfacet
  facet normal 0 -1 0
    outer loop
      vertex 3.99009 -3 83
      vertex 1.15 -3 84.0081
      vertex 0.710738 -3 83.8126
    endloop
  endfacet
  facet normal 0 -1 0
    outer loop
      vertex 3.99009 -3 83
      vertex 0.710738 -3 83.8126
      vertex 0.240415 -3 83.7126
    endloop
  endfacet
  facet normal 0 -1 -0
    outer loop
      vertex -0.240415 -3 83.7126
      vertex -3.99009 -3 83
      vertex 0.240415 -3 83.7126
    endloop
  endfacet
  facet normal 0 -1 0
    outer loop
      vertex 3.99009 -3 83
      vertex 0.240415 -3 83.7126
      vertex -3.99009 -3 83
    endloop
  endfacet
  facet normal 0 -1 0
    outer loop
      vertex 1.86074 -3 84.6481
      vertex 3.99009 -3 83
      vertex 4.04508 -3 83.0611
    endloop
  endfacet
  facet normal 0 -1 0
    outer loop
      vertex 1.86074 -3 84.6481
      vertex 4.04508 -3 83.0611
      vertex 4.56773 -3 83.9663
    endloop
  endfacet
  facet normal -0.40673 0 0.913548
    outer loop
      vertex -2.5 -1 4.33013
      vertex -1.54508 -3 4.75528
      vertex -1.54508 -1 4.75528
    endloop
  endfacet
  facet normal -0.40673 0 0.913548
    outer loop
      vertex -1.54508 -3 4.75528
      vertex -2.5 -1 4.33013
      vertex -2.5 -3 4.33013
    endloop
  endfacet
  facet normal -0.40673 0 0.913548
    outer loop
      vertex -2.5 3 4.33013
      vertex -1.54508 0 4.75528
      vertex -1.54508 3 4.75528
    endloop
  endfacet
  facet normal -0.40673 0 0.913548
    outer loop
      vertex -1.54508 0 4.75528
      vertex -2.5 3 4.33013
      vertex -2.5 0 4.33013
    endloop
  endfacet
  facet normal 0.994522 0 -0.104526
    outer loop
      vertex 5 -3 0
      vertex 4.89074 3 -1.03956
      vertex 5 3 0
    endloop
  endfacet
  facet normal 0.994522 0 -0.104526
    outer loop
      vertex 4.89074 3 -1.03956
      vertex 5 -3 0
      vertex 4.89074 -3 -1.03956
    endloop
  endfacet
  facet normal -0.207915 0 -0.978147
    outer loop
      vertex -1.54508 -3 -4.75528
      vertex -0.522642 3 -4.97261
      vertex -0.522642 -3 -4.97261
    endloop
  endfacet
  facet normal -0.207915 0 -0.978147
    outer loop
      vertex -0.522642 3 -4.97261
      vertex -1.54508 -3 -4.75528
      vertex -1.54508 3 -4.75528
    endloop
  endfacet
  facet normal 0.207915 0 -0.978147
    outer loop
      vertex 0.522642 -3 -4.97261
      vertex 1.54508 3 -4.75528
      vertex 1.54508 -3 -4.75528
    endloop
  endfacet
  facet normal 0.207915 0 -0.978147
    outer loop
      vertex 1.54508 3 -4.75528
      vertex 0.522642 -3 -4.97261
      vertex 0.522642 3 -4.97261
    endloop
  endfacet
  facet normal 0.743142 0 -0.669133
    outer loop
      vertex 4.04508 -3 -2.93893
      vertex 3.34565 3 -3.71572
      vertex 4.04508 3 -2.93893
    endloop
  endfacet
  facet normal 0.743142 0 -0.669133
    outer loop
      vertex 3.34565 3 -3.71572
      vertex 4.04508 -3 -2.93893
      vertex 3.34565 -3 -3.71572
    endloop
  endfacet
  facet normal 0.951056 0 -0.309018
    outer loop
      vertex 4.89074 -3 -1.03956
      vertex 4.56773 3 -2.03368
      vertex 4.89074 3 -1.03956
    endloop
  endfacet
  facet normal 0.951056 0 -0.309018
    outer loop
      vertex 4.56773 3 -2.03368
      vertex 4.89074 -3 -1.03956
      vertex 4.56773 -3 -2.03368
    endloop
  endfacet
  facet normal 0.866024 0 -0.500003
    outer loop
      vertex 4.56773 -3 -2.03368
      vertex 4.04508 3 -2.93893
      vertex 4.56773 3 -2.03368
    endloop
  endfacet
  facet normal 0.866024 0 -0.500003
    outer loop
      vertex 4.04508 3 -2.93893
      vertex 4.56773 -3 -2.03368
      vertex 4.04508 -3 -2.93893
    endloop
  endfacet
  facet normal -0.866024 0 -0.500003
    outer loop
      vertex -4.04508 -3 -2.93893
      vertex -4.56773 3 -2.03368
      vertex -4.04508 3 -2.93893
    endloop
  endfacet
  facet normal -0.866024 -0 -0.500003
    outer loop
      vertex -4.56773 3 -2.03368
      vertex -4.04508 -3 -2.93893
      vertex -4.56773 -3 -2.03368
    endloop
  endfacet
  facet normal -0.994522 0 -0.104526
    outer loop
      vertex -4.89074 -3 -1.03956
      vertex -5 3 0
      vertex -4.89074 3 -1.03956
    endloop
  endfacet
  facet normal -0.994522 -0 -0.104526
    outer loop
      vertex -5 3 0
      vertex -4.89074 -3 -1.03956
      vertex -5 -3 0
    endloop
  endfacet
  facet normal -0.951056 0 -0.309018
    outer loop
      vertex -4.56773 -3 -2.03368
      vertex -4.89074 3 -1.03956
      vertex -4.56773 3 -2.03368
    endloop
  endfacet
  facet normal -0.951056 -0 -0.309018
    outer loop
      vertex -4.89074 3 -1.03956
      vertex -4.56773 -3 -2.03368
      vertex -4.89074 -3 -1.03956
    endloop
  endfacet
  facet normal 0.587791 0 -0.809013
    outer loop
      vertex 2.5 -3 -4.33013
      vertex 3.34565 3 -3.71572
      vertex 3.34565 -3 -3.71572
    endloop
  endfacet
  facet normal 0.587791 0 -0.809013
    outer loop
      vertex 3.34565 3 -3.71572
      vertex 2.5 -3 -4.33013
      vertex 2.5 3 -4.33013
    endloop
  endfacet
  facet normal 0.40673 0 -0.913548
    outer loop
      vertex 1.54508 -3 -4.75528
      vertex 2.5 3 -4.33013
      vertex 2.5 -3 -4.33013
    endloop
  endfacet
  facet normal 0.40673 0 -0.913548
    outer loop
      vertex 2.5 3 -4.33013
      vertex 1.54508 -3 -4.75528
      vertex 1.54508 3 -4.75528
    endloop
  endfacet
  facet normal 0 0 -1
    outer loop
      vertex -0.522642 -3 -4.97261
      vertex 0.522642 3 -4.97261
      vertex 0.522642 -3 -4.97261
    endloop
  endfacet
  facet normal -0 0 -1
    outer loop
      vertex 0.522642 3 -4.97261
      vertex -0.522642 -3 -4.97261
      vertex -0.522642 3 -4.97261
    endloop
  endfacet
  facet normal -0.587791 0 -0.809013
    outer loop
      vertex -3.34565 -3 -3.71572
      vertex -2.5 3 -4.33013
      vertex -2.5 -3 -4.33013
    endloop
  endfacet
  facet normal -0.587791 0 -0.809013
    outer loop
      vertex -2.5 3 -4.33013
      vertex -3.34565 -3 -3.71572
      vertex -3.34565 3 -3.71572
    endloop
  endfacet
  facet normal -0.743142 0 -0.669133
    outer loop
      vertex -3.34565 -3 -3.71572
      vertex -4.04508 3 -2.93893
      vertex -3.34565 3 -3.71572
    endloop
  endfacet
  facet normal -0.743142 -0 -0.669133
    outer loop
      vertex -4.04508 3 -2.93893
      vertex -3.34565 -3 -3.71572
      vertex -4.04508 -3 -2.93893
    endloop
  endfacet
  facet normal -0.40673 0 -0.913548
    outer loop
      vertex -2.5 -3 -4.33013
      vertex -1.54508 3 -4.75528
      vertex -1.54508 -3 -4.75528
    endloop
  endfacet
  facet normal -0.40673 0 -0.913548
    outer loop
      vertex -1.54508 3 -4.75528
      vertex -2.5 -3 -4.33013
      vertex -2.5 3 -4.33013
    endloop
  endfacet
  facet normal -0.994522 0 -0.104528
    outer loop
      vertex 2.3 -3 0
      vertex 2.24974 3 0.478196
      vertex 2.3 3 0
    endloop
  endfacet
  facet normal -0.994522 -0 -0.104528
    outer loop
      vertex 2.24974 3 0.478196
      vertex 2.3 -3 0
      vertex 2.24974 -3 0.478196
    endloop
  endfacet
  facet normal 0.994522 0 -0.104528
    outer loop
      vertex -2.24974 -3 0.478196
      vertex -2.3 3 0
      vertex -2.24974 3 0.478196
    endloop
  endfacet
  facet normal 0.994522 0 -0.104528
    outer loop
      vertex -2.3 3 0
      vertex -2.24974 -3 0.478196
      vertex -2.3 -3 0
    endloop
  endfacet
  facet normal 0 0 -1
    outer loop
      vertex -0.240415 -3 2.2874
      vertex 0.240415 3 2.2874
      vertex 0.240415 -3 2.2874
    endloop
  endfacet
  facet normal -0 0 -1
    outer loop
      vertex 0.240415 3 2.2874
      vertex -0.240415 -3 2.2874
      vertex -0.240415 3 2.2874
    endloop
  endfacet
  facet normal -0 0 1
    outer loop
      vertex -0.240415 3 -2.2874
      vertex 0.240415 -3 -2.2874
      vertex 0.240415 3 -2.2874
    endloop
  endfacet
  facet normal 0 0 1
    outer loop
      vertex 0.240415 -3 -2.2874
      vertex -0.240415 3 -2.2874
      vertex -0.240415 -3 -2.2874
    endloop
  endfacet
  facet normal -0.743137 0 -0.669139
    outer loop
      vertex 1.86074 -3 1.35191
      vertex 1.539 3 1.70923
      vertex 1.86074 3 1.35191
    endloop
  endfacet
  facet normal -0.743137 -0 -0.669139
    outer loop
      vertex 1.539 3 1.70923
      vertex 1.86074 -3 1.35191
      vertex 1.539 -3 1.70923
    endloop
  endfacet
  facet normal 0.743137 0 -0.669139
    outer loop
      vertex -1.539 -3 1.70923
      vertex -1.86074 3 1.35191
      vertex -1.539 3 1.70923
    endloop
  endfacet
  facet normal 0.743137 0 -0.669139
    outer loop
      vertex -1.86074 3 1.35191
      vertex -1.539 -3 1.70923
      vertex -1.86074 -3 1.35191
    endloop
  endfacet
  facet normal 0.866033 0 -0.499987
    outer loop
      vertex -1.86074 -3 1.35191
      vertex -2.10115 3 0.935493
      vertex -1.86074 3 1.35191
    endloop
  endfacet
  facet normal 0.866033 0 -0.499987
    outer loop
      vertex -2.10115 3 0.935493
      vertex -1.86074 -3 1.35191
      vertex -2.10115 -3 0.935493
    endloop
  endfacet
  facet normal 0.406733 0 -0.913547
    outer loop
      vertex -1.15 -3 1.99186
      vertex -0.710738 3 2.18743
      vertex -0.710738 -3 2.18743
    endloop
  endfacet
  facet normal 0.406733 0 -0.913547
    outer loop
      vertex -0.710738 3 2.18743
      vertex -1.15 -3 1.99186
      vertex -1.15 3 1.99186
    endloop
  endfacet
  facet normal -0.866033 0 0.499987
    outer loop
      vertex 1.86074 -3 -1.35191
      vertex 2.10115 3 -0.935493
      vertex 1.86074 3 -1.35191
    endloop
  endfacet
  facet normal -0.866033 0 0.499987
    outer loop
      vertex 2.10115 3 -0.935493
      vertex 1.86074 -3 -1.35191
      vertex 2.10115 -3 -0.935493
    endloop
  endfacet
  facet normal -0.866033 0 -0.499987
    outer loop
      vertex 2.10115 -3 0.935493
      vertex 1.86074 3 1.35191
      vertex 2.10115 3 0.935493
    endloop
  endfacet
  facet normal -0.866033 -0 -0.499987
    outer loop
      vertex 1.86074 3 1.35191
      vertex 2.10115 -3 0.935493
      vertex 1.86074 -3 1.35191
    endloop
  endfacet
  facet normal -0.951053 0 -0.309027
    outer loop
      vertex 2.24974 -3 0.478196
      vertex 2.10115 3 0.935493
      vertex 2.24974 3 0.478196
    endloop
  endfacet
  facet normal -0.951053 -0 -0.309027
    outer loop
      vertex 2.10115 3 0.935493
      vertex 2.24974 -3 0.478196
      vertex 2.10115 -3 0.935493
    endloop
  endfacet
  facet normal -0.406733 0 -0.913547
    outer loop
      vertex 0.710738 -3 2.18743
      vertex 1.15 3 1.99186
      vertex 1.15 -3 1.99186
    endloop
  endfacet
  facet normal -0.406733 0 -0.913547
    outer loop
      vertex 1.15 3 1.99186
      vertex 0.710738 -3 2.18743
      vertex 0.710738 3 2.18743
    endloop
  endfacet
  facet normal -0.207911 0 -0.978148
    outer loop
      vertex 0.240415 -3 2.2874
      vertex 0.710738 3 2.18743
      vertex 0.710738 -3 2.18743
    endloop
  endfacet
  facet normal -0.207911 0 -0.978148
    outer loop
      vertex 0.710738 3 2.18743
      vertex 0.240415 -3 2.2874
      vertex 0.240415 3 2.2874
    endloop
  endfacet
  facet normal -0.587792 0 -0.809012
    outer loop
      vertex 1.15 -3 1.99186
      vertex 1.539 3 1.70923
      vertex 1.539 -3 1.70923
    endloop
  endfacet
  facet normal -0.587792 0 -0.809012
    outer loop
      vertex 1.539 3 1.70923
      vertex 1.15 -3 1.99186
      vertex 1.15 3 1.99186
    endloop
  endfacet
  facet normal 0.951053 0 -0.309027
    outer loop
      vertex -2.10115 -3 0.935493
      vertex -2.24974 3 0.478196
      vertex -2.10115 3 0.935493
    endloop
  endfacet
  facet normal 0.951053 0 -0.309027
    outer loop
      vertex -2.24974 3 0.478196
      vertex -2.10115 -3 0.935493
      vertex -2.24974 -3 0.478196
    endloop
  endfacet
  facet normal 0.587792 0 -0.809012
    outer loop
      vertex -1.539 -3 1.70923
      vertex -1.15 3 1.99186
      vertex -1.15 -3 1.99186
    endloop
  endfacet
  facet normal 0.587792 0 -0.809012
    outer loop
      vertex -1.15 3 1.99186
      vertex -1.539 -3 1.70923
      vertex -1.539 3 1.70923
    endloop
  endfacet
  facet normal 0.207911 0 -0.978148
    outer loop
      vertex -0.710738 -3 2.18743
      vertex -0.240415 3 2.2874
      vertex -0.240415 -3 2.2874
    endloop
  endfacet
  facet normal 0.207911 0 -0.978148
    outer loop
      vertex -0.240415 3 2.2874
      vertex -0.710738 -3 2.18743
      vertex -0.710738 3 2.18743
    endloop
  endfacet
  facet normal -0.743137 0 0.669139
    outer loop
      vertex 1.539 -3 -1.70923
      vertex 1.86074 3 -1.35191
      vertex 1.539 3 -1.70923
    endloop
  endfacet
  facet normal -0.743137 0 0.669139
    outer loop
      vertex 1.86074 3 -1.35191
      vertex 1.539 -3 -1.70923
      vertex 1.86074 -3 -1.35191
    endloop
  endfacet
  facet normal -0.951053 0 0.309027
    outer loop
      vertex 2.10115 -3 -0.935493
      vertex 2.24974 3 -0.478196
      vertex 2.10115 3 -0.935493
    endloop
  endfacet
  facet normal -0.951053 0 0.309027
    outer loop
      vertex 2.24974 3 -0.478196
      vertex 2.10115 -3 -0.935493
      vertex 2.24974 -3 -0.478196
    endloop
  endfacet
  facet normal -0.994522 0 0.104528
    outer loop
      vertex 2.24974 -3 -0.478196
      vertex 2.3 3 0
      vertex 2.24974 3 -0.478196
    endloop
  endfacet
  facet normal -0.994522 0 0.104528
    outer loop
      vertex 2.3 3 0
      vertex 2.24974 -3 -0.478196
      vertex 2.3 -3 0
    endloop
  endfacet
  facet normal 0.866033 -0 0.499987
    outer loop
      vertex -2.10115 -3 -0.935493
      vertex -1.86074 3 -1.35191
      vertex -2.10115 3 -0.935493
    endloop
  endfacet
  facet normal 0.866033 0 0.499987
    outer loop
      vertex -1.86074 3 -1.35191
      vertex -2.10115 -3 -0.935493
      vertex -1.86074 -3 -1.35191
    endloop
  endfacet
  facet normal -0.587792 0 0.809012
    outer loop
      vertex 1.15 3 -1.99186
      vertex 1.539 -3 -1.70923
      vertex 1.539 3 -1.70923
    endloop
  endfacet
  facet normal -0.587792 0 0.809012
    outer loop
      vertex 1.539 -3 -1.70923
      vertex 1.15 3 -1.99186
      vertex 1.15 -3 -1.99186
    endloop
  endfacet
  facet normal 0.207911 0 0.978148
    outer loop
      vertex -0.710738 3 -2.18743
      vertex -0.240415 -3 -2.2874
      vertex -0.240415 3 -2.2874
    endloop
  endfacet
  facet normal 0.207911 0 0.978148
    outer loop
      vertex -0.240415 -3 -2.2874
      vertex -0.710738 3 -2.18743
      vertex -0.710738 -3 -2.18743
    endloop
  endfacet
  facet normal 0.406733 0 0.913547
    outer loop
      vertex -1.15 3 -1.99186
      vertex -0.710738 -3 -2.18743
      vertex -0.710738 3 -2.18743
    endloop
  endfacet
  facet normal 0.406733 0 0.913547
    outer loop
      vertex -0.710738 -3 -2.18743
      vertex -1.15 3 -1.99186
      vertex -1.15 -3 -1.99186
    endloop
  endfacet
  facet normal 0.743137 -0 0.669139
    outer loop
      vertex -1.86074 -3 -1.35191
      vertex -1.539 3 -1.70923
      vertex -1.86074 3 -1.35191
    endloop
  endfacet
  facet normal 0.743137 0 0.669139
    outer loop
      vertex -1.539 3 -1.70923
      vertex -1.86074 -3 -1.35191
      vertex -1.539 -3 -1.70923
    endloop
  endfacet
  facet normal 0.951053 -0 0.309027
    outer loop
      vertex -2.24974 -3 -0.478196
      vertex -2.10115 3 -0.935493
      vertex -2.24974 3 -0.478196
    endloop
  endfacet
  facet normal 0.951053 0 0.309027
    outer loop
      vertex -2.10115 3 -0.935493
      vertex -2.24974 -3 -0.478196
      vertex -2.10115 -3 -0.935493
    endloop
  endfacet
  facet normal 0.994522 -0 0.104528
    outer loop
      vertex -2.3 -3 0
      vertex -2.24974 3 -0.478196
      vertex -2.3 3 0
    endloop
  endfacet
  facet normal 0.994522 0 0.104528
    outer loop
      vertex -2.24974 3 -0.478196
      vertex -2.3 -3 0
      vertex -2.24974 -3 -0.478196
    endloop
  endfacet
  facet normal -0.406733 0 0.913547
    outer loop
      vertex 0.710738 3 -2.18743
      vertex 1.15 -3 -1.99186
      vertex 1.15 3 -1.99186
    endloop
  endfacet
  facet normal -0.406733 0 0.913547
    outer loop
      vertex 1.15 -3 -1.99186
      vertex 0.710738 3 -2.18743
      vertex 0.710738 -3 -2.18743
    endloop
  endfacet
  facet normal -0.207911 0 0.978148
    outer loop
      vertex 0.240415 3 -2.2874
      vertex 0.710738 -3 -2.18743
      vertex 0.710738 3 -2.18743
    endloop
  endfacet
  facet normal -0.207911 0 0.978148
    outer loop
      vertex 0.710738 -3 -2.18743
      vertex 0.240415 3 -2.2874
      vertex 0.240415 -3 -2.2874
    endloop
  endfacet
  facet normal 0.587792 0 0.809012
    outer loop
      vertex -1.539 3 -1.70923
      vertex -1.15 -3 -1.99186
      vertex -1.15 3 -1.99186
    endloop
  endfacet
  facet normal 0.587792 0 0.809012
    outer loop
      vertex -1.15 -3 -1.99186
      vertex -1.539 3 -1.70923
      vertex -1.539 -3 -1.70923
    endloop
  endfacet
  facet normal 0.994523 -0 0.104522
    outer loop
      vertex 4.89074 -3 87.0396
      vertex 5 3 86
      vertex 4.89074 3 87.0396
    endloop
  endfacet
  facet normal 0.994523 0 0.104522
    outer loop
      vertex 5 3 86
      vertex 4.89074 -3 87.0396
      vertex 5 -3 86
    endloop
  endfacet
  facet normal -0.994523 0 0.104522
    outer loop
      vertex -5 -3 86
      vertex -4.89074 3 87.0396
      vertex -5 3 86
    endloop
  endfacet
  facet normal -0.994523 0 0.104522
    outer loop
      vertex -4.89074 3 87.0396
      vertex -5 -3 86
      vertex -4.89074 -3 87.0396
    endloop
  endfacet
  facet normal -0 0 1
    outer loop
      vertex -0.522642 3 90.9726
      vertex 0.522642 -3 90.9726
      vertex 0.522642 3 90.9726
    endloop
  endfacet
  facet normal 0 0 1
    outer loop
      vertex 0.522642 -3 90.9726
      vertex -0.522642 3 90.9726
      vertex -0.522642 -3 90.9726
    endloop
  endfacet
  facet normal 0.587785 0 0.809017
    outer loop
      vertex 2.5 3 90.3301
      vertex 3.34565 -3 89.7157
      vertex 3.34565 3 89.7157
    endloop
  endfacet
  facet normal 0.587785 0 0.809017
    outer loop
      vertex 3.34565 -3 89.7157
      vertex 2.5 3 90.3301
      vertex 2.5 -3 90.3301
    endloop
  endfacet
  facet normal 0.40677 0 0.91353
    outer loop
      vertex 1.54508 3 90.7553
      vertex 2.5 -3 90.3301
      vertex 2.5 3 90.3301
    endloop
  endfacet
  facet normal 0.40677 0 0.91353
    outer loop
      vertex 2.5 -3 90.3301
      vertex 1.54508 3 90.7553
      vertex 1.54508 -3 90.7553
    endloop
  endfacet
  facet normal -0.587785 0 0.809017
    outer loop
      vertex -3.34565 3 89.7157
      vertex -2.5 -3 90.3301
      vertex -2.5 3 90.3301
    endloop
  endfacet
  facet normal -0.587785 0 0.809017
    outer loop
      vertex -2.5 -3 90.3301
      vertex -3.34565 3 89.7157
      vertex -3.34565 -3 89.7157
    endloop
  endfacet
  facet normal -0.207888 0 0.978153
    outer loop
      vertex -1.54508 3 90.7553
      vertex -0.522642 -3 90.9726
      vertex -0.522642 3 90.9726
    endloop
  endfacet
  facet normal -0.207888 0 0.978153
    outer loop
      vertex -0.522642 -3 90.9726
      vertex -1.54508 3 90.7553
      vertex -1.54508 -3 90.7553
    endloop
  endfacet
  facet normal 0.866012 -0 0.500023
    outer loop
      vertex 4.04508 -3 88.9389
      vertex 4.56773 3 88.0337
      vertex 4.04508 3 88.9389
    endloop
  endfacet
  facet normal 0.866012 0 0.500023
    outer loop
      vertex 4.56773 3 88.0337
      vertex 4.04508 -3 88.9389
      vertex 4.56773 -3 88.0337
    endloop
  endfacet
  facet normal 0.951054 -0 0.309023
    outer loop
      vertex 4.56773 -3 88.0337
      vertex 4.89074 3 87.0396
      vertex 4.56773 3 88.0337
    endloop
  endfacet
  facet normal 0.951054 0 0.309023
    outer loop
      vertex 4.89074 3 87.0396
      vertex 4.56773 -3 88.0337
      vertex 4.89074 -3 87.0396
    endloop
  endfacet
  facet normal 0.743147 -0 0.669129
    outer loop
      vertex 3.34565 -3 89.7157
      vertex 4.04508 3 88.9389
      vertex 3.34565 3 89.7157
    endloop
  endfacet
  facet normal 0.743147 0 0.669129
    outer loop
      vertex 4.04508 3 88.9389
      vertex 3.34565 -3 89.7157
      vertex 4.04508 -3 88.9389
    endloop
  endfacet
  facet normal 0.207888 0 0.978153
    outer loop
      vertex 0.522642 3 90.9726
      vertex 1.54508 -3 90.7553
      vertex 1.54508 3 90.7553
    endloop
  endfacet
  facet normal 0.207888 0 0.978153
    outer loop
      vertex 1.54508 -3 90.7553
      vertex 0.522642 3 90.9726
      vertex 0.522642 -3 90.9726
    endloop
  endfacet
  facet normal -0.866012 0 0.500023
    outer loop
      vertex -4.56773 -3 88.0337
      vertex -4.04508 3 88.9389
      vertex -4.56773 3 88.0337
    endloop
  endfacet
  facet normal -0.866012 0 0.500023
    outer loop
      vertex -4.04508 3 88.9389
      vertex -4.56773 -3 88.0337
      vertex -4.04508 -3 88.9389
    endloop
  endfacet
  facet normal -0.743147 0 0.669129
    outer loop
      vertex -4.04508 -3 88.9389
      vertex -3.34565 3 89.7157
      vertex -4.04508 3 88.9389
    endloop
  endfacet
  facet normal -0.743147 0 0.669129
    outer loop
      vertex -3.34565 3 89.7157
      vertex -4.04508 -3 88.9389
      vertex -3.34565 -3 89.7157
    endloop
  endfacet
  facet normal -0.951054 0 0.309023
    outer loop
      vertex -4.89074 -3 87.0396
      vertex -4.56773 3 88.0337
      vertex -4.89074 3 87.0396
    endloop
  endfacet
  facet normal -0.951054 0 0.309023
    outer loop
      vertex -4.56773 3 88.0337
      vertex -4.89074 -3 87.0396
      vertex -4.56773 -3 88.0337
    endloop
  endfacet
  facet normal -0.40677 0 0.91353
    outer loop
      vertex -2.5 3 90.3301
      vertex -1.54508 -3 90.7553
      vertex -1.54508 3 90.7553
    endloop
  endfacet
  facet normal -0.40677 0 0.91353
    outer loop
      vertex -1.54508 -3 90.7553
      vertex -2.5 3 90.3301
      vertex -2.5 -3 90.3301
    endloop
  endfacet
  facet normal 0.994523 0 -0.104522
    outer loop
      vertex 5 -3 86
      vertex 4.89074 3 84.9604
      vertex 5 3 86
    endloop
  endfacet
  facet normal 0.994523 0 -0.104522
    outer loop
      vertex 4.89074 3 84.9604
      vertex 5 -3 86
      vertex 4.89074 -3 84.9604
    endloop
  endfacet
  facet normal -0.207888 0 -0.978153
    outer loop
      vertex -1.54508 0 81.2447
      vertex -0.522642 3 81.0274
      vertex -0.522642 0 81.0274
    endloop
  endfacet
  facet normal -0.207888 0 -0.978153
    outer loop
      vertex -0.522642 3 81.0274
      vertex -1.54508 0 81.2447
      vertex -1.54508 3 81.2447
    endloop
  endfacet
  facet normal -0.207888 0 -0.978153
    outer loop
      vertex -1.54508 -3 81.2447
      vertex -0.522642 -1 81.0274
      vertex -0.522642 -3 81.0274
    endloop
  endfacet
  facet normal -0.207888 0 -0.978153
    outer loop
      vertex -0.522642 -1 81.0274
      vertex -1.54508 -3 81.2447
      vertex -1.54508 -1 81.2447
    endloop
  endfacet
  facet normal 0.207888 0 -0.978153
    outer loop
      vertex 0.522642 -3 81.0274
      vertex 1.54508 -1 81.2447
      vertex 1.54508 -3 81.2447
    endloop
  endfacet
  facet normal 0.207888 0 -0.978153
    outer loop
      vertex 1.54508 -1 81.2447
      vertex 0.522642 -3 81.0274
      vertex 0.522642 -1 81.0274
    endloop
  endfacet
  facet normal 0.207888 0 -0.978153
    outer loop
      vertex 0.522642 0 81.0274
      vertex 1.54508 3 81.2447
      vertex 1.54508 0 81.2447
    endloop
  endfacet
  facet normal 0.207888 0 -0.978153
    outer loop
      vertex 1.54508 3 81.2447
      vertex 0.522642 0 81.0274
      vertex 0.522642 3 81.0274
    endloop
  endfacet
  facet normal 0.743294 0 -0.668965
    outer loop
      vertex 4.04508 -3 83.0611
      vertex 3.99009 3 83
      vertex 4.04508 3 83.0611
    endloop
  endfacet
  facet normal 0.743294 0 -0.668965
    outer loop
      vertex 3.99009 3 83
      vertex 4.04508 -3 83.0611
      vertex 3.99009 -3 83
    endloop
  endfacet
  facet normal 0.951054 0 -0.309023
    outer loop
      vertex 4.89074 -3 84.9604
      vertex 4.56773 3 83.9663
      vertex 4.89074 3 84.9604
    endloop
  endfacet
  facet normal 0.951054 0 -0.309023
    outer loop
      vertex 4.56773 3 83.9663
      vertex 4.89074 -3 84.9604
      vertex 4.56773 -3 83.9663
    endloop
  endfacet
  facet normal 0.866012 0 -0.500023
    outer loop
      vertex 4.56773 -3 83.9663
      vertex 4.04508 3 83.0611
      vertex 4.56773 3 83.9663
    endloop
  endfacet
  facet normal 0.866012 0 -0.500023
    outer loop
      vertex 4.04508 3 83.0611
      vertex 4.56773 -3 83.9663
      vertex 4.04508 -3 83.0611
    endloop
  endfacet
  facet normal -0.866012 0 -0.500023
    outer loop
      vertex -4.04508 -3 83.0611
      vertex -4.56773 3 83.9663
      vertex -4.04508 3 83.0611
    endloop
  endfacet
  facet normal -0.866012 -0 -0.500023
    outer loop
      vertex -4.56773 3 83.9663
      vertex -4.04508 -3 83.0611
      vertex -4.56773 -3 83.9663
    endloop
  endfacet
  facet normal -0.994523 0 -0.104522
    outer loop
      vertex -4.89074 -3 84.9604
      vertex -5 3 86
      vertex -4.89074 3 84.9604
    endloop
  endfacet
  facet normal -0.994523 -0 -0.104522
    outer loop
      vertex -5 3 86
      vertex -4.89074 -3 84.9604
      vertex -5 -3 86
    endloop
  endfacet
  facet normal -0.951054 0 -0.309023
    outer loop
      vertex -4.56773 -3 83.9663
      vertex -4.89074 3 84.9604
      vertex -4.56773 3 83.9663
    endloop
  endfacet
  facet normal -0.951054 -0 -0.309023
    outer loop
      vertex -4.89074 3 84.9604
      vertex -4.56773 -3 83.9663
      vertex -4.89074 -3 84.9604
    endloop
  endfacet
  facet normal 0.587801 0 -0.809006
    outer loop
      vertex 2.5 0 81.6699
      vertex 3.2 3 82.1785
      vertex 3.2 0 82.1785
    endloop
  endfacet
  facet normal 0.587801 0 -0.809006
    outer loop
      vertex 3.2 3 82.1785
      vertex 2.5 0 81.6699
      vertex 2.5 3 81.6699
    endloop
  endfacet
  facet normal 0.587801 0 -0.809006
    outer loop
      vertex 2.5 -3 81.6699
      vertex 3.2 -1 82.1785
      vertex 3.2 -3 82.1785
    endloop
  endfacet
  facet normal 0.587801 0 -0.809006
    outer loop
      vertex 3.2 -1 82.1785
      vertex 2.5 -3 81.6699
      vertex 2.5 -1 81.6699
    endloop
  endfacet
  facet normal 0.40677 0 -0.91353
    outer loop
      vertex 1.54508 -3 81.2447
      vertex 2.5 -1 81.6699
      vertex 2.5 -3 81.6699
    endloop
  endfacet
  facet normal 0.40677 0 -0.91353
    outer loop
      vertex 2.5 -1 81.6699
      vertex 1.54508 -3 81.2447
      vertex 1.54508 -1 81.2447
    endloop
  endfacet
  facet normal 0.40677 0 -0.91353
    outer loop
      vertex 1.54508 0 81.2447
      vertex 2.5 3 81.6699
      vertex 2.5 0 81.6699
    endloop
  endfacet
  facet normal 0.40677 0 -0.91353
    outer loop
      vertex 2.5 3 81.6699
      vertex 1.54508 0 81.2447
      vertex 1.54508 3 81.2447
    endloop
  endfacet
  facet normal 0 0 -1
    outer loop
      vertex -0.522642 -3 81.0274
      vertex 0.522642 -1 81.0274
      vertex 0.522642 -3 81.0274
    endloop
  endfacet
  facet normal -0 0 -1
    outer loop
      vertex 0.522642 -1 81.0274
      vertex -0.522642 -3 81.0274
      vertex -0.522642 -1 81.0274
    endloop
  endfacet
  facet normal 0 0 -1
    outer loop
      vertex -0.522642 0 81.0274
      vertex 0.522642 3 81.0274
      vertex 0.522642 0 81.0274
    endloop
  endfacet
  facet normal -0 0 -1
    outer loop
      vertex 0.522642 3 81.0274
      vertex -0.522642 0 81.0274
      vertex -0.522642 3 81.0274
    endloop
  endfacet
  facet normal -0.587801 0 -0.809006
    outer loop
      vertex -3.2 0 82.1785
      vertex -2.5 3 81.6699
      vertex -2.5 0 81.6699
    endloop
  endfacet
  facet normal -0.587801 0 -0.809006
    outer loop
      vertex -2.5 3 81.6699
      vertex -3.2 0 82.1785
      vertex -3.2 3 82.1785
    endloop
  endfacet
  facet normal -0.587801 0 -0.809006
    outer loop
      vertex -3.2 -3 82.1785
      vertex -2.5 -1 81.6699
      vertex -2.5 -3 81.6699
    endloop
  endfacet
  facet normal -0.587801 0 -0.809006
    outer loop
      vertex -2.5 -1 81.6699
      vertex -3.2 -3 82.1785
      vertex -3.2 -1 82.1785
    endloop
  endfacet
  facet normal -0.743294 0 -0.668965
    outer loop
      vertex -3.99009 -3 83
      vertex -4.04508 3 83.0611
      vertex -3.99009 3 83
    endloop
  endfacet
  facet normal -0.743294 -0 -0.668965
    outer loop
      vertex -4.04508 3 83.0611
      vertex -3.99009 -3 83
      vertex -4.04508 -3 83.0611
    endloop
  endfacet
  facet normal -0.40677 0 -0.91353
    outer loop
      vertex -2.5 0 81.6699
      vertex -1.54508 3 81.2447
      vertex -1.54508 0 81.2447
    endloop
  endfacet
  facet normal -0.40677 0 -0.91353
    outer loop
      vertex -1.54508 3 81.2447
      vertex -2.5 0 81.6699
      vertex -2.5 3 81.6699
    endloop
  endfacet
  facet normal -0.40677 0 -0.91353
    outer loop
      vertex -2.5 -3 81.6699
      vertex -1.54508 -1 81.2447
      vertex -1.54508 -3 81.2447
    endloop
  endfacet
  facet normal -0.40677 0 -0.91353
    outer loop
      vertex -1.54508 -1 81.2447
      vertex -2.5 -3 81.6699
      vertex -2.5 -1 81.6699
    endloop
  endfacet
  facet normal -0.994522 0 -0.104527
    outer loop
      vertex 2.3 -3 86
      vertex 2.24974 3 86.4782
      vertex 2.3 3 86
    endloop
  endfacet
  facet normal -0.994522 -0 -0.104527
    outer loop
      vertex 2.24974 3 86.4782
      vertex 2.3 -3 86
      vertex 2.24974 -3 86.4782
    endloop
  endfacet
  facet normal 0.994522 0 -0.104527
    outer loop
      vertex -2.24974 -3 86.4782
      vertex -2.3 3 86
      vertex -2.24974 3 86.4782
    endloop
  endfacet
  facet normal 0.994522 0 -0.104527
    outer loop
      vertex -2.3 3 86
      vertex -2.24974 -3 86.4782
      vertex -2.3 -3 86
    endloop
  endfacet
  facet normal 0 0 -1
    outer loop
      vertex -0.240415 -3 88.2874
      vertex 0.240415 3 88.2874
      vertex 0.240415 -3 88.2874
    endloop
  endfacet
  facet normal -0 0 -1
    outer loop
      vertex 0.240415 3 88.2874
      vertex -0.240415 -3 88.2874
      vertex -0.240415 3 88.2874
    endloop
  endfacet
  facet normal -0 0 1
    outer loop
      vertex -0.240415 3 83.7126
      vertex 0.240415 -3 83.7126
      vertex 0.240415 3 83.7126
    endloop
  endfacet
  facet normal 0 0 1
    outer loop
      vertex 0.240415 -3 83.7126
      vertex -0.240415 3 83.7126
      vertex -0.240415 -3 83.7126
    endloop
  endfacet
  facet normal -0.743118 0 -0.66916
    outer loop
      vertex 1.86074 -3 87.3519
      vertex 1.539 3 87.7092
      vertex 1.86074 3 87.3519
    endloop
  endfacet
  facet normal -0.743118 -0 -0.66916
    outer loop
      vertex 1.539 3 87.7092
      vertex 1.86074 -3 87.3519
      vertex 1.539 -3 87.7092
    endloop
  endfacet
  facet normal 0.743118 0 -0.66916
    outer loop
      vertex -1.539 -3 87.7092
      vertex -1.86074 3 87.3519
      vertex -1.539 3 87.7092
    endloop
  endfacet
  facet normal 0.743118 0 -0.66916
    outer loop
      vertex -1.86074 3 87.3519
      vertex -1.539 -3 87.7092
      vertex -1.86074 -3 87.3519
    endloop
  endfacet
  facet normal 0.866024 0 -0.500002
    outer loop
      vertex -1.86074 -3 87.3519
      vertex -2.10115 3 86.9355
      vertex -1.86074 3 87.3519
    endloop
  endfacet
  facet normal 0.866024 0 -0.500002
    outer loop
      vertex -2.10115 3 86.9355
      vertex -1.86074 -3 87.3519
      vertex -2.10115 -3 86.9355
    endloop
  endfacet
  facet normal 0.406612 0 -0.913601
    outer loop
      vertex -1.15 -3 87.9919
      vertex -0.710738 3 88.1874
      vertex -0.710738 -3 88.1874
    endloop
  endfacet
  facet normal 0.406612 0 -0.913601
    outer loop
      vertex -0.710738 3 88.1874
      vertex -1.15 -3 87.9919
      vertex -1.15 3 87.9919
    endloop
  endfacet
  facet normal -0.866024 0 0.500002
    outer loop
      vertex 1.86074 -3 84.6481
      vertex 2.10115 3 85.0645
      vertex 1.86074 3 84.6481
    endloop
  endfacet
  facet normal -0.866024 0 0.500002
    outer loop
      vertex 2.10115 3 85.0645
      vertex 1.86074 -3 84.6481
      vertex 2.10115 -3 85.0645
    endloop
  endfacet
  facet normal -0.866024 0 -0.500002
    outer loop
      vertex 2.10115 -3 86.9355
      vertex 1.86074 3 87.3519
      vertex 2.10115 3 86.9355
    endloop
  endfacet
  facet normal -0.866024 -0 -0.500002
    outer loop
      vertex 1.86074 3 87.3519
      vertex 2.10115 -3 86.9355
      vertex 1.86074 -3 87.3519
    endloop
  endfacet
  facet normal -0.951054 0 -0.309025
    outer loop
      vertex 2.24974 -3 86.4782
      vertex 2.10115 3 86.9355
      vertex 2.24974 3 86.4782
    endloop
  endfacet
  facet normal -0.951054 -0 -0.309025
    outer loop
      vertex 2.10115 3 86.9355
      vertex 2.24974 -3 86.4782
      vertex 2.10115 -3 86.9355
    endloop
  endfacet
  facet normal -0.406612 0 -0.913601
    outer loop
      vertex 0.710738 -3 88.1874
      vertex 1.15 3 87.9919
      vertex 1.15 -3 87.9919
    endloop
  endfacet
  facet normal -0.406612 0 -0.913601
    outer loop
      vertex 1.15 3 87.9919
      vertex 0.710738 -3 88.1874
      vertex 0.710738 3 88.1874
    endloop
  endfacet
  facet normal -0.207971 0 -0.978135
    outer loop
      vertex 0.240415 -3 88.2874
      vertex 0.710738 3 88.1874
      vertex 0.710738 -3 88.1874
    endloop
  endfacet
  facet normal -0.207971 0 -0.978135
    outer loop
      vertex 0.710738 3 88.1874
      vertex 0.240415 -3 88.2874
      vertex 0.240415 3 88.2874
    endloop
  endfacet
  facet normal -0.587887 0 -0.808943
    outer loop
      vertex 1.15 -3 87.9919
      vertex 1.539 3 87.7092
      vertex 1.539 -3 87.7092
    endloop
  endfacet
  facet normal -0.587887 0 -0.808943
    outer loop
      vertex 1.539 3 87.7092
      vertex 1.15 -3 87.9919
      vertex 1.15 3 87.9919
    endloop
  endfacet
  facet normal 0.951054 0 -0.309025
    outer loop
      vertex -2.10115 -3 86.9355
      vertex -2.24974 3 86.4782
      vertex -2.10115 3 86.9355
    endloop
  endfacet
  facet normal 0.951054 0 -0.309025
    outer loop
      vertex -2.24974 3 86.4782
      vertex -2.10115 -3 86.9355
      vertex -2.24974 -3 86.4782
    endloop
  endfacet
  facet normal 0.587887 0 -0.808943
    outer loop
      vertex -1.539 -3 87.7092
      vertex -1.15 3 87.9919
      vertex -1.15 -3 87.9919
    endloop
  endfacet
  facet normal 0.587887 0 -0.808943
    outer loop
      vertex -1.15 3 87.9919
      vertex -1.539 -3 87.7092
      vertex -1.539 3 87.7092
    endloop
  endfacet
  facet normal 0.207971 0 -0.978135
    outer loop
      vertex -0.710738 -3 88.1874
      vertex -0.240415 3 88.2874
      vertex -0.240415 -3 88.2874
    endloop
  endfacet
  facet normal 0.207971 0 -0.978135
    outer loop
      vertex -0.240415 3 88.2874
      vertex -0.710738 -3 88.1874
      vertex -0.710738 3 88.1874
    endloop
  endfacet
  facet normal -0.743118 0 0.66916
    outer loop
      vertex 1.539 -3 84.2908
      vertex 1.86074 3 84.6481
      vertex 1.539 3 84.2908
    endloop
  endfacet
  facet normal -0.743118 0 0.66916
    outer loop
      vertex 1.86074 3 84.6481
      vertex 1.539 -3 84.2908
      vertex 1.86074 -3 84.6481
    endloop
  endfacet
  facet normal -0.951054 0 0.309025
    outer loop
      vertex 2.10115 -3 85.0645
      vertex 2.24974 3 85.5218
      vertex 2.10115 3 85.0645
    endloop
  endfacet
  facet normal -0.951054 0 0.309025
    outer loop
      vertex 2.24974 3 85.5218
      vertex 2.10115 -3 85.0645
      vertex 2.24974 -3 85.5218
    endloop
  endfacet
  facet normal -0.994522 0 0.104527
    outer loop
      vertex 2.24974 -3 85.5218
      vertex 2.3 3 86
      vertex 2.24974 3 85.5218
    endloop
  endfacet
  facet normal -0.994522 0 0.104527
    outer loop
      vertex 2.3 3 86
      vertex 2.24974 -3 85.5218
      vertex 2.3 -3 86
    endloop
  endfacet
  facet normal 0.866024 -0 0.500002
    outer loop
      vertex -2.10115 -3 85.0645
      vertex -1.86074 3 84.6481
      vertex -2.10115 3 85.0645
    endloop
  endfacet
  facet normal 0.866024 0 0.500002
    outer loop
      vertex -1.86074 3 84.6481
      vertex -2.10115 -3 85.0645
      vertex -1.86074 -3 84.6481
    endloop
  endfacet
  facet normal -0.587887 0 0.808943
    outer loop
      vertex 1.15 3 84.0081
      vertex 1.539 -3 84.2908
      vertex 1.539 3 84.2908
    endloop
  endfacet
  facet normal -0.587887 0 0.808943
    outer loop
      vertex 1.539 -3 84.2908
      vertex 1.15 3 84.0081
      vertex 1.15 -3 84.0081
    endloop
  endfacet
  facet normal 0.207971 0 0.978135
    outer loop
      vertex -0.710738 3 83.8126
      vertex -0.240415 -3 83.7126
      vertex -0.240415 3 83.7126
    endloop
  endfacet
  facet normal 0.207971 0 0.978135
    outer loop
      vertex -0.240415 -3 83.7126
      vertex -0.710738 3 83.8126
      vertex -0.710738 -3 83.8126
    endloop
  endfacet
  facet normal 0.406612 0 0.913601
    outer loop
      vertex -1.15 3 84.0081
      vertex -0.710738 -3 83.8126
      vertex -0.710738 3 83.8126
    endloop
  endfacet
  facet normal 0.406612 0 0.913601
    outer loop
      vertex -0.710738 -3 83.8126
      vertex -1.15 3 84.0081
      vertex -1.15 -3 84.0081
    endloop
  endfacet
  facet normal 0.743118 -0 0.66916
    outer loop
      vertex -1.86074 -3 84.6481
      vertex -1.539 3 84.2908
      vertex -1.86074 3 84.6481
    endloop
  endfacet
  facet normal 0.743118 0 0.66916
    outer loop
      vertex -1.539 3 84.2908
      vertex -1.86074 -3 84.6481
      vertex -1.539 -3 84.2908
    endloop
  endfacet
  facet normal 0.951054 -0 0.309025
    outer loop
      vertex -2.24974 -3 85.5218
      vertex -2.10115 3 85.0645
      vertex -2.24974 3 85.5218
    endloop
  endfacet
  facet normal 0.951054 0 0.309025
    outer loop
      vertex -2.10115 3 85.0645
      vertex -2.24974 -3 85.5218
      vertex -2.10115 -3 85.0645
    endloop
  endfacet
  facet normal 0.994522 -0 0.104527
    outer loop
      vertex -2.3 -3 86
      vertex -2.24974 3 85.5218
      vertex -2.3 3 86
    endloop
  endfacet
  facet normal 0.994522 0 0.104527
    outer loop
      vertex -2.24974 3 85.5218
      vertex -2.3 -3 86
      vertex -2.24974 -3 85.5218
    endloop
  endfacet
  facet normal -0.406612 0 0.913601
    outer loop
      vertex 0.710738 3 83.8126
      vertex 1.15 -3 84.0081
      vertex 1.15 3 84.0081
    endloop
  endfacet
  facet normal -0.406612 0 0.913601
    outer loop
      vertex 1.15 -3 84.0081
      vertex 0.710738 3 83.8126
      vertex 0.710738 -3 83.8126
    endloop
  endfacet
  facet normal -0.207971 0 0.978135
    outer loop
      vertex 0.240415 3 83.7126
      vertex 0.710738 -3 83.8126
      vertex 0.710738 3 83.8126
    endloop
  endfacet
  facet normal -0.207971 0 0.978135
    outer loop
      vertex 0.710738 -3 83.8126
      vertex 0.240415 3 83.7126
      vertex 0.240415 -3 83.7126
    endloop
  endfacet
  facet normal 0.587887 0 0.808943
    outer loop
      vertex -1.539 3 84.2908
      vertex -1.15 -3 84.0081
      vertex -1.15 3 84.0081
    endloop
  endfacet
  facet normal 0.587887 0 0.808943
    outer loop
      vertex -1.15 -3 84.0081
      vertex -1.539 3 84.2908
      vertex -1.539 -3 84.2908
    endloop
  endfacet
  facet normal -1 0 0
    outer loop
      vertex -4 -3 3
      vertex -4 3 83
      vertex -4 3 3
    endloop
  endfacet
  facet normal -1 -0 0
    outer loop
      vertex -4 3 83
      vertex -4 -3 3
      vertex -4 -3 83
    endloop
  endfacet
  facet normal -0 0 1
    outer loop
      vertex 3.99009 3 83
      vertex 4 -3 83
      vertex 4 3 83
    endloop
  endfacet
  facet normal 0 0 1
    outer loop
      vertex 4 -3 83
      vertex 3.99009 3 83
      vertex 3.99009 -3 83
    endloop
  endfacet
  facet normal -0 0 1
    outer loop
      vertex -4 3 83
      vertex -3.99009 -3 83
      vertex -3.99009 3 83
    endloop
  endfacet
  facet normal 0 0 1
    outer loop
      vertex -3.99009 -3 83
      vertex -4 3 83
      vertex -4 -3 83
    endloop
  endfacet
  facet normal 1 -0 0
    outer loop
      vertex 4 -3 83
      vertex 4 3 3
      vertex 4 3 83
    endloop
  endfacet
  facet normal 1 0 0
    outer loop
      vertex 4 3 3
      vertex 4 -3 83
      vertex 4 -3 3
    endloop
  endfacet
  facet normal 0 0 -1
    outer loop
      vertex -4 -3 3
      vertex -3.99009 3 3
      vertex -3.99009 -3 3
    endloop
  endfacet
  facet normal -0 0 -1
    outer loop
      vertex -3.99009 3 3
      vertex -4 -3 3
      vertex -4 3 3
    endloop
  endfacet
  facet normal 0 0 -1
    outer loop
      vertex 3.99009 -3 3
      vertex 4 3 3
      vertex 4 -3 3
    endloop
  endfacet
  facet normal -0 0 -1
    outer loop
      vertex 4 3 3
      vertex 3.99009 -3 3
      vertex 3.99009 3 3
    endloop
  endfacet
  facet normal 1 -0 0
    outer loop
      vertex -3.2 0 82.1785
      vertex -3.2 3 3.82155
      vertex -3.2 3 82.1785
    endloop
  endfacet
  facet normal 1 0 0
    outer loop
      vertex -3.2 3 3.82155
      vertex -3.2 0 82.1785
      vertex -3.2 0 3.82155
    endloop
  endfacet
  facet normal -1 0 0
    outer loop
      vertex 3.2 0 3.82155
      vertex 3.2 3 82.1785
      vertex 3.2 3 3.82155
    endloop
  endfacet
  facet normal -1 -0 0
    outer loop
      vertex 3.2 3 82.1785
      vertex 3.2 0 3.82155
      vertex 3.2 0 82.1785
    endloop
  endfacet
  facet normal 0 1 0
    outer loop
      vertex 0.522642 0 81.0274
      vertex 0.522642 0 4.97261
      vertex -0.522642 0 81.0274
    endloop
  endfacet
  facet normal 0 1 0
    outer loop
      vertex 1.54508 0 81.2447
      vertex 0.522642 0 4.97261
      vertex 0.522642 0 81.0274
    endloop
  endfacet
  facet normal 0 1 0
    outer loop
      vertex 1.54508 0 4.75528
      vertex 1.54508 0 81.2447
      vertex 2.5 0 81.6699
    endloop
  endfacet
  facet normal 0 1 0
    outer loop
      vertex 2.5 0 4.33013
      vertex 2.5 0 81.6699
      vertex 3.2 0 82.1785
    endloop
  endfacet
  facet normal 0 1 0
    outer loop
      vertex 1.54508 0 81.2447
      vertex 1.54508 0 4.75528
      vertex 0.522642 0 4.97261
    endloop
  endfacet
  facet normal 0 1 0
    outer loop
      vertex 2.5 0 81.6699
      vertex 2.5 0 4.33013
      vertex 1.54508 0 4.75528
    endloop
  endfacet
  facet normal -0 1 0
    outer loop
      vertex 2.5 0 4.33013
      vertex 3.2 0 82.1785
      vertex 3.2 0 3.82155
    endloop
  endfacet
  facet normal 0 1 0
    outer loop
      vertex -0.522642 0 4.97261
      vertex -0.522642 0 81.0274
      vertex 0.522642 0 4.97261
    endloop
  endfacet
  facet normal 0 1 0
    outer loop
      vertex -0.522642 0 81.0274
      vertex -0.522642 0 4.97261
      vertex -1.54508 0 81.2447
    endloop
  endfacet
  facet normal 0 1 0
    outer loop
      vertex -1.54508 0 4.75528
      vertex -1.54508 0 81.2447
      vertex -0.522642 0 4.97261
    endloop
  endfacet
  facet normal 0 1 0
    outer loop
      vertex -1.54508 0 81.2447
      vertex -1.54508 0 4.75528
      vertex -2.5 0 81.6699
    endloop
  endfacet
  facet normal 0 1 0
    outer loop
      vertex -2.5 0 4.33013
      vertex -2.5 0 81.6699
      vertex -1.54508 0 4.75528
    endloop
  endfacet
  facet normal 0 1 0
    outer loop
      vertex -2.5 0 81.6699
      vertex -2.5 0 4.33013
      vertex -3.2 0 82.1785
    endloop
  endfacet
  facet normal 0 1 0
    outer loop
      vertex -3.2 0 82.1785
      vertex -2.5 0 4.33013
      vertex -3.2 0 3.82155
    endloop
  endfacet
  facet normal 1 -0 0
    outer loop
      vertex -3.2 -3 82.1785
      vertex -3.2 -1 3.82155
      vertex -3.2 -1 82.1785
    endloop
  endfacet
  facet normal 1 0 0
    outer loop
      vertex -3.2 -1 3.82155
      vertex -3.2 -3 82.1785
      vertex -3.2 -3 3.82155
    endloop
  endfacet
  facet normal -1 0 0
    outer loop
      vertex 3.2 -3 3.82155
      vertex 3.2 -1 82.1785
      vertex 3.2 -1 3.82155
    endloop
  endfacet
  facet normal -1 -0 0
    outer loop
      vertex 3.2 -1 82.1785
      vertex 3.2 -3 3.82155
      vertex 3.2 -3 82.1785
    endloop
  endfacet
  facet normal 0 -1 0
    outer loop
      vertex -0.522642 -1 81.0274
      vertex -0.522642 -1 4.97261
      vertex 0.522642 -1 81.0274
    endloop
  endfacet
  facet normal 0 -1 0
    outer loop
      vertex -1.54508 -1 81.2447
      vertex -0.522642 -1 4.97261
      vertex -0.522642 -1 81.0274
    endloop
  endfacet
  facet normal 0 -1 0
    outer loop
      vertex -1.54508 -1 4.75528
      vertex -1.54508 -1 81.2447
      vertex -2.5 -1 81.6699
    endloop
  endfacet
  facet normal 0 -1 0
    outer loop
      vertex -2.5 -1 4.33013
      vertex -2.5 -1 81.6699
      vertex -3.2 -1 82.1785
    endloop
  endfacet
  facet normal 0 -1 0
    outer loop
      vertex -1.54508 -1 81.2447
      vertex -1.54508 -1 4.75528
      vertex -0.522642 -1 4.97261
    endloop
  endfacet
  facet normal 0 -1 0
    outer loop
      vertex -2.5 -1 81.6699
      vertex -2.5 -1 4.33013
      vertex -1.54508 -1 4.75528
    endloop
  endfacet
  facet normal -0 -1 0
    outer loop
      vertex -2.5 -1 4.33013
      vertex -3.2 -1 82.1785
      vertex -3.2 -1 3.82155
    endloop
  endfacet
  facet normal 0 -1 0
    outer loop
      vertex 0.522642 -1 4.97261
      vertex 0.522642 -1 81.0274
      vertex -0.522642 -1 4.97261
    endloop
  endfacet
  facet normal 0 -1 0
    outer loop
      vertex 0.522642 -1 81.0274
      vertex 0.522642 -1 4.97261
      vertex 1.54508 -1 81.2447
    endloop
  endfacet
  facet normal 0 -1 0
    outer loop
      vertex 1.54508 -1 4.75528
      vertex 1.54508 -1 81.2447
      vertex 0.522642 -1 4.97261
    endloop
  endfacet
  facet normal 0 -1 0
    outer loop
      vertex 1.54508 -1 81.2447
      vertex 1.54508 -1 4.75528
      vertex 2.5 -1 81.6699
    endloop
  endfacet
  facet normal 0 -1 0
    outer loop
      vertex 2.5 -1 4.33013
      vertex 2.5 -1 81.6699
      vertex 1.54508 -1 4.75528
    endloop
  endfacet
  facet normal 0 -1 0
    outer loop
      vertex 2.5 -1 81.6699
      vertex 2.5 -1 4.33013
      vertex 3.2 -1 82.1785
    endloop
  endfacet
  facet normal 0 -1 -0
    outer loop
      vertex 3.2 -1 82.1785
      vertex 2.5 -1 4.33013
      vertex 3.2 -1 3.82155
    endloop
  endfacet
endsolid OpenSCAD_Model
