solid OpenSCAD_Model
  facet normal 0.996919 0.0784382 0
    outer loop
      vertex 12 0 3
      vertex 11.8523 1.87721 0
      vertex 11.8523 1.87721 3
    endloop
  endfacet
  facet normal 0.996919 0.0784382 0
    outer loop
      vertex 11.8523 1.87721 0
      vertex 12 0 3
      vertex 12 0 0
    endloop
  endfacet
  facet normal -0.996919 0.0784382 0
    outer loop
      vertex -12 0 0
      vertex -11.8523 1.87721 3
      vertex -11.8523 1.87721 0
    endloop
  endfacet
  facet normal -0.996919 0.0784382 0
    outer loop
      vertex -11.8523 1.87721 3
      vertex -12 0 0
      vertex -12 0 3
    endloop
  endfacet
  facet normal 0.0784382 0.996919 -0
    outer loop
      vertex 1.87721 11.8523 0
      vertex 0 12 3
      vertex 1.87721 11.8523 3
    endloop
  endfacet
  facet normal 0.0784382 0.996919 0
    outer loop
      vertex 0 12 3
      vertex 1.87721 11.8523 0
      vertex 0 12 0
    endloop
  endfacet
  facet normal 0.760407 0.649447 0
    outer loop
      vertex 9.7082 7.05342 3
      vertex 8.48528 8.48528 0
      vertex 8.48528 8.48528 3
    endloop
  endfacet
  facet normal 0.760407 0.649447 0
    outer loop
      vertex 8.48528 8.48528 0
      vertex 9.7082 7.05342 3
      vertex 9.7082 7.05342 0
    endloop
  endfacet
  facet normal -0.649447 0.760407 0
    outer loop
      vertex -7.05342 9.7082 0
      vertex -8.48528 8.48528 3
      vertex -7.05342 9.7082 3
    endloop
  endfacet
  facet normal -0.649447 0.760407 0
    outer loop
      vertex -8.48528 8.48528 3
      vertex -7.05342 9.7082 0
      vertex -8.48528 8.48528 0
    endloop
  endfacet
  facet normal -0.233454 0.972368 0
    outer loop
      vertex -1.87721 11.8523 0
      vertex -3.7082 11.4127 3
      vertex -1.87721 11.8523 3
    endloop
  endfacet
  facet normal -0.233454 0.972368 0
    outer loop
      vertex -3.7082 11.4127 3
      vertex -1.87721 11.8523 0
      vertex -3.7082 11.4127 0
    endloop
  endfacet
  facet normal 0 0 -1
    outer loop
      vertex 2.3 0 0
      vertex 12 0 0
      vertex 11.8523 -1.87721 0
    endloop
  endfacet
  facet normal 0 0 -1
    outer loop
      vertex 2.12492 -0.880172 0
      vertex 11.8523 -1.87721 0
      vertex 11.4127 -3.7082 0
    endloop
  endfacet
  facet normal 0 0 -1
    outer loop
      vertex 12 0 0
      vertex 2.3 0 0
      vertex 11.8523 1.87721 0
    endloop
  endfacet
  facet normal 0 0 -1
    outer loop
      vertex 2.12492 -0.880172 0
      vertex 11.4127 -3.7082 0
      vertex 10.6921 -5.44789 0
    endloop
  endfacet
  facet normal 0 0 -1
    outer loop
      vertex 2.12492 0.880172 0
      vertex 11.8523 1.87721 0
      vertex 2.3 0 0
    endloop
  endfacet
  facet normal 0 0 -1
    outer loop
      vertex 2.12492 -0.880172 0
      vertex 10.6921 -5.44789 0
      vertex 9.7082 -7.05342 0
    endloop
  endfacet
  facet normal -0 0 -1
    outer loop
      vertex 11.8523 1.87721 0
      vertex 2.12492 0.880172 0
      vertex 11.4127 3.7082 0
    endloop
  endfacet
  facet normal 0 0 -1
    outer loop
      vertex 1.62634 -1.62634 0
      vertex 9.7082 -7.05342 0
      vertex 8.48528 -8.48528 0
    endloop
  endfacet
  facet normal -0 0 -1
    outer loop
      vertex 11.4127 3.7082 0
      vertex 2.12492 0.880172 0
      vertex 10.6921 5.44789 0
    endloop
  endfacet
  facet normal 0 0 -1
    outer loop
      vertex 1.62634 -1.62634 0
      vertex 8.48528 -8.48528 0
      vertex 7.05342 -9.7082 0
    endloop
  endfacet
  facet normal -0 0 -1
    outer loop
      vertex 10.6921 5.44789 0
      vertex 2.12492 0.880172 0
      vertex 9.7082 7.05342 0
    endloop
  endfacet
  facet normal 0 0 -1
    outer loop
      vertex 0.880172 -2.12492 0
      vertex 7.05342 -9.7082 0
      vertex 5.44789 -10.6921 0
    endloop
  endfacet
  facet normal 0 0 -1
    outer loop
      vertex 1.62634 1.62634 0
      vertex 9.7082 7.05342 0
      vertex 2.12492 0.880172 0
    endloop
  endfacet
  facet normal 0 0 -1
    outer loop
      vertex 0.880172 -2.12492 0
      vertex 5.44789 -10.6921 0
      vertex 3.7082 -11.4127 0
    endloop
  endfacet
  facet normal -0 0 -1
    outer loop
      vertex 9.7082 7.05342 0
      vertex 1.62634 1.62634 0
      vertex 8.48528 8.48528 0
    endloop
  endfacet
  facet normal -0 0 -1
    outer loop
      vertex 8.48528 8.48528 0
      vertex 1.62634 1.62634 0
      vertex 7.05342 9.7082 0
    endloop
  endfacet
  facet normal 0 0 -1
    outer loop
      vertex 11.8523 -1.87721 0
      vertex 2.12492 -0.880172 0
      vertex 2.3 0 0
    endloop
  endfacet
  facet normal 0 0 -1
    outer loop
      vertex 0.880172 -2.12492 0
      vertex 3.7082 -11.4127 0
      vertex 1.87721 -11.8523 0
    endloop
  endfacet
  facet normal 0 0 -1
    outer loop
      vertex 9.7082 -7.05342 0
      vertex 1.62634 -1.62634 0
      vertex 2.12492 -0.880172 0
    endloop
  endfacet
  facet normal 0 0 -1
    outer loop
      vertex 7.05342 -9.7082 0
      vertex 0.880172 -2.12492 0
      vertex 1.62634 -1.62634 0
    endloop
  endfacet
  facet normal 0 0 -1
    outer loop
      vertex 0 -2.3 0
      vertex 1.87721 -11.8523 0
      vertex 0 -12 0
    endloop
  endfacet
  facet normal 0 0 -1
    outer loop
      vertex 1.87721 -11.8523 0
      vertex 0 -2.3 0
      vertex 0.880172 -2.12492 0
    endloop
  endfacet
  facet normal 0 0 -1
    outer loop
      vertex -1.87721 -11.8523 0
      vertex 0 -2.3 0
      vertex 0 -12 0
    endloop
  endfacet
  facet normal -0 0 -1
    outer loop
      vertex 0 -2.3 0
      vertex -1.87721 -11.8523 0
      vertex -0.880172 -2.12492 0
    endloop
  endfacet
  facet normal 0 0 -1
    outer loop
      vertex -3.7082 -11.4127 0
      vertex -0.880172 -2.12492 0
      vertex -1.87721 -11.8523 0
    endloop
  endfacet
  facet normal 0 0 -1
    outer loop
      vertex -5.44789 -10.6921 0
      vertex -0.880172 -2.12492 0
      vertex -3.7082 -11.4127 0
    endloop
  endfacet
  facet normal 0 0 -1
    outer loop
      vertex -7.05342 -9.7082 0
      vertex -0.880172 -2.12492 0
      vertex -5.44789 -10.6921 0
    endloop
  endfacet
  facet normal -0 0 -1
    outer loop
      vertex -0.880172 -2.12492 0
      vertex -7.05342 -9.7082 0
      vertex -1.62634 -1.62634 0
    endloop
  endfacet
  facet normal 0 0 -1
    outer loop
      vertex 0.880172 2.12492 0
      vertex 7.05342 9.7082 0
      vertex 1.62634 1.62634 0
    endloop
  endfacet
  facet normal -0 0 -1
    outer loop
      vertex 7.05342 9.7082 0
      vertex 0.880172 2.12492 0
      vertex 5.44789 10.6921 0
    endloop
  endfacet
  facet normal -0 0 -1
    outer loop
      vertex 5.44789 10.6921 0
      vertex 0.880172 2.12492 0
      vertex 3.7082 11.4127 0
    endloop
  endfacet
  facet normal -0 0 -1
    outer loop
      vertex 3.7082 11.4127 0
      vertex 0.880172 2.12492 0
      vertex 1.87721 11.8523 0
    endloop
  endfacet
  facet normal 0 0 -1
    outer loop
      vertex 0 2.3 0
      vertex 1.87721 11.8523 0
      vertex 0.880172 2.12492 0
    endloop
  endfacet
  facet normal 0 0 -1
    outer loop
      vertex 0 2.3 0
      vertex 0 12 0
      vertex 1.87721 11.8523 0
    endloop
  endfacet
  facet normal 0 0 -1
    outer loop
      vertex -1.87721 11.8523 0
      vertex 0 2.3 0
      vertex -0.880172 2.12492 0
    endloop
  endfacet
  facet normal 0 0 -1
    outer loop
      vertex -7.05342 9.7082 0
      vertex -0.880172 2.12492 0
      vertex -1.62634 1.62634 0
    endloop
  endfacet
  facet normal 0 0 -1
    outer loop
      vertex 0 2.3 0
      vertex -1.87721 11.8523 0
      vertex 0 12 0
    endloop
  endfacet
  facet normal 0 0 -1
    outer loop
      vertex -9.7082 7.05342 0
      vertex -1.62634 1.62634 0
      vertex -2.12492 0.880172 0
    endloop
  endfacet
  facet normal 0 0 -1
    outer loop
      vertex -11.8523 1.87721 0
      vertex -2.12492 0.880172 0
      vertex -2.3 0 0
    endloop
  endfacet
  facet normal 0 0 -1
    outer loop
      vertex -8.48528 -8.48528 0
      vertex -1.62634 -1.62634 0
      vertex -7.05342 -9.7082 0
    endloop
  endfacet
  facet normal 0 0 -1
    outer loop
      vertex -0.880172 2.12492 0
      vertex -3.7082 11.4127 0
      vertex -1.87721 11.8523 0
    endloop
  endfacet
  facet normal 0 0 -1
    outer loop
      vertex -9.7082 -7.05342 0
      vertex -1.62634 -1.62634 0
      vertex -8.48528 -8.48528 0
    endloop
  endfacet
  facet normal 0 0 -1
    outer loop
      vertex -0.880172 2.12492 0
      vertex -5.44789 10.6921 0
      vertex -3.7082 11.4127 0
    endloop
  endfacet
  facet normal -0 0 -1
    outer loop
      vertex -1.62634 -1.62634 0
      vertex -9.7082 -7.05342 0
      vertex -2.12492 -0.880172 0
    endloop
  endfacet
  facet normal 0 0 -1
    outer loop
      vertex -0.880172 2.12492 0
      vertex -7.05342 9.7082 0
      vertex -5.44789 10.6921 0
    endloop
  endfacet
  facet normal 0 0 -1
    outer loop
      vertex -10.6921 -5.44789 0
      vertex -2.12492 -0.880172 0
      vertex -9.7082 -7.05342 0
    endloop
  endfacet
  facet normal 0 0 -1
    outer loop
      vertex -1.62634 1.62634 0
      vertex -8.48528 8.48528 0
      vertex -7.05342 9.7082 0
    endloop
  endfacet
  facet normal 0 0 -1
    outer loop
      vertex -11.4127 -3.7082 0
      vertex -2.12492 -0.880172 0
      vertex -10.6921 -5.44789 0
    endloop
  endfacet
  facet normal 0 0 -1
    outer loop
      vertex -1.62634 1.62634 0
      vertex -9.7082 7.05342 0
      vertex -8.48528 8.48528 0
    endloop
  endfacet
  facet normal 0 0 -1
    outer loop
      vertex -11.8523 -1.87721 0
      vertex -2.12492 -0.880172 0
      vertex -11.4127 -3.7082 0
    endloop
  endfacet
  facet normal 0 0 -1
    outer loop
      vertex -2.12492 0.880172 0
      vertex -10.6921 5.44789 0
      vertex -9.7082 7.05342 0
    endloop
  endfacet
  facet normal -0 0 -1
    outer loop
      vertex -2.12492 -0.880172 0
      vertex -11.8523 -1.87721 0
      vertex -2.3 0 0
    endloop
  endfacet
  facet normal 0 0 -1
    outer loop
      vertex -2.12492 0.880172 0
      vertex -11.4127 3.7082 0
      vertex -10.6921 5.44789 0
    endloop
  endfacet
  facet normal 0 0 -1
    outer loop
      vertex -12 0 0
      vertex -2.3 0 0
      vertex -11.8523 -1.87721 0
    endloop
  endfacet
  facet normal 0 0 -1
    outer loop
      vertex -2.12492 0.880172 0
      vertex -11.8523 1.87721 0
      vertex -11.4127 3.7082 0
    endloop
  endfacet
  facet normal 0 0 -1
    outer loop
      vertex -2.3 0 0
      vertex -12 0 0
      vertex -11.8523 1.87721 0
    endloop
  endfacet
  facet normal 0.92388 0.382682 0
    outer loop
      vertex 11.4127 3.7082 3
      vertex 10.6921 5.44789 0
      vertex 10.6921 5.44789 3
    endloop
  endfacet
  facet normal 0.92388 0.382682 0
    outer loop
      vertex 10.6921 5.44789 0
      vertex 11.4127 3.7082 3
      vertex 11.4127 3.7082 0
    endloop
  endfacet
  facet normal 0.972368 0.233454 0
    outer loop
      vertex 11.8523 1.87721 3
      vertex 11.4127 3.7082 0
      vertex 11.4127 3.7082 3
    endloop
  endfacet
  facet normal 0.972368 0.233454 0
    outer loop
      vertex 11.4127 3.7082 0
      vertex 11.8523 1.87721 3
      vertex 11.8523 1.87721 0
    endloop
  endfacet
  facet normal 0.852633 0.52251 0
    outer loop
      vertex 10.6921 5.44789 3
      vertex 9.7082 7.05342 0
      vertex 9.7082 7.05342 3
    endloop
  endfacet
  facet normal 0.852633 0.52251 0
    outer loop
      vertex 9.7082 7.05342 0
      vertex 10.6921 5.44789 3
      vertex 10.6921 5.44789 0
    endloop
  endfacet
  facet normal 0.382682 0.92388 -0
    outer loop
      vertex 5.44789 10.6921 0
      vertex 3.7082 11.4127 3
      vertex 5.44789 10.6921 3
    endloop
  endfacet
  facet normal 0.382682 0.92388 0
    outer loop
      vertex 3.7082 11.4127 3
      vertex 5.44789 10.6921 0
      vertex 3.7082 11.4127 0
    endloop
  endfacet
  facet normal 0.233454 0.972368 -0
    outer loop
      vertex 3.7082 11.4127 0
      vertex 1.87721 11.8523 3
      vertex 3.7082 11.4127 3
    endloop
  endfacet
  facet normal 0.233454 0.972368 0
    outer loop
      vertex 1.87721 11.8523 3
      vertex 3.7082 11.4127 0
      vertex 1.87721 11.8523 0
    endloop
  endfacet
  facet normal 0.649447 0.760407 -0
    outer loop
      vertex 8.48528 8.48528 0
      vertex 7.05342 9.7082 3
      vertex 8.48528 8.48528 3
    endloop
  endfacet
  facet normal 0.649447 0.760407 0
    outer loop
      vertex 7.05342 9.7082 3
      vertex 8.48528 8.48528 0
      vertex 7.05342 9.7082 0
    endloop
  endfacet
  facet normal -0.92388 0.382682 0
    outer loop
      vertex -11.4127 3.7082 0
      vertex -10.6921 5.44789 3
      vertex -10.6921 5.44789 0
    endloop
  endfacet
  facet normal -0.92388 0.382682 0
    outer loop
      vertex -10.6921 5.44789 3
      vertex -11.4127 3.7082 0
      vertex -11.4127 3.7082 3
    endloop
  endfacet
  facet normal -0.760407 0.649447 0
    outer loop
      vertex -9.7082 7.05342 0
      vertex -8.48528 8.48528 3
      vertex -8.48528 8.48528 0
    endloop
  endfacet
  facet normal -0.760407 0.649447 0
    outer loop
      vertex -8.48528 8.48528 3
      vertex -9.7082 7.05342 0
      vertex -9.7082 7.05342 3
    endloop
  endfacet
  facet normal -0.972368 0.233454 0
    outer loop
      vertex -11.8523 1.87721 0
      vertex -11.4127 3.7082 3
      vertex -11.4127 3.7082 0
    endloop
  endfacet
  facet normal -0.972368 0.233454 0
    outer loop
      vertex -11.4127 3.7082 3
      vertex -11.8523 1.87721 0
      vertex -11.8523 1.87721 3
    endloop
  endfacet
  facet normal 0 0 1
    outer loop
      vertex 2.3 0 3
      vertex 12 0 3
      vertex 11.8523 1.87721 3
    endloop
  endfacet
  facet normal 0 0 1
    outer loop
      vertex 2.12492 0.880172 3
      vertex 11.8523 1.87721 3
      vertex 11.4127 3.7082 3
    endloop
  endfacet
  facet normal 0 0 1
    outer loop
      vertex 12 0 3
      vertex 2.3 0 3
      vertex 11.8523 -1.87721 3
    endloop
  endfacet
  facet normal 0 0 1
    outer loop
      vertex 2.12492 0.880172 3
      vertex 11.4127 3.7082 3
      vertex 10.6921 5.44789 3
    endloop
  endfacet
  facet normal -0 0 1
    outer loop
      vertex 2.12492 -0.880172 3
      vertex 11.8523 -1.87721 3
      vertex 2.3 0 3
    endloop
  endfacet
  facet normal 0 0 1
    outer loop
      vertex 2.12492 0.880172 3
      vertex 10.6921 5.44789 3
      vertex 9.7082 7.05342 3
    endloop
  endfacet
  facet normal 0 0 1
    outer loop
      vertex 11.8523 -1.87721 3
      vertex 2.12492 -0.880172 3
      vertex 11.4127 -3.7082 3
    endloop
  endfacet
  facet normal 0 0 1
    outer loop
      vertex 1.62634 1.62634 3
      vertex 9.7082 7.05342 3
      vertex 8.48528 8.48528 3
    endloop
  endfacet
  facet normal 0 0 1
    outer loop
      vertex 11.4127 -3.7082 3
      vertex 2.12492 -0.880172 3
      vertex 10.6921 -5.44789 3
    endloop
  endfacet
  facet normal 0 0 1
    outer loop
      vertex 1.62634 1.62634 3
      vertex 8.48528 8.48528 3
      vertex 7.05342 9.7082 3
    endloop
  endfacet
  facet normal 0 0 1
    outer loop
      vertex 10.6921 -5.44789 3
      vertex 2.12492 -0.880172 3
      vertex 9.7082 -7.05342 3
    endloop
  endfacet
  facet normal 0 0 1
    outer loop
      vertex 0.880172 2.12492 3
      vertex 7.05342 9.7082 3
      vertex 5.44789 10.6921 3
    endloop
  endfacet
  facet normal -0 0 1
    outer loop
      vertex 1.62634 -1.62634 3
      vertex 9.7082 -7.05342 3
      vertex 2.12492 -0.880172 3
    endloop
  endfacet
  facet normal 0 0 1
    outer loop
      vertex 0.880172 2.12492 3
      vertex 5.44789 10.6921 3
      vertex 3.7082 11.4127 3
    endloop
  endfacet
  facet normal 0 0 1
    outer loop
      vertex 9.7082 -7.05342 3
      vertex 1.62634 -1.62634 3
      vertex 8.48528 -8.48528 3
    endloop
  endfacet
  facet normal 0 0 1
    outer loop
      vertex 8.48528 -8.48528 3
      vertex 1.62634 -1.62634 3
      vertex 7.05342 -9.7082 3
    endloop
  endfacet
  facet normal 0 0 1
    outer loop
      vertex 11.8523 1.87721 3
      vertex 2.12492 0.880172 3
      vertex 2.3 0 3
    endloop
  endfacet
  facet normal 0 0 1
    outer loop
      vertex 0.880172 2.12492 3
      vertex 3.7082 11.4127 3
      vertex 1.87721 11.8523 3
    endloop
  endfacet
  facet normal 0 0 1
    outer loop
      vertex 9.7082 7.05342 3
      vertex 1.62634 1.62634 3
      vertex 2.12492 0.880172 3
    endloop
  endfacet
  facet normal 0 0 1
    outer loop
      vertex 7.05342 9.7082 3
      vertex 0.880172 2.12492 3
      vertex 1.62634 1.62634 3
    endloop
  endfacet
  facet normal 0 0 1
    outer loop
      vertex 0 2.3 3
      vertex 1.87721 11.8523 3
      vertex 0 12 3
    endloop
  endfacet
  facet normal 0 0 1
    outer loop
      vertex 1.87721 11.8523 3
      vertex 0 2.3 3
      vertex 0.880172 2.12492 3
    endloop
  endfacet
  facet normal -0 0 1
    outer loop
      vertex -1.87721 11.8523 3
      vertex 0 2.3 3
      vertex 0 12 3
    endloop
  endfacet
  facet normal 0 0 1
    outer loop
      vertex 0 2.3 3
      vertex -1.87721 11.8523 3
      vertex -0.880172 2.12492 3
    endloop
  endfacet
  facet normal -0 0 1
    outer loop
      vertex -3.7082 11.4127 3
      vertex -0.880172 2.12492 3
      vertex -1.87721 11.8523 3
    endloop
  endfacet
  facet normal -0 0 1
    outer loop
      vertex -5.44789 10.6921 3
      vertex -0.880172 2.12492 3
      vertex -3.7082 11.4127 3
    endloop
  endfacet
  facet normal -0 0 1
    outer loop
      vertex -7.05342 9.7082 3
      vertex -0.880172 2.12492 3
      vertex -5.44789 10.6921 3
    endloop
  endfacet
  facet normal 0 0 1
    outer loop
      vertex -0.880172 2.12492 3
      vertex -7.05342 9.7082 3
      vertex -1.62634 1.62634 3
    endloop
  endfacet
  facet normal -0 0 1
    outer loop
      vertex 0.880172 -2.12492 3
      vertex 7.05342 -9.7082 3
      vertex 1.62634 -1.62634 3
    endloop
  endfacet
  facet normal 0 0 1
    outer loop
      vertex 7.05342 -9.7082 3
      vertex 0.880172 -2.12492 3
      vertex 5.44789 -10.6921 3
    endloop
  endfacet
  facet normal 0 0 1
    outer loop
      vertex 5.44789 -10.6921 3
      vertex 0.880172 -2.12492 3
      vertex 3.7082 -11.4127 3
    endloop
  endfacet
  facet normal 0 0 1
    outer loop
      vertex 3.7082 -11.4127 3
      vertex 0.880172 -2.12492 3
      vertex 1.87721 -11.8523 3
    endloop
  endfacet
  facet normal -0 0 1
    outer loop
      vertex 0 -2.3 3
      vertex 1.87721 -11.8523 3
      vertex 0.880172 -2.12492 3
    endloop
  endfacet
  facet normal 0 0 1
    outer loop
      vertex 0 -2.3 3
      vertex 0 -12 3
      vertex 1.87721 -11.8523 3
    endloop
  endfacet
  facet normal 0 0 1
    outer loop
      vertex -1.87721 -11.8523 3
      vertex 0 -2.3 3
      vertex -0.880172 -2.12492 3
    endloop
  endfacet
  facet normal 0 0 1
    outer loop
      vertex -7.05342 -9.7082 3
      vertex -0.880172 -2.12492 3
      vertex -1.62634 -1.62634 3
    endloop
  endfacet
  facet normal 0 0 1
    outer loop
      vertex 0 -2.3 3
      vertex -1.87721 -11.8523 3
      vertex 0 -12 3
    endloop
  endfacet
  facet normal 0 0 1
    outer loop
      vertex -9.7082 -7.05342 3
      vertex -1.62634 -1.62634 3
      vertex -2.12492 -0.880172 3
    endloop
  endfacet
  facet normal 0 0 1
    outer loop
      vertex -11.8523 -1.87721 3
      vertex -2.12492 -0.880172 3
      vertex -2.3 0 3
    endloop
  endfacet
  facet normal -0 0 1
    outer loop
      vertex -8.48528 8.48528 3
      vertex -1.62634 1.62634 3
      vertex -7.05342 9.7082 3
    endloop
  endfacet
  facet normal 0 0 1
    outer loop
      vertex -0.880172 -2.12492 3
      vertex -3.7082 -11.4127 3
      vertex -1.87721 -11.8523 3
    endloop
  endfacet
  facet normal -0 0 1
    outer loop
      vertex -9.7082 7.05342 3
      vertex -1.62634 1.62634 3
      vertex -8.48528 8.48528 3
    endloop
  endfacet
  facet normal 0 0 1
    outer loop
      vertex -0.880172 -2.12492 3
      vertex -5.44789 -10.6921 3
      vertex -3.7082 -11.4127 3
    endloop
  endfacet
  facet normal 0 0 1
    outer loop
      vertex -1.62634 1.62634 3
      vertex -9.7082 7.05342 3
      vertex -2.12492 0.880172 3
    endloop
  endfacet
  facet normal 0 0 1
    outer loop
      vertex -0.880172 -2.12492 3
      vertex -7.05342 -9.7082 3
      vertex -5.44789 -10.6921 3
    endloop
  endfacet
  facet normal -0 0 1
    outer loop
      vertex -10.6921 5.44789 3
      vertex -2.12492 0.880172 3
      vertex -9.7082 7.05342 3
    endloop
  endfacet
  facet normal 0 0 1
    outer loop
      vertex -1.62634 -1.62634 3
      vertex -8.48528 -8.48528 3
      vertex -7.05342 -9.7082 3
    endloop
  endfacet
  facet normal -0 0 1
    outer loop
      vertex -11.4127 3.7082 3
      vertex -2.12492 0.880172 3
      vertex -10.6921 5.44789 3
    endloop
  endfacet
  facet normal 0 0 1
    outer loop
      vertex -1.62634 -1.62634 3
      vertex -9.7082 -7.05342 3
      vertex -8.48528 -8.48528 3
    endloop
  endfacet
  facet normal -0 0 1
    outer loop
      vertex -11.8523 1.87721 3
      vertex -2.12492 0.880172 3
      vertex -11.4127 3.7082 3
    endloop
  endfacet
  facet normal 0 0 1
    outer loop
      vertex -2.12492 -0.880172 3
      vertex -10.6921 -5.44789 3
      vertex -9.7082 -7.05342 3
    endloop
  endfacet
  facet normal 0 0 1
    outer loop
      vertex -2.12492 0.880172 3
      vertex -11.8523 1.87721 3
      vertex -2.3 0 3
    endloop
  endfacet
  facet normal 0 0 1
    outer loop
      vertex -2.12492 -0.880172 3
      vertex -11.4127 -3.7082 3
      vertex -10.6921 -5.44789 3
    endloop
  endfacet
  facet normal 0 0 1
    outer loop
      vertex -12 0 3
      vertex -2.3 0 3
      vertex -11.8523 1.87721 3
    endloop
  endfacet
  facet normal 0 0 1
    outer loop
      vertex -2.12492 -0.880172 3
      vertex -11.8523 -1.87721 3
      vertex -11.4127 -3.7082 3
    endloop
  endfacet
  facet normal 0 0 1
    outer loop
      vertex -2.3 0 3
      vertex -12 0 3
      vertex -11.8523 -1.87721 3
    endloop
  endfacet
  facet normal -0.0784382 0.996919 0
    outer loop
      vertex 0 12 0
      vertex -1.87721 11.8523 3
      vertex 0 12 3
    endloop
  endfacet
  facet normal -0.0784382 0.996919 0
    outer loop
      vertex -1.87721 11.8523 3
      vertex 0 12 0
      vertex -1.87721 11.8523 0
    endloop
  endfacet
  facet normal 0.996919 -0.0784382 0
    outer loop
      vertex 11.8523 -1.87721 3
      vertex 12 0 0
      vertex 12 0 3
    endloop
  endfacet
  facet normal 0.996919 -0.0784382 0
    outer loop
      vertex 12 0 0
      vertex 11.8523 -1.87721 3
      vertex 11.8523 -1.87721 0
    endloop
  endfacet
  facet normal 0.52251 -0.852633 0
    outer loop
      vertex 5.44789 -10.6921 0
      vertex 7.05342 -9.7082 3
      vertex 5.44789 -10.6921 3
    endloop
  endfacet
  facet normal 0.52251 -0.852633 0
    outer loop
      vertex 7.05342 -9.7082 3
      vertex 5.44789 -10.6921 0
      vertex 7.05342 -9.7082 0
    endloop
  endfacet
  facet normal -0.649447 -0.760407 0
    outer loop
      vertex -8.48528 -8.48528 0
      vertex -7.05342 -9.7082 3
      vertex -8.48528 -8.48528 3
    endloop
  endfacet
  facet normal -0.649447 -0.760407 -0
    outer loop
      vertex -7.05342 -9.7082 3
      vertex -8.48528 -8.48528 0
      vertex -7.05342 -9.7082 0
    endloop
  endfacet
  facet normal -0.233454 -0.972368 0
    outer loop
      vertex -3.7082 -11.4127 0
      vertex -1.87721 -11.8523 3
      vertex -3.7082 -11.4127 3
    endloop
  endfacet
  facet normal -0.233454 -0.972368 -0
    outer loop
      vertex -1.87721 -11.8523 3
      vertex -3.7082 -11.4127 0
      vertex -1.87721 -11.8523 0
    endloop
  endfacet
  facet normal -0.996919 -0.0784382 0
    outer loop
      vertex -11.8523 -1.87721 0
      vertex -12 0 3
      vertex -12 0 0
    endloop
  endfacet
  facet normal -0.996919 -0.0784382 0
    outer loop
      vertex -12 0 3
      vertex -11.8523 -1.87721 0
      vertex -11.8523 -1.87721 3
    endloop
  endfacet
  facet normal 0.52251 0.852633 -0
    outer loop
      vertex 7.05342 9.7082 0
      vertex 5.44789 10.6921 3
      vertex 7.05342 9.7082 3
    endloop
  endfacet
  facet normal 0.52251 0.852633 0
    outer loop
      vertex 5.44789 10.6921 3
      vertex 7.05342 9.7082 0
      vertex 5.44789 10.6921 0
    endloop
  endfacet
  facet normal -0.852633 0.52251 0
    outer loop
      vertex -10.6921 5.44789 0
      vertex -9.7082 7.05342 3
      vertex -9.7082 7.05342 0
    endloop
  endfacet
  facet normal -0.852633 0.52251 0
    outer loop
      vertex -9.7082 7.05342 3
      vertex -10.6921 5.44789 0
      vertex -10.6921 5.44789 3
    endloop
  endfacet
  facet normal -0.382682 0.92388 0
    outer loop
      vertex -3.7082 11.4127 0
      vertex -5.44789 10.6921 3
      vertex -3.7082 11.4127 3
    endloop
  endfacet
  facet normal -0.382682 0.92388 0
    outer loop
      vertex -5.44789 10.6921 3
      vertex -3.7082 11.4127 0
      vertex -5.44789 10.6921 0
    endloop
  endfacet
  facet normal -0.52251 0.852633 0
    outer loop
      vertex -5.44789 10.6921 0
      vertex -7.05342 9.7082 3
      vertex -5.44789 10.6921 3
    endloop
  endfacet
  facet normal -0.52251 0.852633 0
    outer loop
      vertex -7.05342 9.7082 3
      vertex -5.44789 10.6921 0
      vertex -7.05342 9.7082 0
    endloop
  endfacet
  facet normal 0.0784382 -0.996919 0
    outer loop
      vertex 0 -12 0
      vertex 1.87721 -11.8523 3
      vertex 0 -12 3
    endloop
  endfacet
  facet normal 0.0784382 -0.996919 0
    outer loop
      vertex 1.87721 -11.8523 3
      vertex 0 -12 0
      vertex 1.87721 -11.8523 0
    endloop
  endfacet
  facet normal 0.382682 -0.92388 0
    outer loop
      vertex 3.7082 -11.4127 0
      vertex 5.44789 -10.6921 3
      vertex 3.7082 -11.4127 3
    endloop
  endfacet
  facet normal 0.382682 -0.92388 0
    outer loop
      vertex 5.44789 -10.6921 3
      vertex 3.7082 -11.4127 0
      vertex 5.44789 -10.6921 0
    endloop
  endfacet
  facet normal 0.649447 -0.760407 0
    outer loop
      vertex 7.05342 -9.7082 0
      vertex 8.48528 -8.48528 3
      vertex 7.05342 -9.7082 3
    endloop
  endfacet
  facet normal 0.649447 -0.760407 0
    outer loop
      vertex 8.48528 -8.48528 3
      vertex 7.05342 -9.7082 0
      vertex 8.48528 -8.48528 0
    endloop
  endfacet
  facet normal 0.972368 -0.233454 0
    outer loop
      vertex 11.4127 -3.7082 3
      vertex 11.8523 -1.87721 0
      vertex 11.8523 -1.87721 3
    endloop
  endfacet
  facet normal 0.972368 -0.233454 0
    outer loop
      vertex 11.8523 -1.87721 0
      vertex 11.4127 -3.7082 3
      vertex 11.4127 -3.7082 0
    endloop
  endfacet
  facet normal 0.852633 -0.52251 0
    outer loop
      vertex 9.7082 -7.05342 3
      vertex 10.6921 -5.44789 0
      vertex 10.6921 -5.44789 3
    endloop
  endfacet
  facet normal 0.852633 -0.52251 0
    outer loop
      vertex 10.6921 -5.44789 0
      vertex 9.7082 -7.05342 3
      vertex 9.7082 -7.05342 0
    endloop
  endfacet
  facet normal -0.52251 -0.852633 0
    outer loop
      vertex -7.05342 -9.7082 0
      vertex -5.44789 -10.6921 3
      vertex -7.05342 -9.7082 3
    endloop
  endfacet
  facet normal -0.52251 -0.852633 -0
    outer loop
      vertex -5.44789 -10.6921 3
      vertex -7.05342 -9.7082 0
      vertex -5.44789 -10.6921 0
    endloop
  endfacet
  facet normal -0.0784382 -0.996919 0
    outer loop
      vertex -1.87721 -11.8523 0
      vertex 0 -12 3
      vertex -1.87721 -11.8523 3
    endloop
  endfacet
  facet normal -0.0784382 -0.996919 -0
    outer loop
      vertex 0 -12 3
      vertex -1.87721 -11.8523 0
      vertex 0 -12 0
    endloop
  endfacet
  facet normal -0.92388 -0.382682 0
    outer loop
      vertex -10.6921 -5.44789 0
      vertex -11.4127 -3.7082 3
      vertex -11.4127 -3.7082 0
    endloop
  endfacet
  facet normal -0.92388 -0.382682 0
    outer loop
      vertex -11.4127 -3.7082 3
      vertex -10.6921 -5.44789 0
      vertex -10.6921 -5.44789 3
    endloop
  endfacet
  facet normal -0.760407 -0.649447 0
    outer loop
      vertex -8.48528 -8.48528 0
      vertex -9.7082 -7.05342 3
      vertex -9.7082 -7.05342 0
    endloop
  endfacet
  facet normal -0.760407 -0.649447 0
    outer loop
      vertex -9.7082 -7.05342 3
      vertex -8.48528 -8.48528 0
      vertex -8.48528 -8.48528 3
    endloop
  endfacet
  facet normal -0.972368 -0.233454 0
    outer loop
      vertex -11.4127 -3.7082 0
      vertex -11.8523 -1.87721 3
      vertex -11.8523 -1.87721 0
    endloop
  endfacet
  facet normal -0.972368 -0.233454 0
    outer loop
      vertex -11.8523 -1.87721 3
      vertex -11.4127 -3.7082 0
      vertex -11.4127 -3.7082 3
    endloop
  endfacet
  facet normal 0.233454 -0.972368 0
    outer loop
      vertex 1.87721 -11.8523 0
      vertex 3.7082 -11.4127 3
      vertex 1.87721 -11.8523 3
    endloop
  endfacet
  facet normal 0.233454 -0.972368 0
    outer loop
      vertex 3.7082 -11.4127 3
      vertex 1.87721 -11.8523 0
      vertex 3.7082 -11.4127 0
    endloop
  endfacet
  facet normal 0.760407 -0.649447 0
    outer loop
      vertex 8.48528 -8.48528 3
      vertex 9.7082 -7.05342 0
      vertex 9.7082 -7.05342 3
    endloop
  endfacet
  facet normal 0.760407 -0.649447 0
    outer loop
      vertex 9.7082 -7.05342 0
      vertex 8.48528 -8.48528 3
      vertex 8.48528 -8.48528 0
    endloop
  endfacet
  facet normal 0.92388 -0.382682 0
    outer loop
      vertex 10.6921 -5.44789 3
      vertex 11.4127 -3.7082 0
      vertex 11.4127 -3.7082 3
    endloop
  endfacet
  facet normal 0.92388 -0.382682 0
    outer loop
      vertex 11.4127 -3.7082 0
      vertex 10.6921 -5.44789 3
      vertex 10.6921 -5.44789 0
    endloop
  endfacet
  facet normal -0.382682 -0.92388 0
    outer loop
      vertex -5.44789 -10.6921 0
      vertex -3.7082 -11.4127 3
      vertex -5.44789 -10.6921 3
    endloop
  endfacet
  facet normal -0.382682 -0.92388 -0
    outer loop
      vertex -3.7082 -11.4127 3
      vertex -5.44789 -10.6921 0
      vertex -3.7082 -11.4127 0
    endloop
  endfacet
  facet normal -0.852633 -0.52251 0
    outer loop
      vertex -9.7082 -7.05342 0
      vertex -10.6921 -5.44789 3
      vertex -10.6921 -5.44789 0
    endloop
  endfacet
  facet normal -0.852633 -0.52251 0
    outer loop
      vertex -10.6921 -5.44789 3
      vertex -9.7082 -7.05342 0
      vertex -9.7082 -7.05342 3
    endloop
  endfacet
  facet normal -0.980785 -0.195093 0
    outer loop
      vertex 2.3 0 0
      vertex 2.12492 0.880172 3
      vertex 2.12492 0.880172 0
    endloop
  endfacet
  facet normal -0.980785 -0.195093 0
    outer loop
      vertex 2.12492 0.880172 3
      vertex 2.3 0 0
      vertex 2.3 0 3
    endloop
  endfacet
  facet normal 0.980785 -0.195093 0
    outer loop
      vertex -2.3 0 3
      vertex -2.12492 0.880172 0
      vertex -2.12492 0.880172 3
    endloop
  endfacet
  facet normal 0.980785 -0.195093 0
    outer loop
      vertex -2.12492 0.880172 0
      vertex -2.3 0 3
      vertex -2.3 0 0
    endloop
  endfacet
  facet normal 0.195093 -0.980785 0
    outer loop
      vertex -0.880172 2.12492 0
      vertex 0 2.3 3
      vertex -0.880172 2.12492 3
    endloop
  endfacet
  facet normal 0.195093 -0.980785 0
    outer loop
      vertex 0 2.3 3
      vertex -0.880172 2.12492 0
      vertex 0 2.3 0
    endloop
  endfacet
  facet normal -0.195093 0.980785 0
    outer loop
      vertex 0.880172 -2.12492 0
      vertex 0 -2.3 3
      vertex 0.880172 -2.12492 3
    endloop
  endfacet
  facet normal -0.195093 0.980785 0
    outer loop
      vertex 0 -2.3 3
      vertex 0.880172 -2.12492 0
      vertex 0 -2.3 0
    endloop
  endfacet
  facet normal -0.555575 -0.831466 0
    outer loop
      vertex 0.880172 2.12492 0
      vertex 1.62634 1.62634 3
      vertex 0.880172 2.12492 3
    endloop
  endfacet
  facet normal -0.555575 -0.831466 -0
    outer loop
      vertex 1.62634 1.62634 3
      vertex 0.880172 2.12492 0
      vertex 1.62634 1.62634 0
    endloop
  endfacet
  facet normal -0.831466 -0.555575 0
    outer loop
      vertex 2.12492 0.880172 0
      vertex 1.62634 1.62634 3
      vertex 1.62634 1.62634 0
    endloop
  endfacet
  facet normal -0.831466 -0.555575 0
    outer loop
      vertex 1.62634 1.62634 3
      vertex 2.12492 0.880172 0
      vertex 2.12492 0.880172 3
    endloop
  endfacet
  facet normal -0.195093 -0.980785 0
    outer loop
      vertex 0 2.3 0
      vertex 0.880172 2.12492 3
      vertex 0 2.3 3
    endloop
  endfacet
  facet normal -0.195093 -0.980785 -0
    outer loop
      vertex 0.880172 2.12492 3
      vertex 0 2.3 0
      vertex 0.880172 2.12492 0
    endloop
  endfacet
  facet normal 0.831466 -0.555575 0
    outer loop
      vertex -2.12492 0.880172 3
      vertex -1.62634 1.62634 0
      vertex -1.62634 1.62634 3
    endloop
  endfacet
  facet normal 0.831466 -0.555575 0
    outer loop
      vertex -1.62634 1.62634 0
      vertex -2.12492 0.880172 3
      vertex -2.12492 0.880172 0
    endloop
  endfacet
  facet normal 0.555575 -0.831466 0
    outer loop
      vertex -1.62634 1.62634 0
      vertex -0.880172 2.12492 3
      vertex -1.62634 1.62634 3
    endloop
  endfacet
  facet normal 0.555575 -0.831466 0
    outer loop
      vertex -0.880172 2.12492 3
      vertex -1.62634 1.62634 0
      vertex -0.880172 2.12492 0
    endloop
  endfacet
  facet normal -0.980785 0.195093 0
    outer loop
      vertex 2.12492 -0.880172 0
      vertex 2.3 0 3
      vertex 2.3 0 0
    endloop
  endfacet
  facet normal -0.980785 0.195093 0
    outer loop
      vertex 2.3 0 3
      vertex 2.12492 -0.880172 0
      vertex 2.12492 -0.880172 3
    endloop
  endfacet
  facet normal -0.555575 0.831466 0
    outer loop
      vertex 1.62634 -1.62634 0
      vertex 0.880172 -2.12492 3
      vertex 1.62634 -1.62634 3
    endloop
  endfacet
  facet normal -0.555575 0.831466 0
    outer loop
      vertex 0.880172 -2.12492 3
      vertex 1.62634 -1.62634 0
      vertex 0.880172 -2.12492 0
    endloop
  endfacet
  facet normal -0.831466 0.555575 0
    outer loop
      vertex 1.62634 -1.62634 0
      vertex 2.12492 -0.880172 3
      vertex 2.12492 -0.880172 0
    endloop
  endfacet
  facet normal -0.831466 0.555575 0
    outer loop
      vertex 2.12492 -0.880172 3
      vertex 1.62634 -1.62634 0
      vertex 1.62634 -1.62634 3
    endloop
  endfacet
  facet normal 0.195093 0.980785 -0
    outer loop
      vertex 0 -2.3 0
      vertex -0.880172 -2.12492 3
      vertex 0 -2.3 3
    endloop
  endfacet
  facet normal 0.195093 0.980785 0
    outer loop
      vertex -0.880172 -2.12492 3
      vertex 0 -2.3 0
      vertex -0.880172 -2.12492 0
    endloop
  endfacet
  facet normal 0.831466 0.555575 0
    outer loop
      vertex -1.62634 -1.62634 3
      vertex -2.12492 -0.880172 0
      vertex -2.12492 -0.880172 3
    endloop
  endfacet
  facet normal 0.831466 0.555575 0
    outer loop
      vertex -2.12492 -0.880172 0
      vertex -1.62634 -1.62634 3
      vertex -1.62634 -1.62634 0
    endloop
  endfacet
  facet normal 0.980785 0.195093 0
    outer loop
      vertex -2.12492 -0.880172 3
      vertex -2.3 0 0
      vertex -2.3 0 3
    endloop
  endfacet
  facet normal 0.980785 0.195093 0
    outer loop
      vertex -2.3 0 0
      vertex -2.12492 -0.880172 3
      vertex -2.12492 -0.880172 0
    endloop
  endfacet
  facet normal 0.555575 0.831466 -0
    outer loop
      vertex -0.880172 -2.12492 0
      vertex -1.62634 -1.62634 3
      vertex -0.880172 -2.12492 3
    endloop
  endfacet
  facet normal 0.555575 0.831466 0
    outer loop
      vertex -1.62634 -1.62634 3
      vertex -0.880172 -2.12492 0
      vertex -1.62634 -1.62634 0
    endloop
  endfacet
endsolid OpenSCAD_Model
