999
dxfrw 0.6.3
  0
SECTION
  2
HEADER
  9
$ACADVER
  1
AC1021
  9
$DWGCODEPAGE
  3
ANSI_1252
  9
$INSBASE
 10
0
 20
0
 30
0
  9
$EXTMIN
 10
-4.949516189895918
 20
-8.983155519027896
 30
0
  9
$EXTMAX
 10
22.9831555190279
 20
8.983155519027896
 30
0
  9
$LIMMIN
 10
0
 20
0
  9
$LIMMAX
 10
420
 20
297
  9
$ORTHOMODE
 70
    0
  9
$REGENMODE
 70
    1
  9
$FILLMODE
 70
    1
  9
$QTEXTMODE
 70
    0
  9
$MIRRTEXT
 70
    0
  9
$LTSCALE
 40
1
  9
$ATTMODE
 70
    0
  9
$TEXTSIZE
 40
2.5
  9
$TRACEWID
 40
15.68
  9
$TEXTSTYLE
  7
STANDARD
  9
$CLAYER
  8
0
  9
$CELTYPE
  6
BYLAYER
  9
$CECOLOR
 62
  256
  9
$CELTSCALE
 40
1
  9
$DISPSILH
 70
    0
  9
$DIMSCALE
 40
2.5
  9
$DIMASZ
 40
2.5
  9
$DIMEXO
 40
0.625
  9
$DIMDLI
 40
3.75
  9
$DIMRND
 40
0
  9
$DIMDLE
 40
0
  9
$DIMEXE
 40
1.25
  9
$DIMTP
 40
0
  9
$DIMTM
 40
0
  9
$DIMTXT
 40
2.5
  9
$DIMCEN
 40
2.5
  9
$DIMTSZ
 40
0
  9
$DIMTOL
 70
    0
  9
$DIMLIM
 70
    0
  9
$DIMTIH
 70
    0
  9
$DIMTOH
 70
    0
  9
$DIMSE1
 70
    0
  9
$DIMSE2
 70
    0
  9
$DIMTAD
 70
    1
  9
$DIMZIN
 70
    8
  9
$DIMBLK
  1

  9
$DIMASO
 70
    1
  9
$DIMSHO
 70
    1
  9
$DIMPOST
  1

  9
$DIMAPOST
  1

  9
$DIMALT
 70
    0
  9
$DIMALTD
 70
    3
  9
$DIMALTF
 40
0.03937
  9
$DIMLFAC
 40
1
  9
$DIMTOFL
 70
    1
  9
$DIMTVP
 40
0
  9
$DIMTIX
 70
    0
  9
$DIMSOXD
 70
    0
  9
$DIMSAH
 70
    0
  9
$DIMBLK1
  1

  9
$DIMBLK2
  1

  9
$DIMSTYLE
  2
STANDARD
  9
$DIMCLRD
 70
    0
  9
$DIMCLRE
 70
    0
  9
$DIMCLRT
 70
    0
  9
$DIMTFAC
 40
1
  9
$DIMGAP
 40
0.625
  9
$DIMJUST
 70
    0
  9
$DIMSD1
 70
    0
  9
$DIMSD2
 70
    0
  9
$DIMTOLJ
 70
    0
  9
$DIMTZIN
 70
    8
  9
$DIMALTZ
 70
    0
  9
$DIMALTTZ
 70
    0
  9
$DIMUPT
 70
    0
  9
$DIMDEC
 70
    2
  9
$DIMTDEC
 70
    2
  9
$DIMALTU
 70
    2
  9
$DIMALTTD
 70
    3
  9
$DIMTXSTY
  7
STANDARD
  9
$DIMAUNIT
 70
    0
  9
$DIMADEC
 70
    0
  9
$DIMALTRND
 40
0
  9
$DIMAZIN
 70
    0
  9
$DIMDSEP
 70
   44
  9
$DIMATFIT
 70
    3
  9
$DIMFRAC
 70
    0
  9
$DIMLDRBLK
  1
STANDARD
  9
$DIMLUNIT
 70
    2
  9
$DIMLWD
 70
   -2
  9
$DIMLWE
 70
   -2
  9
$DIMTMOVE
 70
    0
  9
$DIMFXL
 40
1
  9
$DIMFXLON
 70
    0
  9
$DIMJOGANG
 40
0.7854
  9
$DIMTFILL
 70
    0
  9
$DIMTFILLCLR
 70
    0
  9
$DIMARCSYM
 70
    0
  9
$DIMLTYPE
  6

  9
$DIMLTEX1
  6

  9
$DIMLTEX2
  6

  9
$LUNITS
 70
    2
  9
$LUPREC
 70
    4
  9
$SKETCHINC
 40
1
  9
$FILLETRAD
 40
0
  9
$AUNITS
 70
    0
  9
$AUPREC
 70
    2
  9
$MENU
  1
.
  9
$ELEVATION
 40
0
  9
$PELEVATION
 40
0
  9
$THICKNESS
 40
0
  9
$LIMCHECK
 70
    0
  9
$CHAMFERA
 40
0
  9
$CHAMFERB
 40
0
  9
$CHAMFERC
 40
0
  9
$CHAMFERD
 40
0
  9
$SKPOLY
 70
    0
  9
$USRTIMER
 70
    1
  9
$ANGBASE
 50
0
  9
$ANGDIR
 70
    0
  9
$PDMODE
 70
   34
  9
$PDSIZE
 40
0
  9
$PLINEWID
 40
0
  9
$SPLFRAME
 70
    0
  9
$SPLINETYPE
 70
    2
  9
$SPLINESEGS
 70
    8
  9
$HANDSEED
  5
20000
  9
$SURFTAB1
 70
    6
  9
$SURFTAB2
 70
    6
  9
$SURFTYPE
 70
    6
  9
$SURFU
 70
    6
  9
$SURFV
 70
    6
  9
$UCSBASE
  2

  9
$UCSNAME
  2

  9
$UCSORG
 10
0
 20
0
 30
0
  9
$UCSXDIR
 10
1
 20
0
 30
0
  9
$UCSYDIR
 10
0
 20
1
 30
0
  9
$UCSORTHOREF
  2

  9
$UCSORTHOVIEW
 70
    0
  9
$UCSORGTOP
 10
0
 20
0
 30
0
  9
$UCSORGBOTTOM
 10
0
 20
0
 30
0
  9
$UCSORGLEFT
 10
0
 20
0
 30
0
  9
$UCSORGRIGHT
 10
0
 20
0
 30
0
  9
$UCSORGFRONT
 10
0
 20
0
 30
0
  9
$UCSORGBACK
 10
0
 20
0
 30
0
  9
$PUCSBASE
  2

  9
$PUCSNAME
  2

  9
$PUCSORG
 10
0
 20
0
 30
0
  9
$PUCSXDIR
 10
1
 20
0
 30
0
  9
$PUCSYDIR
 10
0
 20
1
 30
0
  9
$PUCSORTHOREF
  2

  9
$PUCSORTHOVIEW
 70
    0
  9
$PUCSORGTOP
 10
0
 20
0
 30
0
  9
$PUCSORGBOTTOM
 10
0
 20
0
 30
0
  9
$PUCSORGLEFT
 10
0
 20
0
 30
0
  9
$PUCSORGRIGHT
 10
0
 20
0
 30
0
  9
$PUCSORGFRONT
 10
0
 20
0
 30
0
  9
$PUCSORGBACK
 10
0
 20
0
 30
0
  9
$USERI1
 70
    0
  9
$USERI2
 70
    0
  9
$USERI3
 70
    0
  9
$USERI4
 70
    0
  9
$USERI5
 70
    0
  9
$USERR1
 40
0
  9
$USERR2
 40
0
  9
$USERR3
 40
0
  9
$USERR4
 40
0
  9
$USERR5
 40
0
  9
$WORLDVIEW
 70
    1
  9
$SHADEDGE
 70
    3
  9
$SHADEDIF
 70
   70
  9
$TILEMODE
 70
    1
  9
$MAXACTVP
 70
   64
  9
$PINSBASE
 10
0
 20
0
 30
0
  9
$PLIMCHECK
 70
    0
  9
$PEXTMIN
 10
0
 20
0
 30
0
  9
$PEXTMAX
 10
0
 20
0
 30
0
  9
$SNAPSTYLE
 70
    0
  9
$PLIMMIN
 10
0
 20
0
  9
$PLIMMAX
 10
210
 20
297
  9
$UNITMODE
 70
    0
  9
$VISRETAIN
 70
    1
  9
$PLINEGEN
 70
    0
  9
$PSLTSCALE
 70
    1
  9
$TREEDEPTH
 70
 3020
  9
$CMLSTYLE
  2
Standard
  9
$CMLJUST
 70
    0
  9
$CMLSCALE
 40
20
  9
$PROXYGRAPHICS
 70
    1
  9
$MEASUREMENT
 70
    1
  9
$CELWEIGHT
370
   -1
  9
$ENDCAPS
280
    0
  9
$JOINSTYLE
280
    0
  9
$LWDISPLAY
290
    0
  9
$INSUNITS
 70
    4
  9
$HYPERLINKBASE
  1

  9
$STYLESHEET
  1

  9
$XEDIT
290
    1
  9
$CEPSNTYPE
380
    0
  9
$PSTYLEMODE
290
    1
  9
$EXTNAMES
290
    1
  9
$PSVPSCALE
 40
1
  9
$OLESTARTUP
290
    0
  9
$SORTENTS
280
  127
  9
$INDEXCTL
280
    0
  9
$HIDETEXT
280
    1
  9
$XCLIPFRAME
290
    0
  9
$HALOGAP
280
    0
  9
$OBSCOLOR
 70
  257
  9
$OBSLTYPE
280
    0
  9
$INTERSECTIONDISPLAY
280
    0
  9
$INTERSECTIONCOLOR
 70
  257
  9
$DIMASSOC
280
    1
  9
$PROJECTNAME
  1

  9
$CAMERADISPLAY
290
    0
  9
$LENSLENGTH
 40
50
  9
$CAMERAHEIGHT
 40
0
  9
$STEPSPERSEC
 40
2
  9
$STEPSIZE
 40
50
  9
$3DDWFPREC
 40
2
  9
$PSOLWIDTH
 40
5
  9
$PSOLHEIGHT
 40
80
  9
$LOFTANG1
 40
1.570796326794897
  9
$LOFTANG2
 40
1.570796326794897
  9
$LOFTMAG1
 40
0
  9
$LOFTMAG2
 40
0
  9
$LOFTPARAM
 70
    7
  9
$LOFTNORMALS
280
    1
  9
$LATITUDE
 40
1
  9
$LONGITUDE
 40
1
  9
$NORTHDIRECTION
 40
0
  9
$TIMEZONE
 70
-8000
  9
$LIGHTGLYPHDISPLAY
280
    1
  9
$TILEMODELIGHTSYNCH
280
    1
  9
$SOLIDHIST
280
    1
  9
$SHOWHIST
280
    1
  9
$DWFFRAME
280
    2
  9
$DGNFRAME
280
    0
  9
$REALWORLDSCALE
290
    1
  9
$INTERFERECOLOR
 62
    1
  9
$CSHADOW
280
    0
  9
$SHADOWPLANELOCATION
 40
0
  0
ENDSEC
  0
SECTION
  2
CLASSES
  0
ENDSEC
  0
SECTION
  2
TABLES
  0
TABLE
  2
VPORT
  5
8
330
0
100
AcDbSymbolTable
 70
    1
  0
VPORT
  5
31
330
2
100
AcDbSymbolTableRecord
100
AcDbViewportTableRecord
  2
*ACTIVE
 70
    0
 10
0
 20
0
 11
1
 21
1
 12
20.14085281263316
 22
7.418627567421762
 13
0
 23
0
 14
10
 24
10
 15
10
 25
10
 16
0
 26
0
 36
1
 17
0
 27
0
 37
0
 40
27.43129675038025
 41
2.523364485981308
 42
50
 43
0
 44
0
 50
0
 51
0
 71
    0
 72
  100
 73
    1
 74
    3
 75
    0
 76
    1
 77
    0
 78
    0
281
    0
 65
    1
110
0
120
0
130
0
111
1
121
0
131
0
112
0
122
1
132
0
 79
    0
146
0
348
10020
 60
    7
 61
    5
292
1
282
    1
141
0
142
0
 63
  250
421
3358443
  0
ENDTAB
  0
TABLE
  2
LTYPE
  5
5
330
0
100
AcDbSymbolTable
 70
    4
  0
LTYPE
  5
14
330
5
100
AcDbSymbolTableRecord
100
AcDbLinetypeTableRecord
  2
ByBlock
 70
    0
  3

 72
   65
 73
    0
 40
0
  0
LTYPE
  5
15
330
5
100
AcDbSymbolTableRecord
100
AcDbLinetypeTableRecord
  2
ByLayer
 70
    0
  3

 72
   65
 73
    0
 40
0
  0
LTYPE
  5
16
330
5
100
AcDbSymbolTableRecord
100
AcDbLinetypeTableRecord
  2
Continuous
 70
    0
  3
Solid line
 72
   65
 73
    0
 40
0
  0
LTYPE
  5
32
330
5
100
AcDbSymbolTableRecord
100
AcDbLinetypeTableRecord
  2
DOT
 70
    0
  3
Dot . . . . . . . . . . . . . . . . . . . . . .
 72
   65
 73
    2
 40
6.35
 49
0
 74
    0
 49
-6.35
 74
    0
  0
LTYPE
  5
33
330
5
100
AcDbSymbolTableRecord
100
AcDbLinetypeTableRecord
  2
DOTTINY
 70
    0
  3
Dot (.15x) .....................................
 72
   65
 73
    2
 40
0.9525
 49
0
 74
    0
 49
-0.9525
 74
    0
  0
LTYPE
  5
34
330
5
100
AcDbSymbolTableRecord
100
AcDbLinetypeTableRecord
  2
DOT2
 70
    0
  3
Dot (.5x) .....................................
 72
   65
 73
    2
 40
3.175
 49
0
 74
    0
 49
-3.175
 74
    0
  0
LTYPE
  5
35
330
5
100
AcDbSymbolTableRecord
100
AcDbLinetypeTableRecord
  2
DOTX2
 70
    0
  3
Dot (2x) .  .  .  .  .  .  .  .  .  .  .  .  .
 72
   65
 73
    2
 40
12.7
 49
0
 74
    0
 49
-12.7
 74
    0
  0
LTYPE
  5
36
330
5
100
AcDbSymbolTableRecord
100
AcDbLinetypeTableRecord
  2
DASHED
 70
    0
  3
Dashed _ _ _ _ _ _ _ _ _ _ _ _ _ _ _ _ _
 72
   65
 73
    2
 40
19.05
 49
12.7
 74
    0
 49
-6.35
 74
    0
  0
LTYPE
  5
37
330
5
100
AcDbSymbolTableRecord
100
AcDbLinetypeTableRecord
  2
DASHEDTINY
 70
    0
  3
Dashed (.15x) _ _ _ _ _ _ _ _ _ _ _ _ _ _ _ _ _
 72
   65
 73
    2
 40
2.8575
 49
1.905
 74
    0
 49
-0.9525
 74
    0
  0
LTYPE
  5
38
330
5
100
AcDbSymbolTableRecord
100
AcDbLinetypeTableRecord
  2
DASHED2
 70
    0
  3
Dashed (.5x) _ _ _ _ _ _ _ _ _ _ _ _ _ _ _ _ _
 72
   65
 73
    2
 40
9.524999999999999
 49
6.35
 74
    0
 49
-3.175
 74
    0
  0
LTYPE
  5
39
330
5
100
AcDbSymbolTableRecord
100
AcDbLinetypeTableRecord
  2
DASHEDX2
 70
    0
  3
Dashed (2x) ____  ____  ____  ____  ____  ___
 72
   65
 73
    2
 40
38.09999999999999
 49
25.4
 74
    0
 49
-12.7
 74
    0
  0
LTYPE
  5
3A
330
5
100
AcDbSymbolTableRecord
100
AcDbLinetypeTableRecord
  2
DASHDOT
 70
    0
  3
Dash dot __ . __ . __ . __ . __ . __ . __ . __
 72
   65
 73
    4
 40
25.4
 49
12.7
 74
    0
 49
-6.35
 74
    0
 49
0
 74
    0
 49
-6.35
 74
    0
  0
LTYPE
  5
3B
330
5
100
AcDbSymbolTableRecord
100
AcDbLinetypeTableRecord
  2
DASHDOTTINY
 70
    0
  3
Dash dot (.15x) _._._._._._._._._._._._._._._.
 72
   65
 73
    4
 40
3.81
 49
1.905
 74
    0
 49
-0.9525
 74
    0
 49
0
 74
    0
 49
-0.9525
 74
    0
  0
LTYPE
  5
3C
330
5
100
AcDbSymbolTableRecord
100
AcDbLinetypeTableRecord
  2
DASHDOT2
 70
    0
  3
Dash dot (.5x) _._._._._._._._._._._._._._._.
 72
   65
 73
    4
 40
12.7
 49
6.35
 74
    0
 49
-3.175
 74
    0
 49
0
 74
    0
 49
-3.175
 74
    0
  0
LTYPE
  5
3D
330
5
100
AcDbSymbolTableRecord
100
AcDbLinetypeTableRecord
  2
DASHDOTX2
 70
    0
  3
Dash dot (2x) ____  .  ____  .  ____  .  ___
 72
   65
 73
    4
 40
50.8
 49
25.4
 74
    0
 49
-12.7
 74
    0
 49
0
 74
    0
 49
-12.7
 74
    0
  0
LTYPE
  5
3E
330
5
100
AcDbSymbolTableRecord
100
AcDbLinetypeTableRecord
  2
DIVIDE
 70
    0
  3
Divide ____ . . ____ . . ____ . . ____ . . ____
 72
   65
 73
    6
 40
31.75
 49
12.7
 74
    0
 49
-6.35
 74
    0
 49
0
 74
    0
 49
-6.35
 74
    0
 49
0
 74
    0
 49
-6.35
 74
    0
  0
LTYPE
  5
3F
330
5
100
AcDbSymbolTableRecord
100
AcDbLinetypeTableRecord
  2
DIVIDETINY
 70
    0
  3
Divide (.15x) __..__..__..__..__..__..__..__.._
 72
   65
 73
    6
 40
4.7625
 49
1.905
 74
    0
 49
-0.9525
 74
    0
 49
0
 74
    0
 49
-0.9525
 74
    0
 49
0
 74
    0
 49
-0.9525
 74
    0
  0
LTYPE
  5
40
330
5
100
AcDbSymbolTableRecord
100
AcDbLinetypeTableRecord
  2
DIVIDE2
 70
    0
  3
Divide (.5x) __..__..__..__..__..__..__..__.._
 72
   65
 73
    6
 40
15.875
 49
6.35
 74
    0
 49
-3.175
 74
    0
 49
0
 74
    0
 49
-3.175
 74
    0
 49
0
 74
    0
 49
-3.175
 74
    0
  0
LTYPE
  5
41
330
5
100
AcDbSymbolTableRecord
100
AcDbLinetypeTableRecord
  2
DIVIDEX2
 70
    0
  3
Divide (2x) ________  .  .  ________  .  .  _
 72
   65
 73
    6
 40
63.5
 49
25.4
 74
    0
 49
-12.7
 74
    0
 49
0
 74
    0
 49
-12.7
 74
    0
 49
0
 74
    0
 49
-12.7
 74
    0
  0
LTYPE
  5
42
330
5
100
AcDbSymbolTableRecord
100
AcDbLinetypeTableRecord
  2
BORDER
 70
    0
  3
Border __ __ . __ __ . __ __ . __ __ . __ __ .
 72
   65
 73
    6
 40
44.45
 49
12.7
 74
    0
 49
-6.35
 74
    0
 49
12.7
 74
    0
 49
-6.35
 74
    0
 49
0
 74
    0
 49
-6.35
 74
    0
  0
LTYPE
  5
43
330
5
100
AcDbSymbolTableRecord
100
AcDbLinetypeTableRecord
  2
BORDERTINY
 70
    0
  3
Border (.15x) __.__.__.__.__.__.__.__.__.__.__.
 72
   65
 73
    6
 40
6.6675
 49
1.905
 74
    0
 49
-0.9525
 74
    0
 49
1.905
 74
    0
 49
-0.9525
 74
    0
 49
0
 74
    0
 49
-0.9525
 74
    0
  0
LTYPE
  5
44
330
5
100
AcDbSymbolTableRecord
100
AcDbLinetypeTableRecord
  2
BORDER2
 70
    0
  3
Border (.5x) __.__.__.__.__.__.__.__.__.__.__.
 72
   65
 73
    6
 40
22.225
 49
6.35
 74
    0
 49
-3.175
 74
    0
 49
6.35
 74
    0
 49
-3.175
 74
    0
 49
0
 74
    0
 49
-3.175
 74
    0
  0
LTYPE
  5
45
330
5
100
AcDbSymbolTableRecord
100
AcDbLinetypeTableRecord
  2
BORDERX2
 70
    0
  3
Border (2x) ____  ____  .  ____  ____  .  ___
 72
   65
 73
    6
 40
88.89999999999999
 49
25.4
 74
    0
 49
-12.7
 74
    0
 49
25.4
 74
    0
 49
-12.7
 74
    0
 49
0
 74
    0
 49
-12.7
 74
    0
  0
LTYPE
  5
46
330
5
100
AcDbSymbolTableRecord
100
AcDbLinetypeTableRecord
  2
CENTER
 70
    0
  3
Center ____ _ ____ _ ____ _ ____ _ ____ _ ____
 72
   65
 73
    4
 40
50.8
 49
31.75
 74
    0
 49
-6.35
 74
    0
 49
6.35
 74
    0
 49
-6.35
 74
    0
  0
LTYPE
  5
47
330
5
100
AcDbSymbolTableRecord
100
AcDbLinetypeTableRecord
  2
CENTERTINY
 70
    0
  3
Center (.15x) ___ _ ___ _ ___ _ ___ _ ___ _ ___
 72
   65
 73
    4
 40
7.619999999999999
 49
4.7625
 74
    0
 49
-0.9525
 74
    0
 49
0.9525
 74
    0
 49
-0.9525
 74
    0
  0
LTYPE
  5
48
330
5
100
AcDbSymbolTableRecord
100
AcDbLinetypeTableRecord
  2
CENTER2
 70
    0
  3
Center (.5x) ___ _ ___ _ ___ _ ___ _ ___ _ ___
 72
   65
 73
    4
 40
28.575
 49
19.05
 74
    0
 49
-3.175
 74
    0
 49
3.175
 74
    0
 49
-3.175
 74
    0
  0
LTYPE
  5
49
330
5
100
AcDbSymbolTableRecord
100
AcDbLinetypeTableRecord
  2
CENTERX2
 70
    0
  3
Center (2x) ________  __  ________  __  _____
 72
   65
 73
    4
 40
101.6
 49
63.5
 74
    0
 49
-12.7
 74
    0
 49
12.7
 74
    0
 49
-12.7
 74
    0
  0
ENDTAB
  0
TABLE
  2
LAYER
  5
2
330
0
100
AcDbSymbolTable
 70
    1
  0
LAYER
  5
10
330
2
100
AcDbSymbolTableRecord
100
AcDbLayerTableRecord
  2
0
 70
    0
 62
    7
  6
CONTINUOUS
370
    0
390
F
  0
LAYER
  5
4A
330
2
100
AcDbSymbolTableRecord
100
AcDbLayerTableRecord
  2
gear_M1.0000_action_lines
 70
    0
 62
    7
  6
CONTINUOUS
370
    0
390
F
  0
LAYER
  5
4B
330
2
100
AcDbSymbolTableRecord
100
AcDbLayerTableRecord
  2
gear_M1.0000_base_lines
 70
    0
 62
    7
  6
CONTINUOUS
370
    0
390
F
  0
LAYER
  5
4C
330
2
100
AcDbSymbolTableRecord
100
AcDbLayerTableRecord
  2
gear_M1.0000_pitch_circles
 70
    0
 62
    7
  6
CONTINUOUS
370
    0
390
F
  0
LAYER
  5
4D
330
2
100
AcDbSymbolTableRecord
100
AcDbLayerTableRecord
  2
gear_M1.0000_shapes
 70
    0
 62
    7
  6
CONTINUOUS
370
    0
390
F
  0
ENDTAB
  0
TABLE
  2
STYLE
  5
3
330
0
100
AcDbSymbolTable
 70
    3
  0
STYLE
  5
4E
330
2
100
AcDbSymbolTableRecord
100
AcDbTextStyleTableRecord
  2
Standard
 70
    0
 40
0
 41
1
 50
0
 71
    0
 42
1
  3
txt
  4

  0
ENDTAB
  0
TABLE
  2
VIEW
  5
6
330
0
100
AcDbSymbolTable
 70
    0
  0
ENDTAB
  0
TABLE
  2
UCS
  5
7
330
0
100
AcDbSymbolTable
 70
    0
  0
ENDTAB
  0
TABLE
  2
APPID
  5
9
330
0
100
AcDbSymbolTable
 70
    1
  0
APPID
  5
12
330
9
100
AcDbSymbolTableRecord
100
AcDbRegAppTableRecord
  2
ACAD
 70
    0
  0
APPID
  5
4F
330
9
100
AcDbSymbolTableRecord
100
AcDbRegAppTableRecord
  2
LibreCad
 70
    0
  0
ENDTAB
  0
TABLE
  2
DIMSTYLE
  5
A
330
0
100
AcDbSymbolTable
 70
    1
100
AcDbDimStyleTable
 71
    1
  0
DIMSTYLE
105
50
330
A
100
AcDbSymbolTableRecord
100
AcDbDimStyleTableRecord
  2
Standard
 70
    0
 40
1
 41
2.5
 42
0.625
 43
0.38
 44
1.25
 45
0
 46
0
 47
0
 48
0
 49
1
140
2.5
141
0.09
142
2.5
143
25.4
144
1
145
0
146
1
147
0.625
148
0
 71
    0
 72
    0
 73
    0
 74
    1
 75
    0
 76
    0
 77
    0
 78
    1
 79
    0
170
    0
171
    2
172
    0
173
    0
174
    0
175
    0
176
    0
177
    0
178
    0
179
    0
271
    2
272
    4
273
    2
274
    2
275
    0
276
    0
277
    2
278
    0
279
    0
280
    0
281
    0
282
    0
283
    1
284
    0
285
    0
286
    0
288
    0
289
    3
340
standard
341

371
   -2
372
   -2
  0
ENDTAB
  0
TABLE
  2
BLOCK_RECORD
  5
1
330
0
100
AcDbSymbolTable
 70
    2
  0
BLOCK_RECORD
  5
1F
330
1
100
AcDbSymbolTableRecord
100
AcDbBlockTableRecord
  2
*Model_Space
 70
    0
280
    1
281
    0
  0
BLOCK_RECORD
  5
1E
330
1
100
AcDbSymbolTableRecord
100
AcDbBlockTableRecord
  2
*Paper_Space
 70
    0
280
    1
281
    0
  0
ENDTAB
  0
ENDSEC
  0
SECTION
  2
BLOCKS
  0
BLOCK
  5
20
330
1F
100
AcDbEntity
  8
0
100
AcDbBlockBegin
  2
*Model_Space
 70
    0
 10
0
 20
0
 30
0
  3
*Model_Space
  1

  0
ENDBLK
  5
21
330
1F
100
AcDbEntity
  8
0
100
AcDbBlockEnd
  0
BLOCK
  5
1C
330
1B
100
AcDbEntity
  8
0
100
AcDbBlockBegin
  2
*Paper_Space
 70
    0
 10
0
 20
0
 30
0
  3
*Paper_Space
  1

  0
ENDBLK
  5
1D
330
1F
100
AcDbEntity
  8
0
100
AcDbBlockEnd
  0
ENDSEC
  0
SECTION
  2
ENTITIES
  0
LWPOLYLINE
  5
51
100
AcDbEntity
  8
gear_M1.0000_shapes
  6
ByLayer
 62
  256
370
   -1
100
AcDbPolyline
 90
  560
 70
    1
 43
0
 10
2.749694562248852
 20
-0.04098553817010864
 10
3.758353002996924
 20
-0.05602008403984039
 10
3.759325529231775
 20
-0.05601983015496247
 10
3.762242477464142
 20
-0.05596007797022964
 10
3.767100637930175
 20
-0.05575239035851066
 10
3.773893784505026
 20
-0.05530846830880373
 10
3.782612679845514
 20
-0.05454024236347225
 10
3.793245083131009
 20
-0.05335996388116691
 10
3.805775760397032
 20
-0.05168029605456863
 10
3.820186497454108
 20
-0.04941440461224913
 10
3.836456115382626
 20
-0.04647604813416972
 10
3.854560488592504
 20
-0.04277966791059868
 10
3.874472565434682
 20
-0.03824047727454281
 10
3.896162391349539
 20
-0.03277455033815306
 10
3.919597134535534
 20
-0.02629891006397102
 10
3.944741114119533
 20
-0.0187316156023414
 10
3.971555830808442
 20
-0.009991848826826313
 10
4
 20
-1.179611963664229e-16
 10
4.042792517772051
 20
0.01636815679769533
 10
4.0886044298487
 20
0.03559632567311532
 10
4.13729264329674
 20
0.05789348262383381
 10
4.188703818519513
 20
0.08346225083267894
 10
4.242674633248363
 20
0.112498460122076
 10
4.299032064193241
 20
0.1451907169240642
 10
4.357593685945838
 20
0.1817199854435825
 10
4.418167986703319
 20
0.2222591806772129
 10
4.480554700356085
 20
0.2669727739332886
 10
4.544545154458972
 20
0.3160164114820456
 10
4.609922633581814
 20
0.3695365469464373
 10
4.676462757512612
 20
0.4276700880252853
 10
4.743933873764486
 20
0.4905440581206863
 10
4.812097463816223
 20
0.5582752734210242
 10
4.880708562495731
 20
0.6309700359696043
 10
4.949516189895918
 20
0.7087238432268315
 10
4.903926402016152
 20
0.9754516100806412
 10
4.843973576603108
 20
1.239322391135944
 10
4.750648524126762
 20
1.284826003209322
 10
4.659441053106598
 20
1.325730875707709
 10
4.570546493445915
 20
1.362221282632481
 10
4.48415048342259
 20
1.394489178378577
 10
4.400428681796572
 20
1.422733764117893
 10
4.319546497807637
 20
1.44716104374057
 10
4.241658839433049
 20
1.467983370057075
 10
4.166909880248003
 20
1.485418981976779
 10
4.09543284520466
 20
1.499691533390621
 10
4.027349815617932
 20
1.511029614496264
 10
3.962771553618296
 20
1.519666266313959
 10
3.901797346303615
 20
1.52583848915017
 10
3.844514869793435
 20
1.529786745773674
 10
3.791000073360366
 20
1.531754460075614
 10
3.741317083784203
 20
1.531987511990586
 10
3.695518130045147
 20
1.530733729460359
 10
3.665415429305055
 20
1.529079881786412
 10
3.637297297438359
 20
1.526892825608823
 10
3.611171411116527
 20
1.524261909667887
 10
3.587042411290442
 20
1.521276533218098
 10
3.564911905382899
 20
1.518026054212332
 10
3.544778472085853
 20
1.514599697623669
 10
3.526637668757018
 20
1.511086463975831
 10
3.510482041408538
 20
1.507575038152997
 10
3.49630113727859
 20
1.504153698559535
 10
3.484081519974891
 20
1.500910226699927
 10
3.473806787177261
 20
1.497931817248809
 10
3.465457590884486
 20
1.495304988680715
 10
3.459011660188946
 20
1.493115494528646
 10
3.454443826560611
 20
1.491448235340148
 10
3.451726051620188
 20
1.490387171399052
 10
3.450827457379441
 20
1.490015236280476
 10
2.524702040295029
 20
1.090128252881337
 10
2.286541433831999
 20
1.527818140803906
 10
1.973308823128603
 20
1.915346519187274
 10
2.697169075819161
 20
2.617944713204738
 10
2.697856576190988
 20
2.618632572624002
 10
2.699876918891449
 20
2.620737417674494
 10
2.703165299782458
 20
2.624319513202733
 10
2.707654879499464
 20
2.629436893503071
 10
2.713276851743751
 20
2.636145301298213
 10
2.719960513288708
 20
2.644498128680223
 10
2.727633335646044
 20
2.654546360058216
 10
2.736221038336703
 20
2.666338517157468
 10
2.745647663710078
 20
2.679920606113231
 10
2.755835653253984
 20
2.695336066700998
 10
2.766705925336743
 20
2.712625723743463
 10
2.778177954321702
 20
2.731827740732806
 10
2.790169850993486
 20
2.752977575705387
 10
2.802598444234294
 20
2.776107939404302
 10
2.815379363887662
 20
2.801248755763582
 10
2.82842712474619
 20
2.828427124746189
 10
2.847111969579679
 20
2.870260038914028
 10
2.865909514666589
 20
2.916250321204158
 10
2.884570809678522
 20
2.966444557978159
 10
2.902844150920254
 20
3.020877597994013
 10
2.920475579512702
 20
3.07957242756343
 10
2.9372093846271
 20
3.142540065631784
 10
2.952788611003707
 20
3.209779478972262
 10
2.96695556998141
 20
3.281277517657056
 10
2.979452353258636
 20
3.357008870939458
 10
2.990021348601212
 20
3.436936043651598
 10
2.998405756708962
 20
3.521009353193135
 10
3.004350108450182
 20
3.609166947156836
 10
3.00760078167153
 20
3.70133484160734
 10
3.007906516790259
 20
3.797426979999818
 10
3.005018930376351
 20
3.897345312695605
 10
2.998693025933723
 20
4.000979897002291
 10
2.777851165098012
 20
4.157348061512725
 10
2.548873297055959
 20
4.301539830753064
 10
2.450706606929777
 20
4.267724965958018
 10
2.357289072949363
 20
4.232155657431965
 10
2.268628512817939
 20
4.195100325670066
 10
2.1847204603663
 20
4.156825969011798
 10
2.105548268595313
 20
4.11759765345696
 10
2.031083232752424
 20
4.077678007748341
 10
1.961284733206532
 20
4.037326724479408
 10
1.896100397857589
 20
3.996800067975586
 10
1.835466283789772
 20
3.956350389686891
 10
1.779307077849829
 20
3.916225651817834
 10
1.727536315805606
 20
3.876668959907689
 10
1.680056619713441
 20
3.837918105060483
 10
1.63675995309759
 20
3.80020511650932
 10
1.597527893519609
 20
3.76375582518402
 10
1.562231922091238
 20
3.728789438934538
 10
1.530733729460359
 20
3.695518130045146
 10
1.510617352540309
 20
3.673062859314501
 10
1.492281313077079
 20
3.651633855343254
 10
1.475667860196971
 20
3.631299725458009
 10
1.460717060728737
 20
3.612126966125696
 10
1.447366865677506
 20
3.594179899580301
 10
1.435553178443205
 20
3.577520612388786
 10
1.425209924729493
 20
3.562208896002517
 10
1.41626912408802
 20
3.548302189339124
 10
1.408660963041656
 20
3.535855523438203
 10
1.402313869729223
 20
3.524921468232736
 10
1.397154590013175
 20
3.515550081476616
 10
1.393108264990609
 20
3.507788859867023
 10
1.390098509847031
 20
3.501682692398853
 10
1.388047493991286
 20
3.497273815986742
 10
1.386876022409195
 20
3.494601773388609
 10
1.386503618172535
 20
3.493703373462935
 10
1.01439685319269
 20
2.556071013143564
 10
0.536498385544353
 20
2.697159521108883
 10
0.0409855381701088
 20
2.749694562248852
 10
0.05602008403984062
 20
3.758353002996924
 10
0.0560198301549627
 20
3.759325529231775
 10
0.05596007797022987
 20
3.762242477464142
 10
0.05575239035851089
 20
3.767100637930175
 10
0.05530846830880395
 20
3.773893784505026
 10
0.05454024236347248
 20
3.782612679845514
 10
0.05335996388116714
 20
3.793245083131009
 10
0.05168029605456887
 20
3.805775760397032
 10
0.04941440461224936
 20
3.820186497454108
 10
0.04647604813416996
 20
3.836456115382626
 10
0.04277966791059892
 20
3.854560488592504
 10
0.03824047727454305
 20
3.874472565434682
 10
0.0327745503381533
 20
3.896162391349539
 10
0.02629891006397126
 20
3.919597134535534
 10
0.01873161560234164
 20
3.944741114119533
 10
0.009991848826826556
 20
3.971555830808442
 10
3.628905561958935e-16
 20
4
 10
-0.01636815679769508
 20
4.042792517772051
 10
-0.03559632567311507
 20
4.0886044298487
 10
-0.05789348262383355
 20
4.13729264329674
 10
-0.08346225083267869
 20
4.188703818519513
 10
-0.1124984601220757
 20
4.242674633248363
 10
-0.145190716924064
 20
4.299032064193241
 10
-0.1817199854435822
 20
4.357593685945838
 10
-0.2222591806772126
 20
4.418167986703319
 10
-0.2669727739332883
 20
4.480554700356085
 10
-0.3160164114820453
 20
4.544545154458972
 10
-0.369536546946437
 20
4.609922633581814
 10
-0.427670088025285
 20
4.676462757512612
 10
-0.490544058120686
 20
4.743933873764486
 10
-0.5582752734210239
 20
4.812097463816223
 10
-0.630970035969604
 20
4.880708562495731
 10
-0.7087238432268311
 20
4.949516189895918
 10
-0.9754516100806409
 20
4.903926402016152
 10
-1.239322391135943
 20
4.843973576603108
 10
-1.284826003209322
 20
4.750648524126762
 10
-1.325730875707709
 20
4.659441053106598
 10
-1.362221282632481
 20
4.570546493445915
 10
-1.394489178378577
 20
4.48415048342259
 10
-1.422733764117893
 20
4.400428681796572
 10
-1.44716104374057
 20
4.319546497807637
 10
-1.467983370057075
 20
4.241658839433049
 10
-1.485418981976779
 20
4.166909880248003
 10
-1.499691533390621
 20
4.09543284520466
 10
-1.511029614496263
 20
4.027349815617932
 10
-1.519666266313959
 20
3.962771553618296
 10
-1.52583848915017
 20
3.901797346303615
 10
-1.529786745773673
 20
3.844514869793435
 10
-1.531754460075614
 20
3.791000073360366
 10
-1.531987511990585
 20
3.741317083784203
 10
-1.530733729460359
 20
3.695518130045147
 10
-1.529079881786412
 20
3.665415429305055
 10
-1.526892825608823
 20
3.637297297438359
 10
-1.524261909667886
 20
3.611171411116527
 10
-1.521276533218098
 20
3.587042411290442
 10
-1.518026054212332
 20
3.564911905382899
 10
-1.514599697623669
 20
3.544778472085853
 10
-1.511086463975831
 20
3.526637668757018
 10
-1.507575038152997
 20
3.510482041408538
 10
-1.504153698559535
 20
3.49630113727859
 10
-1.500910226699926
 20
3.484081519974891
 10
-1.497931817248809
 20
3.473806787177261
 10
-1.495304988680715
 20
3.465457590884486
 10
-1.493115494528646
 20
3.459011660188946
 10
-1.491448235340147
 20
3.454443826560611
 10
-1.490387171399052
 20
3.451726051620188
 10
-1.490015236280476
 20
3.450827457379441
 10
-1.090128252881337
 20
2.524702040295029
 10
-1.527818140803906
 20
2.286541433831999
 10
-1.915346519187274
 20
1.973308823128603
 10
-2.617944713204738
 20
2.697169075819161
 10
-2.618632572624002
 20
2.697856576190988
 10
-2.620737417674494
 20
2.699876918891449
 10
-2.624319513202733
 20
2.703165299782458
 10
-2.629436893503071
 20
2.707654879499464
 10
-2.636145301298213
 20
2.713276851743751
 10
-2.644498128680223
 20
2.719960513288708
 10
-2.654546360058216
 20
2.727633335646044
 10
-2.666338517157468
 20
2.736221038336703
 10
-2.679920606113231
 20
2.745647663710078
 10
-2.695336066700998
 20
2.755835653253984
 10
-2.712625723743463
 20
2.766705925336743
 10
-2.731827740732806
 20
2.778177954321702
 10
-2.752977575705387
 20
2.790169850993486
 10
-2.776107939404302
 20
2.802598444234294
 10
-2.801248755763582
 20
2.815379363887662
 10
-2.828427124746189
 20
2.82842712474619
 10
-2.870260038914028
 20
2.847111969579679
 10
-2.916250321204158
 20
2.865909514666589
 10
-2.966444557978159
 20
2.884570809678522
 10
-3.020877597994013
 20
2.902844150920254
 10
-3.07957242756343
 20
2.920475579512702
 10
-3.142540065631784
 20
2.9372093846271
 10
-3.209779478972262
 20
2.952788611003707
 10
-3.281277517657056
 20
2.96695556998141
 10
-3.357008870939458
 20
2.979452353258636
 10
-3.436936043651598
 20
2.990021348601212
 10
-3.521009353193135
 20
2.998405756708962
 10
-3.609166947156836
 20
3.004350108450182
 10
-3.70133484160734
 20
3.00760078167153
 10
-3.797426979999818
 20
3.007906516790259
 10
-3.897345312695605
 20
3.005018930376351
 10
-4.000979897002291
 20
2.998693025933723
 10
-4.157348061512725
 20
2.777851165098012
 10
-4.301539830753064
 20
2.548873297055959
 10
-4.267724965958018
 20
2.450706606929777
 10
-4.232155657431965
 20
2.357289072949363
 10
-4.195100325670066
 20
2.268628512817939
 10
-4.156825969011798
 20
2.1847204603663
 10
-4.11759765345696
 20
2.105548268595313
 10
-4.077678007748341
 20
2.031083232752424
 10
-4.037326724479408
 20
1.961284733206532
 10
-3.996800067975586
 20
1.896100397857589
 10
-3.956350389686891
 20
1.835466283789772
 10
-3.916225651817834
 20
1.779307077849829
 10
-3.876668959907689
 20
1.727536315805606
 10
-3.837918105060483
 20
1.680056619713441
 10
-3.80020511650932
 20
1.63675995309759
 10
-3.76375582518402
 20
1.597527893519609
 10
-3.728789438934538
 20
1.562231922091238
 10
-3.695518130045146
 20
1.530733729460359
 10
-3.673062859314501
 20
1.510617352540309
 10
-3.651633855343254
 20
1.492281313077079
 10
-3.631299725458009
 20
1.475667860196971
 10
-3.612126966125696
 20
1.460717060728737
 10
-3.594179899580301
 20
1.447366865677506
 10
-3.577520612388786
 20
1.435553178443205
 10
-3.562208896002517
 20
1.425209924729493
 10
-3.548302189339124
 20
1.41626912408802
 10
-3.535855523438203
 20
1.408660963041656
 10
-3.524921468232736
 20
1.402313869729223
 10
-3.515550081476616
 20
1.397154590013175
 10
-3.507788859867023
 20
1.393108264990609
 10
-3.501682692398853
 20
1.390098509847031
 10
-3.497273815986742
 20
1.388047493991286
 10
-3.494601773388609
 20
1.386876022409195
 10
-3.493703373462935
 20
1.386503618172535
 10
-2.556071013143564
 20
1.01439685319269
 10
-2.697159521108883
 20
0.536498385544353
 10
-2.749694562248852
 20
0.04098553817010898
 10
-3.758353002996924
 20
0.05602008403984085
 10
-3.759325529231775
 20
0.05601983015496293
 10
-3.762242477464142
 20
0.05596007797023009
 10
-3.767100637930175
 20
0.05575239035851112
 10
-3.773893784505026
 20
0.05530846830880419
 10
-3.782612679845514
 20
0.05454024236347271
 10
-3.793245083131009
 20
0.05335996388116738
 10
-3.805775760397032
 20
0.0516802960545691
 10
-3.820186497454108
 20
0.04941440461224959
 10
-3.836456115382626
 20
0.04647604813417019
 10
-3.854560488592504
 20
0.04277966791059915
 10
-3.874472565434682
 20
0.03824047727454329
 10
-3.896162391349539
 20
0.03277455033815354
 10
-3.919597134535534
 20
0.0262989100639715
 10
-3.944741114119533
 20
0.01873161560234188
 10
-3.971555830808442
 20
0.009991848826826799
 10
-4
 20
6.078199160253641e-16
 10
-4.042792517772051
 20
-0.01636815679769483
 10
-4.0886044298487
 20
-0.03559632567311482
 10
-4.13729264329674
 20
-0.0578934826238333
 10
-4.188703818519513
 20
-0.08346225083267843
 10
-4.242674633248363
 20
-0.1124984601220755
 10
-4.299032064193241
 20
-0.1451907169240637
 10
-4.357593685945838
 20
-0.1817199854435819
 10
-4.418167986703319
 20
-0.2222591806772124
 10
-4.480554700356085
 20
-0.266972773933288
 10
-4.544545154458972
 20
-0.3160164114820451
 10
-4.609922633581814
 20
-0.3695365469464367
 10
-4.676462757512612
 20
-0.4276700880252847
 10
-4.743933873764486
 20
-0.4905440581206857
 10
-4.812097463816223
 20
-0.5582752734210237
 10
-4.880708562495731
 20
-0.6309700359696038
 10
-4.949516189895918
 20
-0.7087238432268309
 10
-4.903926402016152
 20
-0.9754516100806406
 10
-4.843973576603108
 20
-1.239322391135943
 10
-4.750648524126762
 20
-1.284826003209321
 10
-4.659441053106598
 20
-1.325730875707708
 10
-4.570546493445915
 20
-1.36222128263248
 10
-4.48415048342259
 20
-1.394489178378577
 10
-4.400428681796572
 20
-1.422733764117893
 10
-4.319546497807637
 20
-1.447161043740569
 10
-4.241658839433049
 20
-1.467983370057074
 10
-4.166909880248003
 20
-1.485418981976779
 10
-4.09543284520466
 20
-1.499691533390621
 10
-4.027349815617932
 20
-1.511029614496263
 10
-3.962771553618296
 20
-1.519666266313958
 10
-3.901797346303615
 20
-1.52583848915017
 10
-3.844514869793435
 20
-1.529786745773673
 10
-3.791000073360366
 20
-1.531754460075614
 10
-3.741317083784203
 20
-1.531987511990585
 10
-3.695518130045147
 20
-1.530733729460358
 10
-3.665415429305055
 20
-1.529079881786412
 10
-3.637297297438359
 20
-1.526892825608823
 10
-3.611171411116527
 20
-1.524261909667886
 10
-3.587042411290442
 20
-1.521276533218098
 10
-3.564911905382899
 20
-1.518026054212332
 10
-3.544778472085853
 20
-1.514599697623668
 10
-3.526637668757018
 20
-1.511086463975831
 10
-3.510482041408538
 20
-1.507575038152996
 10
-3.49630113727859
 20
-1.504153698559535
 10
-3.484081519974891
 20
-1.500910226699926
 10
-3.473806787177261
 20
-1.497931817248808
 10
-3.465457590884486
 20
-1.495304988680714
 10
-3.459011660188946
 20
-1.493115494528646
 10
-3.454443826560611
 20
-1.491448235340147
 10
-3.451726051620188
 20
-1.490387171399052
 10
-3.450827457379441
 20
-1.490015236280475
 10
-2.524702040295029
 20
-1.090128252881337
 10
-2.286541433831999
 20
-1.527818140803906
 10
-1.973308823128603
 20
-1.915346519187274
 10
-2.697169075819161
 20
-2.617944713204738
 10
-2.697856576190988
 20
-2.618632572624002
 10
-2.699876918891449
 20
-2.620737417674494
 10
-2.703165299782459
 20
-2.624319513202733
 10
-2.707654879499464
 20
-2.629436893503071
 10
-2.713276851743752
 20
-2.636145301298213
 10
-2.719960513288708
 20
-2.644498128680223
 10
-2.727633335646045
 20
-2.654546360058216
 10
-2.736221038336704
 20
-2.666338517157468
 10
-2.745647663710079
 20
-2.67992060611323
 10
-2.755835653253985
 20
-2.695336066700998
 10
-2.766705925336743
 20
-2.712625723743463
 10
-2.778177954321702
 20
-2.731827740732806
 10
-2.790169850993486
 20
-2.752977575705387
 10
-2.802598444234294
 20
-2.776107939404302
 10
-2.815379363887662
 20
-2.801248755763582
 10
-2.82842712474619
 20
-2.828427124746189
 10
-2.847111969579679
 20
-2.870260038914028
 10
-2.86590951466659
 20
-2.916250321204158
 10
-2.884570809678523
 20
-2.966444557978159
 10
-2.902844150920254
 20
-3.020877597994013
 10
-2.920475579512703
 20
-3.07957242756343
 10
-2.937209384627101
 20
-3.142540065631784
 10
-2.952788611003707
 20
-3.209779478972262
 10
-2.96695556998141
 20
-3.281277517657056
 10
-2.979452353258636
 20
-3.357008870939458
 10
-2.990021348601213
 20
-3.436936043651598
 10
-2.998405756708963
 20
-3.521009353193135
 10
-3.004350108450183
 20
-3.609166947156836
 10
-3.007600781671531
 20
-3.70133484160734
 10
-3.007906516790259
 20
-3.797426979999819
 10
-3.005018930376352
 20
-3.897345312695605
 10
-2.998693025933724
 20
-4.000979897002291
 10
-2.777851165098012
 20
-4.157348061512725
 10
-2.54887329705596
 20
-4.301539830753064
 10
-2.450706606929778
 20
-4.267724965958018
 10
-2.357289072949363
 20
-4.232155657431965
 10
-2.268628512817939
 20
-4.195100325670066
 10
-2.184720460366301
 20
-4.156825969011798
 10
-2.105548268595313
 20
-4.11759765345696
 10
-2.031083232752424
 20
-4.077678007748341
 10
-1.961284733206532
 20
-4.037326724479408
 10
-1.89610039785759
 20
-3.996800067975586
 10
-1.835466283789772
 20
-3.956350389686891
 10
-1.77930707784983
 20
-3.916225651817835
 10
-1.727536315805606
 20
-3.87666895990769
 10
-1.680056619713441
 20
-3.837918105060484
 10
-1.63675995309759
 20
-3.80020511650932
 10
-1.597527893519609
 20
-3.76375582518402
 10
-1.562231922091239
 20
-3.728789438934539
 10
-1.530733729460359
 20
-3.695518130045146
 10
-1.510617352540309
 20
-3.673062859314501
 10
-1.49228131307708
 20
-3.651633855343254
 10
-1.475667860196971
 20
-3.631299725458009
 10
-1.460717060728738
 20
-3.612126966125696
 10
-1.447366865677507
 20
-3.594179899580301
 10
-1.435553178443205
 20
-3.577520612388786
 10
-1.425209924729494
 20
-3.562208896002517
 10
-1.41626912408802
 20
-3.548302189339124
 10
-1.408660963041657
 20
-3.535855523438203
 10
-1.402313869729224
 20
-3.524921468232736
 10
-1.397154590013175
 20
-3.515550081476617
 10
-1.393108264990609
 20
-3.507788859867023
 10
-1.390098509847032
 20
-3.501682692398853
 10
-1.388047493991286
 20
-3.497273815986742
 10
-1.386876022409196
 20
-3.494601773388609
 10
-1.386503618172535
 20
-3.493703373462935
 10
-1.014396853192691
 20
-2.556071013143564
 10
-0.5364983855443533
 20
-2.697159521108884
 10
-0.04098553817010914
 20
-2.749694562248852
 10
-0.05602008403984108
 20
-3.758353002996924
 10
-0.05601983015496317
 20
-3.759325529231775
 10
-0.05596007797023033
 20
-3.762242477464142
 10
-0.05575239035851135
 20
-3.767100637930175
 10
-0.05530846830880442
 20
-3.773893784505026
 10
-0.05454024236347294
 20
-3.782612679845514
 10
-0.05335996388116761
 20
-3.793245083131009
 10
-0.05168029605456934
 20
-3.805775760397032
 10
-0.04941440461224983
 20
-3.820186497454108
 10
-0.04647604813417043
 20
-3.836456115382626
 10
-0.04277966791059939
 20
-3.854560488592504
 10
-0.03824047727454353
 20
-3.874472565434682
 10
-0.03277455033815378
 20
-3.896162391349539
 10
-0.02629891006397174
 20
-3.919597134535534
 10
-0.01873161560234212
 20
-3.944741114119533
 10
-0.009991848826827044
 20
-3.971555830808442
 10
-8.527492758548347e-16
 20
-4
 10
0.01636815679769459
 20
-4.042792517772051
 10
0.03559632567311457
 20
-4.0886044298487
 10
0.05789348262383304
 20
-4.13729264329674
 10
0.08346225083267818
 20
-4.188703818519513
 10
0.1124984601220752
 20
-4.242674633248363
 10
0.1451907169240634
 20
-4.299032064193241
 10
0.1817199854435817
 20
-4.357593685945838
 10
0.2222591806772121
 20
-4.418167986703319
 10
0.2669727739332877
 20
-4.480554700356085
 10
0.3160164114820448
 20
-4.544545154458972
 10
0.3695365469464365
 20
-4.609922633581814
 10
0.4276700880252844
 20
-4.676462757512612
 10
0.4905440581206854
 20
-4.743933873764486
 10
0.5582752734210233
 20
-4.812097463816223
 10
0.6309700359696034
 20
-4.880708562495731
 10
0.7087238432268306
 20
-4.949516189895918
 10
0.9754516100806403
 20
-4.903926402016152
 10
1.239322391135943
 20
-4.843973576603108
 10
1.284826003209321
 20
-4.750648524126762
 10
1.325730875707708
 20
-4.659441053106598
 10
1.36222128263248
 20
-4.570546493445915
 10
1.394489178378576
 20
-4.48415048342259
 10
1.422733764117892
 20
-4.400428681796572
 10
1.447161043740569
 20
-4.319546497807637
 10
1.467983370057074
 20
-4.241658839433049
 10
1.485418981976779
 20
-4.166909880248003
 10
1.499691533390621
 20
-4.09543284520466
 10
1.511029614496263
 20
-4.027349815617932
 10
1.519666266313958
 20
-3.962771553618296
 10
1.52583848915017
 20
-3.901797346303615
 10
1.529786745773673
 20
-3.844514869793436
 10
1.531754460075613
 20
-3.791000073360367
 10
1.531987511990585
 20
-3.741317083784203
 10
1.530733729460358
 20
-3.695518130045147
 10
1.529079881786411
 20
-3.665415429305056
 10
1.526892825608823
 20
-3.63729729743836
 10
1.524261909667886
 20
-3.611171411116527
 10
1.521276533218098
 20
-3.587042411290442
 10
1.518026054212331
 20
-3.564911905382899
 10
1.514599697623668
 20
-3.544778472085853
 10
1.51108646397583
 20
-3.526637668757019
 10
1.507575038152996
 20
-3.510482041408539
 10
1.504153698559535
 20
-3.496301137278591
 10
1.500910226699926
 20
-3.484081519974892
 10
1.497931817248808
 20
-3.473806787177262
 10
1.495304988680714
 20
-3.465457590884486
 10
1.493115494528645
 20
-3.459011660188947
 10
1.491448235340147
 20
-3.454443826560611
 10
1.490387171399051
 20
-3.451726051620188
 10
1.490015236280475
 20
-3.450827457379442
 10
1.090128252881337
 20
-2.524702040295029
 10
1.527818140803906
 20
-2.286541433832
 10
1.915346519187274
 20
-1.973308823128603
 10
2.617944713204738
 20
-2.697169075819161
 10
2.618632572624002
 20
-2.697856576190988
 10
2.620737417674493
 20
-2.699876918891449
 10
2.624319513202732
 20
-2.703165299782459
 10
2.629436893503071
 20
-2.707654879499464
 10
2.636145301298212
 20
-2.713276851743752
 10
2.644498128680222
 20
-2.719960513288708
 10
2.654546360058216
 20
-2.727633335646045
 10
2.666338517157468
 20
-2.736221038336704
 10
2.67992060611323
 20
-2.745647663710079
 10
2.695336066700998
 20
-2.755835653253985
 10
2.712625723743463
 20
-2.766705925336743
 10
2.731827740732806
 20
-2.778177954321702
 10
2.752977575705386
 20
-2.790169850993486
 10
2.776107939404302
 20
-2.802598444234294
 10
2.801248755763581
 20
-2.815379363887662
 10
2.828427124746189
 20
-2.82842712474619
 10
2.870260038914028
 20
-2.847111969579679
 10
2.916250321204158
 20
-2.86590951466659
 10
2.966444557978158
 20
-2.884570809678523
 10
3.020877597994013
 20
-2.902844150920254
 10
3.07957242756343
 20
-2.920475579512703
 10
3.142540065631783
 20
-2.937209384627101
 10
3.209779478972262
 20
-2.952788611003707
 10
3.281277517657055
 20
-2.96695556998141
 10
3.357008870939458
 20
-2.979452353258636
 10
3.436936043651597
 20
-2.990021348601213
 10
3.521009353193134
 20
-2.998405756708963
 10
3.609166947156835
 20
-3.004350108450183
 10
3.701334841607339
 20
-3.007600781671531
 10
3.797426979999818
 20
-3.007906516790259
 10
3.897345312695604
 20
-3.005018930376352
 10
4.00097989700229
 20
-2.998693025933724
 10
4.157348061512725
 20
-2.777851165098012
 10
4.301539830753064
 20
-2.54887329705596
 10
4.267724965958017
 20
-2.450706606929778
 10
4.232155657431964
 20
-2.357289072949363
 10
4.195100325670065
 20
-2.268628512817939
 10
4.156825969011797
 20
-2.184720460366301
 10
4.11759765345696
 20
-2.105548268595313
 10
4.07767800774834
 20
-2.031083232752425
 10
4.037326724479408
 20
-1.961284733206532
 10
3.996800067975586
 20
-1.89610039785759
 10
3.956350389686891
 20
-1.835466283789772
 10
3.916225651817834
 20
-1.77930707784983
 10
3.876668959907689
 20
-1.727536315805606
 10
3.837918105060483
 20
-1.680056619713441
 10
3.80020511650932
 20
-1.63675995309759
 10
3.763755825184019
 20
-1.597527893519609
 10
3.728789438934538
 20
-1.562231922091239
 10
3.695518130045146
 20
-1.53073372946036
 10
3.673062859314501
 20
-1.510617352540309
 10
3.651633855343253
 20
-1.49228131307708
 10
3.631299725458009
 20
-1.475667860196971
 10
3.612126966125695
 20
-1.460717060728738
 10
3.5941798995803
 20
-1.447366865677507
 10
3.577520612388786
 20
-1.435553178443205
 10
3.562208896002516
 20
-1.425209924729494
 10
3.548302189339124
 20
-1.416269124088021
 10
3.535855523438203
 20
-1.408660963041657
 10
3.524921468232735
 20
-1.402313869729224
 10
3.515550081476616
 20
-1.397154590013175
 10
3.507788859867023
 20
-1.39310826499061
 10
3.501682692398852
 20
-1.390098509847032
 10
3.497273815986741
 20
-1.388047493991286
 10
3.494601773388609
 20
-1.386876022409196
 10
3.493703373462935
 20
-1.386503618172535
 10
2.556071013143564
 20
-1.014396853192691
 10
2.697159521108883
 20
-0.5364983855443533
  0
LWPOLYLINE
  5
52
100
AcDbEntity
  8
gear_M1.0000_shapes
  6
ByLayer
 62
  256
370
   -1
100
AcDbPolyline
 90
 1120
 70
    1
 43
0
 10
20.74925028915627
 20
-0.1006008664175394
 10
21.51670600599385
 20
-0.1120401680796808
 10
21.51865105846355
 20
-0.1120396603099249
 10
21.52448495492828
 20
-0.1119201559404593
 10
21.53420127586035
 20
-0.1115047807170213
 10
21.54778756901005
 20
-0.1106169366176075
 10
21.56522535969103
 20
-0.1090804847269445
 10
21.58649016626202
 20
-0.1067199277623338
 10
21.61155152079406
 20
-0.1033605921091373
 10
21.64037299490822
 20
-0.09882880922449826
 10
21.67291223076525
 20
-0.09295209626833945
 10
21.70912097718501
 20
-0.08555933582119736
 10
21.74894513086937
 20
-0.07648095454908563
 10
21.79232478269908
 20
-0.06554910067630612
 10
21.83919426907107
 20
-0.05259782012794204
 10
21.88948222823907
 20
-0.0374632312046828
 10
21.94311166161688
 20
-0.01998369765365263
 10
22
 20
-2.359223927328458e-16
 10
22.04831764567076
 20
0.01809524857322414
 10
22.09865902151808
 20
0.03801138388303012
 10
22.15097269522547
 20
0.05982864817937245
 10
22.20520497348472
 20
0.08362599319265339
 10
22.26129993233516
 20
0.109481024224133
 10
22.31919944879243
 20
0.1374699449206778
 10
22.37884323375187
 20
0.1676675027623156
 10
22.44016886615081
 20
0.2001469352907725
 10
22.50311182837369
 20
0.2349799171067986
 10
22.56760554288302
 20
0.2722365076637855
 10
22.63358141005898
 20
0.3119850998847586
 10
22.7009688472295
 20
0.3542923696295278
 10
22.76969532887236
 20
0.3992232260383317
 10
22.83968642797022
 20
0.4468407627779479
 10
22.91086585849877
 20
0.4972062102158277
 10
22.9831555190279
 20
0.5503788885473885
 10
22.95666254004977
 20
0.8821542629660455
 10
22.91792029923319
 20
1.212723190396143
 10
22.83664618932271
 20
1.25077115747229
 10
22.75700864023369
 20
1.286282428937546
 10
22.67907267990311
 20
1.319330421999558
 10
22.60290118308863
 20
1.349990073166481
 10
22.52855483774957
 20
1.378337783768762
 10
22.45609211270547
 20
1.404451364763192
 10
22.3855692265872
 20
1.428409980847853
 10
22.31704011809476
 20
1.450294093916855
 10
22.25055641757558
 20
1.470185405884063
 10
22.1861674199364
 20
1.488166800905269
 10
22.12392005890107
 20
1.504322287028586
 10
22.06385888262606
 20
1.518736937303016
 10
22.00602603068489
 20
1.531496830375453
 10
21.95046121243178
 20
1.542688990606552
 10
21.89720168675457
 20
1.552401327736139
 10
21.84628224322584
 20
1.560722576129026
 10
21.78658837230276
 20
1.569223928381632
 10
21.73057932562027
 20
1.575905014169576
 10
21.67830502366016
 20
1.580938102062844
 10
21.62980945183375
 20
1.58449674419801
 10
21.58513062895787
 20
1.586755595319545
 10
21.54430058089398
 20
1.58789023107482
 10
21.50734531936741
 20
1.588076965704093
 10
21.47428482598025
 20
1.587492669267141
 10
21.44513304142729
 20
1.586314584548469
 10
21.41989785992095
 20
1.584720143783241
 10
21.39858112882714
 20
1.582886785346139
 10
21.38117865351037
 20
1.580991770545347
 10
21.36768020738265
 20
1.579212000663764
 10
21.35806954714671
 20
1.577723834389308
 10
21.35232443322078
 20
1.57670290577591
 10
21.35041665532792
 20
1.57632394287636
 10
20.59993908193722
 20
1.415381261257078
 10
20.45934726619241
 20
1.959421571467621
 10
20.27399248680693
 20
2.48988318510933
 10
20.98740674692587
 20
2.773007236345069
 10
20.98920354677722
 20
2.77375204481839
 10
20.99454763197348
 20
2.776094987982571
 10
21.0033653847977
 20
2.780197019694062
 10
21.01557771973405
 20
2.786216529981218
 10
21.03110016295323
 20
2.794309180026349
 10
21.04984293646547
 20
2.804627739458446
 10
21.07171104687641
 20
2.817321926083312
 10
21.09660437867825
 20
2.83253824817604
 10
21.12441779200503
 20
2.850419849458987
 10
21.15504122477757
 20
2.87110635688641
 10
21.1883597991606
 20
2.894733731355012
 10
21.22425393225139
 20
2.921434121457474
 10
21.26259945091602
 20
2.951335720393942
 10
21.30326771068651
 20
2.984562626154158
 10
21.346125718629
 20
3.021234705080617
 10
21.39103626009029
 20
3.061467458920718
 10
21.42875119215114
 20
3.096675651202309
 10
21.46763898391514
 20
3.134340571481
 10
21.50762141073812
 20
3.17451667163375
 10
21.54861865295244
 20
3.217256346008859
 10
21.59054934529239
 20
3.262609891382552
 10
21.63333062724922
 20
3.310625468041319
 10
21.67687819433087
 20
3.361349062010557
 10
21.7211063502013
 20
3.414824448449568
 10
21.76592805967378
 20
3.471093156232408
 10
21.81125500253201
 20
3.530194433733566
 10
21.85699762815276
 20
3.59216521583682
 10
21.90306521090307
 20
3.657040092185146
 10
21.9493659062848
 20
3.724851276688912
 10
21.995806807799
 20
3.795628578309022
 10
22.042294004502
 20
3.869399373131109
 10
22.08873263922508
 20
3.946188577746238
 10
21.9372913791352
 20
4.242570631433979
 10
21.77499496401894
 20
4.533150483877651
 10
21.68534715071436
 20
4.537199966570007
 10
21.59818207383967
 20
4.539532132819678
 10
21.5135317158259
 20
4.540239696396272
 10
21.43142548841458
 20
4.539415950733977
 10
21.35189022244582
 20
4.537154705734823
 10
21.27495015910129
 20
4.533550224397748
 10
21.20062694260501
 20
4.528697159305632
 10
21.12893961438408
 20
4.522690489002439
 10
21.05990460869095
 20
4.515625454292726
 10
20.99353574968777
 20
4.507597494495711
 10
20.92984424999319
 20
4.498702183686144
 10
20.8688387106908
 20
4.489035166954194
 10
20.81052512279802
 20
4.47869209671654
 10
20.75490687019344
 20
4.467768569110797
 10
20.70198473399997
 20
4.456360060505382
 10
20.65175689842036
 20
4.444561864156817
 10
20.59335362619838
 20
4.429572234085666
 10
20.5390512734917
 20
4.414311018272146
 10
20.48883003648405
 20
4.398956475863482
 10
20.44266413686936
 20
4.383685780614656
 10
20.40052186197725
 20
4.368674841640661
 10
20.36236560995425
 20
4.354098125455092
 10
20.32815193996238
 20
4.340128479432152
 10
20.29783162735327
 20
4.32693695682805
 10
20.27134972377237
 20
4.314692643496612
 10
20.2486456221442
 20
4.303562486432613
 10
20.22965312648604
 20
4.293711124275035
 10
20.2143005264942
 20
4.285300719900909
 10
20.20251067684319
 20
4.27849079523898
 10
20.19420108113512
 20
4.273438068430652
 10
20.18928398043299
 20
4.270296293464076
 10
20.18766644630833
 20
4.26921610240537
 10
19.55590567446004
 20
3.83332911925166
 10
19.21782056019848
 20
4.282154668104607
 10
18.84357620222475
 20
4.701305092550583
 10
19.39433815163832
 20
5.235889426409476
 10
19.39571315238198
 20
5.237265145248005
 10
19.3997538377829
 20
5.241474835348988
 10
19.40633059956492
 20
5.248639026405465
 10
19.41530975899893
 20
5.258873787006142
 10
19.4265537034875
 20
5.272290602596426
 10
19.43992102657742
 20
5.288996257360446
 10
19.45526667129209
 20
5.309092720116433
 10
19.47244207667341
 20
5.332677034314936
 10
19.49129532742016
 20
5.359841212226462
 10
19.51167130650797
 20
5.390672133401996
 10
19.53341185067348
 20
5.425251447486927
 10
19.5563559086434
 20
5.463655481465612
 10
19.58033970198697
 20
5.505955151410774
 10
19.60519688846859
 20
5.552215878808605
 10
19.63075872777532
 20
5.602497511527163
 10
19.65685424949238
 20
5.656854249492379
 10
19.67822471142376
 20
5.703815257370524
 10
19.69973860532707
 20
5.75349481993902
 10
19.72130282322346
 20
5.805913308897178
 10
19.74282357090665
 20
5.861088584646616
 10
19.76420642893002
 20
5.919035978210291
 10
19.78535641402177
 20
5.97976827454727
 10
19.80617804089712
 20
6.043295697272815
 10
19.82657538443701
 20
6.109625894792625
 10
19.84645214220171
 20
6.178763927859449
 10
19.86571169724843
 20
6.250712258559641
 10
19.88425718122114
 20
6.325470740736495
 10
19.90199153768118
 20
6.403036611856563
 10
19.91881758564676
 20
6.483404486324511
 10
19.93463808330958
 20
6.566566350251291
 10
19.94935579189649
 20
6.652511557679842
 10
19.96287353964421
 20
6.741226828271759
 10
19.70953955747281
 20
6.957094080264632
 10
19.44839712603765
 20
7.163446709300251
 10
19.36402367625515
 20
7.132881210577558
 10
19.28260116439559
 20
7.10167922044127
 10
19.2041236583488
 20
7.06993863439199
 10
19.12858262916921
 20
7.037756899710288
 10
19.05596696582553
 20
7.005230953162582
 10
18.98626299136136
 20
6.97245715910287
 10
18.91945448045698
 20
6.939531248001106
 10
18.85552267838196
 20
6.906548255428778
 10
18.79444632132776
 20
6.873602461531997
 10
18.73620165810861
 20
6.840787331022219
 10
18.6807624732184
 20
6.808195453714333
 10
18.62810011123082
 20
6.775918485641718
 10
18.57818350252912
 20
6.744047090777491
 10
18.53097919035141
 20
6.712670883390855
 10
18.48645135913678
 20
6.681878371067223
 10
18.44456186415682
 20
6.65175689842036
 10
18.39634055940476
 20
6.61555832132245
 10
18.35201194162143
 20
6.580678185671809
 10
18.311489497644
 20
6.547273602853658
 10
18.27468160996244
 20
6.515498395143277
 10
18.24149166238575
 20
6.485502945458042
 10
18.21181814988687
 20
6.457434050232622
 10
18.18555479253826
 20
6.431434775529303
 10
18.16259065344762
 20
6.407644316493075
 10
18.14281026059992
 20
6.386197860258606
 10
18.12609373250961
 20
6.367226452413705
 10
18.11231690758366
 20
6.350856867121321
 10
18.10135147709384
 20
6.337211480999317
 10
18.09306512165366
 20
6.3264081508547
 10
18.08732165109334
 20
6.318560095365985
 10
18.08398114762327
 20
6.313775780804631
 10
18.08290011217432
 20
6.312158810883501
 10
17.66603599245668
 20
5.667687368055174
 10
17.18192797357548
 20
5.952968534351395
 10
16.67576934798146
 20
6.196995917087799
 10
16.98003047256095
 20
6.901654914758883
 10
16.9807743427981
 20
6.903452103240376
 10
16.98289647068029
 20
6.908887653121221
 10
16.98623098905729
 20
6.918023320377893
 10
16.99060997736143
 20
6.930915181768971
 10
16.99586363449762
 20
6.947613574354523
 10
17.00182045339985
 20
6.968163039949783
 10
17.00830739711907
 20
6.99260227455718
 10
17.01515007630599
 20
7.020964082817077
 10
17.02217292795166
 20
7.053275337514036
 10
17.02919939524734
 20
7.089556944171705
 10
17.03605210842466
 20
7.129823810765798
 10
17.0425530664362
 20
7.174084822580884
 10
17.04852381933577
 20
7.222342822233053
 10
17.05378565121765
 20
7.274594594876718
 10
17.05815976357282
 20
7.330830858610111
 10
17.06146745892072
 20
7.391036260090293
 10
17.0632399916173
 20
7.44260069581814
 10
17.06410469233708
 20
7.496731637621744
 10
17.06396774461227
 20
7.553412275616215
 10
17.06273565901562
 20
7.612623217172253
 10
17.06031533642446
 20
7.67434249355027
 10
17.05661413114598
 20
7.738545567987793
 10
17.05153991387179
 20
7.805205345237202
 10
17.04500113442956
 20
7.874292182550159
 10
17.03690688430007
 20
7.945773902104372
 10
17.02716695886772
 20
8.019615804867737
 10
17.01569191937278
 20
8.095780685894091
 10
17.00239315453386
 20
8.174228851044244
 10
16.98718294180903
 20
8.254918135125227
 10
16.96997450826447
 20
8.337803921439995
 10
16.9506820910193
 20
8.42283916273926
 10
16.92922099723575
 20
8.509974403566277
 10
16.61256209529016
 20
8.61246302158988
 10
16.29233021546008
 20
8.703173110038014
 10
16.22607622208181
 20
8.642645950003864
 10
16.16279211457107
 20
8.582660023633123
 10
16.10243494938653
 20
8.523303504454843
 10
16.04495955535013
 20
8.464663158130872
 10
15.99031857111297
 20
8.406824290548062
 10
15.93846248377324
 20
8.349870696816119
 10
15.88933966862529
 20
8.293884611195825
 10
15.84289643001887
 20
8.238946657981925
 10
15.79907704330656
 20
8.185135803364499
 10
15.75782379785736
 20
8.132529308292172
 10
15.71907704111359
 20
8.08120268235999
 10
15.68277522366793
 20
8.031229638744319
 10
15.64885494533696
 20
7.982682050206683
 10
15.61725100220702
 20
7.935629906187744
 10
15.58789643462785
 20
7.890141271012348
 10
15.56072257612903
 20
7.846282243225843
 10
15.53002449536817
 20
7.794385624323409
 10
15.50241824272578
 20
7.745196753299242
 10
15.47776376653728
 20
7.69882767499237
 10
15.45591755802403
 20
7.655385442151365
 10
15.43673280641368
 20
7.614972017060038
 10
15.42005955672581
 20
7.577684177647668
 10
15.40574487009887
 20
7.543613428153538
 10
15.39363298653281
 20
7.512845914412402
 10
15.38356548991966
 20
7.485462343823991
 10
15.37538147523325
 20
7.461537910066334
 10
15.36891771774727
 20
7.441142222609249
 10
15.36400884414966
 20
7.424339241080708
 10
15.36048750542008
 20
7.41118721453549
 10
15.35818455133564
 20
7.401738625671745
 10
15.35692920646921
 20
7.39604014003766
 10
15.35654924754345
 20
7.394132560266727
 10
15.21804556330081
 20
6.63919159278622
 10
14.66161569722454
 20
6.717496905037329
 10
14.10060086641754
 20
6.749250289156273
 10
14.11204016807968
 20
7.516706005993847
 10
14.11203966030993
 20
7.518651058463551
 10
14.11192015594046
 20
7.524484954928283
 10
14.11150478071702
 20
7.534201275860349
 10
14.11061693661761
 20
7.547787569010053
 10
14.10908048472695
 20
7.565225359691028
 10
14.10671992776233
 20
7.586490166262018
 10
14.10336059210914
 20
7.611551520794063
 10
14.0988288092245
 20
7.640372994908216
 10
14.09295209626834
 20
7.672912230765252
 10
14.0855593358212
 20
7.709120977185008
 10
14.07648095454909
 20
7.748945130869364
 10
14.06554910067631
 20
7.792324782699078
 10
14.05259782012794
 20
7.839194269071068
 10
14.03746323120468
 20
7.889482228239066
 10
14.01998369765365
 20
7.943111661616884
 10
14
 20
7.999999999999999
 10
13.98190475142678
 20
8.048317645670757
 10
13.96198861611697
 20
8.098659021518081
 10
13.94017135182063
 20
8.15097269522547
 10
13.91637400680735
 20
8.205204973484721
 10
13.89051897577587
 20
8.261299932335161
 10
13.86253005507932
 20
8.319199448792434
 10
13.83233249723768
 20
8.378843233751871
 10
13.79985306470923
 20
8.440168866150815
 10
13.7650200828932
 20
8.50311182837369
 10
13.72776349233622
 20
8.567605542883021
 10
13.68801490011524
 20
8.63358141005898
 10
13.64570763037047
 20
8.700968847229495
 10
13.60077677396167
 20
8.769695328872363
 10
13.55315923722205
 20
8.839686427970223
 10
13.50279378978417
 20
8.91086585849877
 10
13.44962111145261
 20
8.983155519027896
 10
13.11784573703395
 20
8.956662540049772
 10
12.78727680960386
 20
8.91792029923319
 10
12.74922884252771
 20
8.836646189322714
 10
12.71371757106245
 20
8.757008640233687
 10
12.68066957800044
 20
8.679072679903115
 10
12.65000992683352
 20
8.602901183088635
 10
12.62166221623124
 20
8.528554837749565
 10
12.59554863523681
 20
8.456092112705468
 10
12.57159001915215
 20
8.385569226587203
 10
12.54970590608315
 20
8.317040118094761
 10
12.52981459411594
 20
8.250556417575579
 10
12.51183319909473
 20
8.186167419936401
 10
12.49567771297141
 20
8.123920058901072
 10
12.48126306269698
 20
8.063858882626066
 10
12.46850316962455
 20
8.00602603068489
 10
12.45731100939345
 20
7.950461212431781
 10
12.44759867226386
 20
7.897201686754572
 10
12.43927742387097
 20
7.846282243225843
 10
12.43077607161837
 20
7.786588372302761
 10
12.42409498583042
 20
7.730579325620269
 10
12.41906189793716
 20
7.678305023660157
 10
12.41550325580199
 20
7.629809451833749
 10
12.41324440468046
 20
7.585130628957874
 10
12.41210976892518
 20
7.544300580893981
 10
12.41192303429591
 20
7.50734531936741
 10
12.41250733073286
 20
7.474284825980247
 10
12.41368541545153
 20
7.445133041427292
 10
12.41527985621676
 20
7.419897859920951
 10
12.41711321465386
 20
7.398581128827139
 10
12.41900822945465
 20
7.381178653510375
 10
12.42078799933624
 20
7.367680207382647
 10
12.42227616561069
 20
7.358069547146706
 10
12.42329709422409
 20
7.352324433220778
 10
12.42367605712364
 20
7.350416655327916
 10
12.58461873874292
 20
6.599939081937221
 10
12.04057842853238
 20
6.45934726619241
 10
11.51011681489067
 20
6.273992486806931
 10
11.22699276365493
 20
6.98740674692587
 10
11.22624795518161
 20
6.989203546777217
 10
11.22390501201743
 20
6.994547631973484
 10
11.21980298030594
 20
7.003365384797705
 10
11.21378347001878
 20
7.015577719734046
 10
11.20569081997365
 20
7.031100162953233
 10
11.19537226054155
 20
7.049842936465472
 10
11.18267807391669
 20
7.071711046876406
 10
11.16746175182396
 20
7.096604378678249
 10
11.14958015054101
 20
7.124417792005032
 10
11.12889364311359
 20
7.155041224777572
 10
11.10526626864499
 20
7.188359799160603
 10
11.07856587854253
 20
7.224253932251392
 10
11.04866427960606
 20
7.262599450916018
 10
11.01543737384584
 20
7.303267710686508
 10
10.97876529491938
 20
7.346125718629003
 10
10.93853254107928
 20
7.391036260090293
 10
10.90332434879769
 20
7.428751192151138
 10
10.865659428519
 20
7.467638983915135
 10
10.82548332836625
 20
7.507621410738124
 10
10.78274365399114
 20
7.548618652952443
 10
10.73739010861745
 20
7.590549345292397
 10
10.68937453195868
 20
7.633330627249223
 10
10.63865093798944
 20
7.676878194330871
 10
10.58517555155043
 20
7.721106350201305
 10
10.52890684376759
 20
7.765928059673784
 10
10.46980556626643
 20
7.811255002532011
 10
10.40783478416318
 20
7.856997628152762
 10
10.34295990781485
 20
7.903065210903066
 10
10.27514872331109
 20
7.9493659062848
 10
10.20437142169098
 20
7.995806807798996
 10
10.13060062686889
 20
8.042294004501999
 10
10.05381142225376
 20
8.08873263922508
 10
9.757429368566022
 20
7.937291379135195
 10
9.46684951612235
 20
7.774994964018936
 10
9.462800033429993
 20
7.68534715071436
 10
9.460467867180324
 20
7.598182073839673
 10
9.459760303603728
 20
7.513531715825897
 10
9.460584049266023
 20
7.431425488414576
 10
9.462845294265179
 20
7.351890222445821
 10
9.466449775602252
 20
7.274950159101294
 10
9.471302840694367
 20
7.200626942605009
 10
9.477309510997561
 20
7.128939614384085
 10
9.484374545707276
 20
7.059904608690947
 10
9.492402505504291
 20
6.993535749687766
 10
9.501297816313857
 20
6.929844249993187
 10
9.510964833045806
 20
6.868838710690795
 10
9.521307903283461
 20
6.810525122798015
 10
9.532231430889203
 20
6.754906870193442
 10
9.543639939494618
 20
6.701984733999971
 10
9.555438135843183
 20
6.651756898420361
 10
9.570427765914335
 20
6.593353626198382
 10
9.585688981727854
 20
6.539051273491704
 10
9.601043524136518
 20
6.488830036484051
 10
9.616314219385345
 20
6.442664136869357
 10
9.631325158359338
 20
6.400521861977248
 10
9.645901874544908
 20
6.362365609954252
 10
9.659871520567847
 20
6.32815193996238
 10
9.67306304317195
 20
6.297831627353267
 10
9.685307356503388
 20
6.271349723772372
 10
9.696437513567387
 20
6.248645622144196
 10
9.706288875724965
 20
6.229653126486042
 10
9.714699280099092
 20
6.2143005264942
 10
9.72150920476102
 20
6.20251067684319
 10
9.72656193156935
 20
6.194201081135124
 10
9.729703706535926
 20
6.189283980432988
 10
9.73078389759463
 20
6.187666446308334
 10
10.16667088074834
 20
5.555905674460042
 10
9.717845331895393
 20
5.217820560198475
 10
9.298694907449416
 20
4.843576202224751
 10
8.764110573590525
 20
5.394338151638323
 10
8.762734854751995
 20
5.395713152381975
 10
8.758525164651012
 20
5.399753837782898
 10
8.751360973594535
 20
5.406330599564916
 10
8.741126212993859
 20
5.415309758998927
 10
8.727709397403574
 20
5.426553703487502
 10
8.711003742639555
 20
5.439921026577416
 10
8.690907279883568
 20
5.455266671292089
 10
8.667322965685063
 20
5.472442076673406
 10
8.640158787773538
 20
5.491295327420157
 10
8.609327866598004
 20
5.511671306507969
 10
8.574748552513073
 20
5.533411850673486
 10
8.536344518534388
 20
5.556355908643404
 10
8.494044848589226
 20
5.580339701986971
 10
8.447784121191395
 20
5.605196888468588
 10
8.397502488472837
 20
5.630758727775324
 10
8.34314575050762
 20
5.65685424949238
 10
8.296184742629476
 20
5.678224711423758
 10
8.24650518006098
 20
5.699738605327069
 10
8.194086691102822
 20
5.721302823223462
 10
8.138911415353384
 20
5.742823570906647
 10
8.080964021789708
 20
5.764206428930025
 10
8.02023172545273
 20
5.785356414021765
 10
7.956704302727185
 20
5.806178040897121
 10
7.890374105207375
 20
5.826575384437006
 10
7.821236072140551
 20
5.846452142201709
 10
7.749287741440359
 20
5.86571169724843
 10
7.674529259263505
 20
5.884257181221145
 10
7.596963388143437
 20
5.901991537681184
 10
7.516595513675489
 20
5.918817585646765
 10
7.433433649748709
 20
5.934638083309578
 10
7.347488442320158
 20
5.949355791896491
 10
7.258773171728241
 20
5.962873539644212
 10
7.042905919735368
 20
5.70953955747281
 10
6.836553290699749
 20
5.448397126037657
 10
6.867118789422442
 20
5.364023676255152
 10
6.89832077955873
 20
5.282601164395586
 10
6.93006136560801
 20
5.204123658348799
 10
6.962243100289712
 20
5.128582629169204
 10
6.994769046837418
 20
5.055966965825524
 10
7.02754284089713
 20
4.986262991361362
 10
7.060468751998894
 20
4.919454480456981
 10
7.093451744571222
 20
4.855522678381963
 10
7.126397538468003
 20
4.794446321327763
 10
7.159212668977781
 20
4.736201658108607
 10
7.191804546285667
 20
4.680762473218397
 10
7.224081514358282
 20
4.628100111230817
 10
7.255952909222509
 20
4.578183502529118
 10
7.287329116609145
 20
4.530979190351411
 10
7.318121628932777
 20
4.486451359136775
 10
7.34824310157964
 20
4.444561864156817
 10
7.38444167867755
 20
4.396340559404759
 10
7.419321814328191
 20
4.352011941621431
 10
7.452726397146342
 20
4.311489497644004
 10
7.484501604856723
 20
4.27468160996244
 10
7.514497054541958
 20
4.241491662385748
 10
7.542565949767378
 20
4.211818149886865
 10
7.568565224470697
 20
4.185554792538262
 10
7.592355683506925
 20
4.162590653447618
 10
7.613802139741394
 20
4.142810260599921
 10
7.632773547586295
 20
4.126093732509607
 10
7.649143132878679
 20
4.112316907583662
 10
7.662788519000683
 20
4.101351477093835
 10
7.6735918491453
 20
4.093065121653656
 10
7.681439904634015
 20
4.087321651093345
 10
7.686224219195369
 20
4.083981147623272
 10
7.687841189116499
 20
4.082900112174322
 10
8.332312631944827
 20
3.666035992456678
 10
8.047031465648605
 20
3.181927973575484
 10
7.803004082912201
 20
2.675769347981465
 10
7.098345085241117
 20
2.980030472560953
 10
7.096547896759624
 20
2.980774342798105
 10
7.091112346878779
 20
2.982896470680296
 10
7.081976679622107
 20
2.986230989057293
 10
7.069084818231029
 20
2.990609977361431
 10
7.052386425645477
 20
2.995863634497618
 10
7.031836960050217
 20
3.001820453399854
 10
7.00739772544282
 20
3.008307397119072
 10
6.979035917182923
 20
3.015150076305995
 10
6.946724662485964
 20
3.022172927951663
 10
6.910443055828295
 20
3.029199395247339
 10
6.870176189234202
 20
3.036052108424665
 10
6.825915177419116
 20
3.042553066436197
 10
6.777657177766947
 20
3.048523819335774
 10
6.725405405123282
 20
3.053785651217648
 10
6.669169141389889
 20
3.058159763572825
 10
6.608963739909707
 20
3.061467458920719
 10
6.55739930418186
 20
3.063239991617299
 10
6.503268362378256
 20
3.064104692337079
 10
6.446587724383785
 20
3.06396774461227
 10
6.387376782827747
 20
3.062735659015619
 10
6.32565750644973
 20
3.060315336424456
 10
6.261454432012207
 20
3.056614131145984
 10
6.194794654762798
 20
3.051539913871792
 10
6.125707817449841
 20
3.045001134429557
 10
6.054226097895628
 20
3.036906884300069
 10
5.980384195132263
 20
3.027166958867721
 10
5.904219314105909
 20
3.015691919372785
 10
5.825771148955756
 20
3.002393154533858
 10
5.745081864874773
 20
2.98718294180903
 10
5.662196078560005
 20
2.969974508264469
 10
5.57716083726074
 20
2.950682091019295
 10
5.490025596433723
 20
2.929220997235753
 10
5.38753697841012
 20
2.612562095290162
 10
5.296826889961986
 20
2.292330215460082
 10
5.357354049996136
 20
2.226076222081808
 10
5.417339976366877
 20
2.162792114571074
 10
5.476696495545157
 20
2.102434949386534
 10
5.535336841869128
 20
2.044959555350125
 10
5.593175709451938
 20
1.990318571112969
 10
5.650129303183881
 20
1.938462483773237
 10
5.706115388804175
 20
1.889339668625292
 10
5.761053342018075
 20
1.842896430018872
 10
5.814864196635501
 20
1.799077043306558
 10
5.867470691707828
 20
1.757823797857357
 10
5.91879731764001
 20
1.719077041113586
 10
5.968770361255681
 20
1.682775223667928
 10
6.017317949793317
 20
1.648854945336959
 10
6.064370093812256
 20
1.617251002207018
 10
6.109858728987652
 20
1.587896434627852
 10
6.153717756774157
 20
1.560722576129027
 10
6.205614375676591
 20
1.530024495368171
 10
6.254803246700758
 20
1.502418242725786
 10
6.30117232500763
 20
1.47776376653728
 10
6.344614557848635
 20
1.455917558024031
 10
6.385027982939962
 20
1.436732806413682
 10
6.422315822352332
 20
1.420059556725807
 10
6.456386571846462
 20
1.405744870098872
 10
6.487154085587598
 20
1.393632986532809
 10
6.514537656176009
 20
1.383565489919662
 10
6.538462089933666
 20
1.375381475233255
 10
6.558857777390751
 20
1.368917717747267
 10
6.575660758919292
 20
1.364008844149656
 10
6.58881278546451
 20
1.360487505420076
 10
6.598261374328255
 20
1.358184551335636
 10
6.60395985996234
 20
1.356929206469206
 10
6.605867439733272
 20
1.356549247543451
 10
7.36080840721378
 20
1.218045563300811
 10
7.282503094962671
 20
0.6616156972245353
 10
7.250749710843727
 20
0.1006008664175402
 10
6.483293994006153
 20
0.1120401680796817
 10
6.481348941536449
 20
0.1120396603099259
 10
6.475515045071717
 20
0.1119201559404602
 10
6.465798724139651
 20
0.1115047807170222
 10
6.452212430989947
 20
0.1106169366176084
 10
6.434774640308972
 20
0.1090804847269454
 10
6.413509833737982
 20
0.1067199277623348
 10
6.388448479205937
 20
0.1033605921091382
 10
6.359627005091784
 20
0.09882880922449919
 10
6.327087769234748
 20
0.09295209626834039
 10
6.290879022814992
 20
0.0855593358211983
 10
6.251054869130636
 20
0.07648095454908657
 10
6.207675217300922
 20
0.06554910067630708
 10
6.160805730928932
 20
0.05259782012794299
 10
6.110517771760934
 20
0.03746323120468376
 10
6.056888338383116
 20
0.0199836976536536
 10
6.000000000000001
 20
1.215639832050728e-15
 10
5.951682354329243
 20
-0.01809524857322316
 10
5.901340978481919
 20
-0.03801138388302912
 10
5.84902730477453
 20
-0.05982864817937145
 10
5.794795026515279
 20
-0.08362599319265239
 10
5.738700067664839
 20
-0.109481024224132
 10
5.680800551207566
 20
-0.1374699449206768
 10
5.621156766248129
 20
-0.1676675027623146
 10
5.559831133849185
 20
-0.2001469352907715
 10
5.49688817162631
 20
-0.2349799171067976
 10
5.432394457116979
 20
-0.2722365076637845
 10
5.36641858994102
 20
-0.3119850998847576
 10
5.299031152770505
 20
-0.3542923696295267
 10
5.230304671127637
 20
-0.3992232260383307
 10
5.160313572029777
 20
-0.4468407627779468
 10
5.08913414150123
 20
-0.4972062102158266
 10
5.016844480972104
 20
-0.5503788885473874
 10
5.043337459950228
 20
-0.8821542629660444
 10
5.08207970076681
 20
-1.212723190396142
 10
5.163353810677286
 20
-1.250771157472289
 10
5.242991359766313
 20
-1.286282428937545
 10
5.320927320096885
 20
-1.319330421999557
 10
5.397098816911365
 20
-1.34999007316648
 10
5.471445162250435
 20
-1.378337783768761
 10
5.543907887294532
 20
-1.404451364763191
 10
5.614430773412797
 20
-1.428409980847852
 10
5.682959881905239
 20
-1.450294093916854
 10
5.749443582424421
 20
-1.470185405884062
 10
5.813832580063599
 20
-1.488166800905268
 10
5.876079941098928
 20
-1.504322287028585
 10
5.936141117373934
 20
-1.518736937303015
 10
5.99397396931511
 20
-1.531496830375453
 10
6.049538787568219
 20
-1.542688990606551
 10
6.102798313245428
 20
-1.552401327736138
 10
6.153717756774157
 20
-1.560722576129025
 10
6.213411627697239
 20
-1.569223928381632
 10
6.269420674379731
 20
-1.575905014169575
 10
6.321694976339843
 20
-1.580938102062843
 10
6.370190548166251
 20
-1.584496744198009
 10
6.414869371042126
 20
-1.586755595319544
 10
6.455699419106019
 20
-1.587890231074819
 10
6.49265468063259
 20
-1.588076965704092
 10
6.525715174019753
 20
-1.58749266926714
 10
6.554866958572708
 20
-1.586314584548468
 10
6.580102140079049
 20
-1.58472014378324
 10
6.601418871172861
 20
-1.582886785346138
 10
6.618821346489625
 20
-1.580991770545346
 10
6.632319792617353
 20
-1.579212000663764
 10
6.641930452853294
 20
-1.577723834389307
 10
6.647675566779222
 20
-1.576702905775909
 10
6.649583344672084
 20
-1.576323942876359
 10
7.400060918062779
 20
-1.415381261257078
 10
7.54065273380759
 20
-1.95942157146762
 10
7.726007513193069
 20
-2.48988318510933
 10
7.012593253074129
 20
-2.773007236345068
 10
7.010796453222782
 20
-2.773752044818389
 10
7.005452368026516
 20
-2.77609498798257
 10
6.996634615202294
 20
-2.780197019694061
 10
6.984422280265953
 20
-2.786216529981217
 10
6.968899837046767
 20
-2.794309180026349
 10
6.950157063534527
 20
-2.804627739458446
 10
6.928288953123594
 20
-2.817321926083311
 10
6.90339562132175
 20
-2.832538248176039
 10
6.875582207994967
 20
-2.850419849458986
 10
6.844958775222427
 20
-2.871106356886409
 10
6.811640200839396
 20
-2.894733731355011
 10
6.775746067748607
 20
-2.921434121457473
 10
6.737400549083981
 20
-2.951335720393941
 10
6.696732289313491
 20
-2.984562626154157
 10
6.653874281370996
 20
-3.021234705080616
 10
6.608963739909706
 20
-3.061467458920717
 10
6.571248807848861
 20
-3.096675651202308
 10
6.532361016084864
 20
-3.134340571480998
 10
6.492378589261875
 20
-3.174516671633749
 10
6.451381347047556
 20
-3.217256346008858
 10
6.409450654707602
 20
-3.262609891382551
 10
6.366669372750776
 20
-3.310625468041319
 10
6.323121805669128
 20
-3.361349062010556
 10
6.278893649798693
 20
-3.414824448449567
 10
6.234071940326215
 20
-3.471093156232407
 10
6.188744997467988
 20
-3.530194433733565
 10
6.143002371847238
 20
-3.592165215836819
 10
6.096934789096932
 20
-3.657040092185145
 10
6.050634093715198
 20
-3.724851276688911
 10
6.004193192201003
 20
-3.795628578309022
 10
5.957705995497999
 20
-3.869399373131108
 10
5.91126736077492
 20
-3.946188577746237
 10
6.062708620864805
 20
-4.242570631433978
 10
6.225005035981064
 20
-4.53315048387765
 10
6.314652849285638
 20
-4.537199966570007
 10
6.401817926160326
 20
-4.539532132819677
 10
6.486468284174101
 20
-4.540239696396272
 10
6.568574511585423
 20
-4.539415950733977
 10
6.648109777554178
 20
-4.537154705734821
 10
6.725049840898706
 20
-4.533550224397747
 10
6.799373057394991
 20
-4.528697159305631
 10
6.871060385615914
 20
-4.522690489002438
 10
6.940095391309052
 20
-4.515625454292725
 10
7.006464250312233
 20
-4.50759749449571
 10
7.070155750006812
 20
-4.498702183686143
 10
7.131161289309204
 20
-4.489035166954194
 10
7.189474877201985
 20
-4.478692096716539
 10
7.245093129806557
 20
-4.467768569110796
 10
7.298015266000029
 20
-4.456360060505381
 10
7.348243101579638
 20
-4.444561864156817
 10
7.406646373801616
 20
-4.429572234085665
 10
7.460948726508295
 20
-4.414311018272146
 10
7.511169963515949
 20
-4.398956475863482
 10
7.557335863130642
 20
-4.383685780614655
 10
7.599478138022751
 20
-4.368674841640661
 10
7.637634390045747
 20
-4.354098125455092
 10
7.671848060037619
 20
-4.340128479432151
 10
7.702168372646732
 20
-4.326936956828049
 10
7.728650276227627
 20
-4.314692643496611
 10
7.751354377855803
 20
-4.303562486432613
 10
7.770346873513956
 20
-4.293711124275034
 10
7.785699473505799
 20
-4.285300719900908
 10
7.797489323156809
 20
-4.27849079523898
 10
7.805798918864875
 20
-4.273438068430651
 10
7.810716019567011
 20
-4.270296293464075
 10
7.812333553691666
 20
-4.269216102405369
 10
8.444094325539957
 20
-3.83332911925166
 10
8.782179439801524
 20
-4.282154668104607
 10
9.156423797775247
 20
-4.701305092550583
 10
8.605661848361677
 20
-5.235889426409476
 10
8.604286847618024
 20
-5.237265145248005
 10
8.6002461622171
 20
-5.241474835348988
 10
8.593669400435083
 20
-5.248639026405465
 10
8.584690241001072
 20
-5.258873787006142
 10
8.573446296512497
 20
-5.272290602596426
 10
8.560078973422584
 20
-5.288996257360446
 10
8.54473332870791
 20
-5.309092720116433
 10
8.527557923326594
 20
-5.332677034314936
 10
8.508704672579842
 20
-5.359841212226461
 10
8.488328693492029
 20
-5.390672133401996
 10
8.466588149326514
 20
-5.425251447486927
 10
8.443644091356596
 20
-5.463655481465612
 10
8.419660298013028
 20
-5.505955151410774
 10
8.394803111531411
 20
-5.552215878808605
 10
8.369241272224675
 20
-5.602497511527163
 10
8.34314575050762
 20
-5.656854249492379
 10
8.321775288576241
 20
-5.703815257370524
 10
8.30026139467293
 20
-5.75349481993902
 10
8.278697176776538
 20
-5.805913308897178
 10
8.257176429093352
 20
-5.861088584646616
 10
8.235793571069973
 20
-5.919035978210291
 10
8.214643585978234
 20
-5.97976827454727
 10
8.193821959102877
 20
-6.043295697272815
 10
8.173424615562993
 20
-6.109625894792625
 10
8.153547857798291
 20
-6.178763927859449
 10
8.134288302751569
 20
-6.250712258559641
 10
8.115742818778855
 20
-6.325470740736495
 10
8.098008462318816
 20
-6.403036611856563
 10
8.081182414353234
 20
-6.483404486324511
 10
8.065361916690421
 20
-6.566566350251291
 10
8.050644208103508
 20
-6.652511557679842
 10
8.037126460355786
 20
-6.741226828271759
 10
8.290460442527189
 20
-6.957094080264632
 10
8.551602873962342
 20
-7.163446709300251
 10
8.635976323744847
 20
-7.132881210577558
 10
8.717398835604413
 20
-7.10167922044127
 10
8.795876341651201
 20
-7.06993863439199
 10
8.871417370830795
 20
-7.037756899710288
 10
8.944033034174474
 20
-7.005230953162582
 10
9.013737008638637
 20
-6.97245715910287
 10
9.080545519543019
 20
-6.939531248001106
 10
9.144477321618037
 20
-6.906548255428778
 10
9.205553678672235
 20
-6.873602461531997
 10
9.263798341891391
 20
-6.840787331022219
 10
9.319237526781603
 20
-6.808195453714333
 10
9.371899888769182
 20
-6.775918485641719
 10
9.421816497470882
 20
-6.744047090777491
 10
9.469020809648589
 20
-6.712670883390856
 10
9.513548640863224
 20
-6.681878371067223
 10
9.555438135843183
 20
-6.651756898420361
 10
9.603659440595241
 20
-6.61555832132245
 10
9.647988058378569
 20
-6.580678185671809
 10
9.688510502355996
 20
-6.547273602853658
 10
9.725318390037559
 20
-6.515498395143277
 10
9.758508337614252
 20
-6.485502945458042
 10
9.788181850113133
 20
-6.457434050232622
 10
9.814445207461736
 20
-6.431434775529303
 10
9.837409346552381
 20
-6.407644316493075
 10
9.857189739400077
 20
-6.386197860258607
 10
9.873906267490392
 20
-6.367226452413706
 10
9.887683092416337
 20
-6.350856867121321
 10
9.898648522906164
 20
-6.337211480999317
 10
9.906934878346343
 20
-6.3264081508547
 10
9.912678348906654
 20
-6.318560095365986
 10
9.916018852376727
 20
-6.313775780804631
 10
9.917099887825678
 20
-6.312158810883501
 10
10.33396400754332
 20
-5.667687368055174
 10
10.81807202642451
 20
-5.952968534351395
 10
11.32423065201853
 20
-6.196995917087797
 10
11.01996952743904
 20
-6.901654914758882
 10
11.01922565720189
 20
-6.903452103240374
 10
11.0171035293197
 20
-6.908887653121219
 10
11.0137690109427
 20
-6.918023320377892
 10
11.00939002263857
 20
-6.93091518176897
 10
11.00413636550238
 20
-6.947613574354521
 10
10.99817954660014
 20
-6.968163039949781
 10
10.99169260288092
 20
-6.992602274557179
 10
10.984849923694
 20
-7.020964082817075
 10
10.97782707204833
 20
-7.053275337514035
 10
10.97080060475266
 20
-7.089556944171704
 10
10.96394789157533
 20
-7.129823810765796
 10
10.9574469335638
 20
-7.174084822580882
 10
10.95147618066422
 20
-7.222342822233052
 10
10.94621434878235
 20
-7.274594594876716
 10
10.94184023642717
 20
-7.330830858610109
 10
10.93853254107928
 20
-7.391036260090291
 10
10.9367600083827
 20
-7.442600695818138
 10
10.93589530766292
 20
-7.496731637621743
 10
10.93603225538773
 20
-7.553412275616213
 10
10.93726434098438
 20
-7.612623217172251
 10
10.93968466357554
 20
-7.674342493550268
 10
10.94338586885401
 20
-7.738545567987791
 10
10.9484600861282
 20
-7.805205345237201
 10
10.95499886557044
 20
-7.874292182550157
 10
10.96309311569993
 20
-7.94577390210437
 10
10.97283304113228
 20
-8.019615804867735
 10
10.98430808062721
 20
-8.09578068589409
 10
10.99760684546614
 20
-8.174228851044242
 10
11.01281705819097
 20
-8.254918135125225
 10
11.03002549173553
 20
-8.337803921439994
 10
11.0493179089807
 20
-8.42283916273926
 10
11.07077900276424
 20
-8.509974403566275
 10
11.38743790470983
 20
-8.612463021589878
 10
11.70766978453991
 20
-8.70317311003801
 10
11.77392377791819
 20
-8.642645950003864
 10
11.83720788542892
 20
-8.582660023633121
 10
11.89756505061346
 20
-8.523303504454841
 10
11.95504044464987
 20
-8.46466315813087
 10
12.00968142888703
 20
-8.406824290548062
 10
12.06153751622676
 20
-8.349870696816119
 10
12.1106603313747
 20
-8.293884611195825
 10
12.15710356998112
 20
-8.238946657981923
 10
12.20092295669344
 20
-8.185135803364497
 10
12.24217620214264
 20
-8.132529308292172
 10
12.28092295888641
 20
-8.081202682359988
 10
12.31722477633207
 20
-8.031229638744319
 10
12.35114505466304
 20
-7.982682050206682
 10
12.38274899779298
 20
-7.935629906187742
 10
12.41210356537214
 20
-7.890141271012347
 10
12.43927742387097
 20
-7.846282243225842
 10
12.46997550463182
 20
-7.794385624323408
 10
12.49758175727421
 20
-7.74519675329924
 10
12.52223623346272
 20
-7.698827674992369
 10
12.54408244197596
 20
-7.655385442151364
 10
12.56326719358631
 20
-7.614972017060037
 10
12.57994044327419
 20
-7.577684177647667
 10
12.59425512990112
 20
-7.543613428153537
 10
12.60636701346719
 20
-7.512845914412401
 10
12.61643451008034
 20
-7.48546234382399
 10
12.62461852476674
 20
-7.461537910066333
 10
12.63108228225273
 20
-7.441142222609249
 10
12.63599115585034
 20
-7.424339241080707
 10
12.63951249457992
 20
-7.41118721453549
 10
12.64181544866436
 20
-7.401738625671744
 10
12.64307079353079
 20
-7.396040140037659
 10
12.64345075245654
 20
-7.394132560266726
 10
12.78195443669919
 20
-6.639191592786219
 10
13.33838430277546
 20
-6.717496905037328
 10
13.89939913358246
 20
-6.749250289156273
 10
13.88795983192032
 20
-7.516706005993847
 10
13.88796033969007
 20
-7.518651058463551
 10
13.88807984405954
 20
-7.524484954928283
 10
13.88849521928298
 20
-7.534201275860349
 10
13.88938306338239
 20
-7.547787569010053
 10
13.89091951527305
 20
-7.565225359691028
 10
13.89328007223767
 20
-7.586490166262018
 10
13.89663940789086
 20
-7.611551520794063
 10
13.9011711907755
 20
-7.640372994908216
 10
13.90704790373166
 20
-7.672912230765252
 10
13.9144406641788
 20
-7.709120977185008
 10
13.92351904545091
 20
-7.748945130869364
 10
13.93445089932369
 20
-7.792324782699078
 10
13.94740217987206
 20
-7.839194269071068
 10
13.96253676879532
 20
-7.889482228239066
 10
13.98001630234635
 20
-7.943111661616884
 10
14
 20
-7.999999999999999
 10
14.01809524857322
 20
-8.048317645670757
 10
14.03801138388303
 20
-8.098659021518081
 10
14.05982864817937
 20
-8.15097269522547
 10
14.08362599319265
 20
-8.205204973484721
 10
14.10948102422413
 20
-8.261299932335161
 10
14.13746994492068
 20
-8.319199448792434
 10
14.16766750276231
 20
-8.378843233751871
 10
14.20014693529077
 20
-8.440168866150815
 10
14.2349799171068
 20
-8.50311182837369
 10
14.27223650766378
 20
-8.567605542883021
 10
14.31198509988476
 20
-8.63358141005898
 10
14.35429236962953
 20
-8.700968847229495
 10
14.39922322603833
 20
-8.769695328872363
 10
14.44684076277795
 20
-8.839686427970223
 10
14.49720621021583
 20
-8.91086585849877
 10
14.55037888854739
 20
-8.983155519027896
 10
14.88215426296604
 20
-8.956662540049772
 10
15.21272319039614
 20
-8.91792029923319
 10
15.25077115747229
 20
-8.836646189322714
 10
15.28628242893754
 20
-8.757008640233687
 10
15.31933042199956
 20
-8.679072679903115
 10
15.34999007316648
 20
-8.602901183088635
 10
15.37833778376876
 20
-8.528554837749565
 10
15.40445136476319
 20
-8.456092112705468
 10
15.42840998084785
 20
-8.385569226587203
 10
15.45029409391685
 20
-8.317040118094761
 10
15.47018540588406
 20
-8.250556417575579
 10
15.48816680090527
 20
-8.186167419936401
 10
15.50432228702858
 20
-8.123920058901072
 10
15.51873693730301
 20
-8.063858882626066
 10
15.53149683037545
 20
-8.00602603068489
 10
15.54268899060655
 20
-7.950461212431781
 10
15.55240132773614
 20
-7.897201686754572
 10
15.56072257612902
 20
-7.846282243225843
 10
15.56922392838163
 20
-7.786588372302761
 10
15.57590501416957
 20
-7.730579325620269
 10
15.58093810206284
 20
-7.678305023660157
 10
15.58449674419801
 20
-7.629809451833749
 10
15.58675559531954
 20
-7.585130628957874
 10
15.58789023107482
 20
-7.544300580893981
 10
15.58807696570409
 20
-7.50734531936741
 10
15.58749266926714
 20
-7.474284825980247
 10
15.58631458454847
 20
-7.445133041427292
 10
15.58472014378324
 20
-7.419897859920951
 10
15.58288678534614
 20
-7.398581128827139
 10
15.58099177054535
 20
-7.381178653510375
 10
15.57921200066376
 20
-7.367680207382647
 10
15.57772383438931
 20
-7.358069547146706
 10
15.57670290577591
 20
-7.352324433220778
 10
15.57632394287636
 20
-7.350416655327916
 10
15.41538126125708
 20
-6.599939081937221
 10
15.95942157146762
 20
-6.45934726619241
 10
16.48988318510933
 20
-6.27399248680693
 10
16.77300723634507
 20
-6.98740674692587
 10
16.77375204481839
 20
-6.989203546777216
 10
16.77609498798257
 20
-6.994547631973483
 10
16.78019701969406
 20
-7.003365384797704
 10
16.78621652998122
 20
-7.015577719734046
 10
16.79430918002635
 20
-7.031100162953232
 10
16.80462773945845
 20
-7.049842936465471
 10
16.81732192608331
 20
-7.071711046876405
 10
16.83253824817604
 20
-7.096604378678248
 10
16.85041984945899
 20
-7.124417792005032
 10
16.87110635688641
 20
-7.155041224777571
 10
16.89473373135501
 20
-7.188359799160602
 10
16.92143412145748
 20
-7.224253932251391
 10
16.95133572039394
 20
-7.262599450916017
 10
16.98456262615416
 20
-7.303267710686507
 10
17.02123470508062
 20
-7.346125718629002
 10
17.06146745892072
 20
-7.391036260090292
 10
17.09667565120231
 20
-7.428751192151137
 10
17.134340571481
 20
-7.467638983915134
 10
17.17451667163375
 20
-7.507621410738123
 10
17.21725634600886
 20
-7.548618652952443
 10
17.26260989138255
 20
-7.590549345292396
 10
17.31062546804132
 20
-7.633330627249222
 10
17.36134906201056
 20
-7.67687819433087
 10
17.41482444844957
 20
-7.721106350201304
 10
17.47109315623241
 20
-7.765928059673783
 10
17.53019443373357
 20
-7.81125500253201
 10
17.59216521583682
 20
-7.856997628152761
 10
17.65704009218515
 20
-7.903065210903066
 10
17.72485127668891
 20
-7.949365906284799
 10
17.79562857830902
 20
-7.995806807798996
 10
17.86939937313111
 20
-8.042294004501997
 10
17.94618857774624
 20
-8.088732639225078
 10
18.24257063143398
 20
-7.937291379135193
 10
18.53315048387765
 20
-7.774994964018934
 10
18.53719996657001
 20
-7.685347150714359
 10
18.53953213281968
 20
-7.598182073839672
 10
18.54023969639627
 20
-7.513531715825897
 10
18.53941595073398
 20
-7.431425488414575
 10
18.53715470573482
 20
-7.35189022244582
 10
18.53355022439775
 20
-7.274950159101293
 10
18.52869715930564
 20
-7.200626942605007
 10
18.52269048900244
 20
-7.128939614384083
 10
18.51562545429273
 20
-7.059904608690946
 10
18.50759749449571
 20
-6.993535749687764
 10
18.49870218368615
 20
-6.929844249993186
 10
18.4890351669542
 20
-6.868838710690794
 10
18.47869209671654
 20
-6.810525122798014
 10
18.4677685691108
 20
-6.75490687019344
 10
18.45636006050538
 20
-6.70198473399997
 10
18.44456186415682
 20
-6.651756898420359
 10
18.42957223408567
 20
-6.593353626198382
 10
18.41431101827215
 20
-6.539051273491702
 10
18.39895647586349
 20
-6.48883003648405
 10
18.38368578061466
 20
-6.442664136869356
 10
18.36867484164066
 20
-6.400521861977246
 10
18.3540981254551
 20
-6.362365609954251
 10
18.34012847943215
 20
-6.328151939962378
 10
18.32693695682805
 20
-6.297831627353266
 10
18.31469264349661
 20
-6.271349723772371
 10
18.30356248643261
 20
-6.248645622144195
 10
18.29371112427503
 20
-6.229653126486041
 10
18.28530071990091
 20
-6.214300526494199
 10
18.27849079523898
 20
-6.202510676843189
 10
18.27343806843065
 20
-6.194201081135122
 10
18.27029629346408
 20
-6.189283980432986
 10
18.26921610240537
 20
-6.187666446308332
 10
17.83332911925166
 20
-5.555905674460041
 10
18.28215466810461
 20
-5.217820560198473
 10
18.70130509255058
 20
-4.843576202224752
 10
19.23588942640948
 20
-5.394338151638323
 10
19.237265145248
 20
-5.395713152381976
 10
19.24147483534899
 20
-5.399753837782899
 10
19.24863902640546
 20
-5.406330599564917
 10
19.25887378700614
 20
-5.415309758998928
 10
19.27229060259642
 20
-5.426553703487503
 10
19.28899625736044
 20
-5.439921026577417
 10
19.30909272011643
 20
-5.455266671292089
 10
19.33267703431493
 20
-5.472442076673407
 10
19.35984121222646
 20
-5.491295327420158
 10
19.390672133402
 20
-5.51167130650797
 10
19.42525144748693
 20
-5.533411850673486
 10
19.46365548146561
 20
-5.556355908643405
 10
19.50595515141077
 20
-5.580339701986972
 10
19.5522158788086
 20
-5.605196888468589
 10
19.60249751152716
 20
-5.630758727775325
 10
19.65685424949238
 20
-5.656854249492381
 10
19.70381525737052
 20
-5.678224711423759
 10
19.75349481993902
 20
-5.69973860532707
 10
19.80591330889718
 20
-5.721302823223462
 10
19.86108858464662
 20
-5.742823570906648
 10
19.91903597821029
 20
-5.764206428930026
 10
19.97976827454727
 20
-5.785356414021766
 10
20.04329569727281
 20
-5.806178040897122
 10
20.10962589479263
 20
-5.826575384437007
 10
20.17876392785945
 20
-5.84645214220171
 10
20.25071225855964
 20
-5.865711697248431
 10
20.32547074073649
 20
-5.884257181221145
 10
20.40303661185656
 20
-5.901991537681185
 10
20.48340448632451
 20
-5.918817585646766
 10
20.56656635025129
 20
-5.934638083309579
 10
20.65251155767984
 20
-5.949355791896492
 10
20.74122682827176
 20
-5.962873539644214
 10
20.95709408026463
 20
-5.709539557472811
 10
21.16344670930025
 20
-5.448397126037658
 10
21.13288121057756
 20
-5.364023676255153
 10
21.10167922044127
 20
-5.282601164395587
 10
21.06993863439199
 20
-5.2041236583488
 10
21.03775689971029
 20
-5.128582629169205
 10
21.00523095316258
 20
-5.055966965825526
 10
20.97245715910287
 20
-4.986262991361363
 10
20.93953124800111
 20
-4.919454480456982
 10
20.90654825542878
 20
-4.855522678381964
 10
20.87360246153199
 20
-4.794446321327765
 10
20.84078733102222
 20
-4.736201658108609
 10
20.80819545371433
 20
-4.680762473218397
 10
20.77591848564172
 20
-4.628100111230818
 10
20.74404709077749
 20
-4.578183502529119
 10
20.71267088339086
 20
-4.530979190351411
 10
20.68187837106722
 20
-4.486451359136776
 10
20.65175689842036
 20
-4.444561864156818
 10
20.61555832132245
 20
-4.39634055940476
 10
20.58067818567181
 20
-4.352011941621432
 10
20.54727360285366
 20
-4.311489497644006
 10
20.51549839514328
 20
-4.274681609962441
 10
20.48550294545804
 20
-4.24149166238575
 10
20.45743405023262
 20
-4.211818149886866
 10
20.4314347755293
 20
-4.185554792538264
 10
20.40764431649307
 20
-4.162590653447619
 10
20.3861978602586
 20
-4.142810260599922
 10
20.3672264524137
 20
-4.126093732509608
 10
20.35085686712132
 20
-4.112316907583663
 10
20.33721148099931
 20
-4.101351477093836
 10
20.3264081508547
 20
-4.093065121653657
 10
20.31856009536599
 20
-4.087321651093346
 10
20.31377578080463
 20
-4.083981147623273
 10
20.3121588108835
 20
-4.082900112174323
 10
19.66768736805517
 20
-3.666035992456679
 10
19.9529685343514
 20
-3.181927973575486
 10
20.1969959170878
 20
-2.675769347981468
 10
20.90165491475888
 20
-2.980030472560957
 10
20.90345210324038
 20
-2.980774342798108
 10
20.90888765312122
 20
-2.9828964706803
 10
20.91802332037789
 20
-2.986230989057297
 10
20.93091518176897
 20
-2.990609977361435
 10
20.94761357435452
 20
-2.995863634497622
 10
20.96816303994978
 20
-3.001820453399858
 10
20.99260227455718
 20
-3.008307397119076
 10
21.02096408281707
 20
-3.015150076305998
 10
21.05327533751403
 20
-3.022172927951666
 10
21.0895569441717
 20
-3.029199395247343
 10
21.1298238107658
 20
-3.036052108424669
 10
21.17408482258088
 20
-3.042553066436201
 10
21.22234282223305
 20
-3.048523819335778
 10
21.27459459487672
 20
-3.053785651217652
 10
21.33083085861011
 20
-3.058159763572829
 10
21.39103626009029
 20
-3.061467458920723
 10
21.44260069581814
 20
-3.063239991617303
 10
21.49673163762174
 20
-3.064104692337083
 10
21.55341227561621
 20
-3.063967744612274
 10
21.61262321717225
 20
-3.062735659015623
 10
21.67434249355027
 20
-3.06031533642446
 10
21.73854556798779
 20
-3.056614131145988
 10
21.8052053452372
 20
-3.051539913871796
 10
21.87429218255016
 20
-3.045001134429561
 10
21.94577390210437
 20
-3.036906884300073
 10
22.01961580486773
 20
-3.027166958867725
 10
22.09578068589409
 20
-3.01569191937279
 10
22.17422885104424
 20
-3.002393154533863
 10
22.25491813512522
 20
-2.987182941809035
 10
22.33780392143999
 20
-2.969974508264473
 10
22.42283916273926
 20
-2.9506820910193
 10
22.50997440356628
 20
-2.929220997235758
 10
22.61246302158988
 20
-2.612562095290167
 10
22.70317311003801
 20
-2.292330215460086
 10
22.64264595000386
 20
-2.226076222081812
 10
22.58266002363312
 20
-2.162792114571078
 10
22.52330350445484
 20
-2.102434949386538
 10
22.46466315813087
 20
-2.044959555350129
 10
22.40682429054806
 20
-1.990318571112974
 10
22.34987069681612
 20
-1.938462483773241
 10
22.29388461119582
 20
-1.889339668625297
 10
22.23894665798192
 20
-1.842896430018876
 10
22.1851358033645
 20
-1.799077043306563
 10
22.13252930829217
 20
-1.757823797857362
 10
22.08120268235999
 20
-1.71907704111359
 10
22.03122963874432
 20
-1.682775223667932
 10
21.98268205020668
 20
-1.648854945336963
 10
21.93562990618774
 20
-1.617251002207022
 10
21.89014127101235
 20
-1.587896434627856
 10
21.84628224322584
 20
-1.560722576129031
 10
21.79438562432341
 20
-1.530024495368176
 10
21.74519675329924
 20
-1.50241824272579
 10
21.69882767499237
 20
-1.477763766537284
 10
21.65538544215136
 20
-1.455917558024035
 10
21.61497201706004
 20
-1.436732806413687
 10
21.57768417764767
 20
-1.420059556725811
 10
21.54361342815354
 20
-1.405744870098876
 10
21.5128459144124
 20
-1.393632986532813
 10
21.48546234382399
 20
-1.383565489919666
 10
21.46153791006633
 20
-1.375381475233259
 10
21.44114222260925
 20
-1.368917717747271
 10
21.42433924108071
 20
-1.36400884414966
 10
21.41118721453549
 20
-1.36048750542008
 10
21.40173862567174
 20
-1.35818455133564
 10
21.39604014003766
 20
-1.35692920646921
 10
21.39413256026673
 20
-1.356549247543455
 10
20.63919159278622
 20
-1.218045563300814
 10
20.71749690503733
 20
-0.6616156972245388
  0
LINE
  5
53
100
AcDbEntity
  8
0
  6
ByLayer
 62
  256
370
   -1
100
AcDbLine
 10
6.123233995736766e-17
 20
1
 11
1
 21
1
  0
LINE
  5
54
100
AcDbEntity
  8
0
  6
ByLayer
 62
  256
370
   -1
100
AcDbLine
 10
1
 20
1
 11
1
 21
-1
  0
LINE
  5
55
100
AcDbEntity
  8
0
  6
ByLayer
 62
  256
370
   -1
100
AcDbLine
 10
1
 20
-1
 11
-1.83697019872103e-16
 21
-1
  0
LINE
  5
56
100
AcDbEntity
  8
0
  6
ByLayer
 62
  256
370
   -1
100
AcDbLine
 10
14
 20
1
 11
15
 21
1
  0
LINE
  5
57
100
AcDbEntity
  8
0
  6
ByLayer
 62
  256
370
   -1
100
AcDbLine
 10
15
 20
1
 11
15
 21
-1
  0
LINE
  5
58
100
AcDbEntity
  8
0
  6
ByLayer
 62
  256
370
   -1
100
AcDbLine
 10
15
 20
-1
 11
14
 21
-1
  0
ARC
  5
59
100
AcDbEntity
  8
0
  6
ByLayer
 62
  256
370
   -1
100
AcDbCircle
 10
0
 20
0
 40
1
100
AcDbArc
 50
90
 51
270
  0
ARC
  5
5A
100
AcDbEntity
  8
0
  6
ByLayer
 62
  256
370
   -1
100
AcDbCircle
 10
14
 20
0
 40
1
100
AcDbArc
 50
90
 51
270
  0
CIRCLE
  5
5B
100
AcDbEntity
  8
0
  6
ByLayer
 62
  256
370
   -1
100
AcDbCircle
 10
18
 20
0
 40
2
  0
CIRCLE
  5
5C
100
AcDbEntity
  8
0
  6
ByLayer
 62
  256
370
   -1
100
AcDbCircle
 10
10
 20
0
 40
2
  0
CIRCLE
  5
5D
100
AcDbEntity
  8
0
  6
ByLayer
 62
  256
370
   -1
100
AcDbCircle
 10
14
 20
4
 40
2
  0
CIRCLE
  5
5E
100
AcDbEntity
  8
0
  6
ByLayer
 62
  256
370
   -1
100
AcDbCircle
 10
14
 20
-4
 40
2
  0
ENDSEC
  0
SECTION
  2
OBJECTS
  0
DICTIONARY
  5
C
330
0
100
AcDbDictionary
281
    1
  3
ACAD_GROUP
350
D
  0
DICTIONARY
  5
D
330
C
100
AcDbDictionary
281
    1
  0
ENDSEC
  0
EOF
