solid OpenSCAD_Model
  facet normal 0 0 -1
    outer loop
      vertex 14 3 -1
      vertex 15 4 -1
      vertex 15.5 2.7998 -1
    endloop
  endfacet
  facet normal 0 0 -1
    outer loop
      vertex 15.5 1.2002 -1
      vertex 17 1.2002 -1
      vertex 17 0 -1
    endloop
  endfacet
  facet normal 0 0 -1
    outer loop
      vertex 17 0 -1
      vertex 10 1.5 -1
      vertex 11.2002 1.5 -1
    endloop
  endfacet
  facet normal 0 0 -1
    outer loop
      vertex 15.5 1.2002 -1
      vertex 12.7998 1.5 -1
      vertex 14 3 -1
    endloop
  endfacet
  facet normal 0 0 -1
    outer loop
      vertex 15.5 2.7998 -1
      vertex 17 4 -1
      vertex 17 2.7998 -1
    endloop
  endfacet
  facet normal 0 0 -1
    outer loop
      vertex 15.5 2.7998 -1
      vertex 15 4 -1
      vertex 17 4 -1
    endloop
  endfacet
  facet normal 0 0 -1
    outer loop
      vertex 15.5 1.2002 -1
      vertex 14 3 -1
      vertex 15.5 2.7998 -1
    endloop
  endfacet
  facet normal 0 0 -1
    outer loop
      vertex 12.7998 1.5 -1
      vertex 12.7998 3 -1
      vertex 14 3 -1
    endloop
  endfacet
  facet normal 0 0 -1
    outer loop
      vertex 17 0 -1
      vertex 12.7998 1.5 -1
      vertex 15.5 1.2002 -1
    endloop
  endfacet
  facet normal 0 0 -1
    outer loop
      vertex 1.2002 1.5 -1
      vertex 0 0 -1
      vertex 0 1.2002 -1
    endloop
  endfacet
  facet normal 0 0 -1
    outer loop
      vertex 17 0 -1
      vertex 11.2002 1.5 -1
      vertex 12.7998 1.5 -1
    endloop
  endfacet
  facet normal 0 0 -1
    outer loop
      vertex 11.2002 1.5 -1
      vertex 10 3 -1
      vertex 11.2002 3 -1
    endloop
  endfacet
  facet normal 0 0 -1
    outer loop
      vertex 11.2002 1.5 -1
      vertex 10 1.5 -1
      vertex 10 3 -1
    endloop
  endfacet
  facet normal 0 0 -1
    outer loop
      vertex 0 0 -1
      vertex 4 1.5 -1
      vertex 10 1.5 -1
    endloop
  endfacet
  facet normal 0 0 -1
    outer loop
      vertex 4 1.5 -1
      vertex 2.7998 3 -1
      vertex 4 3 -1
    endloop
  endfacet
  facet normal 0 0 -1
    outer loop
      vertex 4 1.5 -1
      vertex 2.7998 1.5 -1
      vertex 2.7998 3 -1
    endloop
  endfacet
  facet normal 0 0 -1
    outer loop
      vertex -1.5 1.2002 -1
      vertex -1.5 2.7998 -1
      vertex 0 1.2002 -1
    endloop
  endfacet
  facet normal 0 0 -1
    outer loop
      vertex 0 2.7998 -1
      vertex 1.2002 1.5 -1
      vertex 0 1.2002 -1
    endloop
  endfacet
  facet normal 0 0 -1
    outer loop
      vertex 0 2.7998 -1
      vertex 0 3 -1
      vertex 1.2002 3 -1
    endloop
  endfacet
  facet normal 0 0 -1
    outer loop
      vertex 1.2002 1.5 -1
      vertex 0 2.7998 -1
      vertex 1.2002 3 -1
    endloop
  endfacet
  facet normal 0 0 -1
    outer loop
      vertex 0 1.2002 -1
      vertex -1.5 2.7998 -1
      vertex 0 2.7998 -1
    endloop
  endfacet
  facet normal 0 0 -1
    outer loop
      vertex 0 0 -1
      vertex 2.7998 1.5 -1
      vertex 4 1.5 -1
    endloop
  endfacet
  facet normal 0 -0 -1
    outer loop
      vertex 1.2002 1.5 -1
      vertex 2.7998 1.5 -1
      vertex 0 0 -1
    endloop
  endfacet
  facet normal 0 0 -1
    outer loop
      vertex 17 0 -1
      vertex 0 0 -1
      vertex 10 1.5 -1
    endloop
  endfacet
  facet normal 0 0 1
    outer loop
      vertex 15.5 2.7998 1
      vertex 15 4 1
      vertex 14 3 1
    endloop
  endfacet
  facet normal 0 -0 1
    outer loop
      vertex 17 0 1
      vertex 17 1.2002 1
      vertex 15.5 1.2002 1
    endloop
  endfacet
  facet normal 0 0 1
    outer loop
      vertex 11.2002 1.5 1
      vertex 10 1.5 1
      vertex 17 0 1
    endloop
  endfacet
  facet normal 0 0 1
    outer loop
      vertex 14 3 1
      vertex 12.7998 1.5 1
      vertex 15.5 1.2002 1
    endloop
  endfacet
  facet normal 0 -0 1
    outer loop
      vertex 17 2.7998 1
      vertex 17 4 1
      vertex 15.5 2.7998 1
    endloop
  endfacet
  facet normal 0 0 1
    outer loop
      vertex 17 4 1
      vertex 15 4 1
      vertex 15.5 2.7998 1
    endloop
  endfacet
  facet normal 0 0 1
    outer loop
      vertex 15.5 2.7998 1
      vertex 14 3 1
      vertex 15.5 1.2002 1
    endloop
  endfacet
  facet normal 0 0 1
    outer loop
      vertex 14 3 1
      vertex 12.7998 3 1
      vertex 12.7998 1.5 1
    endloop
  endfacet
  facet normal 0 0 1
    outer loop
      vertex 15.5 1.2002 1
      vertex 12.7998 1.5 1
      vertex 17 0 1
    endloop
  endfacet
  facet normal -0 0 1
    outer loop
      vertex 0 1.2002 1
      vertex 0 0 1
      vertex 1.2002 1.5 1
    endloop
  endfacet
  facet normal 0 0 1
    outer loop
      vertex 12.7998 1.5 1
      vertex 11.2002 1.5 1
      vertex 17 0 1
    endloop
  endfacet
  facet normal 0 0 1
    outer loop
      vertex 11.2002 3 1
      vertex 10 3 1
      vertex 11.2002 1.5 1
    endloop
  endfacet
  facet normal 0 0 1
    outer loop
      vertex 10 3 1
      vertex 10 1.5 1
      vertex 11.2002 1.5 1
    endloop
  endfacet
  facet normal 0 0 1
    outer loop
      vertex 10 1.5 1
      vertex 4 1.5 1
      vertex 0 0 1
    endloop
  endfacet
  facet normal 0 0 1
    outer loop
      vertex 4 3 1
      vertex 2.7998 3 1
      vertex 4 1.5 1
    endloop
  endfacet
  facet normal 0 0 1
    outer loop
      vertex 2.7998 3 1
      vertex 2.7998 1.5 1
      vertex 4 1.5 1
    endloop
  endfacet
  facet normal 0 0 1
    outer loop
      vertex 0 1.2002 1
      vertex -1.5 2.7998 1
      vertex -1.5 1.2002 1
    endloop
  endfacet
  facet normal 0 0 1
    outer loop
      vertex 0 1.2002 1
      vertex 1.2002 1.5 1
      vertex 0 2.7998 1
    endloop
  endfacet
  facet normal 0 0 1
    outer loop
      vertex 1.2002 3 1
      vertex 0 3 1
      vertex 0 2.7998 1
    endloop
  endfacet
  facet normal 0 0 1
    outer loop
      vertex 1.2002 3 1
      vertex 0 2.7998 1
      vertex 1.2002 1.5 1
    endloop
  endfacet
  facet normal 0 0 1
    outer loop
      vertex 0 2.7998 1
      vertex -1.5 2.7998 1
      vertex 0 1.2002 1
    endloop
  endfacet
  facet normal 0 0 1
    outer loop
      vertex 4 1.5 1
      vertex 2.7998 1.5 1
      vertex 0 0 1
    endloop
  endfacet
  facet normal 0 0 1
    outer loop
      vertex 0 0 1
      vertex 2.7998 1.5 1
      vertex 1.2002 1.5 1
    endloop
  endfacet
  facet normal 0 0 1
    outer loop
      vertex 10 1.5 1
      vertex 0 0 1
      vertex 17 0 1
    endloop
  endfacet
  facet normal 0 1 0
    outer loop
      vertex 15.5 1.2002 -1
      vertex 17 1.2002 1
      vertex 17 1.2002 -1
    endloop
  endfacet
  facet normal 0 1 0
    outer loop
      vertex 15.5 1.2002 -1
      vertex 15.5 1.2002 1
      vertex 17 1.2002 1
    endloop
  endfacet
  facet normal 1 0 0
    outer loop
      vertex 15.5 2.7998 -1
      vertex 15.5 1.2002 1
      vertex 15.5 1.2002 -1
    endloop
  endfacet
  facet normal 1 0 -0
    outer loop
      vertex 15.5 2.7998 -1
      vertex 15.5 2.7998 1
      vertex 15.5 1.2002 1
    endloop
  endfacet
  facet normal 0 -1 0
    outer loop
      vertex 17 2.7998 -1
      vertex 15.5 2.7998 1
      vertex 15.5 2.7998 -1
    endloop
  endfacet
  facet normal 0 -1 0
    outer loop
      vertex 17 2.7998 -1
      vertex 17 2.7998 1
      vertex 15.5 2.7998 1
    endloop
  endfacet
  facet normal 1 0 0
    outer loop
      vertex 17 4 -1
      vertex 17 2.7998 1
      vertex 17 2.7998 -1
    endloop
  endfacet
  facet normal 1 0 -0
    outer loop
      vertex 17 4 -1
      vertex 17 4 1
      vertex 17 2.7998 1
    endloop
  endfacet
  facet normal 0 1 0
    outer loop
      vertex 15 4 -1
      vertex 17 4 1
      vertex 17 4 -1
    endloop
  endfacet
  facet normal 0 1 0
    outer loop
      vertex 15 4 -1
      vertex 15 4 1
      vertex 17 4 1
    endloop
  endfacet
  facet normal -0.707107 0.707107 0
    outer loop
      vertex 14 3 -1
      vertex 15 4 1
      vertex 15 4 -1
    endloop
  endfacet
  facet normal -0.707107 0.707107 0
    outer loop
      vertex 14 3 -1
      vertex 14 3 1
      vertex 15 4 1
    endloop
  endfacet
  facet normal 0 1 0
    outer loop
      vertex 12.7998 3 -1
      vertex 14 3 1
      vertex 14 3 -1
    endloop
  endfacet
  facet normal 0 1 0
    outer loop
      vertex 12.7998 3 -1
      vertex 12.7998 3 1
      vertex 14 3 1
    endloop
  endfacet
  facet normal -1 0 0
    outer loop
      vertex 12.7998 1.5 -1
      vertex 12.7998 3 1
      vertex 12.7998 3 -1
    endloop
  endfacet
  facet normal -1 0 0
    outer loop
      vertex 12.7998 1.5 -1
      vertex 12.7998 1.5 1
      vertex 12.7998 3 1
    endloop
  endfacet
  facet normal 0 1 0
    outer loop
      vertex 11.2002 1.5 -1
      vertex 12.7998 1.5 1
      vertex 12.7998 1.5 -1
    endloop
  endfacet
  facet normal 0 1 0
    outer loop
      vertex 11.2002 1.5 -1
      vertex 11.2002 1.5 1
      vertex 12.7998 1.5 1
    endloop
  endfacet
  facet normal 1 0 0
    outer loop
      vertex 11.2002 3 -1
      vertex 11.2002 1.5 1
      vertex 11.2002 1.5 -1
    endloop
  endfacet
  facet normal 1 0 -0
    outer loop
      vertex 11.2002 3 -1
      vertex 11.2002 3 1
      vertex 11.2002 1.5 1
    endloop
  endfacet
  facet normal 0 1 0
    outer loop
      vertex 10 3 -1
      vertex 11.2002 3 1
      vertex 11.2002 3 -1
    endloop
  endfacet
  facet normal 0 1 0
    outer loop
      vertex 10 3 -1
      vertex 10 3 1
      vertex 11.2002 3 1
    endloop
  endfacet
  facet normal -1 0 0
    outer loop
      vertex 10 1.5 -1
      vertex 10 3 1
      vertex 10 3 -1
    endloop
  endfacet
  facet normal -1 0 0
    outer loop
      vertex 10 1.5 -1
      vertex 10 1.5 1
      vertex 10 3 1
    endloop
  endfacet
  facet normal 0 1 0
    outer loop
      vertex 4 1.5 -1
      vertex 10 1.5 1
      vertex 10 1.5 -1
    endloop
  endfacet
  facet normal 0 1 0
    outer loop
      vertex 4 1.5 -1
      vertex 4 1.5 1
      vertex 10 1.5 1
    endloop
  endfacet
  facet normal 1 0 0
    outer loop
      vertex 4 3 -1
      vertex 4 1.5 1
      vertex 4 1.5 -1
    endloop
  endfacet
  facet normal 1 0 -0
    outer loop
      vertex 4 3 -1
      vertex 4 3 1
      vertex 4 1.5 1
    endloop
  endfacet
  facet normal 0 1 0
    outer loop
      vertex 2.7998 3 -1
      vertex 4 3 1
      vertex 4 3 -1
    endloop
  endfacet
  facet normal 0 1 0
    outer loop
      vertex 2.7998 3 -1
      vertex 2.7998 3 1
      vertex 4 3 1
    endloop
  endfacet
  facet normal -1 0 0
    outer loop
      vertex 2.7998 1.5 -1
      vertex 2.7998 3 1
      vertex 2.7998 3 -1
    endloop
  endfacet
  facet normal -1 0 0
    outer loop
      vertex 2.7998 1.5 -1
      vertex 2.7998 1.5 1
      vertex 2.7998 3 1
    endloop
  endfacet
  facet normal 0 1 0
    outer loop
      vertex 1.2002 1.5 -1
      vertex 2.7998 1.5 1
      vertex 2.7998 1.5 -1
    endloop
  endfacet
  facet normal 0 1 0
    outer loop
      vertex 1.2002 1.5 -1
      vertex 1.2002 1.5 1
      vertex 2.7998 1.5 1
    endloop
  endfacet
  facet normal 1 0 0
    outer loop
      vertex 1.2002 3 -1
      vertex 1.2002 1.5 1
      vertex 1.2002 1.5 -1
    endloop
  endfacet
  facet normal 1 0 -0
    outer loop
      vertex 1.2002 3 -1
      vertex 1.2002 3 1
      vertex 1.2002 1.5 1
    endloop
  endfacet
  facet normal 0 1 0
    outer loop
      vertex 0 3 -1
      vertex 1.2002 3 1
      vertex 1.2002 3 -1
    endloop
  endfacet
  facet normal 0 1 0
    outer loop
      vertex 0 3 -1
      vertex 0 3 1
      vertex 1.2002 3 1
    endloop
  endfacet
  facet normal -1 0 0
    outer loop
      vertex 0 2.7998 -1
      vertex 0 3 1
      vertex 0 3 -1
    endloop
  endfacet
  facet normal -1 0 0
    outer loop
      vertex 0 2.7998 -1
      vertex 0 2.7998 1
      vertex 0 3 1
    endloop
  endfacet
  facet normal 0 1 0
    outer loop
      vertex -1.5 2.7998 -1
      vertex 0 2.7998 1
      vertex 0 2.7998 -1
    endloop
  endfacet
  facet normal 0 1 0
    outer loop
      vertex -1.5 2.7998 -1
      vertex -1.5 2.7998 1
      vertex 0 2.7998 1
    endloop
  endfacet
  facet normal -1 0 0
    outer loop
      vertex -1.5 1.2002 -1
      vertex -1.5 2.7998 1
      vertex -1.5 2.7998 -1
    endloop
  endfacet
  facet normal -1 0 0
    outer loop
      vertex -1.5 1.2002 -1
      vertex -1.5 1.2002 1
      vertex -1.5 2.7998 1
    endloop
  endfacet
  facet normal 0 -1 0
    outer loop
      vertex 0 1.2002 -1
      vertex -1.5 1.2002 1
      vertex -1.5 1.2002 -1
    endloop
  endfacet
  facet normal 0 -1 0
    outer loop
      vertex 0 1.2002 -1
      vertex 0 1.2002 1
      vertex -1.5 1.2002 1
    endloop
  endfacet
  facet normal -1 0 0
    outer loop
      vertex 0 0 -1
      vertex 0 1.2002 1
      vertex 0 1.2002 -1
    endloop
  endfacet
  facet normal -1 0 0
    outer loop
      vertex 0 0 -1
      vertex 0 0 1
      vertex 0 1.2002 1
    endloop
  endfacet
  facet normal 0 -1 0
    outer loop
      vertex 17 0 -1
      vertex 0 0 1
      vertex 0 0 -1
    endloop
  endfacet
  facet normal 0 -1 0
    outer loop
      vertex 17 0 -1
      vertex 17 0 1
      vertex 0 0 1
    endloop
  endfacet
  facet normal 1 0 0
    outer loop
      vertex 17 1.2002 -1
      vertex 17 0 1
      vertex 17 0 -1
    endloop
  endfacet
  facet normal 1 0 -0
    outer loop
      vertex 17 1.2002 -1
      vertex 17 1.2002 1
      vertex 17 0 1
    endloop
  endfacet
endsolid OpenSCAD_Model
