solid OpenSCAD_Model
  facet normal 0 0 -1
    outer loop
      vertex -1 3 -2
      vertex -3 7 -2
      vertex -1 8 -2
    endloop
  endfacet
  facet normal 0 0 -1
    outer loop
      vertex -1 3 -2
      vertex -3 4 -2
      vertex -3 7 -2
    endloop
  endfacet
  facet normal 0 -0 -1
    outer loop
      vertex -3 7 -2
      vertex -3 4 -2
      vertex -9 0 -2
    endloop
  endfacet
  facet normal 0 -0 -1
    outer loop
      vertex 2.2998 2.5 -2
      vertex 8 0 -2
      vertex 0 0 -2
    endloop
  endfacet
  facet normal -0 0 -1
    outer loop
      vertex -3 7 -2
      vertex -9 0 -2
      vertex -3 12 -2
    endloop
  endfacet
  facet normal -0 0 -1
    outer loop
      vertex -3 12 -2
      vertex -9 0 -2
      vertex -8 19 -2
    endloop
  endfacet
  facet normal 0 0 -1
    outer loop
      vertex -1 11 -2
      vertex -3 15 -2
      vertex -1 16 -2
    endloop
  endfacet
  facet normal 0 0 -1
    outer loop
      vertex 2.2998 16.5 -2
      vertex 8 19 -2
      vertex 2.2998 10.5 -2
    endloop
  endfacet
  facet normal 0 0 -1
    outer loop
      vertex -1 11 -2
      vertex -3 12 -2
      vertex -3 15 -2
    endloop
  endfacet
  facet normal -0 -0 -1
    outer loop
      vertex -3 15 -2
      vertex -3 12 -2
      vertex -8 19 -2
    endloop
  endfacet
  facet normal -0 -0 -1
    outer loop
      vertex -3 19 -2
      vertex -3 15 -2
      vertex -8 19 -2
    endloop
  endfacet
  facet normal 0 -0 -1
    outer loop
      vertex -3 4 -2
      vertex -3 0 -2
      vertex -9 0 -2
    endloop
  endfacet
  facet normal 0 0 -1
    outer loop
      vertex 2.2998 10.5 -2
      vertex 8 0 -2
      vertex 2.2998 8.5 -2
    endloop
  endfacet
  facet normal 0 0 -1
    outer loop
      vertex 0 15.2998 -2
      vertex 0 19 -2
      vertex 2.2998 16.5 -2
    endloop
  endfacet
  facet normal 0 0 -1
    outer loop
      vertex 2.2998 16.5 -2
      vertex 0 19 -2
      vertex 8 19 -2
    endloop
  endfacet
  facet normal 0 0 -1
    outer loop
      vertex 2.2998 10.5 -2
      vertex 8 19 -2
      vertex 8 0 -2
    endloop
  endfacet
  facet normal -0 -0 -1
    outer loop
      vertex 2.2998 10.5 -2
      vertex 2.2998 8.5 -2
      vertex 0 11.7002 -2
    endloop
  endfacet
  facet normal 0 0 -1
    outer loop
      vertex 2.2998 8.5 -2
      vertex 8 0 -2
      vertex 2.2998 2.5 -2
    endloop
  endfacet
  facet normal -0 0 -1
    outer loop
      vertex 2.2998 8.5 -2
      vertex 0 7.2998 -2
      vertex 0 11.7002 -2
    endloop
  endfacet
  facet normal -0 0 -1
    outer loop
      vertex 2.2998 2.5 -2
      vertex 0 0 -2
      vertex 0 3.7002 -2
    endloop
  endfacet
  facet normal 0 0 1
    outer loop
      vertex -1 8 2
      vertex -3 7 2
      vertex -1 3 2
    endloop
  endfacet
  facet normal 0 0 1
    outer loop
      vertex -3 7 2
      vertex -3 4 2
      vertex -1 3 2
    endloop
  endfacet
  facet normal 0 0 1
    outer loop
      vertex -9 0 2
      vertex -3 4 2
      vertex -3 7 2
    endloop
  endfacet
  facet normal 0 0 1
    outer loop
      vertex 0 0 2
      vertex 8 0 2
      vertex 2.2998 2.5 2
    endloop
  endfacet
  facet normal 0 0 1
    outer loop
      vertex -3 12 2
      vertex -9 0 2
      vertex -3 7 2
    endloop
  endfacet
  facet normal 0 0 1
    outer loop
      vertex -8 19 2
      vertex -9 0 2
      vertex -3 12 2
    endloop
  endfacet
  facet normal 0 0 1
    outer loop
      vertex -1 16 2
      vertex -3 15 2
      vertex -1 11 2
    endloop
  endfacet
  facet normal 0 0 1
    outer loop
      vertex 2.2998 10.5 2
      vertex 8 19 2
      vertex 2.2998 16.5 2
    endloop
  endfacet
  facet normal 0 0 1
    outer loop
      vertex -3 15 2
      vertex -3 12 2
      vertex -1 11 2
    endloop
  endfacet
  facet normal 0 0 1
    outer loop
      vertex -8 19 2
      vertex -3 12 2
      vertex -3 15 2
    endloop
  endfacet
  facet normal -0 0 1
    outer loop
      vertex -8 19 2
      vertex -3 15 2
      vertex -3 19 2
    endloop
  endfacet
  facet normal 0 0 1
    outer loop
      vertex -9 0 2
      vertex -3 0 2
      vertex -3 4 2
    endloop
  endfacet
  facet normal -0 0 1
    outer loop
      vertex 2.2998 8.5 2
      vertex 8 0 2
      vertex 2.2998 10.5 2
    endloop
  endfacet
  facet normal 0 0 1
    outer loop
      vertex 2.2998 16.5 2
      vertex 0 19 2
      vertex 0 15.2998 2
    endloop
  endfacet
  facet normal 0 0 1
    outer loop
      vertex 8 19 2
      vertex 0 19 2
      vertex 2.2998 16.5 2
    endloop
  endfacet
  facet normal 0 -0 1
    outer loop
      vertex 8 0 2
      vertex 8 19 2
      vertex 2.2998 10.5 2
    endloop
  endfacet
  facet normal 0 0 1
    outer loop
      vertex 0 11.7002 2
      vertex 2.2998 8.5 2
      vertex 2.2998 10.5 2
    endloop
  endfacet
  facet normal -0 0 1
    outer loop
      vertex 2.2998 2.5 2
      vertex 8 0 2
      vertex 2.2998 8.5 2
    endloop
  endfacet
  facet normal 0 0 1
    outer loop
      vertex 0 11.7002 2
      vertex 0 7.2998 2
      vertex 2.2998 8.5 2
    endloop
  endfacet
  facet normal 0 0 1
    outer loop
      vertex 0 3.7002 2
      vertex 0 0 2
      vertex 2.2998 2.5 2
    endloop
  endfacet
  facet normal -0.447214 -0.894427 0
    outer loop
      vertex -1 3 -2
      vertex -3 4 2
      vertex -3 4 -2
    endloop
  endfacet
  facet normal -0.447214 -0.894427 0
    outer loop
      vertex -1 3 -2
      vertex -1 3 2
      vertex -3 4 2
    endloop
  endfacet
  facet normal 1 0 0
    outer loop
      vertex -1 8 -2
      vertex -1 3 2
      vertex -1 3 -2
    endloop
  endfacet
  facet normal 1 0 -0
    outer loop
      vertex -1 8 -2
      vertex -1 8 2
      vertex -1 3 2
    endloop
  endfacet
  facet normal -0.447214 0.894427 0
    outer loop
      vertex -3 7 -2
      vertex -1 8 2
      vertex -1 8 -2
    endloop
  endfacet
  facet normal -0.447214 0.894427 0
    outer loop
      vertex -3 7 -2
      vertex -3 7 2
      vertex -1 8 2
    endloop
  endfacet
  facet normal 1 0 0
    outer loop
      vertex -3 12 -2
      vertex -3 7 2
      vertex -3 7 -2
    endloop
  endfacet
  facet normal 1 0 -0
    outer loop
      vertex -3 12 -2
      vertex -3 12 2
      vertex -3 7 2
    endloop
  endfacet
  facet normal -0.447214 -0.894427 0
    outer loop
      vertex -1 11 -2
      vertex -3 12 2
      vertex -3 12 -2
    endloop
  endfacet
  facet normal -0.447214 -0.894427 0
    outer loop
      vertex -1 11 -2
      vertex -1 11 2
      vertex -3 12 2
    endloop
  endfacet
  facet normal 1 0 0
    outer loop
      vertex -1 16 -2
      vertex -1 11 2
      vertex -1 11 -2
    endloop
  endfacet
  facet normal 1 0 -0
    outer loop
      vertex -1 16 -2
      vertex -1 16 2
      vertex -1 11 2
    endloop
  endfacet
  facet normal -0.447214 0.894427 0
    outer loop
      vertex -3 15 -2
      vertex -1 16 2
      vertex -1 16 -2
    endloop
  endfacet
  facet normal -0.447214 0.894427 0
    outer loop
      vertex -3 15 -2
      vertex -3 15 2
      vertex -1 16 2
    endloop
  endfacet
  facet normal 1 0 0
    outer loop
      vertex -3 19 -2
      vertex -3 15 2
      vertex -3 15 -2
    endloop
  endfacet
  facet normal 1 0 -0
    outer loop
      vertex -3 19 -2
      vertex -3 19 2
      vertex -3 15 2
    endloop
  endfacet
  facet normal 0 1 0
    outer loop
      vertex -8 19 -2
      vertex -3 19 2
      vertex -3 19 -2
    endloop
  endfacet
  facet normal 0 1 0
    outer loop
      vertex -8 19 -2
      vertex -8 19 2
      vertex -3 19 2
    endloop
  endfacet
  facet normal -0.998618 0.0525588 0
    outer loop
      vertex -9 0 -2
      vertex -8 19 2
      vertex -8 19 -2
    endloop
  endfacet
  facet normal -0.998618 0.0525588 0
    outer loop
      vertex -9 0 -2
      vertex -9 0 2
      vertex -8 19 2
    endloop
  endfacet
  facet normal 0 -1 0
    outer loop
      vertex -3 0 -2
      vertex -9 0 2
      vertex -9 0 -2
    endloop
  endfacet
  facet normal 0 -1 0
    outer loop
      vertex -3 0 -2
      vertex -3 0 2
      vertex -9 0 2
    endloop
  endfacet
  facet normal 1 0 0
    outer loop
      vertex -3 4 -2
      vertex -3 0 2
      vertex -3 0 -2
    endloop
  endfacet
  facet normal 1 0 -0
    outer loop
      vertex -3 4 -2
      vertex -3 4 2
      vertex -3 0 2
    endloop
  endfacet
  facet normal 0 1 0
    outer loop
      vertex 0 19 -2
      vertex 8 19 2
      vertex 8 19 -2
    endloop
  endfacet
  facet normal 0 1 0
    outer loop
      vertex 0 19 -2
      vertex 0 19 2
      vertex 8 19 2
    endloop
  endfacet
  facet normal -1 0 0
    outer loop
      vertex 0 15.2998 -2
      vertex 0 19 2
      vertex 0 19 -2
    endloop
  endfacet
  facet normal -1 0 0
    outer loop
      vertex 0 15.2998 -2
      vertex 0 15.2998 2
      vertex 0 19 2
    endloop
  endfacet
  facet normal 0.462658 -0.886537 0
    outer loop
      vertex 2.2998 16.5 -2
      vertex 0 15.2998 2
      vertex 0 15.2998 -2
    endloop
  endfacet
  facet normal 0.462658 -0.886537 0
    outer loop
      vertex 2.2998 16.5 -2
      vertex 2.2998 16.5 2
      vertex 0 15.2998 2
    endloop
  endfacet
  facet normal -1 0 0
    outer loop
      vertex 2.2998 10.5 -2
      vertex 2.2998 16.5 2
      vertex 2.2998 16.5 -2
    endloop
  endfacet
  facet normal -1 0 0
    outer loop
      vertex 2.2998 10.5 -2
      vertex 2.2998 10.5 2
      vertex 2.2998 16.5 2
    endloop
  endfacet
  facet normal 0.462658 0.886537 0
    outer loop
      vertex 0 11.7002 -2
      vertex 2.2998 10.5 2
      vertex 2.2998 10.5 -2
    endloop
  endfacet
  facet normal 0.462658 0.886537 -0
    outer loop
      vertex 0 11.7002 -2
      vertex 0 11.7002 2
      vertex 2.2998 10.5 2
    endloop
  endfacet
  facet normal -1 0 0
    outer loop
      vertex 0 7.2998 -2
      vertex 0 11.7002 2
      vertex 0 11.7002 -2
    endloop
  endfacet
  facet normal -1 0 0
    outer loop
      vertex 0 7.2998 -2
      vertex 0 7.2998 2
      vertex 0 11.7002 2
    endloop
  endfacet
  facet normal 0.462658 -0.886537 0
    outer loop
      vertex 2.2998 8.5 -2
      vertex 0 7.2998 2
      vertex 0 7.2998 -2
    endloop
  endfacet
  facet normal 0.462658 -0.886537 0
    outer loop
      vertex 2.2998 8.5 -2
      vertex 2.2998 8.5 2
      vertex 0 7.2998 2
    endloop
  endfacet
  facet normal -1 0 0
    outer loop
      vertex 2.2998 2.5 -2
      vertex 2.2998 8.5 2
      vertex 2.2998 8.5 -2
    endloop
  endfacet
  facet normal -1 0 0
    outer loop
      vertex 2.2998 2.5 -2
      vertex 2.2998 2.5 2
      vertex 2.2998 8.5 2
    endloop
  endfacet
  facet normal 0.462658 0.886537 0
    outer loop
      vertex 0 3.7002 -2
      vertex 2.2998 2.5 2
      vertex 2.2998 2.5 -2
    endloop
  endfacet
  facet normal 0.462658 0.886537 -0
    outer loop
      vertex 0 3.7002 -2
      vertex 0 3.7002 2
      vertex 2.2998 2.5 2
    endloop
  endfacet
  facet normal -1 0 0
    outer loop
      vertex 0 0 -2
      vertex 0 3.7002 2
      vertex 0 3.7002 -2
    endloop
  endfacet
  facet normal -1 0 0
    outer loop
      vertex 0 0 -2
      vertex 0 0 2
      vertex 0 3.7002 2
    endloop
  endfacet
  facet normal 0 -1 0
    outer loop
      vertex 8 0 -2
      vertex 0 0 2
      vertex 0 0 -2
    endloop
  endfacet
  facet normal 0 -1 0
    outer loop
      vertex 8 0 -2
      vertex 8 0 2
      vertex 0 0 2
    endloop
  endfacet
  facet normal 1 0 0
    outer loop
      vertex 8 19 -2
      vertex 8 0 2
      vertex 8 0 -2
    endloop
  endfacet
  facet normal 1 0 -0
    outer loop
      vertex 8 19 -2
      vertex 8 19 2
      vertex 8 0 2
    endloop
  endfacet
endsolid OpenSCAD_Model
