solid OpenSCAD_Model
  facet normal 0 0 -1
    outer loop
      vertex 15.9805 1.09668 -5
      vertex 20 6 -5
      vertex 19.9609 5.37695 -5
    endloop
  endfacet
  facet normal 0 0 -1
    outer loop
      vertex 15.9805 1.09668 -5
      vertex 19.9609 5.37695 -5
      vertex 19.8447 4.76465 -5
    endloop
  endfacet
  facet normal 0 0 -1
    outer loop
      vertex 15.9805 1.09668 -5
      vertex 19.8447 4.76465 -5
      vertex 19.6533 4.1709 -5
    endloop
  endfacet
  facet normal 0 0 -1
    outer loop
      vertex 15.9805 1.09668 -5
      vertex 19.6533 4.1709 -5
      vertex 19.3896 3.60547 -5
    endloop
  endfacet
  facet normal 0 0 -1
    outer loop
      vertex 15.9805 1.09668 -5
      vertex 19.3896 3.60547 -5
      vertex 19.0566 3.07715 -5
    endloop
  endfacet
  facet normal 0 0 -1
    outer loop
      vertex 15.9805 1.09668 -5
      vertex 19.0566 3.07715 -5
      vertex 18.6611 2.59473 -5
    endloop
  endfacet
  facet normal 0 0 -1
    outer loop
      vertex 15.9805 1.09668 -5
      vertex 18.6611 2.59473 -5
      vertex 18.209 2.16602 -5
    endloop
  endfacet
  facet normal 0 0 -1
    outer loop
      vertex 15.9805 1.09668 -5
      vertex 18.209 2.16602 -5
      vertex 17.7061 1.7959 -5
    endloop
  endfacet
  facet normal 0 0 -1
    outer loop
      vertex 15.9805 1.09668 -5
      vertex 17.7061 1.7959 -5
      vertex 17.1621 1.49121 -5
    endloop
  endfacet
  facet normal 0 0 -1
    outer loop
      vertex 15.9805 1.09668 -5
      vertex 17.1621 1.49121 -5
      vertex 16.584 1.25781 -5
    endloop
  endfacet
  facet normal 0 0 -1
    outer loop
      vertex 20 6 -5
      vertex 15.9805 1.09668 -5
      vertex 10 0 -5
    endloop
  endfacet
  facet normal -0 0 -1
    outer loop
      vertex 20 6 -5
      vertex 10 0 -5
      vertex 9.005 19 -5
    endloop
  endfacet
  facet normal 0 0 -1
    outer loop
      vertex 9.005 19 -5
      vertex 10 0 -5
      vertex 9.005 0 -5
    endloop
  endfacet
  facet normal 0 0 -1
    outer loop
      vertex 20 6 -5
      vertex 9.005 19 -5
      vertex 20 19 -5
    endloop
  endfacet
  facet normal 0 0 -1
    outer loop
      vertex 0 7 -5
      vertex 2 11 -5
      vertex 2 8 -5
    endloop
  endfacet
  facet normal -0 0 -1
    outer loop
      vertex 2 11 -5
      vertex 0 7 -5
      vertex 0 12 -5
    endloop
  endfacet
  facet normal 0 0 -1
    outer loop
      vertex 2 8 -5
      vertex 5.995 0 -5
      vertex 2 3 -5
    endloop
  endfacet
  facet normal 0 0 -1
    outer loop
      vertex 0 0 -5
      vertex 2 3 -5
      vertex 5.995 0 -5
    endloop
  endfacet
  facet normal -0 0 -1
    outer loop
      vertex 2 3 -5
      vertex 0 0 -5
      vertex 0 4 -5
    endloop
  endfacet
  facet normal 0 0 -1
    outer loop
      vertex 5.995 0 -5
      vertex 2 8 -5
      vertex 5.995 19 -5
    endloop
  endfacet
  facet normal 0 0 -1
    outer loop
      vertex 2 11 -5
      vertex 5.995 19 -5
      vertex 2 8 -5
    endloop
  endfacet
  facet normal 0 0 -1
    outer loop
      vertex 2 16 -5
      vertex 5.995 19 -5
      vertex 2 11 -5
    endloop
  endfacet
  facet normal 0 0 -1
    outer loop
      vertex 0 19 -5
      vertex 2 16 -5
      vertex 0 15 -5
    endloop
  endfacet
  facet normal 0 0 -1
    outer loop
      vertex 2 16 -5
      vertex 0 19 -5
      vertex 5.995 19 -5
    endloop
  endfacet
  facet normal -0 0 1
    outer loop
      vertex 9.005 19 5
      vertex 20 6 5
      vertex 20 19 5
    endloop
  endfacet
  facet normal 0 -0 1
    outer loop
      vertex 10 0 5
      vertex 20 6 5
      vertex 9.005 19 5
    endloop
  endfacet
  facet normal 0 -0 1
    outer loop
      vertex 15.9805 1.09668 5
      vertex 20 6 5
      vertex 10 0 5
    endloop
  endfacet
  facet normal 0 0 1
    outer loop
      vertex 19.9609 5.37695 5
      vertex 15.9805 1.09668 5
      vertex 19.8447 4.76465 5
    endloop
  endfacet
  facet normal 0 0 1
    outer loop
      vertex 19.8447 4.76465 5
      vertex 15.9805 1.09668 5
      vertex 19.6533 4.1709 5
    endloop
  endfacet
  facet normal 0 0 1
    outer loop
      vertex 19.6533 4.1709 5
      vertex 15.9805 1.09668 5
      vertex 19.3896 3.60547 5
    endloop
  endfacet
  facet normal 0 0 1
    outer loop
      vertex 19.3896 3.60547 5
      vertex 15.9805 1.09668 5
      vertex 19.0566 3.07715 5
    endloop
  endfacet
  facet normal 0 0 1
    outer loop
      vertex 19.0566 3.07715 5
      vertex 15.9805 1.09668 5
      vertex 18.6611 2.59473 5
    endloop
  endfacet
  facet normal 0 0 1
    outer loop
      vertex 18.6611 2.59473 5
      vertex 15.9805 1.09668 5
      vertex 18.209 2.16602 5
    endloop
  endfacet
  facet normal 0 0 1
    outer loop
      vertex 18.209 2.16602 5
      vertex 15.9805 1.09668 5
      vertex 17.7061 1.7959 5
    endloop
  endfacet
  facet normal 0 0 1
    outer loop
      vertex 17.7061 1.7959 5
      vertex 15.9805 1.09668 5
      vertex 17.1621 1.49121 5
    endloop
  endfacet
  facet normal 0 0 1
    outer loop
      vertex 17.1621 1.49121 5
      vertex 15.9805 1.09668 5
      vertex 16.584 1.25781 5
    endloop
  endfacet
  facet normal 0 0 1
    outer loop
      vertex 20 6 5
      vertex 15.9805 1.09668 5
      vertex 19.9609 5.37695 5
    endloop
  endfacet
  facet normal 0 0 1
    outer loop
      vertex 10 0 5
      vertex 9.005 19 5
      vertex 9.005 0 5
    endloop
  endfacet
  facet normal 0 0 1
    outer loop
      vertex 0 12 5
      vertex 2 8 5
      vertex 2 11 5
    endloop
  endfacet
  facet normal 0 0 1
    outer loop
      vertex 2 8 5
      vertex 0 12 5
      vertex 0 7 5
    endloop
  endfacet
  facet normal 0 0 1
    outer loop
      vertex 2 11 5
      vertex 5.995 19 5
      vertex 2 16 5
    endloop
  endfacet
  facet normal -0 0 1
    outer loop
      vertex 0 19 5
      vertex 2 16 5
      vertex 5.995 19 5
    endloop
  endfacet
  facet normal 0 0 1
    outer loop
      vertex 2 16 5
      vertex 0 19 5
      vertex 0 15 5
    endloop
  endfacet
  facet normal 0 0 1
    outer loop
      vertex 5.995 19 5
      vertex 2 11 5
      vertex 5.995 0 5
    endloop
  endfacet
  facet normal -0 0 1
    outer loop
      vertex 2 8 5
      vertex 5.995 0 5
      vertex 2 11 5
    endloop
  endfacet
  facet normal -0 0 1
    outer loop
      vertex 2 3 5
      vertex 5.995 0 5
      vertex 2 8 5
    endloop
  endfacet
  facet normal 0 0 1
    outer loop
      vertex 0 0 5
      vertex 2 3 5
      vertex 0 4 5
    endloop
  endfacet
  facet normal 0 0 1
    outer loop
      vertex 2 3 5
      vertex 0 0 5
      vertex 5.995 0 5
    endloop
  endfacet
  facet normal 0.257955 -0.966157 0
    outer loop
      vertex 15.9805 1.09668 -5
      vertex 16.584 1.25781 5
      vertex 15.9805 1.09668 5
    endloop
  endfacet
  facet normal 0.257955 -0.966157 0
    outer loop
      vertex 16.584 1.25781 5
      vertex 15.9805 1.09668 -5
      vertex 16.584 1.25781 -5
    endloop
  endfacet
  facet normal 0.374359 -0.927284 0
    outer loop
      vertex 16.584 1.25781 -5
      vertex 17.1621 1.49121 5
      vertex 16.584 1.25781 5
    endloop
  endfacet
  facet normal 0.374359 -0.927284 0
    outer loop
      vertex 17.1621 1.49121 5
      vertex 16.584 1.25781 -5
      vertex 17.1621 1.49121 -5
    endloop
  endfacet
  facet normal 0.488699 -0.872453 0
    outer loop
      vertex 17.1621 1.49121 -5
      vertex 17.7061 1.7959 5
      vertex 17.1621 1.49121 5
    endloop
  endfacet
  facet normal 0.488699 -0.872453 0
    outer loop
      vertex 17.7061 1.7959 5
      vertex 17.1621 1.49121 -5
      vertex 17.7061 1.7959 -5
    endloop
  endfacet
  facet normal 0.592719 -0.805409 0
    outer loop
      vertex 17.7061 1.7959 -5
      vertex 18.209 2.16602 5
      vertex 17.7061 1.7959 5
    endloop
  endfacet
  facet normal 0.592719 -0.805409 0
    outer loop
      vertex 18.209 2.16602 5
      vertex 17.7061 1.7959 -5
      vertex 18.209 2.16602 -5
    endloop
  endfacet
  facet normal 0.688049 -0.725664 0
    outer loop
      vertex 18.209 2.16602 -5
      vertex 18.6611 2.59473 5
      vertex 18.209 2.16602 5
    endloop
  endfacet
  facet normal 0.688049 -0.725664 0
    outer loop
      vertex 18.6611 2.59473 5
      vertex 18.209 2.16602 -5
      vertex 18.6611 2.59473 -5
    endloop
  endfacet
  facet normal 0.773329 -0.634005 0
    outer loop
      vertex 18.6611 2.59473 5
      vertex 19.0566 3.07715 -5
      vertex 19.0566 3.07715 5
    endloop
  endfacet
  facet normal 0.773329 -0.634005 0
    outer loop
      vertex 19.0566 3.07715 -5
      vertex 18.6611 2.59473 5
      vertex 18.6611 2.59473 -5
    endloop
  endfacet
  facet normal 0.845972 -0.533228 0
    outer loop
      vertex 19.0566 3.07715 5
      vertex 19.3896 3.60547 -5
      vertex 19.3896 3.60547 5
    endloop
  endfacet
  facet normal 0.845972 -0.533228 0
    outer loop
      vertex 19.3896 3.60547 -5
      vertex 19.0566 3.07715 5
      vertex 19.0566 3.07715 -5
    endloop
  endfacet
  facet normal 0.906303 -0.422628 0
    outer loop
      vertex 19.3896 3.60547 5
      vertex 19.6533 4.1709 -5
      vertex 19.6533 4.1709 5
    endloop
  endfacet
  facet normal 0.906303 -0.422628 0
    outer loop
      vertex 19.6533 4.1709 -5
      vertex 19.3896 3.60547 5
      vertex 19.3896 3.60547 -5
    endloop
  endfacet
  facet normal 0.951768 -0.30682 0
    outer loop
      vertex 19.6533 4.1709 5
      vertex 19.8447 4.76465 -5
      vertex 19.8447 4.76465 5
    endloop
  endfacet
  facet normal 0.951768 -0.30682 0
    outer loop
      vertex 19.8447 4.76465 -5
      vertex 19.6533 4.1709 5
      vertex 19.6533 4.1709 -5
    endloop
  endfacet
  facet normal 0.982462 -0.186464 0
    outer loop
      vertex 19.8447 4.76465 5
      vertex 19.9609 5.37695 -5
      vertex 19.9609 5.37695 5
    endloop
  endfacet
  facet normal 0.982462 -0.186464 0
    outer loop
      vertex 19.9609 5.37695 -5
      vertex 19.8447 4.76465 5
      vertex 19.8447 4.76465 -5
    endloop
  endfacet
  facet normal 0.99804 -0.0625731 0
    outer loop
      vertex 19.9609 5.37695 5
      vertex 20 6 -5
      vertex 20 6 5
    endloop
  endfacet
  facet normal 0.99804 -0.0625731 0
    outer loop
      vertex 20 6 -5
      vertex 19.9609 5.37695 5
      vertex 19.9609 5.37695 -5
    endloop
  endfacet
  facet normal 1 -0 0
    outer loop
      vertex 20 6 5
      vertex 20 19 -5
      vertex 20 19 5
    endloop
  endfacet
  facet normal 1 0 0
    outer loop
      vertex 20 19 -5
      vertex 20 6 5
      vertex 20 6 -5
    endloop
  endfacet
  facet normal 0 1 0
    outer loop
      vertex 20 19 5
      vertex 9 19 4.99
      vertex 9.005 19 5
    endloop
  endfacet
  facet normal 0 1 0
    outer loop
      vertex 9 19 4.99
      vertex 10 19 -3.01
      vertex 6 19 4.99
    endloop
  endfacet
  facet normal 0 1 0
    outer loop
      vertex 20 19 5
      vertex 10 19 -3.01
      vertex 9 19 4.99
    endloop
  endfacet
  facet normal 0 1 -0
    outer loop
      vertex 20 19 -5
      vertex 10 19 -3.01
      vertex 20 19 5
    endloop
  endfacet
  facet normal 0 1 0
    outer loop
      vertex 10 19 -3.01
      vertex 20 19 -5
      vertex 9.005 19 -5
    endloop
  endfacet
  facet normal 0 1 0
    outer loop
      vertex 6 19 4.99
      vertex 0 19 5
      vertex 5.995 19 5
    endloop
  endfacet
  facet normal 0 1 0
    outer loop
      vertex 5 19 -3.01
      vertex 6 19 4.99
      vertex 10 19 -3.01
    endloop
  endfacet
  facet normal 0 1 0
    outer loop
      vertex 6 19 4.99
      vertex 5 19 -3.01
      vertex 0 19 5
    endloop
  endfacet
  facet normal 0 1 0
    outer loop
      vertex 0 19 -5
      vertex 5 19 -3.01
      vertex 5.995 19 -5
    endloop
  endfacet
  facet normal 0 1 0
    outer loop
      vertex 5 19 -3.01
      vertex 0 19 -5
      vertex 0 19 5
    endloop
  endfacet
  facet normal -1 0 0
    outer loop
      vertex 0 15 -5
      vertex 0 19 5
      vertex 0 19 -5
    endloop
  endfacet
  facet normal -1 -0 0
    outer loop
      vertex 0 19 5
      vertex 0 15 -5
      vertex 0 15 5
    endloop
  endfacet
  facet normal 0.447214 -0.894427 0
    outer loop
      vertex 0 15 -5
      vertex 2 16 5
      vertex 0 15 5
    endloop
  endfacet
  facet normal 0.447214 -0.894427 0
    outer loop
      vertex 2 16 5
      vertex 0 15 -5
      vertex 2 16 -5
    endloop
  endfacet
  facet normal -1 0 0
    outer loop
      vertex 2 11 -5
      vertex 2 16 5
      vertex 2 16 -5
    endloop
  endfacet
  facet normal -1 -0 0
    outer loop
      vertex 2 16 5
      vertex 2 11 -5
      vertex 2 11 5
    endloop
  endfacet
  facet normal 0.447214 0.894427 -0
    outer loop
      vertex 2 11 -5
      vertex 0 12 5
      vertex 2 11 5
    endloop
  endfacet
  facet normal 0.447214 0.894427 0
    outer loop
      vertex 0 12 5
      vertex 2 11 -5
      vertex 0 12 -5
    endloop
  endfacet
  facet normal -1 0 0
    outer loop
      vertex 0 7 -5
      vertex 0 12 5
      vertex 0 12 -5
    endloop
  endfacet
  facet normal -1 -0 0
    outer loop
      vertex 0 12 5
      vertex 0 7 -5
      vertex 0 7 5
    endloop
  endfacet
  facet normal 0.447214 -0.894427 0
    outer loop
      vertex 0 7 -5
      vertex 2 8 5
      vertex 0 7 5
    endloop
  endfacet
  facet normal 0.447214 -0.894427 0
    outer loop
      vertex 2 8 5
      vertex 0 7 -5
      vertex 2 8 -5
    endloop
  endfacet
  facet normal -1 0 0
    outer loop
      vertex 2 3 -5
      vertex 2 8 5
      vertex 2 8 -5
    endloop
  endfacet
  facet normal -1 -0 0
    outer loop
      vertex 2 8 5
      vertex 2 3 -5
      vertex 2 3 5
    endloop
  endfacet
  facet normal 0.447214 0.894427 -0
    outer loop
      vertex 2 3 -5
      vertex 0 4 5
      vertex 2 3 5
    endloop
  endfacet
  facet normal 0.447214 0.894427 0
    outer loop
      vertex 0 4 5
      vertex 2 3 -5
      vertex 0 4 -5
    endloop
  endfacet
  facet normal -1 0 0
    outer loop
      vertex 0 0 -5
      vertex 0 4 5
      vertex 0 4 -5
    endloop
  endfacet
  facet normal -1 -0 0
    outer loop
      vertex 0 4 5
      vertex 0 0 -5
      vertex 0 0 5
    endloop
  endfacet
  facet normal 0 -1 0
    outer loop
      vertex 10 0 -5
      vertex 10 0 -3.01
      vertex 9.005 0 -5
    endloop
  endfacet
  facet normal 0 -1 0
    outer loop
      vertex 0 0 5
      vertex 6 0 4.99
      vertex 5.995 0 5
    endloop
  endfacet
  facet normal 0 -1 -0
    outer loop
      vertex 6 0 4.99
      vertex 5 0 -3.01
      vertex 9 0 4.99
    endloop
  endfacet
  facet normal 0 -1 0
    outer loop
      vertex 0 0 5
      vertex 5 0 -3.01
      vertex 6 0 4.99
    endloop
  endfacet
  facet normal 0 -1 0
    outer loop
      vertex 0 0 -5
      vertex 5 0 -3.01
      vertex 0 0 5
    endloop
  endfacet
  facet normal 0 -1 -0
    outer loop
      vertex 5 0 -3.01
      vertex 0 0 -5
      vertex 5.995 0 -5
    endloop
  endfacet
  facet normal 0 -1 0
    outer loop
      vertex 9 0 4.99
      vertex 10 0 5
      vertex 9.005 0 5
    endloop
  endfacet
  facet normal 0 -1 0
    outer loop
      vertex 10 0 -3.01
      vertex 9 0 4.99
      vertex 5 0 -3.01
    endloop
  endfacet
  facet normal 0 -1 0
    outer loop
      vertex 9 0 4.99
      vertex 10 0 -3.01
      vertex 10 0 5
    endloop
  endfacet
  facet normal 0.180369 -0.983599 0
    outer loop
      vertex 10 0 -3.01
      vertex 15.9805 1.09668 5
      vertex 10 0 5
    endloop
  endfacet
  facet normal 0.180369 -0.983599 0
    outer loop
      vertex 15.9805 1.09668 -5
      vertex 10 0 -3.01
      vertex 10 0 -5
    endloop
  endfacet
  facet normal 0.180369 -0.983599 0
    outer loop
      vertex 10 0 -3.01
      vertex 15.9805 1.09668 -5
      vertex 15.9805 1.09668 5
    endloop
  endfacet
  facet normal -0.894427 0 0.447214
    outer loop
      vertex 9.005 0 -5
      vertex 10 19 -3.01
      vertex 9.005 19 -5
    endloop
  endfacet
  facet normal -0.894427 0 0.447214
    outer loop
      vertex 10 19 -3.01
      vertex 9.005 0 -5
      vertex 10 0 -3.01
    endloop
  endfacet
  facet normal 0 0 -1
    outer loop
      vertex 5 0 -3.01
      vertex 10 19 -3.01
      vertex 10 0 -3.01
    endloop
  endfacet
  facet normal -0 0 -1
    outer loop
      vertex 10 19 -3.01
      vertex 5 0 -3.01
      vertex 5 19 -3.01
    endloop
  endfacet
  facet normal 0.894427 -0 0.447214
    outer loop
      vertex 5 0 -3.01
      vertex 5.995 19 -5
      vertex 5 19 -3.01
    endloop
  endfacet
  facet normal 0.894427 0 0.447214
    outer loop
      vertex 5.995 19 -5
      vertex 5 0 -3.01
      vertex 5.995 0 -5
    endloop
  endfacet
  facet normal 0 0 -1
    outer loop
      vertex -8.995 0 -5
      vertex -3 4 -5
      vertex -3 0 -5
    endloop
  endfacet
  facet normal -0 0 -1
    outer loop
      vertex -3 4 -5
      vertex -8.995 0 -5
      vertex -3 7 -5
    endloop
  endfacet
  facet normal -0 0 -1
    outer loop
      vertex -3 7 -5
      vertex -8.995 0 -5
      vertex -3 12 -5
    endloop
  endfacet
  facet normal 0 0 -1
    outer loop
      vertex -8.995 19 -5
      vertex -3 12 -5
      vertex -8.995 0 -5
    endloop
  endfacet
  facet normal 0 0 -1
    outer loop
      vertex -3 12 -5
      vertex -8.995 19 -5
      vertex -3 15 -5
    endloop
  endfacet
  facet normal 0 0 -1
    outer loop
      vertex -3 15 -5
      vertex -8.995 19 -5
      vertex -3 19 -5
    endloop
  endfacet
  facet normal 0 0 -1
    outer loop
      vertex -3 4 -5
      vertex -1 8 -5
      vertex -1 3 -5
    endloop
  endfacet
  facet normal 0 0 -1
    outer loop
      vertex -1 8 -5
      vertex -3 4 -5
      vertex -3 7 -5
    endloop
  endfacet
  facet normal 0 0 -1
    outer loop
      vertex -3 12 -5
      vertex -1 16 -5
      vertex -1 11 -5
    endloop
  endfacet
  facet normal 0 0 -1
    outer loop
      vertex -1 16 -5
      vertex -3 12 -5
      vertex -3 15 -5
    endloop
  endfacet
  facet normal 0 0 -1
    outer loop
      vertex -13 0 -5
      vertex -12.005 19 -5
      vertex -12.005 0 -5
    endloop
  endfacet
  facet normal 0 0 -1
    outer loop
      vertex -23 6 -5
      vertex -13 0 -5
      vertex -18.9805 1.09668 -5
    endloop
  endfacet
  facet normal 0 0 -1
    outer loop
      vertex -23 6 -5
      vertex -18.9805 1.09668 -5
      vertex -19.584 1.25781 -5
    endloop
  endfacet
  facet normal 0 0 -1
    outer loop
      vertex -23 6 -5
      vertex -19.584 1.25781 -5
      vertex -20.1621 1.49121 -5
    endloop
  endfacet
  facet normal 0 0 -1
    outer loop
      vertex -23 6 -5
      vertex -20.1621 1.49121 -5
      vertex -20.7061 1.7959 -5
    endloop
  endfacet
  facet normal 0 0 -1
    outer loop
      vertex -23 6 -5
      vertex -20.7061 1.7959 -5
      vertex -21.209 2.16602 -5
    endloop
  endfacet
  facet normal 0 0 -1
    outer loop
      vertex -23 6 -5
      vertex -21.209 2.16602 -5
      vertex -21.6611 2.59473 -5
    endloop
  endfacet
  facet normal 0 0 -1
    outer loop
      vertex -23 6 -5
      vertex -21.6611 2.59473 -5
      vertex -22.0566 3.07715 -5
    endloop
  endfacet
  facet normal 0 0 -1
    outer loop
      vertex -23 6 -5
      vertex -22.0566 3.07715 -5
      vertex -22.3896 3.60547 -5
    endloop
  endfacet
  facet normal 0 0 -1
    outer loop
      vertex -23 6 -5
      vertex -22.3896 3.60547 -5
      vertex -22.6533 4.1709 -5
    endloop
  endfacet
  facet normal 0 0 -1
    outer loop
      vertex -23 6 -5
      vertex -22.6533 4.1709 -5
      vertex -22.8447 4.76465 -5
    endloop
  endfacet
  facet normal 0 0 -1
    outer loop
      vertex -23 6 -5
      vertex -22.8447 4.76465 -5
      vertex -22.9609 5.37695 -5
    endloop
  endfacet
  facet normal 0 0 -1
    outer loop
      vertex -13 0 -5
      vertex -23 6 -5
      vertex -12.005 19 -5
    endloop
  endfacet
  facet normal -0 0 -1
    outer loop
      vertex -12.005 19 -5
      vertex -23 6 -5
      vertex -23 19 -5
    endloop
  endfacet
  facet normal -0 0 1
    outer loop
      vertex -8.995 19 5
      vertex -3 15 5
      vertex -3 19 5
    endloop
  endfacet
  facet normal 0 0 1
    outer loop
      vertex -3 15 5
      vertex -8.995 19 5
      vertex -3 12 5
    endloop
  endfacet
  facet normal 0 0 1
    outer loop
      vertex -3 12 5
      vertex -8.995 19 5
      vertex -3 7 5
    endloop
  endfacet
  facet normal 0 0 1
    outer loop
      vertex -8.995 0 5
      vertex -3 7 5
      vertex -8.995 19 5
    endloop
  endfacet
  facet normal 0 0 1
    outer loop
      vertex -3 7 5
      vertex -8.995 0 5
      vertex -3 4 5
    endloop
  endfacet
  facet normal 0 0 1
    outer loop
      vertex -3 4 5
      vertex -8.995 0 5
      vertex -3 0 5
    endloop
  endfacet
  facet normal -0 0 1
    outer loop
      vertex -3 15 5
      vertex -1 11 5
      vertex -1 16 5
    endloop
  endfacet
  facet normal 0 0 1
    outer loop
      vertex -1 11 5
      vertex -3 15 5
      vertex -3 12 5
    endloop
  endfacet
  facet normal -0 0 1
    outer loop
      vertex -3 7 5
      vertex -1 3 5
      vertex -1 8 5
    endloop
  endfacet
  facet normal 0 0 1
    outer loop
      vertex -1 3 5
      vertex -3 7 5
      vertex -3 4 5
    endloop
  endfacet
  facet normal 0 0 1
    outer loop
      vertex -12.005 19 5
      vertex -13 0 5
      vertex -12.005 0 5
    endloop
  endfacet
  facet normal -0 0 1
    outer loop
      vertex -23 6 5
      vertex -13 0 5
      vertex -12.005 19 5
    endloop
  endfacet
  facet normal 0 0 1
    outer loop
      vertex -13 0 5
      vertex -23 6 5
      vertex -18.9805 1.09668 5
    endloop
  endfacet
  facet normal 0 0 1
    outer loop
      vertex -18.9805 1.09668 5
      vertex -23 6 5
      vertex -19.584 1.25781 5
    endloop
  endfacet
  facet normal 0 0 1
    outer loop
      vertex -19.584 1.25781 5
      vertex -23 6 5
      vertex -20.1621 1.49121 5
    endloop
  endfacet
  facet normal 0 0 1
    outer loop
      vertex -20.1621 1.49121 5
      vertex -23 6 5
      vertex -20.7061 1.7959 5
    endloop
  endfacet
  facet normal 0 0 1
    outer loop
      vertex -20.7061 1.7959 5
      vertex -23 6 5
      vertex -21.209 2.16602 5
    endloop
  endfacet
  facet normal 0 0 1
    outer loop
      vertex -21.209 2.16602 5
      vertex -23 6 5
      vertex -21.6611 2.59473 5
    endloop
  endfacet
  facet normal 0 0 1
    outer loop
      vertex -21.6611 2.59473 5
      vertex -23 6 5
      vertex -22.0566 3.07715 5
    endloop
  endfacet
  facet normal 0 0 1
    outer loop
      vertex -22.0566 3.07715 5
      vertex -23 6 5
      vertex -22.3896 3.60547 5
    endloop
  endfacet
  facet normal 0 0 1
    outer loop
      vertex -22.3896 3.60547 5
      vertex -23 6 5
      vertex -22.6533 4.1709 5
    endloop
  endfacet
  facet normal 0 0 1
    outer loop
      vertex -22.6533 4.1709 5
      vertex -23 6 5
      vertex -22.8447 4.76465 5
    endloop
  endfacet
  facet normal 0 0 1
    outer loop
      vertex -23 6 5
      vertex -12.005 19 5
      vertex -23 19 5
    endloop
  endfacet
  facet normal 0 0 1
    outer loop
      vertex -22.8447 4.76465 5
      vertex -23 6 5
      vertex -22.9609 5.37695 5
    endloop
  endfacet
  facet normal -0.447214 -0.894427 0
    outer loop
      vertex -3 4 -5
      vertex -1 3 5
      vertex -3 4 5
    endloop
  endfacet
  facet normal -0.447214 -0.894427 -0
    outer loop
      vertex -1 3 5
      vertex -3 4 -5
      vertex -1 3 -5
    endloop
  endfacet
  facet normal 1 -0 0
    outer loop
      vertex -1 3 5
      vertex -1 8 -5
      vertex -1 8 5
    endloop
  endfacet
  facet normal 1 0 0
    outer loop
      vertex -1 8 -5
      vertex -1 3 5
      vertex -1 3 -5
    endloop
  endfacet
  facet normal -0.447214 0.894427 0
    outer loop
      vertex -1 8 -5
      vertex -3 7 5
      vertex -1 8 5
    endloop
  endfacet
  facet normal -0.447214 0.894427 0
    outer loop
      vertex -3 7 5
      vertex -1 8 -5
      vertex -3 7 -5
    endloop
  endfacet
  facet normal 1 -0 0
    outer loop
      vertex -3 7 5
      vertex -3 12 -5
      vertex -3 12 5
    endloop
  endfacet
  facet normal 1 0 0
    outer loop
      vertex -3 12 -5
      vertex -3 7 5
      vertex -3 7 -5
    endloop
  endfacet
  facet normal -0.447214 -0.894427 0
    outer loop
      vertex -3 12 -5
      vertex -1 11 5
      vertex -3 12 5
    endloop
  endfacet
  facet normal -0.447214 -0.894427 -0
    outer loop
      vertex -1 11 5
      vertex -3 12 -5
      vertex -1 11 -5
    endloop
  endfacet
  facet normal 1 -0 0
    outer loop
      vertex -1 11 5
      vertex -1 16 -5
      vertex -1 16 5
    endloop
  endfacet
  facet normal 1 0 0
    outer loop
      vertex -1 16 -5
      vertex -1 11 5
      vertex -1 11 -5
    endloop
  endfacet
  facet normal -0.447214 0.894427 0
    outer loop
      vertex -1 16 -5
      vertex -3 15 5
      vertex -1 16 5
    endloop
  endfacet
  facet normal -0.447214 0.894427 0
    outer loop
      vertex -3 15 5
      vertex -1 16 -5
      vertex -3 15 -5
    endloop
  endfacet
  facet normal 1 -0 0
    outer loop
      vertex -3 15 5
      vertex -3 19 -5
      vertex -3 19 5
    endloop
  endfacet
  facet normal 1 0 0
    outer loop
      vertex -3 19 -5
      vertex -3 15 5
      vertex -3 15 -5
    endloop
  endfacet
  facet normal 0 1 0
    outer loop
      vertex -3 19 5
      vertex -9 19 4.99
      vertex -8.995 19 5
    endloop
  endfacet
  facet normal 0 1 0
    outer loop
      vertex -9 19 4.99
      vertex -8 19 -3.01
      vertex -12 19 4.99
    endloop
  endfacet
  facet normal 0 1 0
    outer loop
      vertex -3 19 5
      vertex -8 19 -3.01
      vertex -9 19 4.99
    endloop
  endfacet
  facet normal 0 1 -0
    outer loop
      vertex -3 19 -5
      vertex -8 19 -3.01
      vertex -3 19 5
    endloop
  endfacet
  facet normal 0 1 0
    outer loop
      vertex -8 19 -3.01
      vertex -3 19 -5
      vertex -8.995 19 -5
    endloop
  endfacet
  facet normal 0 1 0
    outer loop
      vertex -12 19 4.99
      vertex -23 19 5
      vertex -12.005 19 5
    endloop
  endfacet
  facet normal 0 1 0
    outer loop
      vertex -13 19 -3.01
      vertex -12 19 4.99
      vertex -8 19 -3.01
    endloop
  endfacet
  facet normal 0 1 0
    outer loop
      vertex -12 19 4.99
      vertex -13 19 -3.01
      vertex -23 19 5
    endloop
  endfacet
  facet normal 0 1 0
    outer loop
      vertex -23 19 -5
      vertex -13 19 -3.01
      vertex -12.005 19 -5
    endloop
  endfacet
  facet normal 0 1 0
    outer loop
      vertex -13 19 -3.01
      vertex -23 19 -5
      vertex -23 19 5
    endloop
  endfacet
  facet normal -1 0 0
    outer loop
      vertex -23 6 -5
      vertex -23 19 5
      vertex -23 19 -5
    endloop
  endfacet
  facet normal -1 -0 0
    outer loop
      vertex -23 19 5
      vertex -23 6 -5
      vertex -23 6 5
    endloop
  endfacet
  facet normal -0.99804 -0.0625731 0
    outer loop
      vertex -22.9609 5.37695 -5
      vertex -23 6 5
      vertex -23 6 -5
    endloop
  endfacet
  facet normal -0.99804 -0.0625731 0
    outer loop
      vertex -23 6 5
      vertex -22.9609 5.37695 -5
      vertex -22.9609 5.37695 5
    endloop
  endfacet
  facet normal -0.982462 -0.186464 0
    outer loop
      vertex -22.8447 4.76465 -5
      vertex -22.9609 5.37695 5
      vertex -22.9609 5.37695 -5
    endloop
  endfacet
  facet normal -0.982462 -0.186464 0
    outer loop
      vertex -22.9609 5.37695 5
      vertex -22.8447 4.76465 -5
      vertex -22.8447 4.76465 5
    endloop
  endfacet
  facet normal -0.951768 -0.30682 0
    outer loop
      vertex -22.6533 4.1709 -5
      vertex -22.8447 4.76465 5
      vertex -22.8447 4.76465 -5
    endloop
  endfacet
  facet normal -0.951768 -0.30682 0
    outer loop
      vertex -22.8447 4.76465 5
      vertex -22.6533 4.1709 -5
      vertex -22.6533 4.1709 5
    endloop
  endfacet
  facet normal -0.906303 -0.422628 0
    outer loop
      vertex -22.3896 3.60547 -5
      vertex -22.6533 4.1709 5
      vertex -22.6533 4.1709 -5
    endloop
  endfacet
  facet normal -0.906303 -0.422628 0
    outer loop
      vertex -22.6533 4.1709 5
      vertex -22.3896 3.60547 -5
      vertex -22.3896 3.60547 5
    endloop
  endfacet
  facet normal -0.845972 -0.533228 0
    outer loop
      vertex -22.0566 3.07715 -5
      vertex -22.3896 3.60547 5
      vertex -22.3896 3.60547 -5
    endloop
  endfacet
  facet normal -0.845972 -0.533228 0
    outer loop
      vertex -22.3896 3.60547 5
      vertex -22.0566 3.07715 -5
      vertex -22.0566 3.07715 5
    endloop
  endfacet
  facet normal -0.773329 -0.634005 0
    outer loop
      vertex -21.6611 2.59473 -5
      vertex -22.0566 3.07715 5
      vertex -22.0566 3.07715 -5
    endloop
  endfacet
  facet normal -0.773329 -0.634005 0
    outer loop
      vertex -22.0566 3.07715 5
      vertex -21.6611 2.59473 -5
      vertex -21.6611 2.59473 5
    endloop
  endfacet
  facet normal -0.688049 -0.725664 0
    outer loop
      vertex -21.6611 2.59473 -5
      vertex -21.209 2.16602 5
      vertex -21.6611 2.59473 5
    endloop
  endfacet
  facet normal -0.688049 -0.725664 -0
    outer loop
      vertex -21.209 2.16602 5
      vertex -21.6611 2.59473 -5
      vertex -21.209 2.16602 -5
    endloop
  endfacet
  facet normal -0.592719 -0.805409 0
    outer loop
      vertex -21.209 2.16602 -5
      vertex -20.7061 1.7959 5
      vertex -21.209 2.16602 5
    endloop
  endfacet
  facet normal -0.592719 -0.805409 -0
    outer loop
      vertex -20.7061 1.7959 5
      vertex -21.209 2.16602 -5
      vertex -20.7061 1.7959 -5
    endloop
  endfacet
  facet normal -0.488699 -0.872453 0
    outer loop
      vertex -20.7061 1.7959 -5
      vertex -20.1621 1.49121 5
      vertex -20.7061 1.7959 5
    endloop
  endfacet
  facet normal -0.488699 -0.872453 -0
    outer loop
      vertex -20.1621 1.49121 5
      vertex -20.7061 1.7959 -5
      vertex -20.1621 1.49121 -5
    endloop
  endfacet
  facet normal -0.374359 -0.927284 0
    outer loop
      vertex -20.1621 1.49121 -5
      vertex -19.584 1.25781 5
      vertex -20.1621 1.49121 5
    endloop
  endfacet
  facet normal -0.374359 -0.927284 -0
    outer loop
      vertex -19.584 1.25781 5
      vertex -20.1621 1.49121 -5
      vertex -19.584 1.25781 -5
    endloop
  endfacet
  facet normal -0.257955 -0.966157 0
    outer loop
      vertex -19.584 1.25781 -5
      vertex -18.9805 1.09668 5
      vertex -19.584 1.25781 5
    endloop
  endfacet
  facet normal -0.257955 -0.966157 -0
    outer loop
      vertex -18.9805 1.09668 5
      vertex -19.584 1.25781 -5
      vertex -18.9805 1.09668 -5
    endloop
  endfacet
  facet normal -0.180369 -0.983599 0
    outer loop
      vertex -18.9805 1.09668 5
      vertex -13 0 -3.01
      vertex -13 0 5
    endloop
  endfacet
  facet normal -0.180369 -0.983599 0
    outer loop
      vertex -18.9805 1.09668 -5
      vertex -13 0 -3.01
      vertex -18.9805 1.09668 5
    endloop
  endfacet
  facet normal -0.180369 -0.983599 -0
    outer loop
      vertex -13 0 -3.01
      vertex -18.9805 1.09668 -5
      vertex -13 0 -5
    endloop
  endfacet
  facet normal 0 -1 0
    outer loop
      vertex -12.005 0 -5
      vertex -13 0 -3.01
      vertex -13 0 -5
    endloop
  endfacet
  facet normal 0 -1 0
    outer loop
      vertex -13 0 5
      vertex -12 0 4.99
      vertex -12.005 0 5
    endloop
  endfacet
  facet normal 0 -1 -0
    outer loop
      vertex -12 0 4.99
      vertex -13 0 -3.01
      vertex -9 0 4.99
    endloop
  endfacet
  facet normal 0 -1 0
    outer loop
      vertex -13 0 -3.01
      vertex -12 0 4.99
      vertex -13 0 5
    endloop
  endfacet
  facet normal 0 -1 0
    outer loop
      vertex -9 0 4.99
      vertex -3 0 5
      vertex -8.995 0 5
    endloop
  endfacet
  facet normal 0 -1 0
    outer loop
      vertex -8 0 -3.01
      vertex -9 0 4.99
      vertex -13 0 -3.01
    endloop
  endfacet
  facet normal 0 -1 0
    outer loop
      vertex -9 0 4.99
      vertex -8 0 -3.01
      vertex -3 0 5
    endloop
  endfacet
  facet normal 0 -1 0
    outer loop
      vertex -3 0 -5
      vertex -8 0 -3.01
      vertex -8.995 0 -5
    endloop
  endfacet
  facet normal 0 -1 0
    outer loop
      vertex -8 0 -3.01
      vertex -3 0 -5
      vertex -3 0 5
    endloop
  endfacet
  facet normal 1 -0 0
    outer loop
      vertex -3 0 5
      vertex -3 4 -5
      vertex -3 4 5
    endloop
  endfacet
  facet normal 1 0 0
    outer loop
      vertex -3 4 -5
      vertex -3 0 5
      vertex -3 0 -5
    endloop
  endfacet
  facet normal -0.894427 0 0.447214
    outer loop
      vertex -8.995 0 -5
      vertex -8 19 -3.01
      vertex -8.995 19 -5
    endloop
  endfacet
  facet normal -0.894427 0 0.447214
    outer loop
      vertex -8 19 -3.01
      vertex -8.995 0 -5
      vertex -8 0 -3.01
    endloop
  endfacet
  facet normal 0 0 -1
    outer loop
      vertex -13 0 -3.01
      vertex -8 19 -3.01
      vertex -8 0 -3.01
    endloop
  endfacet
  facet normal -0 0 -1
    outer loop
      vertex -8 19 -3.01
      vertex -13 0 -3.01
      vertex -13 19 -3.01
    endloop
  endfacet
  facet normal 0.894427 -0 0.447214
    outer loop
      vertex -13 0 -3.01
      vertex -12.005 19 -5
      vertex -13 19 -3.01
    endloop
  endfacet
  facet normal 0.894427 0 0.447214
    outer loop
      vertex -12.005 19 -5
      vertex -13 0 -3.01
      vertex -12.005 0 -5
    endloop
  endfacet
  facet normal 0 1 -0
    outer loop
      vertex 9 19.5 4.99
      vertex 5 19.5 6.99
      vertex 10 19.5 6.99
    endloop
  endfacet
  facet normal 0 1 0
    outer loop
      vertex 5 19.5 6.99
      vertex 9 19.5 4.99
      vertex 6 19.5 4.99
    endloop
  endfacet
  facet normal 0.894427 0 -0.447214
    outer loop
      vertex 10 19.5 6.99
      vertex 9.005 19 5
      vertex 9 19.5 4.99
    endloop
  endfacet
  facet normal 0.894427 0 -0.447214
    outer loop
      vertex 10 19.5 6.99
      vertex 9.005 0 5
      vertex 9.005 19 5
    endloop
  endfacet
  facet normal 0.894427 0 -0.447214
    outer loop
      vertex 10 -0.5 6.99
      vertex 9.005 0 5
      vertex 10 19.5 6.99
    endloop
  endfacet
  facet normal 0.894427 0 -0.447214
    outer loop
      vertex 9 -0.5 4.99
      vertex 9.005 0 5
      vertex 10 -0.5 6.99
    endloop
  endfacet
  facet normal 0.894427 0 -0.447214
    outer loop
      vertex 9.005 0 5
      vertex 9 -0.5 4.99
      vertex 9 0 4.99
    endloop
  endfacet
  facet normal 0.894427 0 -0.447214
    outer loop
      vertex 9 19.5 4.99
      vertex 9.005 19 5
      vertex 9 19 4.99
    endloop
  endfacet
  facet normal 0 -1 0
    outer loop
      vertex 6 -0.5 4.99
      vertex 10 -0.5 6.99
      vertex 5 -0.5 6.99
    endloop
  endfacet
  facet normal 0 -1 0
    outer loop
      vertex 10 -0.5 6.99
      vertex 6 -0.5 4.99
      vertex 9 -0.5 4.99
    endloop
  endfacet
  facet normal -0 0 1
    outer loop
      vertex 5 19.5 6.99
      vertex 10 -0.5 6.99
      vertex 10 19.5 6.99
    endloop
  endfacet
  facet normal 0 0 1
    outer loop
      vertex 10 -0.5 6.99
      vertex 5 19.5 6.99
      vertex 5 -0.5 6.99
    endloop
  endfacet
  facet normal -0.894427 -0 -0.447214
    outer loop
      vertex 6 0 4.99
      vertex 6 -0.5 4.99
      vertex 5.995 0 5
    endloop
  endfacet
  facet normal -0.894427 0 -0.447214
    outer loop
      vertex 5.995 19 5
      vertex 6 19.5 4.99
      vertex 6 19 4.99
    endloop
  endfacet
  facet normal -0.894427 0 -0.447214
    outer loop
      vertex 6 19.5 4.99
      vertex 5.995 19 5
      vertex 5 19.5 6.99
    endloop
  endfacet
  facet normal -0.894427 0 -0.447214
    outer loop
      vertex 5.995 0 5
      vertex 5 19.5 6.99
      vertex 5.995 19 5
    endloop
  endfacet
  facet normal -0.894427 0 -0.447214
    outer loop
      vertex 5 -0.5 6.99
      vertex 5.995 0 5
      vertex 6 -0.5 4.99
    endloop
  endfacet
  facet normal -0.894427 0 -0.447214
    outer loop
      vertex 5.995 0 5
      vertex 5 -0.5 6.99
      vertex 5 19.5 6.99
    endloop
  endfacet
  facet normal 0 0 -1
    outer loop
      vertex 6 19 4.99
      vertex 9 19.5 4.99
      vertex 9 19 4.99
    endloop
  endfacet
  facet normal -0 0 -1
    outer loop
      vertex 9 19.5 4.99
      vertex 6 19 4.99
      vertex 6 19.5 4.99
    endloop
  endfacet
  facet normal 0 0 -1
    outer loop
      vertex 6 -0.5 4.99
      vertex 9 0 4.99
      vertex 9 -0.5 4.99
    endloop
  endfacet
  facet normal -0 0 -1
    outer loop
      vertex 9 0 4.99
      vertex 6 -0.5 4.99
      vertex 6 0 4.99
    endloop
  endfacet
  facet normal 0 1 -0
    outer loop
      vertex -9 19.5 4.99
      vertex -13 19.5 6.99
      vertex -8 19.5 6.99
    endloop
  endfacet
  facet normal 0 1 0
    outer loop
      vertex -13 19.5 6.99
      vertex -9 19.5 4.99
      vertex -12 19.5 4.99
    endloop
  endfacet
  facet normal 0.894427 0 -0.447214
    outer loop
      vertex -8 19.5 6.99
      vertex -8.995 19 5
      vertex -9 19.5 4.99
    endloop
  endfacet
  facet normal 0.894427 0 -0.447214
    outer loop
      vertex -8 19.5 6.99
      vertex -8.995 0 5
      vertex -8.995 19 5
    endloop
  endfacet
  facet normal 0.894427 0 -0.447214
    outer loop
      vertex -8 -0.5 6.99
      vertex -8.995 0 5
      vertex -8 19.5 6.99
    endloop
  endfacet
  facet normal 0.894427 0 -0.447214
    outer loop
      vertex -9 -0.5 4.99
      vertex -8.995 0 5
      vertex -8 -0.5 6.99
    endloop
  endfacet
  facet normal 0.894427 0 -0.447214
    outer loop
      vertex -8.995 0 5
      vertex -9 -0.5 4.99
      vertex -9 0 4.99
    endloop
  endfacet
  facet normal 0.894427 0 -0.447214
    outer loop
      vertex -9 19.5 4.99
      vertex -8.995 19 5
      vertex -9 19 4.99
    endloop
  endfacet
  facet normal 0 -1 0
    outer loop
      vertex -12 -0.5 4.99
      vertex -8 -0.5 6.99
      vertex -13 -0.5 6.99
    endloop
  endfacet
  facet normal 0 -1 0
    outer loop
      vertex -8 -0.5 6.99
      vertex -12 -0.5 4.99
      vertex -9 -0.5 4.99
    endloop
  endfacet
  facet normal -0 0 1
    outer loop
      vertex -13 19.5 6.99
      vertex -8 -0.5 6.99
      vertex -8 19.5 6.99
    endloop
  endfacet
  facet normal 0 0 1
    outer loop
      vertex -8 -0.5 6.99
      vertex -13 19.5 6.99
      vertex -13 -0.5 6.99
    endloop
  endfacet
  facet normal -0.894427 -0 -0.447214
    outer loop
      vertex -12 0 4.99
      vertex -12 -0.5 4.99
      vertex -12.005 0 5
    endloop
  endfacet
  facet normal -0.894427 0 -0.447214
    outer loop
      vertex -12.005 19 5
      vertex -12 19.5 4.99
      vertex -12 19 4.99
    endloop
  endfacet
  facet normal -0.894427 0 -0.447214
    outer loop
      vertex -12 19.5 4.99
      vertex -12.005 19 5
      vertex -13 19.5 6.99
    endloop
  endfacet
  facet normal -0.894427 0 -0.447214
    outer loop
      vertex -12.005 0 5
      vertex -13 19.5 6.99
      vertex -12.005 19 5
    endloop
  endfacet
  facet normal -0.894427 0 -0.447214
    outer loop
      vertex -13 -0.5 6.99
      vertex -12.005 0 5
      vertex -12 -0.5 4.99
    endloop
  endfacet
  facet normal -0.894427 0 -0.447214
    outer loop
      vertex -12.005 0 5
      vertex -13 -0.5 6.99
      vertex -13 19.5 6.99
    endloop
  endfacet
  facet normal 0 0 -1
    outer loop
      vertex -12 19 4.99
      vertex -9 19.5 4.99
      vertex -9 19 4.99
    endloop
  endfacet
  facet normal -0 0 -1
    outer loop
      vertex -9 19.5 4.99
      vertex -12 19 4.99
      vertex -12 19.5 4.99
    endloop
  endfacet
  facet normal 0 0 -1
    outer loop
      vertex -12 -0.5 4.99
      vertex -9 0 4.99
      vertex -9 -0.5 4.99
    endloop
  endfacet
  facet normal -0 0 -1
    outer loop
      vertex -9 0 4.99
      vertex -12 -0.5 4.99
      vertex -12 0 4.99
    endloop
  endfacet
endsolid OpenSCAD_Model
