solid OpenSCAD_Model
  facet normal -0 -0 -1
    outer loop
      vertex 29.9609 15.9473 0
      vertex 30 15.3223 0
      vertex 29.8438 16.5625 0
    endloop
  endfacet
  facet normal 0 0 -1
    outer loop
      vertex 29.0498 18.2549 0
      vertex 29.3848 17.7256 0
      vertex 29.6504 17.1582 0
    endloop
  endfacet
  facet normal 0 0 -1
    outer loop
      vertex 30 15.3223 0
      vertex 29.6504 17.1582 0
      vertex 29.8438 16.5625 0
    endloop
  endfacet
  facet normal -0 -0 -1
    outer loop
      vertex 28.6514 18.7383 0
      vertex 29.0498 18.2549 0
      vertex 28.1953 19.168 0
    endloop
  endfacet
  facet normal 0 0 -1
    outer loop
      vertex 28.1953 19.168 0
      vertex 29.0498 18.2549 0
      vertex 29.6504 17.1582 0
    endloop
  endfacet
  facet normal 0 0 -1
    outer loop
      vertex 27.6895 19.5371 0
      vertex 28.1953 19.168 0
      vertex 29.6504 17.1582 0
    endloop
  endfacet
  facet normal 0 0 -1
    outer loop
      vertex 26.5596 20.0723 0
      vertex 27.6895 19.5371 0
      vertex 29.6504 17.1582 0
    endloop
  endfacet
  facet normal 0 0 -1
    outer loop
      vertex 26.5596 20.0723 0
      vertex 27.1416 19.8408 0
      vertex 27.6895 19.5371 0
    endloop
  endfacet
  facet normal 0 0 -1
    outer loop
      vertex 30 15.3223 0
      vertex 26.5596 20.0723 0
      vertex 29.6504 17.1582 0
    endloop
  endfacet
  facet normal 0 0 -1
    outer loop
      vertex 25.333 20.3115 0
      vertex 25.9541 20.2305 0
      vertex 26.5596 20.0723 0
    endloop
  endfacet
  facet normal 0 0 -1
    outer loop
      vertex 30 15.3223 0
      vertex 25.333 20.3115 0
      vertex 26.5596 20.0723 0
    endloop
  endfacet
  facet normal 0 -0 -1
    outer loop
      vertex 15 20.2998 0
      vertex 18.542 11.3691 0
      vertex 11.458 11.3691 0
    endloop
  endfacet
  facet normal 0 0 -1
    outer loop
      vertex 2.31055 19.5371 0
      vertex 0.349609 17.1582 0
      vertex 1.80469 19.168 0
    endloop
  endfacet
  facet normal 0 0 -1
    outer loop
      vertex 4.66699 20.3115 0
      vertex 3.44043 20.0723 0
      vertex 4.0459 20.2305 0
    endloop
  endfacet
  facet normal 0 0 -1
    outer loop
      vertex 2.31055 19.5371 0
      vertex 2.8584 19.8408 0
      vertex 3.44043 20.0723 0
    endloop
  endfacet
  facet normal 0 0 -1
    outer loop
      vertex 1.80469 19.168 0
      vertex 0.349609 17.1582 0
      vertex 0.950195 18.2549 0
    endloop
  endfacet
  facet normal 0 -0 -1
    outer loop
      vertex 1.34863 18.7383 0
      vertex 1.80469 19.168 0
      vertex 0.950195 18.2549 0
    endloop
  endfacet
  facet normal 0 0 -1
    outer loop
      vertex 0.950195 18.2549 0
      vertex 0.349609 17.1582 0
      vertex 0.615234 17.7256 0
    endloop
  endfacet
  facet normal 0 -0 -1
    outer loop
      vertex 2.31055 19.5371 0
      vertex 3.44043 20.0723 0
      vertex 0.349609 17.1582 0
    endloop
  endfacet
  facet normal 0 0 -1
    outer loop
      vertex 0 15.3223 0
      vertex 0.0390625 15.9473 0
      vertex 0.15625 16.5625 0
    endloop
  endfacet
  facet normal 0 0 -1
    outer loop
      vertex 0.349609 17.1582 0
      vertex 0 15.3223 0
      vertex 0.15625 16.5625 0
    endloop
  endfacet
  facet normal 0 -0 -1
    outer loop
      vertex 0.349609 17.1582 0
      vertex 3.44043 20.0723 0
      vertex 0 15.3223 0
    endloop
  endfacet
  facet normal 0 0 -1
    outer loop
      vertex 0 15.3223 0
      vertex 3.44043 20.0723 0
      vertex 4.66699 20.3115 0
    endloop
  endfacet
  facet normal -0 0 -1
    outer loop
      vertex 18.7256 8.45898 0
      vertex 11.0713 8.31152 0
      vertex 11.2744 8.45898 0
    endloop
  endfacet
  facet normal 0 0 -1
    outer loop
      vertex 30 0 0
      vertex 19.625 8.03516 0
      vertex 19.874 8.00391 0
    endloop
  endfacet
  facet normal 0 0 -1
    outer loop
      vertex 30 15.3223 0
      vertex 21.7529 10.9639 0
      vertex 21.6182 11.1758 0
    endloop
  endfacet
  facet normal -0 -0 -1
    outer loop
      vertex 20.126 8.00391 0
      vertex 30 0 0
      vertex 19.874 8.00391 0
    endloop
  endfacet
  facet normal 0 0 -1
    outer loop
      vertex 30 0 0
      vertex 19.3818 8.09766 0
      vertex 19.625 8.03516 0
    endloop
  endfacet
  facet normal 0 0 -1
    outer loop
      vertex 30 0 0
      vertex 0 0 0
      vertex 19.3818 8.09766 0
    endloop
  endfacet
  facet normal 0 0 -1
    outer loop
      vertex 10.8516 8.19043 0
      vertex 18.9287 8.31152 0
      vertex 19.1484 8.19043 0
    endloop
  endfacet
  facet normal 0 0 -1
    outer loop
      vertex 18.542 8.63086 0
      vertex 11.458 8.63086 0
      vertex 18.3818 8.82422 0
    endloop
  endfacet
  facet normal 0 0 -1
    outer loop
      vertex 18.3818 8.82422 0
      vertex 11.6182 8.82422 0
      vertex 18.2471 9.03613 0
    endloop
  endfacet
  facet normal 0 0 -1
    outer loop
      vertex 11.7529 9.03613 0
      vertex 11.8594 9.26367 0
      vertex 18.1406 9.26367 0
    endloop
  endfacet
  facet normal 0 0 -1
    outer loop
      vertex 11.9375 9.50293 0
      vertex 18.0156 9.74902 0
      vertex 18.0625 9.50293 0
    endloop
  endfacet
  facet normal 0 -0 -1
    outer loop
      vertex 12 10 0
      vertex 18 10 0
      vertex 11.9844 9.74902 0
    endloop
  endfacet
  facet normal 0 0 -1
    outer loop
      vertex 11.9375 10.4971 0
      vertex 18.0156 10.251 0
      vertex 11.9844 10.251 0
    endloop
  endfacet
  facet normal -0 0 -1
    outer loop
      vertex 18.1406 10.7363 0
      vertex 18.0625 10.4971 0
      vertex 11.8594 10.7363 0
    endloop
  endfacet
  facet normal 0 0 -1
    outer loop
      vertex 18.3818 11.1758 0
      vertex 11.458 11.3691 0
      vertex 18.542 11.3691 0
    endloop
  endfacet
  facet normal 0 0 -1
    outer loop
      vertex 0 0 0
      vertex 8.54199 8.63086 0
      vertex 8.72559 8.45898 0
    endloop
  endfacet
  facet normal 0 0 -1
    outer loop
      vertex 11.458 11.3691 0
      vertex 11.2744 11.541 0
      vertex 15 20.2998 0
    endloop
  endfacet
  facet normal -0 0 -1
    outer loop
      vertex 8.72559 11.541 0
      vertex 8.54199 11.3691 0
      vertex 0 15.3223 0
    endloop
  endfacet
  facet normal 0 0 -1
    outer loop
      vertex 11.0713 11.6885 0
      vertex 15 20.2998 0
      vertex 11.2744 11.541 0
    endloop
  endfacet
  facet normal 0 0 -1
    outer loop
      vertex 10.8516 11.8096 0
      vertex 10.6182 11.9023 0
      vertex 15 20.2998 0
    endloop
  endfacet
  facet normal 0 -0 -1
    outer loop
      vertex 4.66699 20.3115 0
      vertex 8.72559 11.541 0
      vertex 0 15.3223 0
    endloop
  endfacet
  facet normal 0 0 -1
    outer loop
      vertex 4.66699 20.3115 0
      vertex 15 20.2998 0
      vertex 9.87402 11.9961 0
    endloop
  endfacet
  facet normal 0 0 -1
    outer loop
      vertex 18.542 11.3691 0
      vertex 15 20.2998 0
      vertex 18.7256 11.541 0
    endloop
  endfacet
  facet normal 0 0 -1
    outer loop
      vertex 18.7256 11.541 0
      vertex 15 20.2998 0
      vertex 18.9287 11.6885 0
    endloop
  endfacet
  facet normal 0 0 -1
    outer loop
      vertex 18.9287 11.6885 0
      vertex 15 20.2998 0
      vertex 19.1484 11.8096 0
    endloop
  endfacet
  facet normal 0 0 -1
    outer loop
      vertex 19.1484 11.8096 0
      vertex 15 20.2998 0
      vertex 19.3818 11.9023 0
    endloop
  endfacet
  facet normal 0 0 -1
    outer loop
      vertex 19.625 11.9648 0
      vertex 15 20.2998 0
      vertex 19.874 11.9961 0
    endloop
  endfacet
  facet normal 0 0 -1
    outer loop
      vertex 19.3818 11.9023 0
      vertex 15 20.2998 0
      vertex 19.625 11.9648 0
    endloop
  endfacet
  facet normal 0 0 -1
    outer loop
      vertex 15 20.2998 0
      vertex 20.126 11.9961 0
      vertex 19.874 11.9961 0
    endloop
  endfacet
  facet normal 0 0 -1
    outer loop
      vertex 15 20.2998 0
      vertex 25.333 20.3115 0
      vertex 20.126 11.9961 0
    endloop
  endfacet
  facet normal 0 0 -1
    outer loop
      vertex 20.126 11.9961 0
      vertex 25.333 20.3115 0
      vertex 20.375 11.9648 0
    endloop
  endfacet
  facet normal 0 0 -1
    outer loop
      vertex 20.375 11.9648 0
      vertex 25.333 20.3115 0
      vertex 20.6182 11.9023 0
    endloop
  endfacet
  facet normal 0 0 -1
    outer loop
      vertex 20.6182 11.9023 0
      vertex 25.333 20.3115 0
      vertex 20.8516 11.8096 0
    endloop
  endfacet
  facet normal 0 0 -1
    outer loop
      vertex 20.8516 11.8096 0
      vertex 25.333 20.3115 0
      vertex 21.0713 11.6885 0
    endloop
  endfacet
  facet normal 0 0 -1
    outer loop
      vertex 21.0713 11.6885 0
      vertex 25.333 20.3115 0
      vertex 21.2744 11.541 0
    endloop
  endfacet
  facet normal 0 0 -1
    outer loop
      vertex 21.2744 11.541 0
      vertex 25.333 20.3115 0
      vertex 30 15.3223 0
    endloop
  endfacet
  facet normal 0 0 -1
    outer loop
      vertex 30 15.3223 0
      vertex 21.458 11.3691 0
      vertex 21.2744 11.541 0
    endloop
  endfacet
  facet normal 0 0 -1
    outer loop
      vertex 30 15.3223 0
      vertex 21.6182 11.1758 0
      vertex 21.458 11.3691 0
    endloop
  endfacet
  facet normal 0 0 -1
    outer loop
      vertex 21.7529 10.9639 0
      vertex 30 15.3223 0
      vertex 21.8594 10.7363 0
    endloop
  endfacet
  facet normal 0 0 -1
    outer loop
      vertex 21.8594 10.7363 0
      vertex 30 15.3223 0
      vertex 21.9375 10.4971 0
    endloop
  endfacet
  facet normal 0 0 -1
    outer loop
      vertex 21.9375 10.4971 0
      vertex 30 15.3223 0
      vertex 21.9844 10.251 0
    endloop
  endfacet
  facet normal 0 0 -1
    outer loop
      vertex 21.9844 10.251 0
      vertex 30 15.3223 0
      vertex 22 10 0
    endloop
  endfacet
  facet normal 0 -0 -1
    outer loop
      vertex 22 10 0
      vertex 30 15.3223 0
      vertex 21.9844 9.74902 0
    endloop
  endfacet
  facet normal 0 -0 -1
    outer loop
      vertex 21.9844 9.74902 0
      vertex 30 15.3223 0
      vertex 21.9375 9.50293 0
    endloop
  endfacet
  facet normal 0 0 -1
    outer loop
      vertex 21.9375 9.50293 0
      vertex 30 15.3223 0
      vertex 30 0 0
    endloop
  endfacet
  facet normal 0 0 -1
    outer loop
      vertex 21.8594 9.26367 0
      vertex 21.9375 9.50293 0
      vertex 30 0 0
    endloop
  endfacet
  facet normal 0 0 -1
    outer loop
      vertex 21.7529 9.03613 0
      vertex 21.8594 9.26367 0
      vertex 30 0 0
    endloop
  endfacet
  facet normal 0 0 -1
    outer loop
      vertex 21.6182 8.82422 0
      vertex 21.7529 9.03613 0
      vertex 30 0 0
    endloop
  endfacet
  facet normal 0 0 -1
    outer loop
      vertex 21.458 8.63086 0
      vertex 21.6182 8.82422 0
      vertex 30 0 0
    endloop
  endfacet
  facet normal 0 0 -1
    outer loop
      vertex 21.2744 8.45898 0
      vertex 21.458 8.63086 0
      vertex 30 0 0
    endloop
  endfacet
  facet normal 0 0 -1
    outer loop
      vertex 21.0713 8.31152 0
      vertex 21.2744 8.45898 0
      vertex 30 0 0
    endloop
  endfacet
  facet normal 0 0 -1
    outer loop
      vertex 20.8516 8.19043 0
      vertex 21.0713 8.31152 0
      vertex 30 0 0
    endloop
  endfacet
  facet normal 0 0 -1
    outer loop
      vertex 20.6182 8.09766 0
      vertex 20.8516 8.19043 0
      vertex 30 0 0
    endloop
  endfacet
  facet normal 0 0 -1
    outer loop
      vertex 20.126 8.00391 0
      vertex 20.375 8.03516 0
      vertex 30 0 0
    endloop
  endfacet
  facet normal 0 0 -1
    outer loop
      vertex 20.375 8.03516 0
      vertex 20.6182 8.09766 0
      vertex 30 0 0
    endloop
  endfacet
  facet normal 0 0 -1
    outer loop
      vertex 10.6182 8.09766 0
      vertex 19.1484 8.19043 0
      vertex 19.3818 8.09766 0
    endloop
  endfacet
  facet normal 0 0 -1
    outer loop
      vertex 18.2471 10.9639 0
      vertex 11.6182 11.1758 0
      vertex 18.3818 11.1758 0
    endloop
  endfacet
  facet normal 0 0 -1
    outer loop
      vertex 0 0 0
      vertex 9.87402 8.00391 0
      vertex 10.126 8.00391 0
    endloop
  endfacet
  facet normal 0 0 -1
    outer loop
      vertex 11.7529 10.9639 0
      vertex 11.6182 11.1758 0
      vertex 18.2471 10.9639 0
    endloop
  endfacet
  facet normal 0 0 -1
    outer loop
      vertex 0 0 0
      vertex 9.625 8.03516 0
      vertex 9.87402 8.00391 0
    endloop
  endfacet
  facet normal 0 0 -1
    outer loop
      vertex 0 0 0
      vertex 9.38184 8.09766 0
      vertex 9.625 8.03516 0
    endloop
  endfacet
  facet normal 0 0 -1
    outer loop
      vertex 0 0 0
      vertex 9.14844 8.19043 0
      vertex 9.38184 8.09766 0
    endloop
  endfacet
  facet normal 0 0 -1
    outer loop
      vertex 0 0 0
      vertex 8.92871 8.31152 0
      vertex 9.14844 8.19043 0
    endloop
  endfacet
  facet normal 0 0 -1
    outer loop
      vertex 0 0 0
      vertex 8.72559 8.45898 0
      vertex 8.92871 8.31152 0
    endloop
  endfacet
  facet normal -0 0 -1
    outer loop
      vertex 8.54199 8.63086 0
      vertex 0 0 0
      vertex 8.38184 8.82422 0
    endloop
  endfacet
  facet normal -0 0 -1
    outer loop
      vertex 8.38184 8.82422 0
      vertex 0 0 0
      vertex 8.24707 9.03613 0
    endloop
  endfacet
  facet normal -0 0 -1
    outer loop
      vertex 8.24707 9.03613 0
      vertex 0 0 0
      vertex 8.14062 9.26367 0
    endloop
  endfacet
  facet normal -0 0 -1
    outer loop
      vertex 8.14062 9.26367 0
      vertex 0 0 0
      vertex 8.0625 9.50293 0
    endloop
  endfacet
  facet normal -0 -0 -1
    outer loop
      vertex 8.01562 9.74902 0
      vertex 8.0625 9.50293 0
      vertex 0 15.3223 0
    endloop
  endfacet
  facet normal -0 0 -1
    outer loop
      vertex 8.0625 9.50293 0
      vertex 0 0 0
      vertex 0 15.3223 0
    endloop
  endfacet
  facet normal -0 -0 -1
    outer loop
      vertex 8 10 0
      vertex 8.01562 9.74902 0
      vertex 0 15.3223 0
    endloop
  endfacet
  facet normal -0 0 -1
    outer loop
      vertex 8.01562 10.251 0
      vertex 8 10 0
      vertex 0 15.3223 0
    endloop
  endfacet
  facet normal -0 0 -1
    outer loop
      vertex 8.0625 10.4971 0
      vertex 8.01562 10.251 0
      vertex 0 15.3223 0
    endloop
  endfacet
  facet normal -0 0 -1
    outer loop
      vertex 8.14062 10.7363 0
      vertex 8.0625 10.4971 0
      vertex 0 15.3223 0
    endloop
  endfacet
  facet normal -0 0 -1
    outer loop
      vertex 8.24707 10.9639 0
      vertex 8.14062 10.7363 0
      vertex 0 15.3223 0
    endloop
  endfacet
  facet normal -0 0 -1
    outer loop
      vertex 8.38184 11.1758 0
      vertex 8.24707 10.9639 0
      vertex 0 15.3223 0
    endloop
  endfacet
  facet normal -0 0 -1
    outer loop
      vertex 8.54199 11.3691 0
      vertex 8.38184 11.1758 0
      vertex 0 15.3223 0
    endloop
  endfacet
  facet normal 0 0 -1
    outer loop
      vertex 4.66699 20.3115 0
      vertex 8.92871 11.6885 0
      vertex 8.72559 11.541 0
    endloop
  endfacet
  facet normal 0 0 -1
    outer loop
      vertex 4.66699 20.3115 0
      vertex 9.14844 11.8096 0
      vertex 8.92871 11.6885 0
    endloop
  endfacet
  facet normal 0 0 -1
    outer loop
      vertex 4.66699 20.3115 0
      vertex 9.38184 11.9023 0
      vertex 9.14844 11.8096 0
    endloop
  endfacet
  facet normal 0 0 -1
    outer loop
      vertex 4.66699 20.3115 0
      vertex 9.625 11.9648 0
      vertex 9.38184 11.9023 0
    endloop
  endfacet
  facet normal 0 0 -1
    outer loop
      vertex 4.66699 20.3115 0
      vertex 9.87402 11.9961 0
      vertex 9.625 11.9648 0
    endloop
  endfacet
  facet normal 0 0 -1
    outer loop
      vertex 15 20.2998 0
      vertex 10.6182 11.9023 0
      vertex 10.375 11.9648 0
    endloop
  endfacet
  facet normal 0 0 -1
    outer loop
      vertex 9.87402 11.9961 0
      vertex 15 20.2998 0
      vertex 10.126 11.9961 0
    endloop
  endfacet
  facet normal 0 0 -1
    outer loop
      vertex 10.126 11.9961 0
      vertex 15 20.2998 0
      vertex 10.375 11.9648 0
    endloop
  endfacet
  facet normal 0 0 -1
    outer loop
      vertex 11.0713 11.6885 0
      vertex 10.8516 11.8096 0
      vertex 15 20.2998 0
    endloop
  endfacet
  facet normal 0 0 -1
    outer loop
      vertex 18.3818 11.1758 0
      vertex 11.6182 11.1758 0
      vertex 11.458 11.3691 0
    endloop
  endfacet
  facet normal 0 0 -1
    outer loop
      vertex 18.1406 10.7363 0
      vertex 11.7529 10.9639 0
      vertex 18.2471 10.9639 0
    endloop
  endfacet
  facet normal 0 0 -1
    outer loop
      vertex 18.1406 10.7363 0
      vertex 11.8594 10.7363 0
      vertex 11.7529 10.9639 0
    endloop
  endfacet
  facet normal 0 0 -1
    outer loop
      vertex 18.0625 10.4971 0
      vertex 11.9375 10.4971 0
      vertex 11.8594 10.7363 0
    endloop
  endfacet
  facet normal -0 0 -1
    outer loop
      vertex 18.0625 10.4971 0
      vertex 18.0156 10.251 0
      vertex 11.9375 10.4971 0
    endloop
  endfacet
  facet normal -0 0 -1
    outer loop
      vertex 18.0156 10.251 0
      vertex 18 10 0
      vertex 11.9844 10.251 0
    endloop
  endfacet
  facet normal 0 0 -1
    outer loop
      vertex 11.9844 10.251 0
      vertex 18 10 0
      vertex 12 10 0
    endloop
  endfacet
  facet normal 0 -0 -1
    outer loop
      vertex 18 10 0
      vertex 18.0156 9.74902 0
      vertex 11.9844 9.74902 0
    endloop
  endfacet
  facet normal 0 -0 -1
    outer loop
      vertex 11.9844 9.74902 0
      vertex 18.0156 9.74902 0
      vertex 11.9375 9.50293 0
    endloop
  endfacet
  facet normal 0 -0 -1
    outer loop
      vertex 11.9375 9.50293 0
      vertex 18.0625 9.50293 0
      vertex 11.8594 9.26367 0
    endloop
  endfacet
  facet normal 0 0 -1
    outer loop
      vertex 11.8594 9.26367 0
      vertex 18.0625 9.50293 0
      vertex 18.1406 9.26367 0
    endloop
  endfacet
  facet normal 0 0 -1
    outer loop
      vertex 11.7529 9.03613 0
      vertex 18.1406 9.26367 0
      vertex 18.2471 9.03613 0
    endloop
  endfacet
  facet normal 0 0 -1
    outer loop
      vertex 11.6182 8.82422 0
      vertex 11.7529 9.03613 0
      vertex 18.2471 9.03613 0
    endloop
  endfacet
  facet normal 0 0 -1
    outer loop
      vertex 11.458 8.63086 0
      vertex 11.6182 8.82422 0
      vertex 18.3818 8.82422 0
    endloop
  endfacet
  facet normal 0 0 -1
    outer loop
      vertex 11.2744 8.45898 0
      vertex 11.458 8.63086 0
      vertex 18.542 8.63086 0
    endloop
  endfacet
  facet normal 0 0 -1
    outer loop
      vertex 18.7256 8.45898 0
      vertex 11.2744 8.45898 0
      vertex 18.542 8.63086 0
    endloop
  endfacet
  facet normal 0 0 -1
    outer loop
      vertex 18.9287 8.31152 0
      vertex 11.0713 8.31152 0
      vertex 18.7256 8.45898 0
    endloop
  endfacet
  facet normal -0 0 -1
    outer loop
      vertex 18.9287 8.31152 0
      vertex 10.8516 8.19043 0
      vertex 11.0713 8.31152 0
    endloop
  endfacet
  facet normal -0 0 -1
    outer loop
      vertex 19.1484 8.19043 0
      vertex 10.6182 8.09766 0
      vertex 10.8516 8.19043 0
    endloop
  endfacet
  facet normal -0 0 -1
    outer loop
      vertex 19.3818 8.09766 0
      vertex 0 0 0
      vertex 10.6182 8.09766 0
    endloop
  endfacet
  facet normal 0 0 -1
    outer loop
      vertex 10.6182 8.09766 0
      vertex 0 0 0
      vertex 10.375 8.03516 0
    endloop
  endfacet
  facet normal 0 0 -1
    outer loop
      vertex 10.375 8.03516 0
      vertex 0 0 0
      vertex 10.126 8.00391 0
    endloop
  endfacet
  facet normal 0 0 1
    outer loop
      vertex 29.8438 16.5625 10
      vertex 30 15.3223 10
      vertex 29.9609 15.9473 10
    endloop
  endfacet
  facet normal 0 0 1
    outer loop
      vertex 29.6504 17.1582 10
      vertex 29.3848 17.7256 10
      vertex 29.0498 18.2549 10
    endloop
  endfacet
  facet normal 0 0 1
    outer loop
      vertex 29.8438 16.5625 10
      vertex 29.6504 17.1582 10
      vertex 30 15.3223 10
    endloop
  endfacet
  facet normal 0 0 1
    outer loop
      vertex 28.1953 19.168 10
      vertex 29.0498 18.2549 10
      vertex 28.6514 18.7383 10
    endloop
  endfacet
  facet normal 0 0 1
    outer loop
      vertex 29.6504 17.1582 10
      vertex 29.0498 18.2549 10
      vertex 28.1953 19.168 10
    endloop
  endfacet
  facet normal 0 0 1
    outer loop
      vertex 29.6504 17.1582 10
      vertex 28.1953 19.168 10
      vertex 27.6895 19.5371 10
    endloop
  endfacet
  facet normal 0 0 1
    outer loop
      vertex 29.6504 17.1582 10
      vertex 27.6895 19.5371 10
      vertex 26.5596 20.0723 10
    endloop
  endfacet
  facet normal 0 0 1
    outer loop
      vertex 27.6895 19.5371 10
      vertex 27.1416 19.8408 10
      vertex 26.5596 20.0723 10
    endloop
  endfacet
  facet normal 0 0 1
    outer loop
      vertex 29.6504 17.1582 10
      vertex 26.5596 20.0723 10
      vertex 30 15.3223 10
    endloop
  endfacet
  facet normal 0 0 1
    outer loop
      vertex 26.5596 20.0723 10
      vertex 25.9541 20.2305 10
      vertex 25.333 20.3115 10
    endloop
  endfacet
  facet normal 0 0 1
    outer loop
      vertex 26.5596 20.0723 10
      vertex 25.333 20.3115 10
      vertex 30 15.3223 10
    endloop
  endfacet
  facet normal 0 0 1
    outer loop
      vertex 11.458 11.3691 10
      vertex 18.542 11.3691 10
      vertex 15 20.2998 10
    endloop
  endfacet
  facet normal -0 0 1
    outer loop
      vertex 1.80469 19.168 10
      vertex 0.349609 17.1582 10
      vertex 2.31055 19.5371 10
    endloop
  endfacet
  facet normal -0 0 1
    outer loop
      vertex 4.0459 20.2305 10
      vertex 3.44043 20.0723 10
      vertex 4.66699 20.3115 10
    endloop
  endfacet
  facet normal 0 0 1
    outer loop
      vertex 3.44043 20.0723 10
      vertex 2.8584 19.8408 10
      vertex 2.31055 19.5371 10
    endloop
  endfacet
  facet normal -0 0 1
    outer loop
      vertex 0.950195 18.2549 10
      vertex 0.349609 17.1582 10
      vertex 1.80469 19.168 10
    endloop
  endfacet
  facet normal 0 0 1
    outer loop
      vertex 0.950195 18.2549 10
      vertex 1.80469 19.168 10
      vertex 1.34863 18.7383 10
    endloop
  endfacet
  facet normal -0 0 1
    outer loop
      vertex 0.615234 17.7256 10
      vertex 0.349609 17.1582 10
      vertex 0.950195 18.2549 10
    endloop
  endfacet
  facet normal 0 0 1
    outer loop
      vertex 0.349609 17.1582 10
      vertex 3.44043 20.0723 10
      vertex 2.31055 19.5371 10
    endloop
  endfacet
  facet normal 0 0 1
    outer loop
      vertex 0.15625 16.5625 10
      vertex 0.0390625 15.9473 10
      vertex 0 15.3223 10
    endloop
  endfacet
  facet normal -0 0 1
    outer loop
      vertex 0.15625 16.5625 10
      vertex 0 15.3223 10
      vertex 0.349609 17.1582 10
    endloop
  endfacet
  facet normal 0 0 1
    outer loop
      vertex 0 15.3223 10
      vertex 3.44043 20.0723 10
      vertex 0.349609 17.1582 10
    endloop
  endfacet
  facet normal 0 0 1
    outer loop
      vertex 4.66699 20.3115 10
      vertex 3.44043 20.0723 10
      vertex 0 15.3223 10
    endloop
  endfacet
  facet normal -0 0 1
    outer loop
      vertex 11.2744 8.45898 10
      vertex 11.0713 8.31152 10
      vertex 18.7256 8.45898 10
    endloop
  endfacet
  facet normal 0 0 1
    outer loop
      vertex 19.874 8.00391 10
      vertex 19.625 8.03516 10
      vertex 30 0 10
    endloop
  endfacet
  facet normal -0 0 1
    outer loop
      vertex 21.6182 11.1758 10
      vertex 21.7529 10.9639 10
      vertex 30 15.3223 10
    endloop
  endfacet
  facet normal -0 0 1
    outer loop
      vertex 19.874 8.00391 10
      vertex 30 0 10
      vertex 20.126 8.00391 10
    endloop
  endfacet
  facet normal 0 0 1
    outer loop
      vertex 19.625 8.03516 10
      vertex 19.3818 8.09766 10
      vertex 30 0 10
    endloop
  endfacet
  facet normal 0 0 1
    outer loop
      vertex 19.3818 8.09766 10
      vertex 0 0 10
      vertex 30 0 10
    endloop
  endfacet
  facet normal 0 0 1
    outer loop
      vertex 19.1484 8.19043 10
      vertex 18.9287 8.31152 10
      vertex 10.8516 8.19043 10
    endloop
  endfacet
  facet normal 0 0 1
    outer loop
      vertex 18.3818 8.82422 10
      vertex 11.458 8.63086 10
      vertex 18.542 8.63086 10
    endloop
  endfacet
  facet normal 0 0 1
    outer loop
      vertex 18.2471 9.03613 10
      vertex 11.6182 8.82422 10
      vertex 18.3818 8.82422 10
    endloop
  endfacet
  facet normal 0 0 1
    outer loop
      vertex 18.1406 9.26367 10
      vertex 11.8594 9.26367 10
      vertex 11.7529 9.03613 10
    endloop
  endfacet
  facet normal 0 0 1
    outer loop
      vertex 18.0625 9.50293 10
      vertex 18.0156 9.74902 10
      vertex 11.9375 9.50293 10
    endloop
  endfacet
  facet normal 0 0 1
    outer loop
      vertex 11.9844 9.74902 10
      vertex 18 10 10
      vertex 12 10 10
    endloop
  endfacet
  facet normal 0 -0 1
    outer loop
      vertex 11.9844 10.251 10
      vertex 18.0156 10.251 10
      vertex 11.9375 10.4971 10
    endloop
  endfacet
  facet normal -0 0 1
    outer loop
      vertex 11.8594 10.7363 10
      vertex 18.0625 10.4971 10
      vertex 18.1406 10.7363 10
    endloop
  endfacet
  facet normal 0 0 1
    outer loop
      vertex 18.542 11.3691 10
      vertex 11.458 11.3691 10
      vertex 18.3818 11.1758 10
    endloop
  endfacet
  facet normal 0 0 1
    outer loop
      vertex 8.72559 8.45898 10
      vertex 8.54199 8.63086 10
      vertex 0 0 10
    endloop
  endfacet
  facet normal 0 0 1
    outer loop
      vertex 15 20.2998 10
      vertex 11.2744 11.541 10
      vertex 11.458 11.3691 10
    endloop
  endfacet
  facet normal 0 0 1
    outer loop
      vertex 0 15.3223 10
      vertex 8.54199 11.3691 10
      vertex 8.72559 11.541 10
    endloop
  endfacet
  facet normal 0 -0 1
    outer loop
      vertex 11.2744 11.541 10
      vertex 15 20.2998 10
      vertex 11.0713 11.6885 10
    endloop
  endfacet
  facet normal 0 0 1
    outer loop
      vertex 15 20.2998 10
      vertex 10.6182 11.9023 10
      vertex 10.8516 11.8096 10
    endloop
  endfacet
  facet normal -0 0 1
    outer loop
      vertex 0 15.3223 10
      vertex 8.72559 11.541 10
      vertex 4.66699 20.3115 10
    endloop
  endfacet
  facet normal 0 -0 1
    outer loop
      vertex 9.87402 11.9961 10
      vertex 15 20.2998 10
      vertex 4.66699 20.3115 10
    endloop
  endfacet
  facet normal 0 0 1
    outer loop
      vertex 18.7256 11.541 10
      vertex 15 20.2998 10
      vertex 18.542 11.3691 10
    endloop
  endfacet
  facet normal 0 0 1
    outer loop
      vertex 18.9287 11.6885 10
      vertex 15 20.2998 10
      vertex 18.7256 11.541 10
    endloop
  endfacet
  facet normal 0 0 1
    outer loop
      vertex 19.1484 11.8096 10
      vertex 15 20.2998 10
      vertex 18.9287 11.6885 10
    endloop
  endfacet
  facet normal 0 0 1
    outer loop
      vertex 19.3818 11.9023 10
      vertex 15 20.2998 10
      vertex 19.1484 11.8096 10
    endloop
  endfacet
  facet normal 0 0 1
    outer loop
      vertex 19.874 11.9961 10
      vertex 15 20.2998 10
      vertex 19.625 11.9648 10
    endloop
  endfacet
  facet normal 0 0 1
    outer loop
      vertex 19.625 11.9648 10
      vertex 15 20.2998 10
      vertex 19.3818 11.9023 10
    endloop
  endfacet
  facet normal 0 -0 1
    outer loop
      vertex 19.874 11.9961 10
      vertex 20.126 11.9961 10
      vertex 15 20.2998 10
    endloop
  endfacet
  facet normal 0 -0 1
    outer loop
      vertex 20.126 11.9961 10
      vertex 25.333 20.3115 10
      vertex 15 20.2998 10
    endloop
  endfacet
  facet normal 0 -0 1
    outer loop
      vertex 20.375 11.9648 10
      vertex 25.333 20.3115 10
      vertex 20.126 11.9961 10
    endloop
  endfacet
  facet normal 0 -0 1
    outer loop
      vertex 20.6182 11.9023 10
      vertex 25.333 20.3115 10
      vertex 20.375 11.9648 10
    endloop
  endfacet
  facet normal 0 -0 1
    outer loop
      vertex 20.8516 11.8096 10
      vertex 25.333 20.3115 10
      vertex 20.6182 11.9023 10
    endloop
  endfacet
  facet normal 0 -0 1
    outer loop
      vertex 21.0713 11.6885 10
      vertex 25.333 20.3115 10
      vertex 20.8516 11.8096 10
    endloop
  endfacet
  facet normal 0 -0 1
    outer loop
      vertex 21.2744 11.541 10
      vertex 25.333 20.3115 10
      vertex 21.0713 11.6885 10
    endloop
  endfacet
  facet normal 0 0 1
    outer loop
      vertex 30 15.3223 10
      vertex 25.333 20.3115 10
      vertex 21.2744 11.541 10
    endloop
  endfacet
  facet normal -0 0 1
    outer loop
      vertex 21.2744 11.541 10
      vertex 21.458 11.3691 10
      vertex 30 15.3223 10
    endloop
  endfacet
  facet normal -0 0 1
    outer loop
      vertex 21.458 11.3691 10
      vertex 21.6182 11.1758 10
      vertex 30 15.3223 10
    endloop
  endfacet
  facet normal 0 -0 1
    outer loop
      vertex 21.8594 10.7363 10
      vertex 30 15.3223 10
      vertex 21.7529 10.9639 10
    endloop
  endfacet
  facet normal 0 -0 1
    outer loop
      vertex 21.9375 10.4971 10
      vertex 30 15.3223 10
      vertex 21.8594 10.7363 10
    endloop
  endfacet
  facet normal 0 -0 1
    outer loop
      vertex 21.9844 10.251 10
      vertex 30 15.3223 10
      vertex 21.9375 10.4971 10
    endloop
  endfacet
  facet normal 0 -0 1
    outer loop
      vertex 22 10 10
      vertex 30 15.3223 10
      vertex 21.9844 10.251 10
    endloop
  endfacet
  facet normal 0 0 1
    outer loop
      vertex 21.9844 9.74902 10
      vertex 30 15.3223 10
      vertex 22 10 10
    endloop
  endfacet
  facet normal 0 0 1
    outer loop
      vertex 21.9375 9.50293 10
      vertex 30 15.3223 10
      vertex 21.9844 9.74902 10
    endloop
  endfacet
  facet normal 0 -0 1
    outer loop
      vertex 30 0 10
      vertex 30 15.3223 10
      vertex 21.9375 9.50293 10
    endloop
  endfacet
  facet normal 0 0 1
    outer loop
      vertex 30 0 10
      vertex 21.9375 9.50293 10
      vertex 21.8594 9.26367 10
    endloop
  endfacet
  facet normal 0 0 1
    outer loop
      vertex 30 0 10
      vertex 21.8594 9.26367 10
      vertex 21.7529 9.03613 10
    endloop
  endfacet
  facet normal 0 0 1
    outer loop
      vertex 30 0 10
      vertex 21.7529 9.03613 10
      vertex 21.6182 8.82422 10
    endloop
  endfacet
  facet normal 0 0 1
    outer loop
      vertex 30 0 10
      vertex 21.6182 8.82422 10
      vertex 21.458 8.63086 10
    endloop
  endfacet
  facet normal 0 0 1
    outer loop
      vertex 30 0 10
      vertex 21.458 8.63086 10
      vertex 21.2744 8.45898 10
    endloop
  endfacet
  facet normal 0 0 1
    outer loop
      vertex 30 0 10
      vertex 21.2744 8.45898 10
      vertex 21.0713 8.31152 10
    endloop
  endfacet
  facet normal 0 0 1
    outer loop
      vertex 30 0 10
      vertex 21.0713 8.31152 10
      vertex 20.8516 8.19043 10
    endloop
  endfacet
  facet normal 0 0 1
    outer loop
      vertex 30 0 10
      vertex 20.8516 8.19043 10
      vertex 20.6182 8.09766 10
    endloop
  endfacet
  facet normal 0 0 1
    outer loop
      vertex 30 0 10
      vertex 20.375 8.03516 10
      vertex 20.126 8.00391 10
    endloop
  endfacet
  facet normal 0 0 1
    outer loop
      vertex 30 0 10
      vertex 20.6182 8.09766 10
      vertex 20.375 8.03516 10
    endloop
  endfacet
  facet normal 0 0 1
    outer loop
      vertex 19.3818 8.09766 10
      vertex 19.1484 8.19043 10
      vertex 10.6182 8.09766 10
    endloop
  endfacet
  facet normal 0 0 1
    outer loop
      vertex 18.3818 11.1758 10
      vertex 11.6182 11.1758 10
      vertex 18.2471 10.9639 10
    endloop
  endfacet
  facet normal 0 0 1
    outer loop
      vertex 10.126 8.00391 10
      vertex 9.87402 8.00391 10
      vertex 0 0 10
    endloop
  endfacet
  facet normal 0 0 1
    outer loop
      vertex 18.2471 10.9639 10
      vertex 11.6182 11.1758 10
      vertex 11.7529 10.9639 10
    endloop
  endfacet
  facet normal 0 0 1
    outer loop
      vertex 9.87402 8.00391 10
      vertex 9.625 8.03516 10
      vertex 0 0 10
    endloop
  endfacet
  facet normal 0 0 1
    outer loop
      vertex 9.625 8.03516 10
      vertex 9.38184 8.09766 10
      vertex 0 0 10
    endloop
  endfacet
  facet normal 0 0 1
    outer loop
      vertex 9.38184 8.09766 10
      vertex 9.14844 8.19043 10
      vertex 0 0 10
    endloop
  endfacet
  facet normal 0 0 1
    outer loop
      vertex 9.14844 8.19043 10
      vertex 8.92871 8.31152 10
      vertex 0 0 10
    endloop
  endfacet
  facet normal 0 0 1
    outer loop
      vertex 8.92871 8.31152 10
      vertex 8.72559 8.45898 10
      vertex 0 0 10
    endloop
  endfacet
  facet normal 0 0 1
    outer loop
      vertex 8.38184 8.82422 10
      vertex 0 0 10
      vertex 8.54199 8.63086 10
    endloop
  endfacet
  facet normal 0 0 1
    outer loop
      vertex 8.24707 9.03613 10
      vertex 0 0 10
      vertex 8.38184 8.82422 10
    endloop
  endfacet
  facet normal 0 0 1
    outer loop
      vertex 8.14062 9.26367 10
      vertex 0 0 10
      vertex 8.24707 9.03613 10
    endloop
  endfacet
  facet normal 0 0 1
    outer loop
      vertex 8.0625 9.50293 10
      vertex 0 0 10
      vertex 8.14062 9.26367 10
    endloop
  endfacet
  facet normal 0 0 1
    outer loop
      vertex 0 15.3223 10
      vertex 8.0625 9.50293 10
      vertex 8.01562 9.74902 10
    endloop
  endfacet
  facet normal 0 0 1
    outer loop
      vertex 0 15.3223 10
      vertex 0 0 10
      vertex 8.0625 9.50293 10
    endloop
  endfacet
  facet normal 0 0 1
    outer loop
      vertex 0 15.3223 10
      vertex 8.01562 9.74902 10
      vertex 8 10 10
    endloop
  endfacet
  facet normal 0 0 1
    outer loop
      vertex 0 15.3223 10
      vertex 8 10 10
      vertex 8.01562 10.251 10
    endloop
  endfacet
  facet normal 0 0 1
    outer loop
      vertex 0 15.3223 10
      vertex 8.01562 10.251 10
      vertex 8.0625 10.4971 10
    endloop
  endfacet
  facet normal 0 0 1
    outer loop
      vertex 0 15.3223 10
      vertex 8.0625 10.4971 10
      vertex 8.14062 10.7363 10
    endloop
  endfacet
  facet normal 0 0 1
    outer loop
      vertex 0 15.3223 10
      vertex 8.14062 10.7363 10
      vertex 8.24707 10.9639 10
    endloop
  endfacet
  facet normal 0 0 1
    outer loop
      vertex 0 15.3223 10
      vertex 8.24707 10.9639 10
      vertex 8.38184 11.1758 10
    endloop
  endfacet
  facet normal 0 0 1
    outer loop
      vertex 0 15.3223 10
      vertex 8.38184 11.1758 10
      vertex 8.54199 11.3691 10
    endloop
  endfacet
  facet normal 0 -0 1
    outer loop
      vertex 8.72559 11.541 10
      vertex 8.92871 11.6885 10
      vertex 4.66699 20.3115 10
    endloop
  endfacet
  facet normal 0 -0 1
    outer loop
      vertex 8.92871 11.6885 10
      vertex 9.14844 11.8096 10
      vertex 4.66699 20.3115 10
    endloop
  endfacet
  facet normal 0 -0 1
    outer loop
      vertex 9.14844 11.8096 10
      vertex 9.38184 11.9023 10
      vertex 4.66699 20.3115 10
    endloop
  endfacet
  facet normal 0 -0 1
    outer loop
      vertex 9.38184 11.9023 10
      vertex 9.625 11.9648 10
      vertex 4.66699 20.3115 10
    endloop
  endfacet
  facet normal 0 -0 1
    outer loop
      vertex 9.625 11.9648 10
      vertex 9.87402 11.9961 10
      vertex 4.66699 20.3115 10
    endloop
  endfacet
  facet normal -0 0 1
    outer loop
      vertex 10.375 11.9648 10
      vertex 10.6182 11.9023 10
      vertex 15 20.2998 10
    endloop
  endfacet
  facet normal 0 -0 1
    outer loop
      vertex 10.126 11.9961 10
      vertex 15 20.2998 10
      vertex 9.87402 11.9961 10
    endloop
  endfacet
  facet normal 0 -0 1
    outer loop
      vertex 10.375 11.9648 10
      vertex 15 20.2998 10
      vertex 10.126 11.9961 10
    endloop
  endfacet
  facet normal 0 0 1
    outer loop
      vertex 15 20.2998 10
      vertex 10.8516 11.8096 10
      vertex 11.0713 11.6885 10
    endloop
  endfacet
  facet normal 0 0 1
    outer loop
      vertex 11.458 11.3691 10
      vertex 11.6182 11.1758 10
      vertex 18.3818 11.1758 10
    endloop
  endfacet
  facet normal 0 0 1
    outer loop
      vertex 18.2471 10.9639 10
      vertex 11.7529 10.9639 10
      vertex 18.1406 10.7363 10
    endloop
  endfacet
  facet normal 0 0 1
    outer loop
      vertex 11.7529 10.9639 10
      vertex 11.8594 10.7363 10
      vertex 18.1406 10.7363 10
    endloop
  endfacet
  facet normal 0 0 1
    outer loop
      vertex 11.8594 10.7363 10
      vertex 11.9375 10.4971 10
      vertex 18.0625 10.4971 10
    endloop
  endfacet
  facet normal -0 0 1
    outer loop
      vertex 11.9375 10.4971 10
      vertex 18.0156 10.251 10
      vertex 18.0625 10.4971 10
    endloop
  endfacet
  facet normal -0 0 1
    outer loop
      vertex 11.9844 10.251 10
      vertex 18 10 10
      vertex 18.0156 10.251 10
    endloop
  endfacet
  facet normal 0 -0 1
    outer loop
      vertex 12 10 10
      vertex 18 10 10
      vertex 11.9844 10.251 10
    endloop
  endfacet
  facet normal 0 0 1
    outer loop
      vertex 11.9844 9.74902 10
      vertex 18.0156 9.74902 10
      vertex 18 10 10
    endloop
  endfacet
  facet normal 0 0 1
    outer loop
      vertex 11.9375 9.50293 10
      vertex 18.0156 9.74902 10
      vertex 11.9844 9.74902 10
    endloop
  endfacet
  facet normal 0 0 1
    outer loop
      vertex 11.8594 9.26367 10
      vertex 18.0625 9.50293 10
      vertex 11.9375 9.50293 10
    endloop
  endfacet
  facet normal 0 0 1
    outer loop
      vertex 18.1406 9.26367 10
      vertex 18.0625 9.50293 10
      vertex 11.8594 9.26367 10
    endloop
  endfacet
  facet normal 0 0 1
    outer loop
      vertex 18.2471 9.03613 10
      vertex 18.1406 9.26367 10
      vertex 11.7529 9.03613 10
    endloop
  endfacet
  facet normal 0 0 1
    outer loop
      vertex 18.2471 9.03613 10
      vertex 11.7529 9.03613 10
      vertex 11.6182 8.82422 10
    endloop
  endfacet
  facet normal 0 0 1
    outer loop
      vertex 18.3818 8.82422 10
      vertex 11.6182 8.82422 10
      vertex 11.458 8.63086 10
    endloop
  endfacet
  facet normal 0 0 1
    outer loop
      vertex 18.542 8.63086 10
      vertex 11.458 8.63086 10
      vertex 11.2744 8.45898 10
    endloop
  endfacet
  facet normal 0 0 1
    outer loop
      vertex 18.542 8.63086 10
      vertex 11.2744 8.45898 10
      vertex 18.7256 8.45898 10
    endloop
  endfacet
  facet normal 0 0 1
    outer loop
      vertex 18.7256 8.45898 10
      vertex 11.0713 8.31152 10
      vertex 18.9287 8.31152 10
    endloop
  endfacet
  facet normal -0 0 1
    outer loop
      vertex 11.0713 8.31152 10
      vertex 10.8516 8.19043 10
      vertex 18.9287 8.31152 10
    endloop
  endfacet
  facet normal -0 0 1
    outer loop
      vertex 10.8516 8.19043 10
      vertex 10.6182 8.09766 10
      vertex 19.1484 8.19043 10
    endloop
  endfacet
  facet normal -0 0 1
    outer loop
      vertex 10.6182 8.09766 10
      vertex 0 0 10
      vertex 19.3818 8.09766 10
    endloop
  endfacet
  facet normal -0 0 1
    outer loop
      vertex 10.375 8.03516 10
      vertex 0 0 10
      vertex 10.6182 8.09766 10
    endloop
  endfacet
  facet normal -0 0 1
    outer loop
      vertex 10.126 8.00391 10
      vertex 0 0 10
      vertex 10.375 8.03516 10
    endloop
  endfacet
  facet normal 0.998049 0.0624379 0
    outer loop
      vertex 29.9609 15.9473 0
      vertex 30 15.3223 10
      vertex 30 15.3223 0
    endloop
  endfacet
  facet normal 0.998049 0.0624379 -0
    outer loop
      vertex 29.9609 15.9473 0
      vertex 29.9609 15.9473 10
      vertex 30 15.3223 10
    endloop
  endfacet
  facet normal 0.982362 0.186987 0
    outer loop
      vertex 29.8438 16.5625 0
      vertex 29.9609 15.9473 10
      vertex 29.9609 15.9473 0
    endloop
  endfacet
  facet normal 0.982362 0.186987 -0
    outer loop
      vertex 29.8438 16.5625 0
      vertex 29.8438 16.5625 10
      vertex 29.9609 15.9473 10
    endloop
  endfacet
  facet normal 0.951129 0.308794 0
    outer loop
      vertex 29.6504 17.1582 0
      vertex 29.8438 16.5625 10
      vertex 29.8438 16.5625 0
    endloop
  endfacet
  facet normal 0.951129 0.308794 -0
    outer loop
      vertex 29.6504 17.1582 0
      vertex 29.6504 17.1582 10
      vertex 29.8438 16.5625 10
    endloop
  endfacet
  facet normal 0.905685 0.423951 0
    outer loop
      vertex 29.3848 17.7256 0
      vertex 29.6504 17.1582 10
      vertex 29.6504 17.1582 0
    endloop
  endfacet
  facet normal 0.905685 0.423951 -0
    outer loop
      vertex 29.3848 17.7256 0
      vertex 29.3848 17.7256 10
      vertex 29.6504 17.1582 10
    endloop
  endfacet
  facet normal 0.84498 0.534798 0
    outer loop
      vertex 29.0498 18.2549 0
      vertex 29.3848 17.7256 10
      vertex 29.3848 17.7256 0
    endloop
  endfacet
  facet normal 0.84498 0.534798 -0
    outer loop
      vertex 29.0498 18.2549 0
      vertex 29.0498 18.2549 10
      vertex 29.3848 17.7256 10
    endloop
  endfacet
  facet normal 0.771691 0.635998 0
    outer loop
      vertex 28.6514 18.7383 0
      vertex 29.0498 18.2549 10
      vertex 29.0498 18.2549 0
    endloop
  endfacet
  facet normal 0.771691 0.635998 -0
    outer loop
      vertex 28.6514 18.7383 0
      vertex 28.6514 18.7383 10
      vertex 29.0498 18.2549 10
    endloop
  endfacet
  facet normal 0.685728 0.727858 0
    outer loop
      vertex 28.1953 19.168 0
      vertex 28.6514 18.7383 10
      vertex 28.6514 18.7383 0
    endloop
  endfacet
  facet normal 0.685728 0.727858 -0
    outer loop
      vertex 28.1953 19.168 0
      vertex 28.1953 19.168 10
      vertex 28.6514 18.7383 10
    endloop
  endfacet
  facet normal 0.589472 0.807789 0
    outer loop
      vertex 27.6895 19.5371 0
      vertex 28.1953 19.168 10
      vertex 28.1953 19.168 0
    endloop
  endfacet
  facet normal 0.589472 0.807789 -0
    outer loop
      vertex 27.6895 19.5371 0
      vertex 27.6895 19.5371 10
      vertex 28.1953 19.168 10
    endloop
  endfacet
  facet normal 0.484802 0.874624 0
    outer loop
      vertex 27.1416 19.8408 0
      vertex 27.6895 19.5371 10
      vertex 27.6895 19.5371 0
    endloop
  endfacet
  facet normal 0.484802 0.874624 -0
    outer loop
      vertex 27.1416 19.8408 0
      vertex 27.1416 19.8408 10
      vertex 27.6895 19.5371 10
    endloop
  endfacet
  facet normal 0.369601 0.929191 0
    outer loop
      vertex 26.5596 20.0723 0
      vertex 27.1416 19.8408 10
      vertex 27.1416 19.8408 0
    endloop
  endfacet
  facet normal 0.369601 0.929191 -0
    outer loop
      vertex 26.5596 20.0723 0
      vertex 26.5596 20.0723 10
      vertex 27.1416 19.8408 10
    endloop
  endfacet
  facet normal 0.252786 0.967522 0
    outer loop
      vertex 25.9541 20.2305 0
      vertex 26.5596 20.0723 10
      vertex 26.5596 20.0723 0
    endloop
  endfacet
  facet normal 0.252786 0.967522 -0
    outer loop
      vertex 25.9541 20.2305 0
      vertex 25.9541 20.2305 10
      vertex 26.5596 20.0723 10
    endloop
  endfacet
  facet normal 0.129319 0.991603 0
    outer loop
      vertex 25.333 20.3115 0
      vertex 25.9541 20.2305 10
      vertex 25.9541 20.2305 0
    endloop
  endfacet
  facet normal 0.129319 0.991603 -0
    outer loop
      vertex 25.333 20.3115 0
      vertex 25.333 20.3115 10
      vertex 25.9541 20.2305 10
    endloop
  endfacet
  facet normal -0.00113229 0.999999 0
    outer loop
      vertex 15 20.2998 0
      vertex 25.333 20.3115 10
      vertex 25.333 20.3115 0
    endloop
  endfacet
  facet normal -0.00113229 0.999999 0
    outer loop
      vertex 15 20.2998 0
      vertex 15 20.2998 10
      vertex 25.333 20.3115 10
    endloop
  endfacet
  facet normal 0.00113229 0.999999 0
    outer loop
      vertex 4.66699 20.3115 0
      vertex 15 20.2998 10
      vertex 15 20.2998 0
    endloop
  endfacet
  facet normal 0.00113229 0.999999 -0
    outer loop
      vertex 4.66699 20.3115 0
      vertex 4.66699 20.3115 10
      vertex 15 20.2998 10
    endloop
  endfacet
  facet normal -0.129321 0.991603 0
    outer loop
      vertex 4.0459 20.2305 0
      vertex 4.66699 20.3115 10
      vertex 4.66699 20.3115 0
    endloop
  endfacet
  facet normal -0.129321 0.991603 0
    outer loop
      vertex 4.0459 20.2305 0
      vertex 4.0459 20.2305 10
      vertex 4.66699 20.3115 10
    endloop
  endfacet
  facet normal -0.252798 0.967519 0
    outer loop
      vertex 3.44043 20.0723 0
      vertex 4.0459 20.2305 10
      vertex 4.0459 20.2305 0
    endloop
  endfacet
  facet normal -0.252798 0.967519 0
    outer loop
      vertex 3.44043 20.0723 0
      vertex 3.44043 20.0723 10
      vertex 4.0459 20.2305 10
    endloop
  endfacet
  facet normal -0.369584 0.929197 0
    outer loop
      vertex 2.8584 19.8408 0
      vertex 3.44043 20.0723 10
      vertex 3.44043 20.0723 0
    endloop
  endfacet
  facet normal -0.369584 0.929197 0
    outer loop
      vertex 2.8584 19.8408 0
      vertex 2.8584 19.8408 10
      vertex 3.44043 20.0723 10
    endloop
  endfacet
  facet normal -0.484836 0.874605 0
    outer loop
      vertex 2.31055 19.5371 0
      vertex 2.8584 19.8408 10
      vertex 2.8584 19.8408 0
    endloop
  endfacet
  facet normal -0.484836 0.874605 0
    outer loop
      vertex 2.31055 19.5371 0
      vertex 2.31055 19.5371 10
      vertex 2.8584 19.8408 10
    endloop
  endfacet
  facet normal -0.589426 0.807822 0
    outer loop
      vertex 1.80469 19.168 0
      vertex 2.31055 19.5371 10
      vertex 2.31055 19.5371 0
    endloop
  endfacet
  facet normal -0.589426 0.807822 0
    outer loop
      vertex 1.80469 19.168 0
      vertex 1.80469 19.168 10
      vertex 2.31055 19.5371 10
    endloop
  endfacet
  facet normal -0.68576 0.727828 0
    outer loop
      vertex 1.34863 18.7383 0
      vertex 1.80469 19.168 10
      vertex 1.80469 19.168 0
    endloop
  endfacet
  facet normal -0.68576 0.727828 0
    outer loop
      vertex 1.34863 18.7383 0
      vertex 1.34863 18.7383 10
      vertex 1.80469 19.168 10
    endloop
  endfacet
  facet normal -0.771663 0.636031 0
    outer loop
      vertex 0.950195 18.2549 0
      vertex 1.34863 18.7383 10
      vertex 1.34863 18.7383 0
    endloop
  endfacet
  facet normal -0.771663 0.636031 0
    outer loop
      vertex 0.950195 18.2549 0
      vertex 0.950195 18.2549 10
      vertex 1.34863 18.7383 10
    endloop
  endfacet
  facet normal -0.845008 0.534753 0
    outer loop
      vertex 0.615234 17.7256 0
      vertex 0.950195 18.2549 10
      vertex 0.950195 18.2549 0
    endloop
  endfacet
  facet normal -0.845008 0.534753 0
    outer loop
      vertex 0.615234 17.7256 0
      vertex 0.615234 17.7256 10
      vertex 0.950195 18.2549 10
    endloop
  endfacet
  facet normal -0.90567 0.423984 0
    outer loop
      vertex 0.349609 17.1582 0
      vertex 0.615234 17.7256 10
      vertex 0.615234 17.7256 0
    endloop
  endfacet
  facet normal -0.90567 0.423984 0
    outer loop
      vertex 0.349609 17.1582 0
      vertex 0.349609 17.1582 10
      vertex 0.615234 17.7256 10
    endloop
  endfacet
  facet normal -0.951148 0.308734 0
    outer loop
      vertex 0.15625 16.5625 0
      vertex 0.349609 17.1582 10
      vertex 0.349609 17.1582 0
    endloop
  endfacet
  facet normal -0.951148 0.308734 0
    outer loop
      vertex 0.15625 16.5625 0
      vertex 0.15625 16.5625 10
      vertex 0.349609 17.1582 10
    endloop
  endfacet
  facet normal -0.982337 0.187122 0
    outer loop
      vertex 0.0390625 15.9473 0
      vertex 0.15625 16.5625 10
      vertex 0.15625 16.5625 0
    endloop
  endfacet
  facet normal -0.982337 0.187122 0
    outer loop
      vertex 0.0390625 15.9473 0
      vertex 0.0390625 15.9473 10
      vertex 0.15625 16.5625 10
    endloop
  endfacet
  facet normal -0.998053 0.0623783 0
    outer loop
      vertex 0 15.3223 0
      vertex 0.0390625 15.9473 10
      vertex 0.0390625 15.9473 0
    endloop
  endfacet
  facet normal -0.998053 0.0623783 0
    outer loop
      vertex 0 15.3223 0
      vertex 0 15.3223 10
      vertex 0.0390625 15.9473 10
    endloop
  endfacet
  facet normal -1 0 0
    outer loop
      vertex 0 0 0
      vertex 0 15.3223 10
      vertex 0 15.3223 0
    endloop
  endfacet
  facet normal -1 0 0
    outer loop
      vertex 0 0 0
      vertex 0 0 10
      vertex 0 15.3223 10
    endloop
  endfacet
  facet normal 0 -1 0
    outer loop
      vertex 30 0 0
      vertex 0 0 10
      vertex 0 0 0
    endloop
  endfacet
  facet normal 0 -1 0
    outer loop
      vertex 30 0 0
      vertex 30 0 10
      vertex 0 0 10
    endloop
  endfacet
  facet normal 1 0 0
    outer loop
      vertex 30 15.3223 0
      vertex 30 0 10
      vertex 30 0 0
    endloop
  endfacet
  facet normal 1 0 -0
    outer loop
      vertex 30 15.3223 0
      vertex 30 15.3223 10
      vertex 30 0 10
    endloop
  endfacet
  facet normal 0.124525 0.992216 -0
    outer loop
      vertex 19.625 8.03516 0
      vertex 19.625 8.03516 10
      vertex 19.874 8.00391 0
    endloop
  endfacet
  facet normal 0.124525 0.992216 0
    outer loop
      vertex 19.874 8.00391 10
      vertex 19.874 8.00391 0
      vertex 19.625 8.03516 10
    endloop
  endfacet
  facet normal 0.248902 0.968529 -0
    outer loop
      vertex 19.3818 8.09766 0
      vertex 19.3818 8.09766 10
      vertex 19.625 8.03516 0
    endloop
  endfacet
  facet normal 0.248902 0.968529 0
    outer loop
      vertex 19.625 8.03516 10
      vertex 19.625 8.03516 0
      vertex 19.3818 8.09766 10
    endloop
  endfacet
  facet normal 0.369365 0.929285 -0
    outer loop
      vertex 19.1484 8.19043 0
      vertex 19.1484 8.19043 10
      vertex 19.3818 8.09766 0
    endloop
  endfacet
  facet normal 0.369365 0.929285 0
    outer loop
      vertex 19.3818 8.09766 10
      vertex 19.3818 8.09766 0
      vertex 19.1484 8.19043 10
    endloop
  endfacet
  facet normal 0.482699 0.875786 -0
    outer loop
      vertex 18.9287 8.31152 0
      vertex 18.9287 8.31152 10
      vertex 19.1484 8.19043 0
    endloop
  endfacet
  facet normal 0.482699 0.875786 0
    outer loop
      vertex 19.1484 8.19043 10
      vertex 19.1484 8.19043 0
      vertex 18.9287 8.31152 10
    endloop
  endfacet
  facet normal 0.587522 0.809208 -0
    outer loop
      vertex 18.7256 8.45898 0
      vertex 18.7256 8.45898 10
      vertex 18.9287 8.31152 0
    endloop
  endfacet
  facet normal 0.587522 0.809208 0
    outer loop
      vertex 18.9287 8.31152 10
      vertex 18.9287 8.31152 0
      vertex 18.7256 8.45898 10
    endloop
  endfacet
  facet normal 0.683422 0.730023 -0
    outer loop
      vertex 18.542 8.63086 0
      vertex 18.542 8.63086 10
      vertex 18.7256 8.45898 0
    endloop
  endfacet
  facet normal 0.683422 0.730023 0
    outer loop
      vertex 18.7256 8.45898 10
      vertex 18.7256 8.45898 0
      vertex 18.542 8.63086 10
    endloop
  endfacet
  facet normal 0.770046 0.637988 -0
    outer loop
      vertex 18.3818 8.82422 0
      vertex 18.3818 8.82422 10
      vertex 18.542 8.63086 0
    endloop
  endfacet
  facet normal 0.770046 0.637988 0
    outer loop
      vertex 18.542 8.63086 10
      vertex 18.542 8.63086 0
      vertex 18.3818 8.82422 10
    endloop
  endfacet
  facet normal 0.843935 0.536445 -0
    outer loop
      vertex 18.2471 9.03613 0
      vertex 18.2471 9.03613 10
      vertex 18.3818 8.82422 0
    endloop
  endfacet
  facet normal 0.843935 0.536445 0
    outer loop
      vertex 18.3818 8.82422 10
      vertex 18.3818 8.82422 0
      vertex 18.2471 9.03613 10
    endloop
  endfacet
  facet normal 0.905703 0.423914 -0
    outer loop
      vertex 18.1406 9.26367 0
      vertex 18.1406 9.26367 10
      vertex 18.2471 9.03613 0
    endloop
  endfacet
  facet normal 0.905703 0.423914 0
    outer loop
      vertex 18.2471 9.03613 10
      vertex 18.2471 9.03613 0
      vertex 18.1406 9.26367 10
    endloop
  endfacet
  facet normal 0.950636 0.310309 -0
    outer loop
      vertex 18.0625 9.50293 0
      vertex 18.0625 9.50293 10
      vertex 18.1406 9.26367 0
    endloop
  endfacet
  facet normal 0.950636 0.310309 0
    outer loop
      vertex 18.1406 9.26367 10
      vertex 18.1406 9.26367 0
      vertex 18.0625 9.50293 10
    endloop
  endfacet
  facet normal 0.98232 0.187211 -0
    outer loop
      vertex 18.0156 9.74902 0
      vertex 18.0156 9.74902 10
      vertex 18.0625 9.50293 0
    endloop
  endfacet
  facet normal 0.98232 0.187211 0
    outer loop
      vertex 18.0625 9.50293 10
      vertex 18.0625 9.50293 0
      vertex 18.0156 9.74902 10
    endloop
  endfacet
  facet normal 0.998074 0.0620366 -0
    outer loop
      vertex 18 10 0
      vertex 18 10 10
      vertex 18.0156 9.74902 0
    endloop
  endfacet
  facet normal 0.998074 0.0620366 0
    outer loop
      vertex 18.0156 9.74902 10
      vertex 18.0156 9.74902 0
      vertex 18 10 10
    endloop
  endfacet
  facet normal 0.998074 -0.0620317 0
    outer loop
      vertex 18.0156 10.251 0
      vertex 18.0156 10.251 10
      vertex 18 10 0
    endloop
  endfacet
  facet normal 0.998074 -0.0620317 0
    outer loop
      vertex 18 10 10
      vertex 18 10 0
      vertex 18.0156 10.251 10
    endloop
  endfacet
  facet normal 0.982321 -0.187204 0
    outer loop
      vertex 18.0625 10.4971 0
      vertex 18.0625 10.4971 10
      vertex 18.0156 10.251 0
    endloop
  endfacet
  facet normal 0.982321 -0.187204 0
    outer loop
      vertex 18.0156 10.251 10
      vertex 18.0156 10.251 0
      vertex 18.0625 10.4971 10
    endloop
  endfacet
  facet normal 0.950613 -0.31038 0
    outer loop
      vertex 18.1406 10.7363 0
      vertex 18.1406 10.7363 10
      vertex 18.0625 10.4971 0
    endloop
  endfacet
  facet normal 0.950613 -0.31038 0
    outer loop
      vertex 18.0625 10.4971 10
      vertex 18.0625 10.4971 0
      vertex 18.1406 10.7363 10
    endloop
  endfacet
  facet normal 0.905745 -0.423822 0
    outer loop
      vertex 18.2471 10.9639 0
      vertex 18.2471 10.9639 10
      vertex 18.1406 10.7363 0
    endloop
  endfacet
  facet normal 0.905745 -0.423822 0
    outer loop
      vertex 18.1406 10.7363 10
      vertex 18.1406 10.7363 0
      vertex 18.2471 10.9639 10
    endloop
  endfacet
  facet normal 0.843924 -0.536463 0
    outer loop
      vertex 18.3818 11.1758 0
      vertex 18.3818 11.1758 10
      vertex 18.2471 10.9639 0
    endloop
  endfacet
  facet normal 0.843924 -0.536463 0
    outer loop
      vertex 18.2471 10.9639 10
      vertex 18.2471 10.9639 0
      vertex 18.3818 11.1758 10
    endloop
  endfacet
  facet normal 0.769949 -0.638106 0
    outer loop
      vertex 18.542 11.3691 0
      vertex 18.542 11.3691 10
      vertex 18.3818 11.1758 0
    endloop
  endfacet
  facet normal 0.769949 -0.638106 0
    outer loop
      vertex 18.3818 11.1758 10
      vertex 18.3818 11.1758 0
      vertex 18.542 11.3691 10
    endloop
  endfacet
  facet normal 0.683465 -0.729983 0
    outer loop
      vertex 18.7256 11.541 0
      vertex 18.7256 11.541 10
      vertex 18.542 11.3691 0
    endloop
  endfacet
  facet normal 0.683465 -0.729983 0
    outer loop
      vertex 18.542 11.3691 10
      vertex 18.542 11.3691 0
      vertex 18.7256 11.541 10
    endloop
  endfacet
  facet normal 0.587627 -0.809132 0
    outer loop
      vertex 18.9287 11.6885 0
      vertex 18.9287 11.6885 10
      vertex 18.7256 11.541 0
    endloop
  endfacet
  facet normal 0.587627 -0.809132 0
    outer loop
      vertex 18.7256 11.541 10
      vertex 18.7256 11.541 0
      vertex 18.9287 11.6885 10
    endloop
  endfacet
  facet normal 0.48273 -0.875769 0
    outer loop
      vertex 19.1484 11.8096 0
      vertex 19.1484 11.8096 10
      vertex 18.9287 11.6885 0
    endloop
  endfacet
  facet normal 0.48273 -0.875769 0
    outer loop
      vertex 18.9287 11.6885 10
      vertex 18.9287 11.6885 0
      vertex 19.1484 11.8096 10
    endloop
  endfacet
  facet normal 0.369124 -0.92938 0
    outer loop
      vertex 19.3818 11.9023 0
      vertex 19.3818 11.9023 10
      vertex 19.1484 11.8096 0
    endloop
  endfacet
  facet normal 0.369124 -0.92938 0
    outer loop
      vertex 19.1484 11.8096 10
      vertex 19.1484 11.8096 0
      vertex 19.3818 11.9023 10
    endloop
  endfacet
  facet normal 0.248902 -0.968529 0
    outer loop
      vertex 19.625 11.9648 0
      vertex 19.625 11.9648 10
      vertex 19.3818 11.9023 0
    endloop
  endfacet
  facet normal 0.248902 -0.968529 0
    outer loop
      vertex 19.3818 11.9023 10
      vertex 19.3818 11.9023 0
      vertex 19.625 11.9648 10
    endloop
  endfacet
  facet normal 0.124721 -0.992192 0
    outer loop
      vertex 19.874 11.9961 0
      vertex 19.874 11.9961 10
      vertex 19.625 11.9648 0
    endloop
  endfacet
  facet normal 0.124721 -0.992192 0
    outer loop
      vertex 19.625 11.9648 10
      vertex 19.625 11.9648 0
      vertex 19.874 11.9961 10
    endloop
  endfacet
  facet normal 0 -1 0
    outer loop
      vertex 20.126 11.9961 0
      vertex 20.126 11.9961 10
      vertex 19.874 11.9961 0
    endloop
  endfacet
  facet normal 0 -1 0
    outer loop
      vertex 19.874 11.9961 10
      vertex 19.874 11.9961 0
      vertex 20.126 11.9961 10
    endloop
  endfacet
  facet normal -0.124721 -0.992192 0
    outer loop
      vertex 20.375 11.9648 0
      vertex 20.375 11.9648 10
      vertex 20.126 11.9961 0
    endloop
  endfacet
  facet normal -0.124721 -0.992192 -0
    outer loop
      vertex 20.126 11.9961 10
      vertex 20.126 11.9961 0
      vertex 20.375 11.9648 10
    endloop
  endfacet
  facet normal -0.248902 -0.968529 0
    outer loop
      vertex 20.6182 11.9023 0
      vertex 20.6182 11.9023 10
      vertex 20.375 11.9648 0
    endloop
  endfacet
  facet normal -0.248902 -0.968529 -0
    outer loop
      vertex 20.375 11.9648 10
      vertex 20.375 11.9648 0
      vertex 20.6182 11.9023 10
    endloop
  endfacet
  facet normal -0.369124 -0.92938 0
    outer loop
      vertex 20.8516 11.8096 0
      vertex 20.8516 11.8096 10
      vertex 20.6182 11.9023 0
    endloop
  endfacet
  facet normal -0.369124 -0.92938 -0
    outer loop
      vertex 20.6182 11.9023 10
      vertex 20.6182 11.9023 0
      vertex 20.8516 11.8096 10
    endloop
  endfacet
  facet normal -0.48273 -0.875769 0
    outer loop
      vertex 21.0713 11.6885 0
      vertex 21.0713 11.6885 10
      vertex 20.8516 11.8096 0
    endloop
  endfacet
  facet normal -0.48273 -0.875769 -0
    outer loop
      vertex 20.8516 11.8096 10
      vertex 20.8516 11.8096 0
      vertex 21.0713 11.6885 10
    endloop
  endfacet
  facet normal -0.587627 -0.809132 0
    outer loop
      vertex 21.2744 11.541 0
      vertex 21.2744 11.541 10
      vertex 21.0713 11.6885 0
    endloop
  endfacet
  facet normal -0.587627 -0.809132 -0
    outer loop
      vertex 21.0713 11.6885 10
      vertex 21.0713 11.6885 0
      vertex 21.2744 11.541 10
    endloop
  endfacet
  facet normal -0.683465 -0.729983 0
    outer loop
      vertex 21.458 11.3691 0
      vertex 21.458 11.3691 10
      vertex 21.2744 11.541 0
    endloop
  endfacet
  facet normal -0.683465 -0.729983 -0
    outer loop
      vertex 21.2744 11.541 10
      vertex 21.2744 11.541 0
      vertex 21.458 11.3691 10
    endloop
  endfacet
  facet normal -0.769949 -0.638106 0
    outer loop
      vertex 21.6182 11.1758 0
      vertex 21.6182 11.1758 10
      vertex 21.458 11.3691 0
    endloop
  endfacet
  facet normal -0.769949 -0.638106 -0
    outer loop
      vertex 21.458 11.3691 10
      vertex 21.458 11.3691 0
      vertex 21.6182 11.1758 10
    endloop
  endfacet
  facet normal -0.843924 -0.536463 0
    outer loop
      vertex 21.7529 10.9639 0
      vertex 21.7529 10.9639 10
      vertex 21.6182 11.1758 0
    endloop
  endfacet
  facet normal -0.843924 -0.536463 -0
    outer loop
      vertex 21.6182 11.1758 10
      vertex 21.6182 11.1758 0
      vertex 21.7529 10.9639 10
    endloop
  endfacet
  facet normal -0.905745 -0.423822 0
    outer loop
      vertex 21.8594 10.7363 0
      vertex 21.8594 10.7363 10
      vertex 21.7529 10.9639 0
    endloop
  endfacet
  facet normal -0.905745 -0.423822 -0
    outer loop
      vertex 21.7529 10.9639 10
      vertex 21.7529 10.9639 0
      vertex 21.8594 10.7363 10
    endloop
  endfacet
  facet normal -0.950613 -0.31038 0
    outer loop
      vertex 21.9375 10.4971 0
      vertex 21.9375 10.4971 10
      vertex 21.8594 10.7363 0
    endloop
  endfacet
  facet normal -0.950613 -0.31038 -0
    outer loop
      vertex 21.8594 10.7363 10
      vertex 21.8594 10.7363 0
      vertex 21.9375 10.4971 10
    endloop
  endfacet
  facet normal -0.982321 -0.187204 0
    outer loop
      vertex 21.9844 10.251 0
      vertex 21.9844 10.251 10
      vertex 21.9375 10.4971 0
    endloop
  endfacet
  facet normal -0.982321 -0.187204 -0
    outer loop
      vertex 21.9375 10.4971 10
      vertex 21.9375 10.4971 0
      vertex 21.9844 10.251 10
    endloop
  endfacet
  facet normal -0.998074 -0.0620317 0
    outer loop
      vertex 22 10 0
      vertex 22 10 10
      vertex 21.9844 10.251 0
    endloop
  endfacet
  facet normal -0.998074 -0.0620317 -0
    outer loop
      vertex 21.9844 10.251 10
      vertex 21.9844 10.251 0
      vertex 22 10 10
    endloop
  endfacet
  facet normal -0.998074 0.0620366 0
    outer loop
      vertex 21.9844 9.74902 0
      vertex 21.9844 9.74902 10
      vertex 22 10 0
    endloop
  endfacet
  facet normal -0.998074 0.0620366 0
    outer loop
      vertex 22 10 10
      vertex 22 10 0
      vertex 21.9844 9.74902 10
    endloop
  endfacet
  facet normal -0.98232 0.187211 0
    outer loop
      vertex 21.9375 9.50293 0
      vertex 21.9375 9.50293 10
      vertex 21.9844 9.74902 0
    endloop
  endfacet
  facet normal -0.98232 0.187211 0
    outer loop
      vertex 21.9844 9.74902 10
      vertex 21.9844 9.74902 0
      vertex 21.9375 9.50293 10
    endloop
  endfacet
  facet normal -0.950636 0.310309 0
    outer loop
      vertex 21.8594 9.26367 0
      vertex 21.8594 9.26367 10
      vertex 21.9375 9.50293 0
    endloop
  endfacet
  facet normal -0.950636 0.310309 0
    outer loop
      vertex 21.9375 9.50293 10
      vertex 21.9375 9.50293 0
      vertex 21.8594 9.26367 10
    endloop
  endfacet
  facet normal -0.905703 0.423914 0
    outer loop
      vertex 21.7529 9.03613 0
      vertex 21.7529 9.03613 10
      vertex 21.8594 9.26367 0
    endloop
  endfacet
  facet normal -0.905703 0.423914 0
    outer loop
      vertex 21.8594 9.26367 10
      vertex 21.8594 9.26367 0
      vertex 21.7529 9.03613 10
    endloop
  endfacet
  facet normal -0.843935 0.536445 0
    outer loop
      vertex 21.6182 8.82422 0
      vertex 21.6182 8.82422 10
      vertex 21.7529 9.03613 0
    endloop
  endfacet
  facet normal -0.843935 0.536445 0
    outer loop
      vertex 21.7529 9.03613 10
      vertex 21.7529 9.03613 0
      vertex 21.6182 8.82422 10
    endloop
  endfacet
  facet normal -0.770046 0.637988 0
    outer loop
      vertex 21.458 8.63086 0
      vertex 21.458 8.63086 10
      vertex 21.6182 8.82422 0
    endloop
  endfacet
  facet normal -0.770046 0.637988 0
    outer loop
      vertex 21.6182 8.82422 10
      vertex 21.6182 8.82422 0
      vertex 21.458 8.63086 10
    endloop
  endfacet
  facet normal -0.683422 0.730023 0
    outer loop
      vertex 21.2744 8.45898 0
      vertex 21.2744 8.45898 10
      vertex 21.458 8.63086 0
    endloop
  endfacet
  facet normal -0.683422 0.730023 0
    outer loop
      vertex 21.458 8.63086 10
      vertex 21.458 8.63086 0
      vertex 21.2744 8.45898 10
    endloop
  endfacet
  facet normal -0.587522 0.809208 0
    outer loop
      vertex 21.0713 8.31152 0
      vertex 21.0713 8.31152 10
      vertex 21.2744 8.45898 0
    endloop
  endfacet
  facet normal -0.587522 0.809208 0
    outer loop
      vertex 21.2744 8.45898 10
      vertex 21.2744 8.45898 0
      vertex 21.0713 8.31152 10
    endloop
  endfacet
  facet normal -0.482699 0.875786 0
    outer loop
      vertex 20.8516 8.19043 0
      vertex 20.8516 8.19043 10
      vertex 21.0713 8.31152 0
    endloop
  endfacet
  facet normal -0.482699 0.875786 0
    outer loop
      vertex 21.0713 8.31152 10
      vertex 21.0713 8.31152 0
      vertex 20.8516 8.19043 10
    endloop
  endfacet
  facet normal -0.369365 0.929285 0
    outer loop
      vertex 20.6182 8.09766 0
      vertex 20.6182 8.09766 10
      vertex 20.8516 8.19043 0
    endloop
  endfacet
  facet normal -0.369365 0.929285 0
    outer loop
      vertex 20.8516 8.19043 10
      vertex 20.8516 8.19043 0
      vertex 20.6182 8.09766 10
    endloop
  endfacet
  facet normal -0.248902 0.968529 0
    outer loop
      vertex 20.375 8.03516 0
      vertex 20.375 8.03516 10
      vertex 20.6182 8.09766 0
    endloop
  endfacet
  facet normal -0.248902 0.968529 0
    outer loop
      vertex 20.6182 8.09766 10
      vertex 20.6182 8.09766 0
      vertex 20.375 8.03516 10
    endloop
  endfacet
  facet normal -0.124525 0.992216 0
    outer loop
      vertex 20.126 8.00391 0
      vertex 20.126 8.00391 10
      vertex 20.375 8.03516 0
    endloop
  endfacet
  facet normal -0.124525 0.992216 0
    outer loop
      vertex 20.375 8.03516 10
      vertex 20.375 8.03516 0
      vertex 20.126 8.00391 10
    endloop
  endfacet
  facet normal 0 1 0
    outer loop
      vertex 19.874 8.00391 0
      vertex 19.874 8.00391 10
      vertex 20.126 8.00391 0
    endloop
  endfacet
  facet normal 0 1 0
    outer loop
      vertex 20.126 8.00391 10
      vertex 20.126 8.00391 0
      vertex 19.874 8.00391 10
    endloop
  endfacet
  facet normal 0.124515 0.992218 -0
    outer loop
      vertex 9.625 8.03516 0
      vertex 9.625 8.03516 10
      vertex 9.87402 8.00391 0
    endloop
  endfacet
  facet normal 0.124515 0.992218 0
    outer loop
      vertex 9.87402 8.00391 10
      vertex 9.87402 8.00391 0
      vertex 9.625 8.03516 10
    endloop
  endfacet
  facet normal 0.248941 0.968519 -0
    outer loop
      vertex 9.38184 8.09766 0
      vertex 9.38184 8.09766 10
      vertex 9.625 8.03516 0
    endloop
  endfacet
  facet normal 0.248941 0.968519 0
    outer loop
      vertex 9.625 8.03516 10
      vertex 9.625 8.03516 0
      vertex 9.38184 8.09766 10
    endloop
  endfacet
  facet normal 0.369365 0.929285 -0
    outer loop
      vertex 9.14844 8.19043 0
      vertex 9.14844 8.19043 10
      vertex 9.38184 8.09766 0
    endloop
  endfacet
  facet normal 0.369365 0.929285 0
    outer loop
      vertex 9.38184 8.09766 10
      vertex 9.38184 8.09766 0
      vertex 9.14844 8.19043 10
    endloop
  endfacet
  facet normal 0.482648 0.875814 -0
    outer loop
      vertex 8.92871 8.31152 0
      vertex 8.92871 8.31152 10
      vertex 9.14844 8.19043 0
    endloop
  endfacet
  facet normal 0.482648 0.875814 0
    outer loop
      vertex 9.14844 8.19043 10
      vertex 9.14844 8.19043 0
      vertex 8.92871 8.31152 10
    endloop
  endfacet
  facet normal 0.587485 0.809235 -0
    outer loop
      vertex 8.72559 8.45898 0
      vertex 8.72559 8.45898 10
      vertex 8.92871 8.31152 0
    endloop
  endfacet
  facet normal 0.587485 0.809235 0
    outer loop
      vertex 8.92871 8.31152 10
      vertex 8.92871 8.31152 0
      vertex 8.72559 8.45898 10
    endloop
  endfacet
  facet normal 0.683422 0.730023 -0
    outer loop
      vertex 8.54199 8.63086 0
      vertex 8.54199 8.63086 10
      vertex 8.72559 8.45898 0
    endloop
  endfacet
  facet normal 0.683422 0.730023 0
    outer loop
      vertex 8.72559 8.45898 10
      vertex 8.72559 8.45898 0
      vertex 8.54199 8.63086 10
    endloop
  endfacet
  facet normal 0.770144 0.63787 -0
    outer loop
      vertex 8.38184 8.82422 0
      vertex 8.38184 8.82422 10
      vertex 8.54199 8.63086 0
    endloop
  endfacet
  facet normal 0.770144 0.63787 0
    outer loop
      vertex 8.54199 8.63086 10
      vertex 8.54199 8.63086 0
      vertex 8.38184 8.82422 10
    endloop
  endfacet
  facet normal 0.843809 0.536644 -0
    outer loop
      vertex 8.24707 9.03613 0
      vertex 8.24707 9.03613 10
      vertex 8.38184 8.82422 0
    endloop
  endfacet
  facet normal 0.843809 0.536644 0
    outer loop
      vertex 8.38184 8.82422 10
      vertex 8.38184 8.82422 0
      vertex 8.24707 9.03613 10
    endloop
  endfacet
  facet normal 0.905779 0.42375 -0
    outer loop
      vertex 8.14062 9.26367 0
      vertex 8.14062 9.26367 10
      vertex 8.24707 9.03613 0
    endloop
  endfacet
  facet normal 0.905779 0.42375 0
    outer loop
      vertex 8.24707 9.03613 10
      vertex 8.24707 9.03613 0
      vertex 8.14062 9.26367 10
    endloop
  endfacet
  facet normal 0.950612 0.310381 -0
    outer loop
      vertex 8.0625 9.50293 0
      vertex 8.0625 9.50293 10
      vertex 8.14062 9.26367 0
    endloop
  endfacet
  facet normal 0.950612 0.310381 0
    outer loop
      vertex 8.14062 9.26367 10
      vertex 8.14062 9.26367 0
      vertex 8.0625 9.50293 10
    endloop
  endfacet
  facet normal 0.982334 0.187134 -0
    outer loop
      vertex 8.01562 9.74902 0
      vertex 8.01562 9.74902 10
      vertex 8.0625 9.50293 0
    endloop
  endfacet
  facet normal 0.982334 0.187134 0
    outer loop
      vertex 8.0625 9.50293 10
      vertex 8.0625 9.50293 0
      vertex 8.01562 9.74902 10
    endloop
  endfacet
  facet normal 0.998069 0.0621159 -0
    outer loop
      vertex 8 10 0
      vertex 8 10 10
      vertex 8.01562 9.74902 0
    endloop
  endfacet
  facet normal 0.998069 0.0621159 0
    outer loop
      vertex 8.01562 9.74902 10
      vertex 8.01562 9.74902 0
      vertex 8 10 10
    endloop
  endfacet
  facet normal 0.998069 -0.0621109 0
    outer loop
      vertex 8.01562 10.251 0
      vertex 8.01562 10.251 10
      vertex 8 10 0
    endloop
  endfacet
  facet normal 0.998069 -0.0621109 0
    outer loop
      vertex 8 10 10
      vertex 8 10 0
      vertex 8.01562 10.251 10
    endloop
  endfacet
  facet normal 0.982336 -0.187127 0
    outer loop
      vertex 8.0625 10.4971 0
      vertex 8.0625 10.4971 10
      vertex 8.01562 10.251 0
    endloop
  endfacet
  facet normal 0.982336 -0.187127 0
    outer loop
      vertex 8.01562 10.251 10
      vertex 8.01562 10.251 0
      vertex 8.0625 10.4971 10
    endloop
  endfacet
  facet normal 0.950589 -0.310452 0
    outer loop
      vertex 8.14062 10.7363 0
      vertex 8.14062 10.7363 10
      vertex 8.0625 10.4971 0
    endloop
  endfacet
  facet normal 0.950589 -0.310452 0
    outer loop
      vertex 8.0625 10.4971 10
      vertex 8.0625 10.4971 0
      vertex 8.14062 10.7363 10
    endloop
  endfacet
  facet normal 0.905822 -0.423659 0
    outer loop
      vertex 8.24707 10.9639 0
      vertex 8.24707 10.9639 10
      vertex 8.14062 10.7363 0
    endloop
  endfacet
  facet normal 0.905822 -0.423659 0
    outer loop
      vertex 8.14062 10.7363 10
      vertex 8.14062 10.7363 0
      vertex 8.24707 10.9639 10
    endloop
  endfacet
  facet normal 0.843798 -0.536662 0
    outer loop
      vertex 8.38184 11.1758 0
      vertex 8.38184 11.1758 10
      vertex 8.24707 10.9639 0
    endloop
  endfacet
  facet normal 0.843798 -0.536662 0
    outer loop
      vertex 8.24707 10.9639 10
      vertex 8.24707 10.9639 0
      vertex 8.38184 11.1758 10
    endloop
  endfacet
  facet normal 0.770047 -0.637987 0
    outer loop
      vertex 8.54199 11.3691 0
      vertex 8.54199 11.3691 10
      vertex 8.38184 11.1758 0
    endloop
  endfacet
  facet normal 0.770047 -0.637987 0
    outer loop
      vertex 8.38184 11.1758 10
      vertex 8.38184 11.1758 0
      vertex 8.54199 11.3691 10
    endloop
  endfacet
  facet normal 0.683465 -0.729983 0
    outer loop
      vertex 8.72559 11.541 0
      vertex 8.72559 11.541 10
      vertex 8.54199 11.3691 0
    endloop
  endfacet
  facet normal 0.683465 -0.729983 0
    outer loop
      vertex 8.54199 11.3691 10
      vertex 8.54199 11.3691 0
      vertex 8.72559 11.541 10
    endloop
  endfacet
  facet normal 0.587589 -0.80916 0
    outer loop
      vertex 8.92871 11.6885 0
      vertex 8.92871 11.6885 10
      vertex 8.72559 11.541 0
    endloop
  endfacet
  facet normal 0.587589 -0.80916 0
    outer loop
      vertex 8.72559 11.541 10
      vertex 8.72559 11.541 0
      vertex 8.92871 11.6885 10
    endloop
  endfacet
  facet normal 0.482679 -0.875797 0
    outer loop
      vertex 9.14844 11.8096 0
      vertex 9.14844 11.8096 10
      vertex 8.92871 11.6885 0
    endloop
  endfacet
  facet normal 0.482679 -0.875797 0
    outer loop
      vertex 8.92871 11.6885 10
      vertex 8.92871 11.6885 0
      vertex 9.14844 11.8096 10
    endloop
  endfacet
  facet normal 0.369124 -0.92938 0
    outer loop
      vertex 9.38184 11.9023 0
      vertex 9.38184 11.9023 10
      vertex 9.14844 11.8096 0
    endloop
  endfacet
  facet normal 0.369124 -0.92938 0
    outer loop
      vertex 9.14844 11.8096 10
      vertex 9.14844 11.8096 0
      vertex 9.38184 11.9023 10
    endloop
  endfacet
  facet normal 0.248941 -0.968519 0
    outer loop
      vertex 9.625 11.9648 0
      vertex 9.625 11.9648 10
      vertex 9.38184 11.9023 0
    endloop
  endfacet
  facet normal 0.248941 -0.968519 0
    outer loop
      vertex 9.38184 11.9023 10
      vertex 9.38184 11.9023 0
      vertex 9.625 11.9648 10
    endloop
  endfacet
  facet normal 0.124711 -0.992193 0
    outer loop
      vertex 9.87402 11.9961 0
      vertex 9.87402 11.9961 10
      vertex 9.625 11.9648 0
    endloop
  endfacet
  facet normal 0.124711 -0.992193 0
    outer loop
      vertex 9.625 11.9648 10
      vertex 9.625 11.9648 0
      vertex 9.87402 11.9961 10
    endloop
  endfacet
  facet normal 0 -1 0
    outer loop
      vertex 10.126 11.9961 0
      vertex 10.126 11.9961 10
      vertex 9.87402 11.9961 0
    endloop
  endfacet
  facet normal 0 -1 0
    outer loop
      vertex 9.87402 11.9961 10
      vertex 9.87402 11.9961 0
      vertex 10.126 11.9961 10
    endloop
  endfacet
  facet normal -0.124721 -0.992192 0
    outer loop
      vertex 10.375 11.9648 0
      vertex 10.375 11.9648 10
      vertex 10.126 11.9961 0
    endloop
  endfacet
  facet normal -0.124721 -0.992192 -0
    outer loop
      vertex 10.126 11.9961 10
      vertex 10.126 11.9961 0
      vertex 10.375 11.9648 10
    endloop
  endfacet
  facet normal -0.248902 -0.968529 0
    outer loop
      vertex 10.6182 11.9023 0
      vertex 10.6182 11.9023 10
      vertex 10.375 11.9648 0
    endloop
  endfacet
  facet normal -0.248902 -0.968529 -0
    outer loop
      vertex 10.375 11.9648 10
      vertex 10.375 11.9648 0
      vertex 10.6182 11.9023 10
    endloop
  endfacet
  facet normal -0.369124 -0.92938 0
    outer loop
      vertex 10.8516 11.8096 0
      vertex 10.8516 11.8096 10
      vertex 10.6182 11.9023 0
    endloop
  endfacet
  facet normal -0.369124 -0.92938 -0
    outer loop
      vertex 10.6182 11.9023 10
      vertex 10.6182 11.9023 0
      vertex 10.8516 11.8096 10
    endloop
  endfacet
  facet normal -0.48273 -0.875769 0
    outer loop
      vertex 11.0713 11.6885 0
      vertex 11.0713 11.6885 10
      vertex 10.8516 11.8096 0
    endloop
  endfacet
  facet normal -0.48273 -0.875769 -0
    outer loop
      vertex 10.8516 11.8096 10
      vertex 10.8516 11.8096 0
      vertex 11.0713 11.6885 10
    endloop
  endfacet
  facet normal -0.587627 -0.809132 0
    outer loop
      vertex 11.2744 11.541 0
      vertex 11.2744 11.541 10
      vertex 11.0713 11.6885 0
    endloop
  endfacet
  facet normal -0.587627 -0.809132 -0
    outer loop
      vertex 11.0713 11.6885 10
      vertex 11.0713 11.6885 0
      vertex 11.2744 11.541 10
    endloop
  endfacet
  facet normal -0.683465 -0.729983 0
    outer loop
      vertex 11.458 11.3691 0
      vertex 11.458 11.3691 10
      vertex 11.2744 11.541 0
    endloop
  endfacet
  facet normal -0.683465 -0.729983 -0
    outer loop
      vertex 11.2744 11.541 10
      vertex 11.2744 11.541 0
      vertex 11.458 11.3691 10
    endloop
  endfacet
  facet normal -0.769949 -0.638106 0
    outer loop
      vertex 11.6182 11.1758 0
      vertex 11.6182 11.1758 10
      vertex 11.458 11.3691 0
    endloop
  endfacet
  facet normal -0.769949 -0.638106 -0
    outer loop
      vertex 11.458 11.3691 10
      vertex 11.458 11.3691 0
      vertex 11.6182 11.1758 10
    endloop
  endfacet
  facet normal -0.843924 -0.536463 0
    outer loop
      vertex 11.7529 10.9639 0
      vertex 11.7529 10.9639 10
      vertex 11.6182 11.1758 0
    endloop
  endfacet
  facet normal -0.843924 -0.536463 -0
    outer loop
      vertex 11.6182 11.1758 10
      vertex 11.6182 11.1758 0
      vertex 11.7529 10.9639 10
    endloop
  endfacet
  facet normal -0.905745 -0.423822 0
    outer loop
      vertex 11.8594 10.7363 0
      vertex 11.8594 10.7363 10
      vertex 11.7529 10.9639 0
    endloop
  endfacet
  facet normal -0.905745 -0.423822 -0
    outer loop
      vertex 11.7529 10.9639 10
      vertex 11.7529 10.9639 0
      vertex 11.8594 10.7363 10
    endloop
  endfacet
  facet normal -0.950613 -0.31038 0
    outer loop
      vertex 11.9375 10.4971 0
      vertex 11.9375 10.4971 10
      vertex 11.8594 10.7363 0
    endloop
  endfacet
  facet normal -0.950613 -0.31038 -0
    outer loop
      vertex 11.8594 10.7363 10
      vertex 11.8594 10.7363 0
      vertex 11.9375 10.4971 10
    endloop
  endfacet
  facet normal -0.982321 -0.187204 0
    outer loop
      vertex 11.9844 10.251 0
      vertex 11.9844 10.251 10
      vertex 11.9375 10.4971 0
    endloop
  endfacet
  facet normal -0.982321 -0.187204 -0
    outer loop
      vertex 11.9375 10.4971 10
      vertex 11.9375 10.4971 0
      vertex 11.9844 10.251 10
    endloop
  endfacet
  facet normal -0.998074 -0.0620317 0
    outer loop
      vertex 12 10 0
      vertex 12 10 10
      vertex 11.9844 10.251 0
    endloop
  endfacet
  facet normal -0.998074 -0.0620317 -0
    outer loop
      vertex 11.9844 10.251 10
      vertex 11.9844 10.251 0
      vertex 12 10 10
    endloop
  endfacet
  facet normal -0.998074 0.0620366 0
    outer loop
      vertex 11.9844 9.74902 0
      vertex 11.9844 9.74902 10
      vertex 12 10 0
    endloop
  endfacet
  facet normal -0.998074 0.0620366 0
    outer loop
      vertex 12 10 10
      vertex 12 10 0
      vertex 11.9844 9.74902 10
    endloop
  endfacet
  facet normal -0.98232 0.187211 0
    outer loop
      vertex 11.9375 9.50293 0
      vertex 11.9375 9.50293 10
      vertex 11.9844 9.74902 0
    endloop
  endfacet
  facet normal -0.98232 0.187211 0
    outer loop
      vertex 11.9844 9.74902 10
      vertex 11.9844 9.74902 0
      vertex 11.9375 9.50293 10
    endloop
  endfacet
  facet normal -0.950636 0.310309 0
    outer loop
      vertex 11.8594 9.26367 0
      vertex 11.8594 9.26367 10
      vertex 11.9375 9.50293 0
    endloop
  endfacet
  facet normal -0.950636 0.310309 0
    outer loop
      vertex 11.9375 9.50293 10
      vertex 11.9375 9.50293 0
      vertex 11.8594 9.26367 10
    endloop
  endfacet
  facet normal -0.905703 0.423914 0
    outer loop
      vertex 11.7529 9.03613 0
      vertex 11.7529 9.03613 10
      vertex 11.8594 9.26367 0
    endloop
  endfacet
  facet normal -0.905703 0.423914 0
    outer loop
      vertex 11.8594 9.26367 10
      vertex 11.8594 9.26367 0
      vertex 11.7529 9.03613 10
    endloop
  endfacet
  facet normal -0.843935 0.536445 0
    outer loop
      vertex 11.6182 8.82422 0
      vertex 11.6182 8.82422 10
      vertex 11.7529 9.03613 0
    endloop
  endfacet
  facet normal -0.843935 0.536445 0
    outer loop
      vertex 11.7529 9.03613 10
      vertex 11.7529 9.03613 0
      vertex 11.6182 8.82422 10
    endloop
  endfacet
  facet normal -0.770046 0.637988 0
    outer loop
      vertex 11.458 8.63086 0
      vertex 11.458 8.63086 10
      vertex 11.6182 8.82422 0
    endloop
  endfacet
  facet normal -0.770046 0.637988 0
    outer loop
      vertex 11.6182 8.82422 10
      vertex 11.6182 8.82422 0
      vertex 11.458 8.63086 10
    endloop
  endfacet
  facet normal -0.683422 0.730023 0
    outer loop
      vertex 11.2744 8.45898 0
      vertex 11.2744 8.45898 10
      vertex 11.458 8.63086 0
    endloop
  endfacet
  facet normal -0.683422 0.730023 0
    outer loop
      vertex 11.458 8.63086 10
      vertex 11.458 8.63086 0
      vertex 11.2744 8.45898 10
    endloop
  endfacet
  facet normal -0.587522 0.809208 0
    outer loop
      vertex 11.0713 8.31152 0
      vertex 11.0713 8.31152 10
      vertex 11.2744 8.45898 0
    endloop
  endfacet
  facet normal -0.587522 0.809208 0
    outer loop
      vertex 11.2744 8.45898 10
      vertex 11.2744 8.45898 0
      vertex 11.0713 8.31152 10
    endloop
  endfacet
  facet normal -0.482699 0.875786 0
    outer loop
      vertex 10.8516 8.19043 0
      vertex 10.8516 8.19043 10
      vertex 11.0713 8.31152 0
    endloop
  endfacet
  facet normal -0.482699 0.875786 0
    outer loop
      vertex 11.0713 8.31152 10
      vertex 11.0713 8.31152 0
      vertex 10.8516 8.19043 10
    endloop
  endfacet
  facet normal -0.369365 0.929285 0
    outer loop
      vertex 10.6182 8.09766 0
      vertex 10.6182 8.09766 10
      vertex 10.8516 8.19043 0
    endloop
  endfacet
  facet normal -0.369365 0.929285 0
    outer loop
      vertex 10.8516 8.19043 10
      vertex 10.8516 8.19043 0
      vertex 10.6182 8.09766 10
    endloop
  endfacet
  facet normal -0.248902 0.968529 0
    outer loop
      vertex 10.375 8.03516 0
      vertex 10.375 8.03516 10
      vertex 10.6182 8.09766 0
    endloop
  endfacet
  facet normal -0.248902 0.968529 0
    outer loop
      vertex 10.6182 8.09766 10
      vertex 10.6182 8.09766 0
      vertex 10.375 8.03516 10
    endloop
  endfacet
  facet normal -0.124525 0.992216 0
    outer loop
      vertex 10.126 8.00391 0
      vertex 10.126 8.00391 10
      vertex 10.375 8.03516 0
    endloop
  endfacet
  facet normal -0.124525 0.992216 0
    outer loop
      vertex 10.375 8.03516 10
      vertex 10.375 8.03516 0
      vertex 10.126 8.00391 10
    endloop
  endfacet
  facet normal 0 1 0
    outer loop
      vertex 9.87402 8.00391 0
      vertex 9.87402 8.00391 10
      vertex 10.126 8.00391 0
    endloop
  endfacet
  facet normal 0 1 0
    outer loop
      vertex 10.126 8.00391 10
      vertex 10.126 8.00391 0
      vertex 9.87402 8.00391 10
    endloop
  endfacet
endsolid OpenSCAD_Model
