solid OpenSCAD_Model
  facet normal -0.994521 0.104533 0
    outer loop
      vertex 3 0 2
      vertex 2.93444 -0.623735 2
      vertex 3 0 9
    endloop
  endfacet
  facet normal -0.994521 0.104533 0
    outer loop
      vertex 2.93444 -0.623735 2
      vertex 2.93444 -0.623735 9
      vertex 3 0 9
    endloop
  endfacet
  facet normal -0 0 -1
    outer loop
      vertex 7 0 2
      vertex 6.84703 -1.45538 2
      vertex 3 0 2
    endloop
  endfacet
  facet normal 0 0 -1
    outer loop
      vertex 6.84703 -1.45538 2
      vertex 2.93444 -0.623735 2
      vertex 3 0 2
    endloop
  endfacet
  facet normal 0.44672 -0.0469517 -0.893441
    outer loop
      vertex 9 0 3
      vertex 8.80333 -1.87121 3
      vertex 7 0 2
    endloop
  endfacet
  facet normal 0.446719 -0.0469531 -0.893441
    outer loop
      vertex 8.80333 -1.87121 3
      vertex 6.84703 -1.45538 2
      vertex 7 0 2
    endloop
  endfacet
  facet normal -0.224797 0.0236294 -0.974119
    outer loop
      vertex 22 0 0
      vertex 21.5192 -4.57406 0
      vertex 9 0 3
    endloop
  endfacet
  facet normal -0.224798 0.0236269 -0.974119
    outer loop
      vertex 21.5192 -4.57406 0
      vertex 8.80333 -1.87121 3
      vertex 9 0 3
    endloop
  endfacet
  facet normal -0 0 -1
    outer loop
      vertex 23 0 0
      vertex 22.4974 -4.78197 0
      vertex 22 0 0
    endloop
  endfacet
  facet normal 0 0 -1
    outer loop
      vertex 22.4974 -4.78197 0
      vertex 21.5192 -4.57406 0
      vertex 22 0 0
    endloop
  endfacet
  facet normal 0.44672 -0.0469514 -0.893441
    outer loop
      vertex 25 0 1
      vertex 24.4537 -5.19779 1
      vertex 23 0 0
    endloop
  endfacet
  facet normal 0.44672 -0.0469516 -0.893441
    outer loop
      vertex 24.4537 -5.19779 1
      vertex 22.4974 -4.78197 0
      vertex 23 0 0
    endloop
  endfacet
  facet normal 0.994522 -0.104527 0
    outer loop
      vertex 25 0 4
      vertex 24.4537 -5.19779 4
      vertex 25 0 1
    endloop
  endfacet
  facet normal 0.994522 -0.104527 0
    outer loop
      vertex 24.4537 -5.19779 4
      vertex 24.4537 -5.19779 1
      vertex 25 0 1
    endloop
  endfacet
  facet normal 0.705162 -0.0741215 0.705162
    outer loop
      vertex 24 0 5
      vertex 23.4755 -4.98988 5
      vertex 25 0 4
    endloop
  endfacet
  facet normal 0.705144 -0.0741123 0.70518
    outer loop
      vertex 23.4755 -4.98988 5
      vertex 24.4537 -5.19779 4
      vertex 25 0 4
    endloop
  endfacet
  facet normal 0.257568 -0.0270712 0.965881
    outer loop
      vertex 9 0 9
      vertex 8.80333 -1.87121 9
      vertex 24 0 5
    endloop
  endfacet
  facet normal 0.257568 -0.0270737 0.965881
    outer loop
      vertex 8.80333 -1.87121 9
      vertex 23.4755 -4.98988 5
      vertex 24 0 5
    endloop
  endfacet
  facet normal -0 0 1
    outer loop
      vertex 3 0 9
      vertex 2.93444 -0.623735 9
      vertex 9 0 9
    endloop
  endfacet
  facet normal -0 0 1
    outer loop
      vertex 2.93444 -0.623735 9
      vertex 8.80333 -1.87121 9
      vertex 9 0 9
    endloop
  endfacet
  facet normal -0.95106 0.309008 0
    outer loop
      vertex 2.93444 -0.623735 2
      vertex 2.74064 -1.22021 2
      vertex 2.93444 -0.623735 9
    endloop
  endfacet
  facet normal -0.95106 0.309008 0
    outer loop
      vertex 2.74064 -1.22021 2
      vertex 2.74064 -1.22021 9
      vertex 2.93444 -0.623735 9
    endloop
  endfacet
  facet normal -0 0 -1
    outer loop
      vertex 6.84703 -1.45538 2
      vertex 6.39482 -2.84716 2
      vertex 2.93444 -0.623735 2
    endloop
  endfacet
  facet normal 0 0 -1
    outer loop
      vertex 6.39482 -2.84716 2
      vertex 2.74064 -1.22021 2
      vertex 2.93444 -0.623735 2
    endloop
  endfacet
  facet normal 0.427195 -0.138805 -0.893441
    outer loop
      vertex 8.80333 -1.87121 3
      vertex 8.22191 -3.66063 3
      vertex 6.84703 -1.45538 2
    endloop
  endfacet
  facet normal 0.427198 -0.138803 -0.893441
    outer loop
      vertex 8.22191 -3.66063 3
      vertex 6.39482 -2.84716 2
      vertex 6.84703 -1.45538 2
    endloop
  endfacet
  facet normal -0.214973 0.0698467 -0.974119
    outer loop
      vertex 21.5192 -4.57406 0
      vertex 20.098 -8.94821 0
      vertex 8.80333 -1.87121 3
    endloop
  endfacet
  facet normal -0.214972 0.0698489 -0.974119
    outer loop
      vertex 20.098 -8.94821 0
      vertex 8.22191 -3.66063 3
      vertex 8.80333 -1.87121 3
    endloop
  endfacet
  facet normal -0 0 -1
    outer loop
      vertex 22.4974 -4.78197 0
      vertex 21.0115 -9.35494 0
      vertex 21.5192 -4.57406 0
    endloop
  endfacet
  facet normal 0 0 -1
    outer loop
      vertex 21.0115 -9.35494 0
      vertex 20.098 -8.94821 0
      vertex 21.5192 -4.57406 0
    endloop
  endfacet
  facet normal 0.427195 -0.138808 -0.893441
    outer loop
      vertex 24.4537 -5.19779 1
      vertex 22.8386 -10.1684 1
      vertex 22.4974 -4.78197 0
    endloop
  endfacet
  facet normal 0.427194 -0.138809 -0.893441
    outer loop
      vertex 22.8386 -10.1684 1
      vertex 21.0115 -9.35494 0
      vertex 22.4974 -4.78197 0
    endloop
  endfacet
  facet normal 0.951054 -0.309026 0
    outer loop
      vertex 24.4537 -5.19779 4
      vertex 22.8386 -10.1684 4
      vertex 24.4537 -5.19779 1
    endloop
  endfacet
  facet normal 0.951054 -0.309026 0
    outer loop
      vertex 22.8386 -10.1684 4
      vertex 22.8386 -10.1684 1
      vertex 24.4537 -5.19779 1
    endloop
  endfacet
  facet normal 0.674328 -0.219095 0.70518
    outer loop
      vertex 23.4755 -4.98988 5
      vertex 21.9251 -9.76168 5
      vertex 24.4537 -5.19779 4
    endloop
  endfacet
  facet normal 0.674357 -0.219119 0.705145
    outer loop
      vertex 21.9251 -9.76168 5
      vertex 22.8386 -10.1684 4
      vertex 24.4537 -5.19779 4
    endloop
  endfacet
  facet normal 0.246312 -0.0800319 0.965881
    outer loop
      vertex 8.80333 -1.87121 9
      vertex 8.22191 -3.66063 9
      vertex 23.4755 -4.98988 5
    endloop
  endfacet
  facet normal 0.246312 -0.080029 0.965881
    outer loop
      vertex 8.22191 -3.66063 9
      vertex 21.9251 -9.76168 5
      vertex 23.4755 -4.98988 5
    endloop
  endfacet
  facet normal 0 0 1
    outer loop
      vertex 2.93444 -0.623735 9
      vertex 2.74064 -1.22021 9
      vertex 8.80333 -1.87121 9
    endloop
  endfacet
  facet normal 0 0 1
    outer loop
      vertex 2.74064 -1.22021 9
      vertex 8.22191 -3.66063 9
      vertex 8.80333 -1.87121 9
    endloop
  endfacet
  facet normal -0.866024 0.500003 0
    outer loop
      vertex 2.74064 -1.22021 2
      vertex 2.42705 -1.76336 2
      vertex 2.74064 -1.22021 9
    endloop
  endfacet
  facet normal -0.866024 0.500003 0
    outer loop
      vertex 2.42705 -1.76336 2
      vertex 2.42705 -1.76336 9
      vertex 2.74064 -1.22021 9
    endloop
  endfacet
  facet normal -0 0 -1
    outer loop
      vertex 6.39482 -2.84716 2
      vertex 5.66312 -4.1145 2
      vertex 2.74064 -1.22021 2
    endloop
  endfacet
  facet normal 0 0 -1
    outer loop
      vertex 5.66312 -4.1145 2
      vertex 2.42705 -1.76336 2
      vertex 2.74064 -1.22021 2
    endloop
  endfacet
  facet normal 0.389002 -0.224591 -0.893441
    outer loop
      vertex 8.22191 -3.66063 3
      vertex 7.28115 -5.29007 3
      vertex 6.39482 -2.84716 2
    endloop
  endfacet
  facet normal 0.389003 -0.224591 -0.89344
    outer loop
      vertex 7.28115 -5.29007 3
      vertex 5.66312 -4.1145 2
      vertex 6.39482 -2.84716 2
    endloop
  endfacet
  facet normal -0.195753 0.113016 -0.974119
    outer loop
      vertex 20.098 -8.94821 0
      vertex 17.7984 -12.9313 0
      vertex 8.22191 -3.66063 3
    endloop
  endfacet
  facet normal -0.195751 0.113017 -0.974119
    outer loop
      vertex 17.7984 -12.9313 0
      vertex 7.28115 -5.29007 3
      vertex 8.22191 -3.66063 3
    endloop
  endfacet
  facet normal -0 0 -1
    outer loop
      vertex 21.0115 -9.35494 0
      vertex 18.6074 -13.5191 0
      vertex 20.098 -8.94821 0
    endloop
  endfacet
  facet normal 0 0 -1
    outer loop
      vertex 18.6074 -13.5191 0
      vertex 17.7984 -12.9313 0
      vertex 20.098 -8.94821 0
    endloop
  endfacet
  facet normal 0.389002 -0.22459 -0.893441
    outer loop
      vertex 22.8386 -10.1684 1
      vertex 20.2254 -14.6946 1
      vertex 21.0115 -9.35494 0
    endloop
  endfacet
  facet normal 0.389016 -0.224591 -0.893435
    outer loop
      vertex 20.2254 -14.6946 1
      vertex 18.6074 -13.5191 0
      vertex 21.0115 -9.35494 0
    endloop
  endfacet
  facet normal 0.866026 -0.5 0
    outer loop
      vertex 22.8386 -10.1684 4
      vertex 20.2254 -14.6946 4
      vertex 22.8386 -10.1684 1
    endloop
  endfacet
  facet normal 0.866026 -0.5 0
    outer loop
      vertex 20.2254 -14.6946 4
      vertex 20.2254 -14.6946 1
      vertex 22.8386 -10.1684 1
    endloop
  endfacet
  facet normal 0.614064 -0.354536 0.705145
    outer loop
      vertex 21.9251 -9.76168 5
      vertex 19.4164 -14.1068 5
      vertex 22.8386 -10.1684 4
    endloop
  endfacet
  facet normal 0.614054 -0.354524 0.705159
    outer loop
      vertex 19.4164 -14.1068 5
      vertex 20.2254 -14.6946 4
      vertex 22.8386 -10.1684 4
    endloop
  endfacet
  facet normal 0.224289 -0.129494 0.965881
    outer loop
      vertex 8.22191 -3.66063 9
      vertex 7.28115 -5.29007 9
      vertex 21.9251 -9.76168 5
    endloop
  endfacet
  facet normal 0.224289 -0.129495 0.965881
    outer loop
      vertex 7.28115 -5.29007 9
      vertex 19.4164 -14.1068 5
      vertex 21.9251 -9.76168 5
    endloop
  endfacet
  facet normal 0 0 1
    outer loop
      vertex 2.74064 -1.22021 9
      vertex 2.42705 -1.76336 9
      vertex 8.22191 -3.66063 9
    endloop
  endfacet
  facet normal 0 0 1
    outer loop
      vertex 2.42705 -1.76336 9
      vertex 7.28115 -5.29007 9
      vertex 8.22191 -3.66063 9
    endloop
  endfacet
  facet normal -0.743138 0.669138 0
    outer loop
      vertex 2.42705 -1.76336 2
      vertex 2.00739 -2.22943 2
      vertex 2.42705 -1.76336 9
    endloop
  endfacet
  facet normal -0.743138 0.669138 0
    outer loop
      vertex 2.00739 -2.22943 2
      vertex 2.00739 -2.22943 9
      vertex 2.42705 -1.76336 9
    endloop
  endfacet
  facet normal -0 0 -1
    outer loop
      vertex 5.66312 -4.1145 2
      vertex 4.68391 -5.20201 2
      vertex 2.42705 -1.76336 2
    endloop
  endfacet
  facet normal 0 0 -1
    outer loop
      vertex 4.68391 -5.20201 2
      vertex 2.00739 -2.22943 2
      vertex 2.42705 -1.76336 2
    endloop
  endfacet
  facet normal 0.333807 -0.300561 -0.89344
    outer loop
      vertex 7.28115 -5.29007 3
      vertex 6.02218 -6.6883 3
      vertex 5.66312 -4.1145 2
    endloop
  endfacet
  facet normal 0.333804 -0.300562 -0.893441
    outer loop
      vertex 6.02218 -6.6883 3
      vertex 4.68391 -5.20201 2
      vertex 5.66312 -4.1145 2
    endloop
  endfacet
  facet normal -0.167976 0.151247 -0.974119
    outer loop
      vertex 17.7984 -12.9313 0
      vertex 14.7209 -16.3492 0
      vertex 7.28115 -5.29007 3
    endloop
  endfacet
  facet normal -0.167977 0.151246 -0.974119
    outer loop
      vertex 14.7209 -16.3492 0
      vertex 6.02218 -6.6883 3
      vertex 7.28115 -5.29007 3
    endloop
  endfacet
  facet normal -0 0 -1
    outer loop
      vertex 18.6074 -13.5191 0
      vertex 15.39 -17.0923 0
      vertex 17.7984 -12.9313 0
    endloop
  endfacet
  facet normal 0 0 -1
    outer loop
      vertex 15.39 -17.0923 0
      vertex 14.7209 -16.3492 0
      vertex 17.7984 -12.9313 0
    endloop
  endfacet
  facet normal 0.333819 -0.300566 -0.893434
    outer loop
      vertex 20.2254 -14.6946 1
      vertex 16.7283 -18.5786 1
      vertex 18.6074 -13.5191 0
    endloop
  endfacet
  facet normal 0.333798 -0.30056 -0.893444
    outer loop
      vertex 16.7283 -18.5786 1
      vertex 15.39 -17.0923 0
      vertex 18.6074 -13.5191 0
    endloop
  endfacet
  facet normal 0.743151 -0.669123 0
    outer loop
      vertex 20.2254 -14.6946 4
      vertex 16.7283 -18.5786 4
      vertex 20.2254 -14.6946 1
    endloop
  endfacet
  facet normal 0.743151 -0.669123 0
    outer loop
      vertex 16.7283 -18.5786 4
      vertex 16.7283 -18.5786 1
      vertex 20.2254 -14.6946 1
    endloop
  endfacet
  facet normal 0.526927 -0.474442 0.705161
    outer loop
      vertex 19.4164 -14.1068 5
      vertex 16.0591 -17.8355 5
      vertex 20.2254 -14.6946 4
    endloop
  endfacet
  facet normal 0.526923 -0.474434 0.705169
    outer loop
      vertex 16.0591 -17.8355 5
      vertex 16.7283 -18.5786 4
      vertex 20.2254 -14.6946 4
    endloop
  endfacet
  facet normal 0.192465 -0.173296 0.965881
    outer loop
      vertex 7.28115 -5.29007 9
      vertex 6.02218 -6.6883 9
      vertex 19.4164 -14.1068 5
    endloop
  endfacet
  facet normal 0.192466 -0.173295 0.965881
    outer loop
      vertex 6.02218 -6.6883 9
      vertex 16.0591 -17.8355 5
      vertex 19.4164 -14.1068 5
    endloop
  endfacet
  facet normal 0 0 1
    outer loop
      vertex 2.42705 -1.76336 9
      vertex 2.00739 -2.22943 9
      vertex 7.28115 -5.29007 9
    endloop
  endfacet
  facet normal 0 0 1
    outer loop
      vertex 2.00739 -2.22943 9
      vertex 6.02218 -6.6883 9
      vertex 7.28115 -5.29007 9
    endloop
  endfacet
  facet normal -0.587795 0.80901 0
    outer loop
      vertex 2.00739 -2.22943 2
      vertex 1.5 -2.59808 2
      vertex 2.00739 -2.22943 9
    endloop
  endfacet
  facet normal -0.587795 0.80901 0
    outer loop
      vertex 1.5 -2.59808 2
      vertex 1.5 -2.59808 9
      vertex 2.00739 -2.22943 9
    endloop
  endfacet
  facet normal -0 0 -1
    outer loop
      vertex 4.68391 -5.20201 2
      vertex 3.5 -6.06218 2
      vertex 2.00739 -2.22943 2
    endloop
  endfacet
  facet normal 0 0 -1
    outer loop
      vertex 3.5 -6.06218 2
      vertex 1.5 -2.59808 2
      vertex 2.00739 -2.22943 2
    endloop
  endfacet
  facet normal 0.264022 -0.363394 -0.893441
    outer loop
      vertex 6.02218 -6.6883 3
      vertex 4.5 -7.79423 3
      vertex 4.68391 -5.20201 2
    endloop
  endfacet
  facet normal 0.264024 -0.363394 -0.893441
    outer loop
      vertex 4.5 -7.79423 3
      vertex 3.5 -6.06218 2
      vertex 4.68391 -5.20201 2
    endloop
  endfacet
  facet normal -0.13286 0.182866 -0.974119
    outer loop
      vertex 14.7209 -16.3492 0
      vertex 11 -19.0526 0
      vertex 6.02218 -6.6883 3
    endloop
  endfacet
  facet normal -0.13286 0.182866 -0.974119
    outer loop
      vertex 11 -19.0526 0
      vertex 4.5 -7.79423 3
      vertex 6.02218 -6.6883 3
    endloop
  endfacet
  facet normal -0 0 -1
    outer loop
      vertex 15.39 -17.0923 0
      vertex 11.5 -19.9186 0
      vertex 14.7209 -16.3492 0
    endloop
  endfacet
  facet normal 0 0 -1
    outer loop
      vertex 11.5 -19.9186 0
      vertex 11 -19.0526 0
      vertex 14.7209 -16.3492 0
    endloop
  endfacet
  facet normal 0.264017 -0.363392 -0.893443
    outer loop
      vertex 16.7283 -18.5786 1
      vertex 12.5 -21.6506 1
      vertex 15.39 -17.0923 0
    endloop
  endfacet
  facet normal 0.26403 -0.363399 -0.893437
    outer loop
      vertex 12.5 -21.6506 1
      vertex 11.5 -19.9186 0
      vertex 15.39 -17.0923 0
    endloop
  endfacet
  facet normal 0.58778 -0.809021 0
    outer loop
      vertex 16.7283 -18.5786 4
      vertex 12.5 -21.6506 4
      vertex 16.7283 -18.5786 1
    endloop
  endfacet
  facet normal 0.58778 -0.809021 0
    outer loop
      vertex 12.5 -21.6506 4
      vertex 12.5 -21.6506 1
      vertex 16.7283 -18.5786 1
    endloop
  endfacet
  facet normal 0.416765 -0.57363 0.705164
    outer loop
      vertex 16.0591 -17.8355 5
      vertex 12 -20.7846 5
      vertex 16.7283 -18.5786 4
    endloop
  endfacet
  facet normal 0.416768 -0.573639 0.705155
    outer loop
      vertex 12 -20.7846 5
      vertex 12.5 -21.6506 4
      vertex 16.7283 -18.5786 4
    endloop
  endfacet
  facet normal 0.152229 -0.209525 0.965881
    outer loop
      vertex 6.02218 -6.6883 9
      vertex 4.5 -7.79423 9
      vertex 16.0591 -17.8355 5
    endloop
  endfacet
  facet normal 0.152228 -0.209525 0.965881
    outer loop
      vertex 4.5 -7.79423 9
      vertex 12 -20.7846 5
      vertex 16.0591 -17.8355 5
    endloop
  endfacet
  facet normal 0 0 1
    outer loop
      vertex 2.00739 -2.22943 9
      vertex 1.5 -2.59808 9
      vertex 6.02218 -6.6883 9
    endloop
  endfacet
  facet normal 0 0 1
    outer loop
      vertex 1.5 -2.59808 9
      vertex 4.5 -7.79423 9
      vertex 6.02218 -6.6883 9
    endloop
  endfacet
  facet normal -0.406732 0.913547 0
    outer loop
      vertex 1.5 -2.59808 2
      vertex 0.927051 -2.85317 2
      vertex 1.5 -2.59808 9
    endloop
  endfacet
  facet normal -0.406732 0.913547 0
    outer loop
      vertex 0.927051 -2.85317 2
      vertex 0.927051 -2.85317 9
      vertex 1.5 -2.59808 9
    endloop
  endfacet
  facet normal -0 0 -1
    outer loop
      vertex 3.5 -6.06218 2
      vertex 2.16312 -6.6574 2
      vertex 1.5 -2.59808 2
    endloop
  endfacet
  facet normal 0 0 -1
    outer loop
      vertex 2.16312 -6.6574 2
      vertex 0.927051 -2.85317 2
      vertex 1.5 -2.59808 2
    endloop
  endfacet
  facet normal 0.182698 -0.410348 -0.893441
    outer loop
      vertex 4.5 -7.79423 3
      vertex 2.78115 -8.55951 3
      vertex 3.5 -6.06218 2
    endloop
  endfacet
  facet normal 0.182699 -0.410348 -0.89344
    outer loop
      vertex 2.78115 -8.55951 3
      vertex 2.16312 -6.6574 2
      vertex 3.5 -6.06218 2
    endloop
  endfacet
  facet normal -0.0919331 0.206495 -0.974119
    outer loop
      vertex 11 -19.0526 0
      vertex 6.79837 -20.9232 0
      vertex 4.5 -7.79423 3
    endloop
  endfacet
  facet normal -0.0919368 0.206494 -0.974119
    outer loop
      vertex 6.79837 -20.9232 0
      vertex 2.78115 -8.55951 3
      vertex 4.5 -7.79423 3
    endloop
  endfacet
  facet normal -0 0 -1
    outer loop
      vertex 11.5 -19.9186 0
      vertex 7.10739 -21.8743 0
      vertex 11 -19.0526 0
    endloop
  endfacet
  facet normal 0 0 -1
    outer loop
      vertex 7.10739 -21.8743 0
      vertex 6.79837 -20.9232 0
      vertex 11 -19.0526 0
    endloop
  endfacet
  facet normal 0.182703 -0.410354 -0.893437
    outer loop
      vertex 12.5 -21.6506 1
      vertex 7.72542 -23.7764 1
      vertex 11.5 -19.9186 0
    endloop
  endfacet
  facet normal 0.182698 -0.41035 -0.89344
    outer loop
      vertex 7.72542 -23.7764 1
      vertex 7.10739 -21.8743 0
      vertex 11.5 -19.9186 0
    endloop
  endfacet
  facet normal 0.40674 -0.913544 0
    outer loop
      vertex 12.5 -21.6506 4
      vertex 7.72542 -23.7764 4
      vertex 12.5 -21.6506 1
    endloop
  endfacet
  facet normal 0.40674 -0.913544 0
    outer loop
      vertex 7.72542 -23.7764 4
      vertex 7.72542 -23.7764 1
      vertex 12.5 -21.6506 1
    endloop
  endfacet
  facet normal 0.288405 -0.64775 0.705154
    outer loop
      vertex 12 -20.7846 5
      vertex 7.41641 -22.8254 5
      vertex 12.5 -21.6506 4
    endloop
  endfacet
  facet normal 0.288405 -0.647763 0.705142
    outer loop
      vertex 7.41641 -22.8254 5
      vertex 7.72542 -23.7764 4
      vertex 12.5 -21.6506 4
    endloop
  endfacet
  facet normal 0.105339 -0.236597 0.965881
    outer loop
      vertex 4.5 -7.79423 9
      vertex 2.78115 -8.55951 9
      vertex 12 -20.7846 5
    endloop
  endfacet
  facet normal 0.105342 -0.236595 0.965881
    outer loop
      vertex 2.78115 -8.55951 9
      vertex 7.41641 -22.8254 5
      vertex 12 -20.7846 5
    endloop
  endfacet
  facet normal 0 0 1
    outer loop
      vertex 1.5 -2.59808 9
      vertex 0.927051 -2.85317 9
      vertex 4.5 -7.79423 9
    endloop
  endfacet
  facet normal 0 0 1
    outer loop
      vertex 0.927051 -2.85317 9
      vertex 2.78115 -8.55951 9
      vertex 4.5 -7.79423 9
    endloop
  endfacet
  facet normal -0.207917 0.978146 0
    outer loop
      vertex 0.927051 -2.85317 2
      vertex 0.313585 -2.98357 2
      vertex 0.927051 -2.85317 9
    endloop
  endfacet
  facet normal -0.207917 0.978146 0
    outer loop
      vertex 0.313585 -2.98357 2
      vertex 0.313585 -2.98357 9
      vertex 0.927051 -2.85317 9
    endloop
  endfacet
  facet normal -0 0 -1
    outer loop
      vertex 2.16312 -6.6574 2
      vertex 0.731699 -6.96165 2
      vertex 0.927051 -2.85317 2
    endloop
  endfacet
  facet normal 0 0 -1
    outer loop
      vertex 0.731699 -6.96165 2
      vertex 0.313585 -2.98357 2
      vertex 0.927051 -2.85317 2
    endloop
  endfacet
  facet normal 0.0933906 -0.439366 -0.89344
    outer loop
      vertex 2.78115 -8.55951 3
      vertex 0.940756 -8.9507 3
      vertex 2.16312 -6.6574 2
    endloop
  endfacet
  facet normal 0.0933874 -0.439365 -0.893441
    outer loop
      vertex 0.940756 -8.9507 3
      vertex 0.731699 -6.96165 2
      vertex 2.16312 -6.6574 2
    endloop
  endfacet
  facet normal -0.0469984 0.221095 -0.974119
    outer loop
      vertex 6.79837 -20.9232 0
      vertex 2.29963 -21.8795 0
      vertex 2.78115 -8.55951 3
    endloop
  endfacet
  facet normal -0.0469955 0.221095 -0.974119
    outer loop
      vertex 2.29963 -21.8795 0
      vertex 0.940756 -8.9507 3
      vertex 2.78115 -8.55951 3
    endloop
  endfacet
  facet normal -0 0 -1
    outer loop
      vertex 7.10739 -21.8743 0
      vertex 2.40415 -22.874 0
      vertex 6.79837 -20.9232 0
    endloop
  endfacet
  facet normal 0 0 -1
    outer loop
      vertex 2.40415 -22.874 0
      vertex 2.29963 -21.8795 0
      vertex 6.79837 -20.9232 0
    endloop
  endfacet
  facet normal 0.0933878 -0.439369 -0.893439
    outer loop
      vertex 7.72542 -23.7764 1
      vertex 2.61321 -24.863 1
      vertex 7.10739 -21.8743 0
    endloop
  endfacet
  facet normal 0.0933912 -0.439373 -0.893437
    outer loop
      vertex 2.61321 -24.863 1
      vertex 2.40415 -22.874 0
      vertex 7.10739 -21.8743 0
    endloop
  endfacet
  facet normal 0.207906 -0.978149 0
    outer loop
      vertex 7.72542 -23.7764 4
      vertex 2.61321 -24.863 4
      vertex 7.72542 -23.7764 1
    endloop
  endfacet
  facet normal 0.207906 -0.978149 0
    outer loop
      vertex 2.61321 -24.863 4
      vertex 2.61321 -24.863 1
      vertex 7.72542 -23.7764 1
    endloop
  endfacet
  facet normal 0.147414 -0.693574 0.705141
    outer loop
      vertex 7.41641 -22.8254 5
      vertex 2.50868 -23.8685 5
      vertex 7.72542 -23.7764 4
    endloop
  endfacet
  facet normal 0.147416 -0.69356 0.705155
    outer loop
      vertex 2.50868 -23.8685 5
      vertex 2.61321 -24.863 4
      vertex 7.72542 -23.7764 4
    endloop
  endfacet
  facet normal 0.0538466 -0.253327 0.965881
    outer loop
      vertex 2.78115 -8.55951 9
      vertex 0.940756 -8.9507 9
      vertex 7.41641 -22.8254 5
    endloop
  endfacet
  facet normal 0.053843 -0.253328 0.965881
    outer loop
      vertex 0.940756 -8.9507 9
      vertex 2.50868 -23.8685 5
      vertex 7.41641 -22.8254 5
    endloop
  endfacet
  facet normal 0 0 1
    outer loop
      vertex 0.927051 -2.85317 9
      vertex 0.313585 -2.98357 9
      vertex 2.78115 -8.55951 9
    endloop
  endfacet
  facet normal 0 0 1
    outer loop
      vertex 0.313585 -2.98357 9
      vertex 0.940756 -8.9507 9
      vertex 2.78115 -8.55951 9
    endloop
  endfacet
  facet normal 0 1 -0
    outer loop
      vertex 0.313585 -2.98357 2
      vertex -0.313585 -2.98357 2
      vertex 0.313585 -2.98357 9
    endloop
  endfacet
  facet normal 0 1 0
    outer loop
      vertex -0.313585 -2.98357 2
      vertex -0.313585 -2.98357 9
      vertex 0.313585 -2.98357 9
    endloop
  endfacet
  facet normal 0 0 -1
    outer loop
      vertex 0.731699 -6.96165 2
      vertex -0.731699 -6.96165 2
      vertex 0.313585 -2.98357 2
    endloop
  endfacet
  facet normal 0 0 -1
    outer loop
      vertex -0.731699 -6.96165 2
      vertex -0.313585 -2.98357 2
      vertex 0.313585 -2.98357 2
    endloop
  endfacet
  facet normal -0 -0.44918 -0.893441
    outer loop
      vertex 0.940756 -8.9507 3
      vertex -0.940756 -8.9507 3
      vertex 0.731699 -6.96165 2
    endloop
  endfacet
  facet normal 0 -0.44918 -0.893441
    outer loop
      vertex -0.940756 -8.9507 3
      vertex -0.731699 -6.96165 2
      vertex 0.731699 -6.96165 2
    endloop
  endfacet
  facet normal 0 0.226035 -0.974119
    outer loop
      vertex 2.29963 -21.8795 0
      vertex -2.29963 -21.8795 0
      vertex 0.940756 -8.9507 3
    endloop
  endfacet
  facet normal 0 0.226035 -0.974119
    outer loop
      vertex -2.29963 -21.8795 0
      vertex -0.940756 -8.9507 3
      vertex 0.940756 -8.9507 3
    endloop
  endfacet
  facet normal 0 0 -1
    outer loop
      vertex 2.40415 -22.874 0
      vertex -2.40415 -22.874 0
      vertex 2.29963 -21.8795 0
    endloop
  endfacet
  facet normal 0 0 -1
    outer loop
      vertex -2.40415 -22.874 0
      vertex -2.29963 -21.8795 0
      vertex 2.29963 -21.8795 0
    endloop
  endfacet
  facet normal -0 -0.449189 -0.893437
    outer loop
      vertex 2.61321 -24.863 1
      vertex -2.61321 -24.863 1
      vertex 2.40415 -22.874 0
    endloop
  endfacet
  facet normal 0 -0.449189 -0.893437
    outer loop
      vertex -2.61321 -24.863 1
      vertex -2.40415 -22.874 0
      vertex 2.40415 -22.874 0
    endloop
  endfacet
  facet normal -0 -1 -0
    outer loop
      vertex 2.61321 -24.863 4
      vertex -2.61321 -24.863 4
      vertex 2.61321 -24.863 1
    endloop
  endfacet
  facet normal 0 -1 0
    outer loop
      vertex -2.61321 -24.863 4
      vertex -2.61321 -24.863 1
      vertex 2.61321 -24.863 1
    endloop
  endfacet
  facet normal 0 -0.709054 0.705154
    outer loop
      vertex 2.50868 -23.8685 5
      vertex -2.50868 -23.8685 5
      vertex 2.61321 -24.863 4
    endloop
  endfacet
  facet normal 0 -0.709054 0.705154
    outer loop
      vertex -2.50868 -23.8685 5
      vertex -2.61321 -24.863 4
      vertex 2.61321 -24.863 4
    endloop
  endfacet
  facet normal 0 -0.258987 0.965881
    outer loop
      vertex 0.940756 -8.9507 9
      vertex -0.940756 -8.9507 9
      vertex 2.50868 -23.8685 5
    endloop
  endfacet
  facet normal 0 -0.258987 0.965881
    outer loop
      vertex -0.940756 -8.9507 9
      vertex -2.50868 -23.8685 5
      vertex 2.50868 -23.8685 5
    endloop
  endfacet
  facet normal 0 0 1
    outer loop
      vertex 0.313585 -2.98357 9
      vertex -0.313585 -2.98357 9
      vertex 0.940756 -8.9507 9
    endloop
  endfacet
  facet normal 0 0 1
    outer loop
      vertex -0.313585 -2.98357 9
      vertex -0.940756 -8.9507 9
      vertex 0.940756 -8.9507 9
    endloop
  endfacet
  facet normal 0.207917 0.978146 -0
    outer loop
      vertex -0.313585 -2.98357 2
      vertex -0.927051 -2.85317 2
      vertex -0.313585 -2.98357 9
    endloop
  endfacet
  facet normal 0.207917 0.978146 -0
    outer loop
      vertex -0.927051 -2.85317 2
      vertex -0.927051 -2.85317 9
      vertex -0.313585 -2.98357 9
    endloop
  endfacet
  facet normal 0 0 -1
    outer loop
      vertex -0.731699 -6.96165 2
      vertex -2.16312 -6.6574 2
      vertex -0.313585 -2.98357 2
    endloop
  endfacet
  facet normal 0 0 -1
    outer loop
      vertex -2.16312 -6.6574 2
      vertex -0.927051 -2.85317 2
      vertex -0.313585 -2.98357 2
    endloop
  endfacet
  facet normal -0.0933903 -0.439364 -0.893441
    outer loop
      vertex -0.940756 -8.9507 3
      vertex -2.78115 -8.55951 3
      vertex -0.731699 -6.96165 2
    endloop
  endfacet
  facet normal -0.0933878 -0.439367 -0.89344
    outer loop
      vertex -2.78115 -8.55951 3
      vertex -2.16312 -6.6574 2
      vertex -0.731699 -6.96165 2
    endloop
  endfacet
  facet normal 0.0469983 0.221095 -0.974119
    outer loop
      vertex -2.29963 -21.8795 0
      vertex -6.79837 -20.9232 0
      vertex -0.940756 -8.9507 3
    endloop
  endfacet
  facet normal 0.0469957 0.221096 -0.974119
    outer loop
      vertex -6.79837 -20.9232 0
      vertex -2.78115 -8.55951 3
      vertex -0.940756 -8.9507 3
    endloop
  endfacet
  facet normal 0 0 -1
    outer loop
      vertex -2.40415 -22.874 0
      vertex -7.10739 -21.8743 0
      vertex -2.29963 -21.8795 0
    endloop
  endfacet
  facet normal 0 0 -1
    outer loop
      vertex -7.10739 -21.8743 0
      vertex -6.79837 -20.9232 0
      vertex -2.29963 -21.8795 0
    endloop
  endfacet
  facet normal -0.0933887 -0.439373 -0.893437
    outer loop
      vertex -2.61321 -24.863 1
      vertex -7.72542 -23.7764 1
      vertex -2.40415 -22.874 0
    endloop
  endfacet
  facet normal -0.0933901 -0.439368 -0.89344
    outer loop
      vertex -7.72542 -23.7764 1
      vertex -7.10739 -21.8743 0
      vertex -2.40415 -22.874 0
    endloop
  endfacet
  facet normal -0.207906 -0.978149 -0
    outer loop
      vertex -2.61321 -24.863 4
      vertex -7.72542 -23.7764 4
      vertex -2.61321 -24.863 1
    endloop
  endfacet
  facet normal -0.207906 -0.978149 -0
    outer loop
      vertex -7.72542 -23.7764 4
      vertex -7.72542 -23.7764 1
      vertex -2.61321 -24.863 1
    endloop
  endfacet
  facet normal -0.147411 -0.693561 0.705155
    outer loop
      vertex -2.50868 -23.8685 5
      vertex -7.41641 -22.8254 5
      vertex -2.61321 -24.863 4
    endloop
  endfacet
  facet normal -0.147419 -0.693573 0.705142
    outer loop
      vertex -7.41641 -22.8254 5
      vertex -7.72542 -23.7764 4
      vertex -2.61321 -24.863 4
    endloop
  endfacet
  facet normal -0.0538468 -0.253328 0.965881
    outer loop
      vertex -0.940756 -8.9507 9
      vertex -2.78115 -8.55951 9
      vertex -2.50868 -23.8685 5
    endloop
  endfacet
  facet normal -0.0538429 -0.253328 0.965881
    outer loop
      vertex -2.78115 -8.55951 9
      vertex -7.41641 -22.8254 5
      vertex -2.50868 -23.8685 5
    endloop
  endfacet
  facet normal 0 0 1
    outer loop
      vertex -0.313585 -2.98357 9
      vertex -0.927051 -2.85317 9
      vertex -0.940756 -8.9507 9
    endloop
  endfacet
  facet normal 0 0 1
    outer loop
      vertex -0.927051 -2.85317 9
      vertex -2.78115 -8.55951 9
      vertex -0.940756 -8.9507 9
    endloop
  endfacet
  facet normal 0.406732 0.913547 -0
    outer loop
      vertex -0.927051 -2.85317 2
      vertex -1.5 -2.59808 2
      vertex -0.927051 -2.85317 9
    endloop
  endfacet
  facet normal 0.406732 0.913547 -0
    outer loop
      vertex -1.5 -2.59808 2
      vertex -1.5 -2.59808 9
      vertex -0.927051 -2.85317 9
    endloop
  endfacet
  facet normal 0 0 -1
    outer loop
      vertex -2.16312 -6.6574 2
      vertex -3.5 -6.06218 2
      vertex -0.927051 -2.85317 2
    endloop
  endfacet
  facet normal 0 0 -1
    outer loop
      vertex -3.5 -6.06218 2
      vertex -1.5 -2.59808 2
      vertex -0.927051 -2.85317 2
    endloop
  endfacet
  facet normal -0.182698 -0.410348 -0.89344
    outer loop
      vertex -2.78115 -8.55951 3
      vertex -4.5 -7.79423 3
      vertex -2.16312 -6.6574 2
    endloop
  endfacet
  facet normal -0.182699 -0.410347 -0.893441
    outer loop
      vertex -4.5 -7.79423 3
      vertex -3.5 -6.06218 2
      vertex -2.16312 -6.6574 2
    endloop
  endfacet
  facet normal 0.0919333 0.206495 -0.974119
    outer loop
      vertex -6.79837 -20.9232 0
      vertex -11 -19.0526 0
      vertex -2.78115 -8.55951 3
    endloop
  endfacet
  facet normal 0.0919363 0.206493 -0.974119
    outer loop
      vertex -11 -19.0526 0
      vertex -4.5 -7.79423 3
      vertex -2.78115 -8.55951 3
    endloop
  endfacet
  facet normal 0 0 -1
    outer loop
      vertex -7.10739 -21.8743 0
      vertex -11.5 -19.9186 0
      vertex -6.79837 -20.9232 0
    endloop
  endfacet
  facet normal 0 0 -1
    outer loop
      vertex -11.5 -19.9186 0
      vertex -11 -19.0526 0
      vertex -6.79837 -20.9232 0
    endloop
  endfacet
  facet normal -0.182701 -0.410349 -0.893439
    outer loop
      vertex -7.72542 -23.7764 1
      vertex -12.5 -21.6506 1
      vertex -7.10739 -21.8743 0
    endloop
  endfacet
  facet normal -0.182701 -0.410356 -0.893436
    outer loop
      vertex -12.5 -21.6506 1
      vertex -11.5 -19.9186 0
      vertex -7.10739 -21.8743 0
    endloop
  endfacet
  facet normal -0.40674 -0.913544 -0
    outer loop
      vertex -7.72542 -23.7764 4
      vertex -12.5 -21.6506 4
      vertex -7.72542 -23.7764 1
    endloop
  endfacet
  facet normal -0.40674 -0.913544 -0
    outer loop
      vertex -12.5 -21.6506 4
      vertex -12.5 -21.6506 1
      vertex -7.72542 -23.7764 1
    endloop
  endfacet
  facet normal -0.288409 -0.647761 0.705142
    outer loop
      vertex -7.41641 -22.8254 5
      vertex -12 -20.7846 5
      vertex -7.72542 -23.7764 4
    endloop
  endfacet
  facet normal -0.288401 -0.647752 0.705154
    outer loop
      vertex -12 -20.7846 5
      vertex -12.5 -21.6506 4
      vertex -7.72542 -23.7764 4
    endloop
  endfacet
  facet normal -0.105339 -0.236596 0.965881
    outer loop
      vertex -2.78115 -8.55951 9
      vertex -4.5 -7.79423 9
      vertex -7.41641 -22.8254 5
    endloop
  endfacet
  facet normal -0.105342 -0.236595 0.965881
    outer loop
      vertex -4.5 -7.79423 9
      vertex -12 -20.7846 5
      vertex -7.41641 -22.8254 5
    endloop
  endfacet
  facet normal 0 0 1
    outer loop
      vertex -0.927051 -2.85317 9
      vertex -1.5 -2.59808 9
      vertex -2.78115 -8.55951 9
    endloop
  endfacet
  facet normal 0 0 1
    outer loop
      vertex -1.5 -2.59808 9
      vertex -4.5 -7.79423 9
      vertex -2.78115 -8.55951 9
    endloop
  endfacet
  facet normal 0.587795 0.80901 -0
    outer loop
      vertex -1.5 -2.59808 2
      vertex -2.00739 -2.22943 2
      vertex -1.5 -2.59808 9
    endloop
  endfacet
  facet normal 0.587795 0.80901 -0
    outer loop
      vertex -2.00739 -2.22943 2
      vertex -2.00739 -2.22943 9
      vertex -1.5 -2.59808 9
    endloop
  endfacet
  facet normal 0 0 -1
    outer loop
      vertex -3.5 -6.06218 2
      vertex -4.68391 -5.20201 2
      vertex -1.5 -2.59808 2
    endloop
  endfacet
  facet normal 0 0 -1
    outer loop
      vertex -4.68391 -5.20201 2
      vertex -2.00739 -2.22943 2
      vertex -1.5 -2.59808 2
    endloop
  endfacet
  facet normal -0.264022 -0.363395 -0.893441
    outer loop
      vertex -4.5 -7.79423 3
      vertex -6.02218 -6.6883 3
      vertex -3.5 -6.06218 2
    endloop
  endfacet
  facet normal -0.264023 -0.363393 -0.893441
    outer loop
      vertex -6.02218 -6.6883 3
      vertex -4.68391 -5.20201 2
      vertex -3.5 -6.06218 2
    endloop
  endfacet
  facet normal 0.13286 0.182866 -0.974119
    outer loop
      vertex -11 -19.0526 0
      vertex -14.7209 -16.3492 0
      vertex -4.5 -7.79423 3
    endloop
  endfacet
  facet normal 0.13286 0.182866 -0.974119
    outer loop
      vertex -14.7209 -16.3492 0
      vertex -6.02218 -6.6883 3
      vertex -4.5 -7.79423 3
    endloop
  endfacet
  facet normal 0 0 -1
    outer loop
      vertex -11.5 -19.9186 0
      vertex -15.39 -17.0923 0
      vertex -11 -19.0526 0
    endloop
  endfacet
  facet normal 0 0 -1
    outer loop
      vertex -15.39 -17.0923 0
      vertex -14.7209 -16.3492 0
      vertex -11 -19.0526 0
    endloop
  endfacet
  facet normal -0.264024 -0.363403 -0.893437
    outer loop
      vertex -12.5 -21.6506 1
      vertex -16.7283 -18.5786 1
      vertex -11.5 -19.9186 0
    endloop
  endfacet
  facet normal -0.264022 -0.363388 -0.893444
    outer loop
      vertex -16.7283 -18.5786 1
      vertex -15.39 -17.0923 0
      vertex -11.5 -19.9186 0
    endloop
  endfacet
  facet normal -0.58778 -0.809021 -0
    outer loop
      vertex -12.5 -21.6506 4
      vertex -16.7283 -18.5786 4
      vertex -12.5 -21.6506 1
    endloop
  endfacet
  facet normal -0.58778 -0.809021 -0
    outer loop
      vertex -16.7283 -18.5786 4
      vertex -16.7283 -18.5786 1
      vertex -12.5 -21.6506 1
    endloop
  endfacet
  facet normal -0.41677 -0.573637 0.705155
    outer loop
      vertex -12 -20.7846 5
      vertex -16.0591 -17.8355 5
      vertex -12.5 -21.6506 4
    endloop
  endfacet
  facet normal -0.416763 -0.573632 0.705163
    outer loop
      vertex -16.0591 -17.8355 5
      vertex -16.7283 -18.5786 4
      vertex -12.5 -21.6506 4
    endloop
  endfacet
  facet normal -0.152229 -0.209525 0.965881
    outer loop
      vertex -4.5 -7.79423 9
      vertex -6.02218 -6.6883 9
      vertex -12 -20.7846 5
    endloop
  endfacet
  facet normal -0.152228 -0.209525 0.965881
    outer loop
      vertex -6.02218 -6.6883 9
      vertex -16.0591 -17.8355 5
      vertex -12 -20.7846 5
    endloop
  endfacet
  facet normal 0 0 1
    outer loop
      vertex -1.5 -2.59808 9
      vertex -2.00739 -2.22943 9
      vertex -4.5 -7.79423 9
    endloop
  endfacet
  facet normal 0 0 1
    outer loop
      vertex -2.00739 -2.22943 9
      vertex -6.02218 -6.6883 9
      vertex -4.5 -7.79423 9
    endloop
  endfacet
  facet normal 0.743138 0.669138 -0
    outer loop
      vertex -2.00739 -2.22943 2
      vertex -2.42705 -1.76336 2
      vertex -2.00739 -2.22943 9
    endloop
  endfacet
  facet normal 0.743138 0.669138 -0
    outer loop
      vertex -2.42705 -1.76336 2
      vertex -2.42705 -1.76336 9
      vertex -2.00739 -2.22943 9
    endloop
  endfacet
  facet normal 0 0 -1
    outer loop
      vertex -4.68391 -5.20201 2
      vertex -5.66312 -4.1145 2
      vertex -2.00739 -2.22943 2
    endloop
  endfacet
  facet normal 0 0 -1
    outer loop
      vertex -5.66312 -4.1145 2
      vertex -2.42705 -1.76336 2
      vertex -2.00739 -2.22943 2
    endloop
  endfacet
  facet normal -0.333806 -0.30056 -0.893441
    outer loop
      vertex -6.02218 -6.6883 3
      vertex -7.28115 -5.29007 3
      vertex -4.68391 -5.20201 2
    endloop
  endfacet
  facet normal -0.333805 -0.300563 -0.89344
    outer loop
      vertex -7.28115 -5.29007 3
      vertex -5.66312 -4.1145 2
      vertex -4.68391 -5.20201 2
    endloop
  endfacet
  facet normal 0.167976 0.151247 -0.974119
    outer loop
      vertex -14.7209 -16.3492 0
      vertex -17.7984 -12.9313 0
      vertex -6.02218 -6.6883 3
    endloop
  endfacet
  facet normal 0.167976 0.151246 -0.974119
    outer loop
      vertex -17.7984 -12.9313 0
      vertex -7.28115 -5.29007 3
      vertex -6.02218 -6.6883 3
    endloop
  endfacet
  facet normal 0 0 -1
    outer loop
      vertex -15.39 -17.0923 0
      vertex -18.6074 -13.5191 0
      vertex -14.7209 -16.3492 0
    endloop
  endfacet
  facet normal 0 0 -1
    outer loop
      vertex -18.6074 -13.5191 0
      vertex -17.7984 -12.9313 0
      vertex -14.7209 -16.3492 0
    endloop
  endfacet
  facet normal -0.333805 -0.300553 -0.893444
    outer loop
      vertex -16.7283 -18.5786 1
      vertex -20.2254 -14.6946 1
      vertex -15.39 -17.0923 0
    endloop
  endfacet
  facet normal -0.333813 -0.300574 -0.893434
    outer loop
      vertex -20.2254 -14.6946 1
      vertex -18.6074 -13.5191 0
      vertex -15.39 -17.0923 0
    endloop
  endfacet
  facet normal -0.743151 -0.669123 -0
    outer loop
      vertex -16.7283 -18.5786 4
      vertex -20.2254 -14.6946 4
      vertex -16.7283 -18.5786 1
    endloop
  endfacet
  facet normal -0.743151 -0.669123 -0
    outer loop
      vertex -20.2254 -14.6946 4
      vertex -20.2254 -14.6946 1
      vertex -16.7283 -18.5786 1
    endloop
  endfacet
  facet normal -0.526921 -0.474437 0.705169
    outer loop
      vertex -16.0591 -17.8355 5
      vertex -19.4164 -14.1068 5
      vertex -16.7283 -18.5786 4
    endloop
  endfacet
  facet normal -0.526929 -0.47444 0.705161
    outer loop
      vertex -19.4164 -14.1068 5
      vertex -20.2254 -14.6946 4
      vertex -16.7283 -18.5786 4
    endloop
  endfacet
  facet normal -0.192465 -0.173296 0.965881
    outer loop
      vertex -6.02218 -6.6883 9
      vertex -7.28115 -5.29007 9
      vertex -16.0591 -17.8355 5
    endloop
  endfacet
  facet normal -0.192466 -0.173295 0.965881
    outer loop
      vertex -7.28115 -5.29007 9
      vertex -19.4164 -14.1068 5
      vertex -16.0591 -17.8355 5
    endloop
  endfacet
  facet normal 0 0 1
    outer loop
      vertex -2.00739 -2.22943 9
      vertex -2.42705 -1.76336 9
      vertex -6.02218 -6.6883 9
    endloop
  endfacet
  facet normal 0 0 1
    outer loop
      vertex -2.42705 -1.76336 9
      vertex -7.28115 -5.29007 9
      vertex -6.02218 -6.6883 9
    endloop
  endfacet
  facet normal 0.866024 0.500003 -0
    outer loop
      vertex -2.42705 -1.76336 2
      vertex -2.74064 -1.22021 2
      vertex -2.42705 -1.76336 9
    endloop
  endfacet
  facet normal 0.866024 0.500003 -0
    outer loop
      vertex -2.74064 -1.22021 2
      vertex -2.74064 -1.22021 9
      vertex -2.42705 -1.76336 9
    endloop
  endfacet
  facet normal 0 0 -1
    outer loop
      vertex -5.66312 -4.1145 2
      vertex -6.39482 -2.84716 2
      vertex -2.42705 -1.76336 2
    endloop
  endfacet
  facet normal 0 0 -1
    outer loop
      vertex -6.39482 -2.84716 2
      vertex -2.74064 -1.22021 2
      vertex -2.42705 -1.76336 2
    endloop
  endfacet
  facet normal -0.389002 -0.224591 -0.89344
    outer loop
      vertex -7.28115 -5.29007 3
      vertex -8.22191 -3.66063 3
      vertex -5.66312 -4.1145 2
    endloop
  endfacet
  facet normal -0.389002 -0.224591 -0.893441
    outer loop
      vertex -8.22191 -3.66063 3
      vertex -6.39482 -2.84716 2
      vertex -5.66312 -4.1145 2
    endloop
  endfacet
  facet normal 0.195752 0.113016 -0.974119
    outer loop
      vertex -17.7984 -12.9313 0
      vertex -20.098 -8.94821 0
      vertex -7.28115 -5.29007 3
    endloop
  endfacet
  facet normal 0.195752 0.113018 -0.974119
    outer loop
      vertex -20.098 -8.94821 0
      vertex -8.22191 -3.66063 3
      vertex -7.28115 -5.29007 3
    endloop
  endfacet
  facet normal 0 0 -1
    outer loop
      vertex -18.6074 -13.5191 0
      vertex -21.0115 -9.35494 0
      vertex -17.7984 -12.9313 0
    endloop
  endfacet
  facet normal 0 0 -1
    outer loop
      vertex -21.0115 -9.35494 0
      vertex -20.098 -8.94821 0
      vertex -17.7984 -12.9313 0
    endloop
  endfacet
  facet normal -0.389012 -0.224596 -0.893435
    outer loop
      vertex -20.2254 -14.6946 1
      vertex -22.8386 -10.1684 1
      vertex -18.6074 -13.5191 0
    endloop
  endfacet
  facet normal -0.389005 -0.224585 -0.893441
    outer loop
      vertex -22.8386 -10.1684 1
      vertex -21.0115 -9.35494 0
      vertex -18.6074 -13.5191 0
    endloop
  endfacet
  facet normal -0.866026 -0.5 -0
    outer loop
      vertex -20.2254 -14.6946 4
      vertex -22.8386 -10.1684 4
      vertex -20.2254 -14.6946 1
    endloop
  endfacet
  facet normal -0.866026 -0.5 -0
    outer loop
      vertex -22.8386 -10.1684 4
      vertex -22.8386 -10.1684 1
      vertex -20.2254 -14.6946 1
    endloop
  endfacet
  facet normal -0.614051 -0.354529 0.70516
    outer loop
      vertex -19.4164 -14.1068 5
      vertex -21.9251 -9.76168 5
      vertex -20.2254 -14.6946 4
    endloop
  endfacet
  facet normal -0.614067 -0.354531 0.705145
    outer loop
      vertex -21.9251 -9.76168 5
      vertex -22.8386 -10.1684 4
      vertex -20.2254 -14.6946 4
    endloop
  endfacet
  facet normal -0.22429 -0.129494 0.965881
    outer loop
      vertex -7.28115 -5.29007 9
      vertex -8.22191 -3.66063 9
      vertex -19.4164 -14.1068 5
    endloop
  endfacet
  facet normal -0.224288 -0.129495 0.965881
    outer loop
      vertex -8.22191 -3.66063 9
      vertex -21.9251 -9.76168 5
      vertex -19.4164 -14.1068 5
    endloop
  endfacet
  facet normal 0 0 1
    outer loop
      vertex -2.42705 -1.76336 9
      vertex -2.74064 -1.22021 9
      vertex -7.28115 -5.29007 9
    endloop
  endfacet
  facet normal 0 0 1
    outer loop
      vertex -2.74064 -1.22021 9
      vertex -8.22191 -3.66063 9
      vertex -7.28115 -5.29007 9
    endloop
  endfacet
  facet normal 0.95106 0.309008 -0
    outer loop
      vertex -2.74064 -1.22021 2
      vertex -2.93444 -0.623735 2
      vertex -2.74064 -1.22021 9
    endloop
  endfacet
  facet normal 0.95106 0.309008 -0
    outer loop
      vertex -2.93444 -0.623735 2
      vertex -2.93444 -0.623735 9
      vertex -2.74064 -1.22021 9
    endloop
  endfacet
  facet normal 0 0 -1
    outer loop
      vertex -6.39482 -2.84716 2
      vertex -6.84703 -1.45538 2
      vertex -2.74064 -1.22021 2
    endloop
  endfacet
  facet normal 0 0 -1
    outer loop
      vertex -6.84703 -1.45538 2
      vertex -2.93444 -0.623735 2
      vertex -2.74064 -1.22021 2
    endloop
  endfacet
  facet normal -0.427197 -0.138805 -0.893441
    outer loop
      vertex -8.22191 -3.66063 3
      vertex -8.80333 -1.87121 3
      vertex -6.39482 -2.84716 2
    endloop
  endfacet
  facet normal -0.427196 -0.138802 -0.893441
    outer loop
      vertex -8.80333 -1.87121 3
      vertex -6.84703 -1.45538 2
      vertex -6.39482 -2.84716 2
    endloop
  endfacet
  facet normal 0.214973 0.0698466 -0.974119
    outer loop
      vertex -20.098 -8.94821 0
      vertex -21.5192 -4.57406 0
      vertex -8.22191 -3.66063 3
    endloop
  endfacet
  facet normal 0.214973 0.0698491 -0.974119
    outer loop
      vertex -21.5192 -4.57406 0
      vertex -8.80333 -1.87121 3
      vertex -8.22191 -3.66063 3
    endloop
  endfacet
  facet normal 0 0 -1
    outer loop
      vertex -21.0115 -9.35494 0
      vertex -22.4974 -4.78197 0
      vertex -20.098 -8.94821 0
    endloop
  endfacet
  facet normal 0 0 -1
    outer loop
      vertex -22.4974 -4.78197 0
      vertex -21.5192 -4.57406 0
      vertex -20.098 -8.94821 0
    endloop
  endfacet
  facet normal -0.427194 -0.138808 -0.893441
    outer loop
      vertex -22.8386 -10.1684 1
      vertex -24.4537 -5.19779 1
      vertex -21.0115 -9.35494 0
    endloop
  endfacet
  facet normal -0.427195 -0.138809 -0.893441
    outer loop
      vertex -24.4537 -5.19779 1
      vertex -22.4974 -4.78197 0
      vertex -21.0115 -9.35494 0
    endloop
  endfacet
  facet normal -0.951054 -0.309026 -0
    outer loop
      vertex -22.8386 -10.1684 4
      vertex -24.4537 -5.19779 4
      vertex -22.8386 -10.1684 1
    endloop
  endfacet
  facet normal -0.951054 -0.309026 -0
    outer loop
      vertex -24.4537 -5.19779 4
      vertex -24.4537 -5.19779 1
      vertex -22.8386 -10.1684 1
    endloop
  endfacet
  facet normal -0.674362 -0.219106 0.705144
    outer loop
      vertex -21.9251 -9.76168 5
      vertex -23.4755 -4.98988 5
      vertex -22.8386 -10.1684 4
    endloop
  endfacet
  facet normal -0.674325 -0.219108 0.705179
    outer loop
      vertex -23.4755 -4.98988 5
      vertex -24.4537 -5.19779 4
      vertex -22.8386 -10.1684 4
    endloop
  endfacet
  facet normal -0.246311 -0.0800316 0.965881
    outer loop
      vertex -8.22191 -3.66063 9
      vertex -8.80333 -1.87121 9
      vertex -21.9251 -9.76168 5
    endloop
  endfacet
  facet normal -0.246312 -0.0800291 0.965881
    outer loop
      vertex -8.80333 -1.87121 9
      vertex -23.4755 -4.98988 5
      vertex -21.9251 -9.76168 5
    endloop
  endfacet
  facet normal 0 0 1
    outer loop
      vertex -2.74064 -1.22021 9
      vertex -2.93444 -0.623735 9
      vertex -8.22191 -3.66063 9
    endloop
  endfacet
  facet normal 0 0 1
    outer loop
      vertex -2.93444 -0.623735 9
      vertex -8.80333 -1.87121 9
      vertex -8.22191 -3.66063 9
    endloop
  endfacet
  facet normal 0.994521 0.104533 -0
    outer loop
      vertex -2.93444 -0.623735 2
      vertex -3 -0 2
      vertex -2.93444 -0.623735 9
    endloop
  endfacet
  facet normal 0.994521 0.104533 -0
    outer loop
      vertex -3 -0 2
      vertex -3 -0 9
      vertex -2.93444 -0.623735 9
    endloop
  endfacet
  facet normal 0 0 -1
    outer loop
      vertex -6.84703 -1.45538 2
      vertex -7 -0 2
      vertex -2.93444 -0.623735 2
    endloop
  endfacet
  facet normal 0 0 -1
    outer loop
      vertex -7 -0 2
      vertex -3 -0 2
      vertex -2.93444 -0.623735 2
    endloop
  endfacet
  facet normal -0.446719 -0.0469516 -0.893441
    outer loop
      vertex -8.80333 -1.87121 3
      vertex -9 -0 3
      vertex -6.84703 -1.45538 2
    endloop
  endfacet
  facet normal -0.44672 -0.0469532 -0.893441
    outer loop
      vertex -9 -0 3
      vertex -7 -0 2
      vertex -6.84703 -1.45538 2
    endloop
  endfacet
  facet normal 0.224797 0.0236294 -0.974119
    outer loop
      vertex -21.5192 -4.57406 0
      vertex -22 -0 0
      vertex -8.80333 -1.87121 3
    endloop
  endfacet
  facet normal 0.224797 0.0236268 -0.974119
    outer loop
      vertex -22 -0 0
      vertex -9 -0 3
      vertex -8.80333 -1.87121 3
    endloop
  endfacet
  facet normal 0 0 -1
    outer loop
      vertex -22.4974 -4.78197 0
      vertex -23 -0 0
      vertex -21.5192 -4.57406 0
    endloop
  endfacet
  facet normal 0 0 -1
    outer loop
      vertex -23 -0 0
      vertex -22 -0 0
      vertex -21.5192 -4.57406 0
    endloop
  endfacet
  facet normal -0.44672 -0.0469513 -0.893441
    outer loop
      vertex -24.4537 -5.19779 1
      vertex -25 -0 1
      vertex -22.4974 -4.78197 0
    endloop
  endfacet
  facet normal -0.44672 -0.0469517 -0.893441
    outer loop
      vertex -25 -0 1
      vertex -23 -0 0
      vertex -22.4974 -4.78197 0
    endloop
  endfacet
  facet normal -0.994522 -0.104527 -0
    outer loop
      vertex -24.4537 -5.19779 4
      vertex -25 -0 4
      vertex -24.4537 -5.19779 1
    endloop
  endfacet
  facet normal -0.994522 -0.104527 -0
    outer loop
      vertex -25 -0 4
      vertex -25 -0 1
      vertex -24.4537 -5.19779 1
    endloop
  endfacet
  facet normal -0.705143 -0.0741195 0.705181
    outer loop
      vertex -23.4755 -4.98988 5
      vertex -24 -0 5
      vertex -24.4537 -5.19779 4
    endloop
  endfacet
  facet normal -0.705162 -0.0741142 0.705162
    outer loop
      vertex -24 -0 5
      vertex -25 -0 4
      vertex -24.4537 -5.19779 4
    endloop
  endfacet
  facet normal -0.257569 -0.0270713 0.965881
    outer loop
      vertex -8.80333 -1.87121 9
      vertex -9 -0 9
      vertex -23.4755 -4.98988 5
    endloop
  endfacet
  facet normal -0.257568 -0.0270737 0.965881
    outer loop
      vertex -9 -0 9
      vertex -24 -0 5
      vertex -23.4755 -4.98988 5
    endloop
  endfacet
  facet normal 0 0 1
    outer loop
      vertex -2.93444 -0.623735 9
      vertex -3 -0 9
      vertex -8.80333 -1.87121 9
    endloop
  endfacet
  facet normal 0 0 1
    outer loop
      vertex -3 -0 9
      vertex -9 -0 9
      vertex -8.80333 -1.87121 9
    endloop
  endfacet
  facet normal 0.994521 -0.104533 0
    outer loop
      vertex -3 -0 2
      vertex -2.93444 0.623735 2
      vertex -3 -0 9
    endloop
  endfacet
  facet normal 0.994521 -0.104533 0
    outer loop
      vertex -2.93444 0.623735 2
      vertex -2.93444 0.623735 9
      vertex -3 -0 9
    endloop
  endfacet
  facet normal 0 0 -1
    outer loop
      vertex -7 -0 2
      vertex -6.84703 1.45538 2
      vertex -3 -0 2
    endloop
  endfacet
  facet normal 0 0 -1
    outer loop
      vertex -6.84703 1.45538 2
      vertex -2.93444 0.623735 2
      vertex -3 -0 2
    endloop
  endfacet
  facet normal -0.44672 0.0469517 -0.893441
    outer loop
      vertex -9 -0 3
      vertex -8.80333 1.87121 3
      vertex -7 -0 2
    endloop
  endfacet
  facet normal -0.446719 0.0469531 -0.893441
    outer loop
      vertex -8.80333 1.87121 3
      vertex -6.84703 1.45538 2
      vertex -7 -0 2
    endloop
  endfacet
  facet normal 0.224797 -0.0236294 -0.974119
    outer loop
      vertex -22 -0 0
      vertex -21.5192 4.57406 0
      vertex -9 -0 3
    endloop
  endfacet
  facet normal 0.224798 -0.0236269 -0.974119
    outer loop
      vertex -21.5192 4.57406 0
      vertex -8.80333 1.87121 3
      vertex -9 -0 3
    endloop
  endfacet
  facet normal 0 0 -1
    outer loop
      vertex -23 -0 0
      vertex -22.4974 4.78197 0
      vertex -22 -0 0
    endloop
  endfacet
  facet normal 0 0 -1
    outer loop
      vertex -22.4974 4.78197 0
      vertex -21.5192 4.57406 0
      vertex -22 -0 0
    endloop
  endfacet
  facet normal -0.44672 0.0469514 -0.893441
    outer loop
      vertex -25 -0 1
      vertex -24.4537 5.19779 1
      vertex -23 -0 0
    endloop
  endfacet
  facet normal -0.44672 0.0469516 -0.893441
    outer loop
      vertex -24.4537 5.19779 1
      vertex -22.4974 4.78197 0
      vertex -23 -0 0
    endloop
  endfacet
  facet normal -0.994522 0.104527 0
    outer loop
      vertex -25 -0 4
      vertex -24.4537 5.19779 4
      vertex -25 -0 1
    endloop
  endfacet
  facet normal -0.994522 0.104527 0
    outer loop
      vertex -24.4537 5.19779 4
      vertex -24.4537 5.19779 1
      vertex -25 -0 1
    endloop
  endfacet
  facet normal -0.705162 0.0741215 0.705162
    outer loop
      vertex -24 -0 5
      vertex -23.4755 4.98988 5
      vertex -25 -0 4
    endloop
  endfacet
  facet normal -0.705144 0.0741123 0.70518
    outer loop
      vertex -23.4755 4.98988 5
      vertex -24.4537 5.19779 4
      vertex -25 -0 4
    endloop
  endfacet
  facet normal -0.257568 0.0270712 0.965881
    outer loop
      vertex -9 -0 9
      vertex -8.80333 1.87121 9
      vertex -24 -0 5
    endloop
  endfacet
  facet normal -0.257568 0.0270737 0.965881
    outer loop
      vertex -8.80333 1.87121 9
      vertex -23.4755 4.98988 5
      vertex -24 -0 5
    endloop
  endfacet
  facet normal 0 -0 1
    outer loop
      vertex -3 -0 9
      vertex -2.93444 0.623735 9
      vertex -9 -0 9
    endloop
  endfacet
  facet normal 0 0 1
    outer loop
      vertex -2.93444 0.623735 9
      vertex -8.80333 1.87121 9
      vertex -9 -0 9
    endloop
  endfacet
  facet normal 0.95106 -0.309008 0
    outer loop
      vertex -2.93444 0.623735 2
      vertex -2.74064 1.22021 2
      vertex -2.93444 0.623735 9
    endloop
  endfacet
  facet normal 0.95106 -0.309008 0
    outer loop
      vertex -2.74064 1.22021 2
      vertex -2.74064 1.22021 9
      vertex -2.93444 0.623735 9
    endloop
  endfacet
  facet normal 0 0 -1
    outer loop
      vertex -6.84703 1.45538 2
      vertex -6.39482 2.84716 2
      vertex -2.93444 0.623735 2
    endloop
  endfacet
  facet normal 0 0 -1
    outer loop
      vertex -6.39482 2.84716 2
      vertex -2.74064 1.22021 2
      vertex -2.93444 0.623735 2
    endloop
  endfacet
  facet normal -0.427195 0.138805 -0.893441
    outer loop
      vertex -8.80333 1.87121 3
      vertex -8.22191 3.66063 3
      vertex -6.84703 1.45538 2
    endloop
  endfacet
  facet normal -0.427198 0.138803 -0.893441
    outer loop
      vertex -8.22191 3.66063 3
      vertex -6.39482 2.84716 2
      vertex -6.84703 1.45538 2
    endloop
  endfacet
  facet normal 0.214973 -0.0698467 -0.974119
    outer loop
      vertex -21.5192 4.57406 0
      vertex -20.098 8.94821 0
      vertex -8.80333 1.87121 3
    endloop
  endfacet
  facet normal 0.214972 -0.0698489 -0.974119
    outer loop
      vertex -20.098 8.94821 0
      vertex -8.22191 3.66063 3
      vertex -8.80333 1.87121 3
    endloop
  endfacet
  facet normal 0 0 -1
    outer loop
      vertex -22.4974 4.78197 0
      vertex -21.0115 9.35494 0
      vertex -21.5192 4.57406 0
    endloop
  endfacet
  facet normal 0 -0 -1
    outer loop
      vertex -21.0115 9.35494 0
      vertex -20.098 8.94821 0
      vertex -21.5192 4.57406 0
    endloop
  endfacet
  facet normal -0.427195 0.138808 -0.893441
    outer loop
      vertex -24.4537 5.19779 1
      vertex -22.8386 10.1684 1
      vertex -22.4974 4.78197 0
    endloop
  endfacet
  facet normal -0.427194 0.138809 -0.893441
    outer loop
      vertex -22.8386 10.1684 1
      vertex -21.0115 9.35494 0
      vertex -22.4974 4.78197 0
    endloop
  endfacet
  facet normal -0.951054 0.309026 0
    outer loop
      vertex -24.4537 5.19779 4
      vertex -22.8386 10.1684 4
      vertex -24.4537 5.19779 1
    endloop
  endfacet
  facet normal -0.951054 0.309026 0
    outer loop
      vertex -22.8386 10.1684 4
      vertex -22.8386 10.1684 1
      vertex -24.4537 5.19779 1
    endloop
  endfacet
  facet normal -0.674328 0.219095 0.70518
    outer loop
      vertex -23.4755 4.98988 5
      vertex -21.9251 9.76168 5
      vertex -24.4537 5.19779 4
    endloop
  endfacet
  facet normal -0.674357 0.219119 0.705145
    outer loop
      vertex -21.9251 9.76168 5
      vertex -22.8386 10.1684 4
      vertex -24.4537 5.19779 4
    endloop
  endfacet
  facet normal -0.246312 0.0800319 0.965881
    outer loop
      vertex -8.80333 1.87121 9
      vertex -8.22191 3.66063 9
      vertex -23.4755 4.98988 5
    endloop
  endfacet
  facet normal -0.246312 0.080029 0.965881
    outer loop
      vertex -8.22191 3.66063 9
      vertex -21.9251 9.76168 5
      vertex -23.4755 4.98988 5
    endloop
  endfacet
  facet normal 0 -0 1
    outer loop
      vertex -2.93444 0.623735 9
      vertex -2.74064 1.22021 9
      vertex -8.80333 1.87121 9
    endloop
  endfacet
  facet normal 0 0 1
    outer loop
      vertex -2.74064 1.22021 9
      vertex -8.22191 3.66063 9
      vertex -8.80333 1.87121 9
    endloop
  endfacet
  facet normal 0.866024 -0.500003 0
    outer loop
      vertex -2.74064 1.22021 2
      vertex -2.42705 1.76336 2
      vertex -2.74064 1.22021 9
    endloop
  endfacet
  facet normal 0.866024 -0.500003 0
    outer loop
      vertex -2.42705 1.76336 2
      vertex -2.42705 1.76336 9
      vertex -2.74064 1.22021 9
    endloop
  endfacet
  facet normal 0 0 -1
    outer loop
      vertex -6.39482 2.84716 2
      vertex -5.66312 4.1145 2
      vertex -2.74064 1.22021 2
    endloop
  endfacet
  facet normal 0 0 -1
    outer loop
      vertex -5.66312 4.1145 2
      vertex -2.42705 1.76336 2
      vertex -2.74064 1.22021 2
    endloop
  endfacet
  facet normal -0.389002 0.224591 -0.893441
    outer loop
      vertex -8.22191 3.66063 3
      vertex -7.28115 5.29007 3
      vertex -6.39482 2.84716 2
    endloop
  endfacet
  facet normal -0.389003 0.224591 -0.89344
    outer loop
      vertex -7.28115 5.29007 3
      vertex -5.66312 4.1145 2
      vertex -6.39482 2.84716 2
    endloop
  endfacet
  facet normal 0.195753 -0.113016 -0.974119
    outer loop
      vertex -20.098 8.94821 0
      vertex -17.7984 12.9313 0
      vertex -8.22191 3.66063 3
    endloop
  endfacet
  facet normal 0.195751 -0.113017 -0.974119
    outer loop
      vertex -17.7984 12.9313 0
      vertex -7.28115 5.29007 3
      vertex -8.22191 3.66063 3
    endloop
  endfacet
  facet normal 0 0 -1
    outer loop
      vertex -21.0115 9.35494 0
      vertex -18.6074 13.5191 0
      vertex -20.098 8.94821 0
    endloop
  endfacet
  facet normal 0 -0 -1
    outer loop
      vertex -18.6074 13.5191 0
      vertex -17.7984 12.9313 0
      vertex -20.098 8.94821 0
    endloop
  endfacet
  facet normal -0.389002 0.22459 -0.893441
    outer loop
      vertex -22.8386 10.1684 1
      vertex -20.2254 14.6946 1
      vertex -21.0115 9.35494 0
    endloop
  endfacet
  facet normal -0.389016 0.224591 -0.893435
    outer loop
      vertex -20.2254 14.6946 1
      vertex -18.6074 13.5191 0
      vertex -21.0115 9.35494 0
    endloop
  endfacet
  facet normal -0.866026 0.5 0
    outer loop
      vertex -22.8386 10.1684 4
      vertex -20.2254 14.6946 4
      vertex -22.8386 10.1684 1
    endloop
  endfacet
  facet normal -0.866026 0.5 0
    outer loop
      vertex -20.2254 14.6946 4
      vertex -20.2254 14.6946 1
      vertex -22.8386 10.1684 1
    endloop
  endfacet
  facet normal -0.614064 0.354536 0.705145
    outer loop
      vertex -21.9251 9.76168 5
      vertex -19.4164 14.1068 5
      vertex -22.8386 10.1684 4
    endloop
  endfacet
  facet normal -0.614054 0.354524 0.705159
    outer loop
      vertex -19.4164 14.1068 5
      vertex -20.2254 14.6946 4
      vertex -22.8386 10.1684 4
    endloop
  endfacet
  facet normal -0.224289 0.129494 0.965881
    outer loop
      vertex -8.22191 3.66063 9
      vertex -7.28115 5.29007 9
      vertex -21.9251 9.76168 5
    endloop
  endfacet
  facet normal -0.224289 0.129495 0.965881
    outer loop
      vertex -7.28115 5.29007 9
      vertex -19.4164 14.1068 5
      vertex -21.9251 9.76168 5
    endloop
  endfacet
  facet normal 0 -0 1
    outer loop
      vertex -2.74064 1.22021 9
      vertex -2.42705 1.76336 9
      vertex -8.22191 3.66063 9
    endloop
  endfacet
  facet normal 0 0 1
    outer loop
      vertex -2.42705 1.76336 9
      vertex -7.28115 5.29007 9
      vertex -8.22191 3.66063 9
    endloop
  endfacet
  facet normal 0.743138 -0.669138 0
    outer loop
      vertex -2.42705 1.76336 2
      vertex -2.00739 2.22943 2
      vertex -2.42705 1.76336 9
    endloop
  endfacet
  facet normal 0.743138 -0.669138 0
    outer loop
      vertex -2.00739 2.22943 2
      vertex -2.00739 2.22943 9
      vertex -2.42705 1.76336 9
    endloop
  endfacet
  facet normal 0 0 -1
    outer loop
      vertex -5.66312 4.1145 2
      vertex -4.68391 5.20201 2
      vertex -2.42705 1.76336 2
    endloop
  endfacet
  facet normal 0 0 -1
    outer loop
      vertex -4.68391 5.20201 2
      vertex -2.00739 2.22943 2
      vertex -2.42705 1.76336 2
    endloop
  endfacet
  facet normal -0.333807 0.300561 -0.89344
    outer loop
      vertex -7.28115 5.29007 3
      vertex -6.02218 6.6883 3
      vertex -5.66312 4.1145 2
    endloop
  endfacet
  facet normal -0.333804 0.300562 -0.893441
    outer loop
      vertex -6.02218 6.6883 3
      vertex -4.68391 5.20201 2
      vertex -5.66312 4.1145 2
    endloop
  endfacet
  facet normal 0.167976 -0.151247 -0.974119
    outer loop
      vertex -17.7984 12.9313 0
      vertex -14.7209 16.3492 0
      vertex -7.28115 5.29007 3
    endloop
  endfacet
  facet normal 0.167977 -0.151246 -0.974119
    outer loop
      vertex -14.7209 16.3492 0
      vertex -6.02218 6.6883 3
      vertex -7.28115 5.29007 3
    endloop
  endfacet
  facet normal 0 0 -1
    outer loop
      vertex -18.6074 13.5191 0
      vertex -15.39 17.0923 0
      vertex -17.7984 12.9313 0
    endloop
  endfacet
  facet normal 0 -0 -1
    outer loop
      vertex -15.39 17.0923 0
      vertex -14.7209 16.3492 0
      vertex -17.7984 12.9313 0
    endloop
  endfacet
  facet normal -0.333819 0.300566 -0.893434
    outer loop
      vertex -20.2254 14.6946 1
      vertex -16.7283 18.5786 1
      vertex -18.6074 13.5191 0
    endloop
  endfacet
  facet normal -0.333798 0.30056 -0.893444
    outer loop
      vertex -16.7283 18.5786 1
      vertex -15.39 17.0923 0
      vertex -18.6074 13.5191 0
    endloop
  endfacet
  facet normal -0.743151 0.669123 0
    outer loop
      vertex -20.2254 14.6946 4
      vertex -16.7283 18.5786 4
      vertex -20.2254 14.6946 1
    endloop
  endfacet
  facet normal -0.743151 0.669123 0
    outer loop
      vertex -16.7283 18.5786 4
      vertex -16.7283 18.5786 1
      vertex -20.2254 14.6946 1
    endloop
  endfacet
  facet normal -0.526927 0.474442 0.705161
    outer loop
      vertex -19.4164 14.1068 5
      vertex -16.0591 17.8355 5
      vertex -20.2254 14.6946 4
    endloop
  endfacet
  facet normal -0.526923 0.474434 0.705169
    outer loop
      vertex -16.0591 17.8355 5
      vertex -16.7283 18.5786 4
      vertex -20.2254 14.6946 4
    endloop
  endfacet
  facet normal -0.192465 0.173296 0.965881
    outer loop
      vertex -7.28115 5.29007 9
      vertex -6.02218 6.6883 9
      vertex -19.4164 14.1068 5
    endloop
  endfacet
  facet normal -0.192466 0.173295 0.965881
    outer loop
      vertex -6.02218 6.6883 9
      vertex -16.0591 17.8355 5
      vertex -19.4164 14.1068 5
    endloop
  endfacet
  facet normal 0 -0 1
    outer loop
      vertex -2.42705 1.76336 9
      vertex -2.00739 2.22943 9
      vertex -7.28115 5.29007 9
    endloop
  endfacet
  facet normal 0 0 1
    outer loop
      vertex -2.00739 2.22943 9
      vertex -6.02218 6.6883 9
      vertex -7.28115 5.29007 9
    endloop
  endfacet
  facet normal 0.587795 -0.80901 0
    outer loop
      vertex -2.00739 2.22943 2
      vertex -1.5 2.59808 2
      vertex -2.00739 2.22943 9
    endloop
  endfacet
  facet normal 0.587795 -0.80901 0
    outer loop
      vertex -1.5 2.59808 2
      vertex -1.5 2.59808 9
      vertex -2.00739 2.22943 9
    endloop
  endfacet
  facet normal 0 0 -1
    outer loop
      vertex -4.68391 5.20201 2
      vertex -3.5 6.06218 2
      vertex -2.00739 2.22943 2
    endloop
  endfacet
  facet normal 0 0 -1
    outer loop
      vertex -3.5 6.06218 2
      vertex -1.5 2.59808 2
      vertex -2.00739 2.22943 2
    endloop
  endfacet
  facet normal -0.264022 0.363394 -0.893441
    outer loop
      vertex -6.02218 6.6883 3
      vertex -4.5 7.79423 3
      vertex -4.68391 5.20201 2
    endloop
  endfacet
  facet normal -0.264024 0.363394 -0.893441
    outer loop
      vertex -4.5 7.79423 3
      vertex -3.5 6.06218 2
      vertex -4.68391 5.20201 2
    endloop
  endfacet
  facet normal 0.13286 -0.182866 -0.974119
    outer loop
      vertex -14.7209 16.3492 0
      vertex -11 19.0526 0
      vertex -6.02218 6.6883 3
    endloop
  endfacet
  facet normal 0.13286 -0.182866 -0.974119
    outer loop
      vertex -11 19.0526 0
      vertex -4.5 7.79423 3
      vertex -6.02218 6.6883 3
    endloop
  endfacet
  facet normal 0 0 -1
    outer loop
      vertex -15.39 17.0923 0
      vertex -11.5 19.9186 0
      vertex -14.7209 16.3492 0
    endloop
  endfacet
  facet normal 0 -0 -1
    outer loop
      vertex -11.5 19.9186 0
      vertex -11 19.0526 0
      vertex -14.7209 16.3492 0
    endloop
  endfacet
  facet normal -0.264017 0.363392 -0.893443
    outer loop
      vertex -16.7283 18.5786 1
      vertex -12.5 21.6506 1
      vertex -15.39 17.0923 0
    endloop
  endfacet
  facet normal -0.26403 0.363399 -0.893437
    outer loop
      vertex -12.5 21.6506 1
      vertex -11.5 19.9186 0
      vertex -15.39 17.0923 0
    endloop
  endfacet
  facet normal -0.58778 0.809021 0
    outer loop
      vertex -16.7283 18.5786 4
      vertex -12.5 21.6506 4
      vertex -16.7283 18.5786 1
    endloop
  endfacet
  facet normal -0.58778 0.809021 0
    outer loop
      vertex -12.5 21.6506 4
      vertex -12.5 21.6506 1
      vertex -16.7283 18.5786 1
    endloop
  endfacet
  facet normal -0.416765 0.57363 0.705164
    outer loop
      vertex -16.0591 17.8355 5
      vertex -12 20.7846 5
      vertex -16.7283 18.5786 4
    endloop
  endfacet
  facet normal -0.416768 0.573639 0.705155
    outer loop
      vertex -12 20.7846 5
      vertex -12.5 21.6506 4
      vertex -16.7283 18.5786 4
    endloop
  endfacet
  facet normal -0.152229 0.209525 0.965881
    outer loop
      vertex -6.02218 6.6883 9
      vertex -4.5 7.79423 9
      vertex -16.0591 17.8355 5
    endloop
  endfacet
  facet normal -0.152228 0.209525 0.965881
    outer loop
      vertex -4.5 7.79423 9
      vertex -12 20.7846 5
      vertex -16.0591 17.8355 5
    endloop
  endfacet
  facet normal 0 -0 1
    outer loop
      vertex -2.00739 2.22943 9
      vertex -1.5 2.59808 9
      vertex -6.02218 6.6883 9
    endloop
  endfacet
  facet normal 0 0 1
    outer loop
      vertex -1.5 2.59808 9
      vertex -4.5 7.79423 9
      vertex -6.02218 6.6883 9
    endloop
  endfacet
  facet normal 0.406732 -0.913547 0
    outer loop
      vertex -1.5 2.59808 2
      vertex -0.927051 2.85317 2
      vertex -1.5 2.59808 9
    endloop
  endfacet
  facet normal 0.406732 -0.913547 0
    outer loop
      vertex -0.927051 2.85317 2
      vertex -0.927051 2.85317 9
      vertex -1.5 2.59808 9
    endloop
  endfacet
  facet normal 0 0 -1
    outer loop
      vertex -3.5 6.06218 2
      vertex -2.16312 6.6574 2
      vertex -1.5 2.59808 2
    endloop
  endfacet
  facet normal 0 0 -1
    outer loop
      vertex -2.16312 6.6574 2
      vertex -0.927051 2.85317 2
      vertex -1.5 2.59808 2
    endloop
  endfacet
  facet normal -0.182698 0.410348 -0.893441
    outer loop
      vertex -4.5 7.79423 3
      vertex -2.78115 8.55951 3
      vertex -3.5 6.06218 2
    endloop
  endfacet
  facet normal -0.182699 0.410348 -0.89344
    outer loop
      vertex -2.78115 8.55951 3
      vertex -2.16312 6.6574 2
      vertex -3.5 6.06218 2
    endloop
  endfacet
  facet normal 0.0919331 -0.206495 -0.974119
    outer loop
      vertex -11 19.0526 0
      vertex -6.79837 20.9232 0
      vertex -4.5 7.79423 3
    endloop
  endfacet
  facet normal 0.0919368 -0.206494 -0.974119
    outer loop
      vertex -6.79837 20.9232 0
      vertex -2.78115 8.55951 3
      vertex -4.5 7.79423 3
    endloop
  endfacet
  facet normal 0 0 -1
    outer loop
      vertex -11.5 19.9186 0
      vertex -7.10739 21.8743 0
      vertex -11 19.0526 0
    endloop
  endfacet
  facet normal 0 -0 -1
    outer loop
      vertex -7.10739 21.8743 0
      vertex -6.79837 20.9232 0
      vertex -11 19.0526 0
    endloop
  endfacet
  facet normal -0.182703 0.410354 -0.893437
    outer loop
      vertex -12.5 21.6506 1
      vertex -7.72542 23.7764 1
      vertex -11.5 19.9186 0
    endloop
  endfacet
  facet normal -0.182698 0.41035 -0.89344
    outer loop
      vertex -7.72542 23.7764 1
      vertex -7.10739 21.8743 0
      vertex -11.5 19.9186 0
    endloop
  endfacet
  facet normal -0.40674 0.913544 0
    outer loop
      vertex -12.5 21.6506 4
      vertex -7.72542 23.7764 4
      vertex -12.5 21.6506 1
    endloop
  endfacet
  facet normal -0.40674 0.913544 0
    outer loop
      vertex -7.72542 23.7764 4
      vertex -7.72542 23.7764 1
      vertex -12.5 21.6506 1
    endloop
  endfacet
  facet normal -0.288405 0.64775 0.705154
    outer loop
      vertex -12 20.7846 5
      vertex -7.41641 22.8254 5
      vertex -12.5 21.6506 4
    endloop
  endfacet
  facet normal -0.288405 0.647763 0.705142
    outer loop
      vertex -7.41641 22.8254 5
      vertex -7.72542 23.7764 4
      vertex -12.5 21.6506 4
    endloop
  endfacet
  facet normal -0.105339 0.236597 0.965881
    outer loop
      vertex -4.5 7.79423 9
      vertex -2.78115 8.55951 9
      vertex -12 20.7846 5
    endloop
  endfacet
  facet normal -0.105342 0.236595 0.965881
    outer loop
      vertex -2.78115 8.55951 9
      vertex -7.41641 22.8254 5
      vertex -12 20.7846 5
    endloop
  endfacet
  facet normal 0 -0 1
    outer loop
      vertex -1.5 2.59808 9
      vertex -0.927051 2.85317 9
      vertex -4.5 7.79423 9
    endloop
  endfacet
  facet normal 0 0 1
    outer loop
      vertex -0.927051 2.85317 9
      vertex -2.78115 8.55951 9
      vertex -4.5 7.79423 9
    endloop
  endfacet
  facet normal 0.207917 -0.978146 0
    outer loop
      vertex -0.927051 2.85317 2
      vertex -0.313585 2.98357 2
      vertex -0.927051 2.85317 9
    endloop
  endfacet
  facet normal 0.207917 -0.978146 0
    outer loop
      vertex -0.313585 2.98357 2
      vertex -0.313585 2.98357 9
      vertex -0.927051 2.85317 9
    endloop
  endfacet
  facet normal 0 0 -1
    outer loop
      vertex -2.16312 6.6574 2
      vertex -0.731699 6.96165 2
      vertex -0.927051 2.85317 2
    endloop
  endfacet
  facet normal 0 -0 -1
    outer loop
      vertex -0.731699 6.96165 2
      vertex -0.313585 2.98357 2
      vertex -0.927051 2.85317 2
    endloop
  endfacet
  facet normal -0.0933906 0.439366 -0.89344
    outer loop
      vertex -2.78115 8.55951 3
      vertex -0.940756 8.9507 3
      vertex -2.16312 6.6574 2
    endloop
  endfacet
  facet normal -0.0933874 0.439365 -0.893441
    outer loop
      vertex -0.940756 8.9507 3
      vertex -0.731699 6.96165 2
      vertex -2.16312 6.6574 2
    endloop
  endfacet
  facet normal 0.0469984 -0.221095 -0.974119
    outer loop
      vertex -6.79837 20.9232 0
      vertex -2.29963 21.8795 0
      vertex -2.78115 8.55951 3
    endloop
  endfacet
  facet normal 0.0469955 -0.221095 -0.974119
    outer loop
      vertex -2.29963 21.8795 0
      vertex -0.940756 8.9507 3
      vertex -2.78115 8.55951 3
    endloop
  endfacet
  facet normal 0 0 -1
    outer loop
      vertex -7.10739 21.8743 0
      vertex -2.40415 22.874 0
      vertex -6.79837 20.9232 0
    endloop
  endfacet
  facet normal 0 -0 -1
    outer loop
      vertex -2.40415 22.874 0
      vertex -2.29963 21.8795 0
      vertex -6.79837 20.9232 0
    endloop
  endfacet
  facet normal -0.0933878 0.439369 -0.893439
    outer loop
      vertex -7.72542 23.7764 1
      vertex -2.61321 24.863 1
      vertex -7.10739 21.8743 0
    endloop
  endfacet
  facet normal -0.0933912 0.439373 -0.893437
    outer loop
      vertex -2.61321 24.863 1
      vertex -2.40415 22.874 0
      vertex -7.10739 21.8743 0
    endloop
  endfacet
  facet normal -0.207906 0.978149 0
    outer loop
      vertex -7.72542 23.7764 4
      vertex -2.61321 24.863 4
      vertex -7.72542 23.7764 1
    endloop
  endfacet
  facet normal -0.207906 0.978149 0
    outer loop
      vertex -2.61321 24.863 4
      vertex -2.61321 24.863 1
      vertex -7.72542 23.7764 1
    endloop
  endfacet
  facet normal -0.147414 0.693574 0.705141
    outer loop
      vertex -7.41641 22.8254 5
      vertex -2.50868 23.8685 5
      vertex -7.72542 23.7764 4
    endloop
  endfacet
  facet normal -0.147416 0.69356 0.705155
    outer loop
      vertex -2.50868 23.8685 5
      vertex -2.61321 24.863 4
      vertex -7.72542 23.7764 4
    endloop
  endfacet
  facet normal -0.0538466 0.253327 0.965881
    outer loop
      vertex -2.78115 8.55951 9
      vertex -0.940756 8.9507 9
      vertex -7.41641 22.8254 5
    endloop
  endfacet
  facet normal -0.053843 0.253328 0.965881
    outer loop
      vertex -0.940756 8.9507 9
      vertex -2.50868 23.8685 5
      vertex -7.41641 22.8254 5
    endloop
  endfacet
  facet normal 0 -0 1
    outer loop
      vertex -0.927051 2.85317 9
      vertex -0.313585 2.98357 9
      vertex -2.78115 8.55951 9
    endloop
  endfacet
  facet normal 0 0 1
    outer loop
      vertex -0.313585 2.98357 9
      vertex -0.940756 8.9507 9
      vertex -2.78115 8.55951 9
    endloop
  endfacet
  facet normal 0 -1 0
    outer loop
      vertex -0.313585 2.98357 2
      vertex 0.313585 2.98357 2
      vertex -0.313585 2.98357 9
    endloop
  endfacet
  facet normal 0 -1 0
    outer loop
      vertex 0.313585 2.98357 2
      vertex 0.313585 2.98357 9
      vertex -0.313585 2.98357 9
    endloop
  endfacet
  facet normal 0 0 -1
    outer loop
      vertex -0.731699 6.96165 2
      vertex 0.731699 6.96165 2
      vertex -0.313585 2.98357 2
    endloop
  endfacet
  facet normal 0 0 -1
    outer loop
      vertex 0.731699 6.96165 2
      vertex 0.313585 2.98357 2
      vertex -0.313585 2.98357 2
    endloop
  endfacet
  facet normal 0 0.44918 -0.893441
    outer loop
      vertex -0.940756 8.9507 3
      vertex 0.940756 8.9507 3
      vertex -0.731699 6.96165 2
    endloop
  endfacet
  facet normal 0 0.44918 -0.893441
    outer loop
      vertex 0.940756 8.9507 3
      vertex 0.731699 6.96165 2
      vertex -0.731699 6.96165 2
    endloop
  endfacet
  facet normal 0 -0.226035 -0.974119
    outer loop
      vertex -2.29963 21.8795 0
      vertex 2.29963 21.8795 0
      vertex -0.940756 8.9507 3
    endloop
  endfacet
  facet normal 0 -0.226035 -0.974119
    outer loop
      vertex 2.29963 21.8795 0
      vertex 0.940756 8.9507 3
      vertex -0.940756 8.9507 3
    endloop
  endfacet
  facet normal 0 0 -1
    outer loop
      vertex -2.40415 22.874 0
      vertex 2.40415 22.874 0
      vertex -2.29963 21.8795 0
    endloop
  endfacet
  facet normal 0 0 -1
    outer loop
      vertex 2.40415 22.874 0
      vertex 2.29963 21.8795 0
      vertex -2.29963 21.8795 0
    endloop
  endfacet
  facet normal 0 0.449189 -0.893437
    outer loop
      vertex -2.61321 24.863 1
      vertex 2.61321 24.863 1
      vertex -2.40415 22.874 0
    endloop
  endfacet
  facet normal 0 0.449189 -0.893437
    outer loop
      vertex 2.61321 24.863 1
      vertex 2.40415 22.874 0
      vertex -2.40415 22.874 0
    endloop
  endfacet
  facet normal -0 1 0
    outer loop
      vertex -2.61321 24.863 4
      vertex 2.61321 24.863 4
      vertex -2.61321 24.863 1
    endloop
  endfacet
  facet normal 0 1 0
    outer loop
      vertex 2.61321 24.863 4
      vertex 2.61321 24.863 1
      vertex -2.61321 24.863 1
    endloop
  endfacet
  facet normal -0 0.709054 0.705154
    outer loop
      vertex -2.50868 23.8685 5
      vertex 2.50868 23.8685 5
      vertex -2.61321 24.863 4
    endloop
  endfacet
  facet normal 0 0.709054 0.705154
    outer loop
      vertex 2.50868 23.8685 5
      vertex 2.61321 24.863 4
      vertex -2.61321 24.863 4
    endloop
  endfacet
  facet normal -0 0.258987 0.965881
    outer loop
      vertex -0.940756 8.9507 9
      vertex 0.940756 8.9507 9
      vertex -2.50868 23.8685 5
    endloop
  endfacet
  facet normal 0 0.258987 0.965881
    outer loop
      vertex 0.940756 8.9507 9
      vertex 2.50868 23.8685 5
      vertex -2.50868 23.8685 5
    endloop
  endfacet
  facet normal 0 -0 1
    outer loop
      vertex -0.313585 2.98357 9
      vertex 0.313585 2.98357 9
      vertex -0.940756 8.9507 9
    endloop
  endfacet
  facet normal 0 -0 1
    outer loop
      vertex 0.313585 2.98357 9
      vertex 0.940756 8.9507 9
      vertex -0.940756 8.9507 9
    endloop
  endfacet
  facet normal -0.207917 -0.978146 0
    outer loop
      vertex 0.313585 2.98357 2
      vertex 0.927051 2.85317 2
      vertex 0.313585 2.98357 9
    endloop
  endfacet
  facet normal -0.207917 -0.978146 0
    outer loop
      vertex 0.927051 2.85317 2
      vertex 0.927051 2.85317 9
      vertex 0.313585 2.98357 9
    endloop
  endfacet
  facet normal 0 -0 -1
    outer loop
      vertex 0.731699 6.96165 2
      vertex 2.16312 6.6574 2
      vertex 0.313585 2.98357 2
    endloop
  endfacet
  facet normal 0 0 -1
    outer loop
      vertex 2.16312 6.6574 2
      vertex 0.927051 2.85317 2
      vertex 0.313585 2.98357 2
    endloop
  endfacet
  facet normal 0.0933903 0.439364 -0.893441
    outer loop
      vertex 0.940756 8.9507 3
      vertex 2.78115 8.55951 3
      vertex 0.731699 6.96165 2
    endloop
  endfacet
  facet normal 0.0933878 0.439367 -0.89344
    outer loop
      vertex 2.78115 8.55951 3
      vertex 2.16312 6.6574 2
      vertex 0.731699 6.96165 2
    endloop
  endfacet
  facet normal -0.0469983 -0.221095 -0.974119
    outer loop
      vertex 2.29963 21.8795 0
      vertex 6.79837 20.9232 0
      vertex 0.940756 8.9507 3
    endloop
  endfacet
  facet normal -0.0469957 -0.221096 -0.974119
    outer loop
      vertex 6.79837 20.9232 0
      vertex 2.78115 8.55951 3
      vertex 0.940756 8.9507 3
    endloop
  endfacet
  facet normal 0 -0 -1
    outer loop
      vertex 2.40415 22.874 0
      vertex 7.10739 21.8743 0
      vertex 2.29963 21.8795 0
    endloop
  endfacet
  facet normal -0 0 -1
    outer loop
      vertex 7.10739 21.8743 0
      vertex 6.79837 20.9232 0
      vertex 2.29963 21.8795 0
    endloop
  endfacet
  facet normal 0.0933887 0.439373 -0.893437
    outer loop
      vertex 2.61321 24.863 1
      vertex 7.72542 23.7764 1
      vertex 2.40415 22.874 0
    endloop
  endfacet
  facet normal 0.0933901 0.439368 -0.89344
    outer loop
      vertex 7.72542 23.7764 1
      vertex 7.10739 21.8743 0
      vertex 2.40415 22.874 0
    endloop
  endfacet
  facet normal 0.207906 0.978149 0
    outer loop
      vertex 2.61321 24.863 4
      vertex 7.72542 23.7764 4
      vertex 2.61321 24.863 1
    endloop
  endfacet
  facet normal 0.207906 0.978149 0
    outer loop
      vertex 7.72542 23.7764 4
      vertex 7.72542 23.7764 1
      vertex 2.61321 24.863 1
    endloop
  endfacet
  facet normal 0.147411 0.693561 0.705155
    outer loop
      vertex 2.50868 23.8685 5
      vertex 7.41641 22.8254 5
      vertex 2.61321 24.863 4
    endloop
  endfacet
  facet normal 0.147419 0.693573 0.705142
    outer loop
      vertex 7.41641 22.8254 5
      vertex 7.72542 23.7764 4
      vertex 2.61321 24.863 4
    endloop
  endfacet
  facet normal 0.0538468 0.253328 0.965881
    outer loop
      vertex 0.940756 8.9507 9
      vertex 2.78115 8.55951 9
      vertex 2.50868 23.8685 5
    endloop
  endfacet
  facet normal 0.0538429 0.253328 0.965881
    outer loop
      vertex 2.78115 8.55951 9
      vertex 7.41641 22.8254 5
      vertex 2.50868 23.8685 5
    endloop
  endfacet
  facet normal -0 0 1
    outer loop
      vertex 0.313585 2.98357 9
      vertex 0.927051 2.85317 9
      vertex 0.940756 8.9507 9
    endloop
  endfacet
  facet normal 0 0 1
    outer loop
      vertex 0.927051 2.85317 9
      vertex 2.78115 8.55951 9
      vertex 0.940756 8.9507 9
    endloop
  endfacet
  facet normal -0.406732 -0.913547 0
    outer loop
      vertex 0.927051 2.85317 2
      vertex 1.5 2.59808 2
      vertex 0.927051 2.85317 9
    endloop
  endfacet
  facet normal -0.406732 -0.913547 0
    outer loop
      vertex 1.5 2.59808 2
      vertex 1.5 2.59808 9
      vertex 0.927051 2.85317 9
    endloop
  endfacet
  facet normal 0 -0 -1
    outer loop
      vertex 2.16312 6.6574 2
      vertex 3.5 6.06218 2
      vertex 0.927051 2.85317 2
    endloop
  endfacet
  facet normal 0 0 -1
    outer loop
      vertex 3.5 6.06218 2
      vertex 1.5 2.59808 2
      vertex 0.927051 2.85317 2
    endloop
  endfacet
  facet normal 0.182698 0.410348 -0.89344
    outer loop
      vertex 2.78115 8.55951 3
      vertex 4.5 7.79423 3
      vertex 2.16312 6.6574 2
    endloop
  endfacet
  facet normal 0.182699 0.410347 -0.893441
    outer loop
      vertex 4.5 7.79423 3
      vertex 3.5 6.06218 2
      vertex 2.16312 6.6574 2
    endloop
  endfacet
  facet normal -0.0919333 -0.206495 -0.974119
    outer loop
      vertex 6.79837 20.9232 0
      vertex 11 19.0526 0
      vertex 2.78115 8.55951 3
    endloop
  endfacet
  facet normal -0.0919363 -0.206493 -0.974119
    outer loop
      vertex 11 19.0526 0
      vertex 4.5 7.79423 3
      vertex 2.78115 8.55951 3
    endloop
  endfacet
  facet normal 0 -0 -1
    outer loop
      vertex 7.10739 21.8743 0
      vertex 11.5 19.9186 0
      vertex 6.79837 20.9232 0
    endloop
  endfacet
  facet normal -0 0 -1
    outer loop
      vertex 11.5 19.9186 0
      vertex 11 19.0526 0
      vertex 6.79837 20.9232 0
    endloop
  endfacet
  facet normal 0.182701 0.410349 -0.893439
    outer loop
      vertex 7.72542 23.7764 1
      vertex 12.5 21.6506 1
      vertex 7.10739 21.8743 0
    endloop
  endfacet
  facet normal 0.182701 0.410356 -0.893436
    outer loop
      vertex 12.5 21.6506 1
      vertex 11.5 19.9186 0
      vertex 7.10739 21.8743 0
    endloop
  endfacet
  facet normal 0.40674 0.913544 0
    outer loop
      vertex 7.72542 23.7764 4
      vertex 12.5 21.6506 4
      vertex 7.72542 23.7764 1
    endloop
  endfacet
  facet normal 0.40674 0.913544 0
    outer loop
      vertex 12.5 21.6506 4
      vertex 12.5 21.6506 1
      vertex 7.72542 23.7764 1
    endloop
  endfacet
  facet normal 0.288409 0.647761 0.705142
    outer loop
      vertex 7.41641 22.8254 5
      vertex 12 20.7846 5
      vertex 7.72542 23.7764 4
    endloop
  endfacet
  facet normal 0.288401 0.647752 0.705154
    outer loop
      vertex 12 20.7846 5
      vertex 12.5 21.6506 4
      vertex 7.72542 23.7764 4
    endloop
  endfacet
  facet normal 0.105339 0.236596 0.965881
    outer loop
      vertex 2.78115 8.55951 9
      vertex 4.5 7.79423 9
      vertex 7.41641 22.8254 5
    endloop
  endfacet
  facet normal 0.105342 0.236595 0.965881
    outer loop
      vertex 4.5 7.79423 9
      vertex 12 20.7846 5
      vertex 7.41641 22.8254 5
    endloop
  endfacet
  facet normal -0 0 1
    outer loop
      vertex 0.927051 2.85317 9
      vertex 1.5 2.59808 9
      vertex 2.78115 8.55951 9
    endloop
  endfacet
  facet normal 0 0 1
    outer loop
      vertex 1.5 2.59808 9
      vertex 4.5 7.79423 9
      vertex 2.78115 8.55951 9
    endloop
  endfacet
  facet normal -0.587795 -0.80901 0
    outer loop
      vertex 1.5 2.59808 2
      vertex 2.00739 2.22943 2
      vertex 1.5 2.59808 9
    endloop
  endfacet
  facet normal -0.587795 -0.80901 0
    outer loop
      vertex 2.00739 2.22943 2
      vertex 2.00739 2.22943 9
      vertex 1.5 2.59808 9
    endloop
  endfacet
  facet normal 0 -0 -1
    outer loop
      vertex 3.5 6.06218 2
      vertex 4.68391 5.20201 2
      vertex 1.5 2.59808 2
    endloop
  endfacet
  facet normal 0 0 -1
    outer loop
      vertex 4.68391 5.20201 2
      vertex 2.00739 2.22943 2
      vertex 1.5 2.59808 2
    endloop
  endfacet
  facet normal 0.264022 0.363395 -0.893441
    outer loop
      vertex 4.5 7.79423 3
      vertex 6.02218 6.6883 3
      vertex 3.5 6.06218 2
    endloop
  endfacet
  facet normal 0.264023 0.363393 -0.893441
    outer loop
      vertex 6.02218 6.6883 3
      vertex 4.68391 5.20201 2
      vertex 3.5 6.06218 2
    endloop
  endfacet
  facet normal -0.13286 -0.182866 -0.974119
    outer loop
      vertex 11 19.0526 0
      vertex 14.7209 16.3492 0
      vertex 4.5 7.79423 3
    endloop
  endfacet
  facet normal -0.13286 -0.182866 -0.974119
    outer loop
      vertex 14.7209 16.3492 0
      vertex 6.02218 6.6883 3
      vertex 4.5 7.79423 3
    endloop
  endfacet
  facet normal 0 -0 -1
    outer loop
      vertex 11.5 19.9186 0
      vertex 15.39 17.0923 0
      vertex 11 19.0526 0
    endloop
  endfacet
  facet normal -0 0 -1
    outer loop
      vertex 15.39 17.0923 0
      vertex 14.7209 16.3492 0
      vertex 11 19.0526 0
    endloop
  endfacet
  facet normal 0.264024 0.363403 -0.893437
    outer loop
      vertex 12.5 21.6506 1
      vertex 16.7283 18.5786 1
      vertex 11.5 19.9186 0
    endloop
  endfacet
  facet normal 0.264022 0.363388 -0.893444
    outer loop
      vertex 16.7283 18.5786 1
      vertex 15.39 17.0923 0
      vertex 11.5 19.9186 0
    endloop
  endfacet
  facet normal 0.58778 0.809021 0
    outer loop
      vertex 12.5 21.6506 4
      vertex 16.7283 18.5786 4
      vertex 12.5 21.6506 1
    endloop
  endfacet
  facet normal 0.58778 0.809021 0
    outer loop
      vertex 16.7283 18.5786 4
      vertex 16.7283 18.5786 1
      vertex 12.5 21.6506 1
    endloop
  endfacet
  facet normal 0.41677 0.573637 0.705155
    outer loop
      vertex 12 20.7846 5
      vertex 16.0591 17.8355 5
      vertex 12.5 21.6506 4
    endloop
  endfacet
  facet normal 0.416763 0.573632 0.705163
    outer loop
      vertex 16.0591 17.8355 5
      vertex 16.7283 18.5786 4
      vertex 12.5 21.6506 4
    endloop
  endfacet
  facet normal 0.152229 0.209525 0.965881
    outer loop
      vertex 4.5 7.79423 9
      vertex 6.02218 6.6883 9
      vertex 12 20.7846 5
    endloop
  endfacet
  facet normal 0.152228 0.209525 0.965881
    outer loop
      vertex 6.02218 6.6883 9
      vertex 16.0591 17.8355 5
      vertex 12 20.7846 5
    endloop
  endfacet
  facet normal -0 0 1
    outer loop
      vertex 1.5 2.59808 9
      vertex 2.00739 2.22943 9
      vertex 4.5 7.79423 9
    endloop
  endfacet
  facet normal 0 0 1
    outer loop
      vertex 2.00739 2.22943 9
      vertex 6.02218 6.6883 9
      vertex 4.5 7.79423 9
    endloop
  endfacet
  facet normal -0.743138 -0.669138 0
    outer loop
      vertex 2.00739 2.22943 2
      vertex 2.42705 1.76336 2
      vertex 2.00739 2.22943 9
    endloop
  endfacet
  facet normal -0.743138 -0.669138 0
    outer loop
      vertex 2.42705 1.76336 2
      vertex 2.42705 1.76336 9
      vertex 2.00739 2.22943 9
    endloop
  endfacet
  facet normal 0 -0 -1
    outer loop
      vertex 4.68391 5.20201 2
      vertex 5.66312 4.1145 2
      vertex 2.00739 2.22943 2
    endloop
  endfacet
  facet normal 0 0 -1
    outer loop
      vertex 5.66312 4.1145 2
      vertex 2.42705 1.76336 2
      vertex 2.00739 2.22943 2
    endloop
  endfacet
  facet normal 0.333806 0.30056 -0.893441
    outer loop
      vertex 6.02218 6.6883 3
      vertex 7.28115 5.29007 3
      vertex 4.68391 5.20201 2
    endloop
  endfacet
  facet normal 0.333805 0.300563 -0.89344
    outer loop
      vertex 7.28115 5.29007 3
      vertex 5.66312 4.1145 2
      vertex 4.68391 5.20201 2
    endloop
  endfacet
  facet normal -0.167976 -0.151247 -0.974119
    outer loop
      vertex 14.7209 16.3492 0
      vertex 17.7984 12.9313 0
      vertex 6.02218 6.6883 3
    endloop
  endfacet
  facet normal -0.167976 -0.151246 -0.974119
    outer loop
      vertex 17.7984 12.9313 0
      vertex 7.28115 5.29007 3
      vertex 6.02218 6.6883 3
    endloop
  endfacet
  facet normal 0 -0 -1
    outer loop
      vertex 15.39 17.0923 0
      vertex 18.6074 13.5191 0
      vertex 14.7209 16.3492 0
    endloop
  endfacet
  facet normal -0 0 -1
    outer loop
      vertex 18.6074 13.5191 0
      vertex 17.7984 12.9313 0
      vertex 14.7209 16.3492 0
    endloop
  endfacet
  facet normal 0.333805 0.300553 -0.893444
    outer loop
      vertex 16.7283 18.5786 1
      vertex 20.2254 14.6946 1
      vertex 15.39 17.0923 0
    endloop
  endfacet
  facet normal 0.333813 0.300574 -0.893434
    outer loop
      vertex 20.2254 14.6946 1
      vertex 18.6074 13.5191 0
      vertex 15.39 17.0923 0
    endloop
  endfacet
  facet normal 0.743151 0.669123 0
    outer loop
      vertex 16.7283 18.5786 4
      vertex 20.2254 14.6946 4
      vertex 16.7283 18.5786 1
    endloop
  endfacet
  facet normal 0.743151 0.669123 0
    outer loop
      vertex 20.2254 14.6946 4
      vertex 20.2254 14.6946 1
      vertex 16.7283 18.5786 1
    endloop
  endfacet
  facet normal 0.526921 0.474437 0.705169
    outer loop
      vertex 16.0591 17.8355 5
      vertex 19.4164 14.1068 5
      vertex 16.7283 18.5786 4
    endloop
  endfacet
  facet normal 0.526929 0.47444 0.705161
    outer loop
      vertex 19.4164 14.1068 5
      vertex 20.2254 14.6946 4
      vertex 16.7283 18.5786 4
    endloop
  endfacet
  facet normal 0.192465 0.173296 0.965881
    outer loop
      vertex 6.02218 6.6883 9
      vertex 7.28115 5.29007 9
      vertex 16.0591 17.8355 5
    endloop
  endfacet
  facet normal 0.192466 0.173295 0.965881
    outer loop
      vertex 7.28115 5.29007 9
      vertex 19.4164 14.1068 5
      vertex 16.0591 17.8355 5
    endloop
  endfacet
  facet normal -0 0 1
    outer loop
      vertex 2.00739 2.22943 9
      vertex 2.42705 1.76336 9
      vertex 6.02218 6.6883 9
    endloop
  endfacet
  facet normal 0 0 1
    outer loop
      vertex 2.42705 1.76336 9
      vertex 7.28115 5.29007 9
      vertex 6.02218 6.6883 9
    endloop
  endfacet
  facet normal -0.866024 -0.500003 0
    outer loop
      vertex 2.42705 1.76336 2
      vertex 2.74064 1.22021 2
      vertex 2.42705 1.76336 9
    endloop
  endfacet
  facet normal -0.866024 -0.500003 0
    outer loop
      vertex 2.74064 1.22021 2
      vertex 2.74064 1.22021 9
      vertex 2.42705 1.76336 9
    endloop
  endfacet
  facet normal 0 -0 -1
    outer loop
      vertex 5.66312 4.1145 2
      vertex 6.39482 2.84716 2
      vertex 2.42705 1.76336 2
    endloop
  endfacet
  facet normal 0 0 -1
    outer loop
      vertex 6.39482 2.84716 2
      vertex 2.74064 1.22021 2
      vertex 2.42705 1.76336 2
    endloop
  endfacet
  facet normal 0.389002 0.224591 -0.89344
    outer loop
      vertex 7.28115 5.29007 3
      vertex 8.22191 3.66063 3
      vertex 5.66312 4.1145 2
    endloop
  endfacet
  facet normal 0.389002 0.224591 -0.893441
    outer loop
      vertex 8.22191 3.66063 3
      vertex 6.39482 2.84716 2
      vertex 5.66312 4.1145 2
    endloop
  endfacet
  facet normal -0.195752 -0.113016 -0.974119
    outer loop
      vertex 17.7984 12.9313 0
      vertex 20.098 8.94821 0
      vertex 7.28115 5.29007 3
    endloop
  endfacet
  facet normal -0.195752 -0.113018 -0.974119
    outer loop
      vertex 20.098 8.94821 0
      vertex 8.22191 3.66063 3
      vertex 7.28115 5.29007 3
    endloop
  endfacet
  facet normal 0 -0 -1
    outer loop
      vertex 18.6074 13.5191 0
      vertex 21.0115 9.35494 0
      vertex 17.7984 12.9313 0
    endloop
  endfacet
  facet normal -0 0 -1
    outer loop
      vertex 21.0115 9.35494 0
      vertex 20.098 8.94821 0
      vertex 17.7984 12.9313 0
    endloop
  endfacet
  facet normal 0.389012 0.224596 -0.893435
    outer loop
      vertex 20.2254 14.6946 1
      vertex 22.8386 10.1684 1
      vertex 18.6074 13.5191 0
    endloop
  endfacet
  facet normal 0.389005 0.224585 -0.893441
    outer loop
      vertex 22.8386 10.1684 1
      vertex 21.0115 9.35494 0
      vertex 18.6074 13.5191 0
    endloop
  endfacet
  facet normal 0.866026 0.5 0
    outer loop
      vertex 20.2254 14.6946 4
      vertex 22.8386 10.1684 4
      vertex 20.2254 14.6946 1
    endloop
  endfacet
  facet normal 0.866026 0.5 0
    outer loop
      vertex 22.8386 10.1684 4
      vertex 22.8386 10.1684 1
      vertex 20.2254 14.6946 1
    endloop
  endfacet
  facet normal 0.614051 0.354529 0.70516
    outer loop
      vertex 19.4164 14.1068 5
      vertex 21.9251 9.76168 5
      vertex 20.2254 14.6946 4
    endloop
  endfacet
  facet normal 0.614067 0.354531 0.705145
    outer loop
      vertex 21.9251 9.76168 5
      vertex 22.8386 10.1684 4
      vertex 20.2254 14.6946 4
    endloop
  endfacet
  facet normal 0.22429 0.129494 0.965881
    outer loop
      vertex 7.28115 5.29007 9
      vertex 8.22191 3.66063 9
      vertex 19.4164 14.1068 5
    endloop
  endfacet
  facet normal 0.224288 0.129495 0.965881
    outer loop
      vertex 8.22191 3.66063 9
      vertex 21.9251 9.76168 5
      vertex 19.4164 14.1068 5
    endloop
  endfacet
  facet normal -0 0 1
    outer loop
      vertex 2.42705 1.76336 9
      vertex 2.74064 1.22021 9
      vertex 7.28115 5.29007 9
    endloop
  endfacet
  facet normal 0 0 1
    outer loop
      vertex 2.74064 1.22021 9
      vertex 8.22191 3.66063 9
      vertex 7.28115 5.29007 9
    endloop
  endfacet
  facet normal -0.95106 -0.309008 0
    outer loop
      vertex 2.74064 1.22021 2
      vertex 2.93444 0.623735 2
      vertex 2.74064 1.22021 9
    endloop
  endfacet
  facet normal -0.95106 -0.309008 0
    outer loop
      vertex 2.93444 0.623735 2
      vertex 2.93444 0.623735 9
      vertex 2.74064 1.22021 9
    endloop
  endfacet
  facet normal 0 -0 -1
    outer loop
      vertex 6.39482 2.84716 2
      vertex 6.84703 1.45538 2
      vertex 2.74064 1.22021 2
    endloop
  endfacet
  facet normal 0 0 -1
    outer loop
      vertex 6.84703 1.45538 2
      vertex 2.93444 0.623735 2
      vertex 2.74064 1.22021 2
    endloop
  endfacet
  facet normal 0.427197 0.138805 -0.893441
    outer loop
      vertex 8.22191 3.66063 3
      vertex 8.80333 1.87121 3
      vertex 6.39482 2.84716 2
    endloop
  endfacet
  facet normal 0.427196 0.138802 -0.893441
    outer loop
      vertex 8.80333 1.87121 3
      vertex 6.84703 1.45538 2
      vertex 6.39482 2.84716 2
    endloop
  endfacet
  facet normal -0.214973 -0.0698466 -0.974119
    outer loop
      vertex 20.098 8.94821 0
      vertex 21.5192 4.57406 0
      vertex 8.22191 3.66063 3
    endloop
  endfacet
  facet normal -0.214973 -0.0698491 -0.974119
    outer loop
      vertex 21.5192 4.57406 0
      vertex 8.80333 1.87121 3
      vertex 8.22191 3.66063 3
    endloop
  endfacet
  facet normal 0 -0 -1
    outer loop
      vertex 21.0115 9.35494 0
      vertex 22.4974 4.78197 0
      vertex 20.098 8.94821 0
    endloop
  endfacet
  facet normal -0 0 -1
    outer loop
      vertex 22.4974 4.78197 0
      vertex 21.5192 4.57406 0
      vertex 20.098 8.94821 0
    endloop
  endfacet
  facet normal 0.427194 0.138808 -0.893441
    outer loop
      vertex 22.8386 10.1684 1
      vertex 24.4537 5.19779 1
      vertex 21.0115 9.35494 0
    endloop
  endfacet
  facet normal 0.427195 0.138809 -0.893441
    outer loop
      vertex 24.4537 5.19779 1
      vertex 22.4974 4.78197 0
      vertex 21.0115 9.35494 0
    endloop
  endfacet
  facet normal 0.951054 0.309026 0
    outer loop
      vertex 22.8386 10.1684 4
      vertex 24.4537 5.19779 4
      vertex 22.8386 10.1684 1
    endloop
  endfacet
  facet normal 0.951054 0.309026 0
    outer loop
      vertex 24.4537 5.19779 4
      vertex 24.4537 5.19779 1
      vertex 22.8386 10.1684 1
    endloop
  endfacet
  facet normal 0.674362 0.219106 0.705144
    outer loop
      vertex 21.9251 9.76168 5
      vertex 23.4755 4.98988 5
      vertex 22.8386 10.1684 4
    endloop
  endfacet
  facet normal 0.674325 0.219108 0.705179
    outer loop
      vertex 23.4755 4.98988 5
      vertex 24.4537 5.19779 4
      vertex 22.8386 10.1684 4
    endloop
  endfacet
  facet normal 0.246311 0.0800316 0.965881
    outer loop
      vertex 8.22191 3.66063 9
      vertex 8.80333 1.87121 9
      vertex 21.9251 9.76168 5
    endloop
  endfacet
  facet normal 0.246312 0.0800291 0.965881
    outer loop
      vertex 8.80333 1.87121 9
      vertex 23.4755 4.98988 5
      vertex 21.9251 9.76168 5
    endloop
  endfacet
  facet normal -0 0 1
    outer loop
      vertex 2.74064 1.22021 9
      vertex 2.93444 0.623735 9
      vertex 8.22191 3.66063 9
    endloop
  endfacet
  facet normal 0 0 1
    outer loop
      vertex 2.93444 0.623735 9
      vertex 8.80333 1.87121 9
      vertex 8.22191 3.66063 9
    endloop
  endfacet
  facet normal -0.994521 -0.104533 0
    outer loop
      vertex 2.93444 0.623735 2
      vertex 3 0 2
      vertex 2.93444 0.623735 9
    endloop
  endfacet
  facet normal -0.994521 -0.104533 0
    outer loop
      vertex 3 0 2
      vertex 3 0 9
      vertex 2.93444 0.623735 9
    endloop
  endfacet
  facet normal 0 -0 -1
    outer loop
      vertex 6.84703 1.45538 2
      vertex 7 0 2
      vertex 2.93444 0.623735 2
    endloop
  endfacet
  facet normal 0 0 -1
    outer loop
      vertex 7 0 2
      vertex 3 0 2
      vertex 2.93444 0.623735 2
    endloop
  endfacet
  facet normal 0.446719 0.0469516 -0.893441
    outer loop
      vertex 8.80333 1.87121 3
      vertex 9 0 3
      vertex 6.84703 1.45538 2
    endloop
  endfacet
  facet normal 0.44672 0.0469532 -0.893441
    outer loop
      vertex 9 0 3
      vertex 7 0 2
      vertex 6.84703 1.45538 2
    endloop
  endfacet
  facet normal -0.224797 -0.0236294 -0.974119
    outer loop
      vertex 21.5192 4.57406 0
      vertex 22 0 0
      vertex 8.80333 1.87121 3
    endloop
  endfacet
  facet normal -0.224797 -0.0236268 -0.974119
    outer loop
      vertex 22 0 0
      vertex 9 0 3
      vertex 8.80333 1.87121 3
    endloop
  endfacet
  facet normal 0 -0 -1
    outer loop
      vertex 22.4974 4.78197 0
      vertex 23 0 0
      vertex 21.5192 4.57406 0
    endloop
  endfacet
  facet normal 0 0 -1
    outer loop
      vertex 23 0 0
      vertex 22 0 0
      vertex 21.5192 4.57406 0
    endloop
  endfacet
  facet normal 0.44672 0.0469513 -0.893441
    outer loop
      vertex 24.4537 5.19779 1
      vertex 25 0 1
      vertex 22.4974 4.78197 0
    endloop
  endfacet
  facet normal 0.44672 0.0469517 -0.893441
    outer loop
      vertex 25 0 1
      vertex 23 0 0
      vertex 22.4974 4.78197 0
    endloop
  endfacet
  facet normal 0.994522 0.104527 0
    outer loop
      vertex 24.4537 5.19779 4
      vertex 25 0 4
      vertex 24.4537 5.19779 1
    endloop
  endfacet
  facet normal 0.994522 0.104527 0
    outer loop
      vertex 25 0 4
      vertex 25 0 1
      vertex 24.4537 5.19779 1
    endloop
  endfacet
  facet normal 0.705143 0.0741195 0.705181
    outer loop
      vertex 23.4755 4.98988 5
      vertex 24 0 5
      vertex 24.4537 5.19779 4
    endloop
  endfacet
  facet normal 0.705162 0.0741142 0.705162
    outer loop
      vertex 24 0 5
      vertex 25 0 4
      vertex 24.4537 5.19779 4
    endloop
  endfacet
  facet normal 0.257569 0.0270713 0.965881
    outer loop
      vertex 8.80333 1.87121 9
      vertex 9 0 9
      vertex 23.4755 4.98988 5
    endloop
  endfacet
  facet normal 0.257568 0.0270737 0.965881
    outer loop
      vertex 9 0 9
      vertex 24 0 5
      vertex 23.4755 4.98988 5
    endloop
  endfacet
  facet normal -0 0 1
    outer loop
      vertex 2.93444 0.623735 9
      vertex 3 0 9
      vertex 8.80333 1.87121 9
    endloop
  endfacet
  facet normal 0 0 1
    outer loop
      vertex 3 0 9
      vertex 9 0 9
      vertex 8.80333 1.87121 9
    endloop
  endfacet
endsolid OpenSCAD_Model
