solid OpenSCAD_Model
  facet normal -1 0 0
    outer loop
      vertex 0 0 0
      vertex 0 190 0.95
      vertex 0 190 0
    endloop
  endfacet
  facet normal -1 -0 0
    outer loop
      vertex 0 190 0.95
      vertex 0 0 0
      vertex 0 0 0.95
    endloop
  endfacet
  facet normal 0 0 1
    outer loop
      vertex 190 190 0.95
      vertex 189.5 189.5 0.95
      vertex 190 0 0.95
    endloop
  endfacet
  facet normal 0 0 1
    outer loop
      vertex 190 190 0.95
      vertex 0.5 189.5 0.95
      vertex 189.5 189.5 0.95
    endloop
  endfacet
  facet normal 0 0 1
    outer loop
      vertex 0.5 189.5 0.95
      vertex 0 190 0.95
      vertex 0.5 0.5 0.95
    endloop
  endfacet
  facet normal -0 0 1
    outer loop
      vertex 0 190 0.95
      vertex 0.5 189.5 0.95
      vertex 190 190 0.95
    endloop
  endfacet
  facet normal -0 0 1
    outer loop
      vertex 189.5 0.5 0.95
      vertex 190 0 0.95
      vertex 189.5 189.5 0.95
    endloop
  endfacet
  facet normal -0 0 1
    outer loop
      vertex 0.5 0.5 0.95
      vertex 190 0 0.95
      vertex 189.5 0.5 0.95
    endloop
  endfacet
  facet normal 0 0 1
    outer loop
      vertex 0.5 0.5 0.95
      vertex 0 0 0.95
      vertex 190 0 0.95
    endloop
  endfacet
  facet normal 0 0 1
    outer loop
      vertex 0 0 0.95
      vertex 0.5 0.5 0.95
      vertex 0 190 0.95
    endloop
  endfacet
  facet normal 1 -0 0
    outer loop
      vertex 190 0 0.95
      vertex 190 190 0
      vertex 190 190 0.95
    endloop
  endfacet
  facet normal 1 0 0
    outer loop
      vertex 190 190 0
      vertex 190 0 0.95
      vertex 190 0 0
    endloop
  endfacet
  facet normal 0 1 -0
    outer loop
      vertex 190 190 0
      vertex 0 190 0.95
      vertex 190 190 0.95
    endloop
  endfacet
  facet normal 0 1 0
    outer loop
      vertex 0 190 0.95
      vertex 190 190 0
      vertex 0 190 0
    endloop
  endfacet
  facet normal 0 0 -1
    outer loop
      vertex 190 0 0
      vertex 189.5 0.5 0
      vertex 190 190 0
    endloop
  endfacet
  facet normal 0 0 -1
    outer loop
      vertex 190 0 0
      vertex 0.5 0.5 0
      vertex 189.5 0.5 0
    endloop
  endfacet
  facet normal -0 0 -1
    outer loop
      vertex 0.5 0.5 0
      vertex 0 0 0
      vertex 0.5 189.5 0
    endloop
  endfacet
  facet normal 0 0 -1
    outer loop
      vertex 0 0 0
      vertex 0.5 0.5 0
      vertex 190 0 0
    endloop
  endfacet
  facet normal 0 0 -1
    outer loop
      vertex 189.5 189.5 0
      vertex 190 190 0
      vertex 189.5 0.5 0
    endloop
  endfacet
  facet normal 0 0 -1
    outer loop
      vertex 0.5 189.5 0
      vertex 190 190 0
      vertex 189.5 189.5 0
    endloop
  endfacet
  facet normal 0 0 -1
    outer loop
      vertex 0.5 189.5 0
      vertex 0 190 0
      vertex 190 190 0
    endloop
  endfacet
  facet normal 0 0 -1
    outer loop
      vertex 0 190 0
      vertex 0.5 189.5 0
      vertex 0 0 0
    endloop
  endfacet
  facet normal 0 -1 0
    outer loop
      vertex 0 0 0
      vertex 190 0 0.95
      vertex 0 0 0.95
    endloop
  endfacet
  facet normal 0 -1 -0
    outer loop
      vertex 190 0 0.95
      vertex 0 0 0
      vertex 190 0 0
    endloop
  endfacet
  facet normal 1 -0 0
    outer loop
      vertex 0.5 0.5 0.95
      vertex 0.5 189.5 0
      vertex 0.5 189.5 0.95
    endloop
  endfacet
  facet normal 1 0 0
    outer loop
      vertex 0.5 189.5 0
      vertex 0.5 0.5 0.95
      vertex 0.5 0.5 0
    endloop
  endfacet
  facet normal -1 0 0
    outer loop
      vertex 189.5 0.5 0
      vertex 189.5 189.5 0.95
      vertex 189.5 189.5 0
    endloop
  endfacet
  facet normal -1 -0 0
    outer loop
      vertex 189.5 189.5 0.95
      vertex 189.5 0.5 0
      vertex 189.5 0.5 0.95
    endloop
  endfacet
  facet normal 0 1 -0
    outer loop
      vertex 189.5 0.5 0
      vertex 0.5 0.5 0.95
      vertex 189.5 0.5 0.95
    endloop
  endfacet
  facet normal 0 1 0
    outer loop
      vertex 0.5 0.5 0.95
      vertex 189.5 0.5 0
      vertex 0.5 0.5 0
    endloop
  endfacet
  facet normal 0 -1 0
    outer loop
      vertex 0.5 189.5 0
      vertex 189.5 189.5 0.95
      vertex 0.5 189.5 0.95
    endloop
  endfacet
  facet normal 0 -1 -0
    outer loop
      vertex 189.5 189.5 0.95
      vertex 0.5 189.5 0
      vertex 189.5 189.5 0
    endloop
  endfacet
endsolid OpenSCAD_Model
