solid OpenSCAD_Model
  facet normal -1 0 0
    outer loop
      vertex 0 0 0
      vertex 0 180 0.9
      vertex 0 180 0
    endloop
  endfacet
  facet normal -1 -0 0
    outer loop
      vertex 0 180 0.9
      vertex 0 0 0
      vertex 0 0 0.9
    endloop
  endfacet
  facet normal 0 0 1
    outer loop
      vertex 180 180 0.9
      vertex 179.5 179.5 0.9
      vertex 180 0 0.9
    endloop
  endfacet
  facet normal 0 0 1
    outer loop
      vertex 180 180 0.9
      vertex 0.5 179.5 0.9
      vertex 179.5 179.5 0.9
    endloop
  endfacet
  facet normal 0 0 1
    outer loop
      vertex 0.5 179.5 0.9
      vertex 0 180 0.9
      vertex 0.5 0.5 0.9
    endloop
  endfacet
  facet normal -0 0 1
    outer loop
      vertex 0 180 0.9
      vertex 0.5 179.5 0.9
      vertex 180 180 0.9
    endloop
  endfacet
  facet normal -0 0 1
    outer loop
      vertex 179.5 0.5 0.9
      vertex 180 0 0.9
      vertex 179.5 179.5 0.9
    endloop
  endfacet
  facet normal -0 0 1
    outer loop
      vertex 0.5 0.5 0.9
      vertex 180 0 0.9
      vertex 179.5 0.5 0.9
    endloop
  endfacet
  facet normal 0 0 1
    outer loop
      vertex 0.5 0.5 0.9
      vertex 0 0 0.9
      vertex 180 0 0.9
    endloop
  endfacet
  facet normal 0 0 1
    outer loop
      vertex 0 0 0.9
      vertex 0.5 0.5 0.9
      vertex 0 180 0.9
    endloop
  endfacet
  facet normal 1 -0 0
    outer loop
      vertex 180 0 0.9
      vertex 180 180 0
      vertex 180 180 0.9
    endloop
  endfacet
  facet normal 1 0 0
    outer loop
      vertex 180 180 0
      vertex 180 0 0.9
      vertex 180 0 0
    endloop
  endfacet
  facet normal 0 1 -0
    outer loop
      vertex 180 180 0
      vertex 0 180 0.9
      vertex 180 180 0.9
    endloop
  endfacet
  facet normal 0 1 0
    outer loop
      vertex 0 180 0.9
      vertex 180 180 0
      vertex 0 180 0
    endloop
  endfacet
  facet normal 0 0 -1
    outer loop
      vertex 180 0 0
      vertex 179.5 0.5 0
      vertex 180 180 0
    endloop
  endfacet
  facet normal 0 0 -1
    outer loop
      vertex 180 0 0
      vertex 0.5 0.5 0
      vertex 179.5 0.5 0
    endloop
  endfacet
  facet normal -0 0 -1
    outer loop
      vertex 0.5 0.5 0
      vertex 0 0 0
      vertex 0.5 179.5 0
    endloop
  endfacet
  facet normal 0 0 -1
    outer loop
      vertex 0 0 0
      vertex 0.5 0.5 0
      vertex 180 0 0
    endloop
  endfacet
  facet normal 0 0 -1
    outer loop
      vertex 179.5 179.5 0
      vertex 180 180 0
      vertex 179.5 0.5 0
    endloop
  endfacet
  facet normal 0 0 -1
    outer loop
      vertex 0.5 179.5 0
      vertex 180 180 0
      vertex 179.5 179.5 0
    endloop
  endfacet
  facet normal 0 0 -1
    outer loop
      vertex 0.5 179.5 0
      vertex 0 180 0
      vertex 180 180 0
    endloop
  endfacet
  facet normal 0 0 -1
    outer loop
      vertex 0 180 0
      vertex 0.5 179.5 0
      vertex 0 0 0
    endloop
  endfacet
  facet normal 0 -1 0
    outer loop
      vertex 0 0 0
      vertex 180 0 0.9
      vertex 0 0 0.9
    endloop
  endfacet
  facet normal 0 -1 -0
    outer loop
      vertex 180 0 0.9
      vertex 0 0 0
      vertex 180 0 0
    endloop
  endfacet
  facet normal 1 -0 0
    outer loop
      vertex 0.5 0.5 0.9
      vertex 0.5 179.5 0
      vertex 0.5 179.5 0.9
    endloop
  endfacet
  facet normal 1 0 0
    outer loop
      vertex 0.5 179.5 0
      vertex 0.5 0.5 0.9
      vertex 0.5 0.5 0
    endloop
  endfacet
  facet normal -1 0 0
    outer loop
      vertex 179.5 0.5 0
      vertex 179.5 179.5 0.9
      vertex 179.5 179.5 0
    endloop
  endfacet
  facet normal -1 -0 0
    outer loop
      vertex 179.5 179.5 0.9
      vertex 179.5 0.5 0
      vertex 179.5 0.5 0.9
    endloop
  endfacet
  facet normal 0 1 -0
    outer loop
      vertex 179.5 0.5 0
      vertex 0.5 0.5 0.9
      vertex 179.5 0.5 0.9
    endloop
  endfacet
  facet normal 0 1 0
    outer loop
      vertex 0.5 0.5 0.9
      vertex 179.5 0.5 0
      vertex 0.5 0.5 0
    endloop
  endfacet
  facet normal 0 -1 0
    outer loop
      vertex 0.5 179.5 0
      vertex 179.5 179.5 0.9
      vertex 0.5 179.5 0.9
    endloop
  endfacet
  facet normal 0 -1 -0
    outer loop
      vertex 179.5 179.5 0.9
      vertex 0.5 179.5 0
      vertex 179.5 179.5 0
    endloop
  endfacet
endsolid OpenSCAD_Model
