solid OpenSCAD_Model
  facet normal -1 0 0
    outer loop
      vertex 0 0 0
      vertex 0 15 0.75
      vertex 0 15 0
    endloop
  endfacet
  facet normal -1 -0 0
    outer loop
      vertex 0 15 0.75
      vertex 0 0 0
      vertex 0 0 0.75
    endloop
  endfacet
  facet normal 0 0 1
    outer loop
      vertex 30 15 0.75
      vertex 29 14.5 0.75
      vertex 30 0 0.75
    endloop
  endfacet
  facet normal 0 0 1
    outer loop
      vertex 30 15 0.75
      vertex 1 14.5 0.75
      vertex 29 14.5 0.75
    endloop
  endfacet
  facet normal 0 0 1
    outer loop
      vertex 1 14.5 0.75
      vertex 0 15 0.75
      vertex 1 0.5 0.75
    endloop
  endfacet
  facet normal -0 0 1
    outer loop
      vertex 0 15 0.75
      vertex 1 14.5 0.75
      vertex 30 15 0.75
    endloop
  endfacet
  facet normal -0 0 1
    outer loop
      vertex 29 0.5 0.75
      vertex 30 0 0.75
      vertex 29 14.5 0.75
    endloop
  endfacet
  facet normal -0 0 1
    outer loop
      vertex 1 0.5 0.75
      vertex 30 0 0.75
      vertex 29 0.5 0.75
    endloop
  endfacet
  facet normal 0 0 1
    outer loop
      vertex 1 0.5 0.75
      vertex 0 0 0.75
      vertex 30 0 0.75
    endloop
  endfacet
  facet normal 0 0 1
    outer loop
      vertex 0 0 0.75
      vertex 1 0.5 0.75
      vertex 0 15 0.75
    endloop
  endfacet
  facet normal 1 -0 0
    outer loop
      vertex 30 0 0.75
      vertex 30 15 0
      vertex 30 15 0.75
    endloop
  endfacet
  facet normal 1 0 0
    outer loop
      vertex 30 15 0
      vertex 30 0 0.75
      vertex 30 0 0
    endloop
  endfacet
  facet normal 0 1 -0
    outer loop
      vertex 30 15 0
      vertex 0 15 0.75
      vertex 30 15 0.75
    endloop
  endfacet
  facet normal 0 1 0
    outer loop
      vertex 0 15 0.75
      vertex 30 15 0
      vertex 0 15 0
    endloop
  endfacet
  facet normal 0 0 -1
    outer loop
      vertex 30 0 0
      vertex 29 0.5 0
      vertex 30 15 0
    endloop
  endfacet
  facet normal 0 0 -1
    outer loop
      vertex 30 0 0
      vertex 1 0.5 0
      vertex 29 0.5 0
    endloop
  endfacet
  facet normal -0 0 -1
    outer loop
      vertex 1 0.5 0
      vertex 0 0 0
      vertex 1 14.5 0
    endloop
  endfacet
  facet normal 0 0 -1
    outer loop
      vertex 0 0 0
      vertex 1 0.5 0
      vertex 30 0 0
    endloop
  endfacet
  facet normal 0 0 -1
    outer loop
      vertex 29 14.5 0
      vertex 30 15 0
      vertex 29 0.5 0
    endloop
  endfacet
  facet normal 0 0 -1
    outer loop
      vertex 1 14.5 0
      vertex 30 15 0
      vertex 29 14.5 0
    endloop
  endfacet
  facet normal 0 0 -1
    outer loop
      vertex 1 14.5 0
      vertex 0 15 0
      vertex 30 15 0
    endloop
  endfacet
  facet normal 0 0 -1
    outer loop
      vertex 0 15 0
      vertex 1 14.5 0
      vertex 0 0 0
    endloop
  endfacet
  facet normal 0 -1 0
    outer loop
      vertex 0 0 0
      vertex 30 0 0.75
      vertex 0 0 0.75
    endloop
  endfacet
  facet normal 0 -1 -0
    outer loop
      vertex 30 0 0.75
      vertex 0 0 0
      vertex 30 0 0
    endloop
  endfacet
  facet normal 1 -0 0
    outer loop
      vertex 1 0.5 0.75
      vertex 1 14.5 0
      vertex 1 14.5 0.75
    endloop
  endfacet
  facet normal 1 0 0
    outer loop
      vertex 1 14.5 0
      vertex 1 0.5 0.75
      vertex 1 0.5 0
    endloop
  endfacet
  facet normal -1 0 0
    outer loop
      vertex 29 0.5 0
      vertex 29 14.5 0.75
      vertex 29 14.5 0
    endloop
  endfacet
  facet normal -1 -0 0
    outer loop
      vertex 29 14.5 0.75
      vertex 29 0.5 0
      vertex 29 0.5 0.75
    endloop
  endfacet
  facet normal 0 1 -0
    outer loop
      vertex 29 0.5 0
      vertex 1 0.5 0.75
      vertex 29 0.5 0.75
    endloop
  endfacet
  facet normal 0 1 0
    outer loop
      vertex 1 0.5 0.75
      vertex 29 0.5 0
      vertex 1 0.5 0
    endloop
  endfacet
  facet normal 0 -1 0
    outer loop
      vertex 1 14.5 0
      vertex 29 14.5 0.75
      vertex 1 14.5 0.75
    endloop
  endfacet
  facet normal 0 -1 -0
    outer loop
      vertex 29 14.5 0.75
      vertex 1 14.5 0
      vertex 29 14.5 0
    endloop
  endfacet
endsolid OpenSCAD_Model
