solid OpenSCAD_Model
  facet normal 0 0 -1
    outer loop
      vertex 44 17 -1
      vertex 50 18 -1
      vertex 50 17 -1
    endloop
  endfacet
  facet normal -0 0 -1
    outer loop
      vertex 50 18 -1
      vertex 44 17 -1
      vertex 44 18 -1
    endloop
  endfacet
  facet normal 0 0 -1
    outer loop
      vertex 0 17 -1
      vertex 1 18 -1
      vertex 1 17 -1
    endloop
  endfacet
  facet normal -0 0 -1
    outer loop
      vertex 1 18 -1
      vertex 0 17 -1
      vertex 0 18 -1
    endloop
  endfacet
  facet normal 0 0 -1
    outer loop
      vertex 4 17 -1
      vertex 9 18 -1
      vertex 9 17 -1
    endloop
  endfacet
  facet normal -0 0 -1
    outer loop
      vertex 9 18 -1
      vertex 4 17 -1
      vertex 4 18 -1
    endloop
  endfacet
  facet normal 0 0 -1
    outer loop
      vertex 12 17 -1
      vertex 17 18 -1
      vertex 17 17 -1
    endloop
  endfacet
  facet normal -0 0 -1
    outer loop
      vertex 17 18 -1
      vertex 12 17 -1
      vertex 12 18 -1
    endloop
  endfacet
  facet normal 0 0 -1
    outer loop
      vertex 20 17 -1
      vertex 25 18 -1
      vertex 25 17 -1
    endloop
  endfacet
  facet normal -0 0 -1
    outer loop
      vertex 25 18 -1
      vertex 20 17 -1
      vertex 20 18 -1
    endloop
  endfacet
  facet normal 0 0 -1
    outer loop
      vertex 28 17 -1
      vertex 33 18 -1
      vertex 33 17 -1
    endloop
  endfacet
  facet normal -0 0 -1
    outer loop
      vertex 33 18 -1
      vertex 28 17 -1
      vertex 28 18 -1
    endloop
  endfacet
  facet normal 0 0 -1
    outer loop
      vertex 36 17 -1
      vertex 41 18 -1
      vertex 41 17 -1
    endloop
  endfacet
  facet normal -0 0 -1
    outer loop
      vertex 41 18 -1
      vertex 36 17 -1
      vertex 36 18 -1
    endloop
  endfacet
  facet normal 0 0 -1
    outer loop
      vertex 0 0 -1
      vertex 1 1 -1
      vertex 1 0 -1
    endloop
  endfacet
  facet normal -0 0 -1
    outer loop
      vertex 1 1 -1
      vertex 0 0 -1
      vertex 0 1 -1
    endloop
  endfacet
  facet normal 0 0 -1
    outer loop
      vertex 44 0 -1
      vertex 50 1 -1
      vertex 50 0 -1
    endloop
  endfacet
  facet normal -0 0 -1
    outer loop
      vertex 50 1 -1
      vertex 44 0 -1
      vertex 44 1 -1
    endloop
  endfacet
  facet normal 0 0 -1
    outer loop
      vertex 4 0 -1
      vertex 9 1 -1
      vertex 9 0 -1
    endloop
  endfacet
  facet normal -0 0 -1
    outer loop
      vertex 9 1 -1
      vertex 4 0 -1
      vertex 4 1 -1
    endloop
  endfacet
  facet normal 0 0 -1
    outer loop
      vertex 12 0 -1
      vertex 17 1 -1
      vertex 17 0 -1
    endloop
  endfacet
  facet normal -0 0 -1
    outer loop
      vertex 17 1 -1
      vertex 12 0 -1
      vertex 12 1 -1
    endloop
  endfacet
  facet normal 0 0 -1
    outer loop
      vertex 20 0 -1
      vertex 25 1 -1
      vertex 25 0 -1
    endloop
  endfacet
  facet normal -0 0 -1
    outer loop
      vertex 25 1 -1
      vertex 20 0 -1
      vertex 20 1 -1
    endloop
  endfacet
  facet normal 0 0 -1
    outer loop
      vertex 28 0 -1
      vertex 33 1 -1
      vertex 33 0 -1
    endloop
  endfacet
  facet normal -0 0 -1
    outer loop
      vertex 33 1 -1
      vertex 28 0 -1
      vertex 28 1 -1
    endloop
  endfacet
  facet normal 0 0 -1
    outer loop
      vertex 36 0 -1
      vertex 41 1 -1
      vertex 41 0 -1
    endloop
  endfacet
  facet normal -0 0 -1
    outer loop
      vertex 41 1 -1
      vertex 36 0 -1
      vertex 36 1 -1
    endloop
  endfacet
  facet normal -0 0 1
    outer loop
      vertex 0 18 1
      vertex 50 17 1
      vertex 50 18 1
    endloop
  endfacet
  facet normal 0 0 1
    outer loop
      vertex 50 17 1
      vertex 0 18 1
      vertex 0 17 1
    endloop
  endfacet
  facet normal -0 0 1
    outer loop
      vertex 0 1 1
      vertex 50 0 1
      vertex 50 1 1
    endloop
  endfacet
  facet normal 0 0 1
    outer loop
      vertex 50 0 1
      vertex 0 1 1
      vertex 0 0 1
    endloop
  endfacet
  facet normal 0 1 -0
    outer loop
      vertex 9 18 -1
      vertex 4 18 -0.5
      vertex 9 18 -0.5
    endloop
  endfacet
  facet normal 0 1 0
    outer loop
      vertex 4 18 -0.5
      vertex 9 18 -1
      vertex 4 18 -1
    endloop
  endfacet
  facet normal 0 1 -0
    outer loop
      vertex 17 18 -1
      vertex 12 18 -0.5
      vertex 17 18 -0.5
    endloop
  endfacet
  facet normal 0 1 0
    outer loop
      vertex 12 18 -0.5
      vertex 17 18 -1
      vertex 12 18 -1
    endloop
  endfacet
  facet normal 0 1 -0
    outer loop
      vertex 25 18 -1
      vertex 20 18 -0.5
      vertex 25 18 -0.5
    endloop
  endfacet
  facet normal 0 1 0
    outer loop
      vertex 20 18 -0.5
      vertex 25 18 -1
      vertex 20 18 -1
    endloop
  endfacet
  facet normal 0 1 -0
    outer loop
      vertex 33 18 -1
      vertex 28 18 -0.5
      vertex 33 18 -0.5
    endloop
  endfacet
  facet normal 0 1 0
    outer loop
      vertex 28 18 -0.5
      vertex 33 18 -1
      vertex 28 18 -1
    endloop
  endfacet
  facet normal 0 1 -0
    outer loop
      vertex 41 18 -1
      vertex 36 18 -0.5
      vertex 41 18 -0.5
    endloop
  endfacet
  facet normal 0 1 0
    outer loop
      vertex 36 18 -0.5
      vertex 41 18 -1
      vertex 36 18 -1
    endloop
  endfacet
  facet normal 0 1 0
    outer loop
      vertex 41 18 -0.5
      vertex 50 18 1
      vertex 44 18 -0.5
    endloop
  endfacet
  facet normal 0 1 -0
    outer loop
      vertex 50 18 -1
      vertex 44 18 -0.5
      vertex 50 18 1
    endloop
  endfacet
  facet normal 0 1 0
    outer loop
      vertex 44 18 -0.5
      vertex 50 18 -1
      vertex 44 18 -1
    endloop
  endfacet
  facet normal 0 1 0
    outer loop
      vertex 36 18 -0.5
      vertex 50 18 1
      vertex 41 18 -0.5
    endloop
  endfacet
  facet normal 0 1 0
    outer loop
      vertex 33 18 -0.5
      vertex 50 18 1
      vertex 36 18 -0.5
    endloop
  endfacet
  facet normal 0 1 0
    outer loop
      vertex 28 18 -0.5
      vertex 50 18 1
      vertex 33 18 -0.5
    endloop
  endfacet
  facet normal 0 1 0
    outer loop
      vertex 50 18 1
      vertex 28 18 -0.5
      vertex 0 18 1
    endloop
  endfacet
  facet normal 0 1 -0
    outer loop
      vertex 25 18 -0.5
      vertex 0 18 1
      vertex 28 18 -0.5
    endloop
  endfacet
  facet normal 0 1 -0
    outer loop
      vertex 20 18 -0.5
      vertex 0 18 1
      vertex 25 18 -0.5
    endloop
  endfacet
  facet normal 0 1 -0
    outer loop
      vertex 17 18 -0.5
      vertex 0 18 1
      vertex 20 18 -0.5
    endloop
  endfacet
  facet normal 0 1 -0
    outer loop
      vertex 12 18 -0.5
      vertex 0 18 1
      vertex 17 18 -0.5
    endloop
  endfacet
  facet normal 0 1 -0
    outer loop
      vertex 9 18 -0.5
      vertex 0 18 1
      vertex 12 18 -0.5
    endloop
  endfacet
  facet normal 0 1 -0
    outer loop
      vertex 4 18 -0.5
      vertex 0 18 1
      vertex 9 18 -0.5
    endloop
  endfacet
  facet normal 0 1 -0
    outer loop
      vertex 1 18 -0.5
      vertex 0 18 1
      vertex 4 18 -0.5
    endloop
  endfacet
  facet normal 0 1 0
    outer loop
      vertex 0 18 -1
      vertex 1 18 -0.5
      vertex 1 18 -1
    endloop
  endfacet
  facet normal 0 1 0
    outer loop
      vertex 1 18 -0.5
      vertex 0 18 -1
      vertex 0 18 1
    endloop
  endfacet
  facet normal -1 0 0
    outer loop
      vertex 0 17 -1
      vertex 0 18 1
      vertex 0 18 -1
    endloop
  endfacet
  facet normal -1 -0 0
    outer loop
      vertex 0 18 1
      vertex 0 17 -1
      vertex 0 17 1
    endloop
  endfacet
  facet normal 0 -1 0
    outer loop
      vertex 36 17 -1
      vertex 41 17 -0.5
      vertex 36 17 -0.5
    endloop
  endfacet
  facet normal 0 -1 -0
    outer loop
      vertex 41 17 -0.5
      vertex 36 17 -1
      vertex 41 17 -1
    endloop
  endfacet
  facet normal 0 -1 0
    outer loop
      vertex 28 17 -1
      vertex 33 17 -0.5
      vertex 28 17 -0.5
    endloop
  endfacet
  facet normal 0 -1 -0
    outer loop
      vertex 33 17 -0.5
      vertex 28 17 -1
      vertex 33 17 -1
    endloop
  endfacet
  facet normal 0 -1 0
    outer loop
      vertex 20 17 -1
      vertex 25 17 -0.5
      vertex 20 17 -0.5
    endloop
  endfacet
  facet normal 0 -1 -0
    outer loop
      vertex 25 17 -0.5
      vertex 20 17 -1
      vertex 25 17 -1
    endloop
  endfacet
  facet normal 0 -1 0
    outer loop
      vertex 12 17 -1
      vertex 17 17 -0.5
      vertex 12 17 -0.5
    endloop
  endfacet
  facet normal 0 -1 -0
    outer loop
      vertex 17 17 -0.5
      vertex 12 17 -1
      vertex 17 17 -1
    endloop
  endfacet
  facet normal 0 -1 0
    outer loop
      vertex 4 17 -1
      vertex 9 17 -0.5
      vertex 4 17 -0.5
    endloop
  endfacet
  facet normal 0 -1 -0
    outer loop
      vertex 9 17 -0.5
      vertex 4 17 -1
      vertex 9 17 -1
    endloop
  endfacet
  facet normal 0 -1 0
    outer loop
      vertex 4 17 -0.5
      vertex 0 17 1
      vertex 1 17 -0.5
    endloop
  endfacet
  facet normal 0 -1 0
    outer loop
      vertex 0 17 -1
      vertex 1 17 -0.5
      vertex 0 17 1
    endloop
  endfacet
  facet normal 0 -1 -0
    outer loop
      vertex 1 17 -0.5
      vertex 0 17 -1
      vertex 1 17 -1
    endloop
  endfacet
  facet normal 0 -1 0
    outer loop
      vertex 9 17 -0.5
      vertex 0 17 1
      vertex 4 17 -0.5
    endloop
  endfacet
  facet normal 0 -1 0
    outer loop
      vertex 12 17 -0.5
      vertex 0 17 1
      vertex 9 17 -0.5
    endloop
  endfacet
  facet normal 0 -1 0
    outer loop
      vertex 17 17 -0.5
      vertex 0 17 1
      vertex 12 17 -0.5
    endloop
  endfacet
  facet normal 0 -1 0
    outer loop
      vertex 20 17 -0.5
      vertex 0 17 1
      vertex 17 17 -0.5
    endloop
  endfacet
  facet normal 0 -1 0
    outer loop
      vertex 25 17 -0.5
      vertex 0 17 1
      vertex 20 17 -0.5
    endloop
  endfacet
  facet normal 0 -1 0
    outer loop
      vertex 0 17 1
      vertex 25 17 -0.5
      vertex 50 17 1
    endloop
  endfacet
  facet normal 0 -1 0
    outer loop
      vertex 28 17 -0.5
      vertex 50 17 1
      vertex 25 17 -0.5
    endloop
  endfacet
  facet normal 0 -1 0
    outer loop
      vertex 33 17 -0.5
      vertex 50 17 1
      vertex 28 17 -0.5
    endloop
  endfacet
  facet normal 0 -1 0
    outer loop
      vertex 36 17 -0.5
      vertex 50 17 1
      vertex 33 17 -0.5
    endloop
  endfacet
  facet normal 0 -1 0
    outer loop
      vertex 41 17 -0.5
      vertex 50 17 1
      vertex 36 17 -0.5
    endloop
  endfacet
  facet normal 0 -1 0
    outer loop
      vertex 44 17 -0.5
      vertex 50 17 1
      vertex 41 17 -0.5
    endloop
  endfacet
  facet normal 0 -1 0
    outer loop
      vertex 50 17 -1
      vertex 44 17 -0.5
      vertex 44 17 -1
    endloop
  endfacet
  facet normal 0 -1 0
    outer loop
      vertex 44 17 -0.5
      vertex 50 17 -1
      vertex 50 17 1
    endloop
  endfacet
  facet normal 1 -0 0
    outer loop
      vertex 50 17 1
      vertex 50 18 -1
      vertex 50 18 1
    endloop
  endfacet
  facet normal 1 0 0
    outer loop
      vertex 50 18 -1
      vertex 50 17 1
      vertex 50 17 -1
    endloop
  endfacet
  facet normal 0 1 -0
    outer loop
      vertex 9 1 -1
      vertex 4 1 -0.5
      vertex 9 1 -0.5
    endloop
  endfacet
  facet normal 0 1 0
    outer loop
      vertex 4 1 -0.5
      vertex 9 1 -1
      vertex 4 1 -1
    endloop
  endfacet
  facet normal 0 1 -0
    outer loop
      vertex 17 1 -1
      vertex 12 1 -0.5
      vertex 17 1 -0.5
    endloop
  endfacet
  facet normal 0 1 0
    outer loop
      vertex 12 1 -0.5
      vertex 17 1 -1
      vertex 12 1 -1
    endloop
  endfacet
  facet normal 0 1 -0
    outer loop
      vertex 25 1 -1
      vertex 20 1 -0.5
      vertex 25 1 -0.5
    endloop
  endfacet
  facet normal 0 1 0
    outer loop
      vertex 20 1 -0.5
      vertex 25 1 -1
      vertex 20 1 -1
    endloop
  endfacet
  facet normal 0 1 -0
    outer loop
      vertex 33 1 -1
      vertex 28 1 -0.5
      vertex 33 1 -0.5
    endloop
  endfacet
  facet normal 0 1 0
    outer loop
      vertex 28 1 -0.5
      vertex 33 1 -1
      vertex 28 1 -1
    endloop
  endfacet
  facet normal 0 1 -0
    outer loop
      vertex 41 1 -1
      vertex 36 1 -0.5
      vertex 41 1 -0.5
    endloop
  endfacet
  facet normal 0 1 0
    outer loop
      vertex 36 1 -0.5
      vertex 41 1 -1
      vertex 36 1 -1
    endloop
  endfacet
  facet normal 0 1 0
    outer loop
      vertex 41 1 -0.5
      vertex 50 1 1
      vertex 44 1 -0.5
    endloop
  endfacet
  facet normal 0 1 -0
    outer loop
      vertex 50 1 -1
      vertex 44 1 -0.5
      vertex 50 1 1
    endloop
  endfacet
  facet normal 0 1 0
    outer loop
      vertex 44 1 -0.5
      vertex 50 1 -1
      vertex 44 1 -1
    endloop
  endfacet
  facet normal 0 1 0
    outer loop
      vertex 36 1 -0.5
      vertex 50 1 1
      vertex 41 1 -0.5
    endloop
  endfacet
  facet normal 0 1 0
    outer loop
      vertex 33 1 -0.5
      vertex 50 1 1
      vertex 36 1 -0.5
    endloop
  endfacet
  facet normal 0 1 0
    outer loop
      vertex 28 1 -0.5
      vertex 50 1 1
      vertex 33 1 -0.5
    endloop
  endfacet
  facet normal 0 1 0
    outer loop
      vertex 50 1 1
      vertex 28 1 -0.5
      vertex 0 1 1
    endloop
  endfacet
  facet normal 0 1 -0
    outer loop
      vertex 25 1 -0.5
      vertex 0 1 1
      vertex 28 1 -0.5
    endloop
  endfacet
  facet normal 0 1 -0
    outer loop
      vertex 20 1 -0.5
      vertex 0 1 1
      vertex 25 1 -0.5
    endloop
  endfacet
  facet normal 0 1 -0
    outer loop
      vertex 17 1 -0.5
      vertex 0 1 1
      vertex 20 1 -0.5
    endloop
  endfacet
  facet normal 0 1 -0
    outer loop
      vertex 12 1 -0.5
      vertex 0 1 1
      vertex 17 1 -0.5
    endloop
  endfacet
  facet normal 0 1 -0
    outer loop
      vertex 9 1 -0.5
      vertex 0 1 1
      vertex 12 1 -0.5
    endloop
  endfacet
  facet normal 0 1 -0
    outer loop
      vertex 4 1 -0.5
      vertex 0 1 1
      vertex 9 1 -0.5
    endloop
  endfacet
  facet normal 0 1 -0
    outer loop
      vertex 1 1 -0.5
      vertex 0 1 1
      vertex 4 1 -0.5
    endloop
  endfacet
  facet normal 0 1 0
    outer loop
      vertex 0 1 -1
      vertex 1 1 -0.5
      vertex 1 1 -1
    endloop
  endfacet
  facet normal 0 1 0
    outer loop
      vertex 1 1 -0.5
      vertex 0 1 -1
      vertex 0 1 1
    endloop
  endfacet
  facet normal -1 0 0
    outer loop
      vertex 0 0 -1
      vertex 0 1 1
      vertex 0 1 -1
    endloop
  endfacet
  facet normal -1 -0 0
    outer loop
      vertex 0 1 1
      vertex 0 0 -1
      vertex 0 0 1
    endloop
  endfacet
  facet normal 0 -1 0
    outer loop
      vertex 36 0 -1
      vertex 41 0 -0.5
      vertex 36 0 -0.5
    endloop
  endfacet
  facet normal 0 -1 -0
    outer loop
      vertex 41 0 -0.5
      vertex 36 0 -1
      vertex 41 0 -1
    endloop
  endfacet
  facet normal 0 -1 0
    outer loop
      vertex 28 0 -1
      vertex 33 0 -0.5
      vertex 28 0 -0.5
    endloop
  endfacet
  facet normal 0 -1 -0
    outer loop
      vertex 33 0 -0.5
      vertex 28 0 -1
      vertex 33 0 -1
    endloop
  endfacet
  facet normal 0 -1 0
    outer loop
      vertex 20 0 -1
      vertex 25 0 -0.5
      vertex 20 0 -0.5
    endloop
  endfacet
  facet normal 0 -1 -0
    outer loop
      vertex 25 0 -0.5
      vertex 20 0 -1
      vertex 25 0 -1
    endloop
  endfacet
  facet normal 0 -1 0
    outer loop
      vertex 12 0 -1
      vertex 17 0 -0.5
      vertex 12 0 -0.5
    endloop
  endfacet
  facet normal 0 -1 -0
    outer loop
      vertex 17 0 -0.5
      vertex 12 0 -1
      vertex 17 0 -1
    endloop
  endfacet
  facet normal 0 -1 0
    outer loop
      vertex 4 0 -1
      vertex 9 0 -0.5
      vertex 4 0 -0.5
    endloop
  endfacet
  facet normal 0 -1 -0
    outer loop
      vertex 9 0 -0.5
      vertex 4 0 -1
      vertex 9 0 -1
    endloop
  endfacet
  facet normal 0 -1 0
    outer loop
      vertex 4 0 -0.5
      vertex 0 0 1
      vertex 1 0 -0.5
    endloop
  endfacet
  facet normal 0 -1 0
    outer loop
      vertex 0 0 -1
      vertex 1 0 -0.5
      vertex 0 0 1
    endloop
  endfacet
  facet normal 0 -1 -0
    outer loop
      vertex 1 0 -0.5
      vertex 0 0 -1
      vertex 1 0 -1
    endloop
  endfacet
  facet normal 0 -1 0
    outer loop
      vertex 9 0 -0.5
      vertex 0 0 1
      vertex 4 0 -0.5
    endloop
  endfacet
  facet normal 0 -1 0
    outer loop
      vertex 12 0 -0.5
      vertex 0 0 1
      vertex 9 0 -0.5
    endloop
  endfacet
  facet normal 0 -1 0
    outer loop
      vertex 17 0 -0.5
      vertex 0 0 1
      vertex 12 0 -0.5
    endloop
  endfacet
  facet normal 0 -1 0
    outer loop
      vertex 20 0 -0.5
      vertex 0 0 1
      vertex 17 0 -0.5
    endloop
  endfacet
  facet normal 0 -1 0
    outer loop
      vertex 25 0 -0.5
      vertex 0 0 1
      vertex 20 0 -0.5
    endloop
  endfacet
  facet normal 0 -1 0
    outer loop
      vertex 0 0 1
      vertex 25 0 -0.5
      vertex 50 0 1
    endloop
  endfacet
  facet normal 0 -1 0
    outer loop
      vertex 28 0 -0.5
      vertex 50 0 1
      vertex 25 0 -0.5
    endloop
  endfacet
  facet normal 0 -1 0
    outer loop
      vertex 33 0 -0.5
      vertex 50 0 1
      vertex 28 0 -0.5
    endloop
  endfacet
  facet normal 0 -1 0
    outer loop
      vertex 36 0 -0.5
      vertex 50 0 1
      vertex 33 0 -0.5
    endloop
  endfacet
  facet normal 0 -1 0
    outer loop
      vertex 41 0 -0.5
      vertex 50 0 1
      vertex 36 0 -0.5
    endloop
  endfacet
  facet normal 0 -1 0
    outer loop
      vertex 44 0 -0.5
      vertex 50 0 1
      vertex 41 0 -0.5
    endloop
  endfacet
  facet normal 0 -1 0
    outer loop
      vertex 50 0 -1
      vertex 44 0 -0.5
      vertex 44 0 -1
    endloop
  endfacet
  facet normal 0 -1 0
    outer loop
      vertex 44 0 -0.5
      vertex 50 0 -1
      vertex 50 0 1
    endloop
  endfacet
  facet normal 1 -0 0
    outer loop
      vertex 50 0 1
      vertex 50 1 -1
      vertex 50 1 1
    endloop
  endfacet
  facet normal 1 0 0
    outer loop
      vertex 50 1 -1
      vertex 50 0 1
      vertex 50 0 -1
    endloop
  endfacet
  facet normal 0 0 -1
    outer loop
      vertex 1 -3 -1.5
      vertex 4 21 -1.5
      vertex 4 -3 -1.5
    endloop
  endfacet
  facet normal -0 0 -1
    outer loop
      vertex 4 21 -1.5
      vertex 1 -3 -1.5
      vertex 1 21 -1.5
    endloop
  endfacet
  facet normal 0 0 -1
    outer loop
      vertex 9 -3 -1.5
      vertex 12 21 -1.5
      vertex 12 -3 -1.5
    endloop
  endfacet
  facet normal -0 0 -1
    outer loop
      vertex 12 21 -1.5
      vertex 9 -3 -1.5
      vertex 9 21 -1.5
    endloop
  endfacet
  facet normal 0 0 -1
    outer loop
      vertex 17 -3 -1.5
      vertex 20 21 -1.5
      vertex 20 -3 -1.5
    endloop
  endfacet
  facet normal -0 0 -1
    outer loop
      vertex 20 21 -1.5
      vertex 17 -3 -1.5
      vertex 17 21 -1.5
    endloop
  endfacet
  facet normal 0 0 -1
    outer loop
      vertex 25 -3 -1.5
      vertex 28 21 -1.5
      vertex 28 -3 -1.5
    endloop
  endfacet
  facet normal -0 0 -1
    outer loop
      vertex 28 21 -1.5
      vertex 25 -3 -1.5
      vertex 25 21 -1.5
    endloop
  endfacet
  facet normal 0 0 -1
    outer loop
      vertex 33 -3 -1.5
      vertex 36 21 -1.5
      vertex 36 -3 -1.5
    endloop
  endfacet
  facet normal -0 0 -1
    outer loop
      vertex 36 21 -1.5
      vertex 33 -3 -1.5
      vertex 33 21 -1.5
    endloop
  endfacet
  facet normal 0 0 -1
    outer loop
      vertex 41 -3 -1.5
      vertex 44 21 -1.5
      vertex 44 -3 -1.5
    endloop
  endfacet
  facet normal -0 0 -1
    outer loop
      vertex 44 21 -1.5
      vertex 41 -3 -1.5
      vertex 41 21 -1.5
    endloop
  endfacet
  facet normal -0 0 1
    outer loop
      vertex 1 21 -0.5
      vertex 4 18 -0.5
      vertex 4 21 -0.5
    endloop
  endfacet
  facet normal 0 0 1
    outer loop
      vertex 4 18 -0.5
      vertex 1 21 -0.5
      vertex 1 18 -0.5
    endloop
  endfacet
  facet normal -0 0 1
    outer loop
      vertex 1 0 -0.5
      vertex 4 -3 -0.5
      vertex 4 0 -0.5
    endloop
  endfacet
  facet normal 0 0 1
    outer loop
      vertex 4 -3 -0.5
      vertex 1 0 -0.5
      vertex 1 -3 -0.5
    endloop
  endfacet
  facet normal -0 0 1
    outer loop
      vertex 1 17 -0.5
      vertex 4 1 -0.5
      vertex 4 17 -0.5
    endloop
  endfacet
  facet normal 0 0 1
    outer loop
      vertex 4 1 -0.5
      vertex 1 17 -0.5
      vertex 1 1 -0.5
    endloop
  endfacet
  facet normal -0 0 1
    outer loop
      vertex 9 21 -0.5
      vertex 12 18 -0.5
      vertex 12 21 -0.5
    endloop
  endfacet
  facet normal 0 0 1
    outer loop
      vertex 12 18 -0.5
      vertex 9 21 -0.5
      vertex 9 18 -0.5
    endloop
  endfacet
  facet normal -0 0 1
    outer loop
      vertex 9 0 -0.5
      vertex 12 -3 -0.5
      vertex 12 0 -0.5
    endloop
  endfacet
  facet normal 0 0 1
    outer loop
      vertex 12 -3 -0.5
      vertex 9 0 -0.5
      vertex 9 -3 -0.5
    endloop
  endfacet
  facet normal -0 0 1
    outer loop
      vertex 9 17 -0.5
      vertex 12 1 -0.5
      vertex 12 17 -0.5
    endloop
  endfacet
  facet normal 0 0 1
    outer loop
      vertex 12 1 -0.5
      vertex 9 17 -0.5
      vertex 9 1 -0.5
    endloop
  endfacet
  facet normal -0 0 1
    outer loop
      vertex 17 21 -0.5
      vertex 20 18 -0.5
      vertex 20 21 -0.5
    endloop
  endfacet
  facet normal 0 0 1
    outer loop
      vertex 20 18 -0.5
      vertex 17 21 -0.5
      vertex 17 18 -0.5
    endloop
  endfacet
  facet normal -0 0 1
    outer loop
      vertex 17 0 -0.5
      vertex 20 -3 -0.5
      vertex 20 0 -0.5
    endloop
  endfacet
  facet normal 0 0 1
    outer loop
      vertex 20 -3 -0.5
      vertex 17 0 -0.5
      vertex 17 -3 -0.5
    endloop
  endfacet
  facet normal -0 0 1
    outer loop
      vertex 17 17 -0.5
      vertex 20 1 -0.5
      vertex 20 17 -0.5
    endloop
  endfacet
  facet normal 0 0 1
    outer loop
      vertex 20 1 -0.5
      vertex 17 17 -0.5
      vertex 17 1 -0.5
    endloop
  endfacet
  facet normal -0 0 1
    outer loop
      vertex 25 21 -0.5
      vertex 28 18 -0.5
      vertex 28 21 -0.5
    endloop
  endfacet
  facet normal 0 0 1
    outer loop
      vertex 28 18 -0.5
      vertex 25 21 -0.5
      vertex 25 18 -0.5
    endloop
  endfacet
  facet normal -0 0 1
    outer loop
      vertex 25 0 -0.5
      vertex 28 -3 -0.5
      vertex 28 0 -0.5
    endloop
  endfacet
  facet normal 0 0 1
    outer loop
      vertex 28 -3 -0.5
      vertex 25 0 -0.5
      vertex 25 -3 -0.5
    endloop
  endfacet
  facet normal -0 0 1
    outer loop
      vertex 25 17 -0.5
      vertex 28 1 -0.5
      vertex 28 17 -0.5
    endloop
  endfacet
  facet normal 0 0 1
    outer loop
      vertex 28 1 -0.5
      vertex 25 17 -0.5
      vertex 25 1 -0.5
    endloop
  endfacet
  facet normal -0 0 1
    outer loop
      vertex 33 21 -0.5
      vertex 36 18 -0.5
      vertex 36 21 -0.5
    endloop
  endfacet
  facet normal 0 0 1
    outer loop
      vertex 36 18 -0.5
      vertex 33 21 -0.5
      vertex 33 18 -0.5
    endloop
  endfacet
  facet normal -0 0 1
    outer loop
      vertex 33 0 -0.5
      vertex 36 -3 -0.5
      vertex 36 0 -0.5
    endloop
  endfacet
  facet normal 0 0 1
    outer loop
      vertex 36 -3 -0.5
      vertex 33 0 -0.5
      vertex 33 -3 -0.5
    endloop
  endfacet
  facet normal -0 0 1
    outer loop
      vertex 33 17 -0.5
      vertex 36 1 -0.5
      vertex 36 17 -0.5
    endloop
  endfacet
  facet normal 0 0 1
    outer loop
      vertex 36 1 -0.5
      vertex 33 17 -0.5
      vertex 33 1 -0.5
    endloop
  endfacet
  facet normal -0 0 1
    outer loop
      vertex 41 21 -0.5
      vertex 44 18 -0.5
      vertex 44 21 -0.5
    endloop
  endfacet
  facet normal 0 0 1
    outer loop
      vertex 44 18 -0.5
      vertex 41 21 -0.5
      vertex 41 18 -0.5
    endloop
  endfacet
  facet normal -0 0 1
    outer loop
      vertex 41 0 -0.5
      vertex 44 -3 -0.5
      vertex 44 0 -0.5
    endloop
  endfacet
  facet normal 0 0 1
    outer loop
      vertex 44 -3 -0.5
      vertex 41 0 -0.5
      vertex 41 -3 -0.5
    endloop
  endfacet
  facet normal -0 0 1
    outer loop
      vertex 41 17 -0.5
      vertex 44 1 -0.5
      vertex 44 17 -0.5
    endloop
  endfacet
  facet normal 0 0 1
    outer loop
      vertex 44 1 -0.5
      vertex 41 17 -0.5
      vertex 41 1 -0.5
    endloop
  endfacet
  facet normal 0 1 -0
    outer loop
      vertex 4 21 -1.5
      vertex 1 21 -0.5
      vertex 4 21 -0.5
    endloop
  endfacet
  facet normal 0 1 0
    outer loop
      vertex 1 21 -0.5
      vertex 4 21 -1.5
      vertex 1 21 -1.5
    endloop
  endfacet
  facet normal -1 0 0
    outer loop
      vertex 1 21 -1.5
      vertex 1 18 -1
      vertex 1 21 -0.5
    endloop
  endfacet
  facet normal -1 0 0
    outer loop
      vertex 1 21 -1.5
      vertex 1 17 -1
      vertex 1 18 -1
    endloop
  endfacet
  facet normal -1 0 0
    outer loop
      vertex 1 17 -1
      vertex 1 1 -1
      vertex 1 17 -0.5
    endloop
  endfacet
  facet normal -1 0 0
    outer loop
      vertex 1 21 -1.5
      vertex 1 1 -1
      vertex 1 17 -1
    endloop
  endfacet
  facet normal -1 0 0
    outer loop
      vertex 1 -3 -1.5
      vertex 1 1 -1
      vertex 1 21 -1.5
    endloop
  endfacet
  facet normal -1 -0 0
    outer loop
      vertex 1 1 -1
      vertex 1 -3 -1.5
      vertex 1 0 -1
    endloop
  endfacet
  facet normal -1 0 0
    outer loop
      vertex 1 -3 -0.5
      vertex 1 0 -1
      vertex 1 -3 -1.5
    endloop
  endfacet
  facet normal -1 0 0
    outer loop
      vertex 1 0 -1
      vertex 1 -3 -0.5
      vertex 1 0 -0.5
    endloop
  endfacet
  facet normal -1 -0 0
    outer loop
      vertex 1 21 -0.5
      vertex 1 18 -1
      vertex 1 18 -0.5
    endloop
  endfacet
  facet normal -1 -0 0
    outer loop
      vertex 1 17 -0.5
      vertex 1 1 -1
      vertex 1 1 -0.5
    endloop
  endfacet
  facet normal 0 -1 0
    outer loop
      vertex 1 -3 -1.5
      vertex 4 -3 -0.5
      vertex 1 -3 -0.5
    endloop
  endfacet
  facet normal 0 -1 -0
    outer loop
      vertex 4 -3 -0.5
      vertex 1 -3 -1.5
      vertex 4 -3 -1.5
    endloop
  endfacet
  facet normal 1 0 0
    outer loop
      vertex 4 0 -0.5
      vertex 4 -3 -0.5
      vertex 4 0 -1
    endloop
  endfacet
  facet normal 1 0 0
    outer loop
      vertex 4 17 -0.5
      vertex 4 1 -0.5
      vertex 4 17 -1
    endloop
  endfacet
  facet normal 1 0 0
    outer loop
      vertex 4 18 -1
      vertex 4 21 -0.5
      vertex 4 18 -0.5
    endloop
  endfacet
  facet normal 1 0 0
    outer loop
      vertex 4 21 -0.5
      vertex 4 18 -1
      vertex 4 21 -1.5
    endloop
  endfacet
  facet normal 1 -0 0
    outer loop
      vertex 4 17 -1
      vertex 4 21 -1.5
      vertex 4 18 -1
    endloop
  endfacet
  facet normal 1 0 0
    outer loop
      vertex 4 1 -1
      vertex 4 17 -1
      vertex 4 1 -0.5
    endloop
  endfacet
  facet normal 1 0 0
    outer loop
      vertex 4 17 -1
      vertex 4 1 -1
      vertex 4 21 -1.5
    endloop
  endfacet
  facet normal 1 0 0
    outer loop
      vertex 4 -3 -1.5
      vertex 4 1 -1
      vertex 4 0 -1
    endloop
  endfacet
  facet normal 1 0 0
    outer loop
      vertex 4 1 -1
      vertex 4 -3 -1.5
      vertex 4 21 -1.5
    endloop
  endfacet
  facet normal 1 0 0
    outer loop
      vertex 4 -3 -1.5
      vertex 4 0 -1
      vertex 4 -3 -0.5
    endloop
  endfacet
  facet normal 0 1 -0
    outer loop
      vertex 12 21 -1.5
      vertex 9 21 -0.5
      vertex 12 21 -0.5
    endloop
  endfacet
  facet normal 0 1 0
    outer loop
      vertex 9 21 -0.5
      vertex 12 21 -1.5
      vertex 9 21 -1.5
    endloop
  endfacet
  facet normal -1 0 0
    outer loop
      vertex 9 21 -1.5
      vertex 9 18 -1
      vertex 9 21 -0.5
    endloop
  endfacet
  facet normal -1 0 0
    outer loop
      vertex 9 21 -1.5
      vertex 9 17 -1
      vertex 9 18 -1
    endloop
  endfacet
  facet normal -1 0 0
    outer loop
      vertex 9 17 -1
      vertex 9 1 -1
      vertex 9 17 -0.5
    endloop
  endfacet
  facet normal -1 0 0
    outer loop
      vertex 9 21 -1.5
      vertex 9 1 -1
      vertex 9 17 -1
    endloop
  endfacet
  facet normal -1 0 0
    outer loop
      vertex 9 -3 -1.5
      vertex 9 1 -1
      vertex 9 21 -1.5
    endloop
  endfacet
  facet normal -1 -0 0
    outer loop
      vertex 9 1 -1
      vertex 9 -3 -1.5
      vertex 9 0 -1
    endloop
  endfacet
  facet normal -1 0 0
    outer loop
      vertex 9 -3 -0.5
      vertex 9 0 -1
      vertex 9 -3 -1.5
    endloop
  endfacet
  facet normal -1 0 0
    outer loop
      vertex 9 0 -1
      vertex 9 -3 -0.5
      vertex 9 0 -0.5
    endloop
  endfacet
  facet normal -1 -0 0
    outer loop
      vertex 9 21 -0.5
      vertex 9 18 -1
      vertex 9 18 -0.5
    endloop
  endfacet
  facet normal -1 -0 0
    outer loop
      vertex 9 17 -0.5
      vertex 9 1 -1
      vertex 9 1 -0.5
    endloop
  endfacet
  facet normal 0 -1 0
    outer loop
      vertex 9 -3 -1.5
      vertex 12 -3 -0.5
      vertex 9 -3 -0.5
    endloop
  endfacet
  facet normal 0 -1 -0
    outer loop
      vertex 12 -3 -0.5
      vertex 9 -3 -1.5
      vertex 12 -3 -1.5
    endloop
  endfacet
  facet normal 1 0 0
    outer loop
      vertex 12 0 -0.5
      vertex 12 -3 -0.5
      vertex 12 0 -1
    endloop
  endfacet
  facet normal 1 0 0
    outer loop
      vertex 12 17 -0.5
      vertex 12 1 -0.5
      vertex 12 17 -1
    endloop
  endfacet
  facet normal 1 0 0
    outer loop
      vertex 12 18 -1
      vertex 12 21 -0.5
      vertex 12 18 -0.5
    endloop
  endfacet
  facet normal 1 0 0
    outer loop
      vertex 12 21 -0.5
      vertex 12 18 -1
      vertex 12 21 -1.5
    endloop
  endfacet
  facet normal 1 -0 0
    outer loop
      vertex 12 17 -1
      vertex 12 21 -1.5
      vertex 12 18 -1
    endloop
  endfacet
  facet normal 1 0 0
    outer loop
      vertex 12 1 -1
      vertex 12 17 -1
      vertex 12 1 -0.5
    endloop
  endfacet
  facet normal 1 0 0
    outer loop
      vertex 12 17 -1
      vertex 12 1 -1
      vertex 12 21 -1.5
    endloop
  endfacet
  facet normal 1 0 0
    outer loop
      vertex 12 -3 -1.5
      vertex 12 1 -1
      vertex 12 0 -1
    endloop
  endfacet
  facet normal 1 0 0
    outer loop
      vertex 12 1 -1
      vertex 12 -3 -1.5
      vertex 12 21 -1.5
    endloop
  endfacet
  facet normal 1 0 0
    outer loop
      vertex 12 -3 -1.5
      vertex 12 0 -1
      vertex 12 -3 -0.5
    endloop
  endfacet
  facet normal 0 1 -0
    outer loop
      vertex 20 21 -1.5
      vertex 17 21 -0.5
      vertex 20 21 -0.5
    endloop
  endfacet
  facet normal 0 1 0
    outer loop
      vertex 17 21 -0.5
      vertex 20 21 -1.5
      vertex 17 21 -1.5
    endloop
  endfacet
  facet normal -1 0 0
    outer loop
      vertex 17 21 -1.5
      vertex 17 18 -1
      vertex 17 21 -0.5
    endloop
  endfacet
  facet normal -1 0 0
    outer loop
      vertex 17 21 -1.5
      vertex 17 17 -1
      vertex 17 18 -1
    endloop
  endfacet
  facet normal -1 0 0
    outer loop
      vertex 17 17 -1
      vertex 17 1 -1
      vertex 17 17 -0.5
    endloop
  endfacet
  facet normal -1 0 0
    outer loop
      vertex 17 21 -1.5
      vertex 17 1 -1
      vertex 17 17 -1
    endloop
  endfacet
  facet normal -1 0 0
    outer loop
      vertex 17 -3 -1.5
      vertex 17 1 -1
      vertex 17 21 -1.5
    endloop
  endfacet
  facet normal -1 -0 0
    outer loop
      vertex 17 1 -1
      vertex 17 -3 -1.5
      vertex 17 0 -1
    endloop
  endfacet
  facet normal -1 0 0
    outer loop
      vertex 17 -3 -0.5
      vertex 17 0 -1
      vertex 17 -3 -1.5
    endloop
  endfacet
  facet normal -1 0 0
    outer loop
      vertex 17 0 -1
      vertex 17 -3 -0.5
      vertex 17 0 -0.5
    endloop
  endfacet
  facet normal -1 -0 0
    outer loop
      vertex 17 21 -0.5
      vertex 17 18 -1
      vertex 17 18 -0.5
    endloop
  endfacet
  facet normal -1 -0 0
    outer loop
      vertex 17 17 -0.5
      vertex 17 1 -1
      vertex 17 1 -0.5
    endloop
  endfacet
  facet normal 0 -1 0
    outer loop
      vertex 17 -3 -1.5
      vertex 20 -3 -0.5
      vertex 17 -3 -0.5
    endloop
  endfacet
  facet normal 0 -1 -0
    outer loop
      vertex 20 -3 -0.5
      vertex 17 -3 -1.5
      vertex 20 -3 -1.5
    endloop
  endfacet
  facet normal 1 0 0
    outer loop
      vertex 20 0 -0.5
      vertex 20 -3 -0.5
      vertex 20 0 -1
    endloop
  endfacet
  facet normal 1 0 0
    outer loop
      vertex 20 17 -0.5
      vertex 20 1 -0.5
      vertex 20 17 -1
    endloop
  endfacet
  facet normal 1 0 0
    outer loop
      vertex 20 18 -1
      vertex 20 21 -0.5
      vertex 20 18 -0.5
    endloop
  endfacet
  facet normal 1 0 0
    outer loop
      vertex 20 21 -0.5
      vertex 20 18 -1
      vertex 20 21 -1.5
    endloop
  endfacet
  facet normal 1 -0 0
    outer loop
      vertex 20 17 -1
      vertex 20 21 -1.5
      vertex 20 18 -1
    endloop
  endfacet
  facet normal 1 0 0
    outer loop
      vertex 20 1 -1
      vertex 20 17 -1
      vertex 20 1 -0.5
    endloop
  endfacet
  facet normal 1 0 0
    outer loop
      vertex 20 17 -1
      vertex 20 1 -1
      vertex 20 21 -1.5
    endloop
  endfacet
  facet normal 1 0 0
    outer loop
      vertex 20 -3 -1.5
      vertex 20 1 -1
      vertex 20 0 -1
    endloop
  endfacet
  facet normal 1 0 0
    outer loop
      vertex 20 1 -1
      vertex 20 -3 -1.5
      vertex 20 21 -1.5
    endloop
  endfacet
  facet normal 1 0 0
    outer loop
      vertex 20 -3 -1.5
      vertex 20 0 -1
      vertex 20 -3 -0.5
    endloop
  endfacet
  facet normal 0 1 -0
    outer loop
      vertex 28 21 -1.5
      vertex 25 21 -0.5
      vertex 28 21 -0.5
    endloop
  endfacet
  facet normal 0 1 0
    outer loop
      vertex 25 21 -0.5
      vertex 28 21 -1.5
      vertex 25 21 -1.5
    endloop
  endfacet
  facet normal -1 0 0
    outer loop
      vertex 25 21 -1.5
      vertex 25 18 -1
      vertex 25 21 -0.5
    endloop
  endfacet
  facet normal -1 0 0
    outer loop
      vertex 25 21 -1.5
      vertex 25 17 -1
      vertex 25 18 -1
    endloop
  endfacet
  facet normal -1 0 0
    outer loop
      vertex 25 17 -1
      vertex 25 1 -1
      vertex 25 17 -0.5
    endloop
  endfacet
  facet normal -1 0 0
    outer loop
      vertex 25 21 -1.5
      vertex 25 1 -1
      vertex 25 17 -1
    endloop
  endfacet
  facet normal -1 0 0
    outer loop
      vertex 25 -3 -1.5
      vertex 25 1 -1
      vertex 25 21 -1.5
    endloop
  endfacet
  facet normal -1 -0 0
    outer loop
      vertex 25 1 -1
      vertex 25 -3 -1.5
      vertex 25 0 -1
    endloop
  endfacet
  facet normal -1 0 0
    outer loop
      vertex 25 -3 -0.5
      vertex 25 0 -1
      vertex 25 -3 -1.5
    endloop
  endfacet
  facet normal -1 0 0
    outer loop
      vertex 25 0 -1
      vertex 25 -3 -0.5
      vertex 25 0 -0.5
    endloop
  endfacet
  facet normal -1 -0 0
    outer loop
      vertex 25 21 -0.5
      vertex 25 18 -1
      vertex 25 18 -0.5
    endloop
  endfacet
  facet normal -1 -0 0
    outer loop
      vertex 25 17 -0.5
      vertex 25 1 -1
      vertex 25 1 -0.5
    endloop
  endfacet
  facet normal 0 -1 0
    outer loop
      vertex 25 -3 -1.5
      vertex 28 -3 -0.5
      vertex 25 -3 -0.5
    endloop
  endfacet
  facet normal 0 -1 -0
    outer loop
      vertex 28 -3 -0.5
      vertex 25 -3 -1.5
      vertex 28 -3 -1.5
    endloop
  endfacet
  facet normal 1 0 0
    outer loop
      vertex 28 0 -0.5
      vertex 28 -3 -0.5
      vertex 28 0 -1
    endloop
  endfacet
  facet normal 1 0 0
    outer loop
      vertex 28 17 -0.5
      vertex 28 1 -0.5
      vertex 28 17 -1
    endloop
  endfacet
  facet normal 1 0 0
    outer loop
      vertex 28 18 -1
      vertex 28 21 -0.5
      vertex 28 18 -0.5
    endloop
  endfacet
  facet normal 1 0 0
    outer loop
      vertex 28 21 -0.5
      vertex 28 18 -1
      vertex 28 21 -1.5
    endloop
  endfacet
  facet normal 1 -0 0
    outer loop
      vertex 28 17 -1
      vertex 28 21 -1.5
      vertex 28 18 -1
    endloop
  endfacet
  facet normal 1 0 0
    outer loop
      vertex 28 1 -1
      vertex 28 17 -1
      vertex 28 1 -0.5
    endloop
  endfacet
  facet normal 1 0 0
    outer loop
      vertex 28 17 -1
      vertex 28 1 -1
      vertex 28 21 -1.5
    endloop
  endfacet
  facet normal 1 0 0
    outer loop
      vertex 28 -3 -1.5
      vertex 28 1 -1
      vertex 28 0 -1
    endloop
  endfacet
  facet normal 1 0 0
    outer loop
      vertex 28 1 -1
      vertex 28 -3 -1.5
      vertex 28 21 -1.5
    endloop
  endfacet
  facet normal 1 0 0
    outer loop
      vertex 28 -3 -1.5
      vertex 28 0 -1
      vertex 28 -3 -0.5
    endloop
  endfacet
  facet normal 0 1 -0
    outer loop
      vertex 36 21 -1.5
      vertex 33 21 -0.5
      vertex 36 21 -0.5
    endloop
  endfacet
  facet normal 0 1 0
    outer loop
      vertex 33 21 -0.5
      vertex 36 21 -1.5
      vertex 33 21 -1.5
    endloop
  endfacet
  facet normal -1 0 0
    outer loop
      vertex 33 21 -1.5
      vertex 33 18 -1
      vertex 33 21 -0.5
    endloop
  endfacet
  facet normal -1 0 0
    outer loop
      vertex 33 21 -1.5
      vertex 33 17 -1
      vertex 33 18 -1
    endloop
  endfacet
  facet normal -1 0 0
    outer loop
      vertex 33 17 -1
      vertex 33 1 -1
      vertex 33 17 -0.5
    endloop
  endfacet
  facet normal -1 0 0
    outer loop
      vertex 33 21 -1.5
      vertex 33 1 -1
      vertex 33 17 -1
    endloop
  endfacet
  facet normal -1 0 0
    outer loop
      vertex 33 -3 -1.5
      vertex 33 1 -1
      vertex 33 21 -1.5
    endloop
  endfacet
  facet normal -1 -0 0
    outer loop
      vertex 33 1 -1
      vertex 33 -3 -1.5
      vertex 33 0 -1
    endloop
  endfacet
  facet normal -1 0 0
    outer loop
      vertex 33 -3 -0.5
      vertex 33 0 -1
      vertex 33 -3 -1.5
    endloop
  endfacet
  facet normal -1 0 0
    outer loop
      vertex 33 0 -1
      vertex 33 -3 -0.5
      vertex 33 0 -0.5
    endloop
  endfacet
  facet normal -1 -0 0
    outer loop
      vertex 33 21 -0.5
      vertex 33 18 -1
      vertex 33 18 -0.5
    endloop
  endfacet
  facet normal -1 -0 0
    outer loop
      vertex 33 17 -0.5
      vertex 33 1 -1
      vertex 33 1 -0.5
    endloop
  endfacet
  facet normal 0 -1 0
    outer loop
      vertex 33 -3 -1.5
      vertex 36 -3 -0.5
      vertex 33 -3 -0.5
    endloop
  endfacet
  facet normal 0 -1 -0
    outer loop
      vertex 36 -3 -0.5
      vertex 33 -3 -1.5
      vertex 36 -3 -1.5
    endloop
  endfacet
  facet normal 1 0 0
    outer loop
      vertex 36 0 -0.5
      vertex 36 -3 -0.5
      vertex 36 0 -1
    endloop
  endfacet
  facet normal 1 0 0
    outer loop
      vertex 36 17 -0.5
      vertex 36 1 -0.5
      vertex 36 17 -1
    endloop
  endfacet
  facet normal 1 0 0
    outer loop
      vertex 36 18 -1
      vertex 36 21 -0.5
      vertex 36 18 -0.5
    endloop
  endfacet
  facet normal 1 0 0
    outer loop
      vertex 36 21 -0.5
      vertex 36 18 -1
      vertex 36 21 -1.5
    endloop
  endfacet
  facet normal 1 -0 0
    outer loop
      vertex 36 17 -1
      vertex 36 21 -1.5
      vertex 36 18 -1
    endloop
  endfacet
  facet normal 1 0 0
    outer loop
      vertex 36 1 -1
      vertex 36 17 -1
      vertex 36 1 -0.5
    endloop
  endfacet
  facet normal 1 0 0
    outer loop
      vertex 36 17 -1
      vertex 36 1 -1
      vertex 36 21 -1.5
    endloop
  endfacet
  facet normal 1 0 0
    outer loop
      vertex 36 -3 -1.5
      vertex 36 1 -1
      vertex 36 0 -1
    endloop
  endfacet
  facet normal 1 0 0
    outer loop
      vertex 36 1 -1
      vertex 36 -3 -1.5
      vertex 36 21 -1.5
    endloop
  endfacet
  facet normal 1 0 0
    outer loop
      vertex 36 -3 -1.5
      vertex 36 0 -1
      vertex 36 -3 -0.5
    endloop
  endfacet
  facet normal 0 1 -0
    outer loop
      vertex 44 21 -1.5
      vertex 41 21 -0.5
      vertex 44 21 -0.5
    endloop
  endfacet
  facet normal 0 1 0
    outer loop
      vertex 41 21 -0.5
      vertex 44 21 -1.5
      vertex 41 21 -1.5
    endloop
  endfacet
  facet normal -1 0 0
    outer loop
      vertex 41 21 -1.5
      vertex 41 18 -1
      vertex 41 21 -0.5
    endloop
  endfacet
  facet normal -1 0 0
    outer loop
      vertex 41 21 -1.5
      vertex 41 17 -1
      vertex 41 18 -1
    endloop
  endfacet
  facet normal -1 0 0
    outer loop
      vertex 41 17 -1
      vertex 41 1 -1
      vertex 41 17 -0.5
    endloop
  endfacet
  facet normal -1 0 0
    outer loop
      vertex 41 21 -1.5
      vertex 41 1 -1
      vertex 41 17 -1
    endloop
  endfacet
  facet normal -1 0 0
    outer loop
      vertex 41 -3 -1.5
      vertex 41 1 -1
      vertex 41 21 -1.5
    endloop
  endfacet
  facet normal -1 -0 0
    outer loop
      vertex 41 1 -1
      vertex 41 -3 -1.5
      vertex 41 0 -1
    endloop
  endfacet
  facet normal -1 0 0
    outer loop
      vertex 41 -3 -0.5
      vertex 41 0 -1
      vertex 41 -3 -1.5
    endloop
  endfacet
  facet normal -1 0 0
    outer loop
      vertex 41 0 -1
      vertex 41 -3 -0.5
      vertex 41 0 -0.5
    endloop
  endfacet
  facet normal -1 -0 0
    outer loop
      vertex 41 21 -0.5
      vertex 41 18 -1
      vertex 41 18 -0.5
    endloop
  endfacet
  facet normal -1 -0 0
    outer loop
      vertex 41 17 -0.5
      vertex 41 1 -1
      vertex 41 1 -0.5
    endloop
  endfacet
  facet normal 0 -1 0
    outer loop
      vertex 41 -3 -1.5
      vertex 44 -3 -0.5
      vertex 41 -3 -0.5
    endloop
  endfacet
  facet normal 0 -1 -0
    outer loop
      vertex 44 -3 -0.5
      vertex 41 -3 -1.5
      vertex 44 -3 -1.5
    endloop
  endfacet
  facet normal 1 0 0
    outer loop
      vertex 44 0 -0.5
      vertex 44 -3 -0.5
      vertex 44 0 -1
    endloop
  endfacet
  facet normal 1 0 0
    outer loop
      vertex 44 17 -0.5
      vertex 44 1 -0.5
      vertex 44 17 -1
    endloop
  endfacet
  facet normal 1 0 0
    outer loop
      vertex 44 18 -1
      vertex 44 21 -0.5
      vertex 44 18 -0.5
    endloop
  endfacet
  facet normal 1 0 0
    outer loop
      vertex 44 21 -0.5
      vertex 44 18 -1
      vertex 44 21 -1.5
    endloop
  endfacet
  facet normal 1 -0 0
    outer loop
      vertex 44 17 -1
      vertex 44 21 -1.5
      vertex 44 18 -1
    endloop
  endfacet
  facet normal 1 0 0
    outer loop
      vertex 44 1 -1
      vertex 44 17 -1
      vertex 44 1 -0.5
    endloop
  endfacet
  facet normal 1 0 0
    outer loop
      vertex 44 17 -1
      vertex 44 1 -1
      vertex 44 21 -1.5
    endloop
  endfacet
  facet normal 1 0 0
    outer loop
      vertex 44 -3 -1.5
      vertex 44 1 -1
      vertex 44 0 -1
    endloop
  endfacet
  facet normal 1 0 0
    outer loop
      vertex 44 1 -1
      vertex 44 -3 -1.5
      vertex 44 21 -1.5
    endloop
  endfacet
  facet normal 1 0 0
    outer loop
      vertex 44 -3 -1.5
      vertex 44 0 -1
      vertex 44 -3 -0.5
    endloop
  endfacet
endsolid OpenSCAD_Model
