solid OpenSCAD_Model
  facet normal 0 0 -1
    outer loop
      vertex 8.82715 1.75586 -1
      vertex 8.90478 4.4523 -1
      vertex 8.97874 0.215915 -1
    endloop
  endfacet
  facet normal 0 0 -1
    outer loop
      vertex 8.31445 3.44434 -1
      vertex 8.90478 4.4523 -1
      vertex 8.82715 1.75586 -1
    endloop
  endfacet
  facet normal 0 0 -1
    outer loop
      vertex 7.4834 5 -1
      vertex 8.90478 4.4523 -1
      vertex 8.31445 3.44434 -1
    endloop
  endfacet
  facet normal 0 0 -1
    outer loop
      vertex 8.90478 4.4523 -1
      vertex 7.4834 5 -1
      vertex 8.31445 5.55566 -1
    endloop
  endfacet
  facet normal 0 0 -1
    outer loop
      vertex 7.4834 5 -1
      vertex 7.07129 7.07129 -1
      vertex 8.31445 5.55566 -1
    endloop
  endfacet
  facet normal 0 0 -1
    outer loop
      vertex 6.36426 6.36426 -1
      vertex 7.07129 7.07129 -1
      vertex 7.4834 5 -1
    endloop
  endfacet
  facet normal 0 0 -1
    outer loop
      vertex 6.36426 6.36426 -1
      vertex 5.55566 8.31445 -1
      vertex 7.07129 7.07129 -1
    endloop
  endfacet
  facet normal 0 0 -1
    outer loop
      vertex 5 7.4834 -1
      vertex 5.55566 8.31445 -1
      vertex 6.36426 6.36426 -1
    endloop
  endfacet
  facet normal -0 0 -1
    outer loop
      vertex 5.55566 8.31445 -1
      vertex 5 7.4834 -1
      vertex 5 8.61175 -1
    endloop
  endfacet
  facet normal 0 0 -1
    outer loop
      vertex 1.75586 8.82715 -1
      vertex 2 9.79282 -1
      vertex 2 8.75302 -1
    endloop
  endfacet
  facet normal -0 0 -1
    outer loop
      vertex 2 9.79282 -1
      vertex 1.75586 8.82715 -1
      vertex 1.95117 9.80762 -1
    endloop
  endfacet
  facet normal 0 0 -1
    outer loop
      vertex 0 9 -1
      vertex 1.95117 9.80762 -1
      vertex 1.75586 8.82715 -1
    endloop
  endfacet
  facet normal -0 0 -1
    outer loop
      vertex 1.95117 9.80762 -1
      vertex 0 9 -1
      vertex 0 10 -1
    endloop
  endfacet
  facet normal 0 0 -1
    outer loop
      vertex 3.76855 -3.43555 -1
      vertex 2.53121 -3 -1
      vertex 4.0381 -3 -1
    endloop
  endfacet
  facet normal 0 0 -1
    outer loop
      vertex 2.27246 -3.29199 -1
      vertex 3.76855 -3.43555 -1
      vertex 2.27246 -4.56445 -1
    endloop
  endfacet
  facet normal 0 0 -1
    outer loop
      vertex 3.76855 -3.43555 -1
      vertex 2.27246 -3.29199 -1
      vertex 2.53121 -3 -1
    endloop
  endfacet
  facet normal 0 0 -1
    outer loop
      vertex 2.27246 -4.56445 -1
      vertex 0.482422 -3.9707 -1
      vertex 2.27246 -3.29199 -1
    endloop
  endfacet
  facet normal 0 0 -1
    outer loop
      vertex 0.470703 -5.07715 -1
      vertex 0.482422 -3.9707 -1
      vertex 2.27246 -4.56445 -1
    endloop
  endfacet
  facet normal 0 0 -1
    outer loop
      vertex -1.39551 -4.9043 -1
      vertex 0.482422 -3.9707 -1
      vertex 0.470703 -5.07715 -1
    endloop
  endfacet
  facet normal 0 0 -1
    outer loop
      vertex -1.39551 -4.9043 -1
      vertex -1.41797 -3.74023 -1
      vertex 0.482422 -3.9707 -1
    endloop
  endfacet
  facet normal 0 0 -1
    outer loop
      vertex -3.07324 -4.06934 -1
      vertex -1.41797 -3.74023 -1
      vertex -1.39551 -4.9043 -1
    endloop
  endfacet
  facet normal -0 0 -1
    outer loop
      vertex -1.41797 -3.74023 -1
      vertex -3.07324 -4.06934 -1
      vertex -2.99414 -2.65234 -1
    endloop
  endfacet
  facet normal 0 0 -1
    outer loop
      vertex -4.33496 -2.68457 -1
      vertex -2.99414 -2.65234 -1
      vertex -3.07324 -4.06934 -1
    endloop
  endfacet
  facet normal 0 0 -1
    outer loop
      vertex -5.01172 -0.936523 -1
      vertex -3.88379 -0.957031 -1
      vertex -4.33496 -2.68457 -1
    endloop
  endfacet
  facet normal -0 0 -1
    outer loop
      vertex -2.99414 -2.65234 -1
      vertex -4.33496 -2.68457 -1
      vertex -3.88379 -0.957031 -1
    endloop
  endfacet
  facet normal 0 0 -1
    outer loop
      vertex 0.482422 3.9707 -1
      vertex 2 4.64198 -1
      vertex 2 3.3953 -1
    endloop
  endfacet
  facet normal 0 0 -1
    outer loop
      vertex 0.482422 3.9707 -1
      vertex 0.470703 5.07715 -1
      vertex 2 4.64198 -1
    endloop
  endfacet
  facet normal 0 0 -1
    outer loop
      vertex 0.482422 3.9707 -1
      vertex -1.39551 4.9043 -1
      vertex 0.470703 5.07715 -1
    endloop
  endfacet
  facet normal 0 0 -1
    outer loop
      vertex -1.41797 3.74023 -1
      vertex -1.39551 4.9043 -1
      vertex 0.482422 3.9707 -1
    endloop
  endfacet
  facet normal 0 0 -1
    outer loop
      vertex -3.07324 4.06934 -1
      vertex -1.41797 3.74023 -1
      vertex -2.99414 2.65234 -1
    endloop
  endfacet
  facet normal 0 0 -1
    outer loop
      vertex -1.41797 3.74023 -1
      vertex -3.07324 4.06934 -1
      vertex -1.39551 4.9043 -1
    endloop
  endfacet
  facet normal 0 0 -1
    outer loop
      vertex -4.33496 2.68457 -1
      vertex -2.99414 2.65234 -1
      vertex -3.88379 0.957031 -1
    endloop
  endfacet
  facet normal 0 0 -1
    outer loop
      vertex -2.99414 2.65234 -1
      vertex -4.33496 2.68457 -1
      vertex -3.07324 4.06934 -1
    endloop
  endfacet
  facet normal 0 0 -1
    outer loop
      vertex -3.88379 -0.957031 -1
      vertex -5.01172 -0.936523 -1
      vertex -3.88379 0.957031 -1
    endloop
  endfacet
  facet normal 0 0 -1
    outer loop
      vertex -5.01172 0.936523 -1
      vertex -3.88379 0.957031 -1
      vertex -5.01172 -0.936523 -1
    endloop
  endfacet
  facet normal -0 0 -1
    outer loop
      vertex -3.88379 0.957031 -1
      vertex -5.01172 0.936523 -1
      vertex -4.33496 2.68457 -1
    endloop
  endfacet
  facet normal 0 0 -1
    outer loop
      vertex 5 0.52847 -1
      vertex 5.09863 0 -1
      vertex 5 -0.52847 -1
    endloop
  endfacet
  facet normal 0 0 1
    outer loop
      vertex 4 0 1
      vertex 5.09863 0 1
      vertex 4.75488 1.8418 1
    endloop
  endfacet
  facet normal 0 0 1
    outer loop
      vertex 5.09863 0 1
      vertex 4 0 1
      vertex 4.75488 -1.8418 1
    endloop
  endfacet
  facet normal -0 0 1
    outer loop
      vertex 3.54199 1.85938 1
      vertex 4.75488 1.8418 1
      vertex 3.76855 3.43555 1
    endloop
  endfacet
  facet normal 0 0 1
    outer loop
      vertex 4.75488 1.8418 1
      vertex 3.54199 1.85938 1
      vertex 4 0 1
    endloop
  endfacet
  facet normal 0 0 1
    outer loop
      vertex 2.27246 3.29199 1
      vertex 3.76855 3.43555 1
      vertex 2.27246 4.56445 1
    endloop
  endfacet
  facet normal 0 0 1
    outer loop
      vertex 3.76855 3.43555 1
      vertex 2.27246 3.29199 1
      vertex 3.54199 1.85938 1
    endloop
  endfacet
  facet normal 0 0 1
    outer loop
      vertex 2.27246 4.56445 1
      vertex 0.482422 3.9707 1
      vertex 2.27246 3.29199 1
    endloop
  endfacet
  facet normal 0 0 1
    outer loop
      vertex 0.470703 5.07715 1
      vertex 0.482422 3.9707 1
      vertex 2.27246 4.56445 1
    endloop
  endfacet
  facet normal -0 0 1
    outer loop
      vertex -1.39551 4.9043 1
      vertex 0.482422 3.9707 1
      vertex 0.470703 5.07715 1
    endloop
  endfacet
  facet normal 0 0 1
    outer loop
      vertex -1.39551 4.9043 1
      vertex -1.41797 3.74023 1
      vertex 0.482422 3.9707 1
    endloop
  endfacet
  facet normal -0 0 1
    outer loop
      vertex -3.07324 4.06934 1
      vertex -1.41797 3.74023 1
      vertex -1.39551 4.9043 1
    endloop
  endfacet
  facet normal 0 0 1
    outer loop
      vertex -1.41797 3.74023 1
      vertex -3.07324 4.06934 1
      vertex -2.99414 2.65234 1
    endloop
  endfacet
  facet normal -0 0 1
    outer loop
      vertex -4.33496 2.68457 1
      vertex -2.99414 2.65234 1
      vertex -3.07324 4.06934 1
    endloop
  endfacet
  facet normal 0 0 1
    outer loop
      vertex -5.01172 0.936523 1
      vertex -3.88379 0.957031 1
      vertex -4.33496 2.68457 1
    endloop
  endfacet
  facet normal 0 0 1
    outer loop
      vertex -2.99414 2.65234 1
      vertex -4.33496 2.68457 1
      vertex -3.88379 0.957031 1
    endloop
  endfacet
  facet normal 0 0 1
    outer loop
      vertex 3.54199 -1.85938 1
      vertex 4.75488 -1.8418 1
      vertex 4 0 1
    endloop
  endfacet
  facet normal 0 0 1
    outer loop
      vertex 4.75488 -1.8418 1
      vertex 3.54199 -1.85938 1
      vertex 3.76855 -3.43555 1
    endloop
  endfacet
  facet normal -0 0 1
    outer loop
      vertex 2.27246 -3.29199 1
      vertex 3.76855 -3.43555 1
      vertex 3.54199 -1.85938 1
    endloop
  endfacet
  facet normal 0 0 1
    outer loop
      vertex 2.27246 -3.29199 1
      vertex 2.27246 -4.56445 1
      vertex 3.76855 -3.43555 1
    endloop
  endfacet
  facet normal -0 0 1
    outer loop
      vertex 0.482422 -3.9707 1
      vertex 2.27246 -4.56445 1
      vertex 2.27246 -3.29199 1
    endloop
  endfacet
  facet normal 0 0 1
    outer loop
      vertex 0.482422 -3.9707 1
      vertex 0.470703 -5.07715 1
      vertex 2.27246 -4.56445 1
    endloop
  endfacet
  facet normal 0 0 1
    outer loop
      vertex 0.482422 -3.9707 1
      vertex -1.39551 -4.9043 1
      vertex 0.470703 -5.07715 1
    endloop
  endfacet
  facet normal 0 0 1
    outer loop
      vertex -1.41797 -3.74023 1
      vertex -1.39551 -4.9043 1
      vertex 0.482422 -3.9707 1
    endloop
  endfacet
  facet normal 0 0 1
    outer loop
      vertex -3.07324 -4.06934 1
      vertex -1.41797 -3.74023 1
      vertex -2.99414 -2.65234 1
    endloop
  endfacet
  facet normal 0 0 1
    outer loop
      vertex -1.41797 -3.74023 1
      vertex -3.07324 -4.06934 1
      vertex -1.39551 -4.9043 1
    endloop
  endfacet
  facet normal 0 0 1
    outer loop
      vertex -4.33496 -2.68457 1
      vertex -2.99414 -2.65234 1
      vertex -3.88379 -0.957031 1
    endloop
  endfacet
  facet normal 0 0 1
    outer loop
      vertex -2.99414 -2.65234 1
      vertex -4.33496 -2.68457 1
      vertex -3.07324 -4.06934 1
    endloop
  endfacet
  facet normal 0 0 1
    outer loop
      vertex -3.88379 0.957031 1
      vertex -5.01172 0.936523 1
      vertex -3.88379 -0.957031 1
    endloop
  endfacet
  facet normal -0 0 1
    outer loop
      vertex -5.01172 -0.936523 1
      vertex -3.88379 -0.957031 1
      vertex -5.01172 0.936523 1
    endloop
  endfacet
  facet normal 0 0 1
    outer loop
      vertex -3.88379 -0.957031 1
      vertex -5.01172 -0.936523 1
      vertex -4.33496 -2.68457 1
    endloop
  endfacet
  facet normal 0 0 1
    outer loop
      vertex 8.82715 1.75586 1
      vertex 9.80762 1.95117 1
      vertex 9.23926 3.82715 1
    endloop
  endfacet
  facet normal 0 0 1
    outer loop
      vertex 9.80762 1.95117 1
      vertex 8.82715 1.75586 1
      vertex 10 0 1
    endloop
  endfacet
  facet normal 0 0 1
    outer loop
      vertex 10 0 1
      vertex 8.82715 1.75586 1
      vertex 9 0 1
    endloop
  endfacet
  facet normal 0 0 1
    outer loop
      vertex 8.31445 3.44434 1
      vertex 9.23926 3.82715 1
      vertex 8.31445 5.55566 1
    endloop
  endfacet
  facet normal 0 0 1
    outer loop
      vertex 9.23926 3.82715 1
      vertex 8.31445 3.44434 1
      vertex 8.82715 1.75586 1
    endloop
  endfacet
  facet normal 0 0 1
    outer loop
      vertex 8.31445 5.55566 1
      vertex 7.4834 5 1
      vertex 8.31445 3.44434 1
    endloop
  endfacet
  facet normal 0 0 1
    outer loop
      vertex 7.07129 7.07129 1
      vertex 7.4834 5 1
      vertex 8.31445 5.55566 1
    endloop
  endfacet
  facet normal 0 0 1
    outer loop
      vertex 7.07129 7.07129 1
      vertex 6.36426 6.36426 1
      vertex 7.4834 5 1
    endloop
  endfacet
  facet normal 0 0 1
    outer loop
      vertex 5.55566 8.31445 1
      vertex 6.36426 6.36426 1
      vertex 7.07129 7.07129 1
    endloop
  endfacet
  facet normal 0 0 1
    outer loop
      vertex 5.55566 8.31445 1
      vertex 5 7.4834 1
      vertex 6.36426 6.36426 1
    endloop
  endfacet
  facet normal 0 0 1
    outer loop
      vertex 3.82715 9.23926 1
      vertex 5 7.4834 1
      vertex 5.55566 8.31445 1
    endloop
  endfacet
  facet normal 0 0 1
    outer loop
      vertex 3.82715 9.23926 1
      vertex 3.44434 8.31445 1
      vertex 5 7.4834 1
    endloop
  endfacet
  facet normal 0 0 1
    outer loop
      vertex 1.95117 9.80762 1
      vertex 3.44434 8.31445 1
      vertex 3.82715 9.23926 1
    endloop
  endfacet
  facet normal 0 0 1
    outer loop
      vertex 1.95117 9.80762 1
      vertex 1.75586 8.82715 1
      vertex 3.44434 8.31445 1
    endloop
  endfacet
  facet normal 0 0 1
    outer loop
      vertex 0 10 1
      vertex 1.75586 8.82715 1
      vertex 1.95117 9.80762 1
    endloop
  endfacet
  facet normal 0 0 1
    outer loop
      vertex 1.75586 8.82715 1
      vertex 0 10 1
      vertex 0 9 1
    endloop
  endfacet
  facet normal 0.957041 0.289952 0
    outer loop
      vertex 9.80762 1.95117 1
      vertex 9.23926 3.82715 -0.5
      vertex 9.23926 3.82715 1
    endloop
  endfacet
  facet normal 0.957041 0.289952 0
    outer loop
      vertex 9.23926 3.82715 -0.5
      vertex 9.80762 1.95117 1
      vertex 9.80762 1.95117 -0.5
    endloop
  endfacet
  facet normal 0.881732 0.471752 0
    outer loop
      vertex 8.31445 5.55566 1
      vertex 8.90478 4.4523 -0.5
      vertex 8.31445 5.55566 -1
    endloop
  endfacet
  facet normal 0.881732 0.471751 1.80846e-07
    outer loop
      vertex 9.23926 3.82715 1
      vertex 8.90478 4.4523 -0.5
      vertex 8.31445 5.55566 1
    endloop
  endfacet
  facet normal 0.881732 0.471751 0
    outer loop
      vertex 8.90478 4.4523 -0.5
      vertex 9.23926 3.82715 1
      vertex 9.23926 3.82715 -0.5
    endloop
  endfacet
  facet normal 0.881732 0.471752 0
    outer loop
      vertex 8.31445 5.55566 -1
      vertex 8.90478 4.4523 -0.5
      vertex 8.90478 4.4523 -1
    endloop
  endfacet
  facet normal 0.77318 0.634187 0
    outer loop
      vertex 8.31445 5.55566 1
      vertex 7.07129 7.07129 -1
      vertex 7.07129 7.07129 1
    endloop
  endfacet
  facet normal 0.77318 0.634187 0
    outer loop
      vertex 7.07129 7.07129 -1
      vertex 8.31445 5.55566 1
      vertex 8.31445 5.55566 -1
    endloop
  endfacet
  facet normal 0.634187 0.77318 -0
    outer loop
      vertex 7.07129 7.07129 -1
      vertex 5.55566 8.31445 1
      vertex 7.07129 7.07129 1
    endloop
  endfacet
  facet normal 0.634187 0.77318 0
    outer loop
      vertex 5.55566 8.31445 1
      vertex 7.07129 7.07129 -1
      vertex 5.55566 8.31445 -1
    endloop
  endfacet
  facet normal 0.471751 0.881732 -2.35004e-07
    outer loop
      vertex 5.55566 8.31445 1
      vertex 5 8.61175 -0.5
      vertex 3.82715 9.23926 1
    endloop
  endfacet
  facet normal 0.471751 0.881732 -0
    outer loop
      vertex 5.55566 8.31445 -1
      vertex 5 8.61175 -0.5
      vertex 5.55566 8.31445 1
    endloop
  endfacet
  facet normal 0.471751 0.881732 0
    outer loop
      vertex 5 8.61175 -0.5
      vertex 5.55566 8.31445 -1
      vertex 5 8.61175 -1
    endloop
  endfacet
  facet normal 0.471752 0.881732 0
    outer loop
      vertex 3.82715 9.23926 1
      vertex 5 8.61175 -0.5
      vertex 3.82715 9.23926 -0.5
    endloop
  endfacet
  facet normal 0.289952 0.957041 0
    outer loop
      vertex 2 9.79282 -0.5
      vertex 3.82715 9.23926 1
      vertex 3.82715 9.23926 -0.5
    endloop
  endfacet
  facet normal 0.289952 0.957041 -4.81455e-08
    outer loop
      vertex 3.82715 9.23926 1
      vertex 2 9.79282 -0.5
      vertex 1.95117 9.80762 1
    endloop
  endfacet
  facet normal 0.289953 0.957041 0
    outer loop
      vertex 1.95117 9.80762 -1
      vertex 2 9.79282 -0.5
      vertex 2 9.79282 -1
    endloop
  endfacet
  facet normal 0.289953 0.957041 0
    outer loop
      vertex 2 9.79282 -0.5
      vertex 1.95117 9.80762 -1
      vertex 1.95117 9.80762 1
    endloop
  endfacet
  facet normal 0.0981228 0.995174 -0
    outer loop
      vertex 1.95117 9.80762 -1
      vertex 0 10 1
      vertex 1.95117 9.80762 1
    endloop
  endfacet
  facet normal 0.0981228 0.995174 0
    outer loop
      vertex 0 10 1
      vertex 1.95117 9.80762 -1
      vertex 0 10 -1
    endloop
  endfacet
  facet normal -1 0 0
    outer loop
      vertex 0 9 -1
      vertex 0 10 1
      vertex 0 10 -1
    endloop
  endfacet
  facet normal -1 -0 0
    outer loop
      vertex 0 10 1
      vertex 0 9 -1
      vertex 0 9 1
    endloop
  endfacet
  facet normal -0.0979692 -0.995189 0
    outer loop
      vertex 0 9 -1
      vertex 1.75586 8.82715 1
      vertex 0 9 1
    endloop
  endfacet
  facet normal -0.0979692 -0.995189 -0
    outer loop
      vertex 1.75586 8.82715 1
      vertex 0 9 -1
      vertex 1.75586 8.82715 -1
    endloop
  endfacet
  facet normal -0.290545 -0.956861 1.25612e-07
    outer loop
      vertex 1.75586 8.82715 1
      vertex 2 8.75302 -0.5
      vertex 3.44434 8.31445 1
    endloop
  endfacet
  facet normal -0.290546 -0.956861 0
    outer loop
      vertex 1.75586 8.82715 -1
      vertex 2 8.75302 -0.5
      vertex 1.75586 8.82715 1
    endloop
  endfacet
  facet normal -0.290546 -0.956861 -0
    outer loop
      vertex 2 8.75302 -0.5
      vertex 1.75586 8.82715 -1
      vertex 2 8.75302 -1
    endloop
  endfacet
  facet normal -0.290545 -0.956861 -0
    outer loop
      vertex 3.44434 8.31445 1
      vertex 2 8.75302 -0.5
      vertex 3.44434 8.31445 -0.5
    endloop
  endfacet
  facet normal -0.471192 -0.882031 0
    outer loop
      vertex 3.44434 8.31445 -0.5
      vertex 5 7.4834 1
      vertex 3.44434 8.31445 1
    endloop
  endfacet
  facet normal -0.471192 -0.882031 -0
    outer loop
      vertex 5 7.4834 1
      vertex 3.44434 8.31445 -0.5
      vertex 5 7.4834 -0.5
    endloop
  endfacet
  facet normal -0.634232 -0.773143 0
    outer loop
      vertex 5 7.4834 -0.5
      vertex 6.36426 6.36426 1
      vertex 5 7.4834 1
    endloop
  endfacet
  facet normal -0.634232 -0.773143 0
    outer loop
      vertex 6.36426 6.36426 -1
      vertex 5 7.4834 -0.5
      vertex 5 7.4834 -1
    endloop
  endfacet
  facet normal -0.634232 -0.773143 0
    outer loop
      vertex 5 7.4834 -0.5
      vertex 6.36426 6.36426 -1
      vertex 6.36426 6.36426 1
    endloop
  endfacet
  facet normal -0.773143 -0.634232 0
    outer loop
      vertex 7.4834 5 -1
      vertex 6.36426 6.36426 1
      vertex 6.36426 6.36426 -1
    endloop
  endfacet
  facet normal -0.773143 -0.634232 0
    outer loop
      vertex 6.36426 6.36426 1
      vertex 7.4834 5 -1
      vertex 7.4834 5 1
    endloop
  endfacet
  facet normal -0.882031 -0.471192 0
    outer loop
      vertex 8.31445 3.44434 -1
      vertex 7.4834 5 1
      vertex 7.4834 5 -1
    endloop
  endfacet
  facet normal -0.882031 -0.471192 0
    outer loop
      vertex 7.4834 5 1
      vertex 8.31445 3.44434 -1
      vertex 8.31445 3.44434 1
    endloop
  endfacet
  facet normal -0.956861 -0.290545 0
    outer loop
      vertex 8.82715 1.75586 -1
      vertex 8.31445 3.44434 1
      vertex 8.31445 3.44434 -1
    endloop
  endfacet
  facet normal -0.956861 -0.290545 0
    outer loop
      vertex 8.31445 3.44434 1
      vertex 8.82715 1.75586 -1
      vertex 8.82715 1.75586 1
    endloop
  endfacet
  facet normal -0.995189 -0.097969 -0
    outer loop
      vertex 8.97874 0.215915 -0.5
      vertex 8.82715 1.75586 -1
      vertex 8.97874 0.215915 -1
    endloop
  endfacet
  facet normal -0.995189 -0.097969 0
    outer loop
      vertex 8.82715 1.75586 -1
      vertex 8.97874 0.215915 -0.5
      vertex 8.82715 1.75586 1
    endloop
  endfacet
  facet normal -0.995189 -0.0979701 -0
    outer loop
      vertex 9 0 1
      vertex 8.97874 0.215915 -0.5
      vertex 9 0 -0.5
    endloop
  endfacet
  facet normal -0.995189 -0.0979692 1.37479e-07
    outer loop
      vertex 8.97874 0.215915 -0.5
      vertex 9 0 1
      vertex 8.82715 1.75586 1
    endloop
  endfacet
  facet normal 0 -1 0
    outer loop
      vertex 9 0 -0.5
      vertex 10 0 1
      vertex 9 0 1
    endloop
  endfacet
  facet normal 0 -1 -0
    outer loop
      vertex 10 0 1
      vertex 9 0 -0.5
      vertex 10 0 -0.5
    endloop
  endfacet
  facet normal 0.995174 0.0981228 0
    outer loop
      vertex 10 0 1
      vertex 9.80762 1.95117 -0.5
      vertex 9.80762 1.95117 1
    endloop
  endfacet
  facet normal 0.995174 0.0981228 0
    outer loop
      vertex 9.80762 1.95117 -0.5
      vertex 10 0 1
      vertex 10 0 -0.5
    endloop
  endfacet
  facet normal 0.602332 -0.798246 0
    outer loop
      vertex 2.27246 -4.56445 -1
      vertex 3.76855 -3.43555 1
      vertex 2.27246 -4.56445 1
    endloop
  endfacet
  facet normal 0.602332 -0.798246 0
    outer loop
      vertex 3.76855 -3.43555 1
      vertex 2.27246 -4.56445 -1
      vertex 3.76855 -3.43555 -1
    endloop
  endfacet
  facet normal 0.850332 -0.526247 0
    outer loop
      vertex 4.75488 -1.8418 1
      vertex 4.0381 -3 -0.5
      vertex 4.75488 -1.8418 -0.5
    endloop
  endfacet
  facet normal 0.850332 -0.526247 -3.71018e-08
    outer loop
      vertex 3.76855 -3.43555 1
      vertex 4.0381 -3 -0.5
      vertex 4.75488 -1.8418 1
    endloop
  endfacet
  facet normal 0.850332 -0.526247 0
    outer loop
      vertex 3.76855 -3.43555 -1
      vertex 4.0381 -3 -0.5
      vertex 3.76855 -3.43555 1
    endloop
  endfacet
  facet normal 0.850332 -0.526247 0
    outer loop
      vertex 4.0381 -3 -0.5
      vertex 3.76855 -3.43555 -1
      vertex 4.0381 -3 -1
    endloop
  endfacet
  facet normal 0.983025 -0.18347 0
    outer loop
      vertex 5.09863 0 1
      vertex 5 -0.52847 -0.5
      vertex 5.09863 0 -1
    endloop
  endfacet
  facet normal 0.983025 -0.18347 -3.31384e-09
    outer loop
      vertex 4.75488 -1.8418 1
      vertex 5 -0.52847 -0.5
      vertex 5.09863 0 1
    endloop
  endfacet
  facet normal 0.983025 -0.18347 0
    outer loop
      vertex 5 -0.52847 -0.5
      vertex 4.75488 -1.8418 1
      vertex 4.75488 -1.8418 -0.5
    endloop
  endfacet
  facet normal 0.983025 -0.18347 0
    outer loop
      vertex 5.09863 0 -1
      vertex 5 -0.52847 -0.5
      vertex 5 -0.52847 -1
    endloop
  endfacet
  facet normal 0.983025 0.18347 0
    outer loop
      vertex 4.75488 1.8418 1
      vertex 5 0.52847 -0.5
      vertex 4.75488 1.8418 -0.5
    endloop
  endfacet
  facet normal 0.983025 0.18347 -3.31384e-09
    outer loop
      vertex 5.09863 0 1
      vertex 5 0.52847 -0.5
      vertex 4.75488 1.8418 1
    endloop
  endfacet
  facet normal 0.983025 0.18347 -0
    outer loop
      vertex 5.09863 0 -1
      vertex 5 0.52847 -0.5
      vertex 5.09863 0 1
    endloop
  endfacet
  facet normal 0.983025 0.18347 0
    outer loop
      vertex 5 0.52847 -0.5
      vertex 5.09863 0 -1
      vertex 5 0.52847 -1
    endloop
  endfacet
  facet normal 0.850332 0.526247 0
    outer loop
      vertex 4.75488 1.8418 1
      vertex 3.76855 3.43555 -0.5
      vertex 3.76855 3.43555 1
    endloop
  endfacet
  facet normal 0.850332 0.526247 0
    outer loop
      vertex 3.76855 3.43555 -0.5
      vertex 4.75488 1.8418 1
      vertex 4.75488 1.8418 -0.5
    endloop
  endfacet
  facet normal 0.602332 0.798246 -0
    outer loop
      vertex 3.76855 3.43555 -0.5
      vertex 2.27246 4.56445 1
      vertex 3.76855 3.43555 1
    endloop
  endfacet
  facet normal 0.602332 0.798246 0
    outer loop
      vertex 2.27246 4.56445 1
      vertex 3.76855 3.43555 -0.5
      vertex 2.27246 4.56445 -0.5
    endloop
  endfacet
  facet normal 0.273688 0.961819 0
    outer loop
      vertex 2 4.64198 -0.5
      vertex 2.27246 4.56445 1
      vertex 2.27246 4.56445 -0.5
    endloop
  endfacet
  facet normal 0.273688 0.961818 -6.71167e-08
    outer loop
      vertex 2.27246 4.56445 1
      vertex 2 4.64198 -0.5
      vertex 0.470703 5.07715 1
    endloop
  endfacet
  facet normal 0.273688 0.961818 0
    outer loop
      vertex 0.470703 5.07715 -1
      vertex 2 4.64198 -0.5
      vertex 2 4.64198 -1
    endloop
  endfacet
  facet normal 0.273688 0.961818 0
    outer loop
      vertex 2 4.64198 -0.5
      vertex 0.470703 5.07715 -1
      vertex 0.470703 5.07715 1
    endloop
  endfacet
  facet normal -0.0922269 0.995738 0
    outer loop
      vertex 0.470703 5.07715 -1
      vertex -1.39551 4.9043 1
      vertex 0.470703 5.07715 1
    endloop
  endfacet
  facet normal -0.0922269 0.995738 0
    outer loop
      vertex -1.39551 4.9043 1
      vertex 0.470703 5.07715 -1
      vertex -1.39551 4.9043 -1
    endloop
  endfacet
  facet normal -0.445545 0.895259 0
    outer loop
      vertex -1.39551 4.9043 -1
      vertex -3.07324 4.06934 1
      vertex -1.39551 4.9043 1
    endloop
  endfacet
  facet normal -0.445545 0.895259 0
    outer loop
      vertex -3.07324 4.06934 1
      vertex -1.39551 4.9043 -1
      vertex -3.07324 4.06934 -1
    endloop
  endfacet
  facet normal -0.739185 0.673503 0
    outer loop
      vertex -4.33496 2.68457 -1
      vertex -3.07324 4.06934 1
      vertex -3.07324 4.06934 -1
    endloop
  endfacet
  facet normal -0.739185 0.673503 0
    outer loop
      vertex -3.07324 4.06934 1
      vertex -4.33496 2.68457 -1
      vertex -4.33496 2.68457 1
    endloop
  endfacet
  facet normal -0.932551 0.361038 0
    outer loop
      vertex -5.01172 0.936523 -1
      vertex -4.33496 2.68457 1
      vertex -4.33496 2.68457 -1
    endloop
  endfacet
  facet normal -0.932551 0.361038 0
    outer loop
      vertex -4.33496 2.68457 1
      vertex -5.01172 0.936523 -1
      vertex -5.01172 0.936523 1
    endloop
  endfacet
  facet normal -1 0 0
    outer loop
      vertex -5.01172 -0.936523 -1
      vertex -5.01172 0.936523 1
      vertex -5.01172 0.936523 -1
    endloop
  endfacet
  facet normal -1 -0 0
    outer loop
      vertex -5.01172 0.936523 1
      vertex -5.01172 -0.936523 -1
      vertex -5.01172 -0.936523 1
    endloop
  endfacet
  facet normal -0.932551 -0.361038 0
    outer loop
      vertex -4.33496 -2.68457 -1
      vertex -5.01172 -0.936523 1
      vertex -5.01172 -0.936523 -1
    endloop
  endfacet
  facet normal -0.932551 -0.361038 0
    outer loop
      vertex -5.01172 -0.936523 1
      vertex -4.33496 -2.68457 -1
      vertex -4.33496 -2.68457 1
    endloop
  endfacet
  facet normal -0.739185 -0.673503 0
    outer loop
      vertex -3.07324 -4.06934 -1
      vertex -4.33496 -2.68457 1
      vertex -4.33496 -2.68457 -1
    endloop
  endfacet
  facet normal -0.739185 -0.673503 0
    outer loop
      vertex -4.33496 -2.68457 1
      vertex -3.07324 -4.06934 -1
      vertex -3.07324 -4.06934 1
    endloop
  endfacet
  facet normal -0.445545 -0.895259 0
    outer loop
      vertex -3.07324 -4.06934 -1
      vertex -1.39551 -4.9043 1
      vertex -3.07324 -4.06934 1
    endloop
  endfacet
  facet normal -0.445545 -0.895259 -0
    outer loop
      vertex -1.39551 -4.9043 1
      vertex -3.07324 -4.06934 -1
      vertex -1.39551 -4.9043 -1
    endloop
  endfacet
  facet normal -0.0922269 -0.995738 0
    outer loop
      vertex -1.39551 -4.9043 -1
      vertex 0.470703 -5.07715 1
      vertex -1.39551 -4.9043 1
    endloop
  endfacet
  facet normal -0.0922269 -0.995738 -0
    outer loop
      vertex 0.470703 -5.07715 1
      vertex -1.39551 -4.9043 -1
      vertex 0.470703 -5.07715 -1
    endloop
  endfacet
  facet normal 0.273688 -0.961818 0
    outer loop
      vertex 0.470703 -5.07715 -1
      vertex 2.27246 -4.56445 1
      vertex 0.470703 -5.07715 1
    endloop
  endfacet
  facet normal 0.273688 -0.961818 0
    outer loop
      vertex 2.27246 -4.56445 1
      vertex 0.470703 -5.07715 -1
      vertex 2.27246 -4.56445 -1
    endloop
  endfacet
  facet normal 0.568043 0.822999 -0
    outer loop
      vertex -1.41797 -3.74023 -1
      vertex -2.99414 -2.65234 1
      vertex -1.41797 -3.74023 1
    endloop
  endfacet
  facet normal 0.568043 0.822999 0
    outer loop
      vertex -2.99414 -2.65234 1
      vertex -1.41797 -3.74023 -1
      vertex -2.99414 -2.65234 -1
    endloop
  endfacet
  facet normal 0.885482 0.464674 0
    outer loop
      vertex -2.99414 -2.65234 1
      vertex -3.88379 -0.957031 -1
      vertex -3.88379 -0.957031 1
    endloop
  endfacet
  facet normal 0.885482 0.464674 0
    outer loop
      vertex -3.88379 -0.957031 -1
      vertex -2.99414 -2.65234 1
      vertex -2.99414 -2.65234 -1
    endloop
  endfacet
  facet normal 1 -0 0
    outer loop
      vertex -3.88379 -0.957031 1
      vertex -3.88379 0.957031 -1
      vertex -3.88379 0.957031 1
    endloop
  endfacet
  facet normal 1 0 0
    outer loop
      vertex -3.88379 0.957031 -1
      vertex -3.88379 -0.957031 1
      vertex -3.88379 -0.957031 -1
    endloop
  endfacet
  facet normal 0.885482 -0.464674 0
    outer loop
      vertex -3.88379 0.957031 1
      vertex -2.99414 2.65234 -1
      vertex -2.99414 2.65234 1
    endloop
  endfacet
  facet normal 0.885482 -0.464674 0
    outer loop
      vertex -2.99414 2.65234 -1
      vertex -3.88379 0.957031 1
      vertex -3.88379 0.957031 -1
    endloop
  endfacet
  facet normal 0.568043 -0.822999 0
    outer loop
      vertex -2.99414 2.65234 -1
      vertex -1.41797 3.74023 1
      vertex -2.99414 2.65234 1
    endloop
  endfacet
  facet normal 0.568043 -0.822999 0
    outer loop
      vertex -1.41797 3.74023 1
      vertex -2.99414 2.65234 -1
      vertex -1.41797 3.74023 -1
    endloop
  endfacet
  facet normal 0.120392 -0.992726 0
    outer loop
      vertex -1.41797 3.74023 -1
      vertex 0.482422 3.9707 1
      vertex -1.41797 3.74023 1
    endloop
  endfacet
  facet normal 0.120392 -0.992726 0
    outer loop
      vertex 0.482422 3.9707 1
      vertex -1.41797 3.74023 -1
      vertex 0.482422 3.9707 -1
    endloop
  endfacet
  facet normal -0.354531 -0.935044 -2.87026e-08
    outer loop
      vertex 0.482422 3.9707 1
      vertex 2 3.3953 -0.5
      vertex 2.27246 3.29199 1
    endloop
  endfacet
  facet normal -0.354531 -0.935044 0
    outer loop
      vertex 0.482422 3.9707 -1
      vertex 2 3.3953 -0.5
      vertex 0.482422 3.9707 1
    endloop
  endfacet
  facet normal -0.354531 -0.935044 -0
    outer loop
      vertex 2 3.3953 -0.5
      vertex 0.482422 3.9707 -1
      vertex 2 3.3953 -1
    endloop
  endfacet
  facet normal -0.354531 -0.935044 -0
    outer loop
      vertex 2.27246 3.29199 1
      vertex 2 3.3953 -0.5
      vertex 2.27246 3.29199 -0.5
    endloop
  endfacet
  facet normal -0.748422 -0.663223 0
    outer loop
      vertex 3.54199 1.85938 -0.5
      vertex 2.27246 3.29199 1
      vertex 2.27246 3.29199 -0.5
    endloop
  endfacet
  facet normal -0.748422 -0.663223 0
    outer loop
      vertex 2.27246 3.29199 1
      vertex 3.54199 1.85938 -0.5
      vertex 3.54199 1.85938 1
    endloop
  endfacet
  facet normal -0.970977 -0.239174 0
    outer loop
      vertex 4 0 -0.5
      vertex 3.54199 1.85938 1
      vertex 3.54199 1.85938 -0.5
    endloop
  endfacet
  facet normal -0.970977 -0.239174 0
    outer loop
      vertex 3.54199 1.85938 1
      vertex 4 0 -0.5
      vertex 4 0 1
    endloop
  endfacet
  facet normal -0.970977 0.239174 0
    outer loop
      vertex 3.54199 -1.85938 -0.5
      vertex 4 0 1
      vertex 4 0 -0.5
    endloop
  endfacet
  facet normal -0.970977 0.239174 0
    outer loop
      vertex 4 0 1
      vertex 3.54199 -1.85938 -0.5
      vertex 3.54199 -1.85938 1
    endloop
  endfacet
  facet normal -0.748422 0.663223 0
    outer loop
      vertex 2.53121 -3 -1
      vertex 2.27246 -3.29199 -1
      vertex 2.53121 -3 -0.5
    endloop
  endfacet
  facet normal -0.748422 0.663223 0
    outer loop
      vertex 2.53121 -3 -0.5
      vertex 3.54199 -1.85938 1
      vertex 3.54199 -1.85938 -0.5
    endloop
  endfacet
  facet normal -0.748422 0.663223 5.17352e-08
    outer loop
      vertex 2.53121 -3 -0.5
      vertex 2.27246 -3.29199 1
      vertex 3.54199 -1.85938 1
    endloop
  endfacet
  facet normal -0.748422 0.663223 0
    outer loop
      vertex 2.27246 -3.29199 1
      vertex 2.53121 -3 -0.5
      vertex 2.27246 -3.29199 -1
    endloop
  endfacet
  facet normal -0.354531 0.935044 0
    outer loop
      vertex 2.27246 -3.29199 -1
      vertex 0.482422 -3.9707 1
      vertex 2.27246 -3.29199 1
    endloop
  endfacet
  facet normal -0.354531 0.935044 0
    outer loop
      vertex 0.482422 -3.9707 1
      vertex 2.27246 -3.29199 -1
      vertex 0.482422 -3.9707 -1
    endloop
  endfacet
  facet normal 0.120392 0.992726 -0
    outer loop
      vertex 0.482422 -3.9707 -1
      vertex -1.41797 -3.74023 1
      vertex 0.482422 -3.9707 1
    endloop
  endfacet
  facet normal 0.120392 0.992726 0
    outer loop
      vertex -1.41797 -3.74023 1
      vertex 0.482422 -3.9707 -1
      vertex -1.41797 -3.74023 -1
    endloop
  endfacet
  facet normal 0 0 -1
    outer loop
      vertex 44.1143 -0.583008 -1.5
      vertex 44.5889 23.5986 -1.5
      vertex 47.0977 -0.269531 -1.5
    endloop
  endfacet
  facet normal 0 0 -1
    outer loop
      vertex 44.5889 23.5986 -1.5
      vertex 44.1143 -0.583008 -1.5
      vertex 41.6055 23.2852 -1.5
    endloop
  endfacet
  facet normal 0 0 -1
    outer loop
      vertex 37.1162 -1.29199 -1.5
      vertex 38.0127 22.8779 -1.5
      vertex 40.1045 -1.03027 -1.5
    endloop
  endfacet
  facet normal 0 0 -1
    outer loop
      vertex 38.0127 22.8779 -1.5
      vertex 37.1162 -1.29199 -1.5
      vertex 35.0244 22.6162 -1.5
    endloop
  endfacet
  facet normal 0 0 -1
    outer loop
      vertex 30.1074 -1.87891 -1.5
      vertex 31.4258 22.2725 -1.5
      vertex 33.0996 -1.66992 -1.5
    endloop
  endfacet
  facet normal 0 0 -1
    outer loop
      vertex 31.4258 22.2725 -1.5
      vertex 30.1074 -1.87891 -1.5
      vertex 28.4326 22.0625 -1.5
    endloop
  endfacet
  facet normal 0 0 -1
    outer loop
      vertex 23.0889 -2.34277 -1.5
      vertex 24.8281 21.7812 -1.5
      vertex 26.085 -2.18555 -1.5
    endloop
  endfacet
  facet normal 0 0 -1
    outer loop
      vertex 24.8281 21.7812 -1.5
      vertex 23.0889 -2.34277 -1.5
      vertex 21.833 21.624 -1.5
    endloop
  endfacet
  facet normal 0 0 -1
    outer loop
      vertex 16.0635 -2.68457 -1.5
      vertex 18.2236 21.4053 -1.5
      vertex 19.0615 -2.58008 -1.5
    endloop
  endfacet
  facet normal 0 0 -1
    outer loop
      vertex 18.2236 21.4053 -1.5
      vertex 16.0635 -2.68457 -1.5
      vertex 15.2256 21.3008 -1.5
    endloop
  endfacet
  facet normal 0 0 -1
    outer loop
      vertex 9.0332 -2.90332 -1.5
      vertex 11.6133 21.1445 -1.5
      vertex 12.0322 -2.85156 -1.5
    endloop
  endfacet
  facet normal 0 0 -1
    outer loop
      vertex 11.6133 21.1445 -1.5
      vertex 9.0332 -2.90332 -1.5
      vertex 8.61426 21.0928 -1.5
    endloop
  endfacet
  facet normal 0 0 -1
    outer loop
      vertex 2 -3 -1.5
      vertex 5 21 -1.5
      vertex 5 -3 -1.5
    endloop
  endfacet
  facet normal -0 0 -1
    outer loop
      vertex 5 21 -1.5
      vertex 2 -3 -1.5
      vertex 2 21 -1.5
    endloop
  endfacet
  facet normal 0 0 1
    outer loop
      vertex 44.5889 23.5986 -0.5
      vertex 44.1143 -0.583008 -0.5
      vertex 47.0977 -0.269531 -0.5
    endloop
  endfacet
  facet normal 0 -0 1
    outer loop
      vertex 44.1143 -0.583008 -0.5
      vertex 44.5889 23.5986 -0.5
      vertex 41.6055 23.2852 -0.5
    endloop
  endfacet
  facet normal 0 0 1
    outer loop
      vertex 38.0127 22.8779 -0.5
      vertex 37.1162 -1.29199 -0.5
      vertex 40.1045 -1.03027 -0.5
    endloop
  endfacet
  facet normal 0 -0 1
    outer loop
      vertex 37.1162 -1.29199 -0.5
      vertex 38.0127 22.8779 -0.5
      vertex 35.0244 22.6162 -0.5
    endloop
  endfacet
  facet normal 0 0 1
    outer loop
      vertex 31.4258 22.2725 -0.5
      vertex 30.1074 -1.87891 -0.5
      vertex 33.0996 -1.66992 -0.5
    endloop
  endfacet
  facet normal 0 -0 1
    outer loop
      vertex 30.1074 -1.87891 -0.5
      vertex 31.4258 22.2725 -0.5
      vertex 28.4326 22.0625 -0.5
    endloop
  endfacet
  facet normal 0 0 1
    outer loop
      vertex 24.8281 21.7812 -0.5
      vertex 23.0889 -2.34277 -0.5
      vertex 26.085 -2.18555 -0.5
    endloop
  endfacet
  facet normal 0 -0 1
    outer loop
      vertex 23.0889 -2.34277 -0.5
      vertex 24.8281 21.7812 -0.5
      vertex 21.833 21.624 -0.5
    endloop
  endfacet
  facet normal 0 0 1
    outer loop
      vertex 18.2236 21.4053 -0.5
      vertex 16.0635 -2.68457 -0.5
      vertex 19.0615 -2.58008 -0.5
    endloop
  endfacet
  facet normal 0 -0 1
    outer loop
      vertex 16.0635 -2.68457 -0.5
      vertex 18.2236 21.4053 -0.5
      vertex 15.2256 21.3008 -0.5
    endloop
  endfacet
  facet normal 0 0 1
    outer loop
      vertex 12.0322 -2.85156 -0.5
      vertex 9.80762 1.95117 -0.5
      vertex 10 0 -0.5
    endloop
  endfacet
  facet normal 0 0 1
    outer loop
      vertex 11.6133 21.1445 -0.5
      vertex 9.23926 3.82715 -0.5
      vertex 9.80762 1.95117 -0.5
    endloop
  endfacet
  facet normal 0 0 1
    outer loop
      vertex 11.6133 21.1445 -0.5
      vertex 8.90478 4.4523 -0.5
      vertex 9.23926 3.82715 -0.5
    endloop
  endfacet
  facet normal 0 -0 1
    outer loop
      vertex 8.90478 4.4523 -0.5
      vertex 11.6133 21.1445 -0.5
      vertex 8.61426 21.0928 -0.5
    endloop
  endfacet
  facet normal -0 0 1
    outer loop
      vertex 9.80762 1.95117 -0.5
      vertex 12.0322 -2.85156 -0.5
      vertex 11.6133 21.1445 -0.5
    endloop
  endfacet
  facet normal 0 0 1
    outer loop
      vertex 10 0 -0.5
      vertex 9.0332 -2.90332 -0.5
      vertex 12.0322 -2.85156 -0.5
    endloop
  endfacet
  facet normal -0 0 1
    outer loop
      vertex 9 0 -0.5
      vertex 9.0332 -2.90332 -0.5
      vertex 10 0 -0.5
    endloop
  endfacet
  facet normal 0 0 1
    outer loop
      vertex 9.0332 -2.90332 -0.5
      vertex 9 0 -0.5
      vertex 8.97874 0.215915 -0.5
    endloop
  endfacet
  facet normal 0 0 1
    outer loop
      vertex 5 21 -0.5
      vertex 3.82715 9.23926 -0.5
      vertex 5 8.61175 -0.5
    endloop
  endfacet
  facet normal 0 0 1
    outer loop
      vertex 2 9.79282 -0.5
      vertex 5 21 -0.5
      vertex 2 21 -0.5
    endloop
  endfacet
  facet normal 0 0 1
    outer loop
      vertex 5 21 -0.5
      vertex 2 9.79282 -0.5
      vertex 3.82715 9.23926 -0.5
    endloop
  endfacet
  facet normal -0 0 1
    outer loop
      vertex 4.75488 -1.8418 -0.5
      vertex 5 -3 -0.5
      vertex 5 -0.52847 -0.5
    endloop
  endfacet
  facet normal 0 0 1
    outer loop
      vertex 5 -3 -0.5
      vertex 4.75488 -1.8418 -0.5
      vertex 4.0381 -3 -0.5
    endloop
  endfacet
  facet normal 0 0 1
    outer loop
      vertex 2 -3 -0.5
      vertex 4 0 -0.5
      vertex 3.54199 1.85938 -0.5
    endloop
  endfacet
  facet normal 0 0 1
    outer loop
      vertex 4 0 -0.5
      vertex 2 -3 -0.5
      vertex 3.54199 -1.85938 -0.5
    endloop
  endfacet
  facet normal 0 0 1
    outer loop
      vertex 2 3.3953 -0.5
      vertex 3.54199 1.85938 -0.5
      vertex 2.27246 3.29199 -0.5
    endloop
  endfacet
  facet normal 0 0 1
    outer loop
      vertex 3.54199 1.85938 -0.5
      vertex 2 3.3953 -0.5
      vertex 2 -3 -0.5
    endloop
  endfacet
  facet normal 0 0 1
    outer loop
      vertex 3.54199 -1.85938 -0.5
      vertex 2 -3 -0.5
      vertex 2.53121 -3 -0.5
    endloop
  endfacet
  facet normal 0 0 1
    outer loop
      vertex 5 7.4834 -0.5
      vertex 4.75488 1.8418 -0.5
      vertex 5 0.52847 -0.5
    endloop
  endfacet
  facet normal 0 0 1
    outer loop
      vertex 5 7.4834 -0.5
      vertex 3.76855 3.43555 -0.5
      vertex 4.75488 1.8418 -0.5
    endloop
  endfacet
  facet normal 0 0 1
    outer loop
      vertex 2.27246 4.56445 -0.5
      vertex 5 7.4834 -0.5
      vertex 3.44434 8.31445 -0.5
    endloop
  endfacet
  facet normal 0 0 1
    outer loop
      vertex 5 7.4834 -0.5
      vertex 2.27246 4.56445 -0.5
      vertex 3.76855 3.43555 -0.5
    endloop
  endfacet
  facet normal 0 0 1
    outer loop
      vertex 2 4.64198 -0.5
      vertex 3.44434 8.31445 -0.5
      vertex 2 8.75302 -0.5
    endloop
  endfacet
  facet normal 0 0 1
    outer loop
      vertex 3.44434 8.31445 -0.5
      vertex 2 4.64198 -0.5
      vertex 2.27246 4.56445 -0.5
    endloop
  endfacet
  facet normal 0.994521 0.104534 0
    outer loop
      vertex 47.0977 -0.269531 -0.5
      vertex 44.5889 23.5986 -1.5
      vertex 44.5889 23.5986 -0.5
    endloop
  endfacet
  facet normal 0.994521 0.104534 0
    outer loop
      vertex 44.5889 23.5986 -1.5
      vertex 47.0977 -0.269531 -0.5
      vertex 47.0977 -0.269531 -1.5
    endloop
  endfacet
  facet normal -0.104498 0.994525 0
    outer loop
      vertex 44.5889 23.5986 -1.5
      vertex 41.6055 23.2852 -0.5
      vertex 44.5889 23.5986 -0.5
    endloop
  endfacet
  facet normal -0.104498 0.994525 0
    outer loop
      vertex 41.6055 23.2852 -0.5
      vertex 44.5889 23.5986 -1.5
      vertex 41.6055 23.2852 -1.5
    endloop
  endfacet
  facet normal -0.994521 -0.104534 0
    outer loop
      vertex 44.1143 -0.583008 -1.5
      vertex 41.6055 23.2852 -0.5
      vertex 41.6055 23.2852 -1.5
    endloop
  endfacet
  facet normal -0.994521 -0.104534 0
    outer loop
      vertex 41.6055 23.2852 -0.5
      vertex 44.1143 -0.583008 -1.5
      vertex 44.1143 -0.583008 -0.5
    endloop
  endfacet
  facet normal 0.104498 -0.994525 0
    outer loop
      vertex 44.1143 -0.583008 -1.5
      vertex 47.0977 -0.269531 -0.5
      vertex 44.1143 -0.583008 -0.5
    endloop
  endfacet
  facet normal 0.104498 -0.994525 0
    outer loop
      vertex 47.0977 -0.269531 -0.5
      vertex 44.1143 -0.583008 -1.5
      vertex 47.0977 -0.269531 -1.5
    endloop
  endfacet
  facet normal 0.996194 0.0871599 0
    outer loop
      vertex 40.1045 -1.03027 -0.5
      vertex 38.0127 22.8779 -1.5
      vertex 38.0127 22.8779 -0.5
    endloop
  endfacet
  facet normal 0.996194 0.0871599 0
    outer loop
      vertex 38.0127 22.8779 -1.5
      vertex 40.1045 -1.03027 -0.5
      vertex 40.1045 -1.03027 -1.5
    endloop
  endfacet
  facet normal -0.0872477 0.996187 0
    outer loop
      vertex 38.0127 22.8779 -1.5
      vertex 35.0244 22.6162 -0.5
      vertex 38.0127 22.8779 -0.5
    endloop
  endfacet
  facet normal -0.0872477 0.996187 0
    outer loop
      vertex 35.0244 22.6162 -0.5
      vertex 38.0127 22.8779 -1.5
      vertex 35.0244 22.6162 -1.5
    endloop
  endfacet
  facet normal -0.996194 -0.0871599 0
    outer loop
      vertex 37.1162 -1.29199 -1.5
      vertex 35.0244 22.6162 -0.5
      vertex 35.0244 22.6162 -1.5
    endloop
  endfacet
  facet normal -0.996194 -0.0871599 0
    outer loop
      vertex 35.0244 22.6162 -0.5
      vertex 37.1162 -1.29199 -1.5
      vertex 37.1162 -1.29199 -0.5
    endloop
  endfacet
  facet normal 0.0872477 -0.996187 0
    outer loop
      vertex 37.1162 -1.29199 -1.5
      vertex 40.1045 -1.03027 -0.5
      vertex 37.1162 -1.29199 -0.5
    endloop
  endfacet
  facet normal 0.0872477 -0.996187 0
    outer loop
      vertex 40.1045 -1.03027 -0.5
      vertex 37.1162 -1.29199 -1.5
      vertex 40.1045 -1.03027 -1.5
    endloop
  endfacet
  facet normal 0.997565 0.0697405 0
    outer loop
      vertex 33.0996 -1.66992 -0.5
      vertex 31.4258 22.2725 -1.5
      vertex 31.4258 22.2725 -0.5
    endloop
  endfacet
  facet normal 0.997565 0.0697405 0
    outer loop
      vertex 31.4258 22.2725 -1.5
      vertex 33.0996 -1.66992 -0.5
      vertex 33.0996 -1.66992 -1.5
    endloop
  endfacet
  facet normal -0.0699749 0.997549 0
    outer loop
      vertex 31.4258 22.2725 -1.5
      vertex 28.4326 22.0625 -0.5
      vertex 31.4258 22.2725 -0.5
    endloop
  endfacet
  facet normal -0.0699749 0.997549 0
    outer loop
      vertex 28.4326 22.0625 -0.5
      vertex 31.4258 22.2725 -1.5
      vertex 28.4326 22.0625 -1.5
    endloop
  endfacet
  facet normal -0.997562 -0.0697838 0
    outer loop
      vertex 30.1074 -1.87891 -1.5
      vertex 28.4326 22.0625 -0.5
      vertex 28.4326 22.0625 -1.5
    endloop
  endfacet
  facet normal -0.997562 -0.0697838 0
    outer loop
      vertex 28.4326 22.0625 -0.5
      vertex 30.1074 -1.87891 -1.5
      vertex 30.1074 -1.87891 -0.5
    endloop
  endfacet
  facet normal 0.0696736 -0.99757 0
    outer loop
      vertex 30.1074 -1.87891 -1.5
      vertex 33.0996 -1.66992 -0.5
      vertex 30.1074 -1.87891 -0.5
    endloop
  endfacet
  facet normal 0.0696736 -0.99757 0
    outer loop
      vertex 33.0996 -1.66992 -0.5
      vertex 30.1074 -1.87891 -1.5
      vertex 33.0996 -1.66992 -1.5
    endloop
  endfacet
  facet normal 0.998628 0.0523688 0
    outer loop
      vertex 26.085 -2.18555 -0.5
      vertex 24.8281 21.7812 -1.5
      vertex 24.8281 21.7812 -0.5
    endloop
  endfacet
  facet normal 0.998628 0.0523688 0
    outer loop
      vertex 24.8281 21.7812 -1.5
      vertex 26.085 -2.18555 -0.5
      vertex 26.085 -2.18555 -1.5
    endloop
  endfacet
  facet normal -0.0524221 0.998625 0
    outer loop
      vertex 24.8281 21.7812 -1.5
      vertex 21.833 21.624 -0.5
      vertex 24.8281 21.7812 -0.5
    endloop
  endfacet
  facet normal -0.0524221 0.998625 0
    outer loop
      vertex 21.833 21.624 -0.5
      vertex 24.8281 21.7812 -1.5
      vertex 21.833 21.624 -1.5
    endloop
  endfacet
  facet normal -0.99863 -0.0523282 0
    outer loop
      vertex 23.0889 -2.34277 -1.5
      vertex 21.833 21.624 -0.5
      vertex 21.833 21.624 -1.5
    endloop
  endfacet
  facet normal -0.99863 -0.0523282 0
    outer loop
      vertex 21.833 21.624 -0.5
      vertex 23.0889 -2.34277 -1.5
      vertex 23.0889 -2.34277 -0.5
    endloop
  endfacet
  facet normal 0.0524051 -0.998626 0
    outer loop
      vertex 23.0889 -2.34277 -1.5
      vertex 26.085 -2.18555 -0.5
      vertex 23.0889 -2.34277 -0.5
    endloop
  endfacet
  facet normal 0.0524051 -0.998626 0
    outer loop
      vertex 26.085 -2.18555 -0.5
      vertex 23.0889 -2.34277 -1.5
      vertex 26.085 -2.18555 -1.5
    endloop
  endfacet
  facet normal 0.99939 0.0349121 0
    outer loop
      vertex 19.0615 -2.58008 -0.5
      vertex 18.2236 21.4053 -1.5
      vertex 18.2236 21.4053 -0.5
    endloop
  endfacet
  facet normal 0.99939 0.0349121 0
    outer loop
      vertex 18.2236 21.4053 -1.5
      vertex 19.0615 -2.58008 -0.5
      vertex 19.0615 -2.58008 -1.5
    endloop
  endfacet
  facet normal -0.0348323 0.999393 0
    outer loop
      vertex 18.2236 21.4053 -1.5
      vertex 15.2256 21.3008 -0.5
      vertex 18.2236 21.4053 -0.5
    endloop
  endfacet
  facet normal -0.0348323 0.999393 0
    outer loop
      vertex 15.2256 21.3008 -0.5
      vertex 18.2236 21.4053 -1.5
      vertex 15.2256 21.3008 -1.5
    endloop
  endfacet
  facet normal -0.99939 -0.0349121 0
    outer loop
      vertex 16.0635 -2.68457 -1.5
      vertex 15.2256 21.3008 -0.5
      vertex 15.2256 21.3008 -1.5
    endloop
  endfacet
  facet normal -0.99939 -0.0349121 0
    outer loop
      vertex 15.2256 21.3008 -0.5
      vertex 16.0635 -2.68457 -1.5
      vertex 16.0635 -2.68457 -0.5
    endloop
  endfacet
  facet normal 0.0348323 -0.999393 0
    outer loop
      vertex 16.0635 -2.68457 -1.5
      vertex 19.0615 -2.58008 -0.5
      vertex 16.0635 -2.68457 -0.5
    endloop
  endfacet
  facet normal 0.0348323 -0.999393 0
    outer loop
      vertex 19.0615 -2.58008 -0.5
      vertex 16.0635 -2.68457 -1.5
      vertex 19.0615 -2.58008 -1.5
    endloop
  endfacet
  facet normal 0.999848 0.0174562 0
    outer loop
      vertex 12.0322 -2.85156 -0.5
      vertex 11.6133 21.1445 -1.5
      vertex 11.6133 21.1445 -0.5
    endloop
  endfacet
  facet normal 0.999848 0.0174562 0
    outer loop
      vertex 11.6133 21.1445 -1.5
      vertex 12.0322 -2.85156 -0.5
      vertex 12.0322 -2.85156 -1.5
    endloop
  endfacet
  facet normal -0.0172557 0.999851 0
    outer loop
      vertex 11.6133 21.1445 -1.5
      vertex 8.61426 21.0928 -0.5
      vertex 11.6133 21.1445 -0.5
    endloop
  endfacet
  facet normal -0.0172557 0.999851 0
    outer loop
      vertex 8.61426 21.0928 -0.5
      vertex 11.6133 21.1445 -1.5
      vertex 8.61426 21.0928 -1.5
    endloop
  endfacet
  facet normal -0.999848 -0.0174563 0
    outer loop
      vertex 8.61426 21.0928 -1.5
      vertex 8.90478 4.4523 -1
      vertex 8.61426 21.0928 -0.5
    endloop
  endfacet
  facet normal -0.999848 -0.0174562 5.00669e-07
    outer loop
      vertex 9.0332 -2.90332 -1.5
      vertex 8.90478 4.4523 -1
      vertex 8.61426 21.0928 -1.5
    endloop
  endfacet
  facet normal -0.999848 -0.0174561 -1.08891e-06
    outer loop
      vertex 8.90478 4.4523 -1
      vertex 9.0332 -2.90332 -1.5
      vertex 8.97874 0.215915 -1
    endloop
  endfacet
  facet normal -0.999848 -0.0174563 -0
    outer loop
      vertex 9.0332 -2.90332 -0.5
      vertex 8.97874 0.215915 -1
      vertex 9.0332 -2.90332 -1.5
    endloop
  endfacet
  facet normal -0.999848 -0.0174563 0
    outer loop
      vertex 8.97874 0.215915 -1
      vertex 9.0332 -2.90332 -0.5
      vertex 8.97874 0.215915 -0.5
    endloop
  endfacet
  facet normal -0.999848 -0.0174563 0
    outer loop
      vertex 8.61426 21.0928 -0.5
      vertex 8.90478 4.4523 -1
      vertex 8.90478 4.4523 -0.5
    endloop
  endfacet
  facet normal 0.0172557 -0.999851 0
    outer loop
      vertex 9.0332 -2.90332 -1.5
      vertex 12.0322 -2.85156 -0.5
      vertex 9.0332 -2.90332 -0.5
    endloop
  endfacet
  facet normal 0.0172557 -0.999851 0
    outer loop
      vertex 12.0322 -2.85156 -0.5
      vertex 9.0332 -2.90332 -1.5
      vertex 12.0322 -2.85156 -1.5
    endloop
  endfacet
  facet normal 0 1 -0
    outer loop
      vertex 5 21 -1.5
      vertex 2 21 -0.5
      vertex 5 21 -0.5
    endloop
  endfacet
  facet normal 0 1 0
    outer loop
      vertex 2 21 -0.5
      vertex 5 21 -1.5
      vertex 2 21 -1.5
    endloop
  endfacet
  facet normal -1 0 0
    outer loop
      vertex 2 21 -1.5
      vertex 2 9.79282 -1
      vertex 2 21 -0.5
    endloop
  endfacet
  facet normal -1 0 0
    outer loop
      vertex 2 21 -1.5
      vertex 2 8.75302 -1
      vertex 2 9.79282 -1
    endloop
  endfacet
  facet normal -1 0 0
    outer loop
      vertex 2 8.75302 -1
      vertex 2 4.64198 -1
      vertex 2 8.75302 -0.5
    endloop
  endfacet
  facet normal -1 0 0
    outer loop
      vertex 2 -3 -1.5
      vertex 2 8.75302 -1
      vertex 2 21 -1.5
    endloop
  endfacet
  facet normal -1 -0 0
    outer loop
      vertex 2 8.75302 -1
      vertex 2 -3 -1.5
      vertex 2 4.64198 -1
    endloop
  endfacet
  facet normal -1 -0 0
    outer loop
      vertex 2 4.64198 -1
      vertex 2 -3 -1.5
      vertex 2 3.3953 -1
    endloop
  endfacet
  facet normal -1 0 0
    outer loop
      vertex 2 -3 -0.5
      vertex 2 3.3953 -1
      vertex 2 -3 -1.5
    endloop
  endfacet
  facet normal -1 0 0
    outer loop
      vertex 2 3.3953 -1
      vertex 2 -3 -0.5
      vertex 2 3.3953 -0.5
    endloop
  endfacet
  facet normal -1 -0 0
    outer loop
      vertex 2 21 -0.5
      vertex 2 9.79282 -1
      vertex 2 9.79282 -0.5
    endloop
  endfacet
  facet normal -1 -0 0
    outer loop
      vertex 2 8.75302 -0.5
      vertex 2 4.64198 -1
      vertex 2 4.64198 -0.5
    endloop
  endfacet
  facet normal 0 -1 0
    outer loop
      vertex 2 -3 -0.5
      vertex 2.53121 -3 -1
      vertex 2.53121 -3 -0.5
    endloop
  endfacet
  facet normal 0 -1 -0
    outer loop
      vertex 2.53121 -3 -1
      vertex 2 -3 -1.5
      vertex 4.0381 -3 -1
    endloop
  endfacet
  facet normal 0 -1 0
    outer loop
      vertex 2 -3 -1.5
      vertex 2.53121 -3 -1
      vertex 2 -3 -0.5
    endloop
  endfacet
  facet normal 0 -1 0
    outer loop
      vertex 4.0381 -3 -1
      vertex 5 -3 -0.5
      vertex 4.0381 -3 -0.5
    endloop
  endfacet
  facet normal 0 -1 0
    outer loop
      vertex 4.0381 -3 -1
      vertex 5 -3 -1.5
      vertex 5 -3 -0.5
    endloop
  endfacet
  facet normal 0 -1 0
    outer loop
      vertex 5 -3 -1.5
      vertex 4.0381 -3 -1
      vertex 2 -3 -1.5
    endloop
  endfacet
  facet normal 1 0 0
    outer loop
      vertex 5 -0.52847 -0.5
      vertex 5 -3 -0.5
      vertex 5 -0.52847 -1
    endloop
  endfacet
  facet normal 1 0 0
    outer loop
      vertex 5 7.4834 -0.5
      vertex 5 0.52847 -0.5
      vertex 5 7.4834 -1
    endloop
  endfacet
  facet normal 1 0 0
    outer loop
      vertex 5 8.61175 -1
      vertex 5 21 -0.5
      vertex 5 8.61175 -0.5
    endloop
  endfacet
  facet normal 1 0 0
    outer loop
      vertex 5 21 -0.5
      vertex 5 8.61175 -1
      vertex 5 21 -1.5
    endloop
  endfacet
  facet normal 1 -0 0
    outer loop
      vertex 5 7.4834 -1
      vertex 5 21 -1.5
      vertex 5 8.61175 -1
    endloop
  endfacet
  facet normal 1 0 0
    outer loop
      vertex 5 0.52847 -1
      vertex 5 7.4834 -1
      vertex 5 0.52847 -0.5
    endloop
  endfacet
  facet normal 1 0 0
    outer loop
      vertex 5 -3 -1.5
      vertex 5 7.4834 -1
      vertex 5 0.52847 -1
    endloop
  endfacet
  facet normal 1 0 0
    outer loop
      vertex 5 -3 -1.5
      vertex 5 0.52847 -1
      vertex 5 -0.52847 -1
    endloop
  endfacet
  facet normal 1 0 0
    outer loop
      vertex 5 7.4834 -1
      vertex 5 -3 -1.5
      vertex 5 21 -1.5
    endloop
  endfacet
  facet normal 1 0 0
    outer loop
      vertex 5 -3 -1.5
      vertex 5 -0.52847 -1
      vertex 5 -3 -0.5
    endloop
  endfacet
  facet normal 0.951057 -0.309017 0
    outer loop
      vertex -7.57295 -1.76336 0.5
      vertex -7 0 -0.5
      vertex -7 0 0.5
    endloop
  endfacet
  facet normal 0.951057 -0.309017 0
    outer loop
      vertex -7 0 -0.5
      vertex -7.57295 -1.76336 0.5
      vertex -7.57295 -1.76336 -0.5
    endloop
  endfacet
  facet normal 0.587785 0.809017 -0
    outer loop
      vertex -7.57295 1.76336 -0.5
      vertex -9.07295 2.85317 0.5
      vertex -7.57295 1.76336 0.5
    endloop
  endfacet
  facet normal 0.587785 0.809017 0
    outer loop
      vertex -9.07295 2.85317 0.5
      vertex -7.57295 1.76336 -0.5
      vertex -9.07295 2.85317 -0.5
    endloop
  endfacet
  facet normal -0.951056 -0.309017 0
    outer loop
      vertex -12.4271 -1.76336 -0.5
      vertex -13 0 0.5
      vertex -13 0 -0.5
    endloop
  endfacet
  facet normal -0.951056 -0.309017 0
    outer loop
      vertex -13 0 0.5
      vertex -12.4271 -1.76336 -0.5
      vertex -12.4271 -1.76336 0.5
    endloop
  endfacet
  facet normal 0.951057 0.309017 0
    outer loop
      vertex -7 0 0.5
      vertex -7.57295 1.76336 -0.5
      vertex -7.57295 1.76336 0.5
    endloop
  endfacet
  facet normal 0.951057 0.309017 0
    outer loop
      vertex -7.57295 1.76336 -0.5
      vertex -7 0 0.5
      vertex -7 0 -0.5
    endloop
  endfacet
  facet normal -0.587785 0.809017 0
    outer loop
      vertex -10.9271 2.85317 -0.5
      vertex -12.4271 1.76336 0.5
      vertex -10.9271 2.85317 0.5
    endloop
  endfacet
  facet normal -0.587785 0.809017 0
    outer loop
      vertex -12.4271 1.76336 0.5
      vertex -10.9271 2.85317 -0.5
      vertex -12.4271 1.76336 -0.5
    endloop
  endfacet
  facet normal -0.587785 -0.809017 0
    outer loop
      vertex -12.4271 -1.76336 -0.5
      vertex -10.9271 -2.85317 0.5
      vertex -12.4271 -1.76336 0.5
    endloop
  endfacet
  facet normal -0.587785 -0.809017 -0
    outer loop
      vertex -10.9271 -2.85317 0.5
      vertex -12.4271 -1.76336 -0.5
      vertex -10.9271 -2.85317 -0.5
    endloop
  endfacet
  facet normal 0.587785 -0.809017 0
    outer loop
      vertex -9.07295 -2.85317 -0.5
      vertex -7.57295 -1.76336 0.5
      vertex -9.07295 -2.85317 0.5
    endloop
  endfacet
  facet normal 0.587785 -0.809017 0
    outer loop
      vertex -7.57295 -1.76336 0.5
      vertex -9.07295 -2.85317 -0.5
      vertex -7.57295 -1.76336 -0.5
    endloop
  endfacet
  facet normal -0.951056 0.309017 0
    outer loop
      vertex -13 0 -0.5
      vertex -12.4271 1.76336 0.5
      vertex -12.4271 1.76336 -0.5
    endloop
  endfacet
  facet normal -0.951056 0.309017 0
    outer loop
      vertex -12.4271 1.76336 0.5
      vertex -13 0 -0.5
      vertex -13 0 0.5
    endloop
  endfacet
  facet normal 0 0 -1
    outer loop
      vertex -7.57295 -1.76336 -0.5
      vertex -7.57295 1.76336 -0.5
      vertex -7 0 -0.5
    endloop
  endfacet
  facet normal 0 0 -1
    outer loop
      vertex -9.07295 -2.85317 -0.5
      vertex -7.57295 1.76336 -0.5
      vertex -7.57295 -1.76336 -0.5
    endloop
  endfacet
  facet normal 0 0 -1
    outer loop
      vertex -9.07295 -2.85317 -0.5
      vertex -9.07295 2.85317 -0.5
      vertex -7.57295 1.76336 -0.5
    endloop
  endfacet
  facet normal 0 0 -1
    outer loop
      vertex -10.9271 -2.85317 -0.5
      vertex -9.07295 2.85317 -0.5
      vertex -9.07295 -2.85317 -0.5
    endloop
  endfacet
  facet normal 0 0 -1
    outer loop
      vertex -10.9271 -2.85317 -0.5
      vertex -10.9271 2.85317 -0.5
      vertex -9.07295 2.85317 -0.5
    endloop
  endfacet
  facet normal 0 0 -1
    outer loop
      vertex -12.4271 -1.76336 -0.5
      vertex -10.9271 2.85317 -0.5
      vertex -10.9271 -2.85317 -0.5
    endloop
  endfacet
  facet normal 0 0 -1
    outer loop
      vertex -12.4271 -1.76336 -0.5
      vertex -12.4271 1.76336 -0.5
      vertex -10.9271 2.85317 -0.5
    endloop
  endfacet
  facet normal 0 -0 -1
    outer loop
      vertex -12.4271 1.76336 -0.5
      vertex -12.4271 -1.76336 -0.5
      vertex -13 0 -0.5
    endloop
  endfacet
  facet normal 0 0 1
    outer loop
      vertex -7.57295 1.76336 0.5
      vertex -7.57295 -1.76336 0.5
      vertex -7 0 0.5
    endloop
  endfacet
  facet normal 0 0 1
    outer loop
      vertex -9.07295 2.85317 0.5
      vertex -7.57295 -1.76336 0.5
      vertex -7.57295 1.76336 0.5
    endloop
  endfacet
  facet normal 0 0 1
    outer loop
      vertex -9.07295 2.85317 0.5
      vertex -9.07295 -2.85317 0.5
      vertex -7.57295 -1.76336 0.5
    endloop
  endfacet
  facet normal -0 0 1
    outer loop
      vertex -10.9271 2.85317 0.5
      vertex -9.07295 -2.85317 0.5
      vertex -9.07295 2.85317 0.5
    endloop
  endfacet
  facet normal 0 0 1
    outer loop
      vertex -10.9271 2.85317 0.5
      vertex -10.9271 -2.85317 0.5
      vertex -9.07295 -2.85317 0.5
    endloop
  endfacet
  facet normal -0 0 1
    outer loop
      vertex -12.4271 1.76336 0.5
      vertex -10.9271 -2.85317 0.5
      vertex -10.9271 2.85317 0.5
    endloop
  endfacet
  facet normal 0 0 1
    outer loop
      vertex -12.4271 1.76336 0.5
      vertex -12.4271 -1.76336 0.5
      vertex -10.9271 -2.85317 0.5
    endloop
  endfacet
  facet normal 0 -0 1
    outer loop
      vertex -12.4271 -1.76336 0.5
      vertex -12.4271 1.76336 0.5
      vertex -13 0 0.5
    endloop
  endfacet
  facet normal 0 1 -0
    outer loop
      vertex -9.07295 2.85317 -0.5
      vertex -10.9271 2.85317 0.5
      vertex -9.07295 2.85317 0.5
    endloop
  endfacet
  facet normal 0 1 0
    outer loop
      vertex -10.9271 2.85317 0.5
      vertex -9.07295 2.85317 -0.5
      vertex -10.9271 2.85317 -0.5
    endloop
  endfacet
  facet normal 0 -1 0
    outer loop
      vertex -10.9271 -2.85317 -0.5
      vertex -9.07295 -2.85317 0.5
      vertex -10.9271 -2.85317 0.5
    endloop
  endfacet
  facet normal 0 -1 -0
    outer loop
      vertex -9.07295 -2.85317 0.5
      vertex -10.9271 -2.85317 -0.5
      vertex -9.07295 -2.85317 -0.5
    endloop
  endfacet
endsolid OpenSCAD_Model
