solid OpenSCAD_Model
  facet normal 0 0 -1
    outer loop
      vertex 46 17 -0.25
      vertex 50 18 -0.25
      vertex 50 17 -0.25
    endloop
  endfacet
  facet normal -0 0 -1
    outer loop
      vertex 50 18 -0.25
      vertex 46 17 -0.25
      vertex 46 18 -0.25
    endloop
  endfacet
  facet normal 0 0 -1
    outer loop
      vertex 0 17 -0.25
      vertex 3 18 -0.25
      vertex 3 17 -0.25
    endloop
  endfacet
  facet normal -0 0 -1
    outer loop
      vertex 3 18 -0.25
      vertex 0 17 -0.25
      vertex 0 18 -0.25
    endloop
  endfacet
  facet normal 0 0 -1
    outer loop
      vertex 6 17 -0.25
      vertex 11 18 -0.25
      vertex 11 17 -0.25
    endloop
  endfacet
  facet normal -0 0 -1
    outer loop
      vertex 11 18 -0.25
      vertex 6 17 -0.25
      vertex 6 18 -0.25
    endloop
  endfacet
  facet normal 0 0 -1
    outer loop
      vertex 14 17 -0.25
      vertex 19 18 -0.25
      vertex 19 17 -0.25
    endloop
  endfacet
  facet normal -0 0 -1
    outer loop
      vertex 19 18 -0.25
      vertex 14 17 -0.25
      vertex 14 18 -0.25
    endloop
  endfacet
  facet normal 0 0 -1
    outer loop
      vertex 22 17 -0.25
      vertex 27 18 -0.25
      vertex 27 17 -0.25
    endloop
  endfacet
  facet normal -0 0 -1
    outer loop
      vertex 27 18 -0.25
      vertex 22 17 -0.25
      vertex 22 18 -0.25
    endloop
  endfacet
  facet normal 0 0 -1
    outer loop
      vertex 30 17 -0.25
      vertex 35 18 -0.25
      vertex 35 17 -0.25
    endloop
  endfacet
  facet normal -0 0 -1
    outer loop
      vertex 35 18 -0.25
      vertex 30 17 -0.25
      vertex 30 18 -0.25
    endloop
  endfacet
  facet normal 0 0 -1
    outer loop
      vertex 38 17 -0.25
      vertex 43 18 -0.25
      vertex 43 17 -0.25
    endloop
  endfacet
  facet normal -0 0 -1
    outer loop
      vertex 43 18 -0.25
      vertex 38 17 -0.25
      vertex 38 18 -0.25
    endloop
  endfacet
  facet normal 0 0 -1
    outer loop
      vertex 0 0 -0.25
      vertex 3 1 -0.25
      vertex 3 0 -0.25
    endloop
  endfacet
  facet normal -0 0 -1
    outer loop
      vertex 3 1 -0.25
      vertex 0 0 -0.25
      vertex 0 1 -0.25
    endloop
  endfacet
  facet normal 0 0 -1
    outer loop
      vertex 46 0 -0.25
      vertex 50 1 -0.25
      vertex 50 0 -0.25
    endloop
  endfacet
  facet normal -0 0 -1
    outer loop
      vertex 50 1 -0.25
      vertex 46 0 -0.25
      vertex 46 1 -0.25
    endloop
  endfacet
  facet normal 0 0 -1
    outer loop
      vertex 6 0 -0.25
      vertex 11 1 -0.25
      vertex 11 0 -0.25
    endloop
  endfacet
  facet normal -0 0 -1
    outer loop
      vertex 11 1 -0.25
      vertex 6 0 -0.25
      vertex 6 1 -0.25
    endloop
  endfacet
  facet normal 0 0 -1
    outer loop
      vertex 14 0 -0.25
      vertex 19 1 -0.25
      vertex 19 0 -0.25
    endloop
  endfacet
  facet normal -0 0 -1
    outer loop
      vertex 19 1 -0.25
      vertex 14 0 -0.25
      vertex 14 1 -0.25
    endloop
  endfacet
  facet normal 0 0 -1
    outer loop
      vertex 22 0 -0.25
      vertex 27 1 -0.25
      vertex 27 0 -0.25
    endloop
  endfacet
  facet normal -0 0 -1
    outer loop
      vertex 27 1 -0.25
      vertex 22 0 -0.25
      vertex 22 1 -0.25
    endloop
  endfacet
  facet normal 0 0 -1
    outer loop
      vertex 30 0 -0.25
      vertex 35 1 -0.25
      vertex 35 0 -0.25
    endloop
  endfacet
  facet normal -0 0 -1
    outer loop
      vertex 35 1 -0.25
      vertex 30 0 -0.25
      vertex 30 1 -0.25
    endloop
  endfacet
  facet normal 0 0 -1
    outer loop
      vertex 38 0 -0.25
      vertex 43 1 -0.25
      vertex 43 0 -0.25
    endloop
  endfacet
  facet normal -0 0 -1
    outer loop
      vertex 43 1 -0.25
      vertex 38 0 -0.25
      vertex 38 1 -0.25
    endloop
  endfacet
  facet normal -0 0 1
    outer loop
      vertex 0 18 1.25
      vertex 50 17 1.25
      vertex 50 18 1.25
    endloop
  endfacet
  facet normal 0 0 1
    outer loop
      vertex 50 17 1.25
      vertex 0 18 1.25
      vertex 0 17 1.25
    endloop
  endfacet
  facet normal -0 0 1
    outer loop
      vertex 0 1 1.25
      vertex 50 0 1.25
      vertex 50 1 1.25
    endloop
  endfacet
  facet normal 0 0 1
    outer loop
      vertex 50 0 1.25
      vertex 0 1 1.25
      vertex 0 0 1.25
    endloop
  endfacet
  facet normal 0 1 -0
    outer loop
      vertex 11 18 -0.25
      vertex 6 18 -0.2
      vertex 11 18 -0.2
    endloop
  endfacet
  facet normal 0 1 0
    outer loop
      vertex 6 18 -0.2
      vertex 11 18 -0.25
      vertex 6 18 -0.25
    endloop
  endfacet
  facet normal 0 1 -0
    outer loop
      vertex 19 18 -0.25
      vertex 14 18 -0.2
      vertex 19 18 -0.2
    endloop
  endfacet
  facet normal 0 1 0
    outer loop
      vertex 14 18 -0.2
      vertex 19 18 -0.25
      vertex 14 18 -0.25
    endloop
  endfacet
  facet normal 0 1 -0
    outer loop
      vertex 27 18 -0.25
      vertex 22 18 -0.2
      vertex 27 18 -0.2
    endloop
  endfacet
  facet normal 0 1 0
    outer loop
      vertex 22 18 -0.2
      vertex 27 18 -0.25
      vertex 22 18 -0.25
    endloop
  endfacet
  facet normal 0 1 -0
    outer loop
      vertex 35 18 -0.25
      vertex 30 18 -0.2
      vertex 35 18 -0.2
    endloop
  endfacet
  facet normal 0 1 0
    outer loop
      vertex 30 18 -0.2
      vertex 35 18 -0.25
      vertex 30 18 -0.25
    endloop
  endfacet
  facet normal 0 1 -0
    outer loop
      vertex 43 18 -0.25
      vertex 38 18 -0.2
      vertex 43 18 -0.2
    endloop
  endfacet
  facet normal 0 1 0
    outer loop
      vertex 38 18 -0.2
      vertex 43 18 -0.25
      vertex 38 18 -0.25
    endloop
  endfacet
  facet normal 0 1 0
    outer loop
      vertex 43 18 -0.2
      vertex 50 18 1.25
      vertex 46 18 -0.2
    endloop
  endfacet
  facet normal 0 1 -0
    outer loop
      vertex 50 18 -0.25
      vertex 46 18 -0.2
      vertex 50 18 1.25
    endloop
  endfacet
  facet normal 0 1 0
    outer loop
      vertex 46 18 -0.2
      vertex 50 18 -0.25
      vertex 46 18 -0.25
    endloop
  endfacet
  facet normal 0 1 0
    outer loop
      vertex 38 18 -0.2
      vertex 50 18 1.25
      vertex 43 18 -0.2
    endloop
  endfacet
  facet normal 0 1 0
    outer loop
      vertex 35 18 -0.2
      vertex 50 18 1.25
      vertex 38 18 -0.2
    endloop
  endfacet
  facet normal 0 1 0
    outer loop
      vertex 30 18 -0.2
      vertex 50 18 1.25
      vertex 35 18 -0.2
    endloop
  endfacet
  facet normal 0 1 0
    outer loop
      vertex 27 18 -0.2
      vertex 50 18 1.25
      vertex 30 18 -0.2
    endloop
  endfacet
  facet normal 0 1 0
    outer loop
      vertex 50 18 1.25
      vertex 27 18 -0.2
      vertex 0 18 1.25
    endloop
  endfacet
  facet normal 0 1 -0
    outer loop
      vertex 22 18 -0.2
      vertex 0 18 1.25
      vertex 27 18 -0.2
    endloop
  endfacet
  facet normal 0 1 -0
    outer loop
      vertex 19 18 -0.2
      vertex 0 18 1.25
      vertex 22 18 -0.2
    endloop
  endfacet
  facet normal 0 1 -0
    outer loop
      vertex 14 18 -0.2
      vertex 0 18 1.25
      vertex 19 18 -0.2
    endloop
  endfacet
  facet normal 0 1 -0
    outer loop
      vertex 11 18 -0.2
      vertex 0 18 1.25
      vertex 14 18 -0.2
    endloop
  endfacet
  facet normal 0 1 -0
    outer loop
      vertex 6 18 -0.2
      vertex 0 18 1.25
      vertex 11 18 -0.2
    endloop
  endfacet
  facet normal 0 1 -0
    outer loop
      vertex 3 18 -0.2
      vertex 0 18 1.25
      vertex 6 18 -0.2
    endloop
  endfacet
  facet normal 0 1 0
    outer loop
      vertex 0 18 -0.25
      vertex 3 18 -0.2
      vertex 3 18 -0.25
    endloop
  endfacet
  facet normal 0 1 0
    outer loop
      vertex 3 18 -0.2
      vertex 0 18 -0.25
      vertex 0 18 1.25
    endloop
  endfacet
  facet normal -1 0 0
    outer loop
      vertex 0 17 -0.25
      vertex 0 18 1.25
      vertex 0 18 -0.25
    endloop
  endfacet
  facet normal -1 -0 0
    outer loop
      vertex 0 18 1.25
      vertex 0 17 -0.25
      vertex 0 17 1.25
    endloop
  endfacet
  facet normal 0 -1 0
    outer loop
      vertex 38 17 -0.25
      vertex 43 17 -0.2
      vertex 38 17 -0.2
    endloop
  endfacet
  facet normal 0 -1 -0
    outer loop
      vertex 43 17 -0.2
      vertex 38 17 -0.25
      vertex 43 17 -0.25
    endloop
  endfacet
  facet normal 0 -1 0
    outer loop
      vertex 30 17 -0.25
      vertex 35 17 -0.2
      vertex 30 17 -0.2
    endloop
  endfacet
  facet normal 0 -1 -0
    outer loop
      vertex 35 17 -0.2
      vertex 30 17 -0.25
      vertex 35 17 -0.25
    endloop
  endfacet
  facet normal 0 -1 0
    outer loop
      vertex 22 17 -0.25
      vertex 27 17 -0.2
      vertex 22 17 -0.2
    endloop
  endfacet
  facet normal 0 -1 -0
    outer loop
      vertex 27 17 -0.2
      vertex 22 17 -0.25
      vertex 27 17 -0.25
    endloop
  endfacet
  facet normal 0 -1 0
    outer loop
      vertex 14 17 -0.25
      vertex 19 17 -0.2
      vertex 14 17 -0.2
    endloop
  endfacet
  facet normal 0 -1 -0
    outer loop
      vertex 19 17 -0.2
      vertex 14 17 -0.25
      vertex 19 17 -0.25
    endloop
  endfacet
  facet normal 0 -1 0
    outer loop
      vertex 6 17 -0.25
      vertex 11 17 -0.2
      vertex 6 17 -0.2
    endloop
  endfacet
  facet normal 0 -1 -0
    outer loop
      vertex 11 17 -0.2
      vertex 6 17 -0.25
      vertex 11 17 -0.25
    endloop
  endfacet
  facet normal 0 -1 0
    outer loop
      vertex 6 17 -0.2
      vertex 0 17 1.25
      vertex 3 17 -0.2
    endloop
  endfacet
  facet normal 0 -1 0
    outer loop
      vertex 0 17 -0.25
      vertex 3 17 -0.2
      vertex 0 17 1.25
    endloop
  endfacet
  facet normal 0 -1 -0
    outer loop
      vertex 3 17 -0.2
      vertex 0 17 -0.25
      vertex 3 17 -0.25
    endloop
  endfacet
  facet normal 0 -1 0
    outer loop
      vertex 11 17 -0.2
      vertex 0 17 1.25
      vertex 6 17 -0.2
    endloop
  endfacet
  facet normal 0 -1 0
    outer loop
      vertex 14 17 -0.2
      vertex 0 17 1.25
      vertex 11 17 -0.2
    endloop
  endfacet
  facet normal 0 -1 0
    outer loop
      vertex 19 17 -0.2
      vertex 0 17 1.25
      vertex 14 17 -0.2
    endloop
  endfacet
  facet normal 0 -1 0
    outer loop
      vertex 22 17 -0.2
      vertex 0 17 1.25
      vertex 19 17 -0.2
    endloop
  endfacet
  facet normal 0 -1 0
    outer loop
      vertex 0 17 1.25
      vertex 22 17 -0.2
      vertex 50 17 1.25
    endloop
  endfacet
  facet normal 0 -1 0
    outer loop
      vertex 27 17 -0.2
      vertex 50 17 1.25
      vertex 22 17 -0.2
    endloop
  endfacet
  facet normal 0 -1 0
    outer loop
      vertex 30 17 -0.2
      vertex 50 17 1.25
      vertex 27 17 -0.2
    endloop
  endfacet
  facet normal 0 -1 0
    outer loop
      vertex 35 17 -0.2
      vertex 50 17 1.25
      vertex 30 17 -0.2
    endloop
  endfacet
  facet normal 0 -1 0
    outer loop
      vertex 38 17 -0.2
      vertex 50 17 1.25
      vertex 35 17 -0.2
    endloop
  endfacet
  facet normal 0 -1 0
    outer loop
      vertex 43 17 -0.2
      vertex 50 17 1.25
      vertex 38 17 -0.2
    endloop
  endfacet
  facet normal 0 -1 0
    outer loop
      vertex 46 17 -0.2
      vertex 50 17 1.25
      vertex 43 17 -0.2
    endloop
  endfacet
  facet normal 0 -1 0
    outer loop
      vertex 50 17 -0.25
      vertex 46 17 -0.2
      vertex 46 17 -0.25
    endloop
  endfacet
  facet normal 0 -1 0
    outer loop
      vertex 46 17 -0.2
      vertex 50 17 -0.25
      vertex 50 17 1.25
    endloop
  endfacet
  facet normal 1 -0 0
    outer loop
      vertex 50 17 1.25
      vertex 50 18 -0.25
      vertex 50 18 1.25
    endloop
  endfacet
  facet normal 1 0 0
    outer loop
      vertex 50 18 -0.25
      vertex 50 17 1.25
      vertex 50 17 -0.25
    endloop
  endfacet
  facet normal 0 1 -0
    outer loop
      vertex 11 1 -0.25
      vertex 6 1 -0.2
      vertex 11 1 -0.2
    endloop
  endfacet
  facet normal 0 1 0
    outer loop
      vertex 6 1 -0.2
      vertex 11 1 -0.25
      vertex 6 1 -0.25
    endloop
  endfacet
  facet normal 0 1 -0
    outer loop
      vertex 19 1 -0.25
      vertex 14 1 -0.2
      vertex 19 1 -0.2
    endloop
  endfacet
  facet normal 0 1 0
    outer loop
      vertex 14 1 -0.2
      vertex 19 1 -0.25
      vertex 14 1 -0.25
    endloop
  endfacet
  facet normal 0 1 -0
    outer loop
      vertex 27 1 -0.25
      vertex 22 1 -0.2
      vertex 27 1 -0.2
    endloop
  endfacet
  facet normal 0 1 0
    outer loop
      vertex 22 1 -0.2
      vertex 27 1 -0.25
      vertex 22 1 -0.25
    endloop
  endfacet
  facet normal 0 1 -0
    outer loop
      vertex 35 1 -0.25
      vertex 30 1 -0.2
      vertex 35 1 -0.2
    endloop
  endfacet
  facet normal 0 1 0
    outer loop
      vertex 30 1 -0.2
      vertex 35 1 -0.25
      vertex 30 1 -0.25
    endloop
  endfacet
  facet normal 0 1 -0
    outer loop
      vertex 43 1 -0.25
      vertex 38 1 -0.2
      vertex 43 1 -0.2
    endloop
  endfacet
  facet normal 0 1 0
    outer loop
      vertex 38 1 -0.2
      vertex 43 1 -0.25
      vertex 38 1 -0.25
    endloop
  endfacet
  facet normal 0 1 0
    outer loop
      vertex 43 1 -0.2
      vertex 50 1 1.25
      vertex 46 1 -0.2
    endloop
  endfacet
  facet normal 0 1 -0
    outer loop
      vertex 50 1 -0.25
      vertex 46 1 -0.2
      vertex 50 1 1.25
    endloop
  endfacet
  facet normal 0 1 0
    outer loop
      vertex 46 1 -0.2
      vertex 50 1 -0.25
      vertex 46 1 -0.25
    endloop
  endfacet
  facet normal 0 1 0
    outer loop
      vertex 38 1 -0.2
      vertex 50 1 1.25
      vertex 43 1 -0.2
    endloop
  endfacet
  facet normal 0 1 0
    outer loop
      vertex 35 1 -0.2
      vertex 50 1 1.25
      vertex 38 1 -0.2
    endloop
  endfacet
  facet normal 0 1 0
    outer loop
      vertex 30 1 -0.2
      vertex 50 1 1.25
      vertex 35 1 -0.2
    endloop
  endfacet
  facet normal 0 1 0
    outer loop
      vertex 27 1 -0.2
      vertex 50 1 1.25
      vertex 30 1 -0.2
    endloop
  endfacet
  facet normal 0 1 0
    outer loop
      vertex 50 1 1.25
      vertex 27 1 -0.2
      vertex 0 1 1.25
    endloop
  endfacet
  facet normal 0 1 -0
    outer loop
      vertex 22 1 -0.2
      vertex 0 1 1.25
      vertex 27 1 -0.2
    endloop
  endfacet
  facet normal 0 1 -0
    outer loop
      vertex 19 1 -0.2
      vertex 0 1 1.25
      vertex 22 1 -0.2
    endloop
  endfacet
  facet normal 0 1 -0
    outer loop
      vertex 14 1 -0.2
      vertex 0 1 1.25
      vertex 19 1 -0.2
    endloop
  endfacet
  facet normal 0 1 -0
    outer loop
      vertex 11 1 -0.2
      vertex 0 1 1.25
      vertex 14 1 -0.2
    endloop
  endfacet
  facet normal 0 1 -0
    outer loop
      vertex 6 1 -0.2
      vertex 0 1 1.25
      vertex 11 1 -0.2
    endloop
  endfacet
  facet normal 0 1 -0
    outer loop
      vertex 3 1 -0.2
      vertex 0 1 1.25
      vertex 6 1 -0.2
    endloop
  endfacet
  facet normal 0 1 0
    outer loop
      vertex 0 1 -0.25
      vertex 3 1 -0.2
      vertex 3 1 -0.25
    endloop
  endfacet
  facet normal 0 1 0
    outer loop
      vertex 3 1 -0.2
      vertex 0 1 -0.25
      vertex 0 1 1.25
    endloop
  endfacet
  facet normal -1 0 0
    outer loop
      vertex 0 0 -0.25
      vertex 0 1 1.25
      vertex 0 1 -0.25
    endloop
  endfacet
  facet normal -1 -0 0
    outer loop
      vertex 0 1 1.25
      vertex 0 0 -0.25
      vertex 0 0 1.25
    endloop
  endfacet
  facet normal 0 -1 0
    outer loop
      vertex 38 0 -0.25
      vertex 43 0 -0.2
      vertex 38 0 -0.2
    endloop
  endfacet
  facet normal 0 -1 -0
    outer loop
      vertex 43 0 -0.2
      vertex 38 0 -0.25
      vertex 43 0 -0.25
    endloop
  endfacet
  facet normal 0 -1 0
    outer loop
      vertex 30 0 -0.25
      vertex 35 0 -0.2
      vertex 30 0 -0.2
    endloop
  endfacet
  facet normal 0 -1 -0
    outer loop
      vertex 35 0 -0.2
      vertex 30 0 -0.25
      vertex 35 0 -0.25
    endloop
  endfacet
  facet normal 0 -1 0
    outer loop
      vertex 22 0 -0.25
      vertex 27 0 -0.2
      vertex 22 0 -0.2
    endloop
  endfacet
  facet normal 0 -1 -0
    outer loop
      vertex 27 0 -0.2
      vertex 22 0 -0.25
      vertex 27 0 -0.25
    endloop
  endfacet
  facet normal 0 -1 0
    outer loop
      vertex 14 0 -0.25
      vertex 19 0 -0.2
      vertex 14 0 -0.2
    endloop
  endfacet
  facet normal 0 -1 -0
    outer loop
      vertex 19 0 -0.2
      vertex 14 0 -0.25
      vertex 19 0 -0.25
    endloop
  endfacet
  facet normal 0 -1 0
    outer loop
      vertex 6 0 -0.25
      vertex 11 0 -0.2
      vertex 6 0 -0.2
    endloop
  endfacet
  facet normal 0 -1 -0
    outer loop
      vertex 11 0 -0.2
      vertex 6 0 -0.25
      vertex 11 0 -0.25
    endloop
  endfacet
  facet normal 0 -1 0
    outer loop
      vertex 6 0 -0.2
      vertex 0 0 1.25
      vertex 3 0 -0.2
    endloop
  endfacet
  facet normal 0 -1 0
    outer loop
      vertex 0 0 -0.25
      vertex 3 0 -0.2
      vertex 0 0 1.25
    endloop
  endfacet
  facet normal 0 -1 -0
    outer loop
      vertex 3 0 -0.2
      vertex 0 0 -0.25
      vertex 3 0 -0.25
    endloop
  endfacet
  facet normal 0 -1 0
    outer loop
      vertex 11 0 -0.2
      vertex 0 0 1.25
      vertex 6 0 -0.2
    endloop
  endfacet
  facet normal 0 -1 0
    outer loop
      vertex 14 0 -0.2
      vertex 0 0 1.25
      vertex 11 0 -0.2
    endloop
  endfacet
  facet normal 0 -1 0
    outer loop
      vertex 19 0 -0.2
      vertex 0 0 1.25
      vertex 14 0 -0.2
    endloop
  endfacet
  facet normal 0 -1 0
    outer loop
      vertex 22 0 -0.2
      vertex 0 0 1.25
      vertex 19 0 -0.2
    endloop
  endfacet
  facet normal 0 -1 0
    outer loop
      vertex 0 0 1.25
      vertex 22 0 -0.2
      vertex 50 0 1.25
    endloop
  endfacet
  facet normal 0 -1 0
    outer loop
      vertex 27 0 -0.2
      vertex 50 0 1.25
      vertex 22 0 -0.2
    endloop
  endfacet
  facet normal 0 -1 0
    outer loop
      vertex 30 0 -0.2
      vertex 50 0 1.25
      vertex 27 0 -0.2
    endloop
  endfacet
  facet normal 0 -1 0
    outer loop
      vertex 35 0 -0.2
      vertex 50 0 1.25
      vertex 30 0 -0.2
    endloop
  endfacet
  facet normal 0 -1 0
    outer loop
      vertex 38 0 -0.2
      vertex 50 0 1.25
      vertex 35 0 -0.2
    endloop
  endfacet
  facet normal 0 -1 0
    outer loop
      vertex 43 0 -0.2
      vertex 50 0 1.25
      vertex 38 0 -0.2
    endloop
  endfacet
  facet normal 0 -1 0
    outer loop
      vertex 46 0 -0.2
      vertex 50 0 1.25
      vertex 43 0 -0.2
    endloop
  endfacet
  facet normal 0 -1 0
    outer loop
      vertex 50 0 -0.25
      vertex 46 0 -0.2
      vertex 46 0 -0.25
    endloop
  endfacet
  facet normal 0 -1 0
    outer loop
      vertex 46 0 -0.2
      vertex 50 0 -0.25
      vertex 50 0 1.25
    endloop
  endfacet
  facet normal 1 -0 0
    outer loop
      vertex 50 0 1.25
      vertex 50 1 -0.25
      vertex 50 1 1.25
    endloop
  endfacet
  facet normal 1 0 0
    outer loop
      vertex 50 1 -0.25
      vertex 50 0 1.25
      vertex 50 0 -0.25
    endloop
  endfacet
  facet normal 0 0 -1
    outer loop
      vertex 0 17 -1.2
      vertex 3 18 -1.2
      vertex 3 17 -1.2
    endloop
  endfacet
  facet normal -0 0 -1
    outer loop
      vertex 3 18 -1.2
      vertex 0 17 -1.2
      vertex 0 18 -1.2
    endloop
  endfacet
  facet normal 0 0 -1
    outer loop
      vertex 0 0 -1.2
      vertex 3 1 -1.2
      vertex 3 0 -1.2
    endloop
  endfacet
  facet normal -0 0 -1
    outer loop
      vertex 3 1 -1.2
      vertex 0 0 -1.2
      vertex 0 1 -1.2
    endloop
  endfacet
  facet normal 0 0 -1
    outer loop
      vertex 3 0 -1.2
      vertex 6 0 -1.2
      vertex 6 -3 -1.2
    endloop
  endfacet
  facet normal 0 0 -1
    outer loop
      vertex 6 0 -1.2
      vertex 3 0 -1.2
      vertex 6 1 -1.2
    endloop
  endfacet
  facet normal 0 0 -1
    outer loop
      vertex 6 1 -1.2
      vertex 3 1 -1.2
      vertex 6 17 -1.2
    endloop
  endfacet
  facet normal 0 0 -1
    outer loop
      vertex 3 17 -1.2
      vertex 6 17 -1.2
      vertex 3 1 -1.2
    endloop
  endfacet
  facet normal 0 0 -1
    outer loop
      vertex 3 0 -1.2
      vertex 6 -3 -1.2
      vertex 3 -3 -1.2
    endloop
  endfacet
  facet normal -0 0 -1
    outer loop
      vertex 6 1 -1.2
      vertex 3 0 -1.2
      vertex 3 1 -1.2
    endloop
  endfacet
  facet normal 0 0 -1
    outer loop
      vertex 6 17 -1.2
      vertex 3 17 -1.2
      vertex 6 18 -1.2
    endloop
  endfacet
  facet normal 0 0 -1
    outer loop
      vertex 3 18 -1.2
      vertex 6 18 -1.2
      vertex 3 17 -1.2
    endloop
  endfacet
  facet normal 0 0 -1
    outer loop
      vertex 6 18 -1.2
      vertex 3 18 -1.2
      vertex 6 21 -1.2
    endloop
  endfacet
  facet normal -0 0 -1
    outer loop
      vertex 6 21 -1.2
      vertex 3 18 -1.2
      vertex 3 21 -1.2
    endloop
  endfacet
  facet normal 0 0 -1
    outer loop
      vertex 6 17 -1.2
      vertex 11 18 -1.2
      vertex 11 17 -1.2
    endloop
  endfacet
  facet normal -0 0 -1
    outer loop
      vertex 11 18 -1.2
      vertex 6 17 -1.2
      vertex 6 18 -1.2
    endloop
  endfacet
  facet normal 0 0 -1
    outer loop
      vertex 6 0 -1.2
      vertex 11 1 -1.2
      vertex 11 0 -1.2
    endloop
  endfacet
  facet normal -0 0 -1
    outer loop
      vertex 11 1 -1.2
      vertex 6 0 -1.2
      vertex 6 1 -1.2
    endloop
  endfacet
  facet normal 0 0 -1
    outer loop
      vertex 11 0 -1.2
      vertex 14 0 -1.2
      vertex 14 -3 -1.2
    endloop
  endfacet
  facet normal 0 0 -1
    outer loop
      vertex 14 0 -1.2
      vertex 11 0 -1.2
      vertex 14 1 -1.2
    endloop
  endfacet
  facet normal 0 0 -1
    outer loop
      vertex 14 1 -1.2
      vertex 11 1 -1.2
      vertex 14 17 -1.2
    endloop
  endfacet
  facet normal 0 0 -1
    outer loop
      vertex 11 17 -1.2
      vertex 14 17 -1.2
      vertex 11 1 -1.2
    endloop
  endfacet
  facet normal 0 0 -1
    outer loop
      vertex 11 0 -1.2
      vertex 14 -3 -1.2
      vertex 11 -3 -1.2
    endloop
  endfacet
  facet normal -0 0 -1
    outer loop
      vertex 14 1 -1.2
      vertex 11 0 -1.2
      vertex 11 1 -1.2
    endloop
  endfacet
  facet normal 0 0 -1
    outer loop
      vertex 14 17 -1.2
      vertex 11 17 -1.2
      vertex 14 18 -1.2
    endloop
  endfacet
  facet normal 0 0 -1
    outer loop
      vertex 11 18 -1.2
      vertex 14 18 -1.2
      vertex 11 17 -1.2
    endloop
  endfacet
  facet normal 0 0 -1
    outer loop
      vertex 14 18 -1.2
      vertex 11 18 -1.2
      vertex 14 21 -1.2
    endloop
  endfacet
  facet normal -0 0 -1
    outer loop
      vertex 14 21 -1.2
      vertex 11 18 -1.2
      vertex 11 21 -1.2
    endloop
  endfacet
  facet normal 0 0 -1
    outer loop
      vertex 14 17 -1.2
      vertex 19 18 -1.2
      vertex 19 17 -1.2
    endloop
  endfacet
  facet normal -0 0 -1
    outer loop
      vertex 19 18 -1.2
      vertex 14 17 -1.2
      vertex 14 18 -1.2
    endloop
  endfacet
  facet normal 0 0 -1
    outer loop
      vertex 14 0 -1.2
      vertex 19 1 -1.2
      vertex 19 0 -1.2
    endloop
  endfacet
  facet normal -0 0 -1
    outer loop
      vertex 19 1 -1.2
      vertex 14 0 -1.2
      vertex 14 1 -1.2
    endloop
  endfacet
  facet normal 0 0 -1
    outer loop
      vertex 19 0 -1.2
      vertex 22 0 -1.2
      vertex 22 -3 -1.2
    endloop
  endfacet
  facet normal 0 0 -1
    outer loop
      vertex 22 0 -1.2
      vertex 19 0 -1.2
      vertex 22 1 -1.2
    endloop
  endfacet
  facet normal 0 0 -1
    outer loop
      vertex 22 1 -1.2
      vertex 19 1 -1.2
      vertex 22 17 -1.2
    endloop
  endfacet
  facet normal 0 0 -1
    outer loop
      vertex 19 17 -1.2
      vertex 22 17 -1.2
      vertex 19 1 -1.2
    endloop
  endfacet
  facet normal 0 0 -1
    outer loop
      vertex 19 0 -1.2
      vertex 22 -3 -1.2
      vertex 19 -3 -1.2
    endloop
  endfacet
  facet normal -0 0 -1
    outer loop
      vertex 22 1 -1.2
      vertex 19 0 -1.2
      vertex 19 1 -1.2
    endloop
  endfacet
  facet normal 0 0 -1
    outer loop
      vertex 22 17 -1.2
      vertex 19 17 -1.2
      vertex 22 18 -1.2
    endloop
  endfacet
  facet normal 0 0 -1
    outer loop
      vertex 19 18 -1.2
      vertex 22 18 -1.2
      vertex 19 17 -1.2
    endloop
  endfacet
  facet normal 0 0 -1
    outer loop
      vertex 22 18 -1.2
      vertex 19 18 -1.2
      vertex 22 21 -1.2
    endloop
  endfacet
  facet normal -0 0 -1
    outer loop
      vertex 22 21 -1.2
      vertex 19 18 -1.2
      vertex 19 21 -1.2
    endloop
  endfacet
  facet normal 0 0 -1
    outer loop
      vertex 22 17 -1.2
      vertex 27 18 -1.2
      vertex 27 17 -1.2
    endloop
  endfacet
  facet normal -0 0 -1
    outer loop
      vertex 27 18 -1.2
      vertex 22 17 -1.2
      vertex 22 18 -1.2
    endloop
  endfacet
  facet normal 0 0 -1
    outer loop
      vertex 22 0 -1.2
      vertex 27 1 -1.2
      vertex 27 0 -1.2
    endloop
  endfacet
  facet normal -0 0 -1
    outer loop
      vertex 27 1 -1.2
      vertex 22 0 -1.2
      vertex 22 1 -1.2
    endloop
  endfacet
  facet normal 0 0 -1
    outer loop
      vertex 27 0 -1.2
      vertex 30 0 -1.2
      vertex 30 -3 -1.2
    endloop
  endfacet
  facet normal 0 0 -1
    outer loop
      vertex 30 0 -1.2
      vertex 27 0 -1.2
      vertex 30 1 -1.2
    endloop
  endfacet
  facet normal 0 0 -1
    outer loop
      vertex 30 1 -1.2
      vertex 27 1 -1.2
      vertex 30 17 -1.2
    endloop
  endfacet
  facet normal 0 0 -1
    outer loop
      vertex 27 17 -1.2
      vertex 30 17 -1.2
      vertex 27 1 -1.2
    endloop
  endfacet
  facet normal 0 0 -1
    outer loop
      vertex 27 0 -1.2
      vertex 30 -3 -1.2
      vertex 27 -3 -1.2
    endloop
  endfacet
  facet normal -0 0 -1
    outer loop
      vertex 30 1 -1.2
      vertex 27 0 -1.2
      vertex 27 1 -1.2
    endloop
  endfacet
  facet normal 0 0 -1
    outer loop
      vertex 30 17 -1.2
      vertex 27 17 -1.2
      vertex 30 18 -1.2
    endloop
  endfacet
  facet normal 0 0 -1
    outer loop
      vertex 27 18 -1.2
      vertex 30 18 -1.2
      vertex 27 17 -1.2
    endloop
  endfacet
  facet normal 0 0 -1
    outer loop
      vertex 30 18 -1.2
      vertex 27 18 -1.2
      vertex 30 21 -1.2
    endloop
  endfacet
  facet normal -0 0 -1
    outer loop
      vertex 30 21 -1.2
      vertex 27 18 -1.2
      vertex 27 21 -1.2
    endloop
  endfacet
  facet normal 0 0 -1
    outer loop
      vertex 30 17 -1.2
      vertex 35 18 -1.2
      vertex 35 17 -1.2
    endloop
  endfacet
  facet normal -0 0 -1
    outer loop
      vertex 35 18 -1.2
      vertex 30 17 -1.2
      vertex 30 18 -1.2
    endloop
  endfacet
  facet normal 0 0 -1
    outer loop
      vertex 30 0 -1.2
      vertex 35 1 -1.2
      vertex 35 0 -1.2
    endloop
  endfacet
  facet normal -0 0 -1
    outer loop
      vertex 35 1 -1.2
      vertex 30 0 -1.2
      vertex 30 1 -1.2
    endloop
  endfacet
  facet normal 0 0 -1
    outer loop
      vertex 35 0 -1.2
      vertex 38 0 -1.2
      vertex 38 -3 -1.2
    endloop
  endfacet
  facet normal 0 0 -1
    outer loop
      vertex 38 0 -1.2
      vertex 35 0 -1.2
      vertex 38 1 -1.2
    endloop
  endfacet
  facet normal 0 0 -1
    outer loop
      vertex 38 1 -1.2
      vertex 35 1 -1.2
      vertex 38 17 -1.2
    endloop
  endfacet
  facet normal 0 0 -1
    outer loop
      vertex 35 17 -1.2
      vertex 38 17 -1.2
      vertex 35 1 -1.2
    endloop
  endfacet
  facet normal 0 0 -1
    outer loop
      vertex 35 0 -1.2
      vertex 38 -3 -1.2
      vertex 35 -3 -1.2
    endloop
  endfacet
  facet normal -0 0 -1
    outer loop
      vertex 38 1 -1.2
      vertex 35 0 -1.2
      vertex 35 1 -1.2
    endloop
  endfacet
  facet normal 0 0 -1
    outer loop
      vertex 38 17 -1.2
      vertex 35 17 -1.2
      vertex 38 18 -1.2
    endloop
  endfacet
  facet normal 0 0 -1
    outer loop
      vertex 35 18 -1.2
      vertex 38 18 -1.2
      vertex 35 17 -1.2
    endloop
  endfacet
  facet normal 0 0 -1
    outer loop
      vertex 38 18 -1.2
      vertex 35 18 -1.2
      vertex 38 21 -1.2
    endloop
  endfacet
  facet normal -0 0 -1
    outer loop
      vertex 38 21 -1.2
      vertex 35 18 -1.2
      vertex 35 21 -1.2
    endloop
  endfacet
  facet normal 0 0 -1
    outer loop
      vertex 38 17 -1.2
      vertex 43 18 -1.2
      vertex 43 17 -1.2
    endloop
  endfacet
  facet normal -0 0 -1
    outer loop
      vertex 43 18 -1.2
      vertex 38 17 -1.2
      vertex 38 18 -1.2
    endloop
  endfacet
  facet normal 0 0 -1
    outer loop
      vertex 38 0 -1.2
      vertex 43 1 -1.2
      vertex 43 0 -1.2
    endloop
  endfacet
  facet normal -0 0 -1
    outer loop
      vertex 43 1 -1.2
      vertex 38 0 -1.2
      vertex 38 1 -1.2
    endloop
  endfacet
  facet normal 0 0 -1
    outer loop
      vertex 43 0 -1.2
      vertex 46 0 -1.2
      vertex 46 -3 -1.2
    endloop
  endfacet
  facet normal 0 0 -1
    outer loop
      vertex 46 0 -1.2
      vertex 43 0 -1.2
      vertex 46 1 -1.2
    endloop
  endfacet
  facet normal 0 0 -1
    outer loop
      vertex 46 1 -1.2
      vertex 43 1 -1.2
      vertex 46 17 -1.2
    endloop
  endfacet
  facet normal 0 0 -1
    outer loop
      vertex 43 17 -1.2
      vertex 46 17 -1.2
      vertex 43 1 -1.2
    endloop
  endfacet
  facet normal 0 0 -1
    outer loop
      vertex 43 0 -1.2
      vertex 46 -3 -1.2
      vertex 43 -3 -1.2
    endloop
  endfacet
  facet normal -0 0 -1
    outer loop
      vertex 46 1 -1.2
      vertex 43 0 -1.2
      vertex 43 1 -1.2
    endloop
  endfacet
  facet normal 0 0 -1
    outer loop
      vertex 46 17 -1.2
      vertex 43 17 -1.2
      vertex 46 18 -1.2
    endloop
  endfacet
  facet normal 0 0 -1
    outer loop
      vertex 43 18 -1.2
      vertex 46 18 -1.2
      vertex 43 17 -1.2
    endloop
  endfacet
  facet normal 0 0 -1
    outer loop
      vertex 46 18 -1.2
      vertex 43 18 -1.2
      vertex 46 21 -1.2
    endloop
  endfacet
  facet normal -0 0 -1
    outer loop
      vertex 46 21 -1.2
      vertex 43 18 -1.2
      vertex 43 21 -1.2
    endloop
  endfacet
  facet normal 0 0 -1
    outer loop
      vertex 46 0 -1.2
      vertex 50 1 -1.2
      vertex 50 0 -1.2
    endloop
  endfacet
  facet normal -0 0 -1
    outer loop
      vertex 50 1 -1.2
      vertex 46 0 -1.2
      vertex 46 1 -1.2
    endloop
  endfacet
  facet normal 0 0 -1
    outer loop
      vertex 46 17 -1.2
      vertex 50 18 -1.2
      vertex 50 17 -1.2
    endloop
  endfacet
  facet normal -0 0 -1
    outer loop
      vertex 50 18 -1.2
      vertex 46 17 -1.2
      vertex 46 18 -1.2
    endloop
  endfacet
  facet normal -0 0 1
    outer loop
      vertex 0 18 -0.799999
      vertex 3 17 -0.799999
      vertex 3 18 -0.799999
    endloop
  endfacet
  facet normal 0 0 1
    outer loop
      vertex 3 17 -0.799999
      vertex 0 18 -0.799999
      vertex 0 17 -0.799999
    endloop
  endfacet
  facet normal -0 0 1
    outer loop
      vertex 46 18 -0.799999
      vertex 50 17 -0.799999
      vertex 50 18 -0.799999
    endloop
  endfacet
  facet normal 0 0 1
    outer loop
      vertex 50 17 -0.799999
      vertex 46 18 -0.799999
      vertex 46 17 -0.799999
    endloop
  endfacet
  facet normal -0 0 1
    outer loop
      vertex 6 18 -0.799999
      vertex 11 17 -0.799999
      vertex 11 18 -0.799999
    endloop
  endfacet
  facet normal 0 0 1
    outer loop
      vertex 11 17 -0.799999
      vertex 6 18 -0.799999
      vertex 6 17 -0.799999
    endloop
  endfacet
  facet normal -0 0 1
    outer loop
      vertex 14 18 -0.799999
      vertex 19 17 -0.799999
      vertex 19 18 -0.799999
    endloop
  endfacet
  facet normal 0 0 1
    outer loop
      vertex 19 17 -0.799999
      vertex 14 18 -0.799999
      vertex 14 17 -0.799999
    endloop
  endfacet
  facet normal -0 0 1
    outer loop
      vertex 22 18 -0.799999
      vertex 27 17 -0.799999
      vertex 27 18 -0.799999
    endloop
  endfacet
  facet normal 0 0 1
    outer loop
      vertex 27 17 -0.799999
      vertex 22 18 -0.799999
      vertex 22 17 -0.799999
    endloop
  endfacet
  facet normal -0 0 1
    outer loop
      vertex 30 18 -0.799999
      vertex 35 17 -0.799999
      vertex 35 18 -0.799999
    endloop
  endfacet
  facet normal 0 0 1
    outer loop
      vertex 35 17 -0.799999
      vertex 30 18 -0.799999
      vertex 30 17 -0.799999
    endloop
  endfacet
  facet normal -0 0 1
    outer loop
      vertex 38 18 -0.799999
      vertex 43 17 -0.799999
      vertex 43 18 -0.799999
    endloop
  endfacet
  facet normal 0 0 1
    outer loop
      vertex 43 17 -0.799999
      vertex 38 18 -0.799999
      vertex 38 17 -0.799999
    endloop
  endfacet
  facet normal -0 0 1
    outer loop
      vertex 46 1 -0.799999
      vertex 50 0 -0.799999
      vertex 50 1 -0.799999
    endloop
  endfacet
  facet normal 0 0 1
    outer loop
      vertex 50 0 -0.799999
      vertex 46 1 -0.799999
      vertex 46 0 -0.799999
    endloop
  endfacet
  facet normal -0 0 1
    outer loop
      vertex 0 1 -0.799999
      vertex 3 0 -0.799999
      vertex 3 1 -0.799999
    endloop
  endfacet
  facet normal 0 0 1
    outer loop
      vertex 3 0 -0.799999
      vertex 0 1 -0.799999
      vertex 0 0 -0.799999
    endloop
  endfacet
  facet normal -0 0 1
    outer loop
      vertex 6 1 -0.799999
      vertex 11 0 -0.799999
      vertex 11 1 -0.799999
    endloop
  endfacet
  facet normal 0 0 1
    outer loop
      vertex 11 0 -0.799999
      vertex 6 1 -0.799999
      vertex 6 0 -0.799999
    endloop
  endfacet
  facet normal -0 0 1
    outer loop
      vertex 14 1 -0.799999
      vertex 19 0 -0.799999
      vertex 19 1 -0.799999
    endloop
  endfacet
  facet normal 0 0 1
    outer loop
      vertex 19 0 -0.799999
      vertex 14 1 -0.799999
      vertex 14 0 -0.799999
    endloop
  endfacet
  facet normal -0 0 1
    outer loop
      vertex 22 1 -0.799999
      vertex 27 0 -0.799999
      vertex 27 1 -0.799999
    endloop
  endfacet
  facet normal 0 0 1
    outer loop
      vertex 27 0 -0.799999
      vertex 22 1 -0.799999
      vertex 22 0 -0.799999
    endloop
  endfacet
  facet normal -0 0 1
    outer loop
      vertex 30 1 -0.799999
      vertex 35 0 -0.799999
      vertex 35 1 -0.799999
    endloop
  endfacet
  facet normal 0 0 1
    outer loop
      vertex 35 0 -0.799999
      vertex 30 1 -0.799999
      vertex 30 0 -0.799999
    endloop
  endfacet
  facet normal -0 0 1
    outer loop
      vertex 38 1 -0.799999
      vertex 43 0 -0.799999
      vertex 43 1 -0.799999
    endloop
  endfacet
  facet normal 0 0 1
    outer loop
      vertex 43 0 -0.799999
      vertex 38 1 -0.799999
      vertex 38 0 -0.799999
    endloop
  endfacet
  facet normal 0 1 -0
    outer loop
      vertex 50 18 -1.2
      vertex 46 18 -0.799999
      vertex 50 18 -0.799999
    endloop
  endfacet
  facet normal 0 1 0
    outer loop
      vertex 46 18 -0.799999
      vertex 50 18 -1.2
      vertex 46 18 -1.2
    endloop
  endfacet
  facet normal 0 1 -0
    outer loop
      vertex 3 18 -1.2
      vertex 0 18 -0.799999
      vertex 3 18 -0.799999
    endloop
  endfacet
  facet normal 0 1 0
    outer loop
      vertex 0 18 -0.799999
      vertex 3 18 -1.2
      vertex 0 18 -1.2
    endloop
  endfacet
  facet normal 0 1 -0
    outer loop
      vertex 11 18 -1.2
      vertex 6 18 -0.799999
      vertex 11 18 -0.799999
    endloop
  endfacet
  facet normal 0 1 0
    outer loop
      vertex 6 18 -0.799999
      vertex 11 18 -1.2
      vertex 6 18 -1.2
    endloop
  endfacet
  facet normal 0 1 -0
    outer loop
      vertex 19 18 -1.2
      vertex 14 18 -0.799999
      vertex 19 18 -0.799999
    endloop
  endfacet
  facet normal 0 1 0
    outer loop
      vertex 14 18 -0.799999
      vertex 19 18 -1.2
      vertex 14 18 -1.2
    endloop
  endfacet
  facet normal 0 1 -0
    outer loop
      vertex 27 18 -1.2
      vertex 22 18 -0.799999
      vertex 27 18 -0.799999
    endloop
  endfacet
  facet normal 0 1 0
    outer loop
      vertex 22 18 -0.799999
      vertex 27 18 -1.2
      vertex 22 18 -1.2
    endloop
  endfacet
  facet normal 0 1 -0
    outer loop
      vertex 35 18 -1.2
      vertex 30 18 -0.799999
      vertex 35 18 -0.799999
    endloop
  endfacet
  facet normal 0 1 0
    outer loop
      vertex 30 18 -0.799999
      vertex 35 18 -1.2
      vertex 30 18 -1.2
    endloop
  endfacet
  facet normal 0 1 -0
    outer loop
      vertex 43 18 -1.2
      vertex 38 18 -0.799999
      vertex 43 18 -0.799999
    endloop
  endfacet
  facet normal 0 1 0
    outer loop
      vertex 38 18 -0.799999
      vertex 43 18 -1.2
      vertex 38 18 -1.2
    endloop
  endfacet
  facet normal -1 0 0
    outer loop
      vertex 0 17 -1.2
      vertex 0 18 -0.799999
      vertex 0 18 -1.2
    endloop
  endfacet
  facet normal -1 -0 0
    outer loop
      vertex 0 18 -0.799999
      vertex 0 17 -1.2
      vertex 0 17 -0.799999
    endloop
  endfacet
  facet normal 0 -1 0
    outer loop
      vertex 46 17 -1.2
      vertex 50 17 -0.799999
      vertex 46 17 -0.799999
    endloop
  endfacet
  facet normal 0 -1 -0
    outer loop
      vertex 50 17 -0.799999
      vertex 46 17 -1.2
      vertex 50 17 -1.2
    endloop
  endfacet
  facet normal 0 -1 0
    outer loop
      vertex 0 17 -1.2
      vertex 3 17 -0.799999
      vertex 0 17 -0.799999
    endloop
  endfacet
  facet normal 0 -1 -0
    outer loop
      vertex 3 17 -0.799999
      vertex 0 17 -1.2
      vertex 3 17 -1.2
    endloop
  endfacet
  facet normal 0 -1 0
    outer loop
      vertex 6 17 -1.2
      vertex 11 17 -0.799999
      vertex 6 17 -0.799999
    endloop
  endfacet
  facet normal 0 -1 -0
    outer loop
      vertex 11 17 -0.799999
      vertex 6 17 -1.2
      vertex 11 17 -1.2
    endloop
  endfacet
  facet normal 0 -1 0
    outer loop
      vertex 14 17 -1.2
      vertex 19 17 -0.799999
      vertex 14 17 -0.799999
    endloop
  endfacet
  facet normal 0 -1 -0
    outer loop
      vertex 19 17 -0.799999
      vertex 14 17 -1.2
      vertex 19 17 -1.2
    endloop
  endfacet
  facet normal 0 -1 0
    outer loop
      vertex 22 17 -1.2
      vertex 27 17 -0.799999
      vertex 22 17 -0.799999
    endloop
  endfacet
  facet normal 0 -1 -0
    outer loop
      vertex 27 17 -0.799999
      vertex 22 17 -1.2
      vertex 27 17 -1.2
    endloop
  endfacet
  facet normal 0 -1 0
    outer loop
      vertex 30 17 -1.2
      vertex 35 17 -0.799999
      vertex 30 17 -0.799999
    endloop
  endfacet
  facet normal 0 -1 -0
    outer loop
      vertex 35 17 -0.799999
      vertex 30 17 -1.2
      vertex 35 17 -1.2
    endloop
  endfacet
  facet normal 0 -1 0
    outer loop
      vertex 38 17 -1.2
      vertex 43 17 -0.799999
      vertex 38 17 -0.799999
    endloop
  endfacet
  facet normal 0 -1 -0
    outer loop
      vertex 43 17 -0.799999
      vertex 38 17 -1.2
      vertex 43 17 -1.2
    endloop
  endfacet
  facet normal 1 -0 0
    outer loop
      vertex 50 17 -0.799999
      vertex 50 18 -1.2
      vertex 50 18 -0.799999
    endloop
  endfacet
  facet normal 1 0 0
    outer loop
      vertex 50 18 -1.2
      vertex 50 17 -0.799999
      vertex 50 17 -1.2
    endloop
  endfacet
  facet normal 0 1 -0
    outer loop
      vertex 3 1 -1.2
      vertex 0 1 -0.799999
      vertex 3 1 -0.799999
    endloop
  endfacet
  facet normal 0 1 0
    outer loop
      vertex 0 1 -0.799999
      vertex 3 1 -1.2
      vertex 0 1 -1.2
    endloop
  endfacet
  facet normal 0 1 -0
    outer loop
      vertex 50 1 -1.2
      vertex 46 1 -0.799999
      vertex 50 1 -0.799999
    endloop
  endfacet
  facet normal 0 1 0
    outer loop
      vertex 46 1 -0.799999
      vertex 50 1 -1.2
      vertex 46 1 -1.2
    endloop
  endfacet
  facet normal 0 1 -0
    outer loop
      vertex 11 1 -1.2
      vertex 6 1 -0.799999
      vertex 11 1 -0.799999
    endloop
  endfacet
  facet normal 0 1 0
    outer loop
      vertex 6 1 -0.799999
      vertex 11 1 -1.2
      vertex 6 1 -1.2
    endloop
  endfacet
  facet normal 0 1 -0
    outer loop
      vertex 19 1 -1.2
      vertex 14 1 -0.799999
      vertex 19 1 -0.799999
    endloop
  endfacet
  facet normal 0 1 0
    outer loop
      vertex 14 1 -0.799999
      vertex 19 1 -1.2
      vertex 14 1 -1.2
    endloop
  endfacet
  facet normal 0 1 -0
    outer loop
      vertex 27 1 -1.2
      vertex 22 1 -0.799999
      vertex 27 1 -0.799999
    endloop
  endfacet
  facet normal 0 1 0
    outer loop
      vertex 22 1 -0.799999
      vertex 27 1 -1.2
      vertex 22 1 -1.2
    endloop
  endfacet
  facet normal 0 1 -0
    outer loop
      vertex 35 1 -1.2
      vertex 30 1 -0.799999
      vertex 35 1 -0.799999
    endloop
  endfacet
  facet normal 0 1 0
    outer loop
      vertex 30 1 -0.799999
      vertex 35 1 -1.2
      vertex 30 1 -1.2
    endloop
  endfacet
  facet normal 0 1 -0
    outer loop
      vertex 43 1 -1.2
      vertex 38 1 -0.799999
      vertex 43 1 -0.799999
    endloop
  endfacet
  facet normal 0 1 0
    outer loop
      vertex 38 1 -0.799999
      vertex 43 1 -1.2
      vertex 38 1 -1.2
    endloop
  endfacet
  facet normal -1 0 0
    outer loop
      vertex 0 0 -1.2
      vertex 0 1 -0.799999
      vertex 0 1 -1.2
    endloop
  endfacet
  facet normal -1 -0 0
    outer loop
      vertex 0 1 -0.799999
      vertex 0 0 -1.2
      vertex 0 0 -0.799999
    endloop
  endfacet
  facet normal 0 -1 0
    outer loop
      vertex 46 0 -1.2
      vertex 50 0 -0.799999
      vertex 46 0 -0.799999
    endloop
  endfacet
  facet normal 0 -1 -0
    outer loop
      vertex 50 0 -0.799999
      vertex 46 0 -1.2
      vertex 50 0 -1.2
    endloop
  endfacet
  facet normal 0 -1 0
    outer loop
      vertex 0 0 -1.2
      vertex 3 0 -0.799999
      vertex 0 0 -0.799999
    endloop
  endfacet
  facet normal 0 -1 -0
    outer loop
      vertex 3 0 -0.799999
      vertex 0 0 -1.2
      vertex 3 0 -1.2
    endloop
  endfacet
  facet normal 0 -1 0
    outer loop
      vertex 6 0 -1.2
      vertex 11 0 -0.799999
      vertex 6 0 -0.799999
    endloop
  endfacet
  facet normal 0 -1 -0
    outer loop
      vertex 11 0 -0.799999
      vertex 6 0 -1.2
      vertex 11 0 -1.2
    endloop
  endfacet
  facet normal 0 -1 0
    outer loop
      vertex 14 0 -1.2
      vertex 19 0 -0.799999
      vertex 14 0 -0.799999
    endloop
  endfacet
  facet normal 0 -1 -0
    outer loop
      vertex 19 0 -0.799999
      vertex 14 0 -1.2
      vertex 19 0 -1.2
    endloop
  endfacet
  facet normal 0 -1 0
    outer loop
      vertex 22 0 -1.2
      vertex 27 0 -0.799999
      vertex 22 0 -0.799999
    endloop
  endfacet
  facet normal 0 -1 -0
    outer loop
      vertex 27 0 -0.799999
      vertex 22 0 -1.2
      vertex 27 0 -1.2
    endloop
  endfacet
  facet normal 0 -1 0
    outer loop
      vertex 30 0 -1.2
      vertex 35 0 -0.799999
      vertex 30 0 -0.799999
    endloop
  endfacet
  facet normal 0 -1 -0
    outer loop
      vertex 35 0 -0.799999
      vertex 30 0 -1.2
      vertex 35 0 -1.2
    endloop
  endfacet
  facet normal 0 -1 0
    outer loop
      vertex 38 0 -1.2
      vertex 43 0 -0.799999
      vertex 38 0 -0.799999
    endloop
  endfacet
  facet normal 0 -1 -0
    outer loop
      vertex 43 0 -0.799999
      vertex 38 0 -1.2
      vertex 43 0 -1.2
    endloop
  endfacet
  facet normal 1 -0 0
    outer loop
      vertex 50 0 -0.799999
      vertex 50 1 -1.2
      vertex 50 1 -0.799999
    endloop
  endfacet
  facet normal 1 0 0
    outer loop
      vertex 50 1 -1.2
      vertex 50 0 -0.799999
      vertex 50 0 -1.2
    endloop
  endfacet
  facet normal -0 0 1
    outer loop
      vertex 3 21 -0.2
      vertex 6 18 -0.2
      vertex 6 21 -0.2
    endloop
  endfacet
  facet normal 0 0 1
    outer loop
      vertex 6 18 -0.2
      vertex 3 21 -0.2
      vertex 3 18 -0.2
    endloop
  endfacet
  facet normal -0 0 1
    outer loop
      vertex 3 0 -0.2
      vertex 6 -3 -0.2
      vertex 6 0 -0.2
    endloop
  endfacet
  facet normal 0 0 1
    outer loop
      vertex 6 -3 -0.2
      vertex 3 0 -0.2
      vertex 3 -3 -0.2
    endloop
  endfacet
  facet normal -0 0 1
    outer loop
      vertex 3 17 -0.2
      vertex 6 1 -0.2
      vertex 6 17 -0.2
    endloop
  endfacet
  facet normal 0 0 1
    outer loop
      vertex 6 1 -0.2
      vertex 3 17 -0.2
      vertex 3 1 -0.2
    endloop
  endfacet
  facet normal -0 0 1
    outer loop
      vertex 11 21 -0.2
      vertex 14 18 -0.2
      vertex 14 21 -0.2
    endloop
  endfacet
  facet normal 0 0 1
    outer loop
      vertex 14 18 -0.2
      vertex 11 21 -0.2
      vertex 11 18 -0.2
    endloop
  endfacet
  facet normal -0 0 1
    outer loop
      vertex 11 0 -0.2
      vertex 14 -3 -0.2
      vertex 14 0 -0.2
    endloop
  endfacet
  facet normal 0 0 1
    outer loop
      vertex 14 -3 -0.2
      vertex 11 0 -0.2
      vertex 11 -3 -0.2
    endloop
  endfacet
  facet normal -0 0 1
    outer loop
      vertex 11 17 -0.2
      vertex 14 1 -0.2
      vertex 14 17 -0.2
    endloop
  endfacet
  facet normal 0 0 1
    outer loop
      vertex 14 1 -0.2
      vertex 11 17 -0.2
      vertex 11 1 -0.2
    endloop
  endfacet
  facet normal -0 0 1
    outer loop
      vertex 19 21 -0.2
      vertex 22 18 -0.2
      vertex 22 21 -0.2
    endloop
  endfacet
  facet normal 0 0 1
    outer loop
      vertex 22 18 -0.2
      vertex 19 21 -0.2
      vertex 19 18 -0.2
    endloop
  endfacet
  facet normal -0 0 1
    outer loop
      vertex 19 0 -0.2
      vertex 22 -3 -0.2
      vertex 22 0 -0.2
    endloop
  endfacet
  facet normal 0 0 1
    outer loop
      vertex 22 -3 -0.2
      vertex 19 0 -0.2
      vertex 19 -3 -0.2
    endloop
  endfacet
  facet normal -0 0 1
    outer loop
      vertex 19 17 -0.2
      vertex 22 1 -0.2
      vertex 22 17 -0.2
    endloop
  endfacet
  facet normal 0 0 1
    outer loop
      vertex 22 1 -0.2
      vertex 19 17 -0.2
      vertex 19 1 -0.2
    endloop
  endfacet
  facet normal -0 0 1
    outer loop
      vertex 27 21 -0.2
      vertex 30 18 -0.2
      vertex 30 21 -0.2
    endloop
  endfacet
  facet normal 0 0 1
    outer loop
      vertex 30 18 -0.2
      vertex 27 21 -0.2
      vertex 27 18 -0.2
    endloop
  endfacet
  facet normal -0 0 1
    outer loop
      vertex 27 0 -0.2
      vertex 30 -3 -0.2
      vertex 30 0 -0.2
    endloop
  endfacet
  facet normal 0 0 1
    outer loop
      vertex 30 -3 -0.2
      vertex 27 0 -0.2
      vertex 27 -3 -0.2
    endloop
  endfacet
  facet normal -0 0 1
    outer loop
      vertex 27 17 -0.2
      vertex 30 1 -0.2
      vertex 30 17 -0.2
    endloop
  endfacet
  facet normal 0 0 1
    outer loop
      vertex 30 1 -0.2
      vertex 27 17 -0.2
      vertex 27 1 -0.2
    endloop
  endfacet
  facet normal -0 0 1
    outer loop
      vertex 35 21 -0.2
      vertex 38 18 -0.2
      vertex 38 21 -0.2
    endloop
  endfacet
  facet normal 0 0 1
    outer loop
      vertex 38 18 -0.2
      vertex 35 21 -0.2
      vertex 35 18 -0.2
    endloop
  endfacet
  facet normal -0 0 1
    outer loop
      vertex 35 0 -0.2
      vertex 38 -3 -0.2
      vertex 38 0 -0.2
    endloop
  endfacet
  facet normal 0 0 1
    outer loop
      vertex 38 -3 -0.2
      vertex 35 0 -0.2
      vertex 35 -3 -0.2
    endloop
  endfacet
  facet normal -0 0 1
    outer loop
      vertex 35 17 -0.2
      vertex 38 1 -0.2
      vertex 38 17 -0.2
    endloop
  endfacet
  facet normal 0 0 1
    outer loop
      vertex 38 1 -0.2
      vertex 35 17 -0.2
      vertex 35 1 -0.2
    endloop
  endfacet
  facet normal -0 0 1
    outer loop
      vertex 43 21 -0.2
      vertex 46 18 -0.2
      vertex 46 21 -0.2
    endloop
  endfacet
  facet normal 0 0 1
    outer loop
      vertex 46 18 -0.2
      vertex 43 21 -0.2
      vertex 43 18 -0.2
    endloop
  endfacet
  facet normal -0 0 1
    outer loop
      vertex 43 0 -0.2
      vertex 46 -3 -0.2
      vertex 46 0 -0.2
    endloop
  endfacet
  facet normal 0 0 1
    outer loop
      vertex 46 -3 -0.2
      vertex 43 0 -0.2
      vertex 43 -3 -0.2
    endloop
  endfacet
  facet normal -0 0 1
    outer loop
      vertex 43 17 -0.2
      vertex 46 1 -0.2
      vertex 46 17 -0.2
    endloop
  endfacet
  facet normal 0 0 1
    outer loop
      vertex 46 1 -0.2
      vertex 43 17 -0.2
      vertex 43 1 -0.2
    endloop
  endfacet
  facet normal 0 1 -0
    outer loop
      vertex 6 21 -1.2
      vertex 3 21 -0.2
      vertex 6 21 -0.2
    endloop
  endfacet
  facet normal 0 1 0
    outer loop
      vertex 3 21 -0.2
      vertex 6 21 -1.2
      vertex 3 21 -1.2
    endloop
  endfacet
  facet normal -1 0 0
    outer loop
      vertex 3 -3 -1.2
      vertex 3 0 -0.799999
      vertex 3 0 -1.2
    endloop
  endfacet
  facet normal -1 0 0
    outer loop
      vertex 3 -3 -0.2
      vertex 3 0 -0.799999
      vertex 3 -3 -1.2
    endloop
  endfacet
  facet normal -1 0 0
    outer loop
      vertex 3 0 -0.799999
      vertex 3 -3 -0.2
      vertex 3 0 -0.25
    endloop
  endfacet
  facet normal -1 0 0
    outer loop
      vertex 3 0 -0.25
      vertex 3 -3 -0.2
      vertex 3 0 -0.2
    endloop
  endfacet
  facet normal -1 0 0
    outer loop
      vertex 3 0 -0.799999
      vertex 3 1 -0.25
      vertex 3 1 -0.799999
    endloop
  endfacet
  facet normal -1 -0 0
    outer loop
      vertex 3 1 -0.25
      vertex 3 0 -0.799999
      vertex 3 0 -0.25
    endloop
  endfacet
  facet normal -1 0 0
    outer loop
      vertex 3 1 -0.799999
      vertex 3 17 -0.799999
      vertex 3 17 -1.2
    endloop
  endfacet
  facet normal -1 0 0
    outer loop
      vertex 3 17 -0.799999
      vertex 3 1 -0.799999
      vertex 3 17 -0.25
    endloop
  endfacet
  facet normal -1 0 0
    outer loop
      vertex 3 1 -0.799999
      vertex 3 17 -1.2
      vertex 3 1 -1.2
    endloop
  endfacet
  facet normal -1 0 0
    outer loop
      vertex 3 1 -0.25
      vertex 3 17 -0.25
      vertex 3 1 -0.799999
    endloop
  endfacet
  facet normal -1 0 0
    outer loop
      vertex 3 17 -0.25
      vertex 3 1 -0.25
      vertex 3 17 -0.2
    endloop
  endfacet
  facet normal -1 -0 0
    outer loop
      vertex 3 17 -0.2
      vertex 3 1 -0.25
      vertex 3 1 -0.2
    endloop
  endfacet
  facet normal -1 0 0
    outer loop
      vertex 3 17 -0.799999
      vertex 3 18 -0.25
      vertex 3 18 -0.799999
    endloop
  endfacet
  facet normal -1 -0 0
    outer loop
      vertex 3 18 -0.25
      vertex 3 17 -0.799999
      vertex 3 17 -0.25
    endloop
  endfacet
  facet normal -1 0 0
    outer loop
      vertex 3 18 -0.799999
      vertex 3 21 -1.2
      vertex 3 18 -1.2
    endloop
  endfacet
  facet normal -1 0 0
    outer loop
      vertex 3 21 -1.2
      vertex 3 18 -0.799999
      vertex 3 21 -0.2
    endloop
  endfacet
  facet normal -1 0 0
    outer loop
      vertex 3 18 -0.25
      vertex 3 21 -0.2
      vertex 3 18 -0.799999
    endloop
  endfacet
  facet normal -1 -0 0
    outer loop
      vertex 3 21 -0.2
      vertex 3 18 -0.25
      vertex 3 18 -0.2
    endloop
  endfacet
  facet normal 0 -1 0
    outer loop
      vertex 3 -3 -1.2
      vertex 6 -3 -0.2
      vertex 3 -3 -0.2
    endloop
  endfacet
  facet normal 0 -1 -0
    outer loop
      vertex 6 -3 -0.2
      vertex 3 -3 -1.2
      vertex 6 -3 -1.2
    endloop
  endfacet
  facet normal 1 -0 0
    outer loop
      vertex 6 -3 -0.2
      vertex 6 0 -0.25
      vertex 6 0 -0.2
    endloop
  endfacet
  facet normal 1 0 0
    outer loop
      vertex 6 0 -0.25
      vertex 6 -3 -0.2
      vertex 6 0 -0.799999
    endloop
  endfacet
  facet normal 1 0 0
    outer loop
      vertex 6 -3 -1.2
      vertex 6 0 -0.799999
      vertex 6 -3 -0.2
    endloop
  endfacet
  facet normal 1 0 0
    outer loop
      vertex 6 0 -0.799999
      vertex 6 -3 -1.2
      vertex 6 0 -1.2
    endloop
  endfacet
  facet normal 1 -0 0
    outer loop
      vertex 6 0 -0.25
      vertex 6 1 -0.799999
      vertex 6 1 -0.25
    endloop
  endfacet
  facet normal 1 0 0
    outer loop
      vertex 6 1 -0.799999
      vertex 6 0 -0.25
      vertex 6 0 -0.799999
    endloop
  endfacet
  facet normal 1 0 0
    outer loop
      vertex 6 1 -0.25
      vertex 6 17 -0.25
      vertex 6 17 -0.2
    endloop
  endfacet
  facet normal 1 0 0
    outer loop
      vertex 6 17 -0.25
      vertex 6 1 -0.799999
      vertex 6 17 -0.799999
    endloop
  endfacet
  facet normal 1 0 0
    outer loop
      vertex 6 1 -0.25
      vertex 6 17 -0.2
      vertex 6 1 -0.2
    endloop
  endfacet
  facet normal 1 0 0
    outer loop
      vertex 6 17 -0.25
      vertex 6 1 -0.25
      vertex 6 1 -0.799999
    endloop
  endfacet
  facet normal 1 0 0
    outer loop
      vertex 6 17 -0.799999
      vertex 6 1 -0.799999
      vertex 6 17 -1.2
    endloop
  endfacet
  facet normal 1 0 0
    outer loop
      vertex 6 17 -1.2
      vertex 6 1 -0.799999
      vertex 6 1 -1.2
    endloop
  endfacet
  facet normal 1 -0 0
    outer loop
      vertex 6 17 -0.25
      vertex 6 18 -0.799999
      vertex 6 18 -0.25
    endloop
  endfacet
  facet normal 1 0 0
    outer loop
      vertex 6 18 -0.799999
      vertex 6 17 -0.25
      vertex 6 17 -0.799999
    endloop
  endfacet
  facet normal 1 0 0
    outer loop
      vertex 6 18 -0.25
      vertex 6 21 -0.2
      vertex 6 18 -0.2
    endloop
  endfacet
  facet normal 1 0 0
    outer loop
      vertex 6 18 -0.799999
      vertex 6 21 -0.2
      vertex 6 18 -0.25
    endloop
  endfacet
  facet normal 1 0 0
    outer loop
      vertex 6 21 -0.2
      vertex 6 18 -0.799999
      vertex 6 21 -1.2
    endloop
  endfacet
  facet normal 1 0 0
    outer loop
      vertex 6 21 -1.2
      vertex 6 18 -0.799999
      vertex 6 18 -1.2
    endloop
  endfacet
  facet normal 0 1 -0
    outer loop
      vertex 14 21 -1.2
      vertex 11 21 -0.2
      vertex 14 21 -0.2
    endloop
  endfacet
  facet normal 0 1 0
    outer loop
      vertex 11 21 -0.2
      vertex 14 21 -1.2
      vertex 11 21 -1.2
    endloop
  endfacet
  facet normal -1 0 0
    outer loop
      vertex 11 -3 -1.2
      vertex 11 0 -0.799999
      vertex 11 0 -1.2
    endloop
  endfacet
  facet normal -1 0 0
    outer loop
      vertex 11 -3 -0.2
      vertex 11 0 -0.799999
      vertex 11 -3 -1.2
    endloop
  endfacet
  facet normal -1 0 0
    outer loop
      vertex 11 0 -0.799999
      vertex 11 -3 -0.2
      vertex 11 0 -0.25
    endloop
  endfacet
  facet normal -1 0 0
    outer loop
      vertex 11 0 -0.25
      vertex 11 -3 -0.2
      vertex 11 0 -0.2
    endloop
  endfacet
  facet normal -1 0 0
    outer loop
      vertex 11 0 -0.799999
      vertex 11 1 -0.25
      vertex 11 1 -0.799999
    endloop
  endfacet
  facet normal -1 -0 0
    outer loop
      vertex 11 1 -0.25
      vertex 11 0 -0.799999
      vertex 11 0 -0.25
    endloop
  endfacet
  facet normal -1 0 0
    outer loop
      vertex 11 1 -0.799999
      vertex 11 17 -0.799999
      vertex 11 17 -1.2
    endloop
  endfacet
  facet normal -1 0 0
    outer loop
      vertex 11 17 -0.799999
      vertex 11 1 -0.799999
      vertex 11 17 -0.25
    endloop
  endfacet
  facet normal -1 0 0
    outer loop
      vertex 11 1 -0.799999
      vertex 11 17 -1.2
      vertex 11 1 -1.2
    endloop
  endfacet
  facet normal -1 0 0
    outer loop
      vertex 11 1 -0.25
      vertex 11 17 -0.25
      vertex 11 1 -0.799999
    endloop
  endfacet
  facet normal -1 0 0
    outer loop
      vertex 11 17 -0.25
      vertex 11 1 -0.25
      vertex 11 17 -0.2
    endloop
  endfacet
  facet normal -1 -0 0
    outer loop
      vertex 11 17 -0.2
      vertex 11 1 -0.25
      vertex 11 1 -0.2
    endloop
  endfacet
  facet normal -1 0 0
    outer loop
      vertex 11 17 -0.799999
      vertex 11 18 -0.25
      vertex 11 18 -0.799999
    endloop
  endfacet
  facet normal -1 -0 0
    outer loop
      vertex 11 18 -0.25
      vertex 11 17 -0.799999
      vertex 11 17 -0.25
    endloop
  endfacet
  facet normal -1 0 0
    outer loop
      vertex 11 18 -0.799999
      vertex 11 21 -1.2
      vertex 11 18 -1.2
    endloop
  endfacet
  facet normal -1 0 0
    outer loop
      vertex 11 21 -1.2
      vertex 11 18 -0.799999
      vertex 11 21 -0.2
    endloop
  endfacet
  facet normal -1 0 0
    outer loop
      vertex 11 18 -0.25
      vertex 11 21 -0.2
      vertex 11 18 -0.799999
    endloop
  endfacet
  facet normal -1 -0 0
    outer loop
      vertex 11 21 -0.2
      vertex 11 18 -0.25
      vertex 11 18 -0.2
    endloop
  endfacet
  facet normal 0 -1 0
    outer loop
      vertex 11 -3 -1.2
      vertex 14 -3 -0.2
      vertex 11 -3 -0.2
    endloop
  endfacet
  facet normal 0 -1 -0
    outer loop
      vertex 14 -3 -0.2
      vertex 11 -3 -1.2
      vertex 14 -3 -1.2
    endloop
  endfacet
  facet normal 1 -0 0
    outer loop
      vertex 14 -3 -0.2
      vertex 14 0 -0.25
      vertex 14 0 -0.2
    endloop
  endfacet
  facet normal 1 0 0
    outer loop
      vertex 14 0 -0.25
      vertex 14 -3 -0.2
      vertex 14 0 -0.799999
    endloop
  endfacet
  facet normal 1 0 0
    outer loop
      vertex 14 -3 -1.2
      vertex 14 0 -0.799999
      vertex 14 -3 -0.2
    endloop
  endfacet
  facet normal 1 0 0
    outer loop
      vertex 14 0 -0.799999
      vertex 14 -3 -1.2
      vertex 14 0 -1.2
    endloop
  endfacet
  facet normal 1 -0 0
    outer loop
      vertex 14 0 -0.25
      vertex 14 1 -0.799999
      vertex 14 1 -0.25
    endloop
  endfacet
  facet normal 1 0 0
    outer loop
      vertex 14 1 -0.799999
      vertex 14 0 -0.25
      vertex 14 0 -0.799999
    endloop
  endfacet
  facet normal 1 0 0
    outer loop
      vertex 14 1 -0.25
      vertex 14 17 -0.25
      vertex 14 17 -0.2
    endloop
  endfacet
  facet normal 1 0 0
    outer loop
      vertex 14 17 -0.25
      vertex 14 1 -0.799999
      vertex 14 17 -0.799999
    endloop
  endfacet
  facet normal 1 0 0
    outer loop
      vertex 14 1 -0.25
      vertex 14 17 -0.2
      vertex 14 1 -0.2
    endloop
  endfacet
  facet normal 1 0 0
    outer loop
      vertex 14 17 -0.25
      vertex 14 1 -0.25
      vertex 14 1 -0.799999
    endloop
  endfacet
  facet normal 1 0 0
    outer loop
      vertex 14 17 -0.799999
      vertex 14 1 -0.799999
      vertex 14 17 -1.2
    endloop
  endfacet
  facet normal 1 0 0
    outer loop
      vertex 14 17 -1.2
      vertex 14 1 -0.799999
      vertex 14 1 -1.2
    endloop
  endfacet
  facet normal 1 -0 0
    outer loop
      vertex 14 17 -0.25
      vertex 14 18 -0.799999
      vertex 14 18 -0.25
    endloop
  endfacet
  facet normal 1 0 0
    outer loop
      vertex 14 18 -0.799999
      vertex 14 17 -0.25
      vertex 14 17 -0.799999
    endloop
  endfacet
  facet normal 1 0 0
    outer loop
      vertex 14 18 -0.25
      vertex 14 21 -0.2
      vertex 14 18 -0.2
    endloop
  endfacet
  facet normal 1 0 0
    outer loop
      vertex 14 18 -0.799999
      vertex 14 21 -0.2
      vertex 14 18 -0.25
    endloop
  endfacet
  facet normal 1 0 0
    outer loop
      vertex 14 21 -0.2
      vertex 14 18 -0.799999
      vertex 14 21 -1.2
    endloop
  endfacet
  facet normal 1 0 0
    outer loop
      vertex 14 21 -1.2
      vertex 14 18 -0.799999
      vertex 14 18 -1.2
    endloop
  endfacet
  facet normal 0 1 -0
    outer loop
      vertex 22 21 -1.2
      vertex 19 21 -0.2
      vertex 22 21 -0.2
    endloop
  endfacet
  facet normal 0 1 0
    outer loop
      vertex 19 21 -0.2
      vertex 22 21 -1.2
      vertex 19 21 -1.2
    endloop
  endfacet
  facet normal -1 0 0
    outer loop
      vertex 19 -3 -1.2
      vertex 19 0 -0.799999
      vertex 19 0 -1.2
    endloop
  endfacet
  facet normal -1 0 0
    outer loop
      vertex 19 -3 -0.2
      vertex 19 0 -0.799999
      vertex 19 -3 -1.2
    endloop
  endfacet
  facet normal -1 0 0
    outer loop
      vertex 19 0 -0.799999
      vertex 19 -3 -0.2
      vertex 19 0 -0.25
    endloop
  endfacet
  facet normal -1 0 0
    outer loop
      vertex 19 0 -0.25
      vertex 19 -3 -0.2
      vertex 19 0 -0.2
    endloop
  endfacet
  facet normal -1 0 0
    outer loop
      vertex 19 0 -0.799999
      vertex 19 1 -0.25
      vertex 19 1 -0.799999
    endloop
  endfacet
  facet normal -1 -0 0
    outer loop
      vertex 19 1 -0.25
      vertex 19 0 -0.799999
      vertex 19 0 -0.25
    endloop
  endfacet
  facet normal -1 0 0
    outer loop
      vertex 19 1 -0.799999
      vertex 19 17 -0.799999
      vertex 19 17 -1.2
    endloop
  endfacet
  facet normal -1 0 0
    outer loop
      vertex 19 17 -0.799999
      vertex 19 1 -0.799999
      vertex 19 17 -0.25
    endloop
  endfacet
  facet normal -1 0 0
    outer loop
      vertex 19 1 -0.799999
      vertex 19 17 -1.2
      vertex 19 1 -1.2
    endloop
  endfacet
  facet normal -1 0 0
    outer loop
      vertex 19 1 -0.25
      vertex 19 17 -0.25
      vertex 19 1 -0.799999
    endloop
  endfacet
  facet normal -1 0 0
    outer loop
      vertex 19 17 -0.25
      vertex 19 1 -0.25
      vertex 19 17 -0.2
    endloop
  endfacet
  facet normal -1 -0 0
    outer loop
      vertex 19 17 -0.2
      vertex 19 1 -0.25
      vertex 19 1 -0.2
    endloop
  endfacet
  facet normal -1 0 0
    outer loop
      vertex 19 17 -0.799999
      vertex 19 18 -0.25
      vertex 19 18 -0.799999
    endloop
  endfacet
  facet normal -1 -0 0
    outer loop
      vertex 19 18 -0.25
      vertex 19 17 -0.799999
      vertex 19 17 -0.25
    endloop
  endfacet
  facet normal -1 0 0
    outer loop
      vertex 19 18 -0.799999
      vertex 19 21 -1.2
      vertex 19 18 -1.2
    endloop
  endfacet
  facet normal -1 0 0
    outer loop
      vertex 19 21 -1.2
      vertex 19 18 -0.799999
      vertex 19 21 -0.2
    endloop
  endfacet
  facet normal -1 0 0
    outer loop
      vertex 19 18 -0.25
      vertex 19 21 -0.2
      vertex 19 18 -0.799999
    endloop
  endfacet
  facet normal -1 -0 0
    outer loop
      vertex 19 21 -0.2
      vertex 19 18 -0.25
      vertex 19 18 -0.2
    endloop
  endfacet
  facet normal 0 -1 0
    outer loop
      vertex 19 -3 -1.2
      vertex 22 -3 -0.2
      vertex 19 -3 -0.2
    endloop
  endfacet
  facet normal 0 -1 -0
    outer loop
      vertex 22 -3 -0.2
      vertex 19 -3 -1.2
      vertex 22 -3 -1.2
    endloop
  endfacet
  facet normal 1 -0 0
    outer loop
      vertex 22 -3 -0.2
      vertex 22 0 -0.25
      vertex 22 0 -0.2
    endloop
  endfacet
  facet normal 1 0 0
    outer loop
      vertex 22 0 -0.25
      vertex 22 -3 -0.2
      vertex 22 0 -0.799999
    endloop
  endfacet
  facet normal 1 0 0
    outer loop
      vertex 22 -3 -1.2
      vertex 22 0 -0.799999
      vertex 22 -3 -0.2
    endloop
  endfacet
  facet normal 1 0 0
    outer loop
      vertex 22 0 -0.799999
      vertex 22 -3 -1.2
      vertex 22 0 -1.2
    endloop
  endfacet
  facet normal 1 -0 0
    outer loop
      vertex 22 0 -0.25
      vertex 22 1 -0.799999
      vertex 22 1 -0.25
    endloop
  endfacet
  facet normal 1 0 0
    outer loop
      vertex 22 1 -0.799999
      vertex 22 0 -0.25
      vertex 22 0 -0.799999
    endloop
  endfacet
  facet normal 1 0 0
    outer loop
      vertex 22 1 -0.25
      vertex 22 17 -0.25
      vertex 22 17 -0.2
    endloop
  endfacet
  facet normal 1 0 0
    outer loop
      vertex 22 17 -0.25
      vertex 22 1 -0.799999
      vertex 22 17 -0.799999
    endloop
  endfacet
  facet normal 1 0 0
    outer loop
      vertex 22 1 -0.25
      vertex 22 17 -0.2
      vertex 22 1 -0.2
    endloop
  endfacet
  facet normal 1 0 0
    outer loop
      vertex 22 17 -0.25
      vertex 22 1 -0.25
      vertex 22 1 -0.799999
    endloop
  endfacet
  facet normal 1 0 0
    outer loop
      vertex 22 17 -0.799999
      vertex 22 1 -0.799999
      vertex 22 17 -1.2
    endloop
  endfacet
  facet normal 1 0 0
    outer loop
      vertex 22 17 -1.2
      vertex 22 1 -0.799999
      vertex 22 1 -1.2
    endloop
  endfacet
  facet normal 1 -0 0
    outer loop
      vertex 22 17 -0.25
      vertex 22 18 -0.799999
      vertex 22 18 -0.25
    endloop
  endfacet
  facet normal 1 0 0
    outer loop
      vertex 22 18 -0.799999
      vertex 22 17 -0.25
      vertex 22 17 -0.799999
    endloop
  endfacet
  facet normal 1 0 0
    outer loop
      vertex 22 18 -0.25
      vertex 22 21 -0.2
      vertex 22 18 -0.2
    endloop
  endfacet
  facet normal 1 0 0
    outer loop
      vertex 22 18 -0.799999
      vertex 22 21 -0.2
      vertex 22 18 -0.25
    endloop
  endfacet
  facet normal 1 0 0
    outer loop
      vertex 22 21 -0.2
      vertex 22 18 -0.799999
      vertex 22 21 -1.2
    endloop
  endfacet
  facet normal 1 0 0
    outer loop
      vertex 22 21 -1.2
      vertex 22 18 -0.799999
      vertex 22 18 -1.2
    endloop
  endfacet
  facet normal 0 1 -0
    outer loop
      vertex 30 21 -1.2
      vertex 27 21 -0.2
      vertex 30 21 -0.2
    endloop
  endfacet
  facet normal 0 1 0
    outer loop
      vertex 27 21 -0.2
      vertex 30 21 -1.2
      vertex 27 21 -1.2
    endloop
  endfacet
  facet normal -1 0 0
    outer loop
      vertex 27 -3 -1.2
      vertex 27 0 -0.799999
      vertex 27 0 -1.2
    endloop
  endfacet
  facet normal -1 0 0
    outer loop
      vertex 27 -3 -0.2
      vertex 27 0 -0.799999
      vertex 27 -3 -1.2
    endloop
  endfacet
  facet normal -1 0 0
    outer loop
      vertex 27 0 -0.799999
      vertex 27 -3 -0.2
      vertex 27 0 -0.25
    endloop
  endfacet
  facet normal -1 0 0
    outer loop
      vertex 27 0 -0.25
      vertex 27 -3 -0.2
      vertex 27 0 -0.2
    endloop
  endfacet
  facet normal -1 0 0
    outer loop
      vertex 27 0 -0.799999
      vertex 27 1 -0.25
      vertex 27 1 -0.799999
    endloop
  endfacet
  facet normal -1 -0 0
    outer loop
      vertex 27 1 -0.25
      vertex 27 0 -0.799999
      vertex 27 0 -0.25
    endloop
  endfacet
  facet normal -1 0 0
    outer loop
      vertex 27 1 -0.799999
      vertex 27 17 -0.799999
      vertex 27 17 -1.2
    endloop
  endfacet
  facet normal -1 0 0
    outer loop
      vertex 27 17 -0.799999
      vertex 27 1 -0.799999
      vertex 27 17 -0.25
    endloop
  endfacet
  facet normal -1 0 0
    outer loop
      vertex 27 1 -0.799999
      vertex 27 17 -1.2
      vertex 27 1 -1.2
    endloop
  endfacet
  facet normal -1 0 0
    outer loop
      vertex 27 1 -0.25
      vertex 27 17 -0.25
      vertex 27 1 -0.799999
    endloop
  endfacet
  facet normal -1 0 0
    outer loop
      vertex 27 17 -0.25
      vertex 27 1 -0.25
      vertex 27 17 -0.2
    endloop
  endfacet
  facet normal -1 -0 0
    outer loop
      vertex 27 17 -0.2
      vertex 27 1 -0.25
      vertex 27 1 -0.2
    endloop
  endfacet
  facet normal -1 0 0
    outer loop
      vertex 27 17 -0.799999
      vertex 27 18 -0.25
      vertex 27 18 -0.799999
    endloop
  endfacet
  facet normal -1 -0 0
    outer loop
      vertex 27 18 -0.25
      vertex 27 17 -0.799999
      vertex 27 17 -0.25
    endloop
  endfacet
  facet normal -1 0 0
    outer loop
      vertex 27 18 -0.799999
      vertex 27 21 -1.2
      vertex 27 18 -1.2
    endloop
  endfacet
  facet normal -1 0 0
    outer loop
      vertex 27 21 -1.2
      vertex 27 18 -0.799999
      vertex 27 21 -0.2
    endloop
  endfacet
  facet normal -1 0 0
    outer loop
      vertex 27 18 -0.25
      vertex 27 21 -0.2
      vertex 27 18 -0.799999
    endloop
  endfacet
  facet normal -1 -0 0
    outer loop
      vertex 27 21 -0.2
      vertex 27 18 -0.25
      vertex 27 18 -0.2
    endloop
  endfacet
  facet normal 0 -1 0
    outer loop
      vertex 27 -3 -1.2
      vertex 30 -3 -0.2
      vertex 27 -3 -0.2
    endloop
  endfacet
  facet normal 0 -1 -0
    outer loop
      vertex 30 -3 -0.2
      vertex 27 -3 -1.2
      vertex 30 -3 -1.2
    endloop
  endfacet
  facet normal 1 -0 0
    outer loop
      vertex 30 -3 -0.2
      vertex 30 0 -0.25
      vertex 30 0 -0.2
    endloop
  endfacet
  facet normal 1 0 0
    outer loop
      vertex 30 0 -0.25
      vertex 30 -3 -0.2
      vertex 30 0 -0.799999
    endloop
  endfacet
  facet normal 1 0 0
    outer loop
      vertex 30 -3 -1.2
      vertex 30 0 -0.799999
      vertex 30 -3 -0.2
    endloop
  endfacet
  facet normal 1 0 0
    outer loop
      vertex 30 0 -0.799999
      vertex 30 -3 -1.2
      vertex 30 0 -1.2
    endloop
  endfacet
  facet normal 1 -0 0
    outer loop
      vertex 30 0 -0.25
      vertex 30 1 -0.799999
      vertex 30 1 -0.25
    endloop
  endfacet
  facet normal 1 0 0
    outer loop
      vertex 30 1 -0.799999
      vertex 30 0 -0.25
      vertex 30 0 -0.799999
    endloop
  endfacet
  facet normal 1 0 0
    outer loop
      vertex 30 1 -0.25
      vertex 30 17 -0.25
      vertex 30 17 -0.2
    endloop
  endfacet
  facet normal 1 0 0
    outer loop
      vertex 30 17 -0.25
      vertex 30 1 -0.799999
      vertex 30 17 -0.799999
    endloop
  endfacet
  facet normal 1 0 0
    outer loop
      vertex 30 1 -0.25
      vertex 30 17 -0.2
      vertex 30 1 -0.2
    endloop
  endfacet
  facet normal 1 0 0
    outer loop
      vertex 30 17 -0.25
      vertex 30 1 -0.25
      vertex 30 1 -0.799999
    endloop
  endfacet
  facet normal 1 0 0
    outer loop
      vertex 30 17 -0.799999
      vertex 30 1 -0.799999
      vertex 30 17 -1.2
    endloop
  endfacet
  facet normal 1 0 0
    outer loop
      vertex 30 17 -1.2
      vertex 30 1 -0.799999
      vertex 30 1 -1.2
    endloop
  endfacet
  facet normal 1 -0 0
    outer loop
      vertex 30 17 -0.25
      vertex 30 18 -0.799999
      vertex 30 18 -0.25
    endloop
  endfacet
  facet normal 1 0 0
    outer loop
      vertex 30 18 -0.799999
      vertex 30 17 -0.25
      vertex 30 17 -0.799999
    endloop
  endfacet
  facet normal 1 0 0
    outer loop
      vertex 30 18 -0.25
      vertex 30 21 -0.2
      vertex 30 18 -0.2
    endloop
  endfacet
  facet normal 1 0 0
    outer loop
      vertex 30 18 -0.799999
      vertex 30 21 -0.2
      vertex 30 18 -0.25
    endloop
  endfacet
  facet normal 1 0 0
    outer loop
      vertex 30 21 -0.2
      vertex 30 18 -0.799999
      vertex 30 21 -1.2
    endloop
  endfacet
  facet normal 1 0 0
    outer loop
      vertex 30 21 -1.2
      vertex 30 18 -0.799999
      vertex 30 18 -1.2
    endloop
  endfacet
  facet normal 0 1 -0
    outer loop
      vertex 38 21 -1.2
      vertex 35 21 -0.2
      vertex 38 21 -0.2
    endloop
  endfacet
  facet normal 0 1 0
    outer loop
      vertex 35 21 -0.2
      vertex 38 21 -1.2
      vertex 35 21 -1.2
    endloop
  endfacet
  facet normal -1 0 0
    outer loop
      vertex 35 -3 -1.2
      vertex 35 0 -0.799999
      vertex 35 0 -1.2
    endloop
  endfacet
  facet normal -1 0 0
    outer loop
      vertex 35 -3 -0.2
      vertex 35 0 -0.799999
      vertex 35 -3 -1.2
    endloop
  endfacet
  facet normal -1 0 0
    outer loop
      vertex 35 0 -0.799999
      vertex 35 -3 -0.2
      vertex 35 0 -0.25
    endloop
  endfacet
  facet normal -1 0 0
    outer loop
      vertex 35 0 -0.25
      vertex 35 -3 -0.2
      vertex 35 0 -0.2
    endloop
  endfacet
  facet normal -1 0 0
    outer loop
      vertex 35 0 -0.799999
      vertex 35 1 -0.25
      vertex 35 1 -0.799999
    endloop
  endfacet
  facet normal -1 -0 0
    outer loop
      vertex 35 1 -0.25
      vertex 35 0 -0.799999
      vertex 35 0 -0.25
    endloop
  endfacet
  facet normal -1 0 0
    outer loop
      vertex 35 1 -0.799999
      vertex 35 17 -0.799999
      vertex 35 17 -1.2
    endloop
  endfacet
  facet normal -1 0 0
    outer loop
      vertex 35 17 -0.799999
      vertex 35 1 -0.799999
      vertex 35 17 -0.25
    endloop
  endfacet
  facet normal -1 0 0
    outer loop
      vertex 35 1 -0.799999
      vertex 35 17 -1.2
      vertex 35 1 -1.2
    endloop
  endfacet
  facet normal -1 0 0
    outer loop
      vertex 35 1 -0.25
      vertex 35 17 -0.25
      vertex 35 1 -0.799999
    endloop
  endfacet
  facet normal -1 0 0
    outer loop
      vertex 35 17 -0.25
      vertex 35 1 -0.25
      vertex 35 17 -0.2
    endloop
  endfacet
  facet normal -1 -0 0
    outer loop
      vertex 35 17 -0.2
      vertex 35 1 -0.25
      vertex 35 1 -0.2
    endloop
  endfacet
  facet normal -1 0 0
    outer loop
      vertex 35 17 -0.799999
      vertex 35 18 -0.25
      vertex 35 18 -0.799999
    endloop
  endfacet
  facet normal -1 -0 0
    outer loop
      vertex 35 18 -0.25
      vertex 35 17 -0.799999
      vertex 35 17 -0.25
    endloop
  endfacet
  facet normal -1 0 0
    outer loop
      vertex 35 18 -0.799999
      vertex 35 21 -1.2
      vertex 35 18 -1.2
    endloop
  endfacet
  facet normal -1 0 0
    outer loop
      vertex 35 21 -1.2
      vertex 35 18 -0.799999
      vertex 35 21 -0.2
    endloop
  endfacet
  facet normal -1 0 0
    outer loop
      vertex 35 18 -0.25
      vertex 35 21 -0.2
      vertex 35 18 -0.799999
    endloop
  endfacet
  facet normal -1 -0 0
    outer loop
      vertex 35 21 -0.2
      vertex 35 18 -0.25
      vertex 35 18 -0.2
    endloop
  endfacet
  facet normal 0 -1 0
    outer loop
      vertex 35 -3 -1.2
      vertex 38 -3 -0.2
      vertex 35 -3 -0.2
    endloop
  endfacet
  facet normal 0 -1 -0
    outer loop
      vertex 38 -3 -0.2
      vertex 35 -3 -1.2
      vertex 38 -3 -1.2
    endloop
  endfacet
  facet normal 1 -0 0
    outer loop
      vertex 38 -3 -0.2
      vertex 38 0 -0.25
      vertex 38 0 -0.2
    endloop
  endfacet
  facet normal 1 0 0
    outer loop
      vertex 38 0 -0.25
      vertex 38 -3 -0.2
      vertex 38 0 -0.799999
    endloop
  endfacet
  facet normal 1 0 0
    outer loop
      vertex 38 -3 -1.2
      vertex 38 0 -0.799999
      vertex 38 -3 -0.2
    endloop
  endfacet
  facet normal 1 0 0
    outer loop
      vertex 38 0 -0.799999
      vertex 38 -3 -1.2
      vertex 38 0 -1.2
    endloop
  endfacet
  facet normal 1 -0 0
    outer loop
      vertex 38 0 -0.25
      vertex 38 1 -0.799999
      vertex 38 1 -0.25
    endloop
  endfacet
  facet normal 1 0 0
    outer loop
      vertex 38 1 -0.799999
      vertex 38 0 -0.25
      vertex 38 0 -0.799999
    endloop
  endfacet
  facet normal 1 0 0
    outer loop
      vertex 38 1 -0.25
      vertex 38 17 -0.25
      vertex 38 17 -0.2
    endloop
  endfacet
  facet normal 1 0 0
    outer loop
      vertex 38 17 -0.25
      vertex 38 1 -0.799999
      vertex 38 17 -0.799999
    endloop
  endfacet
  facet normal 1 0 0
    outer loop
      vertex 38 1 -0.25
      vertex 38 17 -0.2
      vertex 38 1 -0.2
    endloop
  endfacet
  facet normal 1 0 0
    outer loop
      vertex 38 17 -0.25
      vertex 38 1 -0.25
      vertex 38 1 -0.799999
    endloop
  endfacet
  facet normal 1 0 0
    outer loop
      vertex 38 17 -0.799999
      vertex 38 1 -0.799999
      vertex 38 17 -1.2
    endloop
  endfacet
  facet normal 1 0 0
    outer loop
      vertex 38 17 -1.2
      vertex 38 1 -0.799999
      vertex 38 1 -1.2
    endloop
  endfacet
  facet normal 1 -0 0
    outer loop
      vertex 38 17 -0.25
      vertex 38 18 -0.799999
      vertex 38 18 -0.25
    endloop
  endfacet
  facet normal 1 0 0
    outer loop
      vertex 38 18 -0.799999
      vertex 38 17 -0.25
      vertex 38 17 -0.799999
    endloop
  endfacet
  facet normal 1 0 0
    outer loop
      vertex 38 18 -0.25
      vertex 38 21 -0.2
      vertex 38 18 -0.2
    endloop
  endfacet
  facet normal 1 0 0
    outer loop
      vertex 38 18 -0.799999
      vertex 38 21 -0.2
      vertex 38 18 -0.25
    endloop
  endfacet
  facet normal 1 0 0
    outer loop
      vertex 38 21 -0.2
      vertex 38 18 -0.799999
      vertex 38 21 -1.2
    endloop
  endfacet
  facet normal 1 0 0
    outer loop
      vertex 38 21 -1.2
      vertex 38 18 -0.799999
      vertex 38 18 -1.2
    endloop
  endfacet
  facet normal 0 1 -0
    outer loop
      vertex 46 21 -1.2
      vertex 43 21 -0.2
      vertex 46 21 -0.2
    endloop
  endfacet
  facet normal 0 1 0
    outer loop
      vertex 43 21 -0.2
      vertex 46 21 -1.2
      vertex 43 21 -1.2
    endloop
  endfacet
  facet normal -1 0 0
    outer loop
      vertex 43 -3 -1.2
      vertex 43 0 -0.799999
      vertex 43 0 -1.2
    endloop
  endfacet
  facet normal -1 0 0
    outer loop
      vertex 43 -3 -0.2
      vertex 43 0 -0.799999
      vertex 43 -3 -1.2
    endloop
  endfacet
  facet normal -1 0 0
    outer loop
      vertex 43 0 -0.799999
      vertex 43 -3 -0.2
      vertex 43 0 -0.25
    endloop
  endfacet
  facet normal -1 0 0
    outer loop
      vertex 43 0 -0.25
      vertex 43 -3 -0.2
      vertex 43 0 -0.2
    endloop
  endfacet
  facet normal -1 0 0
    outer loop
      vertex 43 0 -0.799999
      vertex 43 1 -0.25
      vertex 43 1 -0.799999
    endloop
  endfacet
  facet normal -1 -0 0
    outer loop
      vertex 43 1 -0.25
      vertex 43 0 -0.799999
      vertex 43 0 -0.25
    endloop
  endfacet
  facet normal -1 0 0
    outer loop
      vertex 43 1 -0.799999
      vertex 43 17 -0.799999
      vertex 43 17 -1.2
    endloop
  endfacet
  facet normal -1 0 0
    outer loop
      vertex 43 17 -0.799999
      vertex 43 1 -0.799999
      vertex 43 17 -0.25
    endloop
  endfacet
  facet normal -1 0 0
    outer loop
      vertex 43 1 -0.799999
      vertex 43 17 -1.2
      vertex 43 1 -1.2
    endloop
  endfacet
  facet normal -1 0 0
    outer loop
      vertex 43 1 -0.25
      vertex 43 17 -0.25
      vertex 43 1 -0.799999
    endloop
  endfacet
  facet normal -1 0 0
    outer loop
      vertex 43 17 -0.25
      vertex 43 1 -0.25
      vertex 43 17 -0.2
    endloop
  endfacet
  facet normal -1 -0 0
    outer loop
      vertex 43 17 -0.2
      vertex 43 1 -0.25
      vertex 43 1 -0.2
    endloop
  endfacet
  facet normal -1 0 0
    outer loop
      vertex 43 17 -0.799999
      vertex 43 18 -0.25
      vertex 43 18 -0.799999
    endloop
  endfacet
  facet normal -1 -0 0
    outer loop
      vertex 43 18 -0.25
      vertex 43 17 -0.799999
      vertex 43 17 -0.25
    endloop
  endfacet
  facet normal -1 0 0
    outer loop
      vertex 43 18 -0.799999
      vertex 43 21 -1.2
      vertex 43 18 -1.2
    endloop
  endfacet
  facet normal -1 0 0
    outer loop
      vertex 43 21 -1.2
      vertex 43 18 -0.799999
      vertex 43 21 -0.2
    endloop
  endfacet
  facet normal -1 0 0
    outer loop
      vertex 43 18 -0.25
      vertex 43 21 -0.2
      vertex 43 18 -0.799999
    endloop
  endfacet
  facet normal -1 -0 0
    outer loop
      vertex 43 21 -0.2
      vertex 43 18 -0.25
      vertex 43 18 -0.2
    endloop
  endfacet
  facet normal 0 -1 0
    outer loop
      vertex 43 -3 -1.2
      vertex 46 -3 -0.2
      vertex 43 -3 -0.2
    endloop
  endfacet
  facet normal 0 -1 -0
    outer loop
      vertex 46 -3 -0.2
      vertex 43 -3 -1.2
      vertex 46 -3 -1.2
    endloop
  endfacet
  facet normal 1 -0 0
    outer loop
      vertex 46 -3 -0.2
      vertex 46 0 -0.25
      vertex 46 0 -0.2
    endloop
  endfacet
  facet normal 1 0 0
    outer loop
      vertex 46 0 -0.25
      vertex 46 -3 -0.2
      vertex 46 0 -0.799999
    endloop
  endfacet
  facet normal 1 0 0
    outer loop
      vertex 46 -3 -1.2
      vertex 46 0 -0.799999
      vertex 46 -3 -0.2
    endloop
  endfacet
  facet normal 1 0 0
    outer loop
      vertex 46 0 -0.799999
      vertex 46 -3 -1.2
      vertex 46 0 -1.2
    endloop
  endfacet
  facet normal 1 -0 0
    outer loop
      vertex 46 0 -0.25
      vertex 46 1 -0.799999
      vertex 46 1 -0.25
    endloop
  endfacet
  facet normal 1 0 0
    outer loop
      vertex 46 1 -0.799999
      vertex 46 0 -0.25
      vertex 46 0 -0.799999
    endloop
  endfacet
  facet normal 1 0 0
    outer loop
      vertex 46 1 -0.25
      vertex 46 17 -0.25
      vertex 46 17 -0.2
    endloop
  endfacet
  facet normal 1 0 0
    outer loop
      vertex 46 17 -0.25
      vertex 46 1 -0.799999
      vertex 46 17 -0.799999
    endloop
  endfacet
  facet normal 1 0 0
    outer loop
      vertex 46 1 -0.25
      vertex 46 17 -0.2
      vertex 46 1 -0.2
    endloop
  endfacet
  facet normal 1 0 0
    outer loop
      vertex 46 17 -0.25
      vertex 46 1 -0.25
      vertex 46 1 -0.799999
    endloop
  endfacet
  facet normal 1 0 0
    outer loop
      vertex 46 17 -0.799999
      vertex 46 1 -0.799999
      vertex 46 17 -1.2
    endloop
  endfacet
  facet normal 1 0 0
    outer loop
      vertex 46 17 -1.2
      vertex 46 1 -0.799999
      vertex 46 1 -1.2
    endloop
  endfacet
  facet normal 1 -0 0
    outer loop
      vertex 46 17 -0.25
      vertex 46 18 -0.799999
      vertex 46 18 -0.25
    endloop
  endfacet
  facet normal 1 0 0
    outer loop
      vertex 46 18 -0.799999
      vertex 46 17 -0.25
      vertex 46 17 -0.799999
    endloop
  endfacet
  facet normal 1 0 0
    outer loop
      vertex 46 18 -0.25
      vertex 46 21 -0.2
      vertex 46 18 -0.2
    endloop
  endfacet
  facet normal 1 0 0
    outer loop
      vertex 46 18 -0.799999
      vertex 46 21 -0.2
      vertex 46 18 -0.25
    endloop
  endfacet
  facet normal 1 0 0
    outer loop
      vertex 46 21 -0.2
      vertex 46 18 -0.799999
      vertex 46 21 -1.2
    endloop
  endfacet
  facet normal 1 0 0
    outer loop
      vertex 46 21 -1.2
      vertex 46 18 -0.799999
      vertex 46 18 -1.2
    endloop
  endfacet
endsolid OpenSCAD_Model
