solid OpenSCAD_Model
  facet normal 0.951057 0.309017 0
    outer loop
      vertex 3 0 0.799999
      vertex 2.42705 1.76336 0
      vertex 2.42705 1.76336 0.799999
    endloop
  endfacet
  facet normal 0.951057 0.309017 0
    outer loop
      vertex 2.42705 1.76336 0
      vertex 3 0 0.799999
      vertex 3 0 0
    endloop
  endfacet
  facet normal -0.951057 0.309017 0
    outer loop
      vertex -3 0 0
      vertex -2.42705 1.76336 0.799999
      vertex -2.42705 1.76336 0
    endloop
  endfacet
  facet normal -0.951057 0.309017 0
    outer loop
      vertex -2.42705 1.76336 0.799999
      vertex -3 0 0
      vertex -3 0 0.799999
    endloop
  endfacet
  facet normal 0 -1 0
    outer loop
      vertex -0.927051 -2.85317 0
      vertex 0.927051 -2.85317 0.799999
      vertex -0.927051 -2.85317 0.799999
    endloop
  endfacet
  facet normal 0 -1 -0
    outer loop
      vertex 0.927051 -2.85317 0.799999
      vertex -0.927051 -2.85317 0
      vertex 0.927051 -2.85317 0
    endloop
  endfacet
  facet normal 0 1 -0
    outer loop
      vertex 0.927051 2.85317 0
      vertex -0.927051 2.85317 0.799999
      vertex 0.927051 2.85317 0.799999
    endloop
  endfacet
  facet normal 0 1 0
    outer loop
      vertex -0.927051 2.85317 0.799999
      vertex 0.927051 2.85317 0
      vertex -0.927051 2.85317 0
    endloop
  endfacet
  facet normal 0.587784 0.809018 -0
    outer loop
      vertex 2.42705 1.76336 0
      vertex 0.927051 2.85317 0.799999
      vertex 2.42705 1.76336 0.799999
    endloop
  endfacet
  facet normal 0.587784 0.809018 0
    outer loop
      vertex 0.927051 2.85317 0.799999
      vertex 2.42705 1.76336 0
      vertex 0.927051 2.85317 0
    endloop
  endfacet
  facet normal 0 0 1
    outer loop
      vertex 2.42705 1.76336 0.799999
      vertex 2.42705 -1.76336 0.799999
      vertex 3 0 0.799999
    endloop
  endfacet
  facet normal 0 0 1
    outer loop
      vertex 0.927051 2.85317 0.799999
      vertex 2.42705 -1.76336 0.799999
      vertex 2.42705 1.76336 0.799999
    endloop
  endfacet
  facet normal 0 0 1
    outer loop
      vertex 0.927051 2.85317 0.799999
      vertex 0.927051 -2.85317 0.799999
      vertex 2.42705 -1.76336 0.799999
    endloop
  endfacet
  facet normal -0 0 1
    outer loop
      vertex -0.927051 2.85317 0.799999
      vertex 0.927051 -2.85317 0.799999
      vertex 0.927051 2.85317 0.799999
    endloop
  endfacet
  facet normal 0 0 1
    outer loop
      vertex -0.927051 2.85317 0.799999
      vertex -0.927051 -2.85317 0.799999
      vertex 0.927051 -2.85317 0.799999
    endloop
  endfacet
  facet normal -0 0 1
    outer loop
      vertex -2.42705 1.76336 0.799999
      vertex -0.927051 -2.85317 0.799999
      vertex -0.927051 2.85317 0.799999
    endloop
  endfacet
  facet normal 0 0 1
    outer loop
      vertex -2.42705 1.76336 0.799999
      vertex -2.42705 -1.76336 0.799999
      vertex -0.927051 -2.85317 0.799999
    endloop
  endfacet
  facet normal 0 -0 1
    outer loop
      vertex -2.42705 -1.76336 0.799999
      vertex -2.42705 1.76336 0.799999
      vertex -3 0 0.799999
    endloop
  endfacet
  facet normal -0.587784 0.809018 0
    outer loop
      vertex -0.927051 2.85317 0
      vertex -2.42705 1.76336 0.799999
      vertex -0.927051 2.85317 0.799999
    endloop
  endfacet
  facet normal -0.587784 0.809018 0
    outer loop
      vertex -2.42705 1.76336 0.799999
      vertex -0.927051 2.85317 0
      vertex -2.42705 1.76336 0
    endloop
  endfacet
  facet normal 0.951057 -0.309017 0
    outer loop
      vertex 2.42705 -1.76336 0.799999
      vertex 3 0 0
      vertex 3 0 0.799999
    endloop
  endfacet
  facet normal 0.951057 -0.309017 0
    outer loop
      vertex 3 0 0
      vertex 2.42705 -1.76336 0.799999
      vertex 2.42705 -1.76336 0
    endloop
  endfacet
  facet normal 0 0 -1
    outer loop
      vertex 2.42705 -1.76336 0
      vertex 2.42705 1.76336 0
      vertex 3 0 0
    endloop
  endfacet
  facet normal 0 0 -1
    outer loop
      vertex 0.927051 -2.85317 0
      vertex 2.42705 1.76336 0
      vertex 2.42705 -1.76336 0
    endloop
  endfacet
  facet normal 0 0 -1
    outer loop
      vertex 0.927051 -2.85317 0
      vertex 0.927051 2.85317 0
      vertex 2.42705 1.76336 0
    endloop
  endfacet
  facet normal 0 0 -1
    outer loop
      vertex -0.927051 -2.85317 0
      vertex 0.927051 2.85317 0
      vertex 0.927051 -2.85317 0
    endloop
  endfacet
  facet normal 0 0 -1
    outer loop
      vertex -0.927051 -2.85317 0
      vertex -0.927051 2.85317 0
      vertex 0.927051 2.85317 0
    endloop
  endfacet
  facet normal 0 0 -1
    outer loop
      vertex -2.42705 -1.76336 0
      vertex -0.927051 2.85317 0
      vertex -0.927051 -2.85317 0
    endloop
  endfacet
  facet normal 0 0 -1
    outer loop
      vertex -2.42705 -1.76336 0
      vertex -2.42705 1.76336 0
      vertex -0.927051 2.85317 0
    endloop
  endfacet
  facet normal 0 -0 -1
    outer loop
      vertex -2.42705 1.76336 0
      vertex -2.42705 -1.76336 0
      vertex -3 0 0
    endloop
  endfacet
  facet normal 0.587784 -0.809018 0
    outer loop
      vertex 0.927051 -2.85317 0
      vertex 2.42705 -1.76336 0.799999
      vertex 0.927051 -2.85317 0.799999
    endloop
  endfacet
  facet normal 0.587784 -0.809018 0
    outer loop
      vertex 2.42705 -1.76336 0.799999
      vertex 0.927051 -2.85317 0
      vertex 2.42705 -1.76336 0
    endloop
  endfacet
  facet normal -0.587784 -0.809018 0
    outer loop
      vertex -2.42705 -1.76336 0
      vertex -0.927051 -2.85317 0.799999
      vertex -2.42705 -1.76336 0.799999
    endloop
  endfacet
  facet normal -0.587784 -0.809018 -0
    outer loop
      vertex -0.927051 -2.85317 0.799999
      vertex -2.42705 -1.76336 0
      vertex -0.927051 -2.85317 0
    endloop
  endfacet
  facet normal -0.951057 -0.309017 0
    outer loop
      vertex -2.42705 -1.76336 0
      vertex -3 0 0.799999
      vertex -3 0 0
    endloop
  endfacet
  facet normal -0.951057 -0.309017 0
    outer loop
      vertex -3 0 0.799999
      vertex -2.42705 -1.76336 0
      vertex -2.42705 -1.76336 0.799999
    endloop
  endfacet
  facet normal 0.951065 0.308992 0
    outer loop
      vertex 53 0 0.799999
      vertex 52.4271 1.76336 0
      vertex 52.4271 1.76336 0.799999
    endloop
  endfacet
  facet normal 0.951065 0.308992 0
    outer loop
      vertex 52.4271 1.76336 0
      vertex 53 0 0.799999
      vertex 53 0 0
    endloop
  endfacet
  facet normal 0 1 -0
    outer loop
      vertex 50.9271 2.85317 0
      vertex 49.0729 2.85317 0.799999
      vertex 50.9271 2.85317 0.799999
    endloop
  endfacet
  facet normal 0 1 0
    outer loop
      vertex 49.0729 2.85317 0.799999
      vertex 50.9271 2.85317 0
      vertex 49.0729 2.85317 0
    endloop
  endfacet
  facet normal 0.587784 0.809018 -0
    outer loop
      vertex 52.4271 1.76336 0
      vertex 50.9271 2.85317 0.799999
      vertex 52.4271 1.76336 0.799999
    endloop
  endfacet
  facet normal 0.587784 0.809018 0
    outer loop
      vertex 50.9271 2.85317 0.799999
      vertex 52.4271 1.76336 0
      vertex 50.9271 2.85317 0
    endloop
  endfacet
  facet normal -0.587784 0.809018 0
    outer loop
      vertex 49.0729 2.85317 0
      vertex 47.5729 1.76336 0.799999
      vertex 49.0729 2.85317 0.799999
    endloop
  endfacet
  facet normal -0.587784 0.809018 0
    outer loop
      vertex 47.5729 1.76336 0.799999
      vertex 49.0729 2.85317 0
      vertex 47.5729 1.76336 0
    endloop
  endfacet
  facet normal 0.587784 -0.809018 0
    outer loop
      vertex 50.9271 -2.85317 0
      vertex 52.4271 -1.76336 0.799999
      vertex 50.9271 -2.85317 0.799999
    endloop
  endfacet
  facet normal 0.587784 -0.809018 0
    outer loop
      vertex 52.4271 -1.76336 0.799999
      vertex 50.9271 -2.85317 0
      vertex 52.4271 -1.76336 0
    endloop
  endfacet
  facet normal -0.587784 -0.809018 0
    outer loop
      vertex 47.5729 -1.76336 0
      vertex 49.0729 -2.85317 0.799999
      vertex 47.5729 -1.76336 0.799999
    endloop
  endfacet
  facet normal -0.587784 -0.809018 -0
    outer loop
      vertex 49.0729 -2.85317 0.799999
      vertex 47.5729 -1.76336 0
      vertex 49.0729 -2.85317 0
    endloop
  endfacet
  facet normal 0 0 -1
    outer loop
      vertex 52.4271 -1.76336 0
      vertex 52.4271 1.76336 0
      vertex 53 0 0
    endloop
  endfacet
  facet normal 0 0 -1
    outer loop
      vertex 50.9271 -2.85317 0
      vertex 52.4271 1.76336 0
      vertex 52.4271 -1.76336 0
    endloop
  endfacet
  facet normal 0 0 -1
    outer loop
      vertex 50.9271 -2.85317 0
      vertex 50.9271 2.85317 0
      vertex 52.4271 1.76336 0
    endloop
  endfacet
  facet normal 0 0 -1
    outer loop
      vertex 49.0729 -2.85317 0
      vertex 50.9271 2.85317 0
      vertex 50.9271 -2.85317 0
    endloop
  endfacet
  facet normal 0 0 -1
    outer loop
      vertex 49.0729 -2.85317 0
      vertex 49.0729 2.85317 0
      vertex 50.9271 2.85317 0
    endloop
  endfacet
  facet normal 0 0 -1
    outer loop
      vertex 47.5729 -1.76336 0
      vertex 49.0729 2.85317 0
      vertex 49.0729 -2.85317 0
    endloop
  endfacet
  facet normal 0 0 -1
    outer loop
      vertex 47.5729 -1.76336 0
      vertex 47.5729 1.76336 0
      vertex 49.0729 2.85317 0
    endloop
  endfacet
  facet normal 0 -0 -1
    outer loop
      vertex 47.5729 1.76336 0
      vertex 47.5729 -1.76336 0
      vertex 47 0 0
    endloop
  endfacet
  facet normal -0.951065 0.308992 0
    outer loop
      vertex 47 0 0
      vertex 47.5729 1.76336 0.799999
      vertex 47.5729 1.76336 0
    endloop
  endfacet
  facet normal -0.951065 0.308992 0
    outer loop
      vertex 47.5729 1.76336 0.799999
      vertex 47 0 0
      vertex 47 0 0.799999
    endloop
  endfacet
  facet normal 0 0 1
    outer loop
      vertex 52.4271 1.76336 0.799999
      vertex 52.4271 -1.76336 0.799999
      vertex 53 0 0.799999
    endloop
  endfacet
  facet normal 0 0 1
    outer loop
      vertex 50.9271 2.85317 0.799999
      vertex 52.4271 -1.76336 0.799999
      vertex 52.4271 1.76336 0.799999
    endloop
  endfacet
  facet normal 0 0 1
    outer loop
      vertex 50.9271 2.85317 0.799999
      vertex 50.9271 -2.85317 0.799999
      vertex 52.4271 -1.76336 0.799999
    endloop
  endfacet
  facet normal -0 0 1
    outer loop
      vertex 49.0729 2.85317 0.799999
      vertex 50.9271 -2.85317 0.799999
      vertex 50.9271 2.85317 0.799999
    endloop
  endfacet
  facet normal 0 0 1
    outer loop
      vertex 49.0729 2.85317 0.799999
      vertex 49.0729 -2.85317 0.799999
      vertex 50.9271 -2.85317 0.799999
    endloop
  endfacet
  facet normal -0 0 1
    outer loop
      vertex 47.5729 1.76336 0.799999
      vertex 49.0729 -2.85317 0.799999
      vertex 49.0729 2.85317 0.799999
    endloop
  endfacet
  facet normal 0 0 1
    outer loop
      vertex 47.5729 1.76336 0.799999
      vertex 47.5729 -1.76336 0.799999
      vertex 49.0729 -2.85317 0.799999
    endloop
  endfacet
  facet normal 0 -0 1
    outer loop
      vertex 47.5729 -1.76336 0.799999
      vertex 47.5729 1.76336 0.799999
      vertex 47 0 0.799999
    endloop
  endfacet
  facet normal 0.951065 -0.308992 0
    outer loop
      vertex 52.4271 -1.76336 0.799999
      vertex 53 0 0
      vertex 53 0 0.799999
    endloop
  endfacet
  facet normal 0.951065 -0.308992 0
    outer loop
      vertex 53 0 0
      vertex 52.4271 -1.76336 0.799999
      vertex 52.4271 -1.76336 0
    endloop
  endfacet
  facet normal 0 -1 0
    outer loop
      vertex 49.0729 -2.85317 0
      vertex 50.9271 -2.85317 0.799999
      vertex 49.0729 -2.85317 0.799999
    endloop
  endfacet
  facet normal 0 -1 -0
    outer loop
      vertex 50.9271 -2.85317 0.799999
      vertex 49.0729 -2.85317 0
      vertex 50.9271 -2.85317 0
    endloop
  endfacet
  facet normal -0.951065 -0.308992 0
    outer loop
      vertex 47.5729 -1.76336 0
      vertex 47 0 0.799999
      vertex 47 0 0
    endloop
  endfacet
  facet normal -0.951065 -0.308992 0
    outer loop
      vertex 47 0 0.799999
      vertex 47.5729 -1.76336 0
      vertex 47.5729 -1.76336 0.799999
    endloop
  endfacet
  facet normal 0 0 -1
    outer loop
      vertex -2 50 0
      vertex 2 54 0
      vertex 2 50 0
    endloop
  endfacet
  facet normal -0 0 -1
    outer loop
      vertex 2 54 0
      vertex -2 50 0
      vertex -2 54 0
    endloop
  endfacet
  facet normal 1 -0 0
    outer loop
      vertex 2 50 0.799999
      vertex 2 54 0
      vertex 2 54 0.799999
    endloop
  endfacet
  facet normal 1 0 0
    outer loop
      vertex 2 54 0
      vertex 2 50 0.799999
      vertex 2 50 0
    endloop
  endfacet
  facet normal -1 0 0
    outer loop
      vertex -2 50 0
      vertex -2 54 0.799999
      vertex -2 54 0
    endloop
  endfacet
  facet normal -1 -0 0
    outer loop
      vertex -2 54 0.799999
      vertex -2 50 0
      vertex -2 50 0.799999
    endloop
  endfacet
  facet normal 0 -1 0
    outer loop
      vertex -2 50 0
      vertex 2 50 0.799999
      vertex -2 50 0.799999
    endloop
  endfacet
  facet normal 0 -1 -0
    outer loop
      vertex 2 50 0.799999
      vertex -2 50 0
      vertex 2 50 0
    endloop
  endfacet
  facet normal 0 1 -0
    outer loop
      vertex 2 54 0
      vertex -2 54 0.799999
      vertex 2 54 0.799999
    endloop
  endfacet
  facet normal 0 1 0
    outer loop
      vertex -2 54 0.799999
      vertex 2 54 0
      vertex -2 54 0
    endloop
  endfacet
  facet normal -0 0 1
    outer loop
      vertex -2 54 0.799999
      vertex 2 50 0.799999
      vertex 2 54 0.799999
    endloop
  endfacet
  facet normal 0 0 1
    outer loop
      vertex 2 50 0.799999
      vertex -2 54 0.799999
      vertex -2 50 0.799999
    endloop
  endfacet
endsolid OpenSCAD_Model
