solid OpenSCAD_Model
  facet normal -1 0 0
    outer loop
      vertex 0 5 0
      vertex 0 5.4 0.4
      vertex 0 5.4 0
    endloop
  endfacet
  facet normal -1 -0 0
    outer loop
      vertex 0 5.4 0.4
      vertex 0 5 0
      vertex 0 5 0.4
    endloop
  endfacet
  facet normal -0 0 1
    outer loop
      vertex 0 5.4 0.4
      vertex 200 5 0.4
      vertex 200 5.4 0.4
    endloop
  endfacet
  facet normal 0 0 1
    outer loop
      vertex 200 5 0.4
      vertex 0 5.4 0.4
      vertex 0 5 0.4
    endloop
  endfacet
  facet normal 1 -0 0
    outer loop
      vertex 200 5 0.4
      vertex 200 5.4 0
      vertex 200 5.4 0.4
    endloop
  endfacet
  facet normal 1 0 0
    outer loop
      vertex 200 5.4 0
      vertex 200 5 0.4
      vertex 200 5 0
    endloop
  endfacet
  facet normal 0 1 -0
    outer loop
      vertex 200 5.4 0
      vertex 0 5.4 0.4
      vertex 200 5.4 0.4
    endloop
  endfacet
  facet normal 0 1 0
    outer loop
      vertex 0 5.4 0.4
      vertex 200 5.4 0
      vertex 0 5.4 0
    endloop
  endfacet
  facet normal 0 0 -1
    outer loop
      vertex 0 5 0
      vertex 200 5.4 0
      vertex 200 5 0
    endloop
  endfacet
  facet normal -0 0 -1
    outer loop
      vertex 200 5.4 0
      vertex 0 5 0
      vertex 0 5.4 0
    endloop
  endfacet
  facet normal 0 -1 0
    outer loop
      vertex 0 5 0
      vertex 200 5 0.4
      vertex 0 5 0.4
    endloop
  endfacet
  facet normal 0 -1 -0
    outer loop
      vertex 200 5 0.4
      vertex 0 5 0
      vertex 200 5 0
    endloop
  endfacet
  facet normal -1 0 0
    outer loop
      vertex 0 10 0
      vertex 0 10.8 0.4
      vertex 0 10.8 0
    endloop
  endfacet
  facet normal -1 -0 0
    outer loop
      vertex 0 10.8 0.4
      vertex 0 10 0
      vertex 0 10 0.4
    endloop
  endfacet
  facet normal -0 0 1
    outer loop
      vertex 0 10.8 0.4
      vertex 200 10 0.4
      vertex 200 10.8 0.4
    endloop
  endfacet
  facet normal 0 0 1
    outer loop
      vertex 200 10 0.4
      vertex 0 10.8 0.4
      vertex 0 10 0.4
    endloop
  endfacet
  facet normal 1 -0 0
    outer loop
      vertex 200 10 0.4
      vertex 200 10.8 0
      vertex 200 10.8 0.4
    endloop
  endfacet
  facet normal 1 0 0
    outer loop
      vertex 200 10.8 0
      vertex 200 10 0.4
      vertex 200 10 0
    endloop
  endfacet
  facet normal 0 0 -1
    outer loop
      vertex 0 10 0
      vertex 200 10.8 0
      vertex 200 10 0
    endloop
  endfacet
  facet normal -0 0 -1
    outer loop
      vertex 200 10.8 0
      vertex 0 10 0
      vertex 0 10.8 0
    endloop
  endfacet
  facet normal 0 -1 0
    outer loop
      vertex 0 10 0
      vertex 200 10 0.4
      vertex 0 10 0.4
    endloop
  endfacet
  facet normal 0 -1 -0
    outer loop
      vertex 200 10 0.4
      vertex 0 10 0
      vertex 200 10 0
    endloop
  endfacet
  facet normal 0 1 -0
    outer loop
      vertex 200 10.8 0
      vertex 0 10.8 0.4
      vertex 200 10.8 0.4
    endloop
  endfacet
  facet normal 0 1 0
    outer loop
      vertex 0 10.8 0.4
      vertex 200 10.8 0
      vertex 0 10.8 0
    endloop
  endfacet
  facet normal -1 0 0
    outer loop
      vertex 0 15 0
      vertex 0 15.8 0.799999
      vertex 0 15.8 0
    endloop
  endfacet
  facet normal -1 -0 0
    outer loop
      vertex 0 15.8 0.799999
      vertex 0 15 0
      vertex 0 15 0.799999
    endloop
  endfacet
  facet normal -0 0 1
    outer loop
      vertex 0 15.8 0.799999
      vertex 200 15 0.799999
      vertex 200 15.8 0.799999
    endloop
  endfacet
  facet normal 0 0 1
    outer loop
      vertex 200 15 0.799999
      vertex 0 15.8 0.799999
      vertex 0 15 0.799999
    endloop
  endfacet
  facet normal 1 -0 0
    outer loop
      vertex 200 15 0.799999
      vertex 200 15.8 0
      vertex 200 15.8 0.799999
    endloop
  endfacet
  facet normal 1 0 0
    outer loop
      vertex 200 15.8 0
      vertex 200 15 0.799999
      vertex 200 15 0
    endloop
  endfacet
  facet normal 0 1 -0
    outer loop
      vertex 200 15.8 0
      vertex 0 15.8 0.799999
      vertex 200 15.8 0.799999
    endloop
  endfacet
  facet normal 0 1 0
    outer loop
      vertex 0 15.8 0.799999
      vertex 200 15.8 0
      vertex 0 15.8 0
    endloop
  endfacet
  facet normal 0 0 -1
    outer loop
      vertex 0 15 0
      vertex 200 15.8 0
      vertex 200 15 0
    endloop
  endfacet
  facet normal -0 0 -1
    outer loop
      vertex 200 15.8 0
      vertex 0 15 0
      vertex 0 15.8 0
    endloop
  endfacet
  facet normal 0 -1 0
    outer loop
      vertex 0 15 0
      vertex 200 15 0.799999
      vertex 0 15 0.799999
    endloop
  endfacet
  facet normal 0 -1 -0
    outer loop
      vertex 200 15 0.799999
      vertex 0 15 0
      vertex 200 15 0
    endloop
  endfacet
  facet normal -1 0 0
    outer loop
      vertex 0 20 0
      vertex 0 21.6 0.4
      vertex 0 21.6 0
    endloop
  endfacet
  facet normal -1 -0 0
    outer loop
      vertex 0 21.6 0.4
      vertex 0 20 0
      vertex 0 20 0.4
    endloop
  endfacet
  facet normal -0 0 1
    outer loop
      vertex 0 21.6 0.4
      vertex 200 20 0.4
      vertex 200 21.6 0.4
    endloop
  endfacet
  facet normal 0 0 1
    outer loop
      vertex 200 20 0.4
      vertex 0 21.6 0.4
      vertex 0 20 0.4
    endloop
  endfacet
  facet normal 1 -0 0
    outer loop
      vertex 200 20 0.4
      vertex 200 21.6 0
      vertex 200 21.6 0.4
    endloop
  endfacet
  facet normal 1 0 0
    outer loop
      vertex 200 21.6 0
      vertex 200 20 0.4
      vertex 200 20 0
    endloop
  endfacet
  facet normal 0 1 -0
    outer loop
      vertex 200 21.6 0
      vertex 0 21.6 0.4
      vertex 200 21.6 0.4
    endloop
  endfacet
  facet normal 0 1 0
    outer loop
      vertex 0 21.6 0.4
      vertex 200 21.6 0
      vertex 0 21.6 0
    endloop
  endfacet
  facet normal 0 0 -1
    outer loop
      vertex 0 20 0
      vertex 200 21.6 0
      vertex 200 20 0
    endloop
  endfacet
  facet normal -0 0 -1
    outer loop
      vertex 200 21.6 0
      vertex 0 20 0
      vertex 0 21.6 0
    endloop
  endfacet
  facet normal 0 -1 0
    outer loop
      vertex 0 20 0
      vertex 200 20 0.4
      vertex 0 20 0.4
    endloop
  endfacet
  facet normal 0 -1 -0
    outer loop
      vertex 200 20 0.4
      vertex 0 20 0
      vertex 200 20 0
    endloop
  endfacet
  facet normal -1 0 0
    outer loop
      vertex 0 25 0
      vertex 0 26.6 0.799999
      vertex 0 26.6 0
    endloop
  endfacet
  facet normal -1 -0 0
    outer loop
      vertex 0 26.6 0.799999
      vertex 0 25 0
      vertex 0 25 0.799999
    endloop
  endfacet
  facet normal -0 0 1
    outer loop
      vertex 0 26.6 0.799999
      vertex 200 25 0.799999
      vertex 200 26.6 0.799999
    endloop
  endfacet
  facet normal 0 0 1
    outer loop
      vertex 200 25 0.799999
      vertex 0 26.6 0.799999
      vertex 0 25 0.799999
    endloop
  endfacet
  facet normal 1 -0 0
    outer loop
      vertex 200 25 0.799999
      vertex 200 26.6 0
      vertex 200 26.6 0.799999
    endloop
  endfacet
  facet normal 1 0 0
    outer loop
      vertex 200 26.6 0
      vertex 200 25 0.799999
      vertex 200 25 0
    endloop
  endfacet
  facet normal 0 0 -1
    outer loop
      vertex 0 25 0
      vertex 200 26.6 0
      vertex 200 25 0
    endloop
  endfacet
  facet normal -0 0 -1
    outer loop
      vertex 200 26.6 0
      vertex 0 25 0
      vertex 0 26.6 0
    endloop
  endfacet
  facet normal 0 -1 0
    outer loop
      vertex 0 25 0
      vertex 200 25 0.799999
      vertex 0 25 0.799999
    endloop
  endfacet
  facet normal 0 -1 -0
    outer loop
      vertex 200 25 0.799999
      vertex 0 25 0
      vertex 200 25 0
    endloop
  endfacet
  facet normal 0 1 -0
    outer loop
      vertex 200 26.6 0
      vertex 0 26.6 0.799999
      vertex 200 26.6 0.799999
    endloop
  endfacet
  facet normal 0 1 0
    outer loop
      vertex 0 26.6 0.799999
      vertex 200 26.6 0
      vertex 0 26.6 0
    endloop
  endfacet
  facet normal -1 0 0
    outer loop
      vertex 0 -5 0
      vertex 0 -4.2 0.4
      vertex 0 -4.2 0
    endloop
  endfacet
  facet normal -1 -0 0
    outer loop
      vertex 0 -4.2 0.4
      vertex 0 -5 0
      vertex 0 -5 0.4
    endloop
  endfacet
  facet normal 0 0 1
    outer loop
      vertex 200 -4.2 0.4
      vertex 6 -5 0.4
      vertex 200 -5 0.4
    endloop
  endfacet
  facet normal 0 0 1
    outer loop
      vertex 6 -5 0.4
      vertex 4 -5 0.4
      vertex 6 -5.8 0.4
    endloop
  endfacet
  facet normal -0 0 1
    outer loop
      vertex 0 -4.2 0.4
      vertex 6 -5 0.4
      vertex 200 -4.2 0.4
    endloop
  endfacet
  facet normal 0 0 1
    outer loop
      vertex 6 -5 0.4
      vertex 0 -4.2 0.4
      vertex 4 -5 0.4
    endloop
  endfacet
  facet normal 0 0 1
    outer loop
      vertex 3 -5 0.4
      vertex 1 -5 0.4
      vertex 3 -5.8 0.4
    endloop
  endfacet
  facet normal 0 0 1
    outer loop
      vertex 4 -5 0.4
      vertex 0 -4.2 0.4
      vertex 3 -5 0.4
    endloop
  endfacet
  facet normal 0 0 1
    outer loop
      vertex 3 -5 0.4
      vertex 0 -4.2 0.4
      vertex 1 -5 0.4
    endloop
  endfacet
  facet normal 0 0 1
    outer loop
      vertex 1 -5 0.4
      vertex 0 -4.2 0.4
      vertex 0 -5 0.4
    endloop
  endfacet
  facet normal 0 0 1
    outer loop
      vertex 6 -5.8 0.4
      vertex 4 -5 0.4
      vertex 4 -5.8 0.4
    endloop
  endfacet
  facet normal 0 0 1
    outer loop
      vertex 3 -5.8 0.4
      vertex 1 -5 0.4
      vertex 1 -5.8 0.4
    endloop
  endfacet
  facet normal 1 -0 0
    outer loop
      vertex 200 -5 0.4
      vertex 200 -4.2 0
      vertex 200 -4.2 0.4
    endloop
  endfacet
  facet normal 1 0 0
    outer loop
      vertex 200 -4.2 0
      vertex 200 -5 0.4
      vertex 200 -5 0
    endloop
  endfacet
  facet normal 0 0 -1
    outer loop
      vertex 3 -5.8 0
      vertex 1 -5.8 0
      vertex 3 -5 0
    endloop
  endfacet
  facet normal 0 0 -1
    outer loop
      vertex 6 -5.8 0
      vertex 4 -5.8 0
      vertex 6 -5 0
    endloop
  endfacet
  facet normal 0 0 -1
    outer loop
      vertex 6 -5 0
      vertex 200 -4.2 0
      vertex 200 -5 0
    endloop
  endfacet
  facet normal 0 0 -1
    outer loop
      vertex 4 -5 0
      vertex 6 -5 0
      vertex 4 -5.8 0
    endloop
  endfacet
  facet normal 0 0 -1
    outer loop
      vertex 0 -4.2 0
      vertex 6 -5 0
      vertex 4 -5 0
    endloop
  endfacet
  facet normal 0 0 -1
    outer loop
      vertex 0 -4.2 0
      vertex 4 -5 0
      vertex 3 -5 0
    endloop
  endfacet
  facet normal 0 0 -1
    outer loop
      vertex 1 -5 0
      vertex 3 -5 0
      vertex 1 -5.8 0
    endloop
  endfacet
  facet normal 0 0 -1
    outer loop
      vertex 0 -4.2 0
      vertex 3 -5 0
      vertex 1 -5 0
    endloop
  endfacet
  facet normal 0 0 -1
    outer loop
      vertex 0 -4.2 0
      vertex 1 -5 0
      vertex 0 -5 0
    endloop
  endfacet
  facet normal 0 0 -1
    outer loop
      vertex 6 -5 0
      vertex 0 -4.2 0
      vertex 200 -4.2 0
    endloop
  endfacet
  facet normal 0 -1 0
    outer loop
      vertex 6 -5 0
      vertex 200 -5 0.4
      vertex 6 -5 0.4
    endloop
  endfacet
  facet normal 0 -1 -0
    outer loop
      vertex 200 -5 0.4
      vertex 6 -5 0
      vertex 200 -5 0
    endloop
  endfacet
  facet normal 0 -1 0
    outer loop
      vertex 3 -5 0
      vertex 4 -5 0.4
      vertex 3 -5 0.4
    endloop
  endfacet
  facet normal 0 -1 -0
    outer loop
      vertex 4 -5 0.4
      vertex 3 -5 0
      vertex 4 -5 0
    endloop
  endfacet
  facet normal 0 -1 0
    outer loop
      vertex 0 -5 0
      vertex 1 -5 0.4
      vertex 0 -5 0.4
    endloop
  endfacet
  facet normal 0 -1 -0
    outer loop
      vertex 1 -5 0.4
      vertex 0 -5 0
      vertex 1 -5 0
    endloop
  endfacet
  facet normal 0 1 -0
    outer loop
      vertex 200 -4.2 0
      vertex 0 -4.2 0.4
      vertex 200 -4.2 0.4
    endloop
  endfacet
  facet normal 0 1 0
    outer loop
      vertex 0 -4.2 0.4
      vertex 200 -4.2 0
      vertex 0 -4.2 0
    endloop
  endfacet
  facet normal -1 0 0
    outer loop
      vertex 1 -5.8 0
      vertex 1 -5 0.4
      vertex 1 -5 0
    endloop
  endfacet
  facet normal -1 -0 0
    outer loop
      vertex 1 -5 0.4
      vertex 1 -5.8 0
      vertex 1 -5.8 0.4
    endloop
  endfacet
  facet normal 1 -0 0
    outer loop
      vertex 3 -5.8 0.4
      vertex 3 -5 0
      vertex 3 -5 0.4
    endloop
  endfacet
  facet normal 1 0 0
    outer loop
      vertex 3 -5 0
      vertex 3 -5.8 0.4
      vertex 3 -5.8 0
    endloop
  endfacet
  facet normal 0 -1 0
    outer loop
      vertex 1 -5.8 0
      vertex 3 -5.8 0.4
      vertex 1 -5.8 0.4
    endloop
  endfacet
  facet normal 0 -1 -0
    outer loop
      vertex 3 -5.8 0.4
      vertex 1 -5.8 0
      vertex 3 -5.8 0
    endloop
  endfacet
  facet normal -1 0 0
    outer loop
      vertex 4 -5.8 0
      vertex 4 -5 0.4
      vertex 4 -5 0
    endloop
  endfacet
  facet normal -1 -0 0
    outer loop
      vertex 4 -5 0.4
      vertex 4 -5.8 0
      vertex 4 -5.8 0.4
    endloop
  endfacet
  facet normal 1 -0 0
    outer loop
      vertex 6 -5.8 0.4
      vertex 6 -5 0
      vertex 6 -5 0.4
    endloop
  endfacet
  facet normal 1 0 0
    outer loop
      vertex 6 -5 0
      vertex 6 -5.8 0.4
      vertex 6 -5.8 0
    endloop
  endfacet
  facet normal 0 -1 0
    outer loop
      vertex 4 -5.8 0
      vertex 6 -5.8 0.4
      vertex 4 -5.8 0.4
    endloop
  endfacet
  facet normal 0 -1 -0
    outer loop
      vertex 6 -5.8 0.4
      vertex 4 -5.8 0
      vertex 6 -5.8 0
    endloop
  endfacet
endsolid OpenSCAD_Model
