solid OpenSCAD_Model
  facet normal -1 0 0
    outer loop
      vertex 0 0 0
      vertex 0 4 0.799999
      vertex 0 4 0
    endloop
  endfacet
  facet normal -1 -0 0
    outer loop
      vertex 0 4 0.799999
      vertex 0 0 0
      vertex 0 0 0.799999
    endloop
  endfacet
  facet normal 0 0 1
    outer loop
      vertex 10 4 0.799999
      vertex 8.2 2 0.799999
      vertex 10 0 0.799999
    endloop
  endfacet
  facet normal 0 0 1
    outer loop
      vertex 10 4 0.799999
      vertex 8.03923 2.6 0.799999
      vertex 8.2 2 0.799999
    endloop
  endfacet
  facet normal 0 0 1
    outer loop
      vertex 10 4 0.799999
      vertex 7.6 3.03923 0.799999
      vertex 8.03923 2.6 0.799999
    endloop
  endfacet
  facet normal 0 0 1
    outer loop
      vertex 10 4 0.799999
      vertex 7 3.2 0.799999
      vertex 7.6 3.03923 0.799999
    endloop
  endfacet
  facet normal -0 0 1
    outer loop
      vertex 3.69282 2.4 0.799999
      vertex 5.8 2 0.799999
      vertex 5.96077 2.6 0.799999
    endloop
  endfacet
  facet normal -0 0 1
    outer loop
      vertex 3.4 2.69282 0.799999
      vertex 5.96077 2.6 0.799999
      vertex 6.4 3.03923 0.799999
    endloop
  endfacet
  facet normal 0 0 1
    outer loop
      vertex 5.8 2 0.799999
      vertex 3.69282 2.4 0.799999
      vertex 3.8 2 0.799999
    endloop
  endfacet
  facet normal 0 0 1
    outer loop
      vertex 0 4 0.799999
      vertex 6.4 3.03923 0.799999
      vertex 7 3.2 0.799999
    endloop
  endfacet
  facet normal -0 0 1
    outer loop
      vertex 0 4 0.799999
      vertex 7 3.2 0.799999
      vertex 10 4 0.799999
    endloop
  endfacet
  facet normal 0 0 1
    outer loop
      vertex 5.96077 2.6 0.799999
      vertex 3.4 2.69282 0.799999
      vertex 3.69282 2.4 0.799999
    endloop
  endfacet
  facet normal 0 0 1
    outer loop
      vertex 6.4 3.03923 0.799999
      vertex 3 2.8 0.799999
      vertex 3.4 2.69282 0.799999
    endloop
  endfacet
  facet normal 0 0 1
    outer loop
      vertex 2.30718 2.4 0.799999
      vertex 0 4 0.799999
      vertex 2.2 2 0.799999
    endloop
  endfacet
  facet normal 0 0 1
    outer loop
      vertex 2.6 2.69282 0.799999
      vertex 0 4 0.799999
      vertex 2.30718 2.4 0.799999
    endloop
  endfacet
  facet normal 0 0 1
    outer loop
      vertex 3 2.8 0.799999
      vertex 0 4 0.799999
      vertex 2.6 2.69282 0.799999
    endloop
  endfacet
  facet normal 0 0 1
    outer loop
      vertex 6.4 3.03923 0.799999
      vertex 0 4 0.799999
      vertex 3 2.8 0.799999
    endloop
  endfacet
  facet normal -0 0 1
    outer loop
      vertex 8.03923 1.4 0.799999
      vertex 10 0 0.799999
      vertex 8.2 2 0.799999
    endloop
  endfacet
  facet normal -0 0 1
    outer loop
      vertex 7.6 0.960769 0.799999
      vertex 10 0 0.799999
      vertex 8.03923 1.4 0.799999
    endloop
  endfacet
  facet normal -0 0 1
    outer loop
      vertex 7 0.799999 0.799999
      vertex 10 0 0.799999
      vertex 7.6 0.960769 0.799999
    endloop
  endfacet
  facet normal 0 0 1
    outer loop
      vertex 3.69282 1.6 0.799999
      vertex 5.8 2 0.799999
      vertex 3.8 2 0.799999
    endloop
  endfacet
  facet normal 0 0 1
    outer loop
      vertex 5.8 2 0.799999
      vertex 3.69282 1.6 0.799999
      vertex 5.96077 1.4 0.799999
    endloop
  endfacet
  facet normal 0 0 1
    outer loop
      vertex 3.4 1.30718 0.799999
      vertex 5.96077 1.4 0.799999
      vertex 3.69282 1.6 0.799999
    endloop
  endfacet
  facet normal 0 0 1
    outer loop
      vertex 5.96077 1.4 0.799999
      vertex 3.4 1.30718 0.799999
      vertex 6.4 0.960769 0.799999
    endloop
  endfacet
  facet normal -0 0 1
    outer loop
      vertex 3 1.2 0.799999
      vertex 6.4 0.960769 0.799999
      vertex 3.4 1.30718 0.799999
    endloop
  endfacet
  facet normal 0 0 1
    outer loop
      vertex 0 0 0.799999
      vertex 6.4 0.960769 0.799999
      vertex 3 1.2 0.799999
    endloop
  endfacet
  facet normal 0 0 1
    outer loop
      vertex 6.4 0.960769 0.799999
      vertex 0 0 0.799999
      vertex 7 0.799999 0.799999
    endloop
  endfacet
  facet normal 0 0 1
    outer loop
      vertex 0 0 0.799999
      vertex 2.2 2 0.799999
      vertex 0 4 0.799999
    endloop
  endfacet
  facet normal 0 0 1
    outer loop
      vertex 7 0.799999 0.799999
      vertex 0 0 0.799999
      vertex 10 0 0.799999
    endloop
  endfacet
  facet normal 0 0 1
    outer loop
      vertex 2.6 1.30718 0.799999
      vertex 0 0 0.799999
      vertex 3 1.2 0.799999
    endloop
  endfacet
  facet normal 0 0 1
    outer loop
      vertex 2.30718 1.6 0.799999
      vertex 0 0 0.799999
      vertex 2.6 1.30718 0.799999
    endloop
  endfacet
  facet normal 0 0 1
    outer loop
      vertex 2.2 2 0.799999
      vertex 0 0 0.799999
      vertex 2.30718 1.6 0.799999
    endloop
  endfacet
  facet normal -1 0 0
    outer loop
      vertex 10 4 0.799999
      vertex 10 6 0
      vertex 10 4 0
    endloop
  endfacet
  facet normal -1 0 0
    outer loop
      vertex 10 6 0
      vertex 10 4 0.799999
      vertex 10 6 1.6
    endloop
  endfacet
  facet normal -1 0 0
    outer loop
      vertex 10 0 1.6
      vertex 10 4 0.799999
      vertex 10 0 0.799999
    endloop
  endfacet
  facet normal -1 0 0
    outer loop
      vertex 10 4 0.799999
      vertex 10 0 1.6
      vertex 10 6 1.6
    endloop
  endfacet
  facet normal 0 1 -0
    outer loop
      vertex 10 4 0
      vertex 0 4 0.799999
      vertex 10 4 0.799999
    endloop
  endfacet
  facet normal 0 1 0
    outer loop
      vertex 0 4 0.799999
      vertex 10 4 0
      vertex 0 4 0
    endloop
  endfacet
  facet normal 0 0 -1
    outer loop
      vertex 150 0 0
      vertex 147.7 2 0
      vertex 150 4 0
    endloop
  endfacet
  facet normal 0 0 -1
    outer loop
      vertex 150 0 0
      vertex 147.606 1.65 0
      vertex 147.7 2 0
    endloop
  endfacet
  facet normal 0 0 -1
    outer loop
      vertex 150 0 0
      vertex 147.35 1.39378 0
      vertex 147.606 1.65 0
    endloop
  endfacet
  facet normal 0 0 -1
    outer loop
      vertex 150 0 0
      vertex 147 1.3 0
      vertex 147.35 1.39378 0
    endloop
  endfacet
  facet normal 0 0 -1
    outer loop
      vertex 150 0 0
      vertex 146.65 1.39378 0
      vertex 147 1.3 0
    endloop
  endfacet
  facet normal 0 0 -1
    outer loop
      vertex 139 1 0
      vertex 146.3 2 0
      vertex 146.394 1.65 0
    endloop
  endfacet
  facet normal 0 0 -1
    outer loop
      vertex 139 1 0
      vertex 146.394 1.65 0
      vertex 146.65 1.39378 0
    endloop
  endfacet
  facet normal 0 0 -1
    outer loop
      vertex 139 1 0
      vertex 146.65 1.39378 0
      vertex 150 0 0
    endloop
  endfacet
  facet normal 0 0 -1
    outer loop
      vertex 139 5 0
      vertex 140 4 0
      vertex 139 1 0
    endloop
  endfacet
  facet normal -0 0 -1
    outer loop
      vertex 146.3 2 0
      vertex 139 1 0
      vertex 140 4 0
    endloop
  endfacet
  facet normal 0 0 -1
    outer loop
      vertex 150 0 0
      vertex 127 1 0
      vertex 139 1 0
    endloop
  endfacet
  facet normal 0 0 -1
    outer loop
      vertex 127 1 0
      vertex 126.2 3 0
      vertex 127 5 0
    endloop
  endfacet
  facet normal 0 0 -1
    outer loop
      vertex 127 1 0
      vertex 123.8 3 0
      vertex 126.2 3 0
    endloop
  endfacet
  facet normal 0 0 -1
    outer loop
      vertex 123 5 0
      vertex 123.8 3 0
      vertex 123 1 0
    endloop
  endfacet
  facet normal 0 0 -1
    outer loop
      vertex 127 1 0
      vertex 123 1 0
      vertex 123.8 3 0
    endloop
  endfacet
  facet normal 0 0 -1
    outer loop
      vertex 150 0 0
      vertex 123 1 0
      vertex 127 1 0
    endloop
  endfacet
  facet normal 0 0 -1
    outer loop
      vertex 150 0 0
      vertex 77 1 0
      vertex 123 1 0
    endloop
  endfacet
  facet normal 0 0 -1
    outer loop
      vertex 77 1 0
      vertex 76.2 3 0
      vertex 77 5 0
    endloop
  endfacet
  facet normal 0 0 -1
    outer loop
      vertex 77 1 0
      vertex 73.8 3 0
      vertex 76.2 3 0
    endloop
  endfacet
  facet normal 0 0 -1
    outer loop
      vertex 73 5 0
      vertex 73.8 3 0
      vertex 73 1 0
    endloop
  endfacet
  facet normal 0 0 -1
    outer loop
      vertex 77 1 0
      vertex 73 1 0
      vertex 73.8 3 0
    endloop
  endfacet
  facet normal 0 0 -1
    outer loop
      vertex 150 0 0
      vertex 73 1 0
      vertex 77 1 0
    endloop
  endfacet
  facet normal 0 0 -1
    outer loop
      vertex 0 0 0
      vertex 73 1 0
      vertex 150 0 0
    endloop
  endfacet
  facet normal 0 0 -1
    outer loop
      vertex 27 1 0
      vertex 26.2 3 0
      vertex 27 5 0
    endloop
  endfacet
  facet normal 0 0 -1
    outer loop
      vertex 27 1 0
      vertex 23.8 3 0
      vertex 26.2 3 0
    endloop
  endfacet
  facet normal 0 0 -1
    outer loop
      vertex 23 5 0
      vertex 23.8 3 0
      vertex 23 1 0
    endloop
  endfacet
  facet normal 0 0 -1
    outer loop
      vertex 27 1 0
      vertex 23 1 0
      vertex 23.8 3 0
    endloop
  endfacet
  facet normal -0 0 -1
    outer loop
      vertex 73 1 0
      vertex 0 0 0
      vertex 27 1 0
    endloop
  endfacet
  facet normal -0 0 -1
    outer loop
      vertex 27 1 0
      vertex 0 0 0
      vertex 23 1 0
    endloop
  endfacet
  facet normal 0 0 -1
    outer loop
      vertex 11 1 0
      vertex 10 4 0
      vertex 11 5 0
    endloop
  endfacet
  facet normal 0 0 -1
    outer loop
      vertex 11 1 0
      vertex 7.7 2 0
      vertex 10 4 0
    endloop
  endfacet
  facet normal 0 0 -1
    outer loop
      vertex 11 1 0
      vertex 7.60622 1.65 0
      vertex 7.7 2 0
    endloop
  endfacet
  facet normal 0 0 -1
    outer loop
      vertex 11 1 0
      vertex 7.35 1.39378 0
      vertex 7.60622 1.65 0
    endloop
  endfacet
  facet normal 0 0 -1
    outer loop
      vertex 11 1 0
      vertex 7 1.3 0
      vertex 7.35 1.39378 0
    endloop
  endfacet
  facet normal -0 0 -1
    outer loop
      vertex 6.39378 1.65 0
      vertex 0 0 0
      vertex 6.3 2 0
    endloop
  endfacet
  facet normal -0 0 -1
    outer loop
      vertex 6.65 1.39378 0
      vertex 0 0 0
      vertex 6.39378 1.65 0
    endloop
  endfacet
  facet normal -0 0 -1
    outer loop
      vertex 7 1.3 0
      vertex 0 0 0
      vertex 6.65 1.39378 0
    endloop
  endfacet
  facet normal -0 0 -1
    outer loop
      vertex 11 1 0
      vertex 0 0 0
      vertex 7 1.3 0
    endloop
  endfacet
  facet normal -0 0 -1
    outer loop
      vertex 23 1 0
      vertex 0 0 0
      vertex 11 1 0
    endloop
  endfacet
  facet normal 0 0 -1
    outer loop
      vertex 147.606 2.35 0
      vertex 150 4 0
      vertex 147.7 2 0
    endloop
  endfacet
  facet normal 0 0 -1
    outer loop
      vertex 147.35 2.60622 0
      vertex 150 4 0
      vertex 147.606 2.35 0
    endloop
  endfacet
  facet normal 0 0 -1
    outer loop
      vertex 147 2.7 0
      vertex 150 4 0
      vertex 147.35 2.60622 0
    endloop
  endfacet
  facet normal 0 0 -1
    outer loop
      vertex 140 4 0
      vertex 147 2.7 0
      vertex 146.65 2.60622 0
    endloop
  endfacet
  facet normal 0 0 -1
    outer loop
      vertex 147 2.7 0
      vertex 140 4 0
      vertex 150 4 0
    endloop
  endfacet
  facet normal 0 0 -1
    outer loop
      vertex 146.394 2.35 0
      vertex 140 4 0
      vertex 146.65 2.60622 0
    endloop
  endfacet
  facet normal 0 0 -1
    outer loop
      vertex 140 4 0
      vertex 146.394 2.35 0
      vertex 146.3 2 0
    endloop
  endfacet
  facet normal 0 0 -1
    outer loop
      vertex 140 4 0
      vertex 139 5 0
      vertex 140 6 0
    endloop
  endfacet
  facet normal 0 0 -1
    outer loop
      vertex 126.2 6 0
      vertex 139 5 0
      vertex 127 5 0
    endloop
  endfacet
  facet normal 0 0 -1
    outer loop
      vertex 139 5 0
      vertex 126.2 6 0
      vertex 140 6 0
    endloop
  endfacet
  facet normal 0 0 -1
    outer loop
      vertex 126.2 6 0
      vertex 127 5 0
      vertex 126.2 3 0
    endloop
  endfacet
  facet normal 0 0 -1
    outer loop
      vertex 123.8 3 0
      vertex 123 5 0
      vertex 123.8 6 0
    endloop
  endfacet
  facet normal 0 0 -1
    outer loop
      vertex 77 5 0
      vertex 123.8 6 0
      vertex 123 5 0
    endloop
  endfacet
  facet normal 0 0 -1
    outer loop
      vertex 77 5 0
      vertex 76.2 6 0
      vertex 123.8 6 0
    endloop
  endfacet
  facet normal 0 0 -1
    outer loop
      vertex 76.2 6 0
      vertex 77 5 0
      vertex 76.2 3 0
    endloop
  endfacet
  facet normal 0 0 -1
    outer loop
      vertex 73.8 3 0
      vertex 73 5 0
      vertex 73.8 6 0
    endloop
  endfacet
  facet normal 0 0 -1
    outer loop
      vertex 27 5 0
      vertex 73.8 6 0
      vertex 73 5 0
    endloop
  endfacet
  facet normal 0 0 -1
    outer loop
      vertex 27 5 0
      vertex 26.2 6 0
      vertex 73.8 6 0
    endloop
  endfacet
  facet normal 0 0 -1
    outer loop
      vertex 26.2 6 0
      vertex 27 5 0
      vertex 26.2 3 0
    endloop
  endfacet
  facet normal 0 0 -1
    outer loop
      vertex 23.8 3 0
      vertex 23 5 0
      vertex 23.8 6 0
    endloop
  endfacet
  facet normal 0 0 -1
    outer loop
      vertex 11 5 0
      vertex 23.8 6 0
      vertex 23 5 0
    endloop
  endfacet
  facet normal 0 0 -1
    outer loop
      vertex 11 5 0
      vertex 10 6 0
      vertex 23.8 6 0
    endloop
  endfacet
  facet normal 0 0 -1
    outer loop
      vertex 10 6 0
      vertex 11 5 0
      vertex 10 4 0
    endloop
  endfacet
  facet normal 0 0 -1
    outer loop
      vertex 7.60622 2.35 0
      vertex 10 4 0
      vertex 7.7 2 0
    endloop
  endfacet
  facet normal 0 0 -1
    outer loop
      vertex 7.35 2.60622 0
      vertex 10 4 0
      vertex 7.60622 2.35 0
    endloop
  endfacet
  facet normal 0 0 -1
    outer loop
      vertex 7 2.7 0
      vertex 10 4 0
      vertex 7.35 2.60622 0
    endloop
  endfacet
  facet normal 0 0 -1
    outer loop
      vertex 0 4 0
      vertex 7 2.7 0
      vertex 6.65 2.60622 0
    endloop
  endfacet
  facet normal 0 0 -1
    outer loop
      vertex 0 4 0
      vertex 6.3 2 0
      vertex 0 0 0
    endloop
  endfacet
  facet normal 0 0 -1
    outer loop
      vertex 6.3 2 0
      vertex 0 4 0
      vertex 6.39378 2.35 0
    endloop
  endfacet
  facet normal 0 0 -1
    outer loop
      vertex 6.39378 2.35 0
      vertex 0 4 0
      vertex 6.65 2.60622 0
    endloop
  endfacet
  facet normal 0 0 -1
    outer loop
      vertex 7 2.7 0
      vertex 0 4 0
      vertex 10 4 0
    endloop
  endfacet
  facet normal 0 -1 0
    outer loop
      vertex 0 0 0
      vertex 10 0 0.799999
      vertex 0 0 0.799999
    endloop
  endfacet
  facet normal 0 -1 -0
    outer loop
      vertex 10 0 0.799999
      vertex 0 0 0
      vertex 140 0 0.799999
    endloop
  endfacet
  facet normal 0 -1 0
    outer loop
      vertex 150 0 0
      vertex 140 0 0.799999
      vertex 0 0 0
    endloop
  endfacet
  facet normal 0 -1 0
    outer loop
      vertex 140 0 0.799999
      vertex 150 0 0
      vertex 150 0 0.799999
    endloop
  endfacet
  facet normal 0 -1 0
    outer loop
      vertex 10 0 0.799999
      vertex 140 0 1.6
      vertex 10 0 1.6
    endloop
  endfacet
  facet normal 0 -1 -0
    outer loop
      vertex 140 0 1.6
      vertex 10 0 0.799999
      vertex 140 0 0.799999
    endloop
  endfacet
  facet normal 0.605348 0.605348 0.516824
    outer loop
      vertex 5.96077 1.4 0.799999
      vertex 6.65 1.39378 0
      vertex 6.39378 1.65 0
    endloop
  endfacet
  facet normal 0.605349 0.605347 0.516825
    outer loop
      vertex 6.65 1.39378 0
      vertex 5.96077 1.4 0.799999
      vertex 6.4 0.960769 0.799999
    endloop
  endfacet
  facet normal -0.826923 0.221568 0.516823
    outer loop
      vertex 8.03923 1.4 0.799999
      vertex 7.7 2 0
      vertex 7.60622 1.65 0
    endloop
  endfacet
  facet normal -0.82692 -0.221573 0.516826
    outer loop
      vertex 8.2 2 0.799999
      vertex 8.03923 2.6 0.799999
      vertex 7.7 2 0
    endloop
  endfacet
  facet normal -0.826923 -0.221568 0.516823
    outer loop
      vertex 7.7 2 0
      vertex 8.03923 2.6 0.799999
      vertex 7.60622 2.35 0
    endloop
  endfacet
  facet normal 0.826923 0.221568 0.516823
    outer loop
      vertex 6.39378 1.65 0
      vertex 6.3 2 0
      vertex 5.96077 1.4 0.799999
    endloop
  endfacet
  facet normal 0.221568 0.826922 0.516824
    outer loop
      vertex 7 1.3 0
      vertex 6.65 1.39378 0
      vertex 6.4 0.960769 0.799999
    endloop
  endfacet
  facet normal -0.82692 0.221573 0.516826
    outer loop
      vertex 8.03923 1.4 0.799999
      vertex 8.2 2 0.799999
      vertex 7.7 2 0
    endloop
  endfacet
  facet normal 0.221573 0.82692 0.516826
    outer loop
      vertex 7 0.799999 0.799999
      vertex 7 1.3 0
      vertex 6.4 0.960769 0.799999
    endloop
  endfacet
  facet normal 0.221568 -0.826923 0.516823
    outer loop
      vertex 6.65 2.60622 0
      vertex 7 2.7 0
      vertex 6.4 3.03923 0.799999
    endloop
  endfacet
  facet normal 0.221573 -0.82692 0.516826
    outer loop
      vertex 7 2.7 0
      vertex 7 3.2 0.799999
      vertex 6.4 3.03923 0.799999
    endloop
  endfacet
  facet normal -0.605348 0.605348 0.516824
    outer loop
      vertex 7.35 1.39378 0
      vertex 8.03923 1.4 0.799999
      vertex 7.60622 1.65 0
    endloop
  endfacet
  facet normal -0.605349 0.605347 0.516825
    outer loop
      vertex 8.03923 1.4 0.799999
      vertex 7.35 1.39378 0
      vertex 7.6 0.960769 0.799999
    endloop
  endfacet
  facet normal -0.221568 0.826922 0.516824
    outer loop
      vertex 7.6 0.960769 0.799999
      vertex 7.35 1.39378 0
      vertex 7 1.3 0
    endloop
  endfacet
  facet normal -0.221573 0.82692 0.516826
    outer loop
      vertex 7.6 0.960769 0.799999
      vertex 7 1.3 0
      vertex 7 0.799999 0.799999
    endloop
  endfacet
  facet normal -0.221573 -0.82692 0.516826
    outer loop
      vertex 7.6 3.03923 0.799999
      vertex 7 3.2 0.799999
      vertex 7 2.7 0
    endloop
  endfacet
  facet normal 0.82692 -0.221573 0.516826
    outer loop
      vertex 6.3 2 0
      vertex 5.96077 2.6 0.799999
      vertex 5.8 2 0.799999
    endloop
  endfacet
  facet normal 0.82692 0.221573 0.516826
    outer loop
      vertex 5.96077 1.4 0.799999
      vertex 6.3 2 0
      vertex 5.8 2 0.799999
    endloop
  endfacet
  facet normal 0.826923 -0.221568 0.516823
    outer loop
      vertex 6.3 2 0
      vertex 6.39378 2.35 0
      vertex 5.96077 2.6 0.799999
    endloop
  endfacet
  facet normal -0.221568 -0.826923 0.516823
    outer loop
      vertex 7.35 2.60622 0
      vertex 7.6 3.03923 0.799999
      vertex 7 2.7 0
    endloop
  endfacet
  facet normal -0.605348 -0.605348 0.516824
    outer loop
      vertex 7.35 2.60622 0
      vertex 8.03923 2.6 0.799999
      vertex 7.6 3.03923 0.799999
    endloop
  endfacet
  facet normal -0.605348 -0.605348 0.516824
    outer loop
      vertex 8.03923 2.6 0.799999
      vertex 7.35 2.60622 0
      vertex 7.60622 2.35 0
    endloop
  endfacet
  facet normal 0.605348 -0.605348 0.516824
    outer loop
      vertex 5.96077 2.6 0.799999
      vertex 6.65 2.60622 0
      vertex 6.4 3.03923 0.799999
    endloop
  endfacet
  facet normal 0.605348 -0.605348 0.516824
    outer loop
      vertex 6.65 2.60622 0
      vertex 5.96077 2.6 0.799999
      vertex 6.39378 2.35 0
    endloop
  endfacet
  facet normal 0.826923 0.22156 0.516826
    outer loop
      vertex 3.8 2 0.799999
      vertex 3.25981 2.15 1.6
      vertex 3.3 2 1.6
    endloop
  endfacet
  facet normal 0.826922 0.221574 0.516823
    outer loop
      vertex 3.69282 2.4 0.799999
      vertex 3.25981 2.15 1.6
      vertex 3.8 2 0.799999
    endloop
  endfacet
  facet normal 0.22156 -0.826923 0.516826
    outer loop
      vertex 3 1.7 1.6
      vertex 3 1.2 0.799999
      vertex 3.15 1.74019 1.6
    endloop
  endfacet
  facet normal 0.605349 -0.605349 0.516823
    outer loop
      vertex 3.15 1.74019 1.6
      vertex 3.69282 1.6 0.799999
      vertex 3.25981 1.85 1.6
    endloop
  endfacet
  facet normal 0.605349 -0.605349 0.516823
    outer loop
      vertex 3.69282 1.6 0.799999
      vertex 3.15 1.74019 1.6
      vertex 3.4 1.30718 0.799999
    endloop
  endfacet
  facet normal 0.605349 0.605349 0.516823
    outer loop
      vertex 3.15 2.25981 1.6
      vertex 3.69282 2.4 0.799999
      vertex 3.4 2.69282 0.799999
    endloop
  endfacet
  facet normal 0.605349 0.605349 0.516823
    outer loop
      vertex 3.69282 2.4 0.799999
      vertex 3.15 2.25981 1.6
      vertex 3.25981 2.15 1.6
    endloop
  endfacet
  facet normal -0.221574 0.826922 0.516823
    outer loop
      vertex 3 2.8 0.799999
      vertex 2.6 2.69282 0.799999
      vertex 2.85 2.25981 1.6
    endloop
  endfacet
  facet normal 0.221574 -0.826922 0.516823
    outer loop
      vertex 3.15 1.74019 1.6
      vertex 3 1.2 0.799999
      vertex 3.4 1.30718 0.799999
    endloop
  endfacet
  facet normal 0.221574 0.826922 0.516823
    outer loop
      vertex 3.4 2.69282 0.799999
      vertex 3 2.8 0.799999
      vertex 3.15 2.25981 1.6
    endloop
  endfacet
  facet normal 0 0 1
    outer loop
      vertex 3.25981 2.15 1.6
      vertex 3.25981 1.85 1.6
      vertex 3.3 2 1.6
    endloop
  endfacet
  facet normal 0 0 1
    outer loop
      vertex 3.15 2.25981 1.6
      vertex 3.25981 1.85 1.6
      vertex 3.25981 2.15 1.6
    endloop
  endfacet
  facet normal 0 0 1
    outer loop
      vertex 3.15 2.25981 1.6
      vertex 3.15 1.74019 1.6
      vertex 3.25981 1.85 1.6
    endloop
  endfacet
  facet normal 0 0 1
    outer loop
      vertex 3 2.3 1.6
      vertex 3.15 1.74019 1.6
      vertex 3.15 2.25981 1.6
    endloop
  endfacet
  facet normal 0 0 1
    outer loop
      vertex 3 2.3 1.6
      vertex 3 1.7 1.6
      vertex 3.15 1.74019 1.6
    endloop
  endfacet
  facet normal -0 0 1
    outer loop
      vertex 2.85 2.25981 1.6
      vertex 3 1.7 1.6
      vertex 3 2.3 1.6
    endloop
  endfacet
  facet normal 0 0 1
    outer loop
      vertex 2.85 2.25981 1.6
      vertex 2.85 1.74019 1.6
      vertex 3 1.7 1.6
    endloop
  endfacet
  facet normal -0 0 1
    outer loop
      vertex 2.74019 2.15 1.6
      vertex 2.85 1.74019 1.6
      vertex 2.85 2.25981 1.6
    endloop
  endfacet
  facet normal 0 0 1
    outer loop
      vertex 2.74019 2.15 1.6
      vertex 2.74019 1.85 1.6
      vertex 2.85 1.74019 1.6
    endloop
  endfacet
  facet normal 0 -0 1
    outer loop
      vertex 2.74019 1.85 1.6
      vertex 2.74019 2.15 1.6
      vertex 2.7 2 1.6
    endloop
  endfacet
  facet normal -0.605349 0.605349 0.516823
    outer loop
      vertex 2.30718 2.4 0.799999
      vertex 2.85 2.25981 1.6
      vertex 2.6 2.69282 0.799999
    endloop
  endfacet
  facet normal -0.605349 0.605349 0.516823
    outer loop
      vertex 2.85 2.25981 1.6
      vertex 2.30718 2.4 0.799999
      vertex 2.74019 2.15 1.6
    endloop
  endfacet
  facet normal -0.221574 -0.826922 0.516823
    outer loop
      vertex 2.85 1.74019 1.6
      vertex 2.6 1.30718 0.799999
      vertex 3 1.2 0.799999
    endloop
  endfacet
  facet normal 0.826922 -0.221574 0.516823
    outer loop
      vertex 3.8 2 0.799999
      vertex 3.25981 1.85 1.6
      vertex 3.69282 1.6 0.799999
    endloop
  endfacet
  facet normal 0.826923 -0.22156 0.516826
    outer loop
      vertex 3.3 2 1.6
      vertex 3.25981 1.85 1.6
      vertex 3.8 2 0.799999
    endloop
  endfacet
  facet normal 0.22156 0.826923 0.516826
    outer loop
      vertex 3 2.8 0.799999
      vertex 3 2.3 1.6
      vertex 3.15 2.25981 1.6
    endloop
  endfacet
  facet normal -0.605349 -0.605349 0.516823
    outer loop
      vertex 2.30718 1.6 0.799999
      vertex 2.85 1.74019 1.6
      vertex 2.74019 1.85 1.6
    endloop
  endfacet
  facet normal -0.605349 -0.605349 0.516823
    outer loop
      vertex 2.85 1.74019 1.6
      vertex 2.30718 1.6 0.799999
      vertex 2.6 1.30718 0.799999
    endloop
  endfacet
  facet normal -0.826923 0.22156 0.516826
    outer loop
      vertex 2.74019 2.15 1.6
      vertex 2.2 2 0.799999
      vertex 2.7 2 1.6
    endloop
  endfacet
  facet normal -0.22156 -0.826923 0.516826
    outer loop
      vertex 3 1.7 1.6
      vertex 2.85 1.74019 1.6
      vertex 3 1.2 0.799999
    endloop
  endfacet
  facet normal -0.22156 0.826923 0.516826
    outer loop
      vertex 3 2.8 0.799999
      vertex 2.85 2.25981 1.6
      vertex 3 2.3 1.6
    endloop
  endfacet
  facet normal -0.826922 0.221574 0.516823
    outer loop
      vertex 2.30718 2.4 0.799999
      vertex 2.2 2 0.799999
      vertex 2.74019 2.15 1.6
    endloop
  endfacet
  facet normal -0.826922 -0.221574 0.516823
    outer loop
      vertex 2.74019 1.85 1.6
      vertex 2.2 2 0.799999
      vertex 2.30718 1.6 0.799999
    endloop
  endfacet
  facet normal -0.826923 -0.22156 0.516826
    outer loop
      vertex 2.7 2 1.6
      vertex 2.2 2 0.799999
      vertex 2.74019 1.85 1.6
    endloop
  endfacet
  facet normal 1 -0 0
    outer loop
      vertex 23.8 3 1.6
      vertex 23.8 6 0
      vertex 23.8 6 1.6
    endloop
  endfacet
  facet normal 1 0 0
    outer loop
      vertex 23.8 6 0
      vertex 23.8 3 1.6
      vertex 23.8 3 0
    endloop
  endfacet
  facet normal -1 0 0
    outer loop
      vertex 26.2 3 0
      vertex 26.2 6 1.6
      vertex 26.2 6 0
    endloop
  endfacet
  facet normal -1 -0 0
    outer loop
      vertex 26.2 6 1.6
      vertex 26.2 3 0
      vertex 26.2 3 1.6
    endloop
  endfacet
  facet normal 0 1 -0
    outer loop
      vertex 26.2 3 0
      vertex 23.8 3 1.6
      vertex 26.2 3 1.6
    endloop
  endfacet
  facet normal 0 1 0
    outer loop
      vertex 23.8 3 1.6
      vertex 26.2 3 0
      vertex 23.8 3 0
    endloop
  endfacet
  facet normal 1 -0 0
    outer loop
      vertex 73.8 3 1.6
      vertex 73.8 6 0
      vertex 73.8 6 1.6
    endloop
  endfacet
  facet normal 1 0 0
    outer loop
      vertex 73.8 6 0
      vertex 73.8 3 1.6
      vertex 73.8 3 0
    endloop
  endfacet
  facet normal -1 0 0
    outer loop
      vertex 76.2 3 0
      vertex 76.2 6 1.6
      vertex 76.2 6 0
    endloop
  endfacet
  facet normal -1 -0 0
    outer loop
      vertex 76.2 6 1.6
      vertex 76.2 3 0
      vertex 76.2 3 1.6
    endloop
  endfacet
  facet normal 0 1 -0
    outer loop
      vertex 76.2 3 0
      vertex 73.8 3 1.6
      vertex 76.2 3 1.6
    endloop
  endfacet
  facet normal 0 1 0
    outer loop
      vertex 73.8 3 1.6
      vertex 76.2 3 0
      vertex 73.8 3 0
    endloop
  endfacet
  facet normal 1 -0 0
    outer loop
      vertex 123.8 3 1.6
      vertex 123.8 6 0
      vertex 123.8 6 1.6
    endloop
  endfacet
  facet normal 1 0 0
    outer loop
      vertex 123.8 6 0
      vertex 123.8 3 1.6
      vertex 123.8 3 0
    endloop
  endfacet
  facet normal -1 0 0
    outer loop
      vertex 126.2 3 0
      vertex 126.2 6 1.6
      vertex 126.2 6 0
    endloop
  endfacet
  facet normal -1 -0 0
    outer loop
      vertex 126.2 6 1.6
      vertex 126.2 3 0
      vertex 126.2 3 1.6
    endloop
  endfacet
  facet normal 0 1 -0
    outer loop
      vertex 126.2 3 0
      vertex 123.8 3 1.6
      vertex 126.2 3 1.6
    endloop
  endfacet
  facet normal 0 1 0
    outer loop
      vertex 123.8 3 1.6
      vertex 126.2 3 0
      vertex 123.8 3 0
    endloop
  endfacet
  facet normal 1 -0 0
    outer loop
      vertex 27 1 1.6
      vertex 27 5 0
      vertex 27 5 1.6
    endloop
  endfacet
  facet normal 1 0 0
    outer loop
      vertex 27 5 0
      vertex 27 1 1.6
      vertex 27 1 0
    endloop
  endfacet
  facet normal -1 0 0
    outer loop
      vertex 73 1 0
      vertex 73 5 1.6
      vertex 73 5 0
    endloop
  endfacet
  facet normal -1 -0 0
    outer loop
      vertex 73 5 1.6
      vertex 73 1 0
      vertex 73 1 1.6
    endloop
  endfacet
  facet normal 0 1 -0
    outer loop
      vertex 73 1 0
      vertex 27 1 1.6
      vertex 73 1 1.6
    endloop
  endfacet
  facet normal 0 1 0
    outer loop
      vertex 27 1 1.6
      vertex 73 1 0
      vertex 27 1 0
    endloop
  endfacet
  facet normal 0 -1 0
    outer loop
      vertex 27 5 0
      vertex 73 5 1.6
      vertex 27 5 1.6
    endloop
  endfacet
  facet normal 0 -1 -0
    outer loop
      vertex 73 5 1.6
      vertex 27 5 0
      vertex 73 5 0
    endloop
  endfacet
  facet normal 1 -0 0
    outer loop
      vertex 77 1 1.6
      vertex 77 5 0
      vertex 77 5 1.6
    endloop
  endfacet
  facet normal 1 0 0
    outer loop
      vertex 77 5 0
      vertex 77 1 1.6
      vertex 77 1 0
    endloop
  endfacet
  facet normal -1 0 0
    outer loop
      vertex 123 1 0
      vertex 123 5 1.6
      vertex 123 5 0
    endloop
  endfacet
  facet normal -1 -0 0
    outer loop
      vertex 123 5 1.6
      vertex 123 1 0
      vertex 123 1 1.6
    endloop
  endfacet
  facet normal 0 -1 0
    outer loop
      vertex 77 5 0
      vertex 123 5 1.6
      vertex 77 5 1.6
    endloop
  endfacet
  facet normal 0 -1 -0
    outer loop
      vertex 123 5 1.6
      vertex 77 5 0
      vertex 123 5 0
    endloop
  endfacet
  facet normal 0 1 -0
    outer loop
      vertex 123 1 0
      vertex 77 1 1.6
      vertex 123 1 1.6
    endloop
  endfacet
  facet normal 0 1 0
    outer loop
      vertex 77 1 1.6
      vertex 123 1 0
      vertex 77 1 0
    endloop
  endfacet
  facet normal 0 0 1
    outer loop
      vertex 23.8 6 1.6
      vertex 23 5 1.6
      vertex 23.8 3 1.6
    endloop
  endfacet
  facet normal 0 0 1
    outer loop
      vertex 23.8 6 1.6
      vertex 11 5 1.6
      vertex 23 5 1.6
    endloop
  endfacet
  facet normal 0 0 1
    outer loop
      vertex 11 5 1.6
      vertex 10 6 1.6
      vertex 11 1 1.6
    endloop
  endfacet
  facet normal -0 0 1
    outer loop
      vertex 10 6 1.6
      vertex 11 5 1.6
      vertex 23.8 6 1.6
    endloop
  endfacet
  facet normal 0 0 1
    outer loop
      vertex 73.8 6 1.6
      vertex 73 5 1.6
      vertex 73.8 3 1.6
    endloop
  endfacet
  facet normal 0 0 1
    outer loop
      vertex 73.8 6 1.6
      vertex 27 5 1.6
      vertex 73 5 1.6
    endloop
  endfacet
  facet normal 0 0 1
    outer loop
      vertex 26.2 3 1.6
      vertex 27 5 1.6
      vertex 26.2 6 1.6
    endloop
  endfacet
  facet normal -0 0 1
    outer loop
      vertex 26.2 6 1.6
      vertex 27 5 1.6
      vertex 73.8 6 1.6
    endloop
  endfacet
  facet normal 0 0 1
    outer loop
      vertex 123.8 6 1.6
      vertex 123 5 1.6
      vertex 123.8 3 1.6
    endloop
  endfacet
  facet normal 0 0 1
    outer loop
      vertex 123.8 6 1.6
      vertex 77 5 1.6
      vertex 123 5 1.6
    endloop
  endfacet
  facet normal 0 0 1
    outer loop
      vertex 76.2 3 1.6
      vertex 77 5 1.6
      vertex 76.2 6 1.6
    endloop
  endfacet
  facet normal -0 0 1
    outer loop
      vertex 76.2 6 1.6
      vertex 77 5 1.6
      vertex 123.8 6 1.6
    endloop
  endfacet
  facet normal 0 0 1
    outer loop
      vertex 140 6 1.6
      vertex 139 5 1.6
      vertex 140 0 1.6
    endloop
  endfacet
  facet normal -0 0 1
    outer loop
      vertex 126.2 6 1.6
      vertex 139 5 1.6
      vertex 140 6 1.6
    endloop
  endfacet
  facet normal 0 0 1
    outer loop
      vertex 126.2 3 1.6
      vertex 127 5 1.6
      vertex 126.2 6 1.6
    endloop
  endfacet
  facet normal 0 0 1
    outer loop
      vertex 139 5 1.6
      vertex 126.2 6 1.6
      vertex 127 5 1.6
    endloop
  endfacet
  facet normal -0 0 1
    outer loop
      vertex 139 1 1.6
      vertex 140 0 1.6
      vertex 139 5 1.6
    endloop
  endfacet
  facet normal -0 0 1
    outer loop
      vertex 127 1 1.6
      vertex 140 0 1.6
      vertex 139 1 1.6
    endloop
  endfacet
  facet normal 0 0 1
    outer loop
      vertex 127 5 1.6
      vertex 126.2 3 1.6
      vertex 127 1 1.6
    endloop
  endfacet
  facet normal -0 0 1
    outer loop
      vertex 123.8 3 1.6
      vertex 127 1 1.6
      vertex 126.2 3 1.6
    endloop
  endfacet
  facet normal 0 0 1
    outer loop
      vertex 123 1 1.6
      vertex 123.8 3 1.6
      vertex 123 5 1.6
    endloop
  endfacet
  facet normal 0 0 1
    outer loop
      vertex 123 1 1.6
      vertex 127 1 1.6
      vertex 123.8 3 1.6
    endloop
  endfacet
  facet normal -0 0 1
    outer loop
      vertex 123 1 1.6
      vertex 140 0 1.6
      vertex 127 1 1.6
    endloop
  endfacet
  facet normal -0 0 1
    outer loop
      vertex 77 1 1.6
      vertex 140 0 1.6
      vertex 123 1 1.6
    endloop
  endfacet
  facet normal 0 0 1
    outer loop
      vertex 77 5 1.6
      vertex 76.2 3 1.6
      vertex 77 1 1.6
    endloop
  endfacet
  facet normal -0 0 1
    outer loop
      vertex 73.8 3 1.6
      vertex 77 1 1.6
      vertex 76.2 3 1.6
    endloop
  endfacet
  facet normal 0 0 1
    outer loop
      vertex 73 1 1.6
      vertex 73.8 3 1.6
      vertex 73 5 1.6
    endloop
  endfacet
  facet normal 0 0 1
    outer loop
      vertex 73 1 1.6
      vertex 77 1 1.6
      vertex 73.8 3 1.6
    endloop
  endfacet
  facet normal -0 0 1
    outer loop
      vertex 73 1 1.6
      vertex 140 0 1.6
      vertex 77 1 1.6
    endloop
  endfacet
  facet normal 0 0 1
    outer loop
      vertex 10 0 1.6
      vertex 73 1 1.6
      vertex 27 1 1.6
    endloop
  endfacet
  facet normal 0 0 1
    outer loop
      vertex 27 5 1.6
      vertex 26.2 3 1.6
      vertex 27 1 1.6
    endloop
  endfacet
  facet normal -0 0 1
    outer loop
      vertex 23.8 3 1.6
      vertex 27 1 1.6
      vertex 26.2 3 1.6
    endloop
  endfacet
  facet normal 0 0 1
    outer loop
      vertex 23 1 1.6
      vertex 23.8 3 1.6
      vertex 23 5 1.6
    endloop
  endfacet
  facet normal 0 0 1
    outer loop
      vertex 23 1 1.6
      vertex 27 1 1.6
      vertex 23.8 3 1.6
    endloop
  endfacet
  facet normal 0 0 1
    outer loop
      vertex 10 0 1.6
      vertex 27 1 1.6
      vertex 23 1 1.6
    endloop
  endfacet
  facet normal 0 0 1
    outer loop
      vertex 10 0 1.6
      vertex 23 1 1.6
      vertex 11 1 1.6
    endloop
  endfacet
  facet normal 0 0 1
    outer loop
      vertex 73 1 1.6
      vertex 10 0 1.6
      vertex 140 0 1.6
    endloop
  endfacet
  facet normal 0 0 1
    outer loop
      vertex 10 0 1.6
      vertex 11 1 1.6
      vertex 10 6 1.6
    endloop
  endfacet
  facet normal 1 0 0
    outer loop
      vertex 140 6 1.6
      vertex 140 4 0.799999
      vertex 140 6 0
    endloop
  endfacet
  facet normal 1 -0 0
    outer loop
      vertex 140 0 1.6
      vertex 140 4 0.799999
      vertex 140 6 1.6
    endloop
  endfacet
  facet normal 1 0 0
    outer loop
      vertex 140 4 0.799999
      vertex 140 0 1.6
      vertex 140 0 0.799999
    endloop
  endfacet
  facet normal 1 0 0
    outer loop
      vertex 140 6 0
      vertex 140 4 0.799999
      vertex 140 4 0
    endloop
  endfacet
  facet normal 0 1 -0
    outer loop
      vertex 140 6 0
      vertex 126.2 6 1.6
      vertex 140 6 1.6
    endloop
  endfacet
  facet normal 0 1 0
    outer loop
      vertex 126.2 6 1.6
      vertex 140 6 0
      vertex 126.2 6 0
    endloop
  endfacet
  facet normal 0 1 -0
    outer loop
      vertex 23.8 6 0
      vertex 10 6 1.6
      vertex 23.8 6 1.6
    endloop
  endfacet
  facet normal 0 1 0
    outer loop
      vertex 10 6 1.6
      vertex 23.8 6 0
      vertex 10 6 0
    endloop
  endfacet
  facet normal 0 1 -0
    outer loop
      vertex 73.8 6 0
      vertex 26.2 6 1.6
      vertex 73.8 6 1.6
    endloop
  endfacet
  facet normal 0 1 0
    outer loop
      vertex 26.2 6 1.6
      vertex 73.8 6 0
      vertex 26.2 6 0
    endloop
  endfacet
  facet normal 0 1 -0
    outer loop
      vertex 123.8 6 0
      vertex 76.2 6 1.6
      vertex 123.8 6 1.6
    endloop
  endfacet
  facet normal 0 1 0
    outer loop
      vertex 76.2 6 1.6
      vertex 123.8 6 0
      vertex 76.2 6 0
    endloop
  endfacet
  facet normal 1 -0 0
    outer loop
      vertex 11 1 1.6
      vertex 11 5 0
      vertex 11 5 1.6
    endloop
  endfacet
  facet normal 1 0 0
    outer loop
      vertex 11 5 0
      vertex 11 1 1.6
      vertex 11 1 0
    endloop
  endfacet
  facet normal -1 0 0
    outer loop
      vertex 23 1 0
      vertex 23 5 1.6
      vertex 23 5 0
    endloop
  endfacet
  facet normal -1 -0 0
    outer loop
      vertex 23 5 1.6
      vertex 23 1 0
      vertex 23 1 1.6
    endloop
  endfacet
  facet normal 0 1 -0
    outer loop
      vertex 23 1 0
      vertex 11 1 1.6
      vertex 23 1 1.6
    endloop
  endfacet
  facet normal 0 1 0
    outer loop
      vertex 11 1 1.6
      vertex 23 1 0
      vertex 11 1 0
    endloop
  endfacet
  facet normal 0 -1 0
    outer loop
      vertex 11 5 0
      vertex 23 5 1.6
      vertex 11 5 1.6
    endloop
  endfacet
  facet normal 0 -1 -0
    outer loop
      vertex 23 5 1.6
      vertex 11 5 0
      vertex 23 5 0
    endloop
  endfacet
  facet normal 1 -0 0
    outer loop
      vertex 127 1 1.6
      vertex 127 5 0
      vertex 127 5 1.6
    endloop
  endfacet
  facet normal 1 0 0
    outer loop
      vertex 127 5 0
      vertex 127 1 1.6
      vertex 127 1 0
    endloop
  endfacet
  facet normal -1 0 0
    outer loop
      vertex 139 1 0
      vertex 139 5 1.6
      vertex 139 5 0
    endloop
  endfacet
  facet normal -1 -0 0
    outer loop
      vertex 139 5 1.6
      vertex 139 1 0
      vertex 139 1 1.6
    endloop
  endfacet
  facet normal 0 -1 0
    outer loop
      vertex 127 5 0
      vertex 139 5 1.6
      vertex 127 5 1.6
    endloop
  endfacet
  facet normal 0 -1 -0
    outer loop
      vertex 139 5 1.6
      vertex 127 5 0
      vertex 139 5 0
    endloop
  endfacet
  facet normal 0 1 -0
    outer loop
      vertex 139 1 0
      vertex 127 1 1.6
      vertex 139 1 1.6
    endloop
  endfacet
  facet normal 0 1 0
    outer loop
      vertex 127 1 1.6
      vertex 139 1 0
      vertex 127 1 0
    endloop
  endfacet
  facet normal 0 0 1
    outer loop
      vertex 150 4 0.799999
      vertex 148.2 2 0.799999
      vertex 150 0 0.799999
    endloop
  endfacet
  facet normal 0 0 1
    outer loop
      vertex 150 4 0.799999
      vertex 148.039 2.6 0.799999
      vertex 148.2 2 0.799999
    endloop
  endfacet
  facet normal 0 0 1
    outer loop
      vertex 150 4 0.799999
      vertex 147.6 3.03923 0.799999
      vertex 148.039 2.6 0.799999
    endloop
  endfacet
  facet normal 0 0 1
    outer loop
      vertex 150 4 0.799999
      vertex 147 3.2 0.799999
      vertex 147.6 3.03923 0.799999
    endloop
  endfacet
  facet normal -0 0 1
    outer loop
      vertex 143.693 2.4 0.799999
      vertex 145.8 2 0.799999
      vertex 145.961 2.6 0.799999
    endloop
  endfacet
  facet normal -0 0 1
    outer loop
      vertex 143.4 2.69282 0.799999
      vertex 145.961 2.6 0.799999
      vertex 146.4 3.03923 0.799999
    endloop
  endfacet
  facet normal 0 0 1
    outer loop
      vertex 145.8 2 0.799999
      vertex 143.693 2.4 0.799999
      vertex 143.8 2 0.799999
    endloop
  endfacet
  facet normal 0 0 1
    outer loop
      vertex 140 4 0.799999
      vertex 146.4 3.03923 0.799999
      vertex 147 3.2 0.799999
    endloop
  endfacet
  facet normal -0 0 1
    outer loop
      vertex 140 4 0.799999
      vertex 147 3.2 0.799999
      vertex 150 4 0.799999
    endloop
  endfacet
  facet normal 0 0 1
    outer loop
      vertex 145.961 2.6 0.799999
      vertex 143.4 2.69282 0.799999
      vertex 143.693 2.4 0.799999
    endloop
  endfacet
  facet normal 0 0 1
    outer loop
      vertex 146.4 3.03923 0.799999
      vertex 143 2.8 0.799999
      vertex 143.4 2.69282 0.799999
    endloop
  endfacet
  facet normal 0 0 1
    outer loop
      vertex 142.307 2.4 0.799999
      vertex 140 4 0.799999
      vertex 142.2 2 0.799999
    endloop
  endfacet
  facet normal 0 0 1
    outer loop
      vertex 142.6 2.69282 0.799999
      vertex 140 4 0.799999
      vertex 142.307 2.4 0.799999
    endloop
  endfacet
  facet normal 0 0 1
    outer loop
      vertex 143 2.8 0.799999
      vertex 140 4 0.799999
      vertex 142.6 2.69282 0.799999
    endloop
  endfacet
  facet normal 0 0 1
    outer loop
      vertex 146.4 3.03923 0.799999
      vertex 140 4 0.799999
      vertex 143 2.8 0.799999
    endloop
  endfacet
  facet normal -0 0 1
    outer loop
      vertex 148.039 1.4 0.799999
      vertex 150 0 0.799999
      vertex 148.2 2 0.799999
    endloop
  endfacet
  facet normal -0 0 1
    outer loop
      vertex 147.6 0.960769 0.799999
      vertex 150 0 0.799999
      vertex 148.039 1.4 0.799999
    endloop
  endfacet
  facet normal -0 0 1
    outer loop
      vertex 147 0.799999 0.799999
      vertex 150 0 0.799999
      vertex 147.6 0.960769 0.799999
    endloop
  endfacet
  facet normal 0 0 1
    outer loop
      vertex 143.693 1.6 0.799999
      vertex 145.8 2 0.799999
      vertex 143.8 2 0.799999
    endloop
  endfacet
  facet normal 0 0 1
    outer loop
      vertex 145.8 2 0.799999
      vertex 143.693 1.6 0.799999
      vertex 145.961 1.4 0.799999
    endloop
  endfacet
  facet normal 0 0 1
    outer loop
      vertex 143.4 1.30718 0.799999
      vertex 145.961 1.4 0.799999
      vertex 143.693 1.6 0.799999
    endloop
  endfacet
  facet normal 0 0 1
    outer loop
      vertex 145.961 1.4 0.799999
      vertex 143.4 1.30718 0.799999
      vertex 146.4 0.960769 0.799999
    endloop
  endfacet
  facet normal -0 0 1
    outer loop
      vertex 143 1.2 0.799999
      vertex 146.4 0.960769 0.799999
      vertex 143.4 1.30718 0.799999
    endloop
  endfacet
  facet normal 0 0 1
    outer loop
      vertex 140 0 0.799999
      vertex 146.4 0.960769 0.799999
      vertex 143 1.2 0.799999
    endloop
  endfacet
  facet normal 0 0 1
    outer loop
      vertex 146.4 0.960769 0.799999
      vertex 140 0 0.799999
      vertex 147 0.799999 0.799999
    endloop
  endfacet
  facet normal 0 0 1
    outer loop
      vertex 140 0 0.799999
      vertex 142.2 2 0.799999
      vertex 140 4 0.799999
    endloop
  endfacet
  facet normal 0 0 1
    outer loop
      vertex 147 0.799999 0.799999
      vertex 140 0 0.799999
      vertex 150 0 0.799999
    endloop
  endfacet
  facet normal 0 0 1
    outer loop
      vertex 142.6 1.30718 0.799999
      vertex 140 0 0.799999
      vertex 143 1.2 0.799999
    endloop
  endfacet
  facet normal 0 0 1
    outer loop
      vertex 142.307 1.6 0.799999
      vertex 140 0 0.799999
      vertex 142.6 1.30718 0.799999
    endloop
  endfacet
  facet normal 0 0 1
    outer loop
      vertex 142.2 2 0.799999
      vertex 140 0 0.799999
      vertex 142.307 1.6 0.799999
    endloop
  endfacet
  facet normal 1 -0 0
    outer loop
      vertex 150 0 0.799999
      vertex 150 4 0
      vertex 150 4 0.799999
    endloop
  endfacet
  facet normal 1 0 0
    outer loop
      vertex 150 4 0
      vertex 150 0 0.799999
      vertex 150 0 0
    endloop
  endfacet
  facet normal 0 1 -0
    outer loop
      vertex 150 4 0
      vertex 140 4 0.799999
      vertex 150 4 0.799999
    endloop
  endfacet
  facet normal 0 1 0
    outer loop
      vertex 140 4 0.799999
      vertex 150 4 0
      vertex 140 4 0
    endloop
  endfacet
  facet normal 0.605592 0.605072 0.516862
    outer loop
      vertex 145.961 1.4 0.799999
      vertex 146.65 1.39378 0
      vertex 146.394 1.65 0
    endloop
  endfacet
  facet normal 0.605519 0.6052 0.516798
    outer loop
      vertex 146.65 1.39378 0
      vertex 145.961 1.4 0.799999
      vertex 146.4 0.960769 0.799999
    endloop
  endfacet
  facet normal -0.826763 0.222045 0.516875
    outer loop
      vertex 148.039 1.4 0.799999
      vertex 147.7 2 0
      vertex 147.606 1.65 0
    endloop
  endfacet
  facet normal -0.826862 -0.221875 0.516789
    outer loop
      vertex 148.2 2 0.799999
      vertex 148.039 2.6 0.799999
      vertex 147.7 2 0
    endloop
  endfacet
  facet normal -0.826763 -0.222045 0.516875
    outer loop
      vertex 147.7 2 0
      vertex 148.039 2.6 0.799999
      vertex 147.606 2.35 0
    endloop
  endfacet
  facet normal 0.826763 0.222045 0.516875
    outer loop
      vertex 146.394 1.65 0
      vertex 146.3 2 0
      vertex 145.961 1.4 0.799999
    endloop
  endfacet
  facet normal 0.221568 0.826922 0.516824
    outer loop
      vertex 147 1.3 0
      vertex 146.65 1.39378 0
      vertex 146.4 0.960769 0.799999
    endloop
  endfacet
  facet normal -0.826862 0.221875 0.516789
    outer loop
      vertex 148.039 1.4 0.799999
      vertex 148.2 2 0.799999
      vertex 147.7 2 0
    endloop
  endfacet
  facet normal 0.221573 0.82692 0.516826
    outer loop
      vertex 147 0.799999 0.799999
      vertex 147 1.3 0
      vertex 146.4 0.960769 0.799999
    endloop
  endfacet
  facet normal 0.221568 -0.826923 0.516823
    outer loop
      vertex 146.65 2.60622 0
      vertex 147 2.7 0
      vertex 146.4 3.03923 0.799999
    endloop
  endfacet
  facet normal 0.221573 -0.82692 0.516826
    outer loop
      vertex 147 2.7 0
      vertex 147 3.2 0.799999
      vertex 146.4 3.03923 0.799999
    endloop
  endfacet
  facet normal -0.605592 0.605072 0.516862
    outer loop
      vertex 147.35 1.39378 0
      vertex 148.039 1.4 0.799999
      vertex 147.606 1.65 0
    endloop
  endfacet
  facet normal -0.605519 0.6052 0.516798
    outer loop
      vertex 148.039 1.4 0.799999
      vertex 147.35 1.39378 0
      vertex 147.6 0.960769 0.799999
    endloop
  endfacet
  facet normal -0.221568 0.826922 0.516824
    outer loop
      vertex 147.6 0.960769 0.799999
      vertex 147.35 1.39378 0
      vertex 147 1.3 0
    endloop
  endfacet
  facet normal -0.221573 0.82692 0.516826
    outer loop
      vertex 147.6 0.960769 0.799999
      vertex 147 1.3 0
      vertex 147 0.799999 0.799999
    endloop
  endfacet
  facet normal -0.221573 -0.82692 0.516826
    outer loop
      vertex 147.6 3.03923 0.799999
      vertex 147 3.2 0.799999
      vertex 147 2.7 0
    endloop
  endfacet
  facet normal 0.826862 -0.221875 0.516789
    outer loop
      vertex 146.3 2 0
      vertex 145.961 2.6 0.799999
      vertex 145.8 2 0.799999
    endloop
  endfacet
  facet normal 0.826862 0.221875 0.516789
    outer loop
      vertex 145.961 1.4 0.799999
      vertex 146.3 2 0
      vertex 145.8 2 0.799999
    endloop
  endfacet
  facet normal 0.826763 -0.222045 0.516875
    outer loop
      vertex 146.3 2 0
      vertex 146.394 2.35 0
      vertex 145.961 2.6 0.799999
    endloop
  endfacet
  facet normal -0.221568 -0.826923 0.516823
    outer loop
      vertex 147.35 2.60622 0
      vertex 147.6 3.03923 0.799999
      vertex 147 2.7 0
    endloop
  endfacet
  facet normal -0.605518 -0.605201 0.516798
    outer loop
      vertex 147.35 2.60622 0
      vertex 148.039 2.6 0.799999
      vertex 147.6 3.03923 0.799999
    endloop
  endfacet
  facet normal -0.605592 -0.605072 0.516862
    outer loop
      vertex 148.039 2.6 0.799999
      vertex 147.35 2.60622 0
      vertex 147.606 2.35 0
    endloop
  endfacet
  facet normal 0.605518 -0.605201 0.516798
    outer loop
      vertex 145.961 2.6 0.799999
      vertex 146.65 2.60622 0
      vertex 146.4 3.03923 0.799999
    endloop
  endfacet
  facet normal 0.605592 -0.605072 0.516862
    outer loop
      vertex 146.65 2.60622 0
      vertex 145.961 2.6 0.799999
      vertex 146.394 2.35 0
    endloop
  endfacet
  facet normal 0.827115 0.220564 0.516946
    outer loop
      vertex 143.8 2 0.799999
      vertex 143.26 2.15 1.6
      vertex 143.3 2 1.6
    endloop
  endfacet
  facet normal 0.827044 0.221234 0.516773
    outer loop
      vertex 143.693 2.4 0.799999
      vertex 143.26 2.15 1.6
      vertex 143.8 2 0.799999
    endloop
  endfacet
  facet normal 0.22156 -0.826923 0.516826
    outer loop
      vertex 143 1.7 1.6
      vertex 143 1.2 0.799999
      vertex 143.15 1.74019 1.6
    endloop
  endfacet
  facet normal 0.604788 -0.605834 0.516911
    outer loop
      vertex 143.4 1.30718 0.799999
      vertex 143.26 1.85 1.6
      vertex 143.15 1.74019 1.6
    endloop
  endfacet
  facet normal 0.605178 -0.60555 0.516786
    outer loop
      vertex 143.26 1.85 1.6
      vertex 143.4 1.30718 0.799999
      vertex 143.693 1.6 0.799999
    endloop
  endfacet
  facet normal 0.605178 0.60555 0.516786
    outer loop
      vertex 143.4 2.69282 0.799999
      vertex 143.26 2.15 1.6
      vertex 143.693 2.4 0.799999
    endloop
  endfacet
  facet normal 0.604788 0.605834 0.516911
    outer loop
      vertex 143.26 2.15 1.6
      vertex 143.4 2.69282 0.799999
      vertex 143.15 2.25981 1.6
    endloop
  endfacet
  facet normal -0.221574 0.826922 0.516823
    outer loop
      vertex 143 2.8 0.799999
      vertex 142.6 2.69282 0.799999
      vertex 142.85 2.25981 1.6
    endloop
  endfacet
  facet normal 0.221574 -0.826922 0.516823
    outer loop
      vertex 143.15 1.74019 1.6
      vertex 143 1.2 0.799999
      vertex 143.4 1.30718 0.799999
    endloop
  endfacet
  facet normal 0.221574 0.826922 0.516823
    outer loop
      vertex 143.4 2.69282 0.799999
      vertex 143 2.8 0.799999
      vertex 143.15 2.25981 1.6
    endloop
  endfacet
  facet normal 0 0 1
    outer loop
      vertex 143.26 2.15 1.6
      vertex 143.26 1.85 1.6
      vertex 143.3 2 1.6
    endloop
  endfacet
  facet normal 0 0 1
    outer loop
      vertex 143.15 2.25981 1.6
      vertex 143.26 1.85 1.6
      vertex 143.26 2.15 1.6
    endloop
  endfacet
  facet normal 0 0 1
    outer loop
      vertex 143.15 2.25981 1.6
      vertex 143.15 1.74019 1.6
      vertex 143.26 1.85 1.6
    endloop
  endfacet
  facet normal 0 0 1
    outer loop
      vertex 143 2.3 1.6
      vertex 143.15 1.74019 1.6
      vertex 143.15 2.25981 1.6
    endloop
  endfacet
  facet normal 0 0 1
    outer loop
      vertex 143 2.3 1.6
      vertex 143 1.7 1.6
      vertex 143.15 1.74019 1.6
    endloop
  endfacet
  facet normal -0 0 1
    outer loop
      vertex 142.85 2.25981 1.6
      vertex 143 1.7 1.6
      vertex 143 2.3 1.6
    endloop
  endfacet
  facet normal 0 0 1
    outer loop
      vertex 142.85 2.25981 1.6
      vertex 142.85 1.74019 1.6
      vertex 143 1.7 1.6
    endloop
  endfacet
  facet normal -0 0 1
    outer loop
      vertex 142.74 2.15 1.6
      vertex 142.85 1.74019 1.6
      vertex 142.85 2.25981 1.6
    endloop
  endfacet
  facet normal 0 0 1
    outer loop
      vertex 142.74 2.15 1.6
      vertex 142.74 1.85 1.6
      vertex 142.85 1.74019 1.6
    endloop
  endfacet
  facet normal 0 -0 1
    outer loop
      vertex 142.74 1.85 1.6
      vertex 142.74 2.15 1.6
      vertex 142.7 2 1.6
    endloop
  endfacet
  facet normal -0.604788 0.605834 0.516911
    outer loop
      vertex 142.6 2.69282 0.799999
      vertex 142.74 2.15 1.6
      vertex 142.85 2.25981 1.6
    endloop
  endfacet
  facet normal -0.605178 0.60555 0.516786
    outer loop
      vertex 142.74 2.15 1.6
      vertex 142.6 2.69282 0.799999
      vertex 142.307 2.4 0.799999
    endloop
  endfacet
  facet normal -0.221574 -0.826922 0.516823
    outer loop
      vertex 142.85 1.74019 1.6
      vertex 142.6 1.30718 0.799999
      vertex 143 1.2 0.799999
    endloop
  endfacet
  facet normal 0.827044 -0.221234 0.516773
    outer loop
      vertex 143.8 2 0.799999
      vertex 143.26 1.85 1.6
      vertex 143.693 1.6 0.799999
    endloop
  endfacet
  facet normal 0.827115 -0.220564 0.516946
    outer loop
      vertex 143.3 2 1.6
      vertex 143.26 1.85 1.6
      vertex 143.8 2 0.799999
    endloop
  endfacet
  facet normal 0.22156 0.826923 0.516826
    outer loop
      vertex 143 2.8 0.799999
      vertex 143 2.3 1.6
      vertex 143.15 2.25981 1.6
    endloop
  endfacet
  facet normal -0.605178 -0.60555 0.516786
    outer loop
      vertex 142.6 1.30718 0.799999
      vertex 142.74 1.85 1.6
      vertex 142.307 1.6 0.799999
    endloop
  endfacet
  facet normal -0.604788 -0.605834 0.516911
    outer loop
      vertex 142.74 1.85 1.6
      vertex 142.6 1.30718 0.799999
      vertex 142.85 1.74019 1.6
    endloop
  endfacet
  facet normal -0.827115 0.220564 0.516946
    outer loop
      vertex 142.74 2.15 1.6
      vertex 142.2 2 0.799999
      vertex 142.7 2 1.6
    endloop
  endfacet
  facet normal -0.22156 -0.826923 0.516826
    outer loop
      vertex 143 1.7 1.6
      vertex 142.85 1.74019 1.6
      vertex 143 1.2 0.799999
    endloop
  endfacet
  facet normal -0.22156 0.826923 0.516826
    outer loop
      vertex 143 2.8 0.799999
      vertex 142.85 2.25981 1.6
      vertex 143 2.3 1.6
    endloop
  endfacet
  facet normal -0.827044 0.221234 0.516773
    outer loop
      vertex 142.307 2.4 0.799999
      vertex 142.2 2 0.799999
      vertex 142.74 2.15 1.6
    endloop
  endfacet
  facet normal -0.827044 -0.221234 0.516773
    outer loop
      vertex 142.74 1.85 1.6
      vertex 142.2 2 0.799999
      vertex 142.307 1.6 0.799999
    endloop
  endfacet
  facet normal -0.827115 -0.220564 0.516946
    outer loop
      vertex 142.7 2 1.6
      vertex 142.2 2 0.799999
      vertex 142.74 1.85 1.6
    endloop
  endfacet
endsolid OpenSCAD_Model
