solid OpenSCAD_Model
  facet normal -1 0 0
    outer loop
      vertex 0 0 0
      vertex 0 4 0.799999
      vertex 0 4 0
    endloop
  endfacet
  facet normal -1 -0 0
    outer loop
      vertex 0 4 0.799999
      vertex 0 0 0
      vertex 0 0 0.799999
    endloop
  endfacet
  facet normal -0 0 1
    outer loop
      vertex 8.03923 2.6 0.799999
      vertex 10 2 0.799999
      vertex 10 4 0.799999
    endloop
  endfacet
  facet normal 0 0 1
    outer loop
      vertex 8.03923 1.4 0.799999
      vertex 10 2 0.799999
      vertex 8.2 2 0.799999
    endloop
  endfacet
  facet normal 0 0 1
    outer loop
      vertex 10 2 0.799999
      vertex 8.03923 2.6 0.799999
      vertex 8.2 2 0.799999
    endloop
  endfacet
  facet normal 0 0 1
    outer loop
      vertex 10 4 0.799999
      vertex 7.6 3.03923 0.799999
      vertex 8.03923 2.6 0.799999
    endloop
  endfacet
  facet normal 0 0 1
    outer loop
      vertex 10 4 0.799999
      vertex 7 3.2 0.799999
      vertex 7.6 3.03923 0.799999
    endloop
  endfacet
  facet normal -0 0 1
    outer loop
      vertex 3.86602 2.5 0.799999
      vertex 5.8 2 0.799999
      vertex 5.96077 2.6 0.799999
    endloop
  endfacet
  facet normal -0 0 1
    outer loop
      vertex 3.5 2.86602 0.799999
      vertex 5.96077 2.6 0.799999
      vertex 6.4 3.03923 0.799999
    endloop
  endfacet
  facet normal 0 0 1
    outer loop
      vertex 5.8 2 0.799999
      vertex 3.86602 2.5 0.799999
      vertex 4 2 0.799999
    endloop
  endfacet
  facet normal 0 0 1
    outer loop
      vertex 3 3 0.799999
      vertex 6.4 3.03923 0.799999
      vertex 7 3.2 0.799999
    endloop
  endfacet
  facet normal -0 0 1
    outer loop
      vertex 0 4 0.799999
      vertex 7 3.2 0.799999
      vertex 10 4 0.799999
    endloop
  endfacet
  facet normal 0 0 1
    outer loop
      vertex 5.96077 2.6 0.799999
      vertex 3.5 2.86602 0.799999
      vertex 3.86602 2.5 0.799999
    endloop
  endfacet
  facet normal 0 0 1
    outer loop
      vertex 6.4 3.03923 0.799999
      vertex 3 3 0.799999
      vertex 3.5 2.86602 0.799999
    endloop
  endfacet
  facet normal 0 0 1
    outer loop
      vertex 2.13397 2.5 0.799999
      vertex 0 4 0.799999
      vertex 2 2 0.799999
    endloop
  endfacet
  facet normal 0 0 1
    outer loop
      vertex 2.5 2.86602 0.799999
      vertex 0 4 0.799999
      vertex 2.13397 2.5 0.799999
    endloop
  endfacet
  facet normal 0 0 1
    outer loop
      vertex 3 3 0.799999
      vertex 0 4 0.799999
      vertex 2.5 2.86602 0.799999
    endloop
  endfacet
  facet normal 0 0 1
    outer loop
      vertex 7 3.2 0.799999
      vertex 0 4 0.799999
      vertex 3 3 0.799999
    endloop
  endfacet
  facet normal 0 0 1
    outer loop
      vertex 10 2 0.799999
      vertex 8.03923 1.4 0.799999
      vertex 10 0 0.799999
    endloop
  endfacet
  facet normal -0 0 1
    outer loop
      vertex 7.6 0.960769 0.799999
      vertex 10 0 0.799999
      vertex 8.03923 1.4 0.799999
    endloop
  endfacet
  facet normal -0 0 1
    outer loop
      vertex 7 0.799999 0.799999
      vertex 10 0 0.799999
      vertex 7.6 0.960769 0.799999
    endloop
  endfacet
  facet normal 0 0 1
    outer loop
      vertex 3.86602 1.5 0.799999
      vertex 5.8 2 0.799999
      vertex 4 2 0.799999
    endloop
  endfacet
  facet normal 0 0 1
    outer loop
      vertex 5.8 2 0.799999
      vertex 3.86602 1.5 0.799999
      vertex 5.96077 1.4 0.799999
    endloop
  endfacet
  facet normal 0 0 1
    outer loop
      vertex 3.5 1.13397 0.799999
      vertex 5.96077 1.4 0.799999
      vertex 3.86602 1.5 0.799999
    endloop
  endfacet
  facet normal 0 0 1
    outer loop
      vertex 5.96077 1.4 0.799999
      vertex 3.5 1.13397 0.799999
      vertex 6.4 0.960769 0.799999
    endloop
  endfacet
  facet normal -0 0 1
    outer loop
      vertex 3 1 0.799999
      vertex 6.4 0.960769 0.799999
      vertex 3.5 1.13397 0.799999
    endloop
  endfacet
  facet normal 0 0 1
    outer loop
      vertex 6.4 0.960769 0.799999
      vertex 3 1 0.799999
      vertex 7 0.799999 0.799999
    endloop
  endfacet
  facet normal 0 0 1
    outer loop
      vertex 0 0 0.799999
      vertex 7 0.799999 0.799999
      vertex 3 1 0.799999
    endloop
  endfacet
  facet normal 0 0 1
    outer loop
      vertex 0 0 0.799999
      vertex 2 2 0.799999
      vertex 0 4 0.799999
    endloop
  endfacet
  facet normal 0 0 1
    outer loop
      vertex 7 0.799999 0.799999
      vertex 0 0 0.799999
      vertex 10 0 0.799999
    endloop
  endfacet
  facet normal 0 0 1
    outer loop
      vertex 2.5 1.13397 0.799999
      vertex 0 0 0.799999
      vertex 3 1 0.799999
    endloop
  endfacet
  facet normal 0 0 1
    outer loop
      vertex 2.13397 1.5 0.799999
      vertex 0 0 0.799999
      vertex 2.5 1.13397 0.799999
    endloop
  endfacet
  facet normal 0 0 1
    outer loop
      vertex 2 2 0.799999
      vertex 0 0 0.799999
      vertex 2.13397 1.5 0.799999
    endloop
  endfacet
  facet normal -1 0 0
    outer loop
      vertex 10 0 0.799999
      vertex 10 2 1.6
      vertex 10 2 0.799999
    endloop
  endfacet
  facet normal -1 -0 0
    outer loop
      vertex 10 2 1.6
      vertex 10 0 0.799999
      vertex 10 0 1.6
    endloop
  endfacet
  facet normal 1 -0 0
    outer loop
      vertex 10 2 0.799999
      vertex 10 4 0
      vertex 10 4 0.799999
    endloop
  endfacet
  facet normal 1 0 0
    outer loop
      vertex 10 4 0
      vertex 10 2 0.799999
      vertex 10 2 0
    endloop
  endfacet
  facet normal 0 1 -0
    outer loop
      vertex 10 4 0
      vertex 0 4 0.799999
      vertex 10 4 0.799999
    endloop
  endfacet
  facet normal 0 1 0
    outer loop
      vertex 0 4 0.799999
      vertex 10 4 0
      vertex 0 4 0
    endloop
  endfacet
  facet normal 0 0 -1
    outer loop
      vertex 150 0 0
      vertex 147.7 2 0
      vertex 150 4 0
    endloop
  endfacet
  facet normal 0 0 -1
    outer loop
      vertex 150 0 0
      vertex 147.606 1.65 0
      vertex 147.7 2 0
    endloop
  endfacet
  facet normal 0 0 -1
    outer loop
      vertex 150 0 0
      vertex 147.35 1.39378 0
      vertex 147.606 1.65 0
    endloop
  endfacet
  facet normal 0 0 -1
    outer loop
      vertex 150 0 0
      vertex 147 1.3 0
      vertex 147.35 1.39378 0
    endloop
  endfacet
  facet normal 0 0 -1
    outer loop
      vertex 150 0 0
      vertex 146.65 1.39378 0
      vertex 147 1.3 0
    endloop
  endfacet
  facet normal 0 0 -1
    outer loop
      vertex 146.394 1.65 0
      vertex 140 2 0
      vertex 146.3 2 0
    endloop
  endfacet
  facet normal 0 0 -1
    outer loop
      vertex 146.65 1.39378 0
      vertex 140 2 0
      vertex 146.394 1.65 0
    endloop
  endfacet
  facet normal 0 0 -1
    outer loop
      vertex 150 0 0
      vertex 140 2 0
      vertex 146.65 1.39378 0
    endloop
  endfacet
  facet normal 0 0 -1
    outer loop
      vertex 150 0 0
      vertex 129 2 0
      vertex 140 2 0
    endloop
  endfacet
  facet normal 0 0 -1
    outer loop
      vertex 150 0 0
      vertex 126 2 0
      vertex 129 2 0
    endloop
  endfacet
  facet normal 0 0 -1
    outer loop
      vertex 150 0 0
      vertex 124 2 0
      vertex 126 2 0
    endloop
  endfacet
  facet normal 0 0 -1
    outer loop
      vertex 124 2 0
      vertex 121 2 0
      vertex 124 3.73205 0
    endloop
  endfacet
  facet normal 0 0 -1
    outer loop
      vertex 150 0 0
      vertex 121 2 0
      vertex 124 2 0
    endloop
  endfacet
  facet normal 0 0 -1
    outer loop
      vertex 150 0 0
      vertex 79 2 0
      vertex 121 2 0
    endloop
  endfacet
  facet normal 0 0 -1
    outer loop
      vertex 150 0 0
      vertex 76 2 0
      vertex 79 2 0
    endloop
  endfacet
  facet normal 0 0 -1
    outer loop
      vertex 150 0 0
      vertex 74 2 0
      vertex 76 2 0
    endloop
  endfacet
  facet normal 0 0 -1
    outer loop
      vertex 74 2 0
      vertex 71 2 0
      vertex 74 3.73205 0
    endloop
  endfacet
  facet normal 0 0 -1
    outer loop
      vertex 150 0 0
      vertex 71 2 0
      vertex 74 2 0
    endloop
  endfacet
  facet normal 0 0 -1
    outer loop
      vertex 0 0 0
      vertex 71 2 0
      vertex 150 0 0
    endloop
  endfacet
  facet normal -0 0 -1
    outer loop
      vertex 71 2 0
      vertex 0 0 0
      vertex 29 2 0
    endloop
  endfacet
  facet normal -0 0 -1
    outer loop
      vertex 29 2 0
      vertex 0 0 0
      vertex 26 2 0
    endloop
  endfacet
  facet normal 0 0 -1
    outer loop
      vertex 24 2 0
      vertex 21 2 0
      vertex 24 3.73205 0
    endloop
  endfacet
  facet normal -0 0 -1
    outer loop
      vertex 26 2 0
      vertex 0 0 0
      vertex 24 2 0
    endloop
  endfacet
  facet normal -0 0 -1
    outer loop
      vertex 24 2 0
      vertex 0 0 0
      vertex 21 2 0
    endloop
  endfacet
  facet normal 0 0 -1
    outer loop
      vertex 7.60622 2.35 0
      vertex 10 2 0
      vertex 7.7 2 0
    endloop
  endfacet
  facet normal 0 -0 -1
    outer loop
      vertex 7.35 1.39378 0
      vertex 21 2 0
      vertex 7 1.3 0
    endloop
  endfacet
  facet normal -0 0 -1
    outer loop
      vertex 10 2 0
      vertex 7.60622 1.65 0
      vertex 7.7 2 0
    endloop
  endfacet
  facet normal 0 0 -1
    outer loop
      vertex 10 2 0
      vertex 7.35 1.39378 0
      vertex 7.60622 1.65 0
    endloop
  endfacet
  facet normal -0 0 -1
    outer loop
      vertex 21 2 0
      vertex 7.35 1.39378 0
      vertex 10 2 0
    endloop
  endfacet
  facet normal -0 0 -1
    outer loop
      vertex 6.39378 1.65 0
      vertex 0 0 0
      vertex 6.3 2 0
    endloop
  endfacet
  facet normal -0 0 -1
    outer loop
      vertex 6.65 1.39378 0
      vertex 0 0 0
      vertex 6.39378 1.65 0
    endloop
  endfacet
  facet normal -0 0 -1
    outer loop
      vertex 7 1.3 0
      vertex 0 0 0
      vertex 6.65 1.39378 0
    endloop
  endfacet
  facet normal 0 0 -1
    outer loop
      vertex 21 2 0
      vertex 0 0 0
      vertex 7 1.3 0
    endloop
  endfacet
  facet normal 0 0 -1
    outer loop
      vertex 147.606 2.35 0
      vertex 150 4 0
      vertex 147.7 2 0
    endloop
  endfacet
  facet normal 0 0 -1
    outer loop
      vertex 147.35 2.60622 0
      vertex 150 4 0
      vertex 147.606 2.35 0
    endloop
  endfacet
  facet normal 0 0 -1
    outer loop
      vertex 147 2.7 0
      vertex 150 4 0
      vertex 147.35 2.60622 0
    endloop
  endfacet
  facet normal 0 0 -1
    outer loop
      vertex 140 4 0
      vertex 147 2.7 0
      vertex 146.65 2.60622 0
    endloop
  endfacet
  facet normal 0 0 -1
    outer loop
      vertex 140 2 0
      vertex 146.394 2.35 0
      vertex 146.3 2 0
    endloop
  endfacet
  facet normal 0 0 -1
    outer loop
      vertex 140 4 0
      vertex 146.394 2.35 0
      vertex 140 2 0
    endloop
  endfacet
  facet normal 0 0 -1
    outer loop
      vertex 146.394 2.35 0
      vertex 140 4 0
      vertex 146.65 2.60622 0
    endloop
  endfacet
  facet normal 0 0 -1
    outer loop
      vertex 147 2.7 0
      vertex 140 4 0
      vertex 150 4 0
    endloop
  endfacet
  facet normal 0 0 -1
    outer loop
      vertex 129 2 0
      vertex 126 2 0
      vertex 126 3.73205 0
    endloop
  endfacet
  facet normal 0 0 -1
    outer loop
      vertex 79 2 0
      vertex 76 2 0
      vertex 76 3.73205 0
    endloop
  endfacet
  facet normal 0 0 -1
    outer loop
      vertex 29 2 0
      vertex 26 2 0
      vertex 26 3.73205 0
    endloop
  endfacet
  facet normal 0 0 -1
    outer loop
      vertex 10 2 0
      vertex 7.60622 2.35 0
      vertex 10 4 0
    endloop
  endfacet
  facet normal 0 0 -1
    outer loop
      vertex 7.35 2.60622 0
      vertex 10 4 0
      vertex 7.60622 2.35 0
    endloop
  endfacet
  facet normal 0 0 -1
    outer loop
      vertex 7 2.7 0
      vertex 10 4 0
      vertex 7.35 2.60622 0
    endloop
  endfacet
  facet normal 0 0 -1
    outer loop
      vertex 0 4 0
      vertex 7 2.7 0
      vertex 6.65 2.60622 0
    endloop
  endfacet
  facet normal 0 0 -1
    outer loop
      vertex 0 4 0
      vertex 6.3 2 0
      vertex 0 0 0
    endloop
  endfacet
  facet normal 0 0 -1
    outer loop
      vertex 6.3 2 0
      vertex 0 4 0
      vertex 6.39378 2.35 0
    endloop
  endfacet
  facet normal 0 0 -1
    outer loop
      vertex 6.39378 2.35 0
      vertex 0 4 0
      vertex 6.65 2.60622 0
    endloop
  endfacet
  facet normal 0 0 -1
    outer loop
      vertex 7 2.7 0
      vertex 0 4 0
      vertex 10 4 0
    endloop
  endfacet
  facet normal 0 -1 0
    outer loop
      vertex 0 0 0
      vertex 10 0 0.799999
      vertex 0 0 0.799999
    endloop
  endfacet
  facet normal 0 -1 -0
    outer loop
      vertex 10 0 0.799999
      vertex 0 0 0
      vertex 140 0 0.799999
    endloop
  endfacet
  facet normal 0 -1 0
    outer loop
      vertex 150 0 0
      vertex 140 0 0.799999
      vertex 0 0 0
    endloop
  endfacet
  facet normal 0 -1 0
    outer loop
      vertex 140 0 0.799999
      vertex 150 0 0
      vertex 150 0 0.799999
    endloop
  endfacet
  facet normal 0 -1 0
    outer loop
      vertex 10 0 0.799999
      vertex 140 0 1.6
      vertex 10 0 1.6
    endloop
  endfacet
  facet normal 0 -1 -0
    outer loop
      vertex 140 0 1.6
      vertex 10 0 0.799999
      vertex 140 0 0.799999
    endloop
  endfacet
  facet normal 0.605348 0.605348 0.516824
    outer loop
      vertex 5.96077 1.4 0.799999
      vertex 6.65 1.39378 0
      vertex 6.39378 1.65 0
    endloop
  endfacet
  facet normal 0.605349 0.605347 0.516825
    outer loop
      vertex 6.65 1.39378 0
      vertex 5.96077 1.4 0.799999
      vertex 6.4 0.960769 0.799999
    endloop
  endfacet
  facet normal -0.826923 0.221568 0.516823
    outer loop
      vertex 8.03923 1.4 0.799999
      vertex 7.7 2 0
      vertex 7.60622 1.65 0
    endloop
  endfacet
  facet normal -0.82692 -0.221573 0.516826
    outer loop
      vertex 8.2 2 0.799999
      vertex 8.03923 2.6 0.799999
      vertex 7.7 2 0
    endloop
  endfacet
  facet normal -0.826923 -0.221568 0.516823
    outer loop
      vertex 7.7 2 0
      vertex 8.03923 2.6 0.799999
      vertex 7.60622 2.35 0
    endloop
  endfacet
  facet normal 0.826923 0.221568 0.516823
    outer loop
      vertex 6.39378 1.65 0
      vertex 6.3 2 0
      vertex 5.96077 1.4 0.799999
    endloop
  endfacet
  facet normal 0.221568 0.826922 0.516824
    outer loop
      vertex 7 1.3 0
      vertex 6.65 1.39378 0
      vertex 6.4 0.960769 0.799999
    endloop
  endfacet
  facet normal -0.82692 0.221573 0.516826
    outer loop
      vertex 8.03923 1.4 0.799999
      vertex 8.2 2 0.799999
      vertex 7.7 2 0
    endloop
  endfacet
  facet normal 0.221573 0.82692 0.516826
    outer loop
      vertex 7 0.799999 0.799999
      vertex 7 1.3 0
      vertex 6.4 0.960769 0.799999
    endloop
  endfacet
  facet normal 0.221568 -0.826923 0.516823
    outer loop
      vertex 6.65 2.60622 0
      vertex 7 2.7 0
      vertex 6.4 3.03923 0.799999
    endloop
  endfacet
  facet normal 0.221573 -0.82692 0.516826
    outer loop
      vertex 7 2.7 0
      vertex 7 3.2 0.799999
      vertex 6.4 3.03923 0.799999
    endloop
  endfacet
  facet normal -0.605348 0.605348 0.516824
    outer loop
      vertex 7.35 1.39378 0
      vertex 8.03923 1.4 0.799999
      vertex 7.60622 1.65 0
    endloop
  endfacet
  facet normal -0.605349 0.605347 0.516825
    outer loop
      vertex 8.03923 1.4 0.799999
      vertex 7.35 1.39378 0
      vertex 7.6 0.960769 0.799999
    endloop
  endfacet
  facet normal -0.221568 0.826922 0.516824
    outer loop
      vertex 7.6 0.960769 0.799999
      vertex 7.35 1.39378 0
      vertex 7 1.3 0
    endloop
  endfacet
  facet normal -0.221573 0.82692 0.516826
    outer loop
      vertex 7.6 0.960769 0.799999
      vertex 7 1.3 0
      vertex 7 0.799999 0.799999
    endloop
  endfacet
  facet normal -0.221573 -0.82692 0.516826
    outer loop
      vertex 7.6 3.03923 0.799999
      vertex 7 3.2 0.799999
      vertex 7 2.7 0
    endloop
  endfacet
  facet normal 0.82692 -0.221573 0.516826
    outer loop
      vertex 6.3 2 0
      vertex 5.96077 2.6 0.799999
      vertex 5.8 2 0.799999
    endloop
  endfacet
  facet normal 0.82692 0.221573 0.516826
    outer loop
      vertex 5.96077 1.4 0.799999
      vertex 6.3 2 0
      vertex 5.8 2 0.799999
    endloop
  endfacet
  facet normal 0.826923 -0.221568 0.516823
    outer loop
      vertex 6.3 2 0
      vertex 6.39378 2.35 0
      vertex 5.96077 2.6 0.799999
    endloop
  endfacet
  facet normal -0.221568 -0.826923 0.516823
    outer loop
      vertex 7.35 2.60622 0
      vertex 7.6 3.03923 0.799999
      vertex 7 2.7 0
    endloop
  endfacet
  facet normal -0.605348 -0.605348 0.516824
    outer loop
      vertex 7.35 2.60622 0
      vertex 8.03923 2.6 0.799999
      vertex 7.6 3.03923 0.799999
    endloop
  endfacet
  facet normal -0.605348 -0.605348 0.516824
    outer loop
      vertex 8.03923 2.6 0.799999
      vertex 7.35 2.60622 0
      vertex 7.60622 2.35 0
    endloop
  endfacet
  facet normal 0.605348 -0.605348 0.516824
    outer loop
      vertex 5.96077 2.6 0.799999
      vertex 6.65 2.60622 0
      vertex 6.4 3.03923 0.799999
    endloop
  endfacet
  facet normal 0.605348 -0.605348 0.516824
    outer loop
      vertex 6.65 2.60622 0
      vertex 5.96077 2.6 0.799999
      vertex 6.39378 2.35 0
    endloop
  endfacet
  facet normal 0.826919 0.221581 0.516824
    outer loop
      vertex 3.86602 2.5 0.799999
      vertex 3.5 2 1.6
      vertex 4 2 0.799999
    endloop
  endfacet
  facet normal -0.605349 0.605349 0.516823
    outer loop
      vertex 2.75 2.43301 1.6
      vertex 2.5 2.86602 0.799999
      vertex 2.56699 2.25 1.6
    endloop
  endfacet
  facet normal 0.826919 -0.221581 0.516824
    outer loop
      vertex 4 2 0.799999
      vertex 3.5 2 1.6
      vertex 3.86602 1.5 0.799999
    endloop
  endfacet
  facet normal 0.221581 0.826919 0.516824
    outer loop
      vertex 3 3 0.799999
      vertex 3 2.5 1.6
      vertex 3.5 2.86602 0.799999
    endloop
  endfacet
  facet normal -0.605339 0.605355 0.516827
    outer loop
      vertex 2.5 2.86602 0.799999
      vertex 2.13397 2.5 0.799999
      vertex 2.56699 2.25 1.6
    endloop
  endfacet
  facet normal -0.221581 0.826919 0.516824
    outer loop
      vertex 3 3 0.799999
      vertex 2.5 2.86602 0.799999
      vertex 3 2.5 1.6
    endloop
  endfacet
  facet normal -0.221581 0.826919 0.516824
    outer loop
      vertex 3 2.5 1.6
      vertex 2.5 2.86602 0.799999
      vertex 2.75 2.43301 1.6
    endloop
  endfacet
  facet normal 0.826919 0.221581 0.516824
    outer loop
      vertex 3.86602 2.5 0.799999
      vertex 3.43301 2.25 1.6
      vertex 3.5 2 1.6
    endloop
  endfacet
  facet normal -0.82692 0.221565 0.516829
    outer loop
      vertex 2 2 0.799999
      vertex 2.56699 2.25 1.6
      vertex 2.13397 2.5 0.799999
    endloop
  endfacet
  facet normal -0.826919 0.221581 0.516824
    outer loop
      vertex 2.56699 2.25 1.6
      vertex 2 2 0.799999
      vertex 2.5 2 1.6
    endloop
  endfacet
  facet normal -0.605346 -0.605346 0.516829
    outer loop
      vertex 2.13397 1.5 0.799999
      vertex 2.75 1.56699 1.6
      vertex 2.56699 1.75 1.6
    endloop
  endfacet
  facet normal -0.605346 -0.605346 0.516829
    outer loop
      vertex 2.75 1.56699 1.6
      vertex 2.13397 1.5 0.799999
      vertex 2.5 1.13397 0.799999
    endloop
  endfacet
  facet normal 0.605355 -0.605339 0.516827
    outer loop
      vertex 3.86602 1.5 0.799999
      vertex 3.25 1.56699 1.6
      vertex 3.5 1.13397 0.799999
    endloop
  endfacet
  facet normal -0.826919 -0.221581 0.516824
    outer loop
      vertex 2 2 0.799999
      vertex 2.56699 1.75 1.6
      vertex 2.5 2 1.6
    endloop
  endfacet
  facet normal -0.82692 -0.221565 0.516829
    outer loop
      vertex 2.56699 1.75 1.6
      vertex 2 2 0.799999
      vertex 2.13397 1.5 0.799999
    endloop
  endfacet
  facet normal 0 0 1
    outer loop
      vertex 3.43301 2.25 1.6
      vertex 3.43301 1.75 1.6
      vertex 3.5 2 1.6
    endloop
  endfacet
  facet normal 0 0 1
    outer loop
      vertex 3.25 2.43301 1.6
      vertex 3.43301 1.75 1.6
      vertex 3.43301 2.25 1.6
    endloop
  endfacet
  facet normal 0 0 1
    outer loop
      vertex 3.25 2.43301 1.6
      vertex 3.25 1.56699 1.6
      vertex 3.43301 1.75 1.6
    endloop
  endfacet
  facet normal 0 0 1
    outer loop
      vertex 3 2.5 1.6
      vertex 3.25 1.56699 1.6
      vertex 3.25 2.43301 1.6
    endloop
  endfacet
  facet normal 0 0 1
    outer loop
      vertex 3 2.5 1.6
      vertex 3 1.5 1.6
      vertex 3.25 1.56699 1.6
    endloop
  endfacet
  facet normal -0 0 1
    outer loop
      vertex 2.75 2.43301 1.6
      vertex 3 1.5 1.6
      vertex 3 2.5 1.6
    endloop
  endfacet
  facet normal 0 0 1
    outer loop
      vertex 2.75 2.43301 1.6
      vertex 2.75 1.56699 1.6
      vertex 3 1.5 1.6
    endloop
  endfacet
  facet normal -0 0 1
    outer loop
      vertex 2.56699 2.25 1.6
      vertex 2.75 1.56699 1.6
      vertex 2.75 2.43301 1.6
    endloop
  endfacet
  facet normal 0 0 1
    outer loop
      vertex 2.56699 2.25 1.6
      vertex 2.56699 1.75 1.6
      vertex 2.75 1.56699 1.6
    endloop
  endfacet
  facet normal 0 -0 1
    outer loop
      vertex 2.56699 1.75 1.6
      vertex 2.56699 2.25 1.6
      vertex 2.5 2 1.6
    endloop
  endfacet
  facet normal -0.221565 -0.82692 0.516829
    outer loop
      vertex 3 1 0.799999
      vertex 2.75 1.56699 1.6
      vertex 2.5 1.13397 0.799999
    endloop
  endfacet
  facet normal -0.221581 -0.826919 0.516824
    outer loop
      vertex 2.75 1.56699 1.6
      vertex 3 1 0.799999
      vertex 3 1.5 1.6
    endloop
  endfacet
  facet normal 0.605349 -0.605349 0.516823
    outer loop
      vertex 3.43301 1.75 1.6
      vertex 3.25 1.56699 1.6
      vertex 3.86602 1.5 0.799999
    endloop
  endfacet
  facet normal 0.826919 -0.221581 0.516824
    outer loop
      vertex 3.5 2 1.6
      vertex 3.43301 1.75 1.6
      vertex 3.86602 1.5 0.799999
    endloop
  endfacet
  facet normal 0.605349 0.605349 0.516823
    outer loop
      vertex 3.25 2.43301 1.6
      vertex 3.86602 2.5 0.799999
      vertex 3.5 2.86602 0.799999
    endloop
  endfacet
  facet normal 0.605349 0.605349 0.516823
    outer loop
      vertex 3.86602 2.5 0.799999
      vertex 3.25 2.43301 1.6
      vertex 3.43301 2.25 1.6
    endloop
  endfacet
  facet normal 0.221581 0.826919 0.516824
    outer loop
      vertex 3.5 2.86602 0.799999
      vertex 3 2.5 1.6
      vertex 3.25 2.43301 1.6
    endloop
  endfacet
  facet normal 0.221581 -0.826919 0.516824
    outer loop
      vertex 3 1 0.799999
      vertex 3.25 1.56699 1.6
      vertex 3 1.5 1.6
    endloop
  endfacet
  facet normal 0.221565 -0.82692 0.516829
    outer loop
      vertex 3.25 1.56699 1.6
      vertex 3 1 0.799999
      vertex 3.5 1.13397 0.799999
    endloop
  endfacet
  facet normal 1 -0 0
    outer loop
      vertex 140 0 1.6
      vertex 140 2 0.799999
      vertex 140 2 1.6
    endloop
  endfacet
  facet normal 1 0 0
    outer loop
      vertex 140 2 0.799999
      vertex 140 0 1.6
      vertex 140 0 0.799999
    endloop
  endfacet
  facet normal -1 0 0
    outer loop
      vertex 140 2 0
      vertex 140 4 0.799999
      vertex 140 4 0
    endloop
  endfacet
  facet normal -1 -0 0
    outer loop
      vertex 140 4 0.799999
      vertex 140 2 0
      vertex 140 2 0.799999
    endloop
  endfacet
  facet normal 0 0 1
    outer loop
      vertex 150 4 0.799999
      vertex 148.2 2 0.799999
      vertex 150 0 0.799999
    endloop
  endfacet
  facet normal 0 0 1
    outer loop
      vertex 150 4 0.799999
      vertex 148.039 2.6 0.799999
      vertex 148.2 2 0.799999
    endloop
  endfacet
  facet normal 0 0 1
    outer loop
      vertex 150 4 0.799999
      vertex 147.6 3.03923 0.799999
      vertex 148.039 2.6 0.799999
    endloop
  endfacet
  facet normal 0 0 1
    outer loop
      vertex 150 4 0.799999
      vertex 147 3.2 0.799999
      vertex 147.6 3.03923 0.799999
    endloop
  endfacet
  facet normal -0 0 1
    outer loop
      vertex 143.866 2.5 0.799999
      vertex 145.8 2 0.799999
      vertex 145.961 2.6 0.799999
    endloop
  endfacet
  facet normal -0 0 1
    outer loop
      vertex 143.5 2.86602 0.799999
      vertex 145.961 2.6 0.799999
      vertex 146.4 3.03923 0.799999
    endloop
  endfacet
  facet normal 0 0 1
    outer loop
      vertex 145.8 2 0.799999
      vertex 143.866 2.5 0.799999
      vertex 144 2 0.799999
    endloop
  endfacet
  facet normal 0 0 1
    outer loop
      vertex 143 3 0.799999
      vertex 146.4 3.03923 0.799999
      vertex 147 3.2 0.799999
    endloop
  endfacet
  facet normal -0 0 1
    outer loop
      vertex 140 4 0.799999
      vertex 147 3.2 0.799999
      vertex 150 4 0.799999
    endloop
  endfacet
  facet normal 0 0 1
    outer loop
      vertex 145.961 2.6 0.799999
      vertex 143.5 2.86602 0.799999
      vertex 143.866 2.5 0.799999
    endloop
  endfacet
  facet normal 0 0 1
    outer loop
      vertex 146.4 3.03923 0.799999
      vertex 143 3 0.799999
      vertex 143.5 2.86602 0.799999
    endloop
  endfacet
  facet normal 0 0 1
    outer loop
      vertex 140 2 0.799999
      vertex 142.134 2.5 0.799999
      vertex 140 4 0.799999
    endloop
  endfacet
  facet normal 0 0 1
    outer loop
      vertex 142.5 2.86602 0.799999
      vertex 140 4 0.799999
      vertex 142.134 2.5 0.799999
    endloop
  endfacet
  facet normal 0 0 1
    outer loop
      vertex 143 3 0.799999
      vertex 140 4 0.799999
      vertex 142.5 2.86602 0.799999
    endloop
  endfacet
  facet normal 0 0 1
    outer loop
      vertex 147 3.2 0.799999
      vertex 140 4 0.799999
      vertex 143 3 0.799999
    endloop
  endfacet
  facet normal -0 0 1
    outer loop
      vertex 148.039 1.4 0.799999
      vertex 150 0 0.799999
      vertex 148.2 2 0.799999
    endloop
  endfacet
  facet normal -0 0 1
    outer loop
      vertex 147.6 0.960769 0.799999
      vertex 150 0 0.799999
      vertex 148.039 1.4 0.799999
    endloop
  endfacet
  facet normal -0 0 1
    outer loop
      vertex 147 0.799999 0.799999
      vertex 150 0 0.799999
      vertex 147.6 0.960769 0.799999
    endloop
  endfacet
  facet normal 0 0 1
    outer loop
      vertex 143.866 1.5 0.799999
      vertex 145.8 2 0.799999
      vertex 144 2 0.799999
    endloop
  endfacet
  facet normal 0 0 1
    outer loop
      vertex 145.8 2 0.799999
      vertex 143.866 1.5 0.799999
      vertex 145.961 1.4 0.799999
    endloop
  endfacet
  facet normal 0 0 1
    outer loop
      vertex 143.5 1.13397 0.799999
      vertex 145.961 1.4 0.799999
      vertex 143.866 1.5 0.799999
    endloop
  endfacet
  facet normal 0 0 1
    outer loop
      vertex 145.961 1.4 0.799999
      vertex 143.5 1.13397 0.799999
      vertex 146.4 0.960769 0.799999
    endloop
  endfacet
  facet normal -0 0 1
    outer loop
      vertex 143 1 0.799999
      vertex 146.4 0.960769 0.799999
      vertex 143.5 1.13397 0.799999
    endloop
  endfacet
  facet normal 0 0 1
    outer loop
      vertex 146.4 0.960769 0.799999
      vertex 143 1 0.799999
      vertex 147 0.799999 0.799999
    endloop
  endfacet
  facet normal 0 0 1
    outer loop
      vertex 140 0 0.799999
      vertex 147 0.799999 0.799999
      vertex 143 1 0.799999
    endloop
  endfacet
  facet normal 0 0 1
    outer loop
      vertex 142.134 2.5 0.799999
      vertex 140 2 0.799999
      vertex 142 2 0.799999
    endloop
  endfacet
  facet normal 0 0 1
    outer loop
      vertex 142 2 0.799999
      vertex 140 2 0.799999
      vertex 142.134 1.5 0.799999
    endloop
  endfacet
  facet normal 0 0 1
    outer loop
      vertex 140 0 0.799999
      vertex 142.134 1.5 0.799999
      vertex 140 2 0.799999
    endloop
  endfacet
  facet normal 0 0 1
    outer loop
      vertex 147 0.799999 0.799999
      vertex 140 0 0.799999
      vertex 150 0 0.799999
    endloop
  endfacet
  facet normal 0 0 1
    outer loop
      vertex 142.5 1.13397 0.799999
      vertex 140 0 0.799999
      vertex 143 1 0.799999
    endloop
  endfacet
  facet normal 0 0 1
    outer loop
      vertex 142.134 1.5 0.799999
      vertex 140 0 0.799999
      vertex 142.5 1.13397 0.799999
    endloop
  endfacet
  facet normal 1 -0 0
    outer loop
      vertex 150 0 0.799999
      vertex 150 4 0
      vertex 150 4 0.799999
    endloop
  endfacet
  facet normal 1 0 0
    outer loop
      vertex 150 4 0
      vertex 150 0 0.799999
      vertex 150 0 0
    endloop
  endfacet
  facet normal 0 1 -0
    outer loop
      vertex 150 4 0
      vertex 140 4 0.799999
      vertex 150 4 0.799999
    endloop
  endfacet
  facet normal 0 1 0
    outer loop
      vertex 140 4 0.799999
      vertex 150 4 0
      vertex 140 4 0
    endloop
  endfacet
  facet normal 0.605592 0.605072 0.516862
    outer loop
      vertex 145.961 1.4 0.799999
      vertex 146.65 1.39378 0
      vertex 146.394 1.65 0
    endloop
  endfacet
  facet normal 0.605519 0.6052 0.516798
    outer loop
      vertex 146.65 1.39378 0
      vertex 145.961 1.4 0.799999
      vertex 146.4 0.960769 0.799999
    endloop
  endfacet
  facet normal -0.826763 0.222045 0.516875
    outer loop
      vertex 148.039 1.4 0.799999
      vertex 147.7 2 0
      vertex 147.606 1.65 0
    endloop
  endfacet
  facet normal -0.826862 -0.221875 0.516789
    outer loop
      vertex 148.2 2 0.799999
      vertex 148.039 2.6 0.799999
      vertex 147.7 2 0
    endloop
  endfacet
  facet normal -0.826763 -0.222045 0.516875
    outer loop
      vertex 147.7 2 0
      vertex 148.039 2.6 0.799999
      vertex 147.606 2.35 0
    endloop
  endfacet
  facet normal 0.826763 0.222045 0.516875
    outer loop
      vertex 146.394 1.65 0
      vertex 146.3 2 0
      vertex 145.961 1.4 0.799999
    endloop
  endfacet
  facet normal 0.221568 0.826922 0.516824
    outer loop
      vertex 147 1.3 0
      vertex 146.65 1.39378 0
      vertex 146.4 0.960769 0.799999
    endloop
  endfacet
  facet normal -0.826862 0.221875 0.516789
    outer loop
      vertex 148.039 1.4 0.799999
      vertex 148.2 2 0.799999
      vertex 147.7 2 0
    endloop
  endfacet
  facet normal 0.221573 0.82692 0.516826
    outer loop
      vertex 147 0.799999 0.799999
      vertex 147 1.3 0
      vertex 146.4 0.960769 0.799999
    endloop
  endfacet
  facet normal 0.221568 -0.826923 0.516823
    outer loop
      vertex 146.65 2.60622 0
      vertex 147 2.7 0
      vertex 146.4 3.03923 0.799999
    endloop
  endfacet
  facet normal 0.221573 -0.82692 0.516826
    outer loop
      vertex 147 2.7 0
      vertex 147 3.2 0.799999
      vertex 146.4 3.03923 0.799999
    endloop
  endfacet
  facet normal -0.605592 0.605072 0.516862
    outer loop
      vertex 147.35 1.39378 0
      vertex 148.039 1.4 0.799999
      vertex 147.606 1.65 0
    endloop
  endfacet
  facet normal -0.605519 0.6052 0.516798
    outer loop
      vertex 148.039 1.4 0.799999
      vertex 147.35 1.39378 0
      vertex 147.6 0.960769 0.799999
    endloop
  endfacet
  facet normal -0.221568 0.826922 0.516824
    outer loop
      vertex 147.6 0.960769 0.799999
      vertex 147.35 1.39378 0
      vertex 147 1.3 0
    endloop
  endfacet
  facet normal -0.221573 0.82692 0.516826
    outer loop
      vertex 147.6 0.960769 0.799999
      vertex 147 1.3 0
      vertex 147 0.799999 0.799999
    endloop
  endfacet
  facet normal -0.221573 -0.82692 0.516826
    outer loop
      vertex 147.6 3.03923 0.799999
      vertex 147 3.2 0.799999
      vertex 147 2.7 0
    endloop
  endfacet
  facet normal 0.826862 -0.221875 0.516789
    outer loop
      vertex 146.3 2 0
      vertex 145.961 2.6 0.799999
      vertex 145.8 2 0.799999
    endloop
  endfacet
  facet normal 0.826862 0.221875 0.516789
    outer loop
      vertex 145.961 1.4 0.799999
      vertex 146.3 2 0
      vertex 145.8 2 0.799999
    endloop
  endfacet
  facet normal 0.826763 -0.222045 0.516875
    outer loop
      vertex 146.3 2 0
      vertex 146.394 2.35 0
      vertex 145.961 2.6 0.799999
    endloop
  endfacet
  facet normal -0.221568 -0.826923 0.516823
    outer loop
      vertex 147.35 2.60622 0
      vertex 147.6 3.03923 0.799999
      vertex 147 2.7 0
    endloop
  endfacet
  facet normal -0.605518 -0.605201 0.516798
    outer loop
      vertex 147.35 2.60622 0
      vertex 148.039 2.6 0.799999
      vertex 147.6 3.03923 0.799999
    endloop
  endfacet
  facet normal -0.605592 -0.605072 0.516862
    outer loop
      vertex 148.039 2.6 0.799999
      vertex 147.35 2.60622 0
      vertex 147.606 2.35 0
    endloop
  endfacet
  facet normal 0.605518 -0.605201 0.516798
    outer loop
      vertex 145.961 2.6 0.799999
      vertex 146.65 2.60622 0
      vertex 146.4 3.03923 0.799999
    endloop
  endfacet
  facet normal 0.605592 -0.605072 0.516862
    outer loop
      vertex 146.65 2.60622 0
      vertex 145.961 2.6 0.799999
      vertex 146.394 2.35 0
    endloop
  endfacet
  facet normal 0.826913 0.221613 0.51682
    outer loop
      vertex 143.866 2.5 0.799999
      vertex 143.5 2 1.6
      vertex 144 2 0.799999
    endloop
  endfacet
  facet normal -0.605366 0.605333 0.51682
    outer loop
      vertex 142.75 2.43301 1.6
      vertex 142.5 2.86602 0.799999
      vertex 142.567 2.25 1.6
    endloop
  endfacet
  facet normal 0.826913 -0.221613 0.51682
    outer loop
      vertex 144 2 0.799999
      vertex 143.5 2 1.6
      vertex 143.866 1.5 0.799999
    endloop
  endfacet
  facet normal 0.221581 0.826919 0.516824
    outer loop
      vertex 143 3 0.799999
      vertex 143 2.5 1.6
      vertex 143.5 2.86602 0.799999
    endloop
  endfacet
  facet normal -0.605366 0.605333 0.51682
    outer loop
      vertex 142.5 2.86602 0.799999
      vertex 142.134 2.5 0.799999
      vertex 142.567 2.25 1.6
    endloop
  endfacet
  facet normal -0.221581 0.826919 0.516824
    outer loop
      vertex 143 3 0.799999
      vertex 142.5 2.86602 0.799999
      vertex 143 2.5 1.6
    endloop
  endfacet
  facet normal -0.221581 0.826919 0.516824
    outer loop
      vertex 143 2.5 1.6
      vertex 142.5 2.86602 0.799999
      vertex 142.75 2.43301 1.6
    endloop
  endfacet
  facet normal 0.826913 0.221613 0.51682
    outer loop
      vertex 143.866 2.5 0.799999
      vertex 143.433 2.25 1.6
      vertex 143.5 2 1.6
    endloop
  endfacet
  facet normal -0.826913 0.221613 0.51682
    outer loop
      vertex 142 2 0.799999
      vertex 142.567 2.25 1.6
      vertex 142.134 2.5 0.799999
    endloop
  endfacet
  facet normal -0.826913 0.221613 0.51682
    outer loop
      vertex 142.567 2.25 1.6
      vertex 142 2 0.799999
      vertex 142.5 2 1.6
    endloop
  endfacet
  facet normal -0.605374 -0.605324 0.516822
    outer loop
      vertex 142.5 1.13397 0.799999
      vertex 142.567 1.75 1.6
      vertex 142.134 1.5 0.799999
    endloop
  endfacet
  facet normal -0.605364 -0.605331 0.516826
    outer loop
      vertex 142.567 1.75 1.6
      vertex 142.5 1.13397 0.799999
      vertex 142.75 1.56699 1.6
    endloop
  endfacet
  facet normal 0.605373 -0.605323 0.516825
    outer loop
      vertex 143.866 1.5 0.799999
      vertex 143.25 1.56699 1.6
      vertex 143.5 1.13397 0.799999
    endloop
  endfacet
  facet normal -0.826913 -0.221613 0.51682
    outer loop
      vertex 142 2 0.799999
      vertex 142.567 1.75 1.6
      vertex 142.5 2 1.6
    endloop
  endfacet
  facet normal -0.826913 -0.221613 0.51682
    outer loop
      vertex 142.567 1.75 1.6
      vertex 142 2 0.799999
      vertex 142.134 1.5 0.799999
    endloop
  endfacet
  facet normal 0 0 1
    outer loop
      vertex 143.433 2.25 1.6
      vertex 143.433 1.75 1.6
      vertex 143.5 2 1.6
    endloop
  endfacet
  facet normal 0 0 1
    outer loop
      vertex 143.25 2.43301 1.6
      vertex 143.433 1.75 1.6
      vertex 143.433 2.25 1.6
    endloop
  endfacet
  facet normal 0 0 1
    outer loop
      vertex 143.25 2.43301 1.6
      vertex 143.25 1.56699 1.6
      vertex 143.433 1.75 1.6
    endloop
  endfacet
  facet normal 0 0 1
    outer loop
      vertex 143 2.5 1.6
      vertex 143.25 1.56699 1.6
      vertex 143.25 2.43301 1.6
    endloop
  endfacet
  facet normal 0 0 1
    outer loop
      vertex 143 2.5 1.6
      vertex 143 1.5 1.6
      vertex 143.25 1.56699 1.6
    endloop
  endfacet
  facet normal -0 0 1
    outer loop
      vertex 142.75 2.43301 1.6
      vertex 143 1.5 1.6
      vertex 143 2.5 1.6
    endloop
  endfacet
  facet normal 0 0 1
    outer loop
      vertex 142.75 2.43301 1.6
      vertex 142.75 1.56699 1.6
      vertex 143 1.5 1.6
    endloop
  endfacet
  facet normal -0 0 1
    outer loop
      vertex 142.567 2.25 1.6
      vertex 142.75 1.56699 1.6
      vertex 142.75 2.43301 1.6
    endloop
  endfacet
  facet normal 0 0 1
    outer loop
      vertex 142.567 2.25 1.6
      vertex 142.567 1.75 1.6
      vertex 142.75 1.56699 1.6
    endloop
  endfacet
  facet normal 0 -0 1
    outer loop
      vertex 142.567 1.75 1.6
      vertex 142.567 2.25 1.6
      vertex 142.5 2 1.6
    endloop
  endfacet
  facet normal -0.221565 -0.82692 0.516829
    outer loop
      vertex 143 1 0.799999
      vertex 142.75 1.56699 1.6
      vertex 142.5 1.13397 0.799999
    endloop
  endfacet
  facet normal -0.221581 -0.826919 0.516824
    outer loop
      vertex 142.75 1.56699 1.6
      vertex 143 1 0.799999
      vertex 143 1.5 1.6
    endloop
  endfacet
  facet normal 0.605366 -0.605333 0.51682
    outer loop
      vertex 143.433 1.75 1.6
      vertex 143.25 1.56699 1.6
      vertex 143.866 1.5 0.799999
    endloop
  endfacet
  facet normal 0.826913 -0.221613 0.51682
    outer loop
      vertex 143.5 2 1.6
      vertex 143.433 1.75 1.6
      vertex 143.866 1.5 0.799999
    endloop
  endfacet
  facet normal 0.605366 0.605333 0.51682
    outer loop
      vertex 143.5 2.86602 0.799999
      vertex 143.433 2.25 1.6
      vertex 143.866 2.5 0.799999
    endloop
  endfacet
  facet normal 0.605366 0.605333 0.51682
    outer loop
      vertex 143.433 2.25 1.6
      vertex 143.5 2.86602 0.799999
      vertex 143.25 2.43301 1.6
    endloop
  endfacet
  facet normal 0.221581 0.826919 0.516824
    outer loop
      vertex 143.5 2.86602 0.799999
      vertex 143 2.5 1.6
      vertex 143.25 2.43301 1.6
    endloop
  endfacet
  facet normal 0.221581 -0.826919 0.516824
    outer loop
      vertex 143 1 0.799999
      vertex 143.25 1.56699 1.6
      vertex 143 1.5 1.6
    endloop
  endfacet
  facet normal 0.221565 -0.82692 0.516829
    outer loop
      vertex 143.25 1.56699 1.6
      vertex 143 1 0.799999
      vertex 143.5 1.13397 0.799999
    endloop
  endfacet
  facet normal -0.5 0.866026 0
    outer loop
      vertex 24 3.73205 0
      vertex 21 2 1.6
      vertex 24 3.73205 1.6
    endloop
  endfacet
  facet normal -0.5 0.866026 0
    outer loop
      vertex 21 2 1.6
      vertex 24 3.73205 0
      vertex 21 2 0
    endloop
  endfacet
  facet normal 1 -0 0
    outer loop
      vertex 24 2 1.6
      vertex 24 3.73205 0
      vertex 24 3.73205 1.6
    endloop
  endfacet
  facet normal 1 0 0
    outer loop
      vertex 24 3.73205 0
      vertex 24 2 1.6
      vertex 24 2 0
    endloop
  endfacet
  facet normal 0 0 1
    outer loop
      vertex 24 3.73205 1.6
      vertex 21 2 1.6
      vertex 24 2 1.6
    endloop
  endfacet
  facet normal 0 0 1
    outer loop
      vertex 74 3.73205 1.6
      vertex 71 2 1.6
      vertex 74 2 1.6
    endloop
  endfacet
  facet normal 0 0 1
    outer loop
      vertex 124 3.73205 1.6
      vertex 121 2 1.6
      vertex 124 2 1.6
    endloop
  endfacet
  facet normal -0 0 1
    outer loop
      vertex 129 2 1.6
      vertex 140 0 1.6
      vertex 140 2 1.6
    endloop
  endfacet
  facet normal 0 0 1
    outer loop
      vertex 126 2 1.6
      vertex 129 2 1.6
      vertex 126 3.73205 1.6
    endloop
  endfacet
  facet normal -0 0 1
    outer loop
      vertex 126 2 1.6
      vertex 140 0 1.6
      vertex 129 2 1.6
    endloop
  endfacet
  facet normal -0 0 1
    outer loop
      vertex 124 2 1.6
      vertex 140 0 1.6
      vertex 126 2 1.6
    endloop
  endfacet
  facet normal -0 0 1
    outer loop
      vertex 121 2 1.6
      vertex 140 0 1.6
      vertex 124 2 1.6
    endloop
  endfacet
  facet normal -0 0 1
    outer loop
      vertex 79 2 1.6
      vertex 140 0 1.6
      vertex 121 2 1.6
    endloop
  endfacet
  facet normal 0 0 1
    outer loop
      vertex 76 2 1.6
      vertex 79 2 1.6
      vertex 76 3.73205 1.6
    endloop
  endfacet
  facet normal -0 0 1
    outer loop
      vertex 76 2 1.6
      vertex 140 0 1.6
      vertex 79 2 1.6
    endloop
  endfacet
  facet normal -0 0 1
    outer loop
      vertex 74 2 1.6
      vertex 140 0 1.6
      vertex 76 2 1.6
    endloop
  endfacet
  facet normal -0 0 1
    outer loop
      vertex 71 2 1.6
      vertex 140 0 1.6
      vertex 74 2 1.6
    endloop
  endfacet
  facet normal 0 0 1
    outer loop
      vertex 10 0 1.6
      vertex 71 2 1.6
      vertex 29 2 1.6
    endloop
  endfacet
  facet normal 0 0 1
    outer loop
      vertex 26 2 1.6
      vertex 29 2 1.6
      vertex 26 3.73205 1.6
    endloop
  endfacet
  facet normal 0 0 1
    outer loop
      vertex 10 0 1.6
      vertex 29 2 1.6
      vertex 26 2 1.6
    endloop
  endfacet
  facet normal 0 0 1
    outer loop
      vertex 10 0 1.6
      vertex 26 2 1.6
      vertex 24 2 1.6
    endloop
  endfacet
  facet normal 0 0 1
    outer loop
      vertex 10 0 1.6
      vertex 24 2 1.6
      vertex 21 2 1.6
    endloop
  endfacet
  facet normal 0 0 1
    outer loop
      vertex 10 0 1.6
      vertex 21 2 1.6
      vertex 10 2 1.6
    endloop
  endfacet
  facet normal 0 0 1
    outer loop
      vertex 71 2 1.6
      vertex 10 0 1.6
      vertex 140 0 1.6
    endloop
  endfacet
  facet normal -1 0 0
    outer loop
      vertex 26 2 0
      vertex 26 3.73205 1.6
      vertex 26 3.73205 0
    endloop
  endfacet
  facet normal -1 -0 0
    outer loop
      vertex 26 3.73205 1.6
      vertex 26 2 0
      vertex 26 2 1.6
    endloop
  endfacet
  facet normal 0.5 0.866026 -0
    outer loop
      vertex 29 2 0
      vertex 26 3.73205 1.6
      vertex 29 2 1.6
    endloop
  endfacet
  facet normal 0.5 0.866026 0
    outer loop
      vertex 26 3.73205 1.6
      vertex 29 2 0
      vertex 26 3.73205 0
    endloop
  endfacet
  facet normal -0.5 0.866026 0
    outer loop
      vertex 74 3.73205 0
      vertex 71 2 1.6
      vertex 74 3.73205 1.6
    endloop
  endfacet
  facet normal -0.5 0.866026 0
    outer loop
      vertex 71 2 1.6
      vertex 74 3.73205 0
      vertex 71 2 0
    endloop
  endfacet
  facet normal 1 -0 0
    outer loop
      vertex 74 2 1.6
      vertex 74 3.73205 0
      vertex 74 3.73205 1.6
    endloop
  endfacet
  facet normal 1 0 0
    outer loop
      vertex 74 3.73205 0
      vertex 74 2 1.6
      vertex 74 2 0
    endloop
  endfacet
  facet normal -1 0 0
    outer loop
      vertex 76 2 0
      vertex 76 3.73205 1.6
      vertex 76 3.73205 0
    endloop
  endfacet
  facet normal -1 -0 0
    outer loop
      vertex 76 3.73205 1.6
      vertex 76 2 0
      vertex 76 2 1.6
    endloop
  endfacet
  facet normal 0.5 0.866026 -0
    outer loop
      vertex 79 2 0
      vertex 76 3.73205 1.6
      vertex 79 2 1.6
    endloop
  endfacet
  facet normal 0.5 0.866026 0
    outer loop
      vertex 76 3.73205 1.6
      vertex 79 2 0
      vertex 76 3.73205 0
    endloop
  endfacet
  facet normal -0.5 0.866026 0
    outer loop
      vertex 124 3.73205 0
      vertex 121 2 1.6
      vertex 124 3.73205 1.6
    endloop
  endfacet
  facet normal -0.5 0.866026 0
    outer loop
      vertex 121 2 1.6
      vertex 124 3.73205 0
      vertex 121 2 0
    endloop
  endfacet
  facet normal 1 -0 0
    outer loop
      vertex 124 2 1.6
      vertex 124 3.73205 0
      vertex 124 3.73205 1.6
    endloop
  endfacet
  facet normal 1 0 0
    outer loop
      vertex 124 3.73205 0
      vertex 124 2 1.6
      vertex 124 2 0
    endloop
  endfacet
  facet normal -1 0 0
    outer loop
      vertex 126 2 0
      vertex 126 3.73205 1.6
      vertex 126 3.73205 0
    endloop
  endfacet
  facet normal -1 -0 0
    outer loop
      vertex 126 3.73205 1.6
      vertex 126 2 0
      vertex 126 2 1.6
    endloop
  endfacet
  facet normal 0.5 0.866026 -0
    outer loop
      vertex 129 2 0
      vertex 126 3.73205 1.6
      vertex 129 2 1.6
    endloop
  endfacet
  facet normal 0.5 0.866026 0
    outer loop
      vertex 126 3.73205 1.6
      vertex 129 2 0
      vertex 126 3.73205 0
    endloop
  endfacet
  facet normal 0 1 -0
    outer loop
      vertex 140 2 0.799999
      vertex 129 2 1.6
      vertex 140 2 1.6
    endloop
  endfacet
  facet normal 0 1 0
    outer loop
      vertex 129 2 0
      vertex 140 2 0.799999
      vertex 140 2 0
    endloop
  endfacet
  facet normal 0 1 0
    outer loop
      vertex 140 2 0.799999
      vertex 129 2 0
      vertex 129 2 1.6
    endloop
  endfacet
  facet normal 0 1 -0
    outer loop
      vertex 121 2 0
      vertex 79 2 1.6
      vertex 121 2 1.6
    endloop
  endfacet
  facet normal 0 1 0
    outer loop
      vertex 79 2 1.6
      vertex 121 2 0
      vertex 79 2 0
    endloop
  endfacet
  facet normal 0 1 -0
    outer loop
      vertex 71 2 0
      vertex 29 2 1.6
      vertex 71 2 1.6
    endloop
  endfacet
  facet normal 0 1 0
    outer loop
      vertex 29 2 1.6
      vertex 71 2 0
      vertex 29 2 0
    endloop
  endfacet
  facet normal 0 1 0
    outer loop
      vertex 21 2 1.6
      vertex 10 2 0.799999
      vertex 10 2 1.6
    endloop
  endfacet
  facet normal 0 1 -0
    outer loop
      vertex 21 2 0
      vertex 10 2 0.799999
      vertex 21 2 1.6
    endloop
  endfacet
  facet normal 0 1 0
    outer loop
      vertex 10 2 0.799999
      vertex 21 2 0
      vertex 10 2 0
    endloop
  endfacet
  facet normal 0 1 -0
    outer loop
      vertex 26 2 0
      vertex 24 2 1.6
      vertex 26 2 1.6
    endloop
  endfacet
  facet normal 0 1 0
    outer loop
      vertex 24 2 1.6
      vertex 26 2 0
      vertex 24 2 0
    endloop
  endfacet
  facet normal 0 1 -0
    outer loop
      vertex 76 2 0
      vertex 74 2 1.6
      vertex 76 2 1.6
    endloop
  endfacet
  facet normal 0 1 0
    outer loop
      vertex 74 2 1.6
      vertex 76 2 0
      vertex 74 2 0
    endloop
  endfacet
  facet normal 0 1 -0
    outer loop
      vertex 126 2 0
      vertex 124 2 1.6
      vertex 126 2 1.6
    endloop
  endfacet
  facet normal 0 1 0
    outer loop
      vertex 124 2 1.6
      vertex 126 2 0
      vertex 124 2 0
    endloop
  endfacet
endsolid OpenSCAD_Model
